<svg xmlns="http://www.w3.org/2000/svg" viewBox="0 0 390.07 456.94"><defs><style>.cls-1{fill:#fff;}.cls-2{fill:none;stroke:#000;stroke-linecap:round;stroke-linejoin:round;stroke-width:2px;}</style></defs><g id="Layer_2" data-name="Layer 2"><g id="Layer_1-2" data-name="Layer 1"><path class="cls-1" d="M390.05,228.46q0,113.58,0,227.17c0,1-.13,1.31-1.24,1.31q-193.81,0-387.62,0c-1,0-1.2-.23-1.2-1.22Q0,228.49,0,1.24C0,.11.35,0,1.32,0Q195.06,0,388.8,0c1.06,0,1.27.26,1.27,1.29Q390,114.87,390.05,228.46ZM333.94,364.19v.28c-1.11,0-2.23-.06-3.34,0a1.14,1.14,0,0,1-1.32-.74,4,4,0,0,0-3.57-2.39,1.59,1.59,0,0,1-1.07-.87c-.72-1.76-1.36-3.56-2-5.36-1.29-3.58-2.58-7.16-3.81-10.77a1.21,1.21,0,0,1,.45-1.08c3.17-1.79,6.38-3.51,9.58-5.25s6.57-3.55,9.84-5.35c6.22-3.42,12.44-6.84,18.64-10.31.77-.43,1.24-.48,1.85.23a3.64,3.64,0,0,0,4.13,1.07,3.86,3.86,0,0,0,2.78-3.27,4,4,0,0,0-2.18-4.23,1.64,1.64,0,0,1-.82-.93c-.19-1.18-.22-2.37-.32-3.56-.2-2.19-.37-4.38-.6-6.57-.33-3.18-.73-6.35-1.07-9.53-.23-2.19-.36-4.39-.59-6.57-.34-3.23-.74-6.45-1.08-9.67-.22-2.14-.36-4.29-.58-6.43-.35-3.37-.74-6.72-1.09-10.09-.22-2.05-.38-4.1-.6-6.15-.34-3.22-.73-6.44-1.07-9.67-.22-2.14-.36-4.29-.59-6.43-.34-3.18-.74-6.35-1.08-9.53-.23-2.19-.36-4.38-.59-6.57-.34-3.41-.73-6.82-1.08-10.22-.21-2-.38-4-.59-6-.35-3.22-.74-6.44-1.08-9.67-.22-2.14-.36-4.29-.59-6.43-.34-3.18-.74-6.35-1.08-9.53-.23-2.18-.36-4.38-.59-6.57-.34-3.41-.73-6.81-1.08-10.22-.21-2-.38-4-.59-6-.35-3.27-.74-6.53-1.08-9.8-.22-2.1-.37-4.2-.59-6.3-.35-3.31-.72-6.63-1.09-9.94-.25-2.23-.63-4.44-.74-6.67-.07-1.46-.77-3,.86-4.37a3.35,3.35,0,0,0,.06-4.43,3.88,3.88,0,0,1-1.05-3.64c.32-2.6.39-5.22.61-7.83.34-4,.74-7.93,1.1-11.89.2-2.28.37-4.57.58-6.85.35-3.83.74-7.65,1.08-11.48.22-2.38.37-4.76.59-7.13.34-3.74.77-7.46,1.07-11.2.12-1.51.18-2.86,1.52-4a3.77,3.77,0,0,0,.41-4.79A4.37,4.37,0,0,0,346,47.65c-1.61.39-3.19,2.18-3,3.81a2.35,2.35,0,0,1-1.73,2.72c-.37.17-.74.35-1.1.55q-7.15,4.11-14.3,8.24c-4.49,2.59-9,5.22-13.45,7.81-4.06,2.34-8.16,4.61-12.19,7-.95.57-1.21.27-1.64-.56a9.72,9.72,0,0,0-13-4.24,9.83,9.83,0,0,0,4.41,18.6,8.63,8.63,0,0,0,6.73-2.86,1.11,1.11,0,0,1,1.82-.15c2,1.56,4,3.08,6,4.58q16.29,12.21,32.58,24.42a1.65,1.65,0,0,1,.31,1.2,22.08,22.08,0,0,1-.3,2.7c-.08.45-.19,1.07-.5,1.28-1.21.81-2.51,1.48-3.77,2.2q-7.2,4.16-14.41,8.33-8.89,5.17-17.76,10.42c-.61.36-.84.44-1.17-.34a9.77,9.77,0,0,0-13.24-5,.87.87,0,0,1-.77-.24c-1.3-2.25-2.55-4.52-3.81-6.79-2.07-3.74-4.11-7.5-6.2-11.24-3.46-6.19-7-12.37-10.42-18.57-1.93-3.46-3.81-6.94-5.74-10.4q-4.41-7.92-8.89-15.83a1.19,1.19,0,0,1,.21-1.74,3.56,3.56,0,0,0,.76-4.06,3.84,3.84,0,0,0-3.51-2.63,4,4,0,0,0-4.05,2.49c-.28.56-.29,1.32-1.32,1.14C241,70.2,239.5,70,238,69.91q-7.41-.6-14.82-1.12c-4.44-.31-8.89-.54-13.34-.86a3.2,3.2,0,0,1-3.08-1.81c-1.32-2.5-5.15-2.44-6.69,0-.56.9-1,.76-1.81.56Q187.47,64,176.7,61.27c-3.43-.86-6.87-1.69-10.3-2.58a1.48,1.48,0,0,1-.93-.86c-.31-1.61-.19-3.37-.79-4.84a9.4,9.4,0,0,0-10.31-5.65,9.57,9.57,0,0,0-8.4,9.74A9.43,9.43,0,0,0,152,66c1,.44,1,.86.74,1.75-.93,3.23-1.78,6.47-2.64,9.72-1.43,5.44-2.83,10.88-4.27,16.32-.42,1.61-.45,1.59-1.61.45L126.86,77.15c-6.61-6.5-13.19-13-19.82-19.5-.63-.62-.6-1-.11-1.68a9.94,9.94,0,0,0,1.74-6.92,9.75,9.75,0,0,0-10.94-8.42,9.61,9.61,0,0,0-7.49,5.31c-.51,1-.54,2.51-1.28,2.93s-2.21-.11-3.35-.12q-15.78-.16-31.54-.29a1.74,1.74,0,0,1-.69,0,.78.78,0,0,1-.4-.54c0-.79,0-1.6-.06-2.38a9.68,9.68,0,0,0-13.43-7.59,9.57,9.57,0,0,0-5.75,10.95,9.41,9.41,0,0,0,9.66,7.84c1.77,0,1.44.63,1.44,1.57v53.88a2.56,2.56,0,0,1,0,1,1.25,1.25,0,0,1-.65.75,31.62,31.62,0,0,0-3.54.9,9.74,9.74,0,0,0-5.8,10.93c.59,3.74,4.33,7.39,8.06,7.68,1.16.08,1.43.54,1.42,1.63q0,27.08,0,54.15a1.55,1.55,0,0,1-1,1.67,4,4,0,0,0-.89,6.78,1.18,1.18,0,0,1,.46,1.52q-2.67,8.16-5.28,16.32-4.89,15.28-9.73,30.6c-.35,1.1-.63,1.72-2.06,1.27a8.17,8.17,0,0,0-5.84.55,9.83,9.83,0,0,0,4,18.82,9,9,0,0,0,8.77-5.9c.73-1.89,1.38-2.57,3.43-2.16s4.47.42,6.7.64c3.46.34,6.91.74,10.36,1.09,2.14.21,4.29.37,6.43.59,3.41.34,6.82.77,10.23,1.05,1.12.09,1.55.37,1.74,1.57a9.46,9.46,0,0,0,9.7,8.12A9.28,9.28,0,0,0,90,266.05a1,1,0,0,1,1.34-.7c4.57.79,9.15,1.51,13.72,2.27.16,0,.41.26.4.39,0,.63-.16,1.26-.25,1.89-.54,3.65-1.11,7.29-1.62,10.94s-.94,7.15-1.43,10.72c-.53,3.83-1.07,7.67-1.66,11.49-.15,1-.25,2.28-.88,2.78-3.52,2.73-7.2,5.26-10.82,7.86-4,2.9-8,5.82-12.07,8.72-4.8,3.45-9.63,6.86-14.4,10.36-.73.53-.93.34-1.42-.24a9.8,9.8,0,0,0-17.14,8.34c.82,3.86,4.34,7.25,8.26,7.46.9.05.87.61.89,1.24.08,2.45.2,4.89.27,7.33.11,3.88.18,7.76.28,11.64.09,3.37.19,6.74.28,10.11.1,4.06.21,8.13.27,12.2,0,2.64,0,5.29,0,7.93,0,.52.65,1.12-.35,1.58a3.68,3.68,0,0,0-2.11,4.22,3.87,3.87,0,0,0,2.85,3.22,4,4,0,0,0,4.34-1.36c.24-.29.55-.66.87-.71a30.18,30.18,0,0,1,3.42-.31c3.6-.11,7.2-.21,10.8-.28,5.83-.11,11.66-.18,17.49-.3,1,0,1.35.2,1.44,1.29.38,4.38,5.64,8.69,9.84,8.19a10.76,10.76,0,0,0,8.13-4.71,1.39,1.39,0,0,1,1.27-.35c1.64.53,3.24,1.17,4.84,1.81,10.47,4.12,20.93,8.29,31.43,12.33,1.17.45,1.38.92,1.26,2a12,12,0,0,0,0,2.93,9.61,9.61,0,0,0,9.8,8.2,9.16,9.16,0,0,0,7.19-3.43,9.6,9.6,0,0,0,2.28-7.42,9.93,9.93,0,0,0-3.28-6.42c-.22-.21-.39-.84-.25-1,2.28-2.64,4.62-5.24,6.94-7.84,1.59-1.78,3.2-3.55,4.77-5.35,2.32-2.66,4.61-5.35,7-8a1.29,1.29,0,0,1,1.1-.33c3.43,1.16,6.85,2.39,10.28,3.58a1.24,1.24,0,0,1,1,1.37,4.15,4.15,0,0,0,3,4,4,4,0,0,0,4.46-2c.46-.9,1.07-.84,1.8-.73,3,.43,6,.9,9,1.34,2.85.41,5.69.79,8.54,1.19s5.94.89,8.92,1.31,5.77.81,8.66,1.22,5.86.88,8.79,1.29,5.6.74,8.4,1.15a1,1,0,0,1,.65.69,8.8,8.8,0,0,1,0,2.51,2.14,2.14,0,0,1-1,1.41c-9.49,4.79-19,9.52-28.52,14.28a1.25,1.25,0,0,1-1.64-.07,3.88,3.88,0,0,0-5.13.3,4.06,4.06,0,0,0,3.16,7,4.13,4.13,0,0,0,3.37-2.48c.22-.42.55-1,.89-1.09a40.57,40.57,0,0,1,4.68-.32c5.41-.12,10.82-.2,16.23-.29l16.92-.28,16.24-.27,16.65-.28,16.51-.28,18.73-.28c1.95,0,3.9,0,5.85,0,2.77-.06,5.53-.16,8.29-.28.7,0,1.28,0,1.46.85.88,4.06,5.35,7.67,10.72,7,4.5-.55,9.15-5.14,8.25-10.8s-5.19-9.13-10.93-8.49a9.14,9.14,0,0,0-7.88,6.31c-.52,1.36-1,1.24-1.91.89l-23.08-8.62c-.91-.34-1.55-.78-1.35-2a6.25,6.25,0,0,0-.43-1.95,1.46,1.46,0,0,1,0-.95c1.2-1.72,2.44-3.4,3.67-5.09l12.67-17.3c4.08-5.59,8.17-11.18,12.21-16.79.63-.88,1.14-.88,2-.3a9.19,9.19,0,0,0,9.43.85A9.53,9.53,0,0,0,370.31,364a9.73,9.73,0,0,0-13.45-7.59,9.2,9.2,0,0,0-5.61,6.49,1.51,1.51,0,0,1-1,.94,31.46,31.46,0,0,1-4.12.3C342.07,364.21,338,364.19,333.94,364.19Z"/><path d="M333.94,364.19c4.06,0,8.13,0,12.19,0a31.46,31.46,0,0,0,4.12-.3,1.51,1.51,0,0,0,1-.94,9.2,9.2,0,0,1,5.61-6.49A9.73,9.73,0,0,1,370.31,364a9.53,9.53,0,0,1-5.64,10.34,9.19,9.19,0,0,1-9.43-.85c-.82-.58-1.33-.58-2,.3-4,5.61-8.13,11.2-12.21,16.79l-12.67,17.3c-1.23,1.69-2.47,3.37-3.67,5.09a1.46,1.46,0,0,0,0,.95,6.25,6.25,0,0,1,.43,1.95c-.2,1.21.44,1.65,1.35,2l23.08,8.62c.93.35,1.39.47,1.91-.89a9.14,9.14,0,0,1,7.88-6.31c5.74-.64,10,2.69,10.93,8.49s-3.75,10.25-8.25,10.8c-5.37.66-9.84-3-10.72-7-.18-.83-.76-.87-1.46-.85-2.76.12-5.52.22-8.29.28-1.95,0-3.9,0-5.85,0l-18.73.28-16.51.28-16.65.28-16.24.27-16.92.28c-5.41.09-10.82.17-16.23.29a40.57,40.57,0,0,0-4.68.32c-.34.05-.67.67-.89,1.09a4.13,4.13,0,0,1-3.37,2.48,4.06,4.06,0,1,1,2-7.32,1.25,1.25,0,0,0,1.64.07c9.51-4.76,19-9.49,28.52-14.28a2.14,2.14,0,0,0,1-1.41,8.8,8.8,0,0,0,0-2.51,1,1,0,0,0-.65-.69c-2.8-.41-5.6-.76-8.4-1.15s-5.86-.87-8.79-1.29-5.78-.8-8.66-1.22-6-.88-8.92-1.31-5.69-.78-8.54-1.19c-3-.44-6-.91-9-1.34-.73-.11-1.34-.17-1.8.73a4,4,0,0,1-4.46,2,4.15,4.15,0,0,1-3-4,1.24,1.24,0,0,0-1-1.37c-3.43-1.19-6.85-2.42-10.28-3.58a1.29,1.29,0,0,0-1.1.33c-2.34,2.64-4.63,5.33-7,8-1.57,1.8-3.18,3.57-4.77,5.35-2.32,2.6-4.66,5.2-6.94,7.84-.14.15,0,.78.25,1a9.93,9.93,0,0,1,3.28,6.42,9.6,9.6,0,0,1-2.28,7.42,9.16,9.16,0,0,1-7.19,3.43,9.61,9.61,0,0,1-9.8-8.2,12,12,0,0,1,0-2.93c.12-1.08-.09-1.55-1.26-2-10.5-4-21-8.21-31.43-12.33-1.6-.64-3.2-1.28-4.84-1.81a1.39,1.39,0,0,0-1.27.35,10.76,10.76,0,0,1-8.13,4.71c-4.2.5-9.46-3.81-9.84-8.19-.09-1.09-.48-1.3-1.44-1.29-5.83.12-11.66.19-17.49.3-3.6.07-7.2.17-10.8.28a30.18,30.18,0,0,0-3.42.31c-.32,0-.63.42-.87.71a4,4,0,0,1-4.34,1.36,3.87,3.87,0,0,1-2.85-3.22,3.68,3.68,0,0,1,2.11-4.22c1-.46.34-1.06.35-1.58,0-2.64.05-5.29,0-7.93-.06-4.07-.17-8.14-.27-12.2-.09-3.37-.19-6.74-.28-10.11-.1-3.88-.17-7.76-.28-11.64-.07-2.44-.19-4.88-.27-7.33,0-.63,0-1.19-.89-1.24-3.92-.21-7.44-3.6-8.26-7.46a9.8,9.8,0,0,1,17.14-8.34c.49.58.69.77,1.42.24,4.77-3.5,9.6-6.91,14.4-10.36,4-2.9,8-5.82,12.07-8.72,3.62-2.6,7.3-5.13,10.82-7.86.63-.5.73-1.81.88-2.78.59-3.82,1.13-7.66,1.66-11.49.49-3.57.92-7.15,1.43-10.72s1.08-7.29,1.62-10.94c.09-.63.2-1.26.25-1.89,0-.13-.24-.36-.4-.39-4.57-.76-9.15-1.48-13.72-2.27a1,1,0,0,0-1.34.7,9.28,9.28,0,0,1-8.69,5.64,9.46,9.46,0,0,1-9.7-8.12c-.19-1.2-.62-1.48-1.74-1.57-3.41-.28-6.82-.71-10.23-1.05-2.14-.22-4.29-.38-6.43-.59-3.45-.35-6.9-.75-10.36-1.09-2.23-.22-4.51-.2-6.7-.64s-2.7.27-3.43,2.16a9,9,0,0,1-8.77,5.9,9.83,9.83,0,0,1-4-18.82,8.17,8.17,0,0,1,5.84-.55c1.43.45,1.71-.17,2.06-1.27q4.83-15.31,9.73-30.6,2.61-8.17,5.28-16.32a1.18,1.18,0,0,0-.46-1.52,4,4,0,0,1,.89-6.78,1.55,1.55,0,0,0,1-1.67q0-27.07,0-54.15c0-1.09-.26-1.55-1.42-1.63-3.73-.29-7.47-3.94-8.06-7.68a9.74,9.74,0,0,1,5.8-10.93,31.62,31.62,0,0,1,3.54-.9,1.25,1.25,0,0,0,.65-.75,2.56,2.56,0,0,0,0-1V58.28c0-.94.33-1.59-1.44-1.57a9.41,9.41,0,0,1-9.66-7.84,9.57,9.57,0,0,1,5.75-10.95,9.68,9.68,0,0,1,13.43,7.59c.1.78,0,1.59.06,2.38a.78.78,0,0,0,.4.54,1.74,1.74,0,0,0,.69,0q15.76.13,31.54.29c1.14,0,2.52.59,3.35.12s.77-2,1.28-2.93a9.61,9.61,0,0,1,7.49-5.31,9.75,9.75,0,0,1,10.94,8.42A9.94,9.94,0,0,1,106.93,56c-.49.67-.52,1.06.11,1.68,6.63,6.48,13.21,13,19.82,19.5l17.33,17.06c1.16,1.14,1.19,1.16,1.61-.45,1.44-5.44,2.84-10.88,4.27-16.32.86-3.25,1.71-6.49,2.64-9.72.26-.89.26-1.31-.74-1.75a9.43,9.43,0,0,1-6-8.89,9.57,9.57,0,0,1,8.4-9.74A9.4,9.4,0,0,1,164.68,53c.6,1.47.48,3.23.79,4.84a1.48,1.48,0,0,0,.93.86c3.43.89,6.87,1.72,10.3,2.58q10.76,2.68,21.51,5.41c.77.2,1.25.34,1.81-.56,1.54-2.44,5.37-2.5,6.69,0a3.2,3.2,0,0,0,3.08,1.81c4.45.32,8.9.55,13.34.86q7.41.52,14.82,1.12c1.55.12,3.09.29,4.62.56,1,.18,1-.58,1.32-1.14a4,4,0,0,1,4.05-2.49,3.84,3.84,0,0,1,3.51,2.63,3.56,3.56,0,0,1-.76,4.06,1.19,1.19,0,0,0-.21,1.74q4.49,7.91,8.89,15.83c1.93,3.46,3.81,6.94,5.74,10.4,3.46,6.2,7,12.38,10.42,18.57,2.09,3.74,4.13,7.5,6.2,11.24,1.26,2.27,2.51,4.54,3.81,6.79a.87.87,0,0,0,.77.24,9.77,9.77,0,0,1,13.24,5c.33.78.56.7,1.17.34q8.86-5.24,17.76-10.42,7.2-4.19,14.41-8.33c1.26-.72,2.56-1.39,3.77-2.2.31-.21.42-.83.5-1.28a22.08,22.08,0,0,0,.3-2.7,1.65,1.65,0,0,0-.31-1.2q-16.26-12.24-32.58-24.42c-2-1.5-4-3-6-4.58a1.11,1.11,0,0,0-1.82.15,8.63,8.63,0,0,1-6.73,2.86,9.8,9.8,0,1,1,8.58-14.36c.43.83.69,1.13,1.64.56,4-2.38,8.13-4.65,12.19-7,4.49-2.59,9-5.22,13.45-7.81q7.14-4.14,14.3-8.24c.36-.2.73-.38,1.1-.55A2.35,2.35,0,0,0,343,51.46c-.19-1.63,1.39-3.42,3-3.81a4.37,4.37,0,0,1,4.45,1.84,3.77,3.77,0,0,1-.41,4.79c-1.34,1.12-1.4,2.47-1.52,4-.3,3.74-.73,7.46-1.07,11.2-.22,2.37-.37,4.75-.59,7.13-.34,3.83-.73,7.65-1.08,11.48-.21,2.28-.38,4.57-.58,6.85-.36,4-.76,7.93-1.1,11.89-.22,2.61-.29,5.23-.61,7.83a3.88,3.88,0,0,0,1.05,3.64,3.35,3.35,0,0,1-.06,4.43c-1.63,1.35-.93,2.91-.86,4.37.11,2.23.49,4.44.74,6.67.37,3.31.74,6.63,1.09,9.94.22,2.1.37,4.2.59,6.3.34,3.27.73,6.53,1.08,9.8.21,2,.38,4,.59,6,.35,3.41.74,6.81,1.08,10.22.23,2.19.36,4.39.59,6.57.34,3.18.74,6.35,1.08,9.53.23,2.14.37,4.29.59,6.43.34,3.23.73,6.45,1.08,9.67.21,2,.38,4,.59,6,.35,3.4.74,6.81,1.08,10.22.23,2.19.36,4.38.59,6.57.34,3.18.74,6.35,1.08,9.53.23,2.14.37,4.29.59,6.43.34,3.23.73,6.45,1.07,9.67.22,2.05.38,4.1.6,6.15.35,3.37.74,6.72,1.09,10.09.22,2.14.36,4.29.58,6.43.34,3.22.74,6.44,1.08,9.67.23,2.18.36,4.38.59,6.57.34,3.18.74,6.35,1.07,9.53.23,2.19.4,4.38.6,6.57.1,1.19.13,2.38.32,3.56a1.64,1.64,0,0,0,.82.93,4,4,0,0,1,2.18,4.23,3.86,3.86,0,0,1-2.78,3.27,3.64,3.64,0,0,1-4.13-1.07c-.61-.71-1.08-.66-1.85-.23-6.2,3.47-12.42,6.89-18.64,10.31-3.27,1.8-6.56,3.57-9.84,5.35s-6.41,3.46-9.58,5.25a1.21,1.21,0,0,0-.45,1.08c1.23,3.61,2.52,7.19,3.81,10.77.64,1.8,1.28,3.6,2,5.36a1.59,1.59,0,0,0,1.07.87,4,4,0,0,1,3.57,2.39,1.14,1.14,0,0,0,1.32.74c1.11-.08,2.23,0,3.34,0Zm27.69-49.79a8.82,8.82,0,0,0,0-1c-.36-3.37-.74-6.72-1.09-10.09-.21-2-.37-4.1-.58-6.15-.35-3.27-.74-6.53-1.09-9.8-.22-2.14-.37-4.29-.6-6.43-.34-3.18-.73-6.35-1.07-9.53-.22-2.19-.36-4.38-.59-6.57-.34-3.18-.74-6.35-1.08-9.53-.23-2.18-.36-4.38-.58-6.57-.35-3.36-.74-6.72-1.09-10.08-.21-2.05-.37-4.1-.59-6.15-.35-3.22-.74-6.44-1.08-9.67-.22-2.14-.36-4.29-.59-6.43-.34-3.18-.74-6.35-1.08-9.52-.23-2.19-.36-4.39-.58-6.57-.35-3.41-.74-6.82-1.09-10.23-.21-2-.38-4-.59-6-.35-3.27-.74-6.53-1.08-9.8-.22-2.1-.36-4.2-.59-6.3-.34-3.13-.75-6.25-1.08-9.38-.23-2.24-.36-4.48-.58-6.71-.35-3.41-.74-6.82-1.09-10.22-.21-2-.38-4-.59-6-.35-3.27-.71-6.54-1.1-9.8-.06-.45-.23-1.11-.55-1.25-.68-.32-1.08.15-1.4.84-2.14,4.72-4.35,9.41-6.5,14.13-3.72,8.15-7.4,16.31-11.12,24.46-2.43,5.34-4.86,10.68-7.34,16a1.57,1.57,0,0,0,.2,1.84c1.54,2.14,3,4.34,4.5,6.51,3.12,4.48,6.24,9,9.41,13.4a1.76,1.76,0,0,0,1.23.48c1.21,0,2.44-.16,3.63,0a9.47,9.47,0,0,1,8.46,9.66,9.13,9.13,0,0,1-5.61,8.7c-1.35.59-1.39,1.46-1.24,2.61.2,1.45.38,2.9.51,4.35.22,2.47.35,4.94.59,7.41.33,3.5.76,7,1.08,10.5.24,2.6.36,5.22.58,7.82.34,3.88.7,7.75,1.13,11.61a4,4,0,0,0,.84,2.42c2.1,1.8,2.62,4.1,1.11,6a4,4,0,0,1-6.16.37,1,1,0,0,0-1-.15c-3.17,2.37-6.32,4.78-9.46,7.2-4.65,3.6-9.25,7.28-14,10.78-.89.66-.78,1-.29,1.62a8.17,8.17,0,0,1,1.8,5.61,9.42,9.42,0,0,1-5.47,8.67c-1.13.55-1.19,1.1-.82,2.11,2.15,5.88,4.26,11.77,6.38,17.66q2.61,7.29,5.19,14.61c.21.6.18.81.91.37,2.35-1.4,4.8-2.61,7.19-3.93,6.3-3.47,12.58-7,18.88-10.44,4.1-2.25,8.24-4.46,12.34-6.73a1.69,1.69,0,0,0,.79-1.17,3.91,3.91,0,0,1,2.63-3.81C361.47,315.68,361.85,315.23,361.63,314.4ZM133.72,139.24c-3.75,1.53-7.24,2.95-10.71,4.42a1.05,1.05,0,0,0-.42.93,12.64,12.64,0,0,1,.54,5.06,9.75,9.75,0,0,1-15.95,6.1c-.49-.4-.72-.51-1.31-.11-3,2-6.1,4-9.15,5.93-4.73,3.07-9.46,6.13-14.18,9.22q-16.49,10.8-32.93,21.66a1.68,1.68,0,0,0-.54,1.28,4.08,4.08,0,0,1-1.45,3.82c-.76.54-.59,1-.24,1.62q3.1,5.61,6.18,11.24c2.32,4.23,4.59,8.49,6.92,12.72q5.24,9.51,10.52,19c1.89,3.43,3.75,6.86,5.67,10.27a1,1,0,0,0,.86.36,14,14,0,0,1,5-.54c4.56.51,9.08,5.19,8.23,10.68-.11.72,0,1,.91,1.11,2,.22,3.93.67,5.91,1,2.37.4,4.75.81,7.14,1.14.31.05,1-.28,1-.5.44-2.8.79-5.6,1.16-8.4s.75-5.79,1.16-8.68c.52-3.65,1.1-7.3,1.62-10.95s.92-7.14,1.43-10.71,1.1-7.29,1.61-10.94a1.63,1.63,0,0,0-.39-1.29c-1.54-1.26-2.3-2.82-1.63-4.73a4,4,0,0,1,4.24-2.82,1.15,1.15,0,0,0,.85-.67q1.86-6.69,3.63-13.39c1.9-7.24,3.74-14.49,5.67-21.72C127.93,160.72,130.8,150.09,133.72,139.24ZM229.88,113a10.89,10.89,0,0,1,1.31.32,4,4,0,0,1,1.21,7,1.47,1.47,0,0,0-.46,1.08c.71,4.92,1.49,9.82,2.21,14.73.69,4.64,1.3,9.29,2,13.94s1.41,9.54,2.26,14.29c.14.75-.36,2,1,2.32a9.52,9.52,0,0,1,5.32,3.41c.34.39.54.56,1,.25q11.49-7.23,23-14.42c3.7-2.31,7.41-4.62,11.09-6.95.38-.24.92-.68.9-1a9.21,9.21,0,0,1,2.93-7.72,1.52,1.52,0,0,0,.34-2.22c-4-7-7.86-14.06-11.78-21.09s-8-14.3-12-21.46c-3.63-6.52-7.27-13-10.86-19.57a1.58,1.58,0,0,0-1.75-1,3.2,3.2,0,0,1-3.34-1.75c-.64-1.45-1.76-1.46-2.87-1.55-3.2-.26-6.42-.39-9.63-.59-1.33-.08-2.66-.18-4-.29l-12.59-1.1c-2.19-.19-4.38-.35-6.56-.55a1.33,1.33,0,0,0-1.59.88,3.8,3.8,0,0,1-4.05,2.45,1.34,1.34,0,0,0-1.54,1c-1.3,2.91-2.69,5.78-4.06,8.65q-4.83,10.13-9.67,20.22c-1.68,3.5-3.41,7-5.09,10.46a1,1,0,0,0,.1.93,10.36,10.36,0,0,1,3.51,5.14.54.54,0,0,0,.44.31c3.66-.23,7.31-.49,11-.74,1.33-.09,2.66-.17,4-.29,4.2-.36,8.4-.77,12.6-1.09,3.25-.24,6.52-.35,9.77-.59a2.45,2.45,0,0,0,2.37-1.43A3.6,3.6,0,0,1,229.88,113ZM181.44,330a4,4,0,0,1-2.08-7.56c.3-.19.73-.55.71-.8-.1-1.4-.31-2.8-.52-4.19-.54-3.65-1.13-7.29-1.63-11-.52-3.84-.93-7.7-1.43-11.55-.42-3.2-.94-6.39-1.35-9.6a1.65,1.65,0,0,0-1.23-1.57c-5.84-2-11.68-4-17.5-6-1-.36-1.41-.18-1.92.82A9.66,9.66,0,0,1,139,281.05c-1-1-1.62-.88-2.61-.14q-6.71,4.93-13.49,9.78c-6.32,4.53-12.67,9-19,13.55-1.39,1-2.64,1.94-2.82,4-.35,3.94-1.07,7.85-1.59,11.78-.14,1.08-.36,2.08,1,2.9.79.49,1.15,1.86,1.44,2.91.19.69.34.94,1.08,1.11,6.9,1.57,13.78,3.21,20.67,4.79a1.16,1.16,0,0,0,1-.45c2.28-4.24,5.75-6.1,10.58-5.51,3.67.45,7.5,4.16,7.92,7.85.12,1-.21,2.4.33,2.9s2,.52,3.11.72c4.91.92,9.82,1.85,14.73,2.74,5.37,1,10.76,1.86,16.12,2.82,5,.89,9.92,1.83,14.88,2.75,3.93.74,7.85,1.49,11.79,2.2,2.77.5,5.55.94,8.33,1.43,1.32.23,1-1.06,1.45-1.61.09-.11-.22-.75-.49-.92-1.8-1.14-3.64-2.23-5.48-3.32-6.59-3.87-13.15-7.78-19.79-11.56-1.93-1.1-3.72-3.13-6.38-1.79C181.64,330,181.53,330,181.44,330Zm-53.17,13.78c-.06.18-.13.37-.2.55q-4.72,11.67-9.43,23.34a1.07,1.07,0,0,0,.34,1c.94.53,2,.94,2.94,1.41q10.67,5.12,21.3,10.26c.75.36,1.23.5,1.85-.32a3.59,3.59,0,0,1,4.11-1.18,4.12,4.12,0,0,1,2.9,3.78,1.56,1.56,0,0,0,.84,1.09c1.62.71,3.27,1.35,4.94,1.94,8.46,3,16.94,5.95,25.38,9,.86.31,1.29.25,1.83-.39,2.38-2.78,4.77-5.56,7.2-8.31s5.12-5.66,7.65-8.52q6-6.79,12-13.64c1.18-1.35,2.35-2.7,3.48-4.08a.94.94,0,0,0,.08-.87,9.22,9.22,0,0,1-2.54-7.73c0-.13-.37-.43-.6-.48-3-.58-6-1.15-9-1.67-7-1.23-14-2.42-20.95-3.66-5.64-1-11.27-2-16.9-3.05-7.15-1.29-14.31-2.56-21.45-3.94-.89-.17-1.13-.08-1.44.71a9.76,9.76,0,0,1-13.7,5C128.74,343.93,128.57,343.87,128.27,343.74ZM340.8,429.62v.13c3-.14,6.08-.27,9.12-.43a2.42,2.42,0,0,0,.84-.41c-.22-.29-.38-.72-.67-.85-1-.44-2-.77-3.05-1.15-7.27-2.71-14.53-5.44-21.81-8.11a1.9,1.9,0,0,0-1.52.25,4.29,4.29,0,0,1-3.65.77,4.22,4.22,0,0,1-2.84-5.22,4.06,4.06,0,0,1,5.68-2.39c.56.27.82.19,1.15-.26,3.4-4.63,6.82-9.23,10.2-13.86q9.35-12.79,18.64-25.61a1.06,1.06,0,0,0,0-1,9.83,9.83,0,0,1-1.88-5,1.1,1.1,0,0,0-1.43-1.15,32.81,32.81,0,0,1-3.57.28c-4.94.12-9.89.23-14.83.27a1.73,1.73,0,0,0-1.87,1.18,3.7,3.7,0,0,1-4,2.43,2.86,2.86,0,0,0-2.21.66q-2.1,1.65-4.19,3.31c-4.77,3.84-9.51,7.7-14.3,11.5s-9.41,7.36-14.1,11.07q-6.6,5.22-13.14,10.54a1.31,1.31,0,0,0-.34,1.16,10.76,10.76,0,0,1,.89,6.08,9.63,9.63,0,0,1-9.75,8.25,9.32,9.32,0,0,1-8.65-5.51c-.36-.72-.67-.62-1.28-.32q-14.17,7.14-28.38,14.24a5.75,5.75,0,0,0-.9.68,3.69,3.69,0,0,0,1.21.41c2.16,0,4.32-.19,6.48-.25q7-.17,14-.28l17.76-.28,15.39-.28,17.06-.28,16.09-.27q9-.15,18-.28C336.91,429.59,338.85,429.62,340.8,429.62ZM107.15,265.93c.13.14.4.7.77.77,4.38.8,8.77,1.54,13.17,2.26,4.76.78,9.53,1.46,14.28,2.32.79.14.94.07,1.22-.62a9.79,9.79,0,0,1,11.64-6,1.57,1.57,0,0,0,1.34-.65c1.7-3.06,3.32-6.18,5-9.27q2.11-4,4.26-8c2.86-5.29,5.74-10.56,8.57-15.86a2.84,2.84,0,0,0,.19-1.59c-.41-3.16-.9-6.31-1.33-9.46s-.74-6.07-1.15-9.1c-.43-3.21-.94-6.4-1.35-9.61-.23-1.87-.25-1.95-2.18-1.79h-.42a10.19,10.19,0,0,1-8.07-4.72c-.46-.75-.74-.73-1.44-.36q-7.25,3.84-14.55,7.57c-5.84,3-11.71,5.94-17.55,8.95a2,2,0,0,0-.85,1.14c-.46,1.64-1.49,3.07-3.06,3.16-1.8.1-1.39,1.28-1.68,2.17a6.64,6.64,0,0,0-.06,1.1c-.54,3.7-1.1,7.39-1.62,11.08-.41,2.89-.76,5.79-1.16,8.68-.44,3.11-.9,6.22-1.36,9.33-.42,2.93-.87,5.85-1.28,8.78S107.62,262.41,107.15,265.93ZM55.16,394h.28c0,1.53,0,3.06,0,4.59,0,.73.12,1.11,1,1.3A3.6,3.6,0,0,1,59.52,403c.11,1.64,1,1.3,1.9,1.27.45,0,.89-.24,1.33-.25q6.93-.17,13.86-.29c5-.09,10.07-.19,15.11-.27.6,0,.91,0,1-.84A9.62,9.62,0,0,1,104.71,395c1.06.29,1.53,0,1.91-.92q4.5-11.31,9.06-22.61c1-2.52,1-2.5-1.38-3.6l-.5-.23-12.93-6.19-20.2-9.68q-8.81-4.23-17.59-8.51c-.65-.32-.86-.34-1.27.36a9.23,9.23,0,0,1-6.57,4.68c-.84.14-1,.43-.92,1.12.11,2.53.21,5.06.28,7.59.11,3.7.19,7.39.28,11.08s.24,7.11.27,10.66C55.2,383.82,55.16,388.91,55.16,394ZM284.51,225.51c3-1,5.79-2,8.65-2.86a2.89,2.89,0,0,0,1.91-1.72q4.32-9.5,8.66-19c3.06-6.7,6.14-13.39,9.16-20.11a2.09,2.09,0,0,0-.16-1.69c-2.13-3.22-4.33-6.39-6.53-9.57-3.32-4.79-6.64-9.57-10-14.32a1.28,1.28,0,0,0-1.17-.33,11.14,11.14,0,0,1-5.94.91c-3.39-.48-6.95-3.22-7.84-6.58-.24-.9-.54-.47-.85-.28-1.58,1-3.13,2-4.71,3l-15,9.37q-7,4.41-14.06,8.88a1.2,1.2,0,0,0-.43,1.07c1.14,3.33,1,6.5-1.11,9.43-.51.69-.48,1,.37,1.46,3.29,1.73,6.55,3.56,9.79,5.39,4.84,2.73,9.64,5.51,14.47,8.24,3.92,2.21,7.9,4.32,11.77,6.62,1,.61,1.57.89,2.48-.18a3.6,3.6,0,0,1,4.63-.61,4.11,4.11,0,0,1,2.12,4.39,4.22,4.22,0,0,1-3.54,3.18c-.75,0-.86.28-.93,1-.29,2.72-.71,5.43-1,8.14C284.92,221.36,284.73,223.4,284.51,225.51Zm-49.46,28.71a4.9,4.9,0,0,0,1,.26c4.64.22,9.27,5.13,8.4,10.9a9.52,9.52,0,0,1-6.8,8.09,1.3,1.3,0,0,0-.72.8q-1,6-2,12c-.78,5-1.42,10-2.32,15-.2,1.12.12,1.31.94,1.6Q243,306,252.42,309.3c1.58.55,3.17,1.08,4.74,1.68,2.14.82,2.57-2.21,4.46-2,.1,0,.29-.28.35-.47.88-2.76,1.72-5.54,2.61-8.3q5-15.67,10.1-31.33,2.13-6.62,4.3-13.2c.18-.53.18-.79-.34-1.17a3.37,3.37,0,0,1-1.57-3.71c.57-1.74-.55-2.24-1.57-3-.23-.16-.46-.29-.68-.45l-15-11.14a2,2,0,0,0-2.08-.27c-3.62,1.31-7.29,2.5-10.94,3.73Q233,244.38,219.28,249c-.95.32-1.17.59-.32,1.34,2.7,2.36,5.34,4.78,8,7.13.14.12.77-.1,1-.33C229.88,255.15,232.31,254.5,235.05,254.22ZM116.33,107.59c-.12-.69.59-2-1.14-2.7a3.19,3.19,0,0,1-1.86-3.28c.07-.87-.29-1.16-1.11-1.36-5.9-1.43-11.79-2.91-17.69-4.38-4.88-1.22-9.76-2.45-14.64-3.65-.46-.11-.88-.34-1.17.6A4.07,4.07,0,0,1,73,95.49a1.59,1.59,0,0,0-1.35.4c-1.94,2-3.78,4.15-5.7,6.19-4.34,4.65-8.67,9.31-13.09,13.89-.87.91-1.15,1.48-.27,2.55a7.87,7.87,0,0,1,1.58,5.65c-.08,1.07.16,1.38.95,1.68,5.06,1.88,10.12,3.74,15.17,5.64,11,4.16,22.06,8.31,33.06,12.55.93.36,1.16.19,1.59-.57a9.5,9.5,0,0,1,9.34-4.9c.2,0,.62-.39.64-.63.15-1.65.23-3.3.31-5,.19-3.81.39-7.62.55-11.44C116,117,116.15,112.52,116.33,107.59ZM45.7,161.88c0,9.09.06,18.19-.06,27.28,0,1.83,1.68,1.54,2.31,2.48.07.1.94-.24,1.35-.5q6.66-4.26,13.29-8.58L91,163.94c4.64-3,9.28-6.09,13.94-9.1.61-.39.72-.65.32-1.29a8.68,8.68,0,0,1-1.4-6.46,1.44,1.44,0,0,0-1.15-1.94c-2.29-.71-4.51-1.66-6.76-2.51l-21.51-8.13c-6.53-2.47-13.08-4.9-19.58-7.44-1-.37-1.09-.09-1.43.63a9.43,9.43,0,0,1-6.69,5.56c-1,.22-1,.68-1,1.48Q45.71,148.32,45.7,161.88Zm88.89-26.17c.2-.64.34-1,.44-1.46q2.25-8.48,4.47-17c1.75-6.61,3.49-13.23,5.32-19.83a1.51,1.51,0,0,0-.54-1.74q-8.78-8.61-17.53-17.25c-6.69-6.6-13.4-13.18-20.06-19.82-.83-.84-1.37-.95-2.33-.25A8.67,8.67,0,0,1,97.81,60c-.64-.09-1.41-.63-2.09.4-6,9.16-12.1,18.27-18.16,27.4a2.41,2.41,0,0,0-.32.66c1,.64,1.07,2.07,2.57,2.43,10.94,2.6,21.85,5.32,32.75,8.08a2,2,0,0,0,2.2-.49,4,4,0,0,1,5-.2c1.58,1.22,2.39,3.65,1.1,5.11s-.74,2.68,0,4c.41.76.7,1.58,1.07,2.36q5.56,11.58,11.14,23.15C133.55,133.77,134,134.63,134.59,135.71Zm81.12,113.12-10.56-9.26c-2.38-2.09-4.77-4.17-7.11-6.31-.58-.53-.83-.36-1.33.06a3.62,3.62,0,0,1-3.85.64,4.06,4.06,0,1,1,4.36-6.57,1.9,1.9,0,0,0,1.41.58c4.55-1,9.08-2.13,13.63-3.18,4.2-1,8.4-1.92,12.6-2.89,2.87-.66,5.75-1.32,8.61-2a3.55,3.55,0,0,0,.93-.61,4.86,4.86,0,0,0-.83-.53c-4.26-1.82-8.51-3.64-12.79-5.41-5.66-2.35-11.33-4.65-17-7s-11.3-4.74-17-7.05a1.36,1.36,0,0,0-1.25.46c-3.36,6.15-6.66,12.34-10,18.51-1.81,3.37-3.65,6.72-5.45,10.09-.42.8-1.11,1.69-1,2.48.31,3.44.85,6.86,1.33,10.29.53,3.79,1.11,7.57,1.64,11.36.49,3.51.94,7,1.42,10.62ZM168,117.61a9.82,9.82,0,0,1,12.52-5.16c.73.27.94,0,1.2-.53,1-2.14,2-4.27,3.06-6.41q2.83-5.91,5.66-11.83c3.28-6.86,6.53-13.73,9.85-20.58.45-.93.83-1.61-.21-2.42a2.34,2.34,0,0,1-.67-1.59c0-.68-.31-.74-.89-.89q-15.9-4-31.77-8.05c-1-.25-1.47-.29-2,.77-2,4-5.22,6.16-9.89,5.72-.17,0-.48.4-.56.66Q153,72,151.74,76.62c-1.67,6.31-3.35,12.62-5,18.93a1.5,1.5,0,0,0,.32,1.23C154,103.7,160.91,110.59,168,117.61ZM99.9,307.17,91.76,313q-9.32,6.69-18.62,13.39c-3.47,2.5-6.92,5-10.4,7.52-.51.36-.47.6-.36,1.16a21.22,21.22,0,0,1,.53,4.75c0,1.34,0,2.21,1.49,2.72a46.29,46.29,0,0,1,4.95,2.31l13.06,6.26,21,10c4.35,2.08,8.7,4.18,13.06,6.24.25.12.88,0,.95-.21,3.13-7.73,6.21-15.5,9.33-23.23a1.52,1.52,0,0,0-.35-2,8.88,8.88,0,0,1-2.51-7.72,1.4,1.4,0,0,0-.71-1.18c-6.88-1.64-13.79-3.18-20.66-4.84a1.46,1.46,0,0,0-1.65.45,3.91,3.91,0,0,1-4.51,1,4.11,4.11,0,0,1-2.48-4.33,4.39,4.39,0,0,1,3.25-3.5c.35-.11.84-.47.88-.77.35-2.25.58-4.53.88-6.79S99.54,309.63,99.9,307.17ZM343.68,54.11a2.57,2.57,0,0,1-.44.39c-3.7,2.13-7.4,4.27-11.11,6.39-4.7,2.68-9.42,5.33-14.11,8-5.92,3.4-11.83,6.8-17.7,10.26a1.65,1.65,0,0,0-.69,1.37,9.94,9.94,0,0,1-.85,5.54,1.62,1.62,0,0,0,.3,1.47C305,92.08,311,96.55,317,101l19.68,14.73c1.07.8,2,1.93,3.51.68.11-.1.36-.06.54,0,1.26.18,1.43-.57,1.46-1.58.05-1.69.14-3.4.29-5.09.34-3.69.74-7.37,1.08-11.06.23-2.51.35-5,.59-7.54.33-3.5.75-7,1.08-10.5.24-2.65.35-5.31.57-8,.35-4.11.73-8.21,1.11-12.31.13-1.32.36-2.62.47-3.93,0-.22-.27-.57-.5-.69-.9-.46-1.85-.86-2.77-1.29A2.55,2.55,0,0,1,343.68,54.11ZM316.84,343c-.18-.57-.28-.91-.4-1.26l-7.27-20.37c-1.45-4.06-2.87-8.13-4.35-12.18-.14-.37-.69-.91-.94-.86a8.76,8.76,0,0,1-6.11-1.27c-.61-.34-.81-.21-1.19.17Q282.81,321,269.05,334.79a1.85,1.85,0,0,0-.37,1.48c.5,2.36,1.1,4.69,1.67,7q2.25,9.12,4.51,18.23a1.15,1.15,0,0,0,1.29,1.05,4.11,4.11,0,0,1,2.27.73,1.17,1.17,0,0,0,1.51.13c2.31-1.29,4.66-2.49,7-3.76q9.35-5.13,18.65-10.28l10.63-5.89A4,4,0,0,0,316.84,343Zm6.75,18.64a6.49,6.49,0,0,1-.3-.61c-1.66-4.7-3.27-9.43-5-14.1-.93-2.51-1-2.47-3.39-1.22-.53.28-1.07.51-1.59.79L294.8,356.7l-14.25,7.81c-.45.24-.66.39-.52,1.09.52,2.65-1,4.56-3.73,5.06a1.49,1.49,0,0,0-.9,1.07c-.71,4.59-1.32,9.2-2,13.8-.83,5.58-1.72,11.16-2.55,16.74a.74.74,0,0,0,.27.6c1.43.94,2.89,1.83,4.32,2.76.35.23.47.67,1.06.18,3.74-3.08,7.52-6.1,11.31-9.11,5.61-4.44,11.26-8.84,16.88-13.28,5.9-4.67,11.78-9.38,17.68-14.06.49-.39.68-.68.14-1.32-1.51-1.81-1.34-3.81.31-5.54C323.1,362.22,323.34,361.9,323.59,361.61ZM71.26,260.73a1.11,1.11,0,0,0,.29-.49,8.55,8.55,0,0,1,3.34-5.78c1.06-.81.73-1.43.28-2.24C71.77,246.1,68.36,240,65,233.84c-2.39-4.35-4.7-8.74-7.09-13.08q-5.8-10.59-11.7-21.13c-.26-.47-.89-.72-1.35-1.08a5.51,5.51,0,0,0-.8,1.23q-3.78,11.7-7.51,23.44c-2.53,7.95-5,15.91-7.61,23.84a1.38,1.38,0,0,0,.55,1.86,8.89,8.89,0,0,1,4,6.71c.06.82.35,1.43,1.34,1.5,1.27.09,2.54.3,3.81.42,3.24.29,6.48.53,9.71.86,4.14.42,8.26.94,12.39,1.36C64.13,260.12,67.55,260.4,71.26,260.73ZM267,335.34l-.24-.9c-1.38-5.49-2.79-11-4.12-16.49-.16-.65-.35-.77-.95-.81a4.17,4.17,0,0,1-3.59-3.59,1.61,1.61,0,0,0-.83-1.11c-2.46-.93-5-1.77-7.44-2.63-5.44-1.9-10.88-3.8-16.33-5.66-.48-.16-1.28-.85-1.28.58a26.33,26.33,0,0,1-.57,3.91c-.72,4.35-1.47,8.7-2.16,13.06-.52,3.33-.94,6.67-1.45,10s-1,6.84-1.68,10.23c-.21,1,.27,1.19.9,1.52a9.69,9.69,0,0,1,2.43,15.33c-.79.79-.47,1.23,0,1.87,1.52,2,3.07,4,4.48,6,.58.86.86.72,1.48.1,3.88-3.93,7.79-7.82,11.69-11.72l18.89-18.9C266.5,335.86,266.78,335.52,267,335.34Zm18-124.72a12.77,12.77,0,0,1-.83-1.23c-.54-1-1-2.06-1.55-3.08a2.74,2.74,0,0,0-.73-1.13c-1.43-.88-2.92-1.66-4.38-2.49-6.09-3.47-12.16-7-18.26-10.4q-7.48-4.22-15-8.34a1.42,1.42,0,0,0-1.09,0,28.59,28.59,0,0,1-3.69,1.63c-1,.25-1.06.67-1.06,1.49,0,5.7,0,11.41,0,17.11,0,3.44,0,6.87,0,10.3a1.24,1.24,0,0,0,.65,1,4.18,4.18,0,0,1,3.21,5.72,1.17,1.17,0,0,0,.35,1q7.71,5.77,15.48,11.46a2.24,2.24,0,0,0,1.71.22c2.52-.77,5-1.66,7.49-2.5,4.89-1.66,9.78-3.35,14.7-5a1.43,1.43,0,0,0,1.19-1.55c0-1.09.16-2.19.3-3.28C283.92,218.07,284.41,214.54,285,210.62ZM263.3,308.73a7.3,7.3,0,0,0,.67.76,10.5,10.5,0,0,0,1.39,1.1c.35.21.86.47,1.19.36,8.7-2.88,17.38-5.81,26.08-8.71.69-.23.87-.44.71-1.24a16.72,16.72,0,0,1-.17-3.61c.1-4.1,4.29-8.16,8.35-8.45.83-.06,2.06.3,2.58-1.32,1.23-3.79,2.84-7.46,4.26-11.19,1.59-4.15,3.16-8.31,4.68-12.49a1.17,1.17,0,0,0-.43-1c-2.53-.88-5.08-1.68-7.63-2.5q-9.59-3.07-19.17-6.18c-.88-.29-1.61-.54-2.39.36a2.68,2.68,0,0,1-1.84.72c-.92,0-1.23.37-1.48,1.16q-3.54,11.16-7.12,22.3Q269,291,265.08,303.24C264.51,305,263.93,306.77,263.3,308.73ZM156.53,417c-.1-.24-.17-.36-.21-.49q-3.82-14.38-7.64-28.78c-.17-.63-.4-1-1.18-1-1.68-.08-3.54-1.72-3.5-3.3a2,2,0,0,0-1.58-2.19c-.51-.2-1-.37-1.51-.61q-10.49-5-21-10c-2.07-1-2.1-1-3,1.14q-4.74,11.58-9.38,23.21a1.62,1.62,0,0,0,.36,1.46,9.52,9.52,0,0,1,3.9,10.19c-.21,1,.14,1.26.8,1.51,1.4.54,2.82,1,4.22,1.55q16.27,6.38,32.55,12.75a1.07,1.07,0,0,0,1-.29,11,11,0,0,1,5.5-4.75A4.07,4.07,0,0,0,156.53,417Zm60.2-167.13-1,.34-6.19,2.09c-11.57,3.89-23.13,7.8-34.71,11.65a1.34,1.34,0,0,0-1.05,1.79q.6,3.5,1.07,7c.41,3.08.74,6.16,1.15,9.24a1.57,1.57,0,0,0,1.33,1.47,28.67,28.67,0,0,1,2.94,1.06c8.63,3,17.27,5.87,25.87,8.89a2,2,0,0,0,2.54-.84c1.47-1.75,2.94-3.51,4.43-5.24,1.85-2.16,3.74-4.29,5.59-6.44,2.62-3.06,5.18-6.17,7.85-9.19.68-.77.84-1.29.24-2.16a9.23,9.23,0,0,1-.63-9.91,1.41,1.41,0,0,0-.46-2c-2.39-2.08-4.74-4.19-7.13-6.28C218,250.81,217.32,250.35,216.73,249.89ZM176.94,131.82l-.47-.54c-.25.34-.65.65-.73,1q-2.28,11-4.47,22c-1.7,8.5-3.33,17-5.1,25.5a1.29,1.29,0,0,0,.65,1.59,9.22,9.22,0,0,1,4.19,9.14,1.29,1.29,0,0,0,.65,1q6.43,2.76,12.93,5.4a1.36,1.36,0,0,0,1.25-.43c1.39-2.41,2.69-4.86,4-7.31,1.63-3,3.2-6.13,4.84-9.18,2.87-5.33,5.79-10.63,8.64-16a1.68,1.68,0,0,0,0-1.42c-1.46-2.51-3-5-4.52-7.46q-7.56-12.71-15-25.46c-.4-.66-.59-.48-1.13-.23C180.77,130.32,178.84,131.05,176.94,131.82Zm53.94,171.93c-.13-.13-.34-.52-.66-.65-.91-.39-1.87-.67-2.82-1-6.29-2.18-12.59-4.37-18.9-6.5a1.61,1.61,0,0,0-1.42.39c-4.11,4.78-8.17,9.62-12.26,14.43-3.42,4-6.88,8-10.28,12a1,1,0,0,0,0,.91,3.86,3.86,0,0,1,.52,4.24c-.37.78-.05,1,.56,1.37q5.58,3.17,11.12,6.38c5.65,3.31,11.28,6.62,16.9,10a1.52,1.52,0,0,0,2.23-.26,8.83,8.83,0,0,1,7.81-2.61,1.42,1.42,0,0,0,1.19-.58,10.72,10.72,0,0,0,.34-2.15c.51-3.28,1-6.56,1.57-9.84.4-2.56.81-5.12,1.21-7.68l1.56-10.12C230,309.41,230.41,306.76,230.88,303.75Zm37.22,98.37c1.31.59,1.38.08,1.41-.63a25.21,25.21,0,0,1,.31-2.58c.72-4.54,1.46-9.07,2.18-13.61.65-4.14,1.32-8.27,1.9-12.42.18-1.33.62-2.64-.95-3.82s-1.36-3.78.1-5.16a1.89,1.89,0,0,0,.58-2q-3-11.94-6.07-23.85c-.11-.42-.29-.81-.43-1.22-.31.27-.64.52-.93.81L240.81,363c-1.58,1.57-3.18,3.13-4.7,4.75-.27.27-.48,1-.31,1.23,4,5.58,8.08,11.12,12.14,16.66,4.39,6,8.82,11.95,13.14,18,.65.91,1,.89,1.92.43A52.59,52.59,0,0,1,268.1,402.12ZM237.36,165.83l-.17-.34a2.62,2.62,0,0,0,0-.28c-.83-5.07-1.69-10.13-2.47-15.21-.71-4.69-1.3-9.39-2-14.07s-1.55-9.25-2.15-13.89c-.22-1.64-1.38-.54-2-1-.16-.12-.83.15-1,.4q-4.27,7.86-8.47,15.76c-1.63,3-3.22,6.13-4.86,9.17-2.91,5.41-5.87,10.8-8.78,16.21a1.44,1.44,0,0,0-.11,1.12c.64,1.2,1.38,2.35,2.08,3.52q5.34,9,10.68,17.92c2.83,4.76,5.64,9.54,8.47,14.31q4.62,7.8,9.25,15.59a5.87,5.87,0,0,0,.76.82,4.69,4.69,0,0,0,.27-1.15c0-9.18,0-18.36,0-27.55,0-1-.29-1.36-1.28-1.47a9.66,9.66,0,0,1-7.6-13.41,9.12,9.12,0,0,1,7.83-5.84A5.13,5.13,0,0,0,237.36,165.83Zm76.38,95.95a7.94,7.94,0,0,0,.34-.72q3.75-9.78,7.48-19.58C324,235,326.47,228.41,329,221.9c.31-.81.23-1-.51-1.38a9.06,9.06,0,0,1-4.9-5.63c-.33-1.09-.74-.88-1.38-.66-8.29,2.8-16.57,5.66-24.89,8.36a4.5,4.5,0,0,0-2.92,2.73q-4.92,10.88-9.89,21.72a1.89,1.89,0,0,0,0,2.22,3.12,3.12,0,0,1,.55,1.91c-.11,1.16.4,1.61,1.41,1.93,8.13,2.57,16.24,5.19,24.36,7.79C311.75,261.18,312.66,261.45,313.74,261.78ZM135,139.77c-1.31,4.81-2.6,9.4-3.82,14q-3.87,14.58-7.69,29.19c-2.11,8-4.18,16.06-6.35,24.07-.39,1.41,1.21,1.6,1.24,2.65a9.26,9.26,0,0,0,1.29-.42c6.37-3.27,12.72-6.57,19.09-9.84q6.15-3.15,12.31-6.26c.67-.33,1.17-.59.75-1.55a5,5,0,0,1-.32-2.42c.32-2.63,1.08-5.09,3.22-6.87.52-.43.5-.78.21-1.38Q149.62,170,144.39,159q-3.44-7.14-6.87-14.28C136.74,143.13,135.89,141.53,135,139.77Zm32.67-14.45-.72.31c-1.67.71-3.33,1.44-5,2.12q-12.54,5.1-25.09,10.16c-.89.36-1,.76-.55,1.63,2.27,4.61,4.47,9.27,6.7,13.9q6.48,13.42,12.95,26.83c.36.75.69.57,1.34.36a21.73,21.73,0,0,1,4.35-1c1-.1,2.36.7,3,.27s.57-1.9.78-2.92c1.59-8.06,3.15-16.13,4.78-24.18,1.42-7,2.93-14,4.37-21,0-.26-.17-.78-.37-.84a9.69,9.69,0,0,1-6-5.06A2.83,2.83,0,0,0,167.67,125.32Zm67,244a1.19,1.19,0,0,0-.26.15q-14.91,14.9-29.78,29.82c-.32.32-.27,1.13-.17,1.67,0,.24.6.49,1,.56,1.6.31,3.21.61,4.83.83,4.87.68,9.76,1.28,14.63,2,5.49.79,11,1.67,16.46,2.48,5.18.76,10.36,1.49,15.55,2.22,1.24.17,2.47.29,2.82-1.43a2.28,2.28,0,0,1,.76-1.27c.81-.59.45-1.12.05-1.66-2-2.63-4-5.23-5.89-7.88Q244.61,383,234.64,369.29ZM204.51,164.73a10.1,10.1,0,0,0-.69,1q-4.55,8.49-9.07,17c-2.5,4.65-5,9.3-7.55,13.93-.5.92-.33,1.35.64,1.69,1.41.5,2.79,1.09,4.17,1.66l15.84,6.61,14,5.82c4,1.68,8,3.36,12.08,5a1.24,1.24,0,0,0,1.14-.2,1.42,1.42,0,0,0,0-1.21c-.7-1.27-1.5-2.49-2.24-3.74-5.41-9.17-10.79-18.34-16.22-27.49C212.58,178.1,208.55,171.45,204.51,164.73Zm-.06-2.85c.27-.43.51-.75.7-1.1,2.43-4.58,4.83-9.18,7.28-13.76,4.44-8.26,8.86-16.52,13.39-24.73.85-1.53,1.09-2.83,0-4.22-.18-.23-.5-.52-.74-.51-3.65.24-7.3.53-11,.81-1.33.1-2.66.17-4,.28-4.29.37-8.57.77-12.87,1.1-3.25.24-6.51.37-9.76.59-.28,0-.77.32-.76.47a10.4,10.4,0,0,1-2.17,7,1.06,1.06,0,0,0,0,1q2.13,3.73,4.34,7.42c3.35,5.61,6.74,11.21,10.09,16.83,1.56,2.61,3.07,5.26,4.62,7.88A11.16,11.16,0,0,0,204.45,161.88ZM56.9,50.15c-3-1-4.78,0-5.65,2.55a1.09,1.09,0,0,1-.34.43c-.49.4-.47.68-.07,1.23,1.49,2.06,2.89,4.19,4.31,6.31L72.72,87a2.69,2.69,0,0,0,3.89,0q9-13.42,18-26.87c.39-.58.36-.92-.33-1.33a9.09,9.09,0,0,1-4.88-7.31,1.31,1.31,0,0,0-.7-1,10.11,10.11,0,0,0-2.57-.32C76.22,50.15,66.37,50.15,56.9,50.15ZM46.25,85.24v4.31q0,11.7,0,23.39c0,.67,0,1.22.8,1.51a13.66,13.66,0,0,1,3.05,1.42,1.13,1.13,0,0,0,1.79-.23q4.83-5.33,9.73-10.58,4.51-4.86,9.12-9.66c.6-.62.88-1,.38-2a3.41,3.41,0,0,1,.61-4.29c.66-.65.42-1,.07-1.56-1.58-2.34-3.18-4.66-4.76-7Q59,68.66,51,56.71c-1.36-2-1.36-2-3.49-1a2,2,0,0,0-1.27,2.07C46.28,67,46.25,76.1,46.25,85.24Zm267.63,94.43c1.08-2.26,2.1-4.35,3.07-6.46q5.66-12.4,11.29-24.82c3.53-7.74,7.08-15.46,10.59-23.2a1.65,1.65,0,0,0,.09-1.28c-.46-.8-1.13-.49-1.76-.11q-7,4.13-14,8.22c-7.46,4.36-14.93,8.69-22.37,13.07a1.33,1.33,0,0,0-.61,1c.46,2.59-.47,4.78-1.76,6.92-.45.75-1.87,1-1.36,2.2a14.69,14.69,0,0,0,1.57,2.39c.1.15.25.27.35.42Zm-56.4,55-1.42-1c-4.68-3.46-9.36-6.93-14.08-10.35a1.8,1.8,0,0,0-1.53-.16,4.18,4.18,0,0,1-5.47-1.33,1.72,1.72,0,0,0-1.39-.49c-3.16.64-6.3,1.34-9.44,2.06q-12.51,2.91-25,5.86c-.33.08-.81.44-.84.71-.07.75-.24,1.82.16,2.22,1.69,1.67,3.59,3.11,5.37,4.7,3.74,3.33,7.41,6.73,11.19,10,.82.7,1.49,1.81,3.12,1.24,10.1-3.54,20.25-6.94,30.38-10.38Zm-54.1,164.27c.27-.25.54-.48.79-.74l15.45-15.45c4.53-4.52,9-9.06,13.59-13.57.55-.54.68-.85.15-1.55-1.63-2.13-3.14-4.35-4.7-6.53-.42-.6-.83-.71-1.58-.33a9.78,9.78,0,0,1-9.73-.37,1.39,1.39,0,0,0-1.33.16c-3,3.33-5.83,6.72-8.75,10.07q-5.07,5.81-10.18,11.57-5.52,6.24-11.07,12.46c-.49.54-.7.72.24,1,3.22,1.09,6.39,2.32,9.57,3.5a1.37,1.37,0,0,0,1.66-.4,3.88,3.88,0,0,1,5.34-.37C203,398.57,203.17,398.74,203.38,398.94ZM101.72,304.46c5.83-4.22,11.46-8.3,17.09-12.36,5.9-4.26,11.79-8.52,17.73-12.72.66-.46.47-.68.31-1.24a15.58,15.58,0,0,1-.88-4.36c0-.94-.25-1.06-.91-1.17-3.05-.47-6.12-.9-9.17-1.42-6.13-1-12.26-2.11-18.4-3.13a.93.93,0,0,0-.78.51c-.26,1.43-.42,2.88-.6,4.33-.39,3-.73,6-1.16,9-.5,3.56-1.11,7.1-1.62,10.65C102.77,296.41,102.28,300.33,101.72,304.46ZM334.2,268.4c.38,0,.55.06.65,0,.56-.37,1.07-1,1.67-1.12,2-.3,2-1.49,1.77-3.08-.32-2.46-.38-4.94-.62-7.41-.33-3.41-.75-6.81-1.07-10.22-.24-2.56-.36-5.13-.58-7.69q-.52-6-1.11-12c-.16-1.64-.35-3.27-.58-4.9a.8.8,0,0,0-.56-.51c-.7-.07-1.41,0-2.11-.05a1.22,1.22,0,0,0-1.49,1c-1.65,4.61-3.38,9.19-5.12,13.77q-4.77,12.54-9.59,25c-.31.79-.2,1.15.7,1.42,4.38,1.34,8.74,2.76,13.1,4.16C331,267.3,332.7,267.9,334.2,268.4ZM135.68,137.07c3.27-1.39,6.26-2.69,9.28-3.92,6.84-2.8,13.7-5.56,20.54-8.34,1.91-.78,1.88-.81,1.58-2.9a2.63,2.63,0,0,1,.13-1.07c.4-1.48.38-2.74-1-3.82a45.7,45.7,0,0,1-4.16-3.84c-4.6-4.57-9.17-9.17-13.77-13.76-.62-.61-1.27-1.19-1.91-1.79-.32.87-.71,1.72-1,2.61-2.38,9-4.72,18-7.08,26.94C137.46,130.41,136.59,133.64,135.68,137.07Zm47.73,259L174,392.72c-7-2.53-14.08-5-21.08-7.65-1.44-.54-1.92.42-2.61,1.1a1.61,1.61,0,0,0-.2,1.33q2.83,10.92,5.73,21.82c.6,2.28,1.18,4.56,1.83,6.82a1.28,1.28,0,0,0,.77.79c1.49.3,3,.34,4.48.77.8.24,1.26.32,1.83-.34q4.58-5.33,9.19-10.59C177,403.22,180.2,399.71,183.41,396.1Zm-6.93-111.44c.31,2.62.57,5.12.91,7.6.71,5.14,1.5,10.28,2.2,15.42.6,4.39,1.1,8.78,1.72,13.16a1.64,1.64,0,0,0,1,1,1.57,1.57,0,0,0,1.39-.14c3.51-4.05,6.93-8.16,10.41-12.24q5.88-6.9,11.82-13.75c.56-.64.58-.82-.24-1.1-6.44-2.19-12.87-4.43-19.3-6.63C183.13,286.86,179.87,285.8,176.48,284.66ZM314.2,182.18c-6,13.11-12,26.17-18.05,39.46,3.18-1.09,6.08-2.1,9-3.08L321.93,213c.6-.2,1-.39,1.07-1.27.23-3.38,1.51-6.32,4.56-8.11,1.17-.69.78-1.24.26-2ZM235.48,274.3a3,3,0,0,0-.65-.29c-2-.38-4-.52-5.58-1.94-.82-.74-1.38-.42-2,.32-1.86,2.26-3.72,4.52-5.63,6.73q-6.25,7.29-12.6,14.53c-.51.59-.23.73.24.88,1,.35,2.07.64,3.1,1q8.82,3,17.62,6.05c.63.21,1.2.47,1.34-.45.58-3.69,1.11-7.38,1.69-11.06.52-3.28,1.08-6.55,1.6-9.82C234.92,278.36,235.17,276.47,235.48,274.3ZM263.9,317a9.76,9.76,0,0,0,.07,1c1.27,5,2.64,9.89,3.77,14.88.39,1.76.79,1,1.46.32L295.37,307a3.57,3.57,0,0,0,.57-.6c.11-.19.18-.55.08-.68-.62-.84-1.16-1.91-2-2.35-.54-.28-1.58.41-2.4.66-.08,0-.18,0-.27.05q-12.07,4-24.13,8.08c-.41.14-1,.64-1,1a4.28,4.28,0,0,1-2,3.45A4.46,4.46,0,0,0,263.9,317ZM168,233l-.25-.08-.42.83c-2.24,4.17-4.46,8.36-6.7,12.53q-5,9.19-10,18.38c-.34.64-.12.86.37,1.27a18.94,18.94,0,0,1,2.79,2.8,1.24,1.24,0,0,0,1.64.49c5.16-1.75,10.3-3.55,15.49-5.21,1.2-.38,1.17-1,1-1.92-.28-1.7-.52-3.42-.74-5.14-.4-3.07-.76-6.15-1.17-9.23s-.89-6.41-1.34-9.61Zm166.33,38.12c.21-1-.2-1.33-1.13-1.63-5.88-1.86-11.73-3.8-17.58-5.75-.79-.26-1.11,0-1.36.7-.51,1.45-1.06,2.89-1.61,4.33q-3.75,9.86-7.48,19.72a.83.83,0,0,0,.28.76,28.63,28.63,0,0,1,3.15,1.53,1.16,1.16,0,0,0,1.65-.07c2.19-1.72,4.36-3.47,6.57-5.15,5.29-4,10.63-8,15.88-12.07C333.43,272.92,334.79,272.56,334.33,271.12ZM168.72,227.88H169q2.53-4.75,5.06-9.5,5-9.39,10.1-18.76c.41-.75.55-1.24-.46-1.65-4-1.62-8-3.29-11.93-5-.87-.38-1.3-.12-1.66.7a9.72,9.72,0,0,1-4.5,4.63,1.69,1.69,0,0,0-.76,1.32c.2,2.26.52,4.52.84,6.78.53,3.74,1.09,7.48,1.62,11.22C167.82,221.05,168.27,224.47,168.72,227.88Zm-52.25-91.53h-.06a4.59,4.59,0,0,1,0,.83c-.2,1.2.27,1.83,1.4,2.39a13.38,13.38,0,0,1,3.22,2.52,1.21,1.21,0,0,0,1.56.31c3.52-1.46,7.06-2.88,10.58-4.31.64-.26.9-.54.52-1.33-2.34-4.74-4.6-9.51-6.89-14.27s-4.52-9.44-6.79-14.16c-.37-.78-.72-1.58-1.16-2.32-.13-.22-.51-.28-.78-.41a2.74,2.74,0,0,0-.25.69c-.11,1.65-.21,3.31-.29,5-.19,3.9-.39,7.81-.55,11.71C116.78,127.43,116.64,131.89,116.47,136.35Zm166.32,91.2-22.61,7.65,5.93,4.34,11.21,8.27c.28.2.63.52.93.49a3.32,3.32,0,0,0,2.38-2.86c0-.46,0-.93.07-1.38.34-2.67.7-5.33,1-8S282.43,230.47,282.79,227.55Zm-108.17,55c0-.74,0-1.39-.1-2-.44-3.16-.91-6.31-1.34-9.47-.22-1.62-.36-3.26-.59-4.89-.12-.9-.49-1.23-1.55-.87-5,1.74-10,3.38-14.95,5-.75.25-1.17.46-.86,1.44a6.29,6.29,0,0,1,.27,2.94c-.18,1,0,1.26.89,1.56C162.44,278.36,168.47,280.46,174.62,282.59Zm119.11-58.75c-2.32.78-4.35,1.59-6.44,2.12s-3.72,1.48-3.31,4.08a1.84,1.84,0,0,1-.06.4c-.35,2.62-.71,5.23-1,7.85s-.62,5.16-.89,7.75a4.55,4.55,0,0,0,.29,1.31c.37-.27.9-.46,1.07-.82,1.46-3.12,2.85-6.28,4.28-9.42C289.62,232.75,291.64,228.39,293.73,223.84ZM44.28,46.94c.09-1.12-.45-1.55-1.55-1.54s-1.49.42-1.5,1.47.35,1.61,1.5,1.61S44.37,48.06,44.28,46.94ZM360.07,427.41c-1.05-.11-1.48.43-1.49,1.53s.5,1.54,1.59,1.53,1.47-.44,1.49-1.48S361.28,427.33,360.07,427.41Z"/><path class="cls-1" d="M361.63,314.4c.22.83-.16,1.28-1,1.63a3.91,3.91,0,0,0-2.63,3.81,1.69,1.69,0,0,1-.79,1.17c-4.1,2.27-8.24,4.48-12.34,6.73-6.3,3.47-12.58,7-18.88,10.44-2.39,1.32-4.84,2.53-7.19,3.93-.73.44-.7.23-.91-.37q-2.56-7.32-5.19-14.61c-2.12-5.89-4.23-11.78-6.38-17.66-.37-1-.31-1.56.82-2.11a9.42,9.42,0,0,0,5.47-8.67,8.17,8.17,0,0,0-1.8-5.61c-.49-.58-.6-1,.29-1.62,4.73-3.5,9.33-7.18,14-10.78,3.14-2.42,6.29-4.83,9.46-7.2a1,1,0,0,1,1,.15,4,4,0,0,0,6.16-.37c1.51-1.91,1-4.21-1.11-6a4,4,0,0,1-.84-2.42c-.43-3.86-.79-7.73-1.13-11.61-.22-2.6-.34-5.22-.58-7.82-.32-3.51-.75-7-1.08-10.5-.24-2.47-.37-4.94-.59-7.41-.13-1.45-.31-2.9-.51-4.35-.15-1.15-.11-2,1.24-2.61a9.13,9.13,0,0,0,5.61-8.7,9.47,9.47,0,0,0-8.46-9.66c-1.19-.13-2.42.07-3.63,0a1.76,1.76,0,0,1-1.23-.48c-3.17-4.45-6.29-8.92-9.41-13.4-1.51-2.17-3-4.37-4.5-6.51a1.57,1.57,0,0,1-.2-1.84c2.48-5.31,4.91-10.65,7.34-16,3.72-8.15,7.4-16.31,11.12-24.46,2.15-4.72,4.36-9.41,6.5-14.13.32-.69.72-1.16,1.4-.84.32.14.49.8.55,1.25.39,3.26.75,6.53,1.1,9.8.21,2,.38,4,.59,6,.35,3.4.74,6.81,1.09,10.22.22,2.23.35,4.47.58,6.71.33,3.13.74,6.25,1.08,9.38.23,2.1.37,4.2.59,6.3.34,3.27.73,6.53,1.08,9.8.21,2,.38,4,.59,6,.35,3.41.74,6.82,1.09,10.23.22,2.18.35,4.38.58,6.57.34,3.17.74,6.34,1.08,9.52.23,2.14.37,4.29.59,6.43.34,3.23.73,6.45,1.08,9.67.22,2,.38,4.1.59,6.15.35,3.36.74,6.72,1.09,10.08.22,2.19.35,4.39.58,6.57.34,3.18.74,6.35,1.08,9.53.23,2.19.37,4.38.59,6.57.34,3.18.73,6.35,1.07,9.53.23,2.14.38,4.29.6,6.43.35,3.27.74,6.53,1.09,9.8.21,2.05.37,4.1.58,6.15.35,3.37.73,6.72,1.09,10.09A8.82,8.82,0,0,1,361.63,314.4Z"/><path class="cls-1" d="M133.72,139.24c-2.92,10.85-5.79,21.48-8.61,32.11-1.93,7.23-3.77,14.48-5.67,21.72q-1.77,6.7-3.63,13.39a1.15,1.15,0,0,1-.85.67,4,4,0,0,0-4.24,2.82c-.67,1.91.09,3.47,1.63,4.73a1.63,1.63,0,0,1,.39,1.29c-.51,3.65-1.1,7.29-1.61,10.94s-.93,7.15-1.43,10.71-1.1,7.3-1.62,10.95c-.41,2.89-.78,5.78-1.16,8.68s-.72,5.6-1.16,8.4c0,.22-.68.55-1,.5-2.39-.33-4.77-.74-7.14-1.14-2-.34-3.93-.79-5.91-1-.86-.1-1-.39-.91-1.11.85-5.49-3.67-10.17-8.23-10.68a14,14,0,0,0-5,.54,1,1,0,0,1-.86-.36c-1.92-3.41-3.78-6.84-5.67-10.27q-5.27-9.5-10.52-19c-2.33-4.23-4.6-8.49-6.92-12.72q-3.08-5.62-6.18-11.24c-.35-.63-.52-1.08.24-1.62a4.08,4.08,0,0,0,1.45-3.82,1.68,1.68,0,0,1,.54-1.28q16.44-10.86,32.93-21.66c4.72-3.09,9.45-6.15,14.18-9.22,3-2,6.13-3.91,9.15-5.93.59-.4.82-.29,1.31.11a9.75,9.75,0,0,0,15.95-6.1,12.64,12.64,0,0,0-.54-5.06,1.05,1.05,0,0,1,.42-.93C126.48,142.19,130,140.77,133.72,139.24Z"/><path class="cls-1" d="M229.88,113a3.6,3.6,0,0,0-3.44,2,2.45,2.45,0,0,1-2.37,1.43c-3.25.24-6.52.35-9.77.59-4.2.32-8.4.73-12.6,1.09-1.32.12-2.65.2-4,.29-3.66.25-7.31.51-11,.74a.54.54,0,0,1-.44-.31,10.36,10.36,0,0,0-3.51-5.14,1,1,0,0,1-.1-.93c1.68-3.5,3.41-7,5.09-10.46q4.85-10.09,9.67-20.22c1.37-2.87,2.76-5.74,4.06-8.65a1.34,1.34,0,0,1,1.54-1A3.8,3.8,0,0,0,207.11,70a1.33,1.33,0,0,1,1.59-.88c2.18.2,4.37.36,6.56.55l12.59,1.1c1.33.11,2.66.21,4,.29,3.21.2,6.43.33,9.63.59,1.11.09,2.23.1,2.87,1.55a3.2,3.2,0,0,0,3.34,1.75,1.58,1.58,0,0,1,1.75,1c3.59,6.54,7.23,13.05,10.86,19.57q6,10.74,12,21.46c3.92,7,7.82,14.08,11.78,21.09a1.52,1.52,0,0,1-.34,2.22,9.21,9.21,0,0,0-2.93,7.72c0,.32-.52.76-.9,1-3.68,2.33-7.39,4.64-11.09,6.95q-11.49,7.2-23,14.42c-.49.31-.69.14-1-.25a9.52,9.52,0,0,0-5.32-3.41c-1.41-.28-.91-1.57-1-2.32-.85-4.75-1.56-9.52-2.26-14.29s-1.3-9.3-2-13.94c-.72-4.91-1.5-9.81-2.21-14.73a1.47,1.47,0,0,1,.46-1.08,4,4,0,0,0-1.21-7A10.89,10.89,0,0,0,229.88,113Z"/><path class="cls-1" d="M181.44,330c.09,0,.2,0,.28,0,2.66-1.34,4.45.69,6.38,1.79,6.64,3.78,13.2,7.69,19.79,11.56,1.84,1.09,3.68,2.18,5.48,3.32.27.17.58.81.49.92-.46.55-.13,1.84-1.45,1.61-2.78-.49-5.56-.93-8.33-1.43-3.94-.71-7.86-1.46-11.79-2.2-5-.92-9.91-1.86-14.88-2.75-5.36-1-10.75-1.86-16.12-2.82-4.91-.89-9.82-1.82-14.73-2.74-1.07-.2-2.43-.1-3.11-.72s-.21-1.91-.33-2.9c-.42-3.69-4.25-7.4-7.92-7.85-4.83-.59-8.3,1.27-10.58,5.51a1.16,1.16,0,0,1-1,.45c-6.89-1.58-13.77-3.22-20.67-4.79-.74-.17-.89-.42-1.08-1.11-.29-1.05-.65-2.42-1.44-2.91-1.35-.82-1.13-1.82-1-2.9.52-3.93,1.24-7.84,1.59-11.78.18-2,1.43-3,2.82-4,6.32-4.52,12.67-9,19-13.55q6.78-4.85,13.49-9.78c1-.74,1.61-.9,2.61.14a9.66,9.66,0,0,0,15.54-2.53c.51-1,.92-1.18,1.92-.82,5.82,2.05,11.66,4.05,17.5,6a1.65,1.65,0,0,1,1.23,1.57c.41,3.21.93,6.4,1.35,9.6.5,3.85.91,7.71,1.43,11.55.5,3.66,1.09,7.3,1.63,11,.21,1.39.42,2.79.52,4.19,0,.25-.41.61-.71.8a4,4,0,0,0,2.08,7.56Z"/><path class="cls-1" d="M128.27,343.74c.3.13.47.19.64.28a9.76,9.76,0,0,0,13.7-5c.31-.79.55-.88,1.44-.71,7.14,1.38,14.3,2.65,21.45,3.94,5.63,1,11.26,2.06,16.9,3.05,7,1.24,14,2.43,20.95,3.66,3,.52,6,1.09,9,1.67.23.05.62.35.6.48a9.22,9.22,0,0,0,2.54,7.73.94.94,0,0,1-.08.87c-1.13,1.38-2.3,2.73-3.48,4.08q-6,6.83-12,13.64c-2.53,2.86-5.12,5.66-7.65,8.52s-4.82,5.53-7.2,8.31c-.54.64-1,.7-1.83.39-8.44-3.05-16.92-6-25.38-9-1.67-.59-3.32-1.23-4.94-1.94a1.56,1.56,0,0,1-.84-1.09,4.12,4.12,0,0,0-2.9-3.78,3.59,3.59,0,0,0-4.11,1.18c-.62.82-1.1.68-1.85.32q-10.64-5.16-21.3-10.26c-1-.47-2-.88-2.94-1.41a1.07,1.07,0,0,1-.34-1q4.68-11.69,9.43-23.34C128.14,344.11,128.21,343.92,128.27,343.74Z"/><path class="cls-1" d="M340.8,429.62c-1.95,0-3.89,0-5.84,0q-9,.12-18,.28l-16.09.27-17.06.28-15.39.28-17.76.28q-7,.12-14,.28c-2.16.06-4.32.21-6.48.25a3.69,3.69,0,0,1-1.21-.41,5.75,5.75,0,0,1,.9-.68q14.19-7.12,28.38-14.24c.61-.3.92-.4,1.28.32a9.32,9.32,0,0,0,8.65,5.51,9.63,9.63,0,0,0,9.75-8.25,10.76,10.76,0,0,0-.89-6.08,1.31,1.31,0,0,1,.34-1.16q6.54-5.31,13.14-10.54c4.69-3.71,9.42-7.35,14.1-11.07s9.53-7.66,14.3-11.5q2.08-1.67,4.19-3.31a2.86,2.86,0,0,1,2.21-.66,3.7,3.7,0,0,0,4-2.43,1.73,1.73,0,0,1,1.87-1.18c4.94,0,9.89-.15,14.83-.27a32.81,32.81,0,0,0,3.57-.28,1.1,1.1,0,0,1,1.43,1.15,9.83,9.83,0,0,0,1.88,5,1.06,1.06,0,0,1,0,1q-9.28,12.82-18.64,25.61c-3.38,4.63-6.8,9.23-10.2,13.86-.33.45-.59.53-1.15.26a4.06,4.06,0,0,0-5.68,2.39,4.22,4.22,0,0,0,2.84,5.22,4.29,4.29,0,0,0,3.65-.77,1.9,1.9,0,0,1,1.52-.25c7.28,2.67,14.54,5.4,21.81,8.11,1,.38,2.06.71,3.05,1.15.29.13.45.56.67.85a2.42,2.42,0,0,1-.84.41c-3,.16-6.08.29-9.12.43Z"/><path class="cls-1" d="M107.15,265.93c.47-3.52.86-6.6,1.29-9.67s.86-5.85,1.28-8.78c.46-3.11.92-6.22,1.36-9.33.4-2.89.75-5.79,1.16-8.68.52-3.69,1.08-7.38,1.62-11.08a6.64,6.64,0,0,1,.06-1.1c.29-.89-.12-2.07,1.68-2.17,1.57-.09,2.6-1.52,3.06-3.16a2,2,0,0,1,.85-1.14c5.84-3,11.71-5.95,17.55-8.95q7.31-3.74,14.55-7.57c.7-.37,1-.39,1.44.36a10.19,10.19,0,0,0,8.07,4.72h.42c1.93-.16,2-.08,2.18,1.79.41,3.21.92,6.4,1.35,9.61.41,3,.75,6.07,1.15,9.1s.92,6.3,1.33,9.46a2.84,2.84,0,0,1-.19,1.59c-2.83,5.3-5.71,10.57-8.57,15.86q-2.14,4-4.26,8c-1.64,3.09-3.26,6.21-5,9.27a1.57,1.57,0,0,1-1.34.65,9.79,9.79,0,0,0-11.64,6c-.28.69-.43.76-1.22.62-4.75-.86-9.52-1.54-14.28-2.32-4.4-.72-8.79-1.46-13.17-2.26C107.55,266.63,107.28,266.07,107.15,265.93Z"/><path class="cls-1" d="M55.16,394c0-5.08,0-10.17,0-15.25,0-3.55-.18-7.11-.27-10.66s-.17-7.38-.28-11.08c-.07-2.53-.17-5.06-.28-7.59,0-.69.08-1,.92-1.12a9.23,9.23,0,0,0,6.57-4.68c.41-.7.62-.68,1.27-.36q8.78,4.29,17.59,8.51l20.2,9.68,12.93,6.19.5.23c2.42,1.1,2.39,1.08,1.38,3.6q-4.56,11.3-9.06,22.61c-.38.95-.85,1.21-1.91.92a9.62,9.62,0,0,0-11.95,7.62c-.13.8-.44.83-1,.84-5,.08-10.07.18-15.11.27q-6.93.13-13.86.29c-.44,0-.88.23-1.33.25-.91,0-1.79.37-1.9-1.27a3.6,3.6,0,0,0-3.08-3.11c-.89-.19-1-.57-1-1.3,0-1.53,0-3.06,0-4.59Z"/><path class="cls-1" d="M284.51,225.51c.22-2.11.41-4.15.66-6.19.32-2.71.74-5.42,1-8.14.07-.68.18-.92.93-1a4.22,4.22,0,0,0,3.54-3.18,4.11,4.11,0,0,0-2.12-4.39,3.6,3.6,0,0,0-4.63.61c-.91,1.07-1.44.79-2.48.18-3.87-2.3-7.85-4.41-11.77-6.62-4.83-2.73-9.63-5.51-14.47-8.24-3.24-1.83-6.5-3.66-9.79-5.39-.85-.45-.88-.77-.37-1.46,2.14-2.93,2.25-6.1,1.11-9.43a1.2,1.2,0,0,1,.43-1.07q7-4.47,14.06-8.88l15-9.37c1.58-1,3.13-2,4.71-3,.31-.19.61-.62.85.28.89,3.36,4.45,6.1,7.84,6.58a11.14,11.14,0,0,0,5.94-.91,1.28,1.28,0,0,1,1.17.33c3.37,4.75,6.69,9.53,10,14.32,2.2,3.18,4.4,6.35,6.53,9.57a2.09,2.09,0,0,1,.16,1.69c-3,6.72-6.1,13.41-9.16,20.11q-4.34,9.5-8.66,19a2.89,2.89,0,0,1-1.91,1.72C290.3,223.52,287.49,224.52,284.51,225.51Z"/><path class="cls-1" d="M235.05,254.22c-2.74.28-5.17.93-7.05,2.9-.22.23-.85.45-1,.33-2.71-2.35-5.35-4.77-8-7.13-.85-.75-.63-1,.32-1.34q13.74-4.57,27.48-9.22c3.65-1.23,7.32-2.42,10.94-3.73a2,2,0,0,1,2.08.27l15,11.14c.22.16.45.29.68.45,1,.71,2.14,1.21,1.57,3a3.37,3.37,0,0,0,1.57,3.71c.52.38.52.64.34,1.17q-2.18,6.59-4.3,13.2-5.06,15.66-10.1,31.33c-.89,2.76-1.73,5.54-2.61,8.3-.06.19-.25.49-.35.47-1.89-.25-2.32,2.78-4.46,2-1.57-.6-3.16-1.13-4.74-1.68q-9.39-3.24-18.79-6.47c-.82-.29-1.14-.48-.94-1.6.9-5,1.54-10,2.32-15q.93-6,2-12a1.3,1.3,0,0,1,.72-.8,9.52,9.52,0,0,0,6.8-8.09c.87-5.77-3.76-10.68-8.4-10.9A4.9,4.9,0,0,1,235.05,254.22Z"/><path class="cls-1" d="M116.33,107.59c-.18,4.93-.32,9.44-.51,14-.16,3.82-.36,7.63-.55,11.44-.08,1.66-.16,3.31-.31,5,0,.24-.44.65-.64.63a9.5,9.5,0,0,0-9.34,4.9c-.43.76-.66.93-1.59.57-11-4.24-22-8.39-33.06-12.55-5-1.9-10.11-3.76-15.17-5.64-.79-.3-1-.61-.95-1.68a7.87,7.87,0,0,0-1.58-5.65c-.88-1.07-.6-1.64.27-2.55,4.42-4.58,8.75-9.24,13.09-13.89,1.92-2,3.76-4.16,5.7-6.19a1.59,1.59,0,0,1,1.35-.4,4.07,4.07,0,0,0,5.68-2.67c.29-.94.71-.71,1.17-.6,4.88,1.2,9.76,2.43,14.64,3.65,5.9,1.47,11.79,2.95,17.69,4.38.82.2,1.18.49,1.11,1.36a3.19,3.19,0,0,0,1.86,3.28C116.92,105.61,116.21,106.9,116.33,107.59Z"/><path class="cls-1" d="M45.7,161.88q0-13.57,0-27.14c0-.8,0-1.26,1-1.48a9.43,9.43,0,0,0,6.69-5.56c.34-.72.48-1,1.43-.63,6.5,2.54,13.05,5,19.58,7.44l21.51,8.13c2.25.85,4.47,1.8,6.76,2.51a1.44,1.44,0,0,1,1.15,1.94,8.68,8.68,0,0,0,1.4,6.46c.4.64.29.9-.32,1.29-4.66,3-9.3,6.06-13.94,9.1l-28.4,18.62Q56,186.9,49.3,191.14c-.41.26-1.28.6-1.35.5-.63-.94-2.33-.65-2.31-2.48C45.76,180.07,45.7,171,45.7,161.88Z"/><path class="cls-1" d="M134.59,135.71c-.56-1.08-1-1.94-1.47-2.83Q127.54,121.3,122,109.73c-.37-.78-.66-1.6-1.07-2.36-.75-1.35-1.36-2.51,0-4s.48-3.89-1.1-5.11a4,4,0,0,0-5,.2,2,2,0,0,1-2.2.49c-10.9-2.76-21.81-5.48-32.75-8.08-1.5-.36-1.57-1.79-2.57-2.43a2.41,2.41,0,0,1,.32-.66c6.06-9.13,12.14-18.24,18.16-27.4.68-1,1.45-.49,2.09-.4a8.67,8.67,0,0,0,6.55-1.55c1-.7,1.5-.59,2.33.25,6.66,6.64,13.37,13.22,20.06,19.82q8.76,8.64,17.53,17.25a1.51,1.51,0,0,1,.54,1.74c-1.83,6.6-3.57,13.22-5.32,19.83q-2.24,8.47-4.47,17C134.93,134.67,134.79,135.07,134.59,135.71Z"/><path class="cls-1" d="M215.71,248.83,173.5,263.1c-.48-3.6-.93-7.11-1.42-10.62-.53-3.79-1.11-7.57-1.64-11.36-.48-3.43-1-6.85-1.33-10.29-.08-.79.61-1.68,1-2.48,1.8-3.37,3.64-6.72,5.45-10.09,3.32-6.17,6.62-12.36,10-18.51a1.36,1.36,0,0,1,1.25-.46c5.67,2.31,11.31,4.7,17,7.05s11.33,4.64,17,7c4.28,1.77,8.53,3.59,12.79,5.41a4.86,4.86,0,0,1,.83.53,3.55,3.55,0,0,1-.93.61c-2.86.7-5.74,1.36-8.61,2-4.2,1-8.4,1.91-12.6,2.89-4.55,1.05-9.08,2.17-13.63,3.18a1.9,1.9,0,0,1-1.41-.58,4.06,4.06,0,1,0-4.36,6.57,3.62,3.62,0,0,0,3.85-.64c.5-.42.75-.59,1.33-.06,2.34,2.14,4.73,4.22,7.11,6.31Z"/><path class="cls-1" d="M168,117.61c-7.06-7-14-13.91-20.89-20.83a1.5,1.5,0,0,1-.32-1.23c1.63-6.31,3.31-12.62,5-18.93Q153,72,154.27,67.3c.08-.26.39-.68.56-.66,4.67.44,7.86-1.7,9.89-5.72.53-1.06,1-1,2-.77q15.87,4.08,31.77,8.05c.58.15.84.21.89.89a2.34,2.34,0,0,0,.67,1.59c1,.81.66,1.49.21,2.42-3.32,6.85-6.57,13.72-9.85,20.58q-2.82,5.92-5.66,11.83c-1,2.14-2.05,4.27-3.06,6.41-.26.57-.47.8-1.2.53A9.82,9.82,0,0,0,168,117.61Z"/><path class="cls-1" d="M99.9,307.17c-.36,2.46-.73,4.79-1.05,7.12s-.53,4.54-.88,6.79c0,.3-.53.66-.88.77a4.39,4.39,0,0,0-3.25,3.5,4.11,4.11,0,0,0,2.48,4.33,3.91,3.91,0,0,0,4.51-1,1.46,1.46,0,0,1,1.65-.45c6.87,1.66,13.78,3.2,20.66,4.84a1.4,1.4,0,0,1,.71,1.18,8.88,8.88,0,0,0,2.51,7.72,1.52,1.52,0,0,1,.35,2c-3.12,7.73-6.2,15.5-9.33,23.23-.07.18-.7.33-.95.21-4.36-2.06-8.71-4.16-13.06-6.24l-21-10-13.06-6.26a46.29,46.29,0,0,0-4.95-2.31c-1.49-.51-1.54-1.38-1.49-2.72a21.22,21.22,0,0,0-.53-4.75c-.11-.56-.15-.8.36-1.16,3.48-2.48,6.93-5,10.4-7.52q9.3-6.7,18.62-13.39Z"/><path class="cls-1" d="M343.68,54.11a2.55,2.55,0,0,0,.41.34c.92.43,1.87.83,2.77,1.29.23.12.52.47.5.69-.11,1.31-.34,2.61-.47,3.93-.38,4.1-.76,8.2-1.11,12.31-.22,2.65-.33,5.31-.57,8-.33,3.5-.75,7-1.08,10.5-.24,2.51-.36,5-.59,7.54-.34,3.69-.74,7.37-1.08,11.06-.15,1.69-.24,3.4-.29,5.09,0,1-.2,1.76-1.46,1.58-.18,0-.43-.06-.54,0-1.47,1.25-2.44.12-3.51-.68L317,101c-6-4.48-12-9-17.9-13.48a1.62,1.62,0,0,1-.3-1.47,9.94,9.94,0,0,0,.85-5.54,1.65,1.65,0,0,1,.69-1.37c5.87-3.46,11.78-6.86,17.7-10.26,4.69-2.69,9.41-5.34,14.11-8,3.71-2.12,7.41-4.26,11.11-6.39A2.57,2.57,0,0,0,343.68,54.11Z"/><path class="cls-1" d="M316.84,343a4,4,0,0,1-.66.53l-10.63,5.89q-9.32,5.14-18.65,10.28c-2.31,1.27-4.66,2.47-7,3.76a1.17,1.17,0,0,1-1.51-.13,4.11,4.11,0,0,0-2.27-.73,1.15,1.15,0,0,1-1.29-1.05q-2.26-9.11-4.51-18.23c-.57-2.33-1.17-4.66-1.67-7a1.85,1.85,0,0,1,.37-1.48Q282.77,321,296.58,307.2c.38-.38.58-.51,1.19-.17a8.76,8.76,0,0,0,6.11,1.27c.25-.05.8.49.94.86,1.48,4,2.9,8.12,4.35,12.18l7.27,20.37C316.56,342.06,316.66,342.4,316.84,343Z"/><path class="cls-1" d="M323.59,361.61c-.25.29-.49.61-.77.89-1.65,1.73-1.82,3.73-.31,5.54.54.64.35.93-.14,1.32-5.9,4.68-11.78,9.39-17.68,14.06-5.62,4.44-11.27,8.84-16.88,13.28-3.79,3-7.57,6-11.31,9.11-.59.49-.71.05-1.06-.18-1.43-.93-2.89-1.82-4.32-2.76a.74.74,0,0,1-.27-.6c.83-5.58,1.72-11.16,2.55-16.74.68-4.6,1.29-9.21,2-13.8a1.49,1.49,0,0,1,.9-1.07c2.72-.5,4.25-2.41,3.73-5.06-.14-.7.07-.85.52-1.09l14.25-7.81,18.52-10.23c.52-.28,1.06-.51,1.59-.79,2.37-1.25,2.46-1.29,3.39,1.22,1.72,4.67,3.33,9.4,5,14.1A6.49,6.49,0,0,0,323.59,361.61Z"/><path class="cls-1" d="M71.26,260.73c-3.71-.33-7.13-.61-10.55-1-4.13-.42-8.25-.94-12.39-1.36-3.23-.33-6.47-.57-9.71-.86-1.27-.12-2.54-.33-3.81-.42-1-.07-1.28-.68-1.34-1.5a8.89,8.89,0,0,0-4-6.71,1.38,1.38,0,0,1-.55-1.86c2.59-7.93,5.08-15.89,7.61-23.84s5-15.64,7.51-23.44a5.51,5.51,0,0,1,.8-1.23c.46.36,1.09.61,1.35,1.08q5.89,10.53,11.7,21.13c2.39,4.34,4.7,8.73,7.09,13.08,3.37,6.14,6.78,12.26,10.18,18.38.45.81.78,1.43-.28,2.24a8.55,8.55,0,0,0-3.34,5.78A1.11,1.11,0,0,1,71.26,260.73Z"/><path class="cls-1" d="M267,335.34c-.17.18-.45.52-.76.83l-18.89,18.9c-3.9,3.9-7.81,7.79-11.69,11.72-.62.62-.9.76-1.48-.1-1.41-2.06-3-4-4.48-6-.48-.64-.8-1.08,0-1.87a9.69,9.69,0,0,0-2.43-15.33c-.63-.33-1.11-.48-.9-1.52.69-3.39,1.17-6.82,1.68-10.23s.93-6.68,1.45-10c.69-4.36,1.44-8.71,2.16-13.06a26.33,26.33,0,0,0,.57-3.91c0-1.43.8-.74,1.28-.58,5.45,1.86,10.89,3.76,16.33,5.66,2.49.86,5,1.7,7.44,2.63a1.61,1.61,0,0,1,.83,1.11,4.17,4.17,0,0,0,3.59,3.59c.6,0,.79.16.95.81,1.33,5.51,2.74,11,4.12,16.49Z"/><path class="cls-1" d="M285,210.62c-.54,3.92-1,7.45-1.5,11-.14,1.09-.27,2.19-.3,3.28a1.43,1.43,0,0,1-1.19,1.55c-4.92,1.6-9.81,3.29-14.7,5-2.5.84-5,1.73-7.49,2.5a2.24,2.24,0,0,1-1.71-.22q-7.78-5.67-15.48-11.46a1.17,1.17,0,0,1-.35-1,4.18,4.18,0,0,0-3.21-5.72,1.24,1.24,0,0,1-.65-1c-.05-3.43,0-6.86,0-10.3,0-5.7,0-11.41,0-17.11,0-.82.08-1.24,1.06-1.49a28.59,28.59,0,0,0,3.69-1.63,1.42,1.42,0,0,1,1.09,0q7.54,4.14,15,8.34c6.1,3.44,12.17,6.93,18.26,10.4,1.46.83,3,1.61,4.38,2.49a2.74,2.74,0,0,1,.73,1.13c.53,1,1,2.07,1.55,3.08A12.77,12.77,0,0,0,285,210.62Z"/><path class="cls-1" d="M263.3,308.73c.63-2,1.21-3.72,1.78-5.49Q269,291,273,278.76q3.58-11.14,7.12-22.3c.25-.79.56-1.16,1.48-1.16a2.68,2.68,0,0,0,1.84-.72c.78-.9,1.51-.65,2.39-.36q9.58,3.12,19.17,6.18c2.55.82,5.1,1.62,7.63,2.5a1.17,1.17,0,0,1,.43,1c-1.52,4.18-3.09,8.34-4.68,12.49-1.42,3.73-3,7.4-4.26,11.19-.52,1.62-1.75,1.26-2.58,1.32-4.06.29-8.25,4.35-8.35,8.45a16.72,16.72,0,0,0,.17,3.61c.16.8,0,1-.71,1.24-8.7,2.9-17.38,5.83-26.08,8.71-.33.11-.84-.15-1.19-.36a10.5,10.5,0,0,1-1.39-1.1A7.3,7.3,0,0,1,263.3,308.73Z"/><path class="cls-1" d="M156.53,417a4.07,4.07,0,0,1-.6.35,11,11,0,0,0-5.5,4.75,1.07,1.07,0,0,1-1,.29q-16.29-6.35-32.55-12.75c-1.4-.55-2.82-1-4.22-1.55-.66-.25-1-.5-.8-1.51a9.52,9.52,0,0,0-3.9-10.19,1.62,1.62,0,0,1-.36-1.46q4.64-11.62,9.38-23.21c.89-2.18.92-2.14,3-1.14q10.47,5,21,10c.49.24,1,.41,1.51.61a2,2,0,0,1,1.58,2.19c0,1.58,1.82,3.22,3.5,3.3.78,0,1,.39,1.18,1q3.81,14.4,7.64,28.78C156.36,416.66,156.43,416.78,156.53,417Z"/><path class="cls-1" d="M216.73,249.89c.59.46,1.25.92,1.85,1.45,2.39,2.09,4.74,4.2,7.13,6.28a1.41,1.41,0,0,1,.46,2,9.23,9.23,0,0,0,.63,9.91c.6.87.44,1.39-.24,2.16-2.67,3-5.23,6.13-7.85,9.19-1.85,2.15-3.74,4.28-5.59,6.44-1.49,1.73-3,3.49-4.43,5.24a2,2,0,0,1-2.54.84c-8.6-3-17.24-5.93-25.87-8.89a28.67,28.67,0,0,0-2.94-1.06A1.57,1.57,0,0,1,176,282c-.41-3.08-.74-6.16-1.15-9.24q-.47-3.52-1.07-7a1.34,1.34,0,0,1,1.05-1.79c11.58-3.85,23.14-7.76,34.71-11.65l6.19-2.09Z"/><path class="cls-1" d="M176.94,131.82c1.9-.77,3.83-1.5,5.7-2.34.54-.25.73-.43,1.13.23q7.47,12.75,15,25.46c1.48,2.5,3.06,5,4.52,7.46a1.68,1.68,0,0,1,0,1.42c-2.85,5.34-5.77,10.64-8.64,16-1.64,3-3.21,6.13-4.84,9.18-1.3,2.45-2.6,4.9-4,7.31a1.36,1.36,0,0,1-1.25.43q-6.5-2.62-12.93-5.4a1.29,1.29,0,0,1-.65-1,9.22,9.22,0,0,0-4.19-9.14,1.29,1.29,0,0,1-.65-1.59c1.77-8.49,3.4-17,5.1-25.5q2.19-11,4.47-22c.08-.38.48-.69.73-1Z"/><path class="cls-1" d="M230.88,303.75c-.47,3-.89,5.66-1.3,8.31L228,322.18c-.4,2.56-.81,5.12-1.21,7.68-.53,3.28-1.06,6.56-1.57,9.84a10.72,10.72,0,0,1-.34,2.15,1.42,1.42,0,0,1-1.19.58A8.83,8.83,0,0,0,215.9,345a1.52,1.52,0,0,1-2.23.26c-5.62-3.36-11.25-6.67-16.9-10q-5.53-3.22-11.12-6.38c-.61-.34-.93-.59-.56-1.37a3.86,3.86,0,0,0-.52-4.24,1,1,0,0,1,0-.91c3.4-4,6.86-8,10.28-12,4.09-4.81,8.15-9.65,12.26-14.43a1.61,1.61,0,0,1,1.42-.39c6.31,2.13,12.61,4.32,18.9,6.5.95.33,1.91.61,2.82,1C230.54,303.23,230.75,303.62,230.88,303.75Z"/><path class="cls-1" d="M268.1,402.12A52.59,52.59,0,0,0,263,404c-.95.46-1.27.48-1.92-.43-4.32-6-8.75-12-13.14-18-4.06-5.54-8.13-11.08-12.14-16.66-.17-.23,0-1,.31-1.23,1.52-1.62,3.12-3.18,4.7-4.75L266.2,337.6c.29-.29.62-.54.93-.81.14.41.32.8.43,1.22q3,11.91,6.07,23.85a1.89,1.89,0,0,1-.58,2c-1.46,1.38-1.64,4-.1,5.16s1.13,2.49.95,3.82c-.58,4.15-1.25,8.28-1.9,12.42-.72,4.54-1.46,9.07-2.18,13.61a25.21,25.21,0,0,0-.31,2.58C269.48,402.2,269.41,402.71,268.1,402.12Z"/><path class="cls-1" d="M237.36,165.83a5.13,5.13,0,0,1-1.47.65,9.12,9.12,0,0,0-7.83,5.84,9.66,9.66,0,0,0,7.6,13.41c1,.11,1.29.5,1.28,1.47,0,9.19,0,18.37,0,27.55a4.69,4.69,0,0,1-.27,1.15,5.87,5.87,0,0,1-.76-.82q-4.63-7.79-9.25-15.59c-2.83-4.77-5.64-9.55-8.47-14.31q-5.32-9-10.68-17.92c-.7-1.17-1.44-2.32-2.08-3.52a1.44,1.44,0,0,1,.11-1.12c2.91-5.41,5.87-10.8,8.78-16.21,1.64-3,3.23-6.12,4.86-9.17q4.2-7.89,8.47-15.76c.14-.25.81-.52,1-.4.6.42,1.76-.68,2,1,.6,4.64,1.46,9.25,2.15,13.89s1.29,9.38,2,14.07c.78,5.08,1.64,10.14,2.47,15.21a2.62,2.62,0,0,1,0,.28Z"/><path class="cls-1" d="M313.74,261.78c-1.08-.33-2-.6-2.9-.89-8.12-2.6-16.23-5.22-24.36-7.79-1-.32-1.52-.77-1.41-1.93a3.12,3.12,0,0,0-.55-1.91,1.89,1.89,0,0,1,0-2.22q5-10.83,9.89-21.72a4.5,4.5,0,0,1,2.92-2.73c8.32-2.7,16.6-5.56,24.89-8.36.64-.22,1.05-.43,1.38.66a9.06,9.06,0,0,0,4.9,5.63c.74.35.82.57.51,1.38-2.53,6.51-5,13-7.44,19.58s-5,13.06-7.48,19.58A7.94,7.94,0,0,1,313.74,261.78Z"/><path class="cls-1" d="M135,139.77c.89,1.76,1.74,3.36,2.52,5q3.45,7.13,6.87,14.28,5.25,11,10.54,21.92c.29.6.31.95-.21,1.38-2.14,1.78-2.9,4.24-3.22,6.87a5,5,0,0,0,.32,2.42c.42,1-.08,1.22-.75,1.55q-6.15,3.12-12.31,6.26c-6.37,3.27-12.72,6.57-19.09,9.84a9.26,9.26,0,0,1-1.29.42c0-1-1.63-1.24-1.24-2.65,2.17-8,4.24-16,6.35-24.07q3.84-14.59,7.69-29.19C132.4,149.17,133.69,144.58,135,139.77Z"/><path class="cls-1" d="M167.67,125.32a2.83,2.83,0,0,1,.48.55,9.69,9.69,0,0,0,6,5.06c.2.06.42.58.37.84-1.44,7-3,14-4.37,21-1.63,8.05-3.19,16.12-4.78,24.18-.21,1-.14,2.46-.78,2.92s-2-.37-3-.27a21.73,21.73,0,0,0-4.35,1c-.65.21-1,.39-1.34-.36Q149.5,166.84,143,153.44c-2.23-4.63-4.43-9.29-6.7-13.9-.43-.87-.34-1.27.55-1.63q12.56-5.06,25.09-10.16c1.68-.68,3.34-1.41,5-2.12Z"/><path class="cls-1" d="M234.64,369.29q10,13.72,20,27.47c1.93,2.65,3.93,5.25,5.89,7.88.4.54.76,1.07-.05,1.66a2.28,2.28,0,0,0-.76,1.27c-.35,1.72-1.58,1.6-2.82,1.43-5.19-.73-10.37-1.46-15.55-2.22-5.49-.81-11-1.69-16.46-2.48-4.87-.7-9.76-1.3-14.63-2-1.62-.22-3.23-.52-4.83-.83-.36-.07-.92-.32-1-.56-.1-.54-.15-1.35.17-1.67q14.85-15,29.78-29.82A1.19,1.19,0,0,1,234.64,369.29Z"/><path class="cls-1" d="M204.51,164.73c4,6.72,8.07,13.37,12,20.05,5.43,9.15,10.81,18.32,16.22,27.49.74,1.25,1.54,2.47,2.24,3.74a1.42,1.42,0,0,1,0,1.21,1.24,1.24,0,0,1-1.14.2c-4-1.64-8.06-3.32-12.08-5l-14-5.82L192,200c-1.38-.57-2.76-1.16-4.17-1.66-1-.34-1.14-.77-.64-1.69,2.55-4.63,5.05-9.28,7.55-13.93q4.55-8.49,9.07-17A10.1,10.1,0,0,1,204.51,164.73Z"/><path class="cls-1" d="M204.45,161.88a11.16,11.16,0,0,1-.81-1c-1.55-2.62-3.06-5.27-4.62-7.88-3.35-5.62-6.74-11.22-10.09-16.83q-2.2-3.69-4.34-7.42a1.06,1.06,0,0,1,0-1,10.4,10.4,0,0,0,2.17-7c0-.15.48-.46.76-.47,3.25-.22,6.51-.35,9.76-.59,4.3-.33,8.58-.73,12.87-1.1,1.32-.11,2.65-.18,4-.28,3.65-.28,7.3-.57,11-.81.24,0,.56.28.74.51,1.12,1.39.88,2.69,0,4.22-4.53,8.21-8.95,16.47-13.39,24.73-2.45,4.58-4.85,9.18-7.28,13.76C205,161.13,204.72,161.45,204.45,161.88Z"/><path class="cls-1" d="M56.9,50.15c9.47,0,19.32,0,29.18,0a10.11,10.11,0,0,1,2.57.32,1.31,1.31,0,0,1,.7,1,9.09,9.09,0,0,0,4.88,7.31c.69.41.72.75.33,1.33q-9,13.44-18,26.87a2.69,2.69,0,0,1-3.89,0L55.15,60.67c-1.42-2.12-2.82-4.25-4.31-6.31-.4-.55-.42-.83.07-1.23a1.09,1.09,0,0,0,.34-.43C52.12,50.11,53.88,49.19,56.9,50.15Z"/><path class="cls-1" d="M46.25,85.24c0-9.14,0-18.29,0-27.43a2,2,0,0,1,1.27-2.07c2.13-1,2.13-1.05,3.49,1Q59,68.65,67,80.6c1.58,2.34,3.18,4.66,4.76,7,.35.51.59.91-.07,1.56a3.41,3.41,0,0,0-.61,4.29c.5.91.22,1.33-.38,2q-4.6,4.8-9.12,9.66-4.9,5.26-9.73,10.58a1.13,1.13,0,0,1-1.79.23,13.66,13.66,0,0,0-3.05-1.42c-.81-.29-.8-.84-.8-1.51q0-11.7,0-23.39Z"/><path class="cls-1" d="M313.88,179.67,299,158.05c-.1-.15-.25-.27-.35-.42a14.69,14.69,0,0,1-1.57-2.39c-.51-1.2.91-1.45,1.36-2.2,1.29-2.14,2.22-4.33,1.76-6.92a1.33,1.33,0,0,1,.61-1c7.44-4.38,14.91-8.71,22.37-13.07q7-4.1,14-8.22c.63-.38,1.3-.69,1.76.11a1.65,1.65,0,0,1-.09,1.28c-3.51,7.74-7.06,15.46-10.59,23.2Q322.59,160.8,317,173.21C316,175.32,315,177.41,313.88,179.67Z"/><path class="cls-1" d="M257.48,234.67l-9,3c-10.13,3.44-20.28,6.84-30.38,10.38-1.63.57-2.3-.54-3.12-1.24-3.78-3.28-7.45-6.68-11.19-10-1.78-1.59-3.68-3-5.37-4.7-.4-.4-.23-1.47-.16-2.22,0-.27.51-.63.84-.71q12.5-3,25-5.86c3.14-.72,6.28-1.42,9.44-2.06a1.72,1.72,0,0,1,1.39.49,4.18,4.18,0,0,0,5.47,1.33,1.8,1.8,0,0,1,1.53.16c4.72,3.42,9.4,6.89,14.08,10.35Z"/><path class="cls-1" d="M203.38,398.94c-.21-.2-.37-.37-.55-.51a3.88,3.88,0,0,0-5.34.37,1.37,1.37,0,0,1-1.66.4c-3.18-1.18-6.35-2.41-9.57-3.5-.94-.32-.73-.5-.24-1q5.55-6.21,11.07-12.46,5.1-5.77,10.18-11.57c2.92-3.35,5.8-6.74,8.75-10.07a1.39,1.39,0,0,1,1.33-.16,9.78,9.78,0,0,0,9.73.37c.75-.38,1.16-.27,1.58.33,1.56,2.18,3.07,4.4,4.7,6.53.53.7.4,1-.15,1.55-4.54,4.51-9.06,9.05-13.59,13.57L204.17,398.2C203.92,398.46,203.65,398.69,203.38,398.94Z"/><path class="cls-1" d="M101.72,304.46c.56-4.13,1-8,1.61-12,.51-3.55,1.12-7.09,1.62-10.65.43-3,.77-6,1.16-9,.18-1.45.34-2.9.6-4.33a.93.93,0,0,1,.78-.51c6.14,1,12.27,2.1,18.4,3.13,3,.52,6.12.95,9.17,1.42.66.11.93.23.91,1.17a15.58,15.58,0,0,0,.88,4.36c.16.56.35.78-.31,1.24-5.94,4.2-11.83,8.46-17.73,12.72C113.18,296.16,107.55,300.24,101.72,304.46Z"/><path class="cls-1" d="M334.2,268.4c-1.5-.5-3.22-1.1-4.94-1.65-4.36-1.4-8.72-2.82-13.1-4.16-.9-.27-1-.63-.7-1.42q4.82-12.51,9.59-25c1.74-4.58,3.47-9.16,5.12-13.77a1.22,1.22,0,0,1,1.49-1c.7.05,1.41,0,2.11.05a.8.8,0,0,1,.56.51c.23,1.63.42,3.26.58,4.9q.58,6,1.11,12c.22,2.56.34,5.13.58,7.69.32,3.41.74,6.81,1.07,10.22.24,2.47.3,5,.62,7.41.21,1.59.23,2.78-1.77,3.08-.6.09-1.11.75-1.67,1.12C334.75,268.46,334.58,268.4,334.2,268.4Z"/><path class="cls-1" d="M135.68,137.07c.91-3.43,1.78-6.66,2.63-9.89,2.36-9,4.7-18,7.08-26.94.24-.89.63-1.74,1-2.61.64.6,1.29,1.18,1.91,1.79,4.6,4.59,9.17,9.19,13.77,13.76a45.7,45.7,0,0,0,4.16,3.84c1.41,1.08,1.43,2.34,1,3.82a2.63,2.63,0,0,0-.13,1.07c.3,2.09.33,2.12-1.58,2.9-6.84,2.78-13.7,5.54-20.54,8.34C141.94,134.38,139,135.68,135.68,137.07Z"/><path class="cls-1" d="M183.41,396.1c-3.21,3.61-6.37,7.12-9.5,10.67s-6.14,7-9.19,10.59c-.57.66-1,.58-1.83.34-1.44-.43-3-.47-4.48-.77a1.28,1.28,0,0,1-.77-.79c-.65-2.26-1.23-4.54-1.83-6.82q-2.88-10.9-5.73-21.82a1.61,1.61,0,0,1,.2-1.33c.69-.68,1.17-1.64,2.61-1.1,7,2.63,14.05,5.12,21.08,7.65Z"/><path class="cls-1" d="M176.48,284.66c3.39,1.14,6.65,2.2,9.9,3.31,6.43,2.2,12.86,4.44,19.3,6.63.82.28.8.46.24,1.1q-6,6.84-11.82,13.75c-3.48,4.08-6.9,8.19-10.41,12.24a1.57,1.57,0,0,1-1.39.14,1.64,1.64,0,0,1-1-1c-.62-4.38-1.12-8.77-1.72-13.16-.7-5.14-1.49-10.28-2.2-15.42C177.05,289.78,176.79,287.28,176.48,284.66Z"/><path class="cls-1" d="M314.2,182.18l13.62,19.44c.52.73.91,1.28-.26,2-3.05,1.79-4.33,4.73-4.56,8.11-.07.88-.47,1.07-1.07,1.27l-16.78,5.59c-2.92,1-5.82,2-9,3.08C302.24,208.35,308.21,195.29,314.2,182.18Z"/><path class="cls-1" d="M235.48,274.3c-.31,2.17-.56,4.06-.85,5.95-.52,3.27-1.08,6.54-1.6,9.82-.58,3.68-1.11,7.37-1.69,11.06-.14.92-.71.66-1.34.45q-8.81-3.06-17.62-6.05c-1-.36-2.07-.65-3.1-1-.47-.15-.75-.29-.24-.88q6.35-7.23,12.6-14.53c1.91-2.21,3.77-4.47,5.63-6.73.6-.74,1.16-1.06,2-.32,1.59,1.42,3.63,1.56,5.58,1.94A3,3,0,0,1,235.48,274.3Z"/><path class="cls-1" d="M263.9,317a4.46,4.46,0,0,1,.37-.39,4.28,4.28,0,0,0,2-3.45c0-.34.57-.84,1-1q12.06-4.08,24.13-8.08c.09,0,.19,0,.27-.05.82-.25,1.86-.94,2.4-.66.85.44,1.39,1.51,2,2.35.1.13,0,.49-.08.68a3.57,3.57,0,0,1-.57.6L269.2,333.17c-.67.67-1.07,1.44-1.46-.32-1.13-5-2.5-9.92-3.77-14.88A9.76,9.76,0,0,1,263.9,317Z"/><path class="cls-1" d="M168,233l.72,5.11c.45,3.2.91,6.4,1.34,9.61s.77,6.16,1.17,9.23c.22,1.72.46,3.44.74,5.14.16,1,.19,1.54-1,1.92-5.19,1.66-10.33,3.46-15.49,5.21a1.24,1.24,0,0,1-1.64-.49,18.94,18.94,0,0,0-2.79-2.8c-.49-.41-.71-.63-.37-1.27q5-9.18,10-18.38c2.24-4.17,4.46-8.36,6.7-12.53l.42-.83Z"/><path class="cls-1" d="M334.33,271.12c.46,1.44-.9,1.8-1.63,2.37-5.25,4.07-10.59,8-15.88,12.07-2.21,1.68-4.38,3.43-6.57,5.15a1.16,1.16,0,0,1-1.65.07,28.63,28.63,0,0,0-3.15-1.53.83.83,0,0,1-.28-.76q3.72-9.87,7.48-19.72c.55-1.44,1.1-2.88,1.61-4.33.25-.69.57-1,1.36-.7,5.85,1.95,11.7,3.89,17.58,5.75C334.13,269.79,334.54,270.14,334.33,271.12Z"/><path class="cls-1" d="M168.72,227.88c-.45-3.41-.9-6.83-1.37-10.24-.53-3.74-1.09-7.48-1.62-11.22-.32-2.26-.64-4.52-.84-6.78a1.69,1.69,0,0,1,.76-1.32,9.72,9.72,0,0,0,4.5-4.63c.36-.82.79-1.08,1.66-.7,4,1.69,7.94,3.36,11.93,5,1,.41.87.9.46,1.65q-5.07,9.36-10.1,18.76-2.53,4.74-5.06,9.5Z"/><path class="cls-1" d="M116.47,136.35c.17-4.46.31-8.92.5-13.39.16-3.9.36-7.81.55-11.71.08-1.65.18-3.31.29-5a2.74,2.74,0,0,1,.25-.69c.27.13.65.19.78.41.44.74.79,1.54,1.16,2.32q3.41,7.08,6.79,14.16c2.29,4.76,4.55,9.53,6.89,14.27.38.79.12,1.07-.52,1.33-3.52,1.43-7.06,2.85-10.58,4.31a1.21,1.21,0,0,1-1.56-.31,13.38,13.38,0,0,0-3.22-2.52c-1.13-.56-1.6-1.19-1.4-2.39a4.59,4.59,0,0,0,0-.83Z"/><path class="cls-1" d="M282.79,227.55c-.36,2.92-.69,5.72-1.05,8.51s-.7,5.33-1,8c-.05.45,0,.92-.07,1.38a3.32,3.32,0,0,1-2.38,2.86c-.3,0-.65-.29-.93-.49l-11.21-8.27-5.93-4.34Z"/><path class="cls-1" d="M174.62,282.59c-6.15-2.13-12.18-4.23-18.23-6.28-.89-.3-1.07-.59-.89-1.56a6.29,6.29,0,0,0-.27-2.94c-.31-1,.11-1.19.86-1.44,5-1.65,10-3.29,14.95-5,1.06-.36,1.43,0,1.55.87.23,1.63.37,3.27.59,4.89.43,3.16.9,6.31,1.34,9.47C174.6,281.2,174.59,281.85,174.62,282.59Z"/><path class="cls-1" d="M293.73,223.84c-2.09,4.55-4.11,8.91-6.1,13.27-1.43,3.14-2.82,6.3-4.28,9.42-.17.36-.7.55-1.07.82A4.55,4.55,0,0,1,282,246q.4-3.89.89-7.75c.33-2.62.69-5.23,1-7.85a1.84,1.84,0,0,0,.06-.4c-.41-2.6,1.09-3.52,3.31-4.08S291.41,224.62,293.73,223.84Z"/><path class="cls-1" d="M44.28,46.94c.09,1.12-.46,1.54-1.55,1.54s-1.52-.54-1.5-1.61.47-1.45,1.5-1.47S44.37,45.82,44.28,46.94Z"/><path class="cls-1" d="M360.07,427.41c1.21-.08,1.6.5,1.59,1.58s-.46,1.47-1.49,1.48-1.59-.4-1.59-1.53S359,427.3,360.07,427.41Z"/><path class="cls-2" d="M342.17,123c.32,1.81.72,3.61.95,5.43.43,3.24.78,6.49,1.13,9.74.22,2.13.34,4.28.57,6.41.34,3.25.76,6.49,1.1,9.74.22,2.18.34,4.37.57,6.54.34,3.3.75,6.59,1.1,9.89.22,2.08.35,4.18.57,6.26.34,3.3.75,6.59,1.1,9.89.22,2.08.35,4.18.57,6.26.34,3.3.75,6.59,1.1,9.88.22,2.09.35,4.18.57,6.27.35,3.29.75,6.59,1.1,9.88.22,2.09.35,4.18.57,6.27.35,3.29.75,6.58,1.1,9.88.22,2.09.35,4.18.57,6.26.35,3.3.75,6.59,1.1,9.89.22,2.08.35,4.18.57,6.26.35,3.3.75,6.59,1.1,9.89.22,2.08.35,4.18.57,6.26.35,3.3.75,6.59,1.1,9.89.22,2.08.35,4.17.57,6.26.35,3.3.74,6.59,1.1,9.88.2,1.81.4,3.62.56,5.43.29,3.48.56,7,.84,10.44"/><path class="cls-2" d="M350.93,430l-17.53.28-16.15.28-17,.28-16.15.28-17,.28-16.15.27c-5.66.1-11.32.18-17,.29-1.62,0-3.24.18-4.87.27"/><path class="cls-2" d="M213.41,350.14l-8.91-1.67c-6-1.12-12-2.26-17.95-3.34-7.37-1.32-14.76-2.58-22.13-3.91-5.44-1-10.86-2.05-16.29-3.05-1.75-.32-3.52-.56-5.29-.84"/><path class="cls-2" d="M145.77,96.92c-.93,3.34-1.88,6.67-2.78,10q-3.92,14.58-7.81,29.16a.92.92,0,0,1-.13.21"/><path class="cls-2" d="M134.35,139.38c-1.48,5.7-2.94,11.42-4.46,17.12-2.62,9.84-5.3,19.67-7.92,29.51-1.85,7-3.62,13.92-5.45,20.88a7.77,7.77,0,0,1-.68,1.39"/><path class="cls-2" d="M248.91,73.81l15.86,28.54,17.82,32c1,1.82,2,3.62,3.06,5.43"/><path class="cls-2" d="M45.55,56.41v57.77"/><path class="cls-2" d="M348.08,55.43c-.25,2.6-.53,5.2-.76,7.8-.21,2.32-.36,4.64-.57,7-.35,3.94-.75,7.89-1.1,11.83-.22,2.5-.34,5-.57,7.52-.34,3.67-.76,7.33-1.1,11-.22,2.45-.34,4.92-.57,7.37-.28,3-.64,5.94-1,8.91"/><path class="cls-2" d="M45,133.53v56.94"/><path class="cls-2" d="M258.79,410c-2.41-.37-4.82-.75-7.24-1.11q-4.31-.64-8.63-1.26l-9-1.25-10.71-1.53c-2.79-.41-5.57-.84-8.36-1.26-3.1-.46-6.21-.93-9.32-1.38a10.75,10.75,0,0,0-1.39,0"/><path class="cls-2" d="M53.62,348.47c.09,5.84.17,11.69.28,17.54.07,3.62.18,7.24.28,10.86l.28,10.85c.09,3.62.17,7.24.28,10.86a11.4,11.4,0,0,0,.27,1.53"/><path class="cls-2" d="M280.36,253.81q-4.73,14.54-9.46,29.09-4,12.45-8.06,24.92a7,7,0,0,0-.15,1.53"/><path class="cls-2" d="M106.37,154.41c-2.83,1.9-5.65,3.82-8.49,5.7s-5.85,3.81-8.77,5.72l-33.54,22c-2.64,1.73-5.29,3.43-7.94,5.15"/><path class="cls-2" d="M340.5,123c-1.86,4.18-3.69,8.36-5.58,12.52q-4.83,10.67-9.74,21.31c-2.26,4.92-4.52,9.84-6.82,14.75-1.4,3-2.93,5.92-4.3,8.92-2.73,6-5.39,12-8.08,18q-4.74,10.51-9.47,21c-.33.74-.65,1.49-1,2.23"/><path class="cls-2" d="M45.69,197c1.57,3,3.12,6,4.73,8.9,2.95,5.4,5.95,10.77,8.9,16.16q5,9.18,10,18.37,3.75,6.9,7.52,13.78"/><path class="cls-2" d="M104.56,145.22c-6.77-2.55-13.55-5.08-20.32-7.66C77,134.8,69.77,132,62.53,129.22c-2.91-1.11-5.85-2.14-8.77-3.21"/><path class="cls-2" d="M145.49,382l-9.33-4.46L108.6,364.34q-9.67-4.66-19.35-9.33-10.08-4.81-20.18-9.6l-7.93-3.76"/><path class="cls-2" d="M113.54,215c-.58,4-1.18,8-1.73,12-.5,3.57-.9,7.15-1.41,10.72s-1.14,7.32-1.65,11-.9,7.33-1.41,11-1.15,7.14-1.65,10.72-.9,7.34-1.42,11-1.14,7.14-1.64,10.72-.92,7.24-1.41,10.86-1,7-1.52,10.44c-.34,2.36-.65,4.73-1,7.1-.08.56-.19,1.11-.28,1.67"/><path class="cls-2" d="M175.27,131c-.78,4-1.55,8.08-2.37,12.11-1.79,8.92-3.62,17.82-5.42,26.73-.67,3.34-1.28,6.69-2,10a6,6,0,0,1-.68,1.4"/><path class="cls-2" d="M335.07,221.23c.28,2.74.58,5.47.82,8.21.23,2.46.35,4.93.58,7.38.34,3.67.74,7.33,1.1,11,.21,2.22.36,4.46.56,6.68.36,3.9.74,7.8,1.11,11.7a7.66,7.66,0,0,1,0,.83"/><path class="cls-2" d="M183.49,128.24c3.15,5.2,6.33,10.38,9.46,15.59q5.33,8.89,10.58,17.82c4.75,8.07,9.44,16.16,14.21,24.22,3.53,6,7.15,11.87,10.7,17.82,2.31,3.88,4.55,7.8,6.83,11.69.32.54.74,1,1.11,1.54"/><path class="cls-2" d="M44.29,197q-4.09,12.87-8.21,25.75-2.88,8.93-5.85,17.82c-.94,2.84-1.94,5.66-2.92,8.49"/><path class="cls-2" d="M230.53,119.61c.51,2.6,1.07,5.19,1.52,7.8.61,3.47,1.15,7,1.68,10.44.67,4.49,1.27,9,2,13.5s1.48,9.18,2.21,13.78a9.2,9.2,0,0,1,0,1.39"/><path class="cls-2" d="M186,198.12q8.28,3.48,16.57,7,11.34,4.74,22.69,9.46c3.55,1.48,7.14,2.89,10.71,4.32"/><path class="cls-2" d="M324.07,368.1c-1.58,1.43-3.08,3-4.74,4.3q-16.68,13.34-33.4,26.6c-3.25,2.59-6.49,5.2-9.74,7.8"/><path class="cls-2" d="M225.66,116.82l-11.55.84-15.31,1.11c-3.67.27-7.33.55-11,.84-.51,0-1,.18-1.53.28"/><path class="cls-2" d="M344.25,53.21,327,63.09c-7.65,4.4-15.3,8.83-23,13.21-1.95,1.11-4,2.06-6,3.08"/><path class="cls-2" d="M71.44,261.6c-1.35-.18-2.69-.42-4-.55-3.25-.3-6.5-.52-9.74-.85-4.09-.42-8.17-1-12.25-1.37-3.29-.34-6.59-.56-9.88-.85-.7-.06-1.4-.18-2.09-.28"/><path class="cls-2" d="M228,359.47Q234.5,368.23,241,377c5.12,7,10.2,14,15.32,21,1.82,2.49,3.71,4.92,5.56,7.38"/><path class="cls-2" d="M89.25,49.72q-14.06-.13-28.11-.28c-2.83,0-5.66-.18-8.49-.27"/><path class="cls-2" d="M243.48,71.16l-12.95-1.11c-1.29-.11-2.59-.19-3.89-.28-4.41-.28-8.82-.54-13.23-.84-2-.14-4-.37-6-.55"/><path class="cls-2" d="M199.77,67.82l-17.54-4.45q-7.93-2-15.87-4a10.16,10.16,0,0,0-1.25-.15"/><path class="cls-2" d="M227.19,258.4c-3-2.69-6-5.28-8.85-8.13-1.16-1.17-1.92-1-3.27-.55-7.49,2.61-15,5.05-22.53,7.57q-9.27,3.1-18.52,6.26c-6,2-12.07,4.07-18.09,6.14a15.31,15.31,0,0,0-2,1"/><path class="cls-2" d="M135.05,139c1.06,1.95,2.2,3.86,3.18,5.85,2.23,4.53,4.37,9.09,6.56,13.64q5.28,10.94,10.58,21.85c.26.52.56,1,.83,1.53"/><path class="cls-2" d="M330.47,219.84,316,258c-.58,1.53-1.12,3.06-1.67,4.6"/><path class="cls-2" d="M227.75,120.16c-1.81,3.3-3.64,6.58-5.43,9.89q-5.85,10.84-11.69,21.72c-1.65,3.09-3.23,6.23-4.89,9.31a9,9,0,0,1-1.37,1.54"/><path class="cls-2" d="M201.86,71.58c-1.58,3.11-3.2,6.2-4.72,9.33-1.9,3.92-3.7,7.9-5.59,11.83q-4.56,9.54-9.18,19.07c-.34.71-.74,1.39-1.11,2.09"/><path class="cls-2" d="M234.57,220.4l-9.6,2.22-27.15,6.27"/><path class="cls-2" d="M110.13,407.63c4,1.63,8.07,3.27,12.11,4.87,5.19,2.06,10.4,4.09,15.59,6.13l12.39,4.87"/><path class="cls-2" d="M359.56,320.77c-3.06,1.57-6.14,3.1-9.18,4.74q-8.16,4.39-16.28,8.9c-5.49,3-10.94,6.15-16.44,9.18-4.94,2.73-9.92,5.38-14.89,8.08q-9.47,5.15-18.92,10.31c-1.64.89-3.25,1.85-4.88,2.78"/><path class="cls-2" d="M155.23,276.64l19.63,6.68"/><path class="cls-2" d="M175.83,284.71c.33,2.64.64,5.29,1,7.93.4,3.12.83,6.22,1.25,9.33s.84,6,1.25,9c.33,2.46.64,4.92,1,7.38.17,1.25.37,2.5.55,3.76"/><path class="cls-2" d="M338.55,122.25q-14.48,8.49-29,17c-3.32,1.94-6.68,3.81-10,5.71"/><path class="cls-2" d="M117.09,105.69c-.18,5.29-.35,10.58-.56,15.87-.15,3.8-.37,7.61-.55,11.41-.1,2-.19,4-.28,6"/><path class="cls-2" d="M231.93,303.09c-.42,2.13-.88,4.26-1.25,6.4-.68,3.94-1.34,7.88-2,11.83-.68,4.41-1.25,8.83-2,13.22-.52,3.17-1.19,6.32-1.79,9.47"/><path class="cls-2" d="M353.86,372.27c-4,5.43-8,10.85-12,16.29q-8.79,12-17.55,24.08a4.83,4.83,0,0,1-.55.56"/><path class="cls-2" d="M278.42,249.21c-6.27-4.59-12.55-9.16-18.76-13.82a1.42,1.42,0,0,0-1.57-.32q-13.56,4.65-27.14,9.27c-4.08,1.39-8.17,2.78-12.24,4.19a8.09,8.09,0,0,0-1.26.68"/><path class="cls-2" d="M297.76,87.17,316,101q11.26,8.51,22.55,17"/><path class="cls-2" d="M243.76,182.67c1.9,1.16,3.77,2.37,5.71,3.47,6.3,3.6,12.61,7.15,18.92,10.73,4.83,2.73,9.65,5.48,14.49,8.2a7,7,0,0,0,1.24.43"/><path class="cls-2" d="M114.86,100.54c-2.73-.79-5.45-1.66-8.21-2.36-9.36-2.35-18.74-4.65-28.11-7"/><path class="cls-2" d="M105.82,57.1l20.74,20.47q8.76,8.63,17.54,17.25a13.05,13.05,0,0,0,1.53,1.12"/><path class="cls-2" d="M92.59,404.15c-6.21.09-12.43.17-18.65.28-3.71.07-7.42.18-11.13.28-1.21,0-2.42.09-3.62.14"/><path class="cls-2" d="M100.39,306.57c-1.25.74-2.57,1.39-3.75,2.24Q79,321.44,61.41,334.13s-.09,0-.13,0"/><path class="cls-2" d="M153.56,192.69c-4.13,2.09-8.27,4.16-12.39,6.27q-10.86,5.55-21.71,11.13c-.45.23-.93.37-1.39.56"/><path class="cls-2" d="M281.34,148.84c-2.65,1.63-5.3,3.24-7.93,4.88q-13.1,8.13-26.17,16.29c-.76.47-1.49,1-2.23,1.52"/><path class="cls-2" d="M275,370.32l-1.74,11.28q-.91,5.85-1.81,11.69l-1.26,8.22c-.07.46-.18.92-.28,1.39"/><path class="cls-2" d="M305.28,308.1c1.16,3.34,2.3,6.69,3.48,10,1.75,4.92,3.54,9.83,5.28,14.76,1.23,3.47,2.42,7,3.63,10.44"/><path class="cls-2" d="M237.63,185.87V215.8"/><path class="cls-2" d="M138.39,279c-3.67,2.55-7.36,5.06-11,7.67-8.37,6-16.71,12.06-25.07,18.07a3,3,0,0,1-1,.29"/><path class="cls-2" d="M149,386.47q3.44,12.88,6.88,25.76c.46,1.7.84,3.43,1.26,5.15"/><path class="cls-2" d="M216.34,359.47c-3.81,4.36-7.6,8.73-11.42,13.08-2.91,3.31-5.87,6.57-8.76,9.89-3.83,4.39-7.59,8.83-11.43,13.21-2.36,2.69-4.85,5.27-7.22,8-3.79,4.29-7.53,8.62-11.28,12.94-.76.87-1.49,1.76-2.23,2.65"/><path class="cls-2" d="M49.58,53.9c1.67,2.32,3.41,4.6,5,7q9.09,13.47,18.1,27A10.54,10.54,0,0,1,73.25,89"/><path class="cls-2" d="M168,231.81a6.81,6.81,0,0,0-1.1,1.26Q159.45,247,152,260.9c-.91,1.69-1.86,3.35-2.78,5"/><path class="cls-2" d="M151.75,384.11l19.77,7q5.85,2.07,11.69,4.18a6.69,6.69,0,0,1,1,.55"/><path class="cls-2" d="M204.37,163.88c-1.12,1.9-2.29,3.77-3.34,5.71-4.38,8.15-8.72,16.33-13.09,24.49Q181,207,174,220c-1.38,2.56-2.72,5.14-4.2,7.64-.73,1.24-1.85,2.27-1.51,3.91.25,1.21.52,2.41.69,3.62.45,3.2.84,6.41,1.26,9.61.37,2.83.73,5.66,1.12,8.49.45,3.29.92,6.59,1.4,9.88a2.74,2.74,0,0,0,.27.7"/><path class="cls-2" d="M168.87,124.2,139.78,136c-1.57.63-3.15,1.21-4.73,1.81"/><path class="cls-2" d="M136.3,272.18q-7.52-1.24-15-2.51c-4-.68-8.08-1.39-12.11-2.08-.93-.16-1.86-.28-2.79-.42"/><path class="cls-2" d="M236.24,273.85q-.63,4-1.25,8.08c-.61,4-1.19,8-1.82,12-.43,2.69-.82,5.4-1.43,8.06-.27,1.17.47,1.07,1,1.26,4.13,1.4,8.27,2.76,12.39,4.19,4.46,1.54,8.91,3.15,13.36,4.72"/><path class="cls-2" d="M263,316.73q2.08,8.28,4.18,16.56c.1.43.29.83.4,1.26.17.62.46,1.23-.53,1.57-.51.17-.85.79-1.27,1.21L235,368.1"/><path class="cls-2" d="M260.18,414.59c-4.55,2.23-9.11,4.42-13.64,6.69-5.67,2.85-11.32,5.75-17,8.63-.52.26-1,.55-1.53.83"/><path class="cls-2" d="M164.07,198.82c.58,4,1.19,8,1.73,12,.42,3.06.74,6.13,1.13,9.19.35,2.74.72,5.48,1.13,8.21,0,.3.35.56.53.84"/><path class="cls-2" d="M118.62,104.43q4.74,9.75,9.47,19.49c1.85,3.81,3.7,7.62,5.58,11.41a8.23,8.23,0,0,0,1,1.26"/><path class="cls-2" d="M153.84,66.15c-1.67,6.24-3.33,12.49-5,18.72q-1.42,5.34-2.93,10.65c-.2.69-.25,1,.55,1.45a8.2,8.2,0,0,1,1.83,1.76c4.55,4.54,9.08,9.1,13.65,13.63,1.86,1.85,3.79,3.64,5.71,5.43a4.56,4.56,0,0,0,1,.56"/><path class="cls-2" d="M231.37,302.53c-1.3-.37-2.62-.69-3.9-1.12-5.71-1.93-11.41-3.89-17.12-5.84q-15-5.15-30.07-10.29c-1.41-.49-2.87-.85-4.31-1.27"/><path class="cls-2" d="M184.18,328.56c2.74,1.67,5.46,3.38,8.22,5,5.78,3.41,11.6,6.78,17.39,10.17,1.82,1.06,3.62,2.13,5.43,3.2"/><path class="cls-2" d="M234.43,368.65l-30.9,30.91"/><path class="cls-2" d="M96.07,58.08a34.61,34.61,0,0,1-1.68,3.19q-9,13.66-18.08,27.29"/><path class="cls-2" d="M350.93,427.54c-2.78-1-5.58-1.91-8.34-2.93-5.17-1.92-10.31-3.89-15.46-5.85-1.12-.43-2.22-.92-3.34-1.38"/><path class="cls-2" d="M294.56,302.11a17.37,17.37,0,0,1-1.81.83l-25.19,8.36c-1,.33-1.95.74-2.92,1.11"/><path class="cls-2" d="M323.37,213.16c-5.84,2-11.69,3.88-17.53,5.85-2.94,1-5.84,2.05-8.78,3a6.33,6.33,0,0,1-1.52.15"/><path class="cls-2" d="M297.07,305.73c-.42.51-.8,1.06-1.26,1.53q-13.21,13.23-26.45,26.44a13.31,13.31,0,0,1-1.52,1.13"/><path class="cls-2" d="M350.93,364.62c-3.94.09-7.88.17-11.83.28-2.69.07-5.38.17-8.07.28a16.12,16.12,0,0,0-1.67.27"/><path class="cls-2" d="M314.05,262.85c-1.44,3.9-2.86,7.8-4.32,11.7-1.84,4.92-3.71,9.84-5.56,14.75"/><path class="cls-2" d="M128.09,342.76c-.93,2.18-1.89,4.35-2.78,6.55q-7.53,18.7-15,37.44c-1.37,3.4-2.78,6.78-4.17,10.16"/><path class="cls-2" d="M267.7,336.08c.93,3.52,1.88,7.05,2.78,10.58,1.27,5,2.5,10,3.77,15,.21.81.55,1.58.82,2.37"/><path class="cls-2" d="M207.29,294.73c-2.32,2.79-4.62,5.59-7,8.35-4.2,4.94-8.44,9.84-12.66,14.76l-4.17,4.87"/><path class="cls-2" d="M101.64,327.31l21.57,5a8.82,8.82,0,0,1,1.12.41"/><path class="cls-2" d="M335.21,272.32l-25.75,19.77"/><path class="cls-2" d="M296,155q3.9,5.57,7.8,11.13,5.07,7.18,10.16,14.34"/><path class="cls-2" d="M285.79,209.82c-.28,2-.57,4-.83,6-.34,2.64-.65,5.29-1,7.94,0,.18-.12.37-.13.55-.17,2.05.08,2.21,1.95,1.54,2.44-.87,4.91-1.69,7.38-2.49a2.86,2.86,0,0,1,1.1.12,3.45,3.45,0,0,1-.15,1q-4.56,10-9.18,20c-.65,1.41-1.38,2.78-2.08,4.17"/><path class="cls-2" d="M283.43,226.94c-.14,1.85-.22,3.72-.44,5.56-.3,2.56-.75,5.11-1.09,7.66-.31,2.37-.56,4.74-.84,7.1"/><path class="cls-2" d="M228.17,270.65q-8.28,9.6-16.56,19.22c-1.29,1.5-2.51,3.05-3.76,4.58"/><path class="cls-2" d="M283.84,226.24a12,12,0,0,1-1.39.69c-7.23,2.47-14.48,4.92-21.71,7.4a8,8,0,0,0-1.25.68"/><path class="cls-2" d="M314.19,181.28c1.71,2.36,3.47,4.71,5.14,7.1q4.69,6.74,9.32,13.51a14.72,14.72,0,0,1,1,2.08"/><path class="cls-2" d="M72.13,94.69q-9,9.75-18.1,19.48c-.89,1-1.85,1.86-2.78,2.79"/><path class="cls-2" d="M317.67,343.73c.51,1.26,1.06,2.5,1.52,3.77,1.74,4.77,3.44,9.55,5.16,14.33"/><path class="cls-2" d="M197.13,232c2.27,1.9,4.58,3.77,6.81,5.72,4,3.49,8,7,12,10.58a3.71,3.71,0,0,1,.56.82"/><path class="cls-2" d="M172.77,264.39c.37,2.22.78,4.44,1.1,6.68.46,3.15.86,6.31,1.25,9.46.12.92.11,1.86.15,2.79"/><path class="cls-2" d="M185.57,198.12,170.68,192"/><path class="cls-2" d="M106.1,267l-14.76-2.37c-.37-.06-.74-.18-1.11-.27"/><path class="cls-2" d="M241.25,221.93q7.94,5.83,15.86,11.7a13.4,13.4,0,0,1,1.26,1.24"/><path class="cls-2" d="M134.49,138.68a8.16,8.16,0,0,0-1.8.3q-4.89,1.89-9.75,3.89a14.1,14.1,0,0,0-1.81,1.1"/><path class="cls-2" d="M184.88,395.8l7.38,2.78,5.56,2.09"/></g></g></svg>