<svg xmlns="http://www.w3.org/2000/svg" viewBox="0 0 842.05 398.77"><defs><style>.cls-1{fill:none;stroke:#000;stroke-linecap:round;stroke-linejoin:round;stroke-width:2px;}</style></defs><g id="Layer_2" data-name="Layer 2"><g id="Layer_1-2" data-name="Layer 1"><path d="M276.25,351.33q-137.35.07-274.71,0l-.05-2.53c9.65-1.45,19.44-.46,29.15-.63,10.15-.19,20.3,0,30.45,0h90.18l29.86,0h30.45c9.86,0,19.72,0,29.6-.46-7.83-5.7-17.16-5.4-25.92-7.05-10.53-2-21.43-2.48-31.68-5.36-14.72-4.13-29.85-5.3-44.72-8.14-10.86-2.07-21.67-4.44-32.53-6.5-7.08-1.35-14.24-2.27-21.33-3.6-5.69-1.07-11.29-2.58-17-3.67-7.47-1.44-15-2.79-22.48-3.9-3-.44-4.38-1.89-4.95-4.74s.53-4.71,2.87-6.36c6.91-4.84,15.29-5.42,22.92-8.14,12.54-4.48,25.1-8.89,37.73-13.12,6.27-2.1,12.72-3.64,19-5.6q18-5.58,36-11.34c9.95-3.18,19.86-6.54,29.83-9.66,8.12-2.55,16.3-4.93,24.49-7.23,2.53-.71,3.29-2,3.34-4.61.36-17.33.69-34.66,1.41-52,.82-19.87,2.06-39.72,3.06-59.58q2.52-49.95,4.95-99.9c.51-10.46,6.78-16.8,17.14-17.13,62.42-1.95,124.89-2.94,187.23-6.36C457.09,2.28,483.57,1.81,510,.34c2.73-.15,5.46-.35,8.19-.34,8,0,14.15,4.39,15.61,12.19a76.44,76.44,0,0,1,1.41,19.71c-.62,8.05,2.63,14.64,5.2,21.76C543.77,62.89,549.56,65,559,64.87c57.18-.91,114.37-1,171.56-1.63,10.77-.13,19.23,4.3,21.21,16.9,2.06,13.07,4.32,26.1,6.48,39.15q3,17.86,5.9,35.73c2,12.49,4,25,6,37.48,2.67,16.32,5.56,32.62,8,49,2.25,14.8,4.15,29.65,6.07,44.49.3,2.29-.2,4.67-.17,7,.1,8.83-7,14.56-14.72,15.06-14.41.92-28.8,2.08-43.2,3.09-13.82,1-27.75,1.09-41.44,2.95-33.45,4.54-67.14,5.85-100.72,8.62-7.39.61-14.8.94-22.18,1.66-5.76.55-11.52,1.37-17.21,2.44-.87.16-1.86,2.29-1.92,3.55-.21,3.89.29,7.82,0,11.69a24.39,24.39,0,0,1-2.15,7.7c-2.73,6.11-7.46,8.69-14.33,9-23.59,1-47.15,2.42-70.73,3.61a30.66,30.66,0,0,1-6.4-.51c-6.3-1-9.27-3.87-10.41-10.08-.42-2.28-.27-4.66-.62-7a27.29,27.29,0,0,0-1.39-4.21A14.78,14.78,0,0,0,433,342c-10.09,7.47-19.86,15.41-30.23,22.45s-22.3,8.84-34.72,6.8c-7.11-1.16-14.19-2.5-21.32-3.52-7.72-1.1-15.52-1.7-23.21-2.92-10-1.58-19.87-3.54-29.78-5.4-1.12-.21-2.66-.43-3.18-1.2-2.65-3.94-4.62-2.17-6.68.5q-9.57,12.44-19.19,24.83c-1.8,2.3-3.91,4.37-5.68,6.68-2.18,2.85-1.63,4.16,1.89,4.41,3.11.23,6.24.11,9.36.11l563.89-.48a59.81,59.81,0,0,1,6.42.25,1.53,1.53,0,0,1,.16,3,54.17,54.17,0,0,1-7,.44q-109.49.18-219,.3l-350.16.47c-3.32,0-6.64.09-9.95-.1-4.38-.25-5-1.26-2.64-4.84,2.88-4.35,6-8.54,9.27-12.65,6.49-8.24,13.15-16.33,19.65-24.56,7.83-9.88,15.66-19.77,23.32-29.79,3.8-5,3-6.1-3.06-7.36-6.89-1.43-12,2.67-17.59,5-3.35,1.41-6.41,3.5-9.61,5.28-3.36,1.88-6.67,3.85-10.09,5.59a14.87,14.87,0,0,1-10.05,1.76c-18.33-3.51-36.73-6.58-55.09-9.89-15.11-2.72-30.21-5.49-45.28-8.42-1.43-.27-2.6-1.86-3.89-2.84,1.16-1.1,2.13-2.64,3.51-3.24,9.76-4.26,19.62-8.28,29.4-12.48,2.64-1.14,5-3.15,7.72-3.84a23.94,23.94,0,0,1,9.56-.52c6.09,1,12,3.06,18.09,4.19,9.77,1.82,19.63,3.14,29.41,4.89,8,1.44,15.93,3.27,23.91,4.79,6.71,1.28,13.46,2.27,20.16,3.54,5.26,1,9.45-1.55,13.71-3.86.72-.39,1.67-1.83,1.48-2.15a4,4,0,0,0-2.46-1.84c-6.55-1-13.12-1.78-19.69-2.57-9.29-1.12-18.61-2-27.86-3.3q-32.33-4.65-64.58-9.7c-6.88-1.07-13.66-2.75-20.54-3.81-10.8-1.65-21.64-3-32.45-4.5a11.87,11.87,0,0,1-4-.88,4,4,0,0,1-1.78-2.62c-.09-.56.95-1.69,1.7-2,2.92-1.05,6-1.83,8.92-2.77,13.46-4.27,26.93-8.5,40.36-12.86,8.07-2.61,16.09-5.39,24.1-8.2a9.84,9.84,0,0,0,3.31-2.22c.33-.31.12-1.37-.11-2-.08-.2-1.06-.23-1.55-.08q-10.22,3.14-20.4,6.34c-7.91,2.49-15.8,5-23.73,7.48-6.5,2-13.06,3.84-19.56,5.87q-14.1,4.41-28.15,9c-9.75,3.19-19.45,6.55-29.2,9.75-9.37,3.09-18.81,6-28.16,9.13-4.57,1.53-9,3.38-13.49,5.23-.93.38-1.59,1.42-2.37,2.16,1,.73,1.84,1.94,2.9,2.14,16,3,32.09,5.81,48.12,8.81,10.87,2,21.68,4.36,32.54,6.47,6.12,1.18,12.28,2.13,18.42,3.26,13.35,2.47,26.69,5,40,7.47,21.42,3.91,42.86,7.69,64.26,11.67,7.43,1.38,14.8,3.12,22.17,4.81a14,14,0,0,1,3.28,1.77C276.52,350,276.38,350.68,276.25,351.33Zm159.2-58.67.67-.06c.07-1.53.24-3.06.19-4.59-.67-21-1.24-42.09-2.08-63.13-.93-23.36-2.23-46.72-3.08-70.09a59.42,59.42,0,0,1,1.48-14.48c1.91-8.87,7-12.71,16.09-13,1.17,0,2.35,0,3.51-.13,4-.4,5.41-2,5.16-6.13-.11-1.94-.53-3.86-.71-5.8-1-10.67-2.51-21.32-2.79-32-.3-11.48,6.64-17.76,18.05-18,17.75-.36,35.5-.83,53.25-1.31,5.89-.16,5.71-.52,6.32-6.48,1-9.9-1.61-18.69-6.09-27.38-2.74-5.31-5.83-7.54-12.15-7.34-60.45,1.92-120.92,3.46-181.39,5.11q-42.7,1.17-85.42,2.36c-5.42.15-5.54.26-5.9,5.63s-.55,10.51-.87,15.76q-3,48.74-6,97.47c-1.39,23.15-2.67,46.3-4,69.45-.32,5.34.66,6.6,5.93,7.11,5.83.56,11.66,1.07,17.47,1.75,12.34,1.46,24.65,3.16,37,4.49,20,2.16,40,4,59.94,6.16,13.13,1.4,26.23,3.06,39.36,4.53,12.4,1.38,24.82,2.63,37.22,4.08,1.32.15,2.54,1.27,3.81,1.94-.92,1.31-1.54,3.21-2.79,3.84-9.17,4.62-18.51,8.9-27.7,13.47-3.31,1.65-6.35,3.83-9.51,5.77l.52,1.46c1.64.25,3.28.56,4.94.75,9.1,1.07,18.21,2.06,27.3,3.16,6.38.78,10.83,3.68,11.43,10.7C434.71,289.37,435.15,291,435.45,292.66Zm39.39-155.72,1.78.25c1.11-3,2.31-6,3.28-9.1.71-2.25,1.69-3.9,4.38-3.82,12.26.32,24.58.31,36.47,3.68,2.76.78,6,3.06,7.19,5.53a48,48,0,0,1,4.82,15.37c1.06,9.47,1,19.06,1.46,28.6q1.77,32.4,3.66,64.79c.69,12.06,1.36,24.13,2.13,36.18.12,1.94-.49,4.2,3.34,3.76q24.9-2.9,49.88-5.09c38-3.31,76.25-3.76,114.16-8.78,15.05-2,30.35-2.05,45.53-2.95,5.75-.34,6.16-.41,5.34-6.25-2.47-17.74-5.19-35.43-7.89-53.13-2.06-13.46-4.25-26.91-6.35-40.37-1.83-11.73-3.58-23.47-5.42-35.2-2.05-13.07-4.33-26.11-6.18-39.21-1.19-8.4-1.06-8.56-9.73-8.51L478.06,84.26c-5.18,0-6.06.8-6,6.2.1,7.41.31,14.82.76,22.21C473.33,120.77,474.16,128.85,474.84,136.94ZM435.47,154.1c2.65-.41,4.71-.6,6.71-1.07,7.17-1.66,14.47-3,21.43-5.28,5.86-2,7.2-4.94,6.86-11.23-.8-14.8-1.75-29.59-2.47-44.39-.45-9.06,2.28-11.66,11.17-11.4,4.1.12,8.2.15,12.3,0,25.51-.63,51-1.6,76.54-1.92,35.91-.45,71.83-.45,107.74-.62,17.57-.08,35.14,0,52.7-.25,4.22-.06,6,1.56,6.46,5.58.49,4.25,1.45,8.44,2.11,12.68,1.93,12.5,3.77,25,5.72,37.53s4,25,6,37.49c2.14,13.65,4.2,27.31,6.33,41,1.76,11.35,3.59,22.69,5.35,34,.87,5.58,1.65,11.16,2.47,16.75.42,2.83,0,4.91-3.54,5.34-6.15.73-12.24,2.2-18.4,2.66-22.18,1.67-44.4,2.91-66.58,4.58-13.37,1-26.68,2.77-40.06,3.71-27.64,1.92-55.3,3.52-82.95,5.27-5.54.34-6.17.8-6,6.25.29,8.37.91,16.74,1.47,25.1.38,5.79.47,6,6.23,5.56,15.57-1.12,31.14-2.27,46.68-3.66,13.94-1.25,27.85-2.87,41.78-4.23,4.46-.43,9-.28,13.43-.81,25.73-3,51.73-2.62,77.39-7,12.63-2.13,25.65-2,38.5-2.88,5.88-.4,7.62-1.61,8.86-7.24.79-3.58,1.78-7.39,1.35-10.93-1.47-12.15-3.44-24.25-5.38-36.34-2.52-15.76-5.22-31.49-7.77-47.24-2-12.5-3.9-25-5.89-37.51q-4.37-27.39-8.84-54.78c-1.57-9.6-3.2-19.2-5-28.76a16.42,16.42,0,0,0-5.22-9.47c-3.65-3.35-7.66-3.31-11.93-3.29-59.92.2-119.84.32-179.77.77-6.17,0-9.42-2.2-11.38-7.57A56.1,56.1,0,0,0,537.1,55c-.87.95-1.3,1.19-1.34,1.49-.17,1.35-.27,2.71-.32,4.06-.26,6.59-.62,6.9-7.08,7.12q-28.31,1-56.61,2.09c-10.4.39-13.94,4-14.11,14.43a37.26,37.26,0,0,0,.27,4.08c1.1,12,2.27,24.06,3.3,36.1.43,4.92,0,5.31-4.9,5.78-3.69.36-7.48.33-11,1.28a12.21,12.21,0,0,0-6.58,4.2C435,141.15,434,147.45,435.47,154.1Zm92.94,88.64.28,0c-.47-7.19-1-14.38-1.38-21.58-.87-17.52-1.56-35-2.51-52.55-.41-7.65-.62-7.78-8-8.15q-19.28-1-38.58-1.62c-3.88-.13-6.35-1.21-6.33-5.68,0-3.26-1.19-4.54-4.8-2.85-7.51,3.5-14.91,7.54-23.63,7.47-2.62,0-3.75,1.74-3.55,4.32.33,4.27.8,8.54,1,12.82q2.94,70.38,5.78,140.77c.28,7.13.3,7.27,7.26,7.13q26.91-.57,53.83-1.13c6.44-.12,12.87-.25,19.31-.19,3.3,0,4.66-1.36,4.44-4.56-.13-1.75-.13-3.5-.2-5.26Q529.87,277.21,528.41,242.74ZM418.7,252.21l-.15-1.28c-6.2-1.23-12.36-2.91-18.62-3.62-24.95-2.83-50.1-3.59-74.88-8.29-9.15-1.73-18.65-1.58-27.94-2.72-20.85-2.58-42-2.74-62.61-7.29-8.37-1.84-8.42-1.61-8.25-10.06,0-1.56.05-3.12.14-4.67,1.48-24.33,3.05-48.65,4.43-73,1.91-33.68,3.67-67.36,5.52-101,.14-2.53.44-5,.73-7.57.66-5.61,1.07-6,7-6.28,5.65-.24,11.31-.35,17-.53,44.43-1.43,88.87-2,133.29-4.43,40.91-2.2,81.93-2.55,122.89-3.89,4.66-.16,7.27,1.37,8.79,5.7.83,2.36,2.46,4.44,3.72,6.64l1.49-.5c0-3.81.21-7.64-.05-11.44-.65-9.77-4.7-13.52-14.64-13.22C501.09,5.2,485.69,6,470.28,6.53,404.41,8.81,338.48,9.46,272.69,14c-10.32.71-20.67.76-31,1.07-6.35.2-9.6,2.63-11.23,8.87a34.31,34.31,0,0,0-1.08,6.9q-2.49,48.49-4.85,97c-1.35,28-2.49,56.1-3.94,84.14-.62,11.88-1.82,23.71.73,35.55.67,3.12,1.72,4.65,5.12,5.06,19.11,2.28,38.29,3.77,57.28,7.35,16.24,3.06,32.92,3.82,49.39,5.67q13.06,1.47,26.1,3.21c6.33.86,12.61,2.13,18.95,2.84,1.77.19,3.79-.72,5.5-1.53,3.13-1.48,6.07-3.35,9.16-4.91C401.42,260.81,410.07,256.52,418.7,252.21Zm-49.45,24-.7-1.72c-5-.53-10-.94-14.92-1.63-16.17-2.24-32.3-4.73-48.47-6.87-25.84-3.42-51.72-6.57-77.55-10-3.36-.44-6.55-2-9.87-2.81a5.52,5.52,0,0,0-3.15.32c-5.74,2.25-11.33,4.91-17.16,6.87C184,264.82,170.51,269,157,273.27c-2.41.76-4.9,1.3-7.22,2.26-.82.33-1.25,1.6-1.86,2.44.76.49,1.48,1.28,2.29,1.41,2.7.43,5.46.44,8.14.92,19.31,3.48,39.08,4,58.14,9.19,4.28,1.16,8.91,1,13.34,1.67,14.19,2.25,28.32,4.85,42.54,6.91,12.91,1.87,25.88,3.38,38.87,4.64a23.27,23.27,0,0,0,10.08-1.56c3.93-1.48,7.43-4.08,11.23-5.95,10.43-5.11,20.95-10,31.37-15.19C365.88,279.06,367.49,277.47,369.25,276.18Zm67,41.14c-2.87,1.56-5.22,2.87-7.59,4.13-4.31,2.28-8.06,4.24-13.82,3-19.16-4.13-38.85-5.22-58-10-11.86-2.94-24.24-3.79-36.39-5.58-5.24-.77-9.43,1.94-13.59,4.39-2.15,1.26-1.85,2.76.63,3.68,1.88.7,3.68,1.62,5.51,2.44-.94,1.84-1.74,3.76-2.85,5.49-1.25,1.95-2.75,3.75-4.19,5.58-3.37,4.26-6.94,8.38-10.08,12.8-2.61,3.66-1.85,4.81,2.62,5.45,16,2.29,31.9,4.65,47.86,6.95,7.32,1.05,14.63,2.59,22,2.92,11.11.49,22.06-.34,31.81-7,10.36-7.08,21-13.83,31.59-20.52C438,327.15,438.51,326.2,436.24,317.32ZM441.05,269l-.29.29c0,12.66.15,25.32-.05,38-.12,7.86,3.27,15.84-.64,23.61-.13.26.15.72.19,1.1.57,5.14,1.39,10.28,1.64,15.44.38,8.06,3.33,11.22,11.48,11.54,1.17,0,2.35,0,3.52,0q35.93-2.15,71.87-4.35a6.7,6.7,0,0,0,3.8-1.07c4.23-3.73,7.07-8.21,6.78-14.2-.67-13.83-1.16-27.66-1.9-41.49q-2.13-39.66-4.48-79.31c-.13-2.23-.58-4.44-.89-6.66-.07,26.41.89,52.7,1.85,79,0,.78.24,1.54.29,2.32.47,8.76,1,17.52,1.37,26.28.1,2.14.25,4.47-2.73,5-3.25.56-6.49,1.49-9.75,1.58-24.58.66-49.17,1.09-73.75,1.78-4.06.11-5.6-1.38-5.75-5.28-.58-14.2-1.3-28.39-2-42.59C441.46,276.25,441.24,272.62,441.05,269ZM326,304.4c5.69,1.57,10.27,3.22,15,4.05,15.85,2.82,32,3.84,47.64,8.11,9.51,2.59,19.57,3.26,29.41,4.59,7.53,1,15.19-6.07,14.56-13.47-.62-7.17-1.6-14.31-2.35-21.47-.31-2.88-1.95-3.92-4.67-4.15-4.46-.38-8.92-.85-13.35-1.51-9.2-1.37-18.35-3-27.57-4.24a13.44,13.44,0,0,0-7.33,1c-9.32,4.61-18.43,9.67-27.68,14.44-6.86,3.54-13.84,6.87-20.74,10.35A22.54,22.54,0,0,0,326,304.4Zm-38.24,13.82c-5.22-1.73-8.93-3.41-12.83-4.17-15-2.93-30.39-4-45.24-8.31-8.74-2.52-18-3.33-27-4.72-5.4-.83-10.68-1.13-16,1.47-7.09,3.49-14.57,6.18-21.79,9.41-1.22.54-2,2.06-3,3.13,1.24.68,2.42,1.75,3.73,2,13.44,2.27,26.92,4.31,40.36,6.62,4.93.85,9.74,2.48,14.67,3.33q15.84,2.73,31.75,4.95c2.82.38,6.12.64,8.58-.45C269.55,327.6,277.9,323.13,287.73,318.22ZM507.21,157.06l.08-.41c3.12,0,6.23-.06,9.35,0s6.23.55,9.32.4c1-.06,2.85-1.48,2.87-2.31.1-4.06.27-8.27-.62-12.19-1.75-7.78-6.34-11.89-13.57-12.29-8.95-.51-17.92-.66-26.88-.59a7.5,7.5,0,0,0-5.07,2.85c-2.5,3.36-4.4,7.16-6.6,10.75-2.94,4.77-1,9.5,4.59,10.33C489.5,154.93,498.36,155.93,507.21,157.06ZM426.1,341.69c-.39-.45-.78-.91-1.16-1.37-2,1.35-4.05,2.71-6.09,4.05-6.26,4.15-12.21,8.93-18.88,12.28-9.93,5-20.87,6.33-31.9,5.23-16.29-1.62-32.54-3.58-48.78-5.57-7.3-.89-14.55-2.25-21.84-3.24-1.22-.17-2.55.47-3.83.74,1,.94,1.87,2.52,3,2.71,6.33,1,12.74,1.64,19.09,2.59,15.53,2.33,31,5.05,46.59,7a160.36,160.36,0,0,0,23.81.92,19.13,19.13,0,0,0,9.21-3.2c8-5.06,15.72-10.51,23.45-16C421.37,346.07,423.66,343.78,426.1,341.69Z"/><path class="cls-1" d="M542.11,286.62c3-3.4,6.95-3.91,11.13-4.13,10-.5,19.92-1,29.87-1.75,17.38-1.27,34.74-2.75,52.12-4.06,16.2-1.23,32.41-2.3,48.6-3.54,14.45-1.1,28.89-2.34,43.34-3.49,7.81-.62,15.62-1.18,23.43-1.75,1-.07,1.95.06,2.92,0,5.91-.48,7.79-2.42,7-8.17-1.78-12.51-3.85-25-5.81-37.46q-3.21-20.49-6.43-41-2.65-17-5.28-33.93c-1.76-11.32-3.47-22.64-5.28-33.94-1.5-9.38-3.34-18.7-4.57-28.11-.53-4-2.51-4.72-6-4.71-26.55.08-53.1,0-79.64.07q-40.71.15-81.41.58c-29.86.31-59.73.75-89.6,1.16-4.18.06-6.41,2.15-6.39,6.43,0,7.41.19,14.83.58,22.23.4,7.62,1,15.23,1.77,22.82a49.94,49.94,0,0,0,1.7,7"/><path class="cls-1" d="M459,126.28c-1.18-13.07-2.43-26.13-3.48-39.21-.4-5,.35-9.74,3.4-14.09a11.42,11.42,0,0,1,10-5.29c19.72-.42,39.43-1.15,59.15-1.64,3.71-.09,5.34-1.4,5.34-5.31,0-6.44,1.5-12.82,0-19.33-.76-3.34-1.26-6.28-4-8.9a27,27,0,0,1-5.86-9.28c-1.07-2.56-2.51-3-4.82-2.89q-29.58.93-59.15,1.77c-3.12.09-6.25,0-9.37,0-19.32.37-38.73-.21-57.95,1.43-19.93,1.7-39.85,1.34-59.76,2-21.27.75-42.55,1.17-63.83,1.82-8.79.26-17.57.84-26.36,1.09-2.6.08-3.42,1.13-3.54,3.57q-1.06,21.36-2.33,42.71c-1.1,18.34-2.38,36.67-3.47,55-.69,11.5-1.12,23-1.8,34.52-.9,15-1.94,30-2.9,45.06-.25,3.9-.49,7.8-.57,11.71s1.76,5.81,7,6.4c13.06,1.47,26.16,2.66,39.23,4.16,10.55,1.21,21.07,2.76,31.63,4,3.48.42,7,.29,10.53.64,14.84,1.51,29.69,3,44.51,4.69,14.07,1.62,28.11,3.5,42.17,5.23,5.26.65,10.56,1,15.8,1.85,1.64.25,3.13,1.48,4.69,2.26"/><path class="cls-1" d="M535.67,51.38c3,1.38,4.28,4.12,5.27,7,1.91,5.62,5.22,7.88,11.72,7.8,34-.41,67.93-.12,101.89-.22,25.18-.07,50.37-.07,75.54-.69,11.48-.28,17.75,3,20.41,17.12,2.78,14.74,4.67,29.65,7.15,44.45,3,18,6.37,35.87,9.29,53.85,2.21,13.61,3.8,27.32,6,40.94,1.92,12.13,4.42,24.17,6.33,36.3q2.21,14,3.46,28.09a34.16,34.16,0,0,1-1.13,10.51c-1.34,5.82-5.17,8.44-11,8.83-12.89.85-25.77,1.88-38.65,2.89q-29.29,2.31-58.57,4.69c-13.08,1.09-26.15,2.34-39.23,3.5-13.28,1.18-26.56,2.28-39.82,3.53-13.68,1.29-27.33,2.81-41,4-3.41.3-7.2,1-10-2.26"/><path class="cls-1" d="M288.54,352.15c-3.71,4.1-7.53,8.1-11.1,12.32-3.84,4.56-7.4,9.37-11.17,14-3,3.76-6.37,7.31-9.29,11.18-1.28,1.7-1.85,3.95-3,6.38H840.78"/><path class="cls-1" d="M531.57,33.82c3.36-5,2-10.61,1.59-15.78C531.85,2.09,522.67,1.6,510.49,2.24c-5.66.3-11.32,1-17,1.12-17.76.49-35.6,0-53.28,1.41-24,2-48,2-72.05,2.74-23.23.7-46.46,1.42-69.68,2.36-19.73.79-39.44,1.92-59.15,2.88-4.8.24-10.78,6.41-11.11,11.71-.65,10.53-1.19,21.07-1.78,31.6-1,17.75-2,35.5-2.91,53.25-.49,9.55-.74,19.12-1.2,28.67q-1.4,29.27-2.92,58.52c-.56,10.92-1.24,21.84-1.7,32.77-.13,2.91.5,5.85.49,8.78,0,3.41-.35,6.82-.54,10.24"/><path class="cls-1" d="M215.92,246.82c-2.08-.94-3.6-1.87-6.52-.8-10.14,3.69-20.63,6.4-31,9.6-7.84,2.44-15.61,5.1-23.44,7.58-13.06,4.13-26.2,8.05-39.22,12.34-14.89,4.9-29.69,10.08-44.51,15.18-8.41,2.89-16.73,6.06-25.23,8.64-2.58.78-3.45,1.77-3.5,4.23-.08,3.37,2.64,3.65,4.73,4C58,309.52,68.77,311,79.46,313c10,1.88,19.9,4.36,29.89,6.33,6.2,1.22,12.51,1.87,18.72,3,9,1.64,18,3.54,27,5.22,7.79,1.45,15.63,2.67,23.42,4.13s15.6,3.21,23.43,4.64c9.16,1.67,18.37,3,27.51,4.75,6,1.13,12.09,1.81,17.69,5,2.89,1.67,6.9,1.52,10.44,1.92,6.23.7,12.49,1.2,18.73,1.78"/><path class="cls-1" d="M440.8,263.79c3.54,5.22,2.37,11.32,2.77,17,.89,12.64.94,25.34,1.33,38,.16,5.21,1.38,6.5,6.44,6.42q35.73-.54,71.45-1.2a39.09,39.09,0,0,0,8.18-1.18c2.24-.53,3.07-2.32,3-4.63-.81-16.57-1.54-33.16-2.37-49.73-.93-18.73-1.94-37.46-2.91-56.18a6.92,6.92,0,0,1,0-2.91c5-11.18,1.08-22.64,1.06-34,0-5.71-.5-11.14.83-17.06,1.84-8.16.93-17.11-4.42-24.38a13.94,13.94,0,0,0-7.51-4.62A87.94,87.94,0,0,0,504,127.5c-5.45-.4-10.94-.21-16.38-.72-3.54-.32-5.46,1-6.45,4.18a21,21,0,0,1-7.51,11.25c-4.18,3.14-.18,6.87.35,10.42.49,3.35,2.24,3.41,4.81,3.54,13.48.68,26.94,1.62,40.42,2.21,3,.14,5.7.4,7.61,3"/><path class="cls-1" d="M245.79,347.47c-2.6,2.88-6.07,2.34-9.37,2.34H1"/><path class="cls-1" d="M309,305.34a65,65,0,0,0-7-1.71c-9.74-1.27-19.53-2.28-29.27-3.59-7.44-1-14.83-2.35-22.26-3.47-13.27-2-26.57-3.77-39.81-5.9-12.14-1.95-24.19-4.39-36.32-6.34-7.77-1.25-15.61-2-23.42-3-.58-.07-1.45.24-1.72-.05-4.12-4.53-9.89-1.92-14.68-3.47"/><path class="cls-1" d="M218.27,249.75c1.78,3.21,4.69,4.31,8.19,4.72,9.19,1.06,18.35,2.34,27.53,3.46,16.2,2,32.41,3.88,48.6,5.88q18.17,2.24,36.31,4.68c9.58,1.29,19.14,2.69,28.69,4.11a21.55,21.55,0,0,1,3.52,1.14"/><path class="cls-1" d="M435.53,335.18c-1.56.79-4.12,1.23-4.52,2.4-2.42,7.16-8.9,10-14.25,13.95-5.73,4.26-11.71,8.19-17.53,12.34-10.46,7.44-22.3,6.56-34,5.13-13.34-1.62-26.56-4.18-39.84-6.31-9.95-1.59-19.88-3.39-29.88-4.56-4.42-.52-4.26-4.43-6.42-6.56,2.5-3.55,6-1.29,8.76-1,9,.92,18,2.64,27,3.91,14.24,2,28.46,4.24,42.76,5.77,11.63,1.23,23.07-.41,33.31-6.43,5.77-3.39,10.81-8,16.52-11.51,3.65-2.24,7.43-5,12.23-4.2"/><path class="cls-1" d="M532.16,206.45c3.29,4.84,2.46,10.52,2.8,15.81,1.29,19.87,2,39.78,3.1,59.67.22,4.23,3.2,7.63,3.1,12.3-.18,8.37,1,16.77,1.53,25.16,0,.58.24,1.31,0,1.73-4.2,6.75-1.09,14.07-1.59,21.1-.43,6-4.14,9.58-7.79,13.41a3.73,3.73,0,0,1-2.3.6c-13.86.81-27.73,1.52-41.58,2.38-10.74.68-21.47,1.69-32.22,2.24a33,33,0,0,1-9.92-1.18c-4.36-1.15-6.94-5.11-7-9.86-.11-5.23,1-10.7-4-14.78-.53-.44.24-3.27,1.12-4.47,3.68-5.06,2.49-10,.64-15.32-1.26-3.66-1.21-7.77-1.92-11.65-.39-2.18-1.19-4.28-1.71-6.44-.83-3.5-2.09-7-2.23-10.54-.19-5-3.23-6.47-7.16-7-7.59-1-15.34-1-22.78-2.61-4.5-.94-9.52-.25-13.52-3.3"/><path class="cls-1" d="M435.53,159.63c.78,20.09,1.52,40.19,2.36,60.28.49,11.7,1.2,23.4,1.71,35.11.15,3.59.31,7.14-1.59,10.6-1,1.73-.72,4.22-.69,6.37.11,7.41.44,14.82.47,22.23,0,1.17-1.09,2.34-1.67,3.51"/><path class="cls-1" d="M290.88,317c-3.58-2.91-8.09-3.23-12.31-4-14.6-2.72-29.39-4.61-43.86-7.87-9.35-2.11-18.81-3.18-28.15-5.09-1.39-.28-2.73-.82-4.11-1.15-5-1.18-9.63-1.64-14.72,1-8.67,4.5-17.88,7.95-26.84,11.9a13.28,13.28,0,0,0-2.36,1.72"/><path class="cls-1" d="M427.92,249.46c-3.15-.22-4.75,2.4-7.09,3.69-6.86,3.82-14,7.06-21,10.68-3.8,2-7.79,3.82-11,6.53-2.75,2.31-5.51,3.08-8.88,3.51a23.48,23.48,0,0,0-7.6,2.85c-3.24,1.73-6.18,4-9.41,5.77-12.85,6.9-25.75,13.68-38.64,20.51"/><path class="cls-1" d="M150.92,315.29c5.86-.68,10.64,3.33,16.39,3.65,5.5.32,10.94,1.79,16.4,2.79,8.4,1.54,16.78,3.16,25.19,4.67,9,1.61,17.95,3.13,26.93,4.69,6.83,1.18,13.66,2.42,20.51,3.45A7.94,7.94,0,0,0,261,334c10-5.44,20.84-9.2,30-16.22,1.41-1.09,3.81-1,5.78-1.23,2.32-.24,4.8.09,5.56-3"/><path class="cls-1" d="M303.18,313.53c2.54-2.34,4.71-5.64,7.71-6.77,3.71-1.41,8.79-2.58,12.08-1.14,11.53,5.08,23.95,4.73,35.85,7.29,8.94,1.93,17.92,3.73,26.94,5.26,9.33,1.58,18.87,2.19,28.07,4.3,9.9,2.27,15.79-3.69,22.29-8.94"/><path class="cls-1" d="M214.75,250.34c-2.15,1.36-4.13,3.22-6.47,4-17.71,6-35.49,11.79-53.26,17.63-3.59,1.18-7.72,1-10.54,4.1"/><path class="cls-1" d="M460.13,126.86c-3.52.78-7,2.1-10.55,2.24-10.37.41-13.41,3-16.1,14.8-1,4.44-2,10,1.47,14.56"/><path class="cls-1" d="M470.67,146.17c-8.94,5.06-18.18,9-28.69,9.52-1.81.09-3.52,2.19-5.28,3.36"/><path class="cls-1" d="M311.38,320c-.39,0-1.07-.12-1.13,0-3.21,7.69-9.39,13.26-14,19.92-2.13,3.06-3.58,6.59-5.34,9.9"/><path class="cls-1" d="M309.62,320,303.18,317"/></g></g></svg>