<?xml version="1.0" encoding="UTF-8"?>
<svg width="511px" height="600px" viewBox="0 0 511 600" version="1.1" xmlns="http://www.w3.org/2000/svg" xmlns:xlink="http://www.w3.org/1999/xlink">
    <title>dots</title>
    <g id="Page-1" stroke="none" stroke-width="1" fill="none" fill-rule="evenodd">
        <g id="dots" transform="translate(0.003321, 0.009864)">
            <path d="M57.9966792,467.990136 C54.2166792,467.430136 51.5666792,464.720136 48.4466792,462.920136 C44.8566792,460.850136 41.4466792,458.490136 38.0866792,456.360136 C33.1866792,458.930136 29.8866792,458.830136 27.8966792,456.210136 C25.9066792,453.590136 26.4866792,449.900136 30.0466792,445.660136 C22.6466792,420.426802 15.1633459,394.990136 7.5966792,369.350136 C3.8066792,368.940136 0.746679203,367.490136 0.0766792029,363.350136 C-0.353320797,360.730136 1.0766792,358.880136 3.0766792,357.440136 C6.4566792,355.010136 9.3266792,356.580136 11.9266792,359.040136 C19.0666792,355.620136 25.9766792,352.350136 32.8466792,349.040136 C46.4666792,342.430136 60.0566792,335.750136 73.7066792,329.200136 C77.2373797,327.680286 79.6991361,324.404286 80.1766792,320.590136 C83.9266792,299.900136 88.0166792,279.260136 91.8666792,258.590136 C94.8666792,242.320136 97.7466792,226.030136 100.676679,209.760136 C95.4366792,205.450136 94.6766792,201.760136 98.0466792,198.050136 C101.286679,194.510136 105.496679,195.470136 110.046679,200.810136 C113.596679,201.540136 116.946679,200.080136 120.416679,199.810136 C127.336679,199.300136 134.206679,198.010136 141.116679,197.170136 C148.026679,196.330136 154.956679,195.690136 161.876679,194.890136 C167.796679,194.210136 173.756679,193.640136 179.616679,192.580136 C183.546679,191.870136 187.526679,191.580136 191.456679,191.150136 C204.946679,189.540136 218.456679,187.820136 231.896679,186.090136 C241.436679,184.860136 251.016679,184.020136 260.566679,182.860136 C266.806679,182.100136 272.996679,180.860136 279.246679,180.240136 C286.013346,179.573469 292.770013,178.806802 299.516679,177.940136 C306.746679,177.000136 313.976679,176.050136 321.206679,175.170136 C327.786679,174.370136 334.386679,173.720136 340.976679,172.910136 C348.046679,172.050136 355.096679,171.070136 362.166679,170.170136 C363.886679,169.960136 364.906679,168.580136 366.166679,167.890136 C372.066679,164.680136 371.946679,158.590136 373.476679,153.510136 C376.836679,142.410136 379.536679,131.100136 382.536679,119.890136 C392.096679,84.1501358 401.683346,48.4201358 411.296679,12.7001358 C411.856679,10.6301358 411.976679,9.06013577 410.746679,7.12013577 C409.076679,4.49013577 409.826679,2.01013577 412.096679,0.640135766 C413.106475,0.00696951981 414.338136,-0.16618015 415.483365,0.164027671 C416.628595,0.494235492 417.578998,1.29654676 418.096679,2.37013577 C419.386679,4.70013577 421.096679,5.49013577 423.556679,6.06013577 C446.016679,11.2668024 468.446679,16.5768024 490.846679,21.9901358 C497.276679,23.5501358 503.846679,24.7001358 510.066679,26.9901358 L510.066679,27.9901358 C509.734541,28.0300556 509.398817,28.0300556 509.066679,27.9901358 C480.696679,21.2801358 452.296679,14.6301358 423.996679,7.73013577 C420.336679,6.84013577 417.546679,6.88013577 415.256679,10.2101358 C415.685552,12.2958795 415.946389,14.4126709 416.036679,16.5401358 C415.766679,25.5401358 417.566679,34.4301358 417.216679,43.4301358 C417.174066,44.0984375 417.207615,44.7694179 417.316679,45.4301358 C418.956679,53.7901358 418.206679,62.3201358 418.886679,70.7601358 C419.596679,79.4901358 420.646679,88.2901358 420.216679,97.1101358 C420.176372,97.4422506 420.176372,97.778021 420.216679,98.1101358 C421.746679,106.480136 421.456679,115.000136 421.866679,123.420136 C422.316679,132.710136 423.626679,141.970136 423.196679,151.290136 C423.156566,151.622262 423.156566,151.958009 423.196679,152.290136 C424.856679,160.290136 424.196679,168.500136 424.836679,176.590136 C425.536679,185.850136 426.066679,195.150136 426.366679,204.460136 C426.536679,210.070136 427.016679,215.720136 427.156679,221.360136 C427.031887,222.199728 427.318403,223.048115 427.926679,223.640136 C430.166679,224.640136 431.146679,223.260136 432.246679,221.580136 C439.056679,211.140136 445.886679,200.710136 452.886679,190.390136 C455.086679,187.160136 456.776679,183.500136 459.996679,181.020136 C460.166679,183.020136 458.766679,184.360136 457.776679,185.850136 C452.486679,193.850136 447.126679,201.850136 441.886679,209.850136 C440.816679,211.480136 439.236679,212.850136 439.046679,215.000136 L438.046679,216.000136 C437.176679,216.400136 437.136679,217.210136 437.046679,218.000136 L436.046679,219.000136 L435.776679,219.360136 L435.996679,218.990136 L436.996679,217.990136 C437.706365,217.589479 438.101966,216.798279 437.996679,215.990136 C438.524923,215.936008 438.942551,215.51838 438.996679,214.990136 C441.186679,213.740136 442.506679,211.660136 444.106679,209.820136 C446.226679,207.390136 447.976679,204.570136 450.986679,203.040136 C451.112047,203.877663 450.803144,204.721493 450.166679,205.280136 C447.776679,208.030136 445.386679,210.800136 442.986679,213.550136 C439.916679,217.040136 436.796679,220.490136 433.786679,224.030136 C432.986679,224.960136 431.786679,226.030136 433.256679,227.520136 C434.256679,227.990136 435.116679,227.340136 436.026679,227.060136 C443.026679,224.870136 449.946679,222.700136 456.886679,220.470136 C472.033346,215.596802 487.183346,210.710136 502.336679,205.810136 C504.836679,205.010136 507.286679,203.880136 510.016679,204.010136 L510.016679,205.010136 C507.176679,205.940136 504.346679,206.870136 501.506679,207.780136 C485.053346,213.033469 468.606679,218.286802 452.166679,223.540136 C446.166679,225.460136 440.226679,227.490136 434.066679,229.540136 C434.426679,232.460136 432.716679,234.410136 431.486679,236.540136 C440.336679,251.280136 449.146679,265.930136 458.066679,280.800136 C462.366679,278.480136 466.356679,279.450136 470.336679,280.890136 C470.886679,280.290136 471.386679,279.840136 471.776679,279.320136 C481.523346,266.220136 491.243346,253.110136 500.936679,239.990136 C501.806679,238.810136 502.416679,237.380136 504.046679,236.990136 C504.366679,238.940136 502.776679,239.990136 501.856679,241.280136 C492.806679,253.600136 483.656679,265.840136 474.546679,278.100136 C473.546679,279.410136 472.266679,280.560136 472.296679,282.470136 C472.896679,283.420136 473.546679,284.380136 474.156679,285.370136 C476.996679,290.020136 476.766679,294.650136 473.486679,298.860136 C470.206679,303.070136 466.006679,304.780136 460.716679,303.400136 C459.689905,302.951271 458.518976,302.96951 457.506679,303.450136 C456.606679,304.860136 455.506679,306.530136 454.506679,308.220136 C449.126679,317.013469 443.756679,325.803469 438.396679,334.590136 C437.806679,335.590136 437.526679,336.810136 436.096679,336.950136 C436.606679,333.160136 439.306679,330.490136 441.096679,327.400136 C446.096679,318.820136 451.366679,310.400136 456.746679,301.510136 C453.276679,299.760136 452.266679,296.410136 451.176679,293.100136 C448.796679,293.100136 446.566679,292.750136 444.496679,293.170136 C436.136679,294.830136 427.646679,293.810136 419.216679,294.700136 C410.786679,295.590136 401.996679,295.190136 393.406679,296.010136 C391.506679,296.190136 389.406679,295.560136 388.406679,298.160136 C387.516679,300.530136 389.356679,301.410136 390.476679,302.740136 C392.256679,304.870136 394.906679,306.220136 396.026679,308.940136 C394.646679,309.180136 393.906679,308.180136 393.076679,307.400136 C390.906679,305.400136 388.756679,303.290136 386.326679,300.970136 C384.716679,302.350136 382.586679,301.970136 380.216679,302.970136 C376.216679,313.800136 372.216679,324.970136 368.066679,336.220136 C371.84089,338.394521 374.636494,341.934664 375.876679,346.110136 C392.586679,345.580136 409.046679,344.180136 425.406679,342.780136 C425.876679,341.250136 426.196679,340.190136 426.496679,339.240136 C423.876679,335.780136 420.056679,333.710136 418.076679,329.970136 C419.666679,329.680136 420.386679,330.970136 421.306679,331.810136 C423.466679,333.810136 425.556679,335.810136 427.736679,337.890136 C430.496679,336.410136 433.266679,336.690136 436.026679,336.960136 C436.406679,337.510136 436.756679,338.080136 437.166679,338.600136 C439.046679,341.010136 439.816679,343.600136 438.306679,346.470136 C436.796679,349.340136 434.306679,350.370136 431.226679,350.010136 C429.056679,349.760136 427.976679,350.770136 426.836679,352.450136 C420.666679,361.520136 414.346679,370.450136 408.096679,379.510136 C405.826679,382.780136 403.586679,386.060136 401.366679,389.290136 C402.216679,390.920136 402.696679,392.540136 404.166679,393.810136 C420.626679,393.970136 437.236679,393.580136 453.816679,394.950136 C455.736679,390.010136 459.116679,388.150136 464.006679,388.760136 C467.426679,382.950136 470.786679,377.250136 474.156679,371.510136 C473.492142,370.491441 472.891003,369.432769 472.356679,368.340136 C471.228672,365.463714 472.061617,362.188271 474.426679,360.200136 C476.779648,358.429948 480.000635,358.361502 482.426679,360.030136 C484.755851,361.779105 485.801818,364.759124 485.076679,367.580136 C484.356679,370.200136 481.956679,371.930136 478.686679,372.160136 C477.686679,372.230136 476.686679,371.890136 475.476679,372.570136 L465.356679,389.760136 C469.036679,395.850136 468.966679,396.510136 464.076679,402.460136 C473.926679,434.030136 483.846679,465.820136 493.676679,497.300136 C496.676679,498.210136 499.206679,497.430136 501.576679,498.670136 C505.84233,500.707877 508.435579,505.139366 508.122727,509.856387 C507.809874,514.573408 504.654085,518.623597 500.156679,520.080136 C498.156679,520.730136 496.016679,521.080136 493.816679,521.520136 C492.206679,527.020136 490.636679,532.420136 489.046679,537.810136 C486.566679,546.250136 484.116679,554.680136 481.586679,563.100136 C481.006679,565.010136 481.046679,566.560136 482.586679,568.100136 C485.17159,570.205968 485.70677,573.943529 483.816679,576.690136 C483.637072,577.210152 483.526135,577.751393 483.486679,578.300136 L497.786679,594.220136 C501.946679,591.960136 505.906679,591.160136 510.046679,592.970136 L510.046679,598.970136 L495.046679,598.970136 C494.456679,597.330136 496.726679,596.550136 496.346679,594.970136 L482.186679,579.130136 C481.748266,579.134098 481.310614,579.167507 480.876679,579.230136 C476.086679,580.460136 472.726679,578.870136 471.396679,574.720136 C470.276679,571.210136 472.066679,568.080136 476.596679,566.590136 C479.096679,565.760136 479.826679,564.070136 480.436679,561.920136 C483.646679,550.610136 486.726679,539.250136 490.186679,528.010136 C493.026679,518.780136 492.816679,521.730136 486.326679,515.190136 C486.226679,515.090136 486.026679,515.090136 485.186679,514.850136 L409.436679,547.580136 C409.436679,551.580136 409.066679,555.150136 407.106679,558.290136 C407.652478,559.2155 408.253568,560.107117 408.906679,560.960136 C416.086679,569.250136 423.426679,577.400136 430.436679,585.820136 C434.036679,590.130136 438.366679,593.870136 441.046679,598.920136 L439.046679,598.920136 C438.494696,597.528355 437.676016,596.257873 436.636679,595.180136 C426.316679,583.280136 415.996679,571.380136 405.546679,559.350136 L400.336679,561.580136 L400.336679,579.810136 C404.426679,581.580136 406.276679,584.580136 405.406679,588.900136 C407.316679,590.090136 409.036679,591.080136 410.676679,592.200136 C414.086679,594.520136 418.086679,595.910136 421.046679,598.920136 L418.046679,598.920136 C414.046679,595.430136 409.046679,593.390136 404.716679,590.480136 C399.716679,593.380136 396.246679,593.290136 394.206679,590.130136 C393.249897,588.753806 392.830144,587.074795 393.026679,585.410136 C393.466679,581.920136 396.556679,580.890136 398.706679,579.240136 L398.706679,561.750136 C397.056679,560.970136 395.256679,560.580136 394.176679,559.490136 C392.746679,558.040136 391.406679,559.210136 390.066679,558.980136 C389.856679,558.170136 391.066679,557.660136 390.506679,556.710136 C383.766679,560.150136 377.046679,563.620136 370.296679,567.010136 C368.636679,567.840136 367.146679,568.620136 366.686679,570.680136 C366.346679,572.230136 365.096679,573.680136 363.576679,573.390136 C361.256679,572.950136 360.326679,574.450136 358.996679,575.610136 C355.926679,578.310136 353.786679,581.990136 350.056679,583.980136 C349.936679,581.980136 351.596679,581.150136 352.676679,579.980136 C355.096679,577.330136 357.616679,574.760136 360.086679,572.160136 L359.606679,571.330136 L305.456679,580.330136 C304.666679,582.930136 303.676679,585.330136 301.386679,586.620136 C301.706679,591.080136 304.386679,594.680136 304.046679,598.960136 L303.046679,598.960136 L299.536679,587.520136 C297.846679,586.870136 295.986679,586.750136 294.446679,585.660136 C292.906679,584.570136 292.806679,582.380136 291.096679,581.290136 L224.686679,581.290136 C225.286679,582.890136 226.586679,583.030136 227.576679,583.510136 C237.106679,588.180136 246.676679,592.790136 256.226679,597.430136 C256.946679,597.790136 257.786679,598.060136 258.066679,598.960136 L255.066679,598.960136 C254.748696,598.601566 254.385687,598.285613 253.986679,598.020136 C244.926679,593.620136 235.860013,589.233469 226.786679,584.860136 C226.486679,584.720136 226.186679,584.430136 225.896679,584.440136 C222.016679,584.440136 218.516679,586.170136 214.816679,587.010136 C212.816679,591.150136 209.126679,594.310136 208.066679,599.010136 L206.066679,599.010136 C206.066679,596.830136 207.806679,595.510136 208.766679,593.820136 C210.466679,590.820136 212.346679,587.910136 214.086679,585.060136 C212.576679,582.430136 211.246679,580.110136 212.596679,577.320136 L178.536679,556.560136 C176.036679,557.860136 176.156679,559.480136 176.786679,561.710136 C180.326679,574.120136 183.656679,586.580136 187.066679,599.010136 L185.066679,599.010136 C185.306679,596.430136 184.136679,594.150136 183.486679,591.770136 C180.486679,581.080136 177.556679,570.390136 174.486679,559.500136 C172.236679,558.800136 169.716679,558.290136 168.156679,556.160136 C166.596679,554.030136 166.766679,551.490136 167.616679,549.290136 C164.356679,545.290136 159.816679,543.100136 156.726679,539.360136 C156.916679,539.120136 157.116679,538.900136 157.316679,538.670136 C161.566679,541.250136 165.006679,544.900136 168.806679,547.730136 C171.916679,546.900136 172.936679,545.250136 172.976679,542.220136 C173.026679,537.860136 172.036679,533.640136 172.086679,529.300136 C172.186679,520.480136 172.086679,511.650136 172.086679,502.820136 C172.086679,501.370136 172.426679,499.820136 171.416679,498.270136 C168.416679,498.270136 165.226679,498.070136 162.126679,498.320136 C156.676679,498.750136 151.266679,499.750136 145.816679,499.960136 C140.366679,500.170136 135.276679,501.210136 129.926679,501.300136 C127.176679,501.300136 124.366679,502.070136 121.536679,502.100136 C120.156679,502.100136 118.856679,502.230136 118.346679,503.860136 C117.836679,505.490136 118.816679,506.370136 119.836679,507.270136 C120.856679,508.170136 121.836679,508.990136 122.836679,509.860136 C128.626679,514.860136 134.836679,519.270136 140.286679,524.700136 C140.106679,524.920136 139.916679,525.130136 139.726679,525.340136 C134.616679,522.210136 130.476679,517.850136 125.726679,514.250136 C122.836679,512.040136 120.096679,509.620136 117.416679,507.400136 C115.996679,506.820136 115.076679,507.880136 113.966679,508.070136 C109.696679,508.820136 106.266679,506.890136 106.166679,502.640136 C106.076679,499.020136 104.016679,497.820136 101.606679,496.310136 C87.8600125,487.690136 74.1233459,479.023469 60.3966792,470.310136 C59.3966792,469.720136 58.2166792,469.390136 58.0266792,468.000136 C59.5266792,467.660136 60.5666792,468.660136 61.6466792,469.340136 C71.9166792,475.790136 82.1466792,482.340136 92.4166792,488.760136 C97.3166792,491.850136 102.256679,494.860136 107.076679,497.840136 C108.156679,497.230136 109.166679,496.970136 109.616679,495.930136 C106.283346,484.150136 102.950013,472.363469 99.6166792,460.570136 C98.2966792,455.910136 97.4766792,455.060136 92.6866792,455.170136 C79.3766792,455.470136 66.1266792,453.810136 52.8266792,453.960136 C50.1679545,454.053941 47.5072419,453.84256 44.8966792,453.330136 C43.1266792,452.940136 41.0366792,452.550136 39.1066792,453.780136 C39.4466792,455.460136 40.6166792,456.130136 41.7066792,456.780136 C44.3666792,458.480136 47.1466792,460.010136 49.7066792,461.850136 C52.5566792,463.900136 56.0466792,464.930136 57.9966792,467.990136 Z M83.0466792,328.990136 C83.0088986,328.865402 82.9586447,328.744793 82.8966792,328.630136 C82.8466792,328.570136 82.7266792,328.570136 82.6366792,328.540136 L83.0966792,328.930136 C83.2566792,329.930136 84.3666792,330.730136 84.0366792,331.930136 C83.2966792,331.930136 82.8466792,331.440136 82.3466792,331.030136 C79.7266792,328.910136 77.1266792,328.780136 74.1366792,330.540136 C70.9966792,332.390136 67.6166792,333.800136 64.3266792,335.390136 L14.9966792,359.250136 C14.1166792,359.680136 13.1166792,360.080136 13.4866792,361.450136 C16.9666792,362.770136 20.3366792,360.960136 23.7766792,361.040136 C41.3966792,361.420136 58.9666792,359.670136 76.5866792,359.890136 C84.8866792,360.000136 93.1366792,358.600136 101.456679,358.940136 C102.796679,359.000136 104.166679,358.940136 104.736679,357.340136 C104.806679,356.400136 104.166679,355.820136 103.616679,355.220136 C100.176679,351.390136 96.7066792,347.580136 93.2866792,343.740136 C92.2866792,342.660136 90.9466792,341.740136 91.1066792,340.020136 C92.4566792,340.080136 93.0266792,341.230136 93.7866792,342.020136 C97.0466792,345.570136 100.426679,349.020136 103.406679,352.810136 C105.856679,355.990136 108.736679,355.990136 111.996679,354.990136 C112.306679,356.210136 111.526679,357.720136 113.126679,358.720136 C118.466679,358.990136 123.896679,358.370136 129.356679,358.120136 C142.456679,357.500136 155.596679,358.040136 168.706679,357.070136 C176.316679,356.510136 184.006679,356.860136 191.656679,356.860136 C194.149418,356.936205 196.638907,356.625862 199.036679,355.940136 C199.069883,356.066808 199.127643,356.185725 199.206679,356.290136 C199.256679,356.350136 199.386679,356.340136 199.486679,356.360136 L199.006679,355.970136 C198.636679,355.680136 198.306679,355.230136 197.876679,355.120136 C184.110013,351.506802 170.330013,347.910136 156.536679,344.330136 C148.866679,342.330136 141.196679,340.390136 133.636679,338.450136 C131.896679,340.900136 129.846679,342.510136 127.166679,342.060136 C124.166679,341.560136 122.846679,343.240136 121.036679,345.160136 C118.036679,348.370136 116.176679,352.730136 112.036679,354.920136 C111.806679,353.150136 113.336679,352.360136 114.156679,351.180136 C116.756679,347.380136 120.426679,344.390136 122.586679,340.310136 L120.376679,335.440136 C114.716679,334.440136 109.376679,333.320136 103.996679,332.440136 C96.9966792,331.390136 90.1766792,329.410136 83.0466792,328.990136 Z M111.996679,361.990136 C108.826679,363.620136 107.346679,366.190136 106.536679,369.720136 C103.996679,381.170136 100.996679,392.550136 98.0966792,403.990136 C96.3066792,411.170136 94.4966792,418.360136 92.5166792,426.270136 C108.176679,414.930136 123.096679,403.870136 138.326679,393.270136 C142.136679,390.600136 143.546679,387.700136 142.906679,383.400136 C142.906679,383.240136 142.836679,383.080136 142.666679,382.400136 C135.576679,377.870136 128.136679,373.190136 120.776679,368.400136 C117.776679,366.400136 114.276679,365.150136 112.096679,362.060136 C113.586679,361.720136 114.626679,362.720136 115.716679,363.410136 C120.626679,366.500136 125.486679,369.680136 130.386679,372.790136 C134.846679,375.620136 139.326679,378.400136 143.586679,381.070136 C146.006679,380.260136 147.736679,378.800136 150.066679,378.960136 C152.396679,379.120136 154.066679,381.090136 156.066679,381.860136 L203.226679,358.590136 C194.956679,358.310136 186.856679,358.410136 178.726679,358.780136 C162.816679,359.520136 146.856679,358.960136 130.936679,360.000136 C125.636679,360.350136 120.296679,360.130136 114.936679,360.140136 C113.576679,360.100136 112.306679,360.200136 111.996679,361.990136 Z M166.046679,462.990136 C167.366679,458.860136 167.046679,458.320136 162.926679,458.170136 C154.926679,457.860136 146.976679,457.610136 139.016679,457.360136 C127.386679,456.990136 115.776679,455.700136 104.116679,456.070136 C102.866679,456.070136 101.456679,455.530136 100.216679,457.010136 C103.863346,469.763469 107.556679,482.656802 111.296679,495.690136 C113.956679,495.760136 115.986679,496.890136 118.016679,498.030136 C118.296679,498.930136 117.846679,500.030136 119.016679,500.740136 L171.776679,495.890136 L171.776679,464.890136 C170.166679,463.160136 168.426679,462.130136 166.086679,462.990136 L166.046679,462.990136 Z M199.046679,528.990136 C198.676679,530.790136 197.106679,531.630136 195.926679,532.730136 C190.926679,537.410136 185.926679,541.950136 180.926679,546.660136 C178.126679,549.340136 178.666679,554.830136 181.816679,556.750136 C189.896679,561.690136 197.996679,566.590136 206.116679,571.450136 C208.526679,572.890136 210.756679,574.680136 213.486679,575.560136 C214.066679,575.180136 214.586679,574.560136 215.186679,574.490136 C218.376679,573.940136 219.556679,572.110136 220.326679,568.920136 C224.326679,552.170136 228.776679,535.520136 232.966679,518.810136 C233.716679,515.810136 235.226679,512.930136 234.786679,509.610136 L227.346679,505.150136 C225.466679,505.300136 224.806679,507.350136 223.056679,506.950136 C223.206679,505.270136 225.056679,504.790136 225.636679,503.170136 C223.946679,500.170136 222.006679,497.040136 221.416679,492.990136 L174.506679,497.260136 C174.311397,497.866344 174.170835,498.488834 174.086679,499.120136 C174.086679,513.750136 174.146679,528.390136 174.086679,543.030136 C174.086679,545.760136 175.316679,546.920136 177.806679,547.400136 C183.536679,542.110136 189.256679,536.790136 195.026679,531.540136 C196.196679,530.500136 196.996679,528.760136 199.046679,528.990136 Z M295.046679,572.990136 C295.306679,573.350136 294.666679,574.400136 295.756679,573.990136 C295.946679,573.920136 295.576679,573.120136 295.026679,572.990136 C295.047608,571.49556 294.831597,570.007106 294.386679,568.580136 C289.053346,548.733469 283.760013,528.870136 278.506679,508.990136 C274.146679,492.656802 269.783346,476.323469 265.416679,459.990136 C262.543346,449.250136 259.670013,438.516802 256.796679,427.790136 C254.396679,418.836802 251.983346,409.893469 249.556679,400.960136 L249.036679,400.960136 C247.196679,424.060136 245.356679,447.150136 243.496679,470.440136 C252.086679,472.220136 257.986679,476.970136 260.396679,485.540136 C262.866679,494.360136 258.806679,500.980136 252.696679,507.050136 C255.696679,511.720136 258.476679,516.190136 261.296679,520.660136 C269.646679,533.870136 277.896679,547.140136 286.406679,560.240136 C289.216679,564.580136 291.426679,569.280136 295.076679,572.990136 L295.046679,572.990136 Z M251.996679,402.990136 C251.716679,402.670136 252.306679,401.750136 251.356679,401.990136 C251.226679,401.990136 251.606679,402.750136 252.056679,402.990136 C252.165482,403.974504 252.325701,404.952506 252.536679,405.920136 C258.183346,427.253469 263.850013,448.570136 269.536679,469.870136 C277.150013,498.390136 284.773346,526.906802 292.406679,555.420136 C294.006679,561.420136 295.716679,567.330136 297.406679,573.280136 L298.266679,573.210136 C300.266679,550.463469 302.266679,527.750136 304.266679,505.070136 C303.723788,504.70505 303.135461,504.412568 302.516679,504.200136 C299.206679,503.710136 297.586679,501.480136 297.086679,498.490136 C296.547567,495.775193 297.846613,493.0269 300.286679,491.720136 C300.937321,491.216684 301.53386,490.646955 302.066679,490.020136 L308.896679,492.020136 C312.076679,488.910136 314.276679,485.170136 318.036679,483.020136 C318.296679,484.390136 317.306679,485.150136 316.526679,486.020136 C315.056679,487.610136 313.466679,489.090136 312.086679,490.750136 C310.966679,492.090136 309.456679,493.450136 310.646679,495.750136 C317.646679,498.010136 325.116679,496.990136 332.326679,497.750136 C341.556679,498.670136 350.856679,499.310136 360.126679,499.750136 C371.246679,500.310136 382.336679,500.980136 393.426679,501.870136 C403.016679,502.640136 412.636679,503.140136 422.236679,503.770136 C432.836679,504.470136 443.446679,505.000136 454.036679,505.870136 C464.106679,506.690136 474.216679,506.990136 484.596679,507.530136 L487.946679,500.660136 C480.946679,492.660136 474.116679,484.730136 467.266679,476.800136 C466.326679,475.710136 464.896679,474.860136 465.076679,473.080136 C466.236679,473.080136 466.796679,474.020136 467.426679,474.740136 C473.596679,481.740136 479.756679,488.740136 485.856679,495.740136 C487.046679,497.120136 488.006679,498.690136 489.596679,499.590136 C491.666679,499.030136 492.166679,497.980136 491.496679,495.870136 C487.436679,483.050136 483.496679,470.180136 479.566679,457.330136 C476.266679,446.703469 472.953346,436.080136 469.626679,425.460136 C467.246679,417.880136 464.806679,410.310136 462.336679,402.540136 C457.916679,402.540136 455.116679,400.320136 453.766679,396.080136 C447.766679,396.080136 441.926679,396.080136 436.106679,396.080136 C431.776679,396.080136 427.386679,396.330136 423.106679,395.740136 C417.276679,394.930136 411.466679,395.480136 405.666679,395.170136 C404.306907,395.036057 403.028313,395.837747 402.556679,397.120136 C401.836679,398.580136 402.336679,399.610136 403.316679,400.700136 C405.646679,403.300136 407.896679,405.970136 410.186679,408.600136 C417.406679,416.866802 424.626679,425.136802 431.846679,433.410136 C432.496679,434.160136 433.226679,434.890136 433.006679,436.030136 C432.17802,435.920747 431.443063,435.443025 431.006679,434.730136 C425.006679,427.840136 419.006679,420.890136 413.006679,414.070136 C408.826679,409.380136 405.006679,404.330136 400.376679,399.960136 C398.256679,400.580136 396.376679,401.390136 394.376679,400.280136 C393.176679,399.610136 392.266679,400.980136 391.116679,401.030136 C391.466679,398.950136 392.016679,396.830136 389.696679,395.150136 L387.896679,395.150136 L257.576679,395.150136 C256.576679,395.150136 255.576679,395.150136 254.576679,395.230136 C251.846679,395.490136 251.046679,396.720136 252.196679,399.110136 C253.126679,401.060136 254.456679,402.820136 255.306679,404.790136 C256.786679,408.240136 259.886679,410.940136 260.086679,414.990136 C258.726679,414.770136 258.486679,413.540136 257.856679,412.610136 C255.746679,409.500136 254.476679,405.910136 251.996679,402.990136 Z M323.996679,519.990136 C321.996679,519.470136 321.246679,517.700136 320.136679,516.310136 C316.406679,511.670136 312.736679,506.990136 309.086679,502.370136 C305.256679,503.690136 305.506679,507.040136 305.336679,509.540136 C304.776679,517.800136 303.796679,526.030136 303.226679,534.280136 C302.806679,540.400136 302.226679,546.510136 301.756679,552.620136 C301.436679,557.230136 301.556679,561.930136 300.606679,566.480136 C300.118831,569.117498 299.997686,571.809615 300.246679,574.480136 C302.656679,575.200136 303.486679,577.710136 305.246679,578.750136 L359.346679,569.650136 C360.516679,567.420136 359.576679,566.270136 358.586679,565.060136 C355.976679,561.840136 353.326679,558.640136 350.866679,555.300136 C349.136679,552.960136 346.656679,551.080136 346.066679,547.980136 C348.116679,548.610136 349.116679,550.430136 350.316679,551.980136 C354.126679,556.760136 357.816679,561.650136 361.726679,566.710136 C363.726679,565.710136 365.726679,567.770136 367.936679,566.580136 C375.166679,562.580136 382.836679,559.460136 389.826679,554.850136 C389.636679,552.070136 389.256679,549.450136 390.036679,546.850136 C388.806679,545.990136 387.776679,545.160136 386.636679,544.510136 C379.046679,540.110136 371.406679,535.790136 363.836679,531.360136 C361.766679,530.140136 359.266679,529.420136 358.046679,527.030136 C363.046679,528.030136 366.876679,531.480136 371.216679,533.830136 C377.906679,537.460136 384.266679,541.700136 390.976679,545.000136 C398.156679,539.400136 401.636679,539.600136 408.626679,545.760136 C413.516679,544.440136 484.626679,513.840136 485.526679,512.440136 C484.646679,511.680136 485.456679,510.040136 483.886679,509.210136 C476.346679,509.160136 468.726679,508.390136 461.136679,507.740136 C453.866679,507.120136 446.556679,506.890136 439.296679,506.350136 C431.536679,505.770136 423.756679,504.710136 415.926679,505.000136 C415.427389,505.024059 414.927043,504.987121 414.436679,504.890136 C407.436679,503.430136 400.216679,503.890136 393.116679,503.320136 C385.016679,502.720136 376.876679,502.120136 368.746679,501.770136 C363.796679,501.560136 358.746679,501.570136 353.846679,500.900136 C345.946679,499.830136 337.966679,499.960136 330.046679,499.140136 C326.586679,498.790136 323.106679,498.970136 319.626679,498.360136 C316.806679,497.870136 313.836679,498.260136 310.266679,498.260136 C311.386679,499.010136 311.906679,499.400136 312.466679,499.720136 C326.686679,508.000136 340.910013,516.280136 355.136679,524.560136 C356.236679,525.200136 357.726679,525.430136 358.036679,527.020136 C357.052779,527.235549 356.023582,527.040543 355.186679,526.480136 L330.646679,512.150136 C323.980013,508.263469 317.313346,504.386802 310.646679,500.520136 C313.226679,504.910136 316.366679,508.700136 319.256679,512.680136 C320.996679,514.990136 323.516679,516.840136 324.046679,519.990136 L323.996679,519.990136 Z M220.996679,368.990136 C218.816679,369.090136 217.926679,367.210136 216.616679,366.050136 C214.406679,364.050136 212.336679,361.990136 210.536679,360.250136 C207.876679,360.540136 207.266679,361.980136 206.706679,363.640136 C204.896679,368.980136 202.966679,374.280136 201.096679,379.640136 C196.156679,393.713469 191.223346,407.790136 186.296679,421.870136 C183.016679,431.260136 179.796679,440.670136 176.546679,450.070136 C176.226679,451.000136 175.726679,451.960136 176.936679,452.720136 C178.216679,452.880136 179.106679,452.020136 179.936679,451.310136 C187.046679,445.310136 194.076679,439.240136 201.246679,433.310136 C203.996679,431.040136 206.326679,428.100136 209.976679,427.060136 C208.976679,429.520136 206.786679,430.820136 204.926679,432.390136 C196.166679,439.760136 187.316679,447.020136 178.236679,454.530136 C179.716679,456.230136 178.556679,458.460136 179.946679,460.530136 L223.336679,481.110136 C225.42437,477.944815 228.119828,475.225563 231.266679,473.110136 C234.486679,471.050136 238.216679,471.260136 241.756679,470.370136 C243.646679,446.240136 246.046679,422.370136 247.316679,398.470136 C245.716679,397.750136 244.986679,398.850136 244.106679,399.530136 C242.836679,400.530136 241.986679,402.200136 240.016679,402.040136 C240.156679,400.510136 241.446679,399.810136 242.426679,399.040136 C244.403278,397.59398 245.480316,395.219945 245.266679,392.780136 C238.266679,386.240136 231.176679,379.560136 224.086679,372.780136 C222.926679,371.670136 221.346679,370.840136 221.016679,369.030136 C223.016679,368.810136 223.876679,370.530136 225.016679,371.600136 C231.606679,377.720136 238.116679,383.910136 244.676679,390.040136 C245.366679,390.680136 245.886679,391.710136 247.426679,391.420136 C248.186679,390.030136 247.886679,388.360136 247.876679,386.770136 C247.876679,375.630136 247.596679,364.500136 247.216679,353.360136 C246.636679,336.720136 246.996679,320.050136 246.896679,303.360136 C246.896679,301.640136 247.456679,299.730136 246.296679,298.360136 C244.646679,297.820136 244.176679,298.800136 243.676679,299.640136 C242.226679,302.070136 240.836679,304.530136 239.376679,306.950136 C230.456679,321.756802 221.510013,336.546802 212.536679,351.320136 C210.64378,354.442016 211.104586,358.449384 213.656679,361.060136 C216.116679,363.690136 219.326679,365.630136 220.996679,368.990136 Z M56.0866792,400.990136 C56.7471623,400.866994 57.4282643,401.042763 57.9466792,401.470136 C67.2800125,408.703469 76.6133459,415.933469 85.9466792,423.160136 C87.3366792,424.250136 88.5466792,425.640136 91.0066792,425.660136 C96.2266792,404.890136 101.426679,384.200136 106.676679,363.280136 C104.976679,362.920136 105.136679,361.000136 103.676679,360.590136 C102.486679,360.700136 101.346679,360.870136 100.196679,360.910136 C89.7366792,361.290136 79.2666792,361.430136 68.8066792,361.690136 C51.5266792,362.130136 34.2466792,362.910136 16.9566792,363.060136 C16.1255949,363.029829 15.2934069,363.059908 14.4666792,363.150136 C12.2766792,363.500136 11.6466792,365.050136 13.1766792,366.590136 C14.4466792,367.890136 16.0366792,368.870136 17.3666792,370.110136 C19.8766792,372.470136 23.4366792,373.630136 25.0566792,376.960136 C22.0066792,376.650136 20.4566792,373.960136 18.0566792,372.560136 C15.4066792,371.010136 13.4466792,368.380136 10.6366792,367.380136 C8.8166792,368.550136 9.2366792,369.770136 9.6366792,371.110136 C10.7666792,374.580136 11.8066792,378.110136 12.8366792,381.570136 C17.0366792,395.890136 21.2300125,410.223469 25.4166792,424.570136 C27.4666792,431.570136 29.5966792,438.500136 31.7066792,445.510136 C34.3165169,445.835898 36.7510005,446.997013 38.6466792,448.820136 C55.4066792,442.000136 72.1566792,435.320136 88.7666792,428.180136 C88.3566792,427.390136 88.2866792,427.020136 88.0566792,426.850136 C80.3166792,420.850136 72.4566792,414.990136 64.8466792,408.850136 C61.8566792,406.360136 58.0466792,404.700136 56.0866792,400.990136 Z M111.086679,208.990136 C110.755016,209.037319 110.418343,209.037319 110.086679,208.990136 C105.866679,207.810136 104.746679,208.720136 105.476679,212.700136 C107.403346,223.133469 109.320013,233.563469 111.226679,243.990136 C113.653346,257.190136 116.086679,270.390136 118.526679,283.590136 C121.086679,297.430136 123.653346,311.273469 126.226679,325.120136 C126.474832,327.271626 127.435867,329.278183 128.956679,330.820136 C133.576679,322.580136 137.186679,314.510136 141.116679,306.610136 C145.046679,298.710136 148.956679,290.470136 152.896679,282.410136 C156.836679,274.350136 160.796679,266.340136 164.726679,258.360136 C162.886679,256.180136 161.466679,254.070136 161.946679,251.360136 C162.426679,248.650136 161.026679,247.470136 159.146679,246.070136 C145.526679,235.970136 131.953346,225.810136 118.426679,215.590136 C117.146679,214.590136 115.566679,213.830136 115.106679,212.050136 C115.937818,211.907264 116.787469,212.166983 117.396679,212.750136 C125.590013,218.910136 133.790013,225.090136 141.996679,231.290136 C148.996679,236.570136 156.056679,241.830136 162.926679,246.980136 C170.346679,244.240136 172.396679,244.980136 175.926679,251.800136 C178.040993,251.788779 180.154289,251.895613 182.256679,252.120136 C192.106679,253.650136 202.066679,253.750136 211.966679,254.760136 C223.016679,255.880136 234.136679,256.260136 245.236679,256.980136 C246.063512,257.022741 246.884139,257.146672 247.686679,257.350136 C250.843051,258.078338 254.12786,258.040621 257.266679,257.240136 L109.566679,205.990136 C109.766679,207.500136 111.126679,207.830136 110.996679,208.990136 L111.086679,208.990136 Z M324.096679,369.990136 C326.246679,370.400136 326.896679,372.740136 329.016679,373.730136 C331.426679,372.410136 334.166679,372.820136 336.146679,372.730136 L353.146679,357.100136 C350.606679,352.690136 348.926679,348.240136 350.936679,343.180136 L253.726679,295.430136 C253.126679,296.590136 254.256679,297.140136 254.056679,297.970136 C249.566679,297.300136 248.986679,297.690136 248.996554,301.970136 C249.056679,330.450136 249.136679,358.926802 249.236679,387.400136 C249.236679,392.090136 251.236679,393.760136 255.836679,392.770136 C259.736679,391.940136 263.656679,391.310136 267.566679,390.590136 C279.286679,388.440136 290.986679,386.160136 302.706679,383.960136 C310.496679,382.500136 318.306679,381.090136 326.206679,379.630136 C326.726679,378.070136 327.206679,376.700136 327.596679,375.440136 C326.736679,373.280136 323.996679,372.620136 324.096679,369.990136 Z M402.046679,266.990136 C402.326679,268.330136 401.356679,269.120136 400.706679,270.060136 L386.606679,290.530136 C387.796679,291.810136 388.146679,293.530136 389.676679,294.680136 C398.676679,293.280136 407.766679,293.680136 416.846679,293.140136 C426.596679,292.560136 436.366679,291.400136 446.176679,291.810136 C447.170247,291.810191 448.159241,291.675634 449.116679,291.410136 C450.480737,291.218122 451.57292,290.182155 451.836679,288.830136 C452.426679,285.740136 454.506679,283.580136 456.686679,281.420136 L430.056679,236.990136 C427.876679,238.760136 425.826679,236.900136 423.566679,237.330136 C417.506679,246.036802 411.450013,254.753469 405.396679,263.480136 C404.466679,264.810136 403.886679,266.480136 402.086679,266.950136 C401.966679,264.700136 403.706679,263.370136 404.776679,261.790136 C410.086679,253.940136 415.536679,246.190136 420.976679,238.430136 C421.896679,237.100136 422.456679,235.850136 421.476679,234.310136 C420.496679,232.770136 418.916679,232.930136 417.476679,233.180136 C413.386679,233.870136 409.326679,234.660136 405.246679,235.410136 C393.526679,237.590136 381.816679,239.850136 370.076679,241.930136 C357.676679,244.130136 345.206679,245.930136 332.836679,248.330136 C314.786679,251.820136 296.646679,254.870136 278.566679,258.210136 C276.836679,258.530136 274.676679,258.380136 272.836679,260.700136 L375.496679,292.810136 C377.616679,290.860136 379.366679,288.260136 382.696679,288.910136 C385.296679,289.420136 386.696679,287.970136 387.946679,286.050136 C391.576679,280.680136 395.296679,275.360136 398.946679,270.050136 C399.796679,268.850136 400.396679,267.390136 402.046679,266.990136 Z M380.046679,180.990136 C377.556679,180.140136 376.386679,177.780136 374.576679,176.150136 C372.266679,174.070136 367.576679,173.770136 364.896679,175.530136 C362.646679,176.980136 360.956679,179.050136 358.896679,180.680136 C355.326679,183.500136 352.526679,187.320136 348.086679,188.990136 C348.246679,187.480136 349.546679,186.810136 350.496679,185.990136 C354.846679,182.140136 359.286679,178.380136 363.666679,174.550136 C364.436679,173.870136 365.806679,173.480136 365.416679,172.160136 C365.065227,171.703677 364.465766,171.515845 363.916679,171.690136 L344.696679,174.100136 C337.626679,174.980136 330.556679,175.870136 323.496679,176.730136 C316.916679,177.530136 310.336679,178.316802 303.756679,179.090136 C297.006679,179.890136 290.256679,180.630136 283.516679,181.460136 C276.776679,182.290136 270.056679,183.240136 263.316679,184.100136 C255.930013,185.040136 248.540013,185.956802 241.146679,186.850136 C234.566679,187.640136 227.976679,188.370136 221.396679,189.130136 C214.816679,189.890136 208.216679,190.600136 201.646679,191.410136 C194.576679,192.270136 187.526679,193.240136 180.466679,194.110136 C173.886679,194.910136 167.286679,195.590136 160.716679,196.410136 C151.016679,197.610136 141.326679,198.910136 131.636679,200.120136 C125.386679,200.900136 119.126679,201.540136 112.886679,202.360136 C111.766679,202.500136 110.406679,202.680136 109.646679,203.740136 C110.546679,205.000136 111.646679,204.980136 112.556679,205.300136 C124.776679,209.593469 137.003346,213.866802 149.236679,218.120136 C176.376679,227.540136 203.520013,236.950136 230.666679,246.350136 L256.556679,255.350136 C258.136679,255.910136 259.806679,256.740136 261.196679,255.240136 C264.256679,251.940136 267.766679,252.830136 271.386679,253.960136 C272.746679,252.960136 274.156679,252.080136 275.386679,250.960136 C281.166679,245.960136 286.896679,240.890136 292.656679,235.870136 C293.656679,235.020136 294.436679,233.790136 296.016679,234.060136 C295.966679,235.210136 295.016679,235.760136 294.316679,236.390136 C289.836679,240.390136 285.226679,244.170136 280.826679,248.230136 C277.966679,250.870136 274.466679,252.860136 272.286679,256.000136 C272.906679,257.600136 273.756679,257.440136 274.856679,257.230136 C286.086679,255.150136 297.326679,253.090136 308.576679,251.120136 C324.726679,248.290136 340.896679,245.640136 357.036679,242.740136 C376.436679,239.260136 395.776679,235.480136 415.206679,232.140136 C418.966679,231.490136 420.766679,229.790136 421.506679,226.390136 C420.436679,223.990136 417.246679,223.080136 417.066679,220.060136 C419.186679,220.580136 420.066679,222.630136 421.536679,223.870136 C422.356679,224.530136 423.106679,225.090136 424.206679,224.710136 C425.398352,224.376978 426.162119,223.216393 425.996679,221.990136 C425.996679,220.990136 426.046679,219.990136 425.996679,218.990136 C425.726679,215.850136 425.116679,212.710136 425.156679,209.580136 C425.276679,200.910136 423.556679,192.340136 424.016679,183.670136 C424.036647,183.335602 424.016504,182.999882 423.956679,182.670136 C422.386679,174.130136 422.856679,165.440136 422.326679,156.840136 C421.776679,147.730136 420.656679,138.610136 420.976679,129.450136 C420.996937,129.115602 420.976792,128.779847 420.916679,128.450136 C419.316679,121.090136 419.806679,113.550136 419.366679,106.120136 C418.796679,96.3401358 417.606679,86.5601358 417.976679,76.7301358 C417.99856,76.2279803 417.965024,75.7249428 417.876679,75.2301358 C416.506679,67.2301358 416.756679,59.0001358 416.256679,50.9001358 C415.746679,42.4501358 415.096679,33.9901358 414.796679,25.5101358 C414.699426,20.4149242 414.338945,15.3281417 413.716679,10.2701358 C409.156679,26.9901358 404.866679,42.9901358 400.566679,58.9901358 C391.600013,92.3234691 382.630013,125.656802 373.656679,158.990136 C372.786679,162.230136 370.926679,165.570136 373.946679,168.790136 C374.283897,169.374706 374.370455,170.070779 374.186679,170.720136 C373.636679,173.050136 375.076679,174.390136 376.386679,175.940136 C377.696679,177.490136 380.046679,178.410136 380.046679,180.990136 Z M131.236679,329.990136 C132.976679,333.990136 135.486679,332.300136 137.706679,331.480136 C168.093346,320.273469 198.476679,309.040136 228.856679,297.780136 C232.286679,296.510136 235.746679,295.310136 239.076679,293.830136 C240.175352,293.394342 240.929178,292.369996 241.018528,291.191431 C241.107878,290.012866 240.517096,288.886583 239.496679,288.290136 C238.79028,287.848359 238.051511,287.460589 237.286679,287.130136 C222.246679,279.636802 207.200013,272.150136 192.146679,264.670136 C186.356679,261.790136 180.526679,259.000136 174.606679,256.110136 C172.946679,257.430136 171.306679,259.030136 169.316679,258.880136 C165.996679,258.630136 165.116679,260.800136 163.996679,263.110136 C157.770013,275.983469 151.500013,288.840136 145.186679,301.680136 C140.576679,311.120136 135.926679,320.510136 131.236679,329.990136 Z M225.446679,578.780136 C240.166679,579.780136 286.256679,580.260136 292.096679,579.390136 L294.216679,575.390136 L251.126679,507.580136 C246.596679,510.530136 241.856679,510.070136 237.536679,510.160136 C236.392136,512.381167 235.57372,514.755582 235.106679,517.210136 C231.056679,533.440136 227.106679,549.700136 222.836679,565.870136 C221.596679,570.600136 220.516679,574.860136 225.446679,578.810136 L225.446679,578.780136 Z M254.806679,292.840136 L254.626679,294.080136 L351.686679,341.750136 C355.436679,336.670136 360.326679,334.490136 366.536679,335.690136 C370.676679,324.410136 374.726679,313.380136 378.936679,301.940136 C376.346679,300.840136 376.056679,298.020136 374.396679,296.180136 C365.636679,295.820136 356.986679,295.450136 348.396679,295.330136 C328.616679,295.050136 308.866679,293.610136 289.076679,293.900136 C287.740947,293.949854 286.403377,293.893007 285.076679,293.730136 C274.996679,292.280136 264.896679,293.500136 254.806679,292.870136 L254.806679,292.840136 Z M134.166679,334.720136 C134.166679,337.180136 135.776679,337.360136 136.936679,337.720136 C140.586679,338.810136 144.276679,339.780136 147.936679,340.720136 C165.583346,345.266802 183.233346,349.810136 200.886679,354.350136 C205.506679,355.550136 208.936679,354.260136 211.366679,350.240136 C218.700013,338.160136 226.016679,326.086802 233.316679,314.020136 C236.316679,309.020136 239.316679,304.020136 242.316679,299.020136 C242.976679,297.930136 243.316679,296.920136 242.316679,295.850136 C241.621869,295.091016 240.508691,294.883059 239.586679,295.340136 C238.956679,295.560136 238.336679,295.800136 237.716679,296.030136 C230.863346,298.550136 224.010013,301.073469 217.156679,303.600136 C197.050013,311.060136 176.996679,318.523469 156.996679,325.990136 C149.366679,328.840136 141.606679,331.280136 134.166679,334.720136 Z M125.466679,329.390136 C118.166679,289.900136 110.806679,250.150136 103.466679,210.450136 C102.086679,210.570136 102.216679,211.370136 102.096679,211.950136 C101.226679,216.330136 100.356679,220.710136 99.5166792,225.090136 C97.7266792,234.520136 95.9266792,243.950136 94.1766792,253.390136 C91.8866792,265.750136 89.6666792,278.130136 87.3666792,290.490136 C85.3666792,301.060136 83.3166792,311.610136 81.3666792,322.170136 C80.7666792,325.350136 81.3666792,326.170136 84.5966792,327.060136 C85.3966792,327.270136 86.1766792,327.600136 86.9866792,327.750136 C96.2566792,329.480136 105.606679,330.880136 114.786679,333.020136 C119.336679,334.090136 122.666679,333.380136 125.466679,329.390136 L125.466679,329.390136 Z M425.106679,344.840136 C408.556679,345.960136 392.186679,346.590136 376.056679,348.400136 C373.796679,358.900136 365.596679,364.640136 355.056679,358.780136 L338.236679,374.460136 C338.746679,376.410136 339.166679,377.980136 339.696679,379.990136 L390.406679,391.990136 C393.016679,389.320136 395.626679,386.520136 399.866679,388.740136 L427.706679,348.740136 L425.106679,344.840136 Z M92.8566792,427.930136 L166.856679,454.930136 C169.856679,453.450136 170.196679,451.620136 169.216679,448.700136 C163.816679,432.700136 158.356679,416.630136 153.606679,400.390136 C152.126679,395.300136 149.826679,392.330136 144.886679,391.160136 C144.513742,391.1358 144.139616,391.1358 143.766679,391.160136 L92.8566792,427.930136 Z M156.656679,383.150136 C155.986679,385.520136 156.956679,387.990136 155.356679,389.340136 C151.996679,392.190136 153.356679,395.210136 154.356679,398.340136 C158.126679,409.840136 161.846679,421.340136 165.596679,432.870136 C167.446679,438.550136 169.336679,444.210136 171.186679,449.870136 C171.526679,450.870136 172.066679,451.720136 173.266679,451.590136 C174.186679,451.480136 174.586679,450.750136 174.886679,449.920136 C175.886679,447.260136 176.886679,444.640136 177.806679,441.980136 C187.066679,415.506802 196.316679,389.040136 205.556679,362.580136 C206.073276,361.541827 206.008783,360.308882 205.386679,359.330136 L156.656679,383.150136 Z M374.176679,294.290136 C373.096679,293.900136 372.036679,293.460136 370.936679,293.120136 L303.536679,272.040136 C294.536679,269.220136 285.536679,266.440136 276.476679,263.620136 C275.046679,263.170136 273.336679,262.310136 272.256679,263.570136 C269.886679,266.360136 266.776679,266.320136 263.636679,266.210136 C259.446679,272.850136 255.636679,279.400136 251.996679,286.210136 C253.696679,287.590136 253.936679,289.540136 255.056679,290.900136 C261.196679,291.260136 267.166679,291.370136 273.126679,291.720136 C285.216679,292.420136 297.356679,292.470136 309.476679,292.720136 C326.746679,293.110136 343.996679,294.410136 361.286679,294.080136 C362.291527,293.995209 363.303463,294.066044 364.286679,294.290136 C367.536679,295.230136 370.846679,294.670136 374.176679,294.290136 Z M175.276679,254.580136 L241.836679,287.790136 C243.896679,284.500136 247.206679,284.850136 250.416679,284.790136 C254.856679,278.630136 258.136679,271.910136 262.196679,265.350136 C261.018477,263.84941 260.105339,262.158415 259.496679,260.350136 C257.419895,259.448111 255.169946,259.014509 252.906679,259.080136 C245.406679,259.380136 238.006679,258.080136 230.536679,257.730136 C226.225933,257.682503 221.923119,257.348434 217.656679,256.730136 C211.586679,255.640136 205.436679,255.650136 199.336679,255.200136 C191.436679,254.710136 183.536679,253.580136 175.276679,254.580136 Z M220.696679,491.470136 C221.346679,488.540136 221.946679,485.820136 222.696679,482.590136 L178.636679,461.440136 L174.386679,464.690136 L174.386679,495.610136 L220.696679,491.470136 Z M260.766679,393.320136 L260.766679,393.710136 L388.216679,393.710136 C384.834531,392.366196 381.327339,391.36127 377.746679,390.710136 C366.456679,388.090136 355.206679,385.300136 343.946679,382.560136 C341.496679,381.960136 339.206679,381.390136 337.166679,383.830136 C335.966679,385.270136 333.946679,385.270136 332.056679,385.280136 C329.136679,385.280136 327.816679,383.060136 326.366679,381.280136 L260.766679,393.320136 Z M166.766679,456.810136 C148.916679,449.220136 97.2766792,430.920136 92.9266792,430.750136 C94.7766792,438.700136 97.0966792,446.370136 99.5166792,453.690136 C103.136679,454.120136 106.106679,454.830136 109.066679,454.770136 C120.896679,454.500136 132.656679,455.900136 144.466679,455.970136 C148.946679,455.970136 153.466679,455.860136 157.896679,456.710136 C160.576679,457.220136 163.436679,456.810136 166.756679,456.810136 L166.766679,456.810136 Z M90.2166792,429.580136 C84.0966792,432.060136 78.4266792,434.350136 72.7666792,436.660136 C67.1066792,438.970136 61.3566792,441.240136 55.7066792,443.660136 C50.2366792,445.990136 44.4566792,447.730136 39.0966792,450.990136 C39.8782381,451.698598 40.9299456,452.030908 41.9766792,451.900136 C54.2966792,451.560136 66.5466792,453.440136 78.8766792,453.060136 C80.042983,453.001324 81.2120629,453.088669 82.3566792,453.320136 C87.2966792,454.400136 92.2566792,453.790136 97.8166792,453.880136 C94.7566792,445.820136 93.8166792,437.590136 90.2166792,429.580136 Z" id="Shape" fill="#E0E0E0" fill-rule="nonzero"></path>
            <path d="M510.066679,111.990136 C508.066679,110.770136 506.946679,111.600136 505.726679,113.480136 C499.946679,122.400136 493.976679,131.210136 488.106679,140.070136 C479.846679,152.530136 471.600013,165.000136 463.366679,177.480136 C462.466679,178.830136 461.906679,180.480136 460.086679,180.970136 C460.796679,176.670136 464.086679,173.770136 466.246679,170.360136 C475.896679,155.420136 485.826679,140.670136 495.666679,125.850136 C498.516679,121.560136 501.416679,117.310136 504.246679,113.020136 C505.109342,112.030856 505.515854,110.724209 505.366679,109.420136 C504.716679,105.370136 504.876679,105.340136 508.516679,102.550136 C509.606679,100.860136 508.166679,98.4601358 510.066679,96.9901358 L510.066679,111.990136 Z" id="Path" fill="#E0E0E0" fill-rule="nonzero"></path>
            <path d="M342.066679,598.990136 C343.756679,595.990136 346.876679,594.480136 349.336679,592.330136 C357.686679,585.000136 366.336679,577.960136 374.796679,570.810136 C375.348072,570.188034 376.172623,569.880701 376.996679,569.990136 C376.086679,572.470136 373.806679,573.710136 371.996679,575.280136 C364.216679,581.950136 356.286679,588.450136 348.506679,595.110136 C347.016679,596.380136 345.046679,597.110136 344.046679,598.960136 L342.066679,598.990136 Z" id="Path" fill="#E0E0E0" fill-rule="nonzero"></path>
            <path d="M350.046679,583.990136 C350.236679,585.990136 348.566679,586.790136 347.506679,587.990136 C344.076679,591.710136 340.556679,595.350136 337.066679,598.990136 L335.066679,598.990136 C339.826679,593.770136 344.306679,588.260136 350.046679,583.990136 Z" id="Path" fill="#E0E0E0" fill-rule="nonzero"></path>
            <path d="M506.086679,138.990136 C506.346679,136.470136 508.086679,135.140136 510.086679,133.990136 L510.086679,135.990136 C508.446679,136.590136 507.996679,138.700136 506.086679,138.990136 Z" id="Path" fill="#E0E0E0" fill-rule="nonzero"></path>
            <path d="M507.086679,232.990136 C507.016679,230.700136 508.806679,229.510136 510.086679,227.990136 L510.086679,230.990136 C508.816679,231.270136 508.486679,232.930136 507.086679,232.990136 Z" id="Path" fill="#E0E0E0" fill-rule="nonzero"></path>
            <path d="M156.776679,539.340136 C150.775198,535.095575 145.093274,530.416344 139.776679,525.340136 C139.966679,525.130136 140.156679,524.920136 140.336679,524.700136 C146.35396,528.923972 152.037394,533.604447 157.336679,538.700136 C157.166679,538.880136 156.996679,539.100136 156.776679,539.340136 Z" id="Path" fill="#E0E0E0" fill-rule="nonzero"></path>
            <path d="M504.086679,236.990136 C504.076188,235.145823 505.307207,233.524982 507.086679,233.040136 C507.122268,234.892725 505.88086,236.527245 504.086679,236.990136 Z" id="Path" fill="#E0E0E0" fill-rule="nonzero"></path>
            <path d="M488.096679,159.990136 C487.930957,159.338472 488.103788,158.647146 488.556679,158.150136 C493.823346,152.090136 499.106679,146.036802 504.406679,139.990136 C504.771173,139.432149 505.380984,139.082623 506.046679,139.050136 C505.716679,142.150136 502.976679,143.550136 501.286679,145.660136 C497.696679,150.120136 493.826679,154.360136 490.046679,158.660136 C489.526679,159.250136 489.046679,159.990136 488.096679,159.990136 Z" id="Path" fill="#E0E0E0" fill-rule="nonzero"></path>
            <path d="M457.086679,195.990136 C458.026679,192.080136 461.606679,190.080136 463.746679,186.990136 C465.096679,185.060136 466.566679,182.890136 469.046679,181.990136 C469.046679,182.310136 469.176679,182.760136 469.046679,182.990136 C465.186679,187.440136 462.096679,192.590136 457.086679,195.990136 Z" id="Path" fill="#E0E0E0" fill-rule="nonzero"></path>
            <path d="M475.086679,174.990136 C476.266679,171.350136 479.016679,169.080136 482.086679,167.040136 C480.876679,170.690136 478.076679,172.910136 475.086679,174.990136 Z" id="Path" fill="#E0E0E0" fill-rule="nonzero"></path>
            <path d="M482.086679,166.990136 C482.856679,163.640136 485.356679,161.770136 488.086679,160.050136 C487.236679,163.360136 484.746679,165.240136 482.086679,166.990136 Z" id="Path" fill="#E0E0E0" fill-rule="nonzero"></path>
            <path d="M469.086679,181.990136 C469.826679,178.610136 472.416679,176.810136 475.086679,175.040136 C474.306679,178.400136 471.706679,180.200136 469.086679,181.990136 Z" id="Path" fill="#E0E0E0" fill-rule="nonzero"></path>
            <path d="M451.096679,202.990136 C451.866679,199.640136 454.366679,197.770136 457.046679,196.050136 C456.256679,199.360136 453.746679,201.220136 451.096679,202.990136 Z" id="Path" fill="#E0E0E0" fill-rule="nonzero"></path>
            <path d="M377.096679,569.990136 C377.356679,568.330136 378.746679,567.490136 379.886679,566.670136 C383.316679,564.190136 385.826679,560.470136 390.036679,559.030136 C386.590794,563.599102 382.170414,567.343102 377.096679,569.990136 Z" id="Path" fill="#E0E0E0" fill-rule="nonzero"></path>
            <path d="M351.086679,445.990136 C350.826679,444.190136 352.306679,443.380136 353.246679,442.300136 C357.476679,437.420136 361.686679,432.530136 366.006679,427.730136 C373.536679,419.350136 381.126679,411.040136 388.706679,402.730136 C389.356679,402.020136 389.866679,401.070136 391.036679,401.070136 C391.276679,402.210136 390.546679,402.920136 389.886679,403.660136 C383.116679,411.150136 376.316679,418.660136 369.586679,426.150136 C365.586679,430.590136 361.856679,435.210136 357.836679,439.610136 C355.756679,441.850136 353.996679,444.550136 351.086679,445.990136 Z" id="Path" fill="#E0E0E0" fill-rule="nonzero"></path>
            <path d="M318.086679,482.990136 C317.856679,481.850136 318.576679,481.130136 319.236679,480.390136 C325.743346,473.143469 332.263346,465.896802 338.796679,458.650136 C341.666679,455.460136 344.486679,452.220136 347.386679,449.040136 C348.136679,448.220136 348.726679,447.100136 350.066679,447.040136 C350.124306,448.046436 349.69224,449.018586 348.906679,449.650136 C343.306679,455.936802 337.703346,462.226802 332.096679,468.520136 C328.566679,472.450136 325.036679,476.390136 321.446679,480.260136 C320.466679,481.270136 319.686679,482.640136 318.086679,482.990136 Z" id="Path" fill="#E0E0E0" fill-rule="nonzero"></path>
            <path d="M446.076679,450.990136 C448.236679,451.690136 449.346679,453.640136 450.726679,455.170136 C455.316679,460.290136 459.726679,465.540136 464.256679,470.740136 C464.88203,471.307704 465.163057,472.162177 464.996679,472.990136 C463.506679,472.840136 462.846679,471.560136 461.996679,470.630136 C456.886679,464.880136 451.846679,459.060136 446.786679,453.260136 C446.19154,452.666011 445.926144,451.817489 446.076679,450.990136 L446.076679,450.990136 Z" id="Path" fill="#E0E0E0" fill-rule="nonzero"></path>
            <path d="M439.086679,442.990136 C442.086679,445.070136 444.916679,447.260136 446.086679,450.990136 C443.066679,448.910136 440.236679,446.700136 439.086679,442.990136 Z" id="Path" fill="#E0E0E0" fill-rule="nonzero"></path>
            <path d="M433.086679,435.990136 C435.736679,437.740136 438.296679,439.560136 439.086679,442.930136 C436.406679,441.220136 433.856679,439.380136 433.086679,435.990136 Z" id="Path" fill="#E0E0E0" fill-rule="nonzero"></path>
            <path d="M350.066679,446.990136 C350.066679,446.340136 350.356679,445.990136 351.066679,445.990136 C351.056679,446.690136 350.726679,446.990136 350.066679,446.990136 Z" id="Path" fill="#E0E0E0" fill-rule="nonzero"></path>
            <path d="M347.996679,188.990136 C347.246679,191.360136 345.096679,192.520136 343.426679,193.990136 C335.906679,200.680136 328.246679,207.210136 320.646679,213.810136 C319.996179,214.574245 319.029176,214.995002 318.026679,214.950136 C318.086679,213.600136 319.226679,213.020136 320.026679,212.290136 C326.866679,206.290136 333.746679,200.410136 340.606679,194.460136 C341.976679,193.270136 343.266679,191.980136 344.606679,190.790136 C345.666679,189.990136 346.466679,188.780136 347.996679,188.990136 Z" id="Path" fill="#E0E0E0" fill-rule="nonzero"></path>
            <path d="M318.066679,214.990136 C317.866679,216.460136 316.596679,217.110136 315.656679,217.990136 C309.906679,223.090136 304.096679,228.140136 298.306679,233.200136 C297.746098,233.813562 296.920024,234.112593 296.096679,234.000136 C296.096679,232.660136 297.276679,232.080136 298.096679,231.360136 C303.983346,226.146802 309.896679,220.960136 315.836679,215.800136 C316.400497,215.17823 317.235167,214.875054 318.066679,214.990136 Z" id="Path" fill="#E0E0E0" fill-rule="nonzero"></path>
            <path d="M302.046679,489.990136 C299.126679,488.080136 298.196679,484.770136 296.626679,481.990136 C285.773346,462.836802 275.016679,443.640136 264.356679,424.400136 C262.706679,421.400136 260.446679,418.630136 260.076679,415.030136 C261.676679,415.310136 261.916679,416.780136 262.536679,417.880136 C273.003346,436.480136 283.453346,455.090136 293.886679,473.710136 C296.316679,478.040136 298.686679,482.400136 301.036679,486.770136 C301.576679,487.740136 302.376679,488.700136 302.046679,489.990136 Z" id="Path" fill="#E0E0E0" fill-rule="nonzero"></path>
            <path d="M416.046679,218.990136 C415.106679,219.130136 414.566679,218.570136 413.976679,217.990136 C404.310013,207.790136 394.643346,197.600136 384.976679,187.420136 C383.786679,186.150136 381.976679,185.220136 382.076679,183.050136 C383.216679,183.110136 383.776679,184.050136 384.456679,184.710136 C394.456679,195.163469 404.476679,205.620136 414.516679,216.080136 C415.296679,216.850136 416.266679,217.600136 416.046679,218.990136 Z" id="Path" fill="#E0E0E0" fill-rule="nonzero"></path>
            <path d="M382.066679,182.990136 C380.676679,183.060136 380.006679,182.420136 380.066679,180.990136 C381.171249,180.990136 382.066679,181.885566 382.066679,182.990136 Z" id="Path" fill="#E0E0E0" fill-rule="nonzero"></path>
            <path d="M417.046679,219.990136 C416.356679,220.040136 416.046679,219.710136 416.046679,219.040136 C416.756679,218.990136 417.076679,219.300136 417.046679,219.990136 Z" id="Path" fill="#E0E0E0" fill-rule="nonzero"></path>
            <path d="M289.086679,333.990136 C290.216679,333.990136 290.776679,334.930136 291.456679,335.610136 C300.036679,344.276802 308.603346,352.960136 317.156679,361.660136 C318.056679,362.570136 319.266679,363.350136 319.036679,364.930136 C317.896679,364.930136 317.346679,364.000136 316.676679,363.320136 C308.223346,354.780136 299.766679,346.220136 291.306679,337.640136 C290.316679,336.630136 288.846679,335.830136 289.086679,333.990136 Z" id="Path" fill="#E0E0E0" fill-rule="nonzero"></path>
            <path d="M254.086679,297.990136 C255.386679,298.100136 255.996679,299.190136 256.786679,299.990136 C264.693346,307.990136 272.580013,315.990136 280.446679,323.990136 C281.556679,325.120136 283.186679,325.990136 283.036679,327.990136 C282.576679,327.870136 281.956679,327.910136 281.666679,327.620136 C273.073346,318.866802 264.516679,310.096802 255.996679,301.310136 C255.066679,300.390136 253.826679,299.610136 254.086679,297.990136 Z" id="Path" fill="#E0E0E0" fill-rule="nonzero"></path>
            <path d="M284.086679,328.990136 C286.636679,329.080136 287.226679,331.130136 288.086679,332.990136 C285.506679,332.870136 284.876679,330.870136 284.086679,328.990136 Z" id="Path" fill="#E0E0E0" fill-rule="nonzero"></path>
            <path d="M320.086679,365.990136 C321.928813,366.66208 323.366823,368.13319 323.996679,369.990136 C321.636679,369.730136 320.416679,368.330136 320.086679,365.990136 Z" id="Path" fill="#E0E0E0" fill-rule="nonzero"></path>
            <path d="M283.096679,327.990136 C283.776679,327.990136 284.096679,328.270136 284.036679,328.990136 C283.376679,328.990136 282.996679,328.710136 283.096679,327.990136 Z" id="Path" fill="#E0E0E0" fill-rule="nonzero"></path>
            <path d="M288.086679,332.990136 C288.776679,332.990136 289.086679,333.250136 289.086679,333.990136 C288.336679,333.990136 288.046679,333.690136 288.086679,332.990136 Z" id="Path" fill="#E0E0E0" fill-rule="nonzero"></path>
            <path d="M319.096679,364.990136 C319.806679,364.910136 320.096679,365.250136 320.036679,365.930136 C319.346679,365.990136 318.996679,365.730136 319.096679,364.990136 Z" id="Path" fill="#E0E0E0" fill-rule="nonzero"></path>
            <path d="M111.096679,208.990136 C112.976251,208.903663 114.653413,210.161535 115.096679,211.990136 C113.245197,211.989026 111.616159,210.767248 111.096679,208.990136 L111.096679,208.990136 Z" id="Path" fill="#E0E0E0" fill-rule="nonzero"></path>
            <path d="M55.9966792,400.990136 C54.8766792,401.260136 54.1366792,400.570136 53.3466792,399.990136 C47.8566792,395.770136 42.3466792,391.590136 36.8766792,387.320136 C35.7666792,386.440136 34.3766792,385.670136 34.0466792,384.060136 C34.7028398,383.922614 35.3857241,384.096104 35.8966792,384.530136 C42.0300125,389.263469 48.1566792,394.000136 54.2766792,398.740136 C55.0666792,399.290136 55.9966792,399.830136 55.9966792,400.990136 Z" id="Path" fill="#E0E0E0" fill-rule="nonzero"></path>
            <path d="M33.9966792,383.990136 C30.3110868,382.729595 27.1580006,380.263494 25.0466792,376.990136 C28.7075295,378.295975 31.8473536,380.751704 33.9966792,383.990136 L33.9966792,383.990136 Z" id="Path" fill="#E0E0E0" fill-rule="nonzero"></path>
            <path d="M210.096679,426.990136 C213.096679,422.270136 217.986679,419.610136 222.096679,416.100136 C223.876679,414.570136 225.166679,412.030136 228.096679,412.040106 C227.676679,414.040136 225.896679,414.870136 224.586679,416.040136 C220.586679,419.530136 216.476679,422.840136 212.396679,426.220136 C211.803074,426.83908 210.943289,427.126921 210.096679,426.990136 Z" id="Path" fill="#E0E0E0" fill-rule="nonzero"></path>
            <path d="M228.086679,411.990136 C229.476679,409.620136 231.086679,407.540136 234.036679,406.990136 C232.666679,409.400136 231.046679,411.490136 228.086679,411.990136 Z" id="Path" fill="#E0E0E0" fill-rule="nonzero"></path>
            <path d="M234.096679,406.990136 C235.456679,404.600136 237.096679,402.520136 240.036679,401.990136 C238.666679,404.390136 236.996679,406.460136 234.096679,406.990136 Z" id="Path" fill="#E0E0E0" fill-rule="nonzero"></path>
            <path d="M324.086679,519.990136 C325.436679,520.070136 326.016679,521.200136 326.696679,522.060136 C333.023346,530.060136 339.326679,538.060136 345.606679,546.060136 C346.031506,546.575597 346.193952,547.258608 346.046679,547.910136 C342.846679,546.470136 341.556679,543.220136 339.496679,540.760136 C334.426679,534.760136 329.696679,528.400136 324.816679,522.200136 C324.238801,521.619592 323.968296,520.800666 324.086679,519.990136 L324.086679,519.990136 Z" id="Path" fill="#E0E0E0" fill-rule="nonzero"></path>
            <path d="M199.096679,528.990136 C202.506679,524.720136 205.906679,520.440136 211.036679,517.990136 C207.636679,522.310136 204.166679,526.510136 199.096679,528.990136 Z" id="Path" fill="#E0E0E0" fill-rule="nonzero"></path>
            <path d="M212.086679,516.990136 C215.086679,512.990136 218.326679,509.200136 223.036679,506.990136 C219.996679,511.300136 215.266679,515.610136 212.086679,516.990136 Z" id="Path" fill="#E0E0E0" fill-rule="nonzero"></path>
            <path d="M211.096679,517.990136 C211.036679,517.290136 211.376679,516.990136 212.096679,516.990136 C212.086679,517.690136 211.786679,517.990136 211.096679,517.990136 Z" id="Path" fill="#E0E0E0" fill-rule="nonzero"></path>
            <path d="M415.996679,327.990136 C414.856679,328.220136 414.136679,327.490136 413.436679,326.810136 C408.483346,322.003469 403.550013,317.173469 398.636679,312.320136 C398.367556,311.925797 398.164871,311.490024 398.036679,311.030136 C399.039185,310.932401 400.01919,311.369225 400.616679,312.180136 C405.570013,317.006802 410.506679,321.846802 415.426679,326.700136 C415.691583,327.092982 415.884582,327.52977 415.996679,327.990136 L415.996679,327.990136 Z" id="Path" fill="#E0E0E0" fill-rule="nonzero"></path>
            <path d="M397.046679,309.990136 C396.376679,309.990136 396.046679,309.710136 396.046679,308.990136 C396.756679,308.990136 397.076679,309.310136 397.046679,309.990136 Z" id="Path" fill="#E0E0E0" fill-rule="nonzero"></path>
            <path d="M398.056679,310.990136 C397.396679,310.990136 397.056679,310.700136 397.056679,309.990136 C397.756679,309.990136 398.076679,310.310136 398.056679,310.990136 Z" id="Path" fill="#E0E0E0" fill-rule="nonzero"></path>
            <path d="M416.996679,328.990136 C416.326679,328.990136 415.996679,328.700136 415.996679,327.990136 C416.746679,327.990136 417.086679,328.290136 416.996679,328.990136 Z" id="Path" fill="#E0E0E0" fill-rule="nonzero"></path>
            <path d="M417.996679,329.990136 C417.346679,329.990136 416.996679,329.710136 417.056679,328.990136 C417.766679,328.990136 418.086679,329.290136 417.996679,329.990136 Z" id="Path" fill="#E0E0E0" fill-rule="nonzero"></path>
            <path d="M165.996679,462.990136 C165.996679,463.990136 165.266679,464.450136 164.636679,464.910136 C157.203346,470.383469 149.763346,475.833469 142.316679,481.260136 C141.693852,481.811953 140.860966,482.064011 140.036679,481.950136 C140.686679,479.600136 142.986679,478.950136 144.636679,477.750136 C150.416679,473.380136 156.276679,469.120136 162.156679,464.890136 C163.336679,464.090136 164.286679,462.690136 165.996679,462.990136 Z" id="Path" fill="#E0E0E0" fill-rule="nonzero"></path>
            <path d="M140.056679,481.990136 C139.426679,484.130136 137.356679,484.730136 135.826679,485.880136 C130.826679,489.610136 125.766679,493.250136 120.726679,496.880136 C119.946679,497.450136 119.196679,498.170136 118.086679,497.880136 C118.666679,495.710136 120.746679,495.120136 122.276679,493.980136 C127.276679,490.250136 132.346679,486.580136 137.396679,482.890136 C138.186679,482.410136 138.936679,481.710136 140.056679,481.990136 Z" id="Path" fill="#E0E0E0" fill-rule="nonzero"></path>
            <path d="M84.0966792,331.990136 C87.0966792,334.050136 89.9466792,336.210136 91.0966792,339.930136 C88.0766792,337.890136 85.2466792,335.690136 84.0966792,331.990136 Z" id="Path" fill="#E0E0E0" fill-rule="nonzero"></path>
            <path d="M108.566679,201.990136 C117.566679,200.990136 126.566679,200.070136 135.566679,198.990136 C152.906679,196.880136 170.226679,194.640136 187.566679,192.520136 C200.226679,190.960136 212.926679,189.710136 225.566679,187.950136 C240.216679,185.950136 254.906679,184.350136 269.566679,182.480136 C276.566679,181.600136 283.566679,180.740136 290.566679,179.950136 C305.256679,178.290136 319.906679,176.340136 334.566679,174.500136 L366.566679,170.500136" id="Path" stroke="#E0E0E0" stroke-width="2" stroke-linecap="round" stroke-linejoin="round"></path>
            <path d="M427.066679,227.490136 C426.376679,225.710136 426.596679,223.840136 426.566679,221.990136 C426.426679,213.640136 425.466679,205.330136 425.166679,196.990136 C424.916679,190.150136 424.376679,183.330136 424.036679,176.500136 C423.656679,168.820136 422.776679,161.170136 422.656679,153.500136 C422.546679,146.980136 421.866679,140.500136 421.656679,134.000136 C421.196679,122.320136 420.346679,110.670136 419.656679,99.0001358 C419.206679,91.8401358 419.036679,84.6701358 418.656679,77.5101358 C418.056679,67.1701358 417.306679,56.8401358 416.656679,46.5101358 C416.256679,39.8501358 416.106679,33.1701358 415.606679,26.5101358 C415.146679,20.3401358 415.426679,14.1101358 414.146679,8.00013577" id="Path" stroke="#E0E0E0" stroke-width="2" stroke-linecap="round" stroke-linejoin="round"></path>
            <path d="M309.566679,496.990136 C316.226679,497.490136 322.896679,498.260136 329.566679,498.420136 C335.426679,498.560136 341.236679,499.140136 347.066679,499.510136 C353.736679,499.940136 360.396679,500.780136 367.066679,500.910136 C373.256679,501.030136 379.406679,501.600136 385.566679,502.000136 C395.066679,502.640136 404.566679,503.360136 414.066679,504.000136 C420.226679,504.400136 426.406679,504.620136 432.566679,505.000136 C441.736679,505.610136 450.896679,506.350136 460.066679,507.000136 C465.896679,507.400136 471.726679,507.680136 477.566679,508.000136 L486.566679,508.500136" id="Path" stroke="#E0E0E0" stroke-width="2" stroke-linecap="round" stroke-linejoin="round"></path>
            <path d="M297.066679,574.990136 C294.566679,565.660136 292.006679,556.340136 289.576679,546.990136 C284.636679,527.990136 279.406679,509.040136 274.406679,490.040136 C269.496679,471.350136 264.546679,452.660136 259.406679,434.040136 C256.546679,423.680136 254.406679,413.040136 250.606679,402.990136 C250.399086,401.964984 250.569589,400.899338 251.086679,399.990136" id="Path" stroke="#E0E0E0" stroke-width="2" stroke-linecap="round" stroke-linejoin="round"></path>
            <path d="M370.066679,169.990136 C370.696679,165.200136 372.366679,160.650136 373.586679,155.990136 C376.176679,146.140136 378.916679,136.320136 381.586679,126.480136 C387.266679,105.320136 392.886679,84.1401358 398.586679,62.9901358 C403.186679,45.9901358 407.906679,28.9901358 412.586679,11.9901358 C412.806679,11.1801358 412.166679,10.1801358 413.096679,9.49013577" id="Path" stroke="#E0E0E0" stroke-width="2" stroke-linecap="round" stroke-linejoin="round"></path>
            <path d="M269.566679,258.990136 C292.406679,254.880136 315.236679,250.690136 338.086679,246.630136 C355.406679,243.540136 372.696679,240.310136 390.086679,237.450136 C400.626679,235.710136 411.086679,233.450136 421.596679,231.450136" id="Path" stroke="#E0E0E0" stroke-width="2" stroke-linecap="round" stroke-linejoin="round"></path>
            <path d="M108.566679,204.990136 C121.066679,209.160136 133.616679,213.170136 146.036679,217.570136 C151.036679,219.350136 156.036679,221.400136 161.036679,222.970136 C172.476679,226.490136 183.716679,230.640136 194.966679,234.650136 C216.116679,242.210136 237.496679,249.110136 258.526679,256.990136" id="Path" stroke="#E0E0E0" stroke-width="2" stroke-linecap="round" stroke-linejoin="round"></path>
            <path d="M249.066679,392.490136 C248.82736,391.167522 248.667076,389.831821 248.586679,388.490136 C248.386679,369.496802 248.216679,350.496802 248.076679,331.490136 C248.006679,320.000136 248.076679,308.490136 248.076679,296.990136" id="Path" stroke="#E0E0E0" stroke-width="2" stroke-linecap="round" stroke-linejoin="round"></path>
            <path d="M253.566679,291.990136 C263.066679,292.160136 272.566679,292.160136 282.066679,292.540136 C293.226679,292.980136 304.396679,293.240136 315.566679,293.540136 C327.066679,293.880136 338.566679,294.250136 350.066679,294.540136 C358.896679,294.760136 367.716679,295.540136 376.566679,295.450136" id="Path" stroke="#E0E0E0" stroke-width="2" stroke-linecap="round" stroke-linejoin="round"></path>
            <path d="M259.566679,393.990136 C260.246679,394.920136 261.226679,394.470136 262.066679,394.470136 C303.726679,394.470136 345.393346,394.470136 387.066679,394.470136 C387.896679,394.470136 388.886679,394.920136 389.566679,393.990136" id="Path" stroke="#E0E0E0" stroke-width="2" stroke-linecap="round" stroke-linejoin="round"></path>
            <path d="M127.066679,333.490136 C124.226679,317.830136 121.436679,302.150136 118.556679,286.490136 C115.266679,268.650136 111.896679,250.820136 108.556679,232.990136 L104.056679,208.990136" id="Path" stroke="#E0E0E0" stroke-width="2" stroke-linecap="round" stroke-linejoin="round"></path>
            <path d="M122.066679,334.990136 L79.5766792,327.110136 C80.0866792,323.260136 80.9666792,319.600136 81.6966792,316.020136 C85.2866792,298.400136 88.2966792,280.670136 91.5866792,263.020136 C93.9966792,250.150136 96.6766792,237.350136 98.9966792,224.480136 C99.9366792,219.300136 100.416679,214.040136 102.056679,208.990136" id="Path" stroke="#E0E0E0" stroke-width="2" stroke-linecap="round" stroke-linejoin="round"></path>
            <path d="M133.066679,333.990136 C149.066679,328.200136 165.066679,322.270136 181.066679,316.380136 C199.916679,309.430136 218.686679,302.280136 237.586679,295.460136 C239.926679,294.610136 242.046679,293.190136 244.586679,292.990136" id="Path" stroke="#E0E0E0" stroke-width="2" stroke-linecap="round" stroke-linejoin="round"></path>
            <path d="M434.566679,220.490136 C435.366679,217.160136 437.806679,214.760136 439.566679,212.020136 C449.493346,196.806802 459.493346,181.633469 469.566679,166.500136 C478.566679,152.980136 487.566679,139.500136 496.566679,125.990136 C500.096679,120.680136 503.566679,115.330136 507.076679,109.990136" id="Path" stroke="#E0E0E0" stroke-width="2" stroke-linecap="round" stroke-linejoin="round"></path>
            <path d="M376.066679,293.990136 C359.436679,288.710136 342.756679,283.590136 326.066679,278.360136 C312.896679,274.220136 299.666679,270.230136 286.536679,265.960136 C280.906679,264.130136 275.286679,262.340136 269.536679,260.960136" id="Path" stroke="#E0E0E0" stroke-width="2" stroke-linecap="round" stroke-linejoin="round"></path>
            <path d="M494.066679,501.490136 C491.896679,494.490136 489.746679,487.490136 487.556679,480.490136 C481.410013,460.823469 475.250013,441.156802 469.076679,421.490136 C466.686679,413.840136 464.396679,406.160136 462.076679,398.490136" id="Path" stroke="#E0E0E0" stroke-width="2" stroke-linecap="round" stroke-linejoin="round"></path>
            <path d="M12.0666792,362.490136 C24.8966792,362.160136 37.7466792,362.040136 50.5566792,361.390136 C55.3966792,361.140136 60.2266792,361.090136 65.0666792,361.010136 C77.0666792,360.790136 89.0666792,359.870136 101.066679,359.900136 C103.366679,359.900136 105.716679,359.510136 108.066679,359.490136" id="Path" stroke="#E0E0E0" stroke-width="2" stroke-linecap="round" stroke-linejoin="round"></path>
            <path d="M489.066679,500.490136 C483.020013,493.490136 476.996679,486.526802 470.996679,479.600136 C465.576679,473.370136 459.996679,467.230136 454.696679,460.920136 C447.376679,452.240136 439.566679,443.990136 432.506679,435.080136 C429.896679,431.780136 426.946679,428.660136 424.106679,425.500136 C418.106679,418.810136 412.186679,412.050136 406.576679,405.020136 C404.858767,403.078725 403.036049,401.232639 401.116679,399.490136" id="Path" stroke="#E0E0E0" stroke-width="2" stroke-linecap="round" stroke-linejoin="round"></path>
            <path d="M352.066679,342.990136 C345.846679,339.110136 339.066679,336.200136 332.496679,333.150136 C320.236679,327.480136 308.326679,321.150136 296.096679,315.430136 C283.096679,309.380136 270.396679,302.840136 257.566679,296.490136 C256.036679,295.720136 254.566679,294.830136 253.066679,293.990136" id="Path" stroke="#E0E0E0" stroke-width="2" stroke-linecap="round" stroke-linejoin="round"></path>
            <path d="M259.066679,258.490136 C251.356679,259.100136 243.736679,257.700136 236.066679,257.410136 C228.396679,257.120136 220.726679,256.170136 213.066679,255.490136 C203.236679,254.620136 193.356679,254.320136 183.556679,253.060136 C180.266679,252.640136 176.876679,253.150136 173.556679,252.490136" id="Path" stroke="#E0E0E0" stroke-width="2" stroke-linecap="round" stroke-linejoin="round"></path>
            <path d="M174.066679,455.490136 C176.656679,446.130136 180.436679,437.170136 183.576679,428.000136 C188.036679,415.000136 192.456679,402.000136 197.106679,389.000136 C200.216679,380.320136 202.666679,371.380136 206.536679,363.000136 C206.886679,362.250136 206.136679,361.200136 207.066679,360.510136" id="Path" stroke="#E0E0E0" stroke-width="2" stroke-linecap="round" stroke-linejoin="round"></path>
            <line x1="271.566679" y1="254.990136" x2="366.566679" y2="172.990136" id="Path" stroke="#E0E0E0" stroke-width="2" stroke-linecap="round" stroke-linejoin="round"></line>
            <path d="M303.066679,494.490136 C302.798033,491.999702 301.959723,489.60453 300.616679,487.490136 C294.836679,477.390136 289.236679,467.180136 283.566679,457.020136 C279.566679,449.853469 275.566679,442.683469 271.566679,435.510136 C265.186679,424.040136 258.466679,412.760136 252.566679,401.030136 C252.046679,400.030136 250.566679,399.700136 250.146679,398.490136 C248.846751,398.897378 247.984381,400.129335 248.046679,401.490136 C247.546679,411.490136 246.516679,421.490136 245.736679,431.490136 C245.146679,438.970136 244.436679,446.490136 244.056679,453.970136 C243.746679,460.150136 243.056679,466.310136 242.596679,472.470136" id="Path" stroke="#E0E0E0" stroke-width="2" stroke-linecap="round" stroke-linejoin="round"></path>
            <path d="M509.566679,27.4901358 C500.726679,25.3301358 491.906679,23.1101358 483.066679,21.0101358 C465.406679,16.7968024 447.740013,12.6234691 430.066679,8.49013577 C425.896679,7.49013577 421.726679,6.49013577 417.566679,5.49013577" id="Path" stroke="#E0E0E0" stroke-width="2" stroke-linecap="round" stroke-linejoin="round"></path>
            <path d="M309.566679,492.990136 C311.916679,488.490136 316.066679,485.470136 319.236679,481.640136 C322.666679,477.490136 326.346679,473.450136 330.026679,469.460136 C337.316679,461.570136 344.526679,453.610136 351.496679,445.460136 C354.336679,442.130136 357.386679,438.990136 360.186679,435.610136 C366.806679,427.610136 374.376679,420.440136 380.946679,412.420136 C384.696679,407.830136 389.476679,404.150136 392.566679,399.010136" id="Path" stroke="#E0E0E0" stroke-width="2" stroke-linecap="round" stroke-linejoin="round"></path>
            <path d="M91.5666792,426.490136 C94.0666792,416.830136 96.5666792,407.170136 99.0566792,397.490136 C101.596679,387.490136 104.196679,377.490136 106.456679,367.490136 C106.906679,365.490136 108.016679,363.890136 108.566679,362.010136" id="Path" stroke="#E0E0E0" stroke-width="2" stroke-linecap="round" stroke-linejoin="round"></path>
            <path d="M111.066679,359.490136 C140.896679,358.730136 170.746679,358.280136 200.566679,356.990136" id="Path" stroke="#E0E0E0" stroke-width="2" stroke-linecap="round" stroke-linejoin="round"></path>
            <path d="M452.066679,291.490136 C447.336679,292.970136 442.406679,292.680136 437.566679,292.960136 C429.236679,293.430136 420.896679,293.600136 412.566679,293.960136 C404.236679,294.320136 395.896679,294.960136 387.566679,295.440136" id="Path" stroke="#E0E0E0" stroke-width="2" stroke-linecap="round" stroke-linejoin="round"></path>
            <path d="M430.566679,225.990136 C433.046679,221.870136 437.136679,219.260136 440.206679,215.610136 C450.096679,203.860136 460.206679,192.300136 470.106679,180.530136 C477.396679,171.850136 485.106679,163.530136 492.536679,154.970136 C498.326679,148.250136 503.896679,141.330136 509.536679,134.490136" id="Path" stroke="#E0E0E0" stroke-width="2" stroke-linecap="round" stroke-linejoin="round"></path>
            <path d="M405.566679,547.990136 C410.736679,547.060136 415.256679,544.330136 420.016679,542.370136 C433.326679,536.900136 446.376679,530.780136 459.576679,525.010136 C468.196679,521.250136 476.886679,517.640136 485.576679,514.010136 C486.884409,513.581666 488.221167,513.247476 489.576679,513.010136" id="Path" stroke="#E0E0E0" stroke-width="2" stroke-linecap="round" stroke-linejoin="round"></path>
            <path d="M390.566679,545.990136 C374.226679,536.490136 357.893346,526.993469 341.566679,517.500136 C332.566679,512.300136 323.456679,507.350136 314.646679,501.880136 C312.167157,500.407655 309.427267,499.426456 306.576679,498.990136" id="Path" stroke="#E0E0E0" stroke-width="2" stroke-linecap="round" stroke-linejoin="round"></path>
            <path d="M31.5666792,446.990136 C28.7866792,439.990136 27.2966792,432.640136 25.0866792,425.490136 C22.6466792,417.490136 20.4266792,409.490136 18.0866792,401.490136 C14.7533459,390.310136 11.4200125,379.140136 8.0866792,367.980136" id="Path" stroke="#E0E0E0" stroke-width="2" stroke-linecap="round" stroke-linejoin="round"></path>
            <path d="M298.566679,574.990136 C300.196679,567.420136 300.256679,559.660136 301.006679,551.990136 C302.076679,541.160136 302.756679,530.300136 304.006679,519.490136 C304.636679,514.020136 304.716679,508.490136 305.056679,502.990136" id="Path" stroke="#E0E0E0" stroke-width="2" stroke-linecap="round" stroke-linejoin="round"></path>
            <line x1="223.566679" y1="579.990136" x2="293.566679" y2="580.490136" id="Path" stroke="#E0E0E0" stroke-width="2" stroke-linecap="round" stroke-linejoin="round"></line>
            <path d="M89.5666792,426.990136 C80.7266792,420.160136 71.8466792,413.400136 63.0766792,406.480136 C47.7966792,394.420136 32.1466792,382.810136 16.9966792,370.630136 C14.9966792,369.090136 13.4266792,366.990136 11.0666792,365.990136" id="Path" stroke="#E0E0E0" stroke-width="2" stroke-linecap="round" stroke-linejoin="round"></path>
            <path d="M433.066679,228.990136 L483.066679,212.990136 C491.893346,210.170136 500.726679,207.336802 509.566679,204.490136" id="Path" stroke="#E0E0E0" stroke-width="2" stroke-linecap="round" stroke-linejoin="round"></path>
            <path d="M168.066679,455.990136 C160.726679,453.490136 153.286679,451.280136 146.066679,448.390136 C141.906679,446.710136 137.720013,445.090136 133.506679,443.530136 C121.506679,439.090136 109.506679,434.820136 97.5066792,430.530136 C95.5066792,429.820136 93.5066792,429.190136 91.5066792,428.530136" id="Path" stroke="#E0E0E0" stroke-width="2" stroke-linecap="round" stroke-linejoin="round"></path>
            <path d="M204.566679,356.490136 C203.726679,356.490136 202.716679,356.810136 202.096679,356.490136 C195.096679,352.400136 187.096679,351.870136 179.536679,349.610136 C170.136679,346.790136 160.536679,344.520136 151.066679,342.040136 C146.406679,340.830136 141.756679,339.590136 137.066679,338.600136 C135.697163,338.174137 134.360327,337.649429 133.066679,337.030136" id="Path" stroke="#E0E0E0" stroke-width="2" stroke-linecap="round" stroke-linejoin="round"></path>
            <path d="M259.566679,392.990136 C268.896679,391.160136 278.186679,389.070136 287.566679,387.570136 C296.256679,386.180136 304.796679,384.020136 313.566679,382.930136 C318.446679,382.310136 323.236679,380.990136 328.076679,379.990136" id="Path" stroke="#E0E0E0" stroke-width="2" stroke-linecap="round" stroke-linejoin="round"></path>
            <path d="M130.066679,330.990136 C133.07687,323.680708 136.481886,316.540188 140.266679,309.600136 C145.926679,298.670136 150.766679,287.340136 156.546679,276.490136 C159.806679,270.370136 162.896679,264.160136 166.066679,257.990136" id="Path" stroke="#E0E0E0" stroke-width="2" stroke-linecap="round" stroke-linejoin="round"></path>
            <path d="M99.5666792,455.490136 C102.226679,454.260136 104.896679,455.410136 107.566679,455.490136 C113.566679,455.610136 119.566679,455.600136 125.566679,455.980136 C136.056679,456.640136 146.566679,457.050136 157.066679,457.510136 C160.736679,457.670136 164.426679,457.240136 168.066679,458.020136" id="Path" stroke="#E0E0E0" stroke-width="2" stroke-linecap="round" stroke-linejoin="round"></path>
            <line x1="173.066679" y1="463.490136" x2="173.066679" y2="495.990136" id="Path" stroke="#E0E0E0" stroke-width="2" stroke-linecap="round" stroke-linejoin="round"></line>
            <path d="M220.066679,574.490136 C221.186679,567.690136 223.406679,561.160136 225.066679,554.490136 C228.220013,541.823469 231.386679,529.156802 234.566679,516.490136 L237.066679,506.490136" id="Path" stroke="#E0E0E0" stroke-width="2" stroke-linecap="round" stroke-linejoin="round"></path>
            <path d="M172.066679,455.490136 C170.286679,448.210136 167.606679,441.200136 165.416679,434.040136 C161.316679,420.640136 156.266679,407.530136 152.536679,394.040136 C152.154893,393.144622 151.660943,392.30121 151.066679,391.530136" id="Path" stroke="#E0E0E0" stroke-width="2" stroke-linecap="round" stroke-linejoin="round"></path>
            <path d="M106.566679,498.990136 C103.866679,495.750136 99.9066792,494.280136 96.5066792,492.090136 C81.5066792,482.380136 66.2666792,472.940136 51.0466792,463.530136 C46.6366792,460.800136 42.2566792,458.050136 38.0466792,454.990136" id="Path" stroke="#E0E0E0" stroke-width="2" stroke-linecap="round" stroke-linejoin="round"></path>
            <path d="M295.066679,575.490136 C289.226679,566.330136 283.346679,557.190136 277.576679,547.990136 C269.366679,534.910136 261.376679,521.690136 252.576679,508.990136 C252.326679,508.620136 252.646679,507.870136 252.046679,507.510136" id="Path" stroke="#E0E0E0" stroke-width="2" stroke-linecap="round" stroke-linejoin="round"></path>
            <path d="M242.066679,288.990136 C233.566679,284.660136 225.066679,280.270136 216.556679,275.990136 C202.416679,268.990136 188.226679,261.990136 174.066679,254.990136" id="Path" stroke="#E0E0E0" stroke-width="2" stroke-linecap="round" stroke-linejoin="round"></path>
            <path d="M177.566679,453.990136 C183.226679,449.330136 188.866679,444.620136 194.566679,439.990136 C201.936679,433.990136 209.276679,427.990136 216.436679,421.830136 C226.096679,413.500136 236.436679,405.890136 245.556679,396.970136" id="Path" stroke="#E0E0E0" stroke-width="2" stroke-linecap="round" stroke-linejoin="round"></path>
            <path d="M375.066679,347.490136 C378.656679,346.350136 382.406679,346.970136 386.066679,346.620136 C397.536679,345.500136 409.066679,345.270136 420.556679,344.030136 C422.721818,343.915051 424.891541,343.915051 427.056679,344.030136" id="Path" stroke="#E0E0E0" stroke-width="2" stroke-linecap="round" stroke-linejoin="round"></path>
            <path d="M12.5666792,359.990136 C17.2166792,356.800136 22.5666792,354.990136 27.5666792,352.540136 C42.3366792,345.240136 57.2266792,338.200136 72.0266792,330.960136 C74.5066792,329.740136 76.7866792,328.100136 79.5466792,327.490136" id="Path" stroke="#E0E0E0" stroke-width="2" stroke-linecap="round" stroke-linejoin="round"></path>
            <path d="M361.066679,567.490136 C358.516679,563.160136 355.066679,559.490136 352.066679,555.490136 C341.616679,541.950136 330.826679,528.680136 320.436679,515.080136 C316.886679,510.430136 313.546679,505.440136 309.086679,501.470136" id="Path" stroke="#E0E0E0" stroke-width="2" stroke-linecap="round" stroke-linejoin="round"></path>
            <path d="M38.0666792,452.490136 C49.2366792,452.930136 60.4066792,453.260136 71.5666792,453.870136 C77.3866792,454.190136 83.2266792,454.520136 89.0666792,454.500136 C92.2417651,454.328117 95.4261404,454.492364 98.5666792,454.990136" id="Path" stroke="#E0E0E0" stroke-width="2" stroke-linecap="round" stroke-linejoin="round"></path>
            <path d="M402.066679,394.490136 C415.066679,394.660136 428.066679,394.660136 441.066679,395.080136 C445.896679,395.240136 450.726679,395.470136 455.566679,395.490136" id="Path" stroke="#E0E0E0" stroke-width="2" stroke-linecap="round" stroke-linejoin="round"></path>
            <path d="M304.066679,579.990136 C310.836679,578.450136 317.706679,577.520136 324.556679,576.460136 C335.556679,574.750136 346.556679,572.920136 357.556679,570.890136 C358.926679,570.630136 360.256679,570.760136 361.556679,570.490136" id="Path" stroke="#E0E0E0" stroke-width="2" stroke-linecap="round" stroke-linejoin="round"></path>
            <path d="M209.066679,355.990136 C214.226679,347.323469 219.393346,338.656802 224.566679,329.990136 C229.876679,321.140136 235.236679,312.320136 240.566679,303.480136 C241.766679,301.480136 242.906679,299.480136 244.076679,297.480136" id="Path" stroke="#E0E0E0" stroke-width="2" stroke-linecap="round" stroke-linejoin="round"></path>
            <path d="M173.566679,546.990136 C172.906679,531.330136 173.076679,515.660136 173.086679,499.990136 C173.101208,498.966516 172.924865,497.949152 172.566679,496.990136" id="Path" stroke="#E0E0E0" stroke-width="2" stroke-linecap="round" stroke-linejoin="round"></path>
            <path d="M479.566679,566.990136 C482.226679,558.160136 484.946679,549.340136 487.566679,540.490136 C489.816679,532.850136 491.916679,525.160136 494.086679,517.490136" id="Path" stroke="#E0E0E0" stroke-width="2" stroke-linecap="round" stroke-linejoin="round"></path>
            <path d="M335.566679,379.990136 C352.066679,383.830136 368.563346,387.670136 385.056679,391.510136 C386.596679,391.870136 388.056679,392.510136 389.566679,392.990136" id="Path" stroke="#E0E0E0" stroke-width="2" stroke-linecap="round" stroke-linejoin="round"></path>
            <path d="M162.566679,247.990136 C156.196679,242.600136 149.276679,237.940136 142.566679,232.990136 C132.276679,225.320136 122.226679,217.340136 112.006679,209.580136 C110.781491,208.827548 109.620845,207.974624 108.536679,207.030136" id="Path" stroke="#E0E0E0" stroke-width="2" stroke-linecap="round" stroke-linejoin="round"></path>
            <path d="M385.566679,289.990136 C387.706679,288.190136 388.976679,285.730136 390.566679,283.500136 C400.496679,269.560136 409.726679,255.140136 420.046679,241.500136 C421.133492,239.887119 422.13487,238.218155 423.046679,236.500136" id="Path" stroke="#E0E0E0" stroke-width="2" stroke-linecap="round" stroke-linejoin="round"></path>
            <path d="M471.066679,281.490136 C480.896679,268.330136 490.766679,255.190136 500.546679,241.980136 C503.546679,237.980136 506.266679,233.770136 509.546679,229.980136 C509.786679,229.690136 509.546679,228.980136 509.546679,228.500136" id="Path" stroke="#E0E0E0" stroke-width="2" stroke-linecap="round" stroke-linejoin="round"></path>
            <path d="M38.0666792,449.990136 C47.0666792,446.330136 56.1266792,442.810136 65.0666792,438.990136 C73.7066792,435.250136 82.6466792,432.240136 91.0666792,427.990136" id="Path" stroke="#E0E0E0" stroke-width="2" stroke-linecap="round" stroke-linejoin="round"></path>
            <path d="M168.566679,548.990136 C163.206679,543.580136 156.896679,539.310136 151.166679,534.380136 C144.876679,528.980136 138.246679,524.000136 132.096679,518.460136 C127.346679,514.190136 121.876679,510.760136 117.566679,505.990136" id="Path" stroke="#E0E0E0" stroke-width="2" stroke-linecap="round" stroke-linejoin="round"></path>
            <path d="M155.066679,382.990136 C163.566679,378.830136 172.066679,374.630136 180.566679,370.500136 C188.220013,366.800136 195.886679,363.133469 203.566679,359.500136 C204.336679,359.140136 204.946679,358.870136 205.046679,357.960136" id="Path" stroke="#E0E0E0" stroke-width="2" stroke-linecap="round" stroke-linejoin="round"></path>
            <line x1="118.066679" y1="497.990136" x2="168.066679" y2="461.490136" id="Path" stroke="#E0E0E0" stroke-width="2" stroke-linecap="round" stroke-linejoin="round"></line>
            <path d="M117.566679,501.990136 C123.396679,501.330136 129.216679,500.540136 135.066679,499.990136 C145.396679,499.070136 155.756679,498.550136 166.066679,497.390136 C176.066679,496.270136 186.066679,495.450136 196.066679,494.470136 C204.726679,493.620136 213.396679,492.800136 222.066679,491.960136" id="Path" stroke="#E0E0E0" stroke-width="2" stroke-linecap="round" stroke-linejoin="round"></path>
            <path d="M342.566679,598.490136 C347.406679,596.390136 350.466679,592.040136 354.476679,588.880136 C364.686679,580.820136 374.356679,572.090136 384.476679,563.950136 C387.046679,561.890136 389.166679,559.260136 392.016679,557.490136" id="Path" stroke="#E0E0E0" stroke-width="2" stroke-linecap="round" stroke-linejoin="round"></path>
            <path d="M178.066679,459.990136 C184.066679,463.790136 190.756679,466.280136 197.066679,469.470136 C205.516679,473.730136 214.326679,477.270136 222.576679,481.950136 C223.861303,482.454589 225.205797,482.790713 226.576679,482.950136" id="Path" stroke="#E0E0E0" stroke-width="2" stroke-linecap="round" stroke-linejoin="round"></path>
            <path d="M328.566679,374.990136 C315.076679,360.160136 300.656679,346.240136 286.666679,331.900136 C285.466679,330.670136 284.236679,329.330136 283.066679,327.990136" id="Path" stroke="#E0E0E0" stroke-width="2" stroke-linecap="round" stroke-linejoin="round"></path>
            <path d="M178.066679,548.490136 C189.636679,537.380136 201.586679,526.670136 213.516679,515.940136 C217.896679,512.000136 221.966679,507.710136 226.516679,503.940136" id="Path" stroke="#E0E0E0" stroke-width="2" stroke-linecap="round" stroke-linejoin="round"></path>
            <path d="M458.066679,281.990136 C450.566679,269.490136 443.060013,256.993469 435.546679,244.500136 C433.806679,241.610136 431.896679,238.830136 430.066679,235.990136" id="Path" stroke="#E0E0E0" stroke-width="2" stroke-linecap="round" stroke-linejoin="round"></path>
            <path d="M415.066679,217.990136 C414.016679,215.920136 412.066679,214.630136 410.556679,212.990136 C400.910013,202.810136 391.243346,192.640136 381.556679,182.480136 C378.716679,179.480136 375.886679,176.480136 373.056679,173.480136" id="Path" stroke="#E0E0E0" stroke-width="2" stroke-linecap="round" stroke-linejoin="round"></path>
            <path d="M111.066679,496.990136 C107.906679,487.260136 105.296679,477.360136 102.526679,467.500136 C99.5266792,456.790136 96.1966792,446.170136 93.0966792,435.500136 C92.6470244,433.521269 92.3131246,431.51787 92.0966792,429.500136" id="Path" stroke="#E0E0E0" stroke-width="2" stroke-linecap="round" stroke-linejoin="round"></path>
            <line x1="400.066679" y1="389.990136" x2="428.566679" y2="348.990136" id="Path" stroke="#E0E0E0" stroke-width="2" stroke-linecap="round" stroke-linejoin="round"></line>
            <path d="M440.566679,598.490136 C433.496679,590.700136 426.716679,582.650136 419.966679,574.570136 C417.256679,571.330136 414.506679,568.050136 411.516679,565.040136 C409.569776,562.968539 407.749794,560.781221 406.066679,558.490136" id="Path" stroke="#E0E0E0" stroke-width="2" stroke-linecap="round" stroke-linejoin="round"></path>
            <line x1="427.566679" y1="338.990136" x2="387.066679" y2="300.490136" id="Path" stroke="#E0E0E0" stroke-width="2" stroke-linecap="round" stroke-linejoin="round"></line>
            <path d="M367.066679,336.990136 C371.256679,325.280136 375.226679,313.480136 380.066679,301.990136 C380.127346,301.659563 380.127346,301.320709 380.066679,300.990136" id="Path" stroke="#E0E0E0" stroke-width="2" stroke-linecap="round" stroke-linejoin="round"></path>
            <path d="M186.066679,597.990136 C182.726679,585.830136 179.466679,573.640136 175.956679,561.520136 C175.626679,560.360136 176.166679,558.940136 175.066679,557.990136" id="Path" stroke="#E0E0E0" stroke-width="2" stroke-linecap="round" stroke-linejoin="round"></path>
            <path d="M221.066679,581.990136 C230.326679,584.990136 238.816679,589.810136 247.576679,593.990136 C250.876679,595.560136 253.926679,597.700136 257.576679,598.510136" id="Path" stroke="#E0E0E0" stroke-width="2" stroke-linecap="round" stroke-linejoin="round"></path>
            <path d="M246.566679,392.990136 C239.346679,385.200136 231.026679,378.550136 223.446679,371.110136 C219.256679,367.000136 214.756679,363.110136 210.566679,358.990136" id="Path" stroke="#E0E0E0" stroke-width="2" stroke-linecap="round" stroke-linejoin="round"></path>
            <path d="M214.066679,576.990136 C203.066679,570.490136 192.066679,563.986802 181.066679,557.480136 C179.946679,556.820136 179.496679,555.300136 178.066679,554.990136" id="Path" stroke="#E0E0E0" stroke-width="2" stroke-linecap="round" stroke-linejoin="round"></path>
            <line x1="436.066679" y1="336.990136" x2="457.566679" y2="301.990136" id="Path" stroke="#E0E0E0" stroke-width="2" stroke-linecap="round" stroke-linejoin="round"></line>
            <line x1="399.566679" y1="580.990136" x2="399.566679" y2="559.490136" id="Path" stroke="#E0E0E0" stroke-width="2" stroke-linecap="round" stroke-linejoin="round"></line>
            <path d="M112.066679,361.990136 C121.936679,368.270136 131.966679,374.300136 141.576679,380.990136 C142.217267,381.373259 142.885828,381.70754 143.576679,381.990136" id="Path" stroke="#E0E0E0" stroke-width="2" stroke-linecap="round" stroke-linejoin="round"></path>
            <path d="M282.066679,326.990136 C277.226679,320.990136 271.376679,315.990136 266.066679,310.510136 C261.476679,305.770136 256.746679,301.160136 252.066679,296.510136" id="Path" stroke="#E0E0E0" stroke-width="2" stroke-linecap="round" stroke-linejoin="round"></path>
            <path d="M106.066679,356.490136 C97.3966792,347.770136 89.6166792,338.260136 81.5666792,328.990136" id="Path" stroke="#E0E0E0" stroke-width="2" stroke-linecap="round" stroke-linejoin="round"></path>
            <path d="M335.566679,598.490136 C340.916679,593.670136 346.186679,588.820136 350.656679,583.070136 C353.656679,579.190136 357.566679,575.990136 361.066679,572.490136" id="Path" stroke="#E0E0E0" stroke-width="2" stroke-linecap="round" stroke-linejoin="round"></path>
            <path d="M366.566679,567.990136 C373.726679,564.330136 380.856679,560.590136 388.106679,557.070136 C389.266679,556.510136 389.636679,555.020136 391.106679,554.990136" id="Path" stroke="#E0E0E0" stroke-width="2" stroke-linecap="round" stroke-linejoin="round"></path>
            <line x1="251.066679" y1="285.490136" x2="263.066679" y2="265.490136" id="Path" stroke="#E0E0E0" stroke-width="2" stroke-linecap="round" stroke-linejoin="round"></line>
            <path d="M464.066679,389.490136 C468.406679,383.910136 471.536679,377.580136 475.066679,371.490136" id="Path" stroke="#E0E0E0" stroke-width="2" stroke-linecap="round" stroke-linejoin="round"></path>
            <line x1="337.066679" y1="374.490136" x2="354.066679" y2="357.490136" id="Path" stroke="#E0E0E0" stroke-width="2" stroke-linecap="round" stroke-linejoin="round"></line>
            <path d="M497.566679,594.990136 C492.636679,590.560136 489.136679,584.800136 484.066679,580.490136 C483.286679,579.830136 483.686679,578.490136 482.566679,577.990136" id="Path" stroke="#E0E0E0" stroke-width="2" stroke-linecap="round" stroke-linejoin="round"></path>
            <path d="M404.066679,588.990136 C409.226679,592.156802 414.396679,595.320136 419.576679,598.480136 C419.816679,598.620136 420.226679,598.480136 420.576679,598.480136" id="Path" stroke="#E0E0E0" stroke-width="2" stroke-linecap="round" stroke-linejoin="round"></path>
            <path d="M111.066679,356.490136 C112.466679,353.080136 115.636679,351.040136 117.726679,348.110136 C119.517088,345.612826 121.467864,343.234483 123.566679,340.990136" id="Path" stroke="#E0E0E0" stroke-width="2" stroke-linecap="round" stroke-linejoin="round"></path>
            <path d="M303.566679,598.490136 C302.393346,594.330136 301.226679,590.163469 300.066679,585.990136" id="Path" stroke="#E0E0E0" stroke-width="2" stroke-linecap="round" stroke-linejoin="round"></path>
            <line x1="207.066679" y1="597.990136" x2="215.066679" y2="585.490136" id="Path" stroke="#E0E0E0" stroke-width="2" stroke-linecap="round" stroke-linejoin="round"></line>
            <path d="M249.566679,394.990136 C252.346679,393.180136 255.676679,394.640136 258.566679,393.490136" id="Path" stroke="#E0E0E0" stroke-width="2" stroke-linecap="round" stroke-linejoin="round"></path>
            <path d="M422.566679,225.990136 C420.393346,223.656802 418.226679,221.323469 416.066679,218.990136" id="Path" stroke="#E0E0E0" stroke-width="2" stroke-linecap="round" stroke-linejoin="round"></path>
            <path d="M509.066679,103.490136 C510.116679,101.570136 509.326679,99.4901358 509.566679,97.4901358" id="Path" stroke="#E0E0E0" stroke-width="2" stroke-linecap="round" stroke-linejoin="round"></path>
        </g>
    </g>
</svg>