<svg xmlns="http://www.w3.org/2000/svg" viewBox="0 0 510.65 599.56"><defs><style>.cls-1{fill:none;stroke:#000;stroke-linecap:round;stroke-linejoin:round;stroke-width:2px;}</style></defs><g id="Layer_2" data-name="Layer 2"><g id="Layer_1-2" data-name="Layer 1"><path d="M58,468c-3.78-.56-6.43-3.27-9.55-5.07-3.59-2.07-7-4.43-10.36-6.56-4.9,2.57-8.2,2.47-10.19-.15s-1.41-6.31,2.15-10.55Q18.95,407.82,7.6,369.36c-3.79-.41-6.85-1.86-7.52-6-.43-2.62,1-4.47,3-5.91,3.38-2.43,6.25-.86,8.85,1.6,7.14-3.42,14.05-6.69,20.92-10,13.62-6.61,27.21-13.29,40.86-19.84a10.84,10.84,0,0,0,6.47-8.61c3.75-20.69,7.84-41.33,11.69-62,3-16.27,5.88-32.56,8.81-48.83-5.24-4.31-6-8-2.63-11.71,3.24-3.54,7.45-2.58,12,2.76,3.55.73,6.9-.73,10.37-1,6.92-.51,13.79-1.8,20.7-2.64s13.84-1.48,20.76-2.28c5.92-.68,11.88-1.25,17.74-2.31,3.93-.71,7.91-1,11.84-1.43,13.49-1.61,27-3.33,40.44-5.06,9.54-1.23,19.12-2.07,28.67-3.23,6.24-.76,12.43-2,18.68-2.62q10.15-1,20.27-2.3c7.23-.94,14.46-1.89,21.69-2.77,6.58-.8,13.18-1.45,19.77-2.26,7.07-.86,14.12-1.84,21.19-2.74,1.72-.21,2.74-1.59,4-2.28,5.9-3.21,5.78-9.3,7.31-14.38,3.36-11.1,6.06-22.41,9.06-33.62q14.34-53.61,28.76-107.19c.56-2.07.68-3.64-.55-5.58-1.67-2.63-.92-5.11,1.35-6.48a4.19,4.19,0,0,1,6,1.73c1.29,2.33,3,3.12,5.46,3.69Q457.25,13.88,490.85,22c6.43,1.56,13,2.71,19.22,5v1a4.19,4.19,0,0,1-1,0C480.7,21.29,452.3,14.64,424,7.74c-3.66-.89-6.45-.85-8.74,2.48a39.81,39.81,0,0,1,.78,6.33c-.27,9,1.53,17.89,1.18,26.89a8.83,8.83,0,0,0,.1,2c1.64,8.36.89,16.89,1.57,25.33.71,8.73,1.76,17.53,1.33,26.35a4.15,4.15,0,0,0,0,1c1.53,8.37,1.24,16.89,1.65,25.31.45,9.29,1.76,18.55,1.33,27.87a4.17,4.17,0,0,0,0,1c1.66,8,1,16.21,1.64,24.3.7,9.26,1.23,18.56,1.53,27.87.17,5.61.65,11.26.79,16.9a2.64,2.64,0,0,0,.77,2.28c2.24,1,3.22-.38,4.32-2.06,6.81-10.44,13.64-20.87,20.64-31.19,2.2-3.23,3.89-6.89,7.11-9.37.17,2-1.23,3.34-2.22,4.83-5.29,8-10.65,16-15.89,24-1.07,1.63-2.65,3-2.84,5.15l-1,1c-.87.4-.91,1.21-1,2l-1,1-.27.36L436,219l1-1a2,2,0,0,0,1-2,1.12,1.12,0,0,0,1-1c2.19-1.25,3.51-3.33,5.11-5.17,2.12-2.43,3.87-5.25,6.88-6.78a2.49,2.49,0,0,1-.82,2.24c-2.39,2.75-4.78,5.52-7.18,8.27-3.07,3.49-6.19,6.94-9.2,10.48-.8.93-2,2-.53,3.49,1,.47,1.86-.18,2.77-.46,7-2.19,13.92-4.36,20.86-6.59q22.72-7.31,45.45-14.66c2.5-.8,4.95-1.93,7.68-1.8v1c-2.84.93-5.67,1.86-8.51,2.77q-24.68,7.88-49.34,15.76c-6,1.92-11.94,3.95-18.1,6,.36,2.92-1.35,4.87-2.58,7,8.85,14.74,17.66,29.39,26.58,44.26,4.3-2.32,8.29-1.35,12.27.09.55-.6,1.05-1.05,1.44-1.57Q486.4,259.68,500.94,240c.87-1.18,1.48-2.61,3.11-3,.32,1.95-1.27,3-2.19,4.29-9.05,12.32-18.2,24.56-27.31,36.82-1,1.31-2.28,2.46-2.25,4.37.6.95,1.25,1.91,1.86,2.9,2.84,4.65,2.61,9.28-.67,13.49s-7.48,5.92-12.77,4.54a3.87,3.87,0,0,0-3.21.05c-.9,1.41-2,3.08-3,4.77q-8.07,13.19-16.11,26.37c-.59,1-.87,2.22-2.3,2.36.51-3.79,3.21-6.46,5-9.55,5-8.58,10.27-17,15.65-25.89-3.47-1.75-4.48-5.1-5.57-8.41-2.38,0-4.61-.35-6.68.07-8.36,1.66-16.85.64-25.28,1.53s-17.22.49-25.81,1.31c-1.9.18-4-.45-5,2.15-.89,2.37.95,3.25,2.07,4.58,1.78,2.13,4.43,3.48,5.55,6.2-1.38.24-2.12-.76-2.95-1.54-2.17-2-4.32-4.11-6.75-6.43-1.61,1.38-3.74,1-6.11,2-4,10.83-8,22-12.15,33.25a17,17,0,0,1,7.81,9.89c16.71-.53,33.17-1.93,49.53-3.33.47-1.53.79-2.59,1.09-3.54-2.62-3.46-6.44-5.53-8.42-9.27,1.59-.29,2.31,1,3.23,1.84,2.16,2,4.25,4,6.43,6.08,2.76-1.48,5.53-1.2,8.29-.93.38.55.73,1.12,1.14,1.64,1.88,2.41,2.65,5,1.14,7.87s-4,3.9-7.08,3.54c-2.17-.25-3.25.76-4.39,2.44-6.17,9.07-12.49,18-18.74,27.06-2.27,3.27-4.51,6.55-6.73,9.78.85,1.63,1.33,3.25,2.8,4.52,16.46.16,33.07-.23,49.65,1.14,1.92-4.94,5.3-6.8,10.19-6.19,3.42-5.81,6.78-11.51,10.15-17.25a29.61,29.61,0,0,1-1.8-3.17,7.2,7.2,0,0,1,2.07-8.14,6.85,6.85,0,0,1,8-.17,7.2,7.2,0,0,1,2.65,7.55c-.72,2.62-3.12,4.35-6.39,4.58-1,.07-2-.27-3.21.41l-10.12,17.19c3.68,6.09,3.61,6.75-1.28,12.7,9.85,31.57,19.77,63.36,29.6,94.84,3,.91,5.53.13,7.9,1.37a11.55,11.55,0,0,1-1.42,21.41c-2,.65-4.14,1-6.34,1.44-1.61,5.5-3.18,10.9-4.77,16.29-2.48,8.44-4.93,16.87-7.46,25.29-.58,1.91-.54,3.46,1,5a6.4,6.4,0,0,1,1.23,8.59,6.32,6.32,0,0,0-.33,1.61l14.3,15.92c4.16-2.26,8.12-3.06,12.26-1.25v6h-15c-.59-1.64,1.68-2.42,1.3-4l-14.16-15.84a9.79,9.79,0,0,0-1.31.1c-4.79,1.23-8.15-.36-9.48-4.51-1.12-3.51.67-6.64,5.2-8.13,2.5-.83,3.23-2.52,3.84-4.67,3.21-11.31,6.29-22.67,9.75-33.91,2.84-9.23,2.63-6.28-3.86-12.82-.1-.1-.3-.1-1.14-.34l-75.75,32.73c0,4-.37,7.57-2.33,10.71a26.73,26.73,0,0,0,1.8,2.67c7.18,8.29,14.52,16.44,21.53,24.86,3.6,4.31,7.93,8.05,10.61,13.1h-2a11.49,11.49,0,0,0-2.41-3.74c-10.32-11.9-20.64-23.8-31.09-35.83l-5.21,2.23v18.23c4.09,1.77,5.94,4.77,5.07,9.09,1.91,1.19,3.63,2.18,5.27,3.3,3.41,2.32,7.41,3.71,10.37,6.72h-3c-4-3.49-9-5.53-13.33-8.44-5,2.9-8.47,2.81-10.51-.35a6.86,6.86,0,0,1-1.18-4.72c.44-3.49,3.53-4.52,5.68-6.17V561.76c-1.65-.78-3.45-1.17-4.53-2.26-1.43-1.45-2.77-.28-4.11-.51-.21-.81,1-1.32.44-2.27-6.74,3.44-13.46,6.91-20.21,10.3-1.66.83-3.15,1.61-3.61,3.67-.34,1.55-1.59,3-3.11,2.71-2.32-.44-3.25,1.06-4.58,2.22-3.07,2.7-5.21,6.38-8.94,8.37-.12-2,1.54-2.83,2.62-4,2.42-2.65,4.94-5.22,7.41-7.82l-.48-.83-54.15,9c-.79,2.6-1.78,5-4.07,6.29.32,4.46,3,8.06,2.66,12.34h-1l-3.51-11.44c-1.69-.65-3.55-.77-5.09-1.86s-1.64-3.28-3.35-4.37H224.69c.6,1.6,1.9,1.74,2.89,2.22,9.53,4.67,19.1,9.28,28.65,13.92.72.36,1.56.63,1.84,1.53h-3a5.56,5.56,0,0,0-1.08-.94q-13.59-6.6-27.2-13.16c-.3-.14-.6-.43-.89-.42-3.88,0-7.38,1.73-11.08,2.57-2,4.14-5.69,7.3-6.75,12h-2c0-2.18,1.74-3.5,2.7-5.19,1.7-3,3.58-5.91,5.32-8.76-1.51-2.63-2.84-4.95-1.49-7.74l-34.06-20.76c-2.5,1.3-2.38,2.92-1.75,5.15,3.54,12.41,6.87,24.87,10.28,37.3h-2c.24-2.58-.93-4.86-1.58-7.24-3-10.69-5.93-21.38-9-32.27-2.25-.7-4.77-1.21-6.33-3.34s-1.39-4.67-.54-6.87c-3.26-4-7.8-6.19-10.89-9.93.19-.24.39-.46.59-.69,4.25,2.58,7.69,6.23,11.49,9.06,3.11-.83,4.13-2.48,4.17-5.51.05-4.36-.94-8.58-.89-12.92.1-8.82,0-17.65,0-26.48,0-1.45.34-3-.67-4.55-3,0-6.19-.2-9.29.05-5.45.43-10.86,1.43-16.31,1.64s-10.54,1.25-15.89,1.34c-2.75,0-5.56.77-8.39.8-1.38,0-2.68.13-3.19,1.76s.47,2.51,1.49,3.41,2,1.72,3,2.59c5.79,5,12,9.41,17.45,14.84-.18.22-.37.43-.56.64-5.11-3.13-9.25-7.49-14-11.09-2.89-2.21-5.63-4.63-8.31-6.85-1.42-.58-2.34.48-3.45.67-4.27.75-7.7-1.18-7.8-5.43-.09-3.62-2.15-4.82-4.56-6.33q-20.62-12.93-41.21-26c-1-.59-2.18-.92-2.37-2.31,1.5-.34,2.54.66,3.62,1.34,10.27,6.45,20.5,13,30.77,19.42,4.9,3.09,9.84,6.1,14.66,9.08,1.08-.61,2.09-.87,2.54-1.91q-5-17.67-10-35.36c-1.32-4.66-2.14-5.51-6.93-5.4-13.31.3-26.56-1.36-39.86-1.21a34.8,34.8,0,0,1-7.93-.63c-1.77-.39-3.86-.78-5.79.45.34,1.68,1.51,2.35,2.6,3,2.66,1.7,5.44,3.23,8,5.07C52.56,463.91,56.05,464.94,58,468ZM83.05,329a1.94,1.94,0,0,0-.15-.36c-.05-.06-.17-.06-.26-.09l.46.39c.16,1,1.27,1.8.94,3-.74,0-1.19-.49-1.69-.9-2.62-2.12-5.22-2.25-8.21-.49-3.14,1.85-6.52,3.26-9.81,4.85L15,359.26c-.88.43-1.88.83-1.51,2.2,3.48,1.32,6.85-.49,10.29-.41,17.62.38,35.19-1.37,52.81-1.15,8.3.11,16.55-1.29,24.87-.95,1.34.06,2.71,0,3.28-1.6.07-.94-.57-1.52-1.12-2.12-3.44-3.83-6.91-7.64-10.33-11.48-1-1.08-2.34-2-2.18-3.72,1.35.06,1.92,1.21,2.68,2,3.26,3.55,6.64,7,9.62,10.79C105.86,356,108.74,356,112,355c.31,1.22-.47,2.73,1.13,3.73,5.34.27,10.77-.35,16.23-.6,13.1-.62,26.24-.08,39.35-1.05,7.61-.56,15.3-.21,22.95-.21a24.16,24.16,0,0,0,7.38-.92,1,1,0,0,0,.17.35c.05.06.18.05.28.07l-.48-.39c-.37-.29-.7-.74-1.13-.85q-20.65-5.42-41.34-10.79c-7.67-2-15.34-3.94-22.9-5.88-1.74,2.45-3.79,4.06-6.47,3.61-3-.5-4.32,1.18-6.13,3.1-3,3.21-4.86,7.57-9,9.76-.23-1.77,1.3-2.56,2.12-3.74,2.6-3.8,6.27-6.79,8.43-10.87l-2.21-4.87c-5.66-1-11-2.12-16.38-3C97,331.4,90.18,329.42,83.05,329ZM112,362c-3.17,1.63-4.65,4.2-5.46,7.73C104,381.18,101,392.56,98.1,404c-1.79,7.18-3.6,14.37-5.58,22.28,15.66-11.34,30.58-22.4,45.81-33,3.81-2.67,5.22-5.57,4.58-9.87,0-.16-.07-.32-.24-1-7.09-4.53-14.53-9.21-21.89-14-3-2-6.5-3.25-8.68-6.34,1.49-.34,2.53.66,3.62,1.35,4.91,3.09,9.77,6.27,14.67,9.38,4.46,2.83,8.94,5.61,13.2,8.28,2.42-.81,4.15-2.27,6.48-2.11s4,2.13,6,2.9l47.16-23.27c-8.27-.28-16.37-.18-24.5.19-15.91.74-31.87.18-47.79,1.22-5.3.35-10.64.13-16,.14C113.58,360.11,112.31,360.21,112,362Zm54.05,101c1.32-4.13,1-4.67-3.12-4.82-8-.31-15.95-.56-23.91-.81-11.63-.37-23.24-1.66-34.9-1.29-1.25,0-2.66-.54-3.9.94q5.47,19.13,11.08,38.68c2.66.07,4.69,1.2,6.72,2.34.28.9-.17,2,1,2.71l52.76-4.85v-31C170.17,463.17,168.43,462.14,166.09,463Zm33,66c-.37,1.8-1.94,2.64-3.12,3.74-5,4.68-10,9.22-15,13.93-2.8,2.68-2.26,8.17.89,10.09q12.12,7.41,24.3,14.7c2.41,1.44,4.64,3.23,7.37,4.11.58-.38,1.1-1,1.7-1.07,3.19-.55,4.37-2.38,5.14-5.57,4-16.75,8.45-33.4,12.64-50.11.75-3,2.26-5.88,1.82-9.2l-7.44-4.46c-1.88.15-2.54,2.2-4.29,1.8.15-1.68,2-2.16,2.58-3.78-1.69-3-3.63-6.13-4.22-10.18l-46.91,4.27a10.66,10.66,0,0,0-.42,1.86c0,14.63.06,29.27,0,43.91,0,2.73,1.23,3.89,3.72,4.37,5.73-5.29,11.45-10.61,17.22-15.86C196.2,530.51,197,528.77,199.05,529Zm96,44c.26.36-.38,1.41.71,1,.19-.07-.18-.87-.73-1a14.15,14.15,0,0,0-.64-4.41q-8-29.77-15.88-59.59-6.54-24.5-13.09-49-4.31-16.11-8.62-32.2-3.6-13.43-7.24-26.83l-.52,0c-1.84,23.1-3.68,46.19-5.54,69.48,8.59,1.78,14.49,6.53,16.9,15.1,2.47,8.82-1.59,15.44-7.7,21.51,3,4.67,5.78,9.14,8.6,13.61,8.35,13.21,16.6,26.48,25.11,39.58C289.22,564.59,291.43,569.29,295.08,573ZM252,403c-.28-.32.31-1.24-.64-1-.13,0,.25.76.7,1a28.4,28.4,0,0,0,.48,2.93q8.47,32,17,63.95,11.42,42.78,22.87,85.55c1.6,6,3.31,11.91,5,17.86l.86-.07q3-34.12,6-68.14a7.5,7.5,0,0,0-1.75-.87c-3.31-.49-4.93-2.72-5.43-5.71a6.29,6.29,0,0,1,3.2-6.77,11.87,11.87,0,0,0,1.78-1.7l6.83,2c3.18-3.11,5.38-6.85,9.14-9,.26,1.37-.73,2.13-1.51,3-1.47,1.59-3.06,3.07-4.44,4.73-1.12,1.34-2.63,2.7-1.44,5,7,2.26,14.47,1.24,21.68,2,9.23.92,18.53,1.56,27.8,2,11.12.56,22.21,1.23,33.3,2.12,9.59.77,19.21,1.27,28.81,1.9,10.6.7,21.21,1.23,31.8,2.1,10.07.82,20.18,1.12,30.56,1.66l3.35-6.87c-7-8-13.83-15.93-20.68-23.86-.94-1.09-2.37-1.94-2.19-3.72,1.16,0,1.72.94,2.35,1.66,6.17,7,12.33,14,18.43,21,1.19,1.38,2.15,2.95,3.74,3.85,2.07-.56,2.57-1.61,1.9-3.72-4.06-12.82-8-25.69-11.93-38.54q-4.95-15.94-9.94-31.87c-2.38-7.58-4.82-15.15-7.29-22.92-4.42,0-7.22-2.22-8.57-6.46-6,0-11.84,0-17.66,0-4.33,0-8.72.25-13-.34-5.83-.81-11.64-.26-17.44-.57a3,3,0,0,0-3.11,1.95c-.72,1.46-.22,2.49.76,3.58,2.33,2.6,4.58,5.27,6.87,7.9q10.83,12.4,21.66,24.81c.65.75,1.38,1.48,1.16,2.62a2.77,2.77,0,0,1-2-1.3c-6-6.89-12-13.84-18-20.66-4.18-4.69-8-9.74-12.63-14.11-2.12.62-4,1.43-6,.32-1.2-.67-2.11.7-3.26.75.35-2.08.9-4.2-1.42-5.88h-1.8l-130.32,0c-1,0-2,0-3,.08-2.73.26-3.53,1.49-2.38,3.88.93,1.95,2.26,3.71,3.11,5.68,1.48,3.45,4.58,6.15,4.78,10.2-1.36-.22-1.6-1.45-2.23-2.38C255.75,409.51,254.48,405.92,252,403Zm72,117c-2-.52-2.75-2.29-3.86-3.68-3.73-4.64-7.4-9.32-11.05-13.94-3.83,1.32-3.58,4.67-3.75,7.17-.56,8.26-1.54,16.49-2.11,24.74-.42,6.12-1,12.23-1.47,18.34-.32,4.61-.2,9.31-1.15,13.86a29.12,29.12,0,0,0-.36,8c2.41.72,3.24,3.23,5,4.27l54.1-9.1c1.17-2.23.23-3.38-.76-4.59-2.61-3.22-5.26-6.42-7.72-9.76-1.73-2.34-4.21-4.22-4.8-7.32,2.05.63,3.05,2.45,4.25,4,3.81,4.78,7.5,9.67,11.41,14.73,2-1,4,1.06,6.21-.13,7.23-4,14.9-7.12,21.89-11.73-.19-2.78-.57-5.4.21-8-1.23-.86-2.26-1.69-3.4-2.34-7.59-4.4-15.23-8.72-22.8-13.15-2.07-1.22-4.57-1.94-5.79-4.33,5,1,8.83,4.45,13.17,6.8,6.69,3.63,13.05,7.87,19.76,11.17,7.18-5.6,10.66-5.4,17.65.76,4.89-1.32,76-31.92,76.9-33.32-.88-.76-.07-2.4-1.64-3.23-7.54-.05-15.16-.82-22.75-1.47-7.27-.62-14.58-.85-21.84-1.39-7.76-.58-15.54-1.64-23.37-1.35a6.16,6.16,0,0,1-1.49-.11c-7-1.46-14.22-1-21.32-1.57-8.1-.6-16.24-1.2-24.37-1.55-4.95-.21-10-.2-14.9-.87-7.9-1.07-15.88-.94-23.8-1.76-3.46-.35-6.94-.17-10.42-.78-2.82-.49-5.79-.1-9.36-.1,1.12.75,1.64,1.14,2.2,1.46q21.33,12.42,42.67,24.84c1.1.64,2.59.87,2.9,2.46a3.7,3.7,0,0,1-2.85-.54l-24.54-14.33q-10-5.83-20-11.63c2.58,4.39,5.72,8.18,8.61,12.16C321,515,323.52,516.85,324.05,520ZM221,369c-2.18.1-3.07-1.78-4.38-2.94-2.21-2-4.28-4.06-6.08-5.8-2.66.29-3.27,1.73-3.83,3.39-1.81,5.34-3.74,10.64-5.61,16q-7.41,21.11-14.8,42.23c-3.28,9.39-6.5,18.8-9.75,28.2-.32.93-.82,1.89.39,2.65,1.28.16,2.17-.7,3-1.41,7.11-6,14.14-12.07,21.31-18,2.75-2.27,5.08-5.21,8.73-6.25-1,2.46-3.19,3.76-5.05,5.33-8.76,7.37-17.61,14.63-26.69,22.14,1.48,1.7.32,3.93,1.71,6l43.39,20.58a28.64,28.64,0,0,1,7.93-8c3.22-2.06,6.95-1.85,10.49-2.74,1.89-24.13,4.29-48,5.56-71.9-1.6-.72-2.33.38-3.21,1.06-1.27,1-2.12,2.67-4.09,2.51.14-1.53,1.43-2.23,2.41-3a7,7,0,0,0,2.84-6.26c-7-6.54-14.09-13.22-21.18-20-1.16-1.11-2.74-1.94-3.07-3.75,2-.22,2.86,1.5,4,2.57,6.59,6.12,13.1,12.31,19.66,18.44.69.64,1.21,1.67,2.75,1.38.76-1.39.46-3.06.45-4.65,0-11.14-.28-22.27-.66-33.41-.58-16.64-.22-33.31-.32-50,0-1.72.56-3.63-.6-5-1.65-.54-2.12.44-2.62,1.28-1.45,2.43-2.84,4.89-4.3,7.31Q226,329.17,212.54,351.33a8,8,0,0,0,1.12,9.74C216.12,363.7,219.33,365.64,221,369ZM56.09,401a2.27,2.27,0,0,1,1.86.48q14,10.85,28,21.69c1.39,1.09,2.6,2.48,5.06,2.5,5.22-20.77,10.42-41.46,15.67-62.38-1.7-.36-1.54-2.28-3-2.69-1.19.11-2.33.28-3.48.32-10.46.38-20.93.52-31.39.78-17.28.44-34.56,1.22-51.85,1.37a17.18,17.18,0,0,0-2.49.09c-2.19.35-2.82,1.9-1.29,3.44,1.27,1.3,2.86,2.28,4.19,3.52,2.51,2.36,6.07,3.52,7.69,6.85-3.05-.31-4.6-3-7-4.4-2.65-1.55-4.61-4.18-7.42-5.18-1.82,1.17-1.4,2.39-1,3.73,1.13,3.47,2.17,7,3.2,10.46q6.3,21.48,12.58,43c2.05,7,4.18,13.93,6.29,20.94a12.19,12.19,0,0,1,6.94,3.31c16.76-6.82,33.51-13.5,50.12-20.64-.41-.79-.48-1.16-.71-1.33-7.74-6-15.6-11.86-23.21-18C61.86,406.37,58.05,404.71,56.09,401Zm55-192a3.55,3.55,0,0,1-1,0c-4.22-1.18-5.34-.27-4.61,3.71q2.89,15.65,5.75,31.29,3.64,19.8,7.3,39.6,3.84,20.76,7.7,41.53a9.7,9.7,0,0,0,2.73,5.7c4.62-8.24,8.23-16.31,12.16-24.21s7.84-16.14,11.78-24.2,7.9-16.07,11.83-24.05c-1.84-2.18-3.26-4.29-2.78-7s-.92-3.89-2.8-5.29q-20.43-15.15-40.72-30.48c-1.28-1-2.86-1.76-3.32-3.54a2.66,2.66,0,0,1,2.29.7Q129.69,222,142,231.3c7,5.28,14.06,10.54,20.93,15.69,7.42-2.74,9.47-2,13,4.82a56.74,56.74,0,0,1,6.33.32c9.85,1.53,19.81,1.63,29.71,2.64,11.05,1.12,22.17,1.5,33.27,2.22a12.61,12.61,0,0,1,2.45.37,20.3,20.3,0,0,0,9.58-.11L109.57,206C109.77,207.51,111.13,207.84,111,209ZM324.1,370c2.15.41,2.8,2.75,4.92,3.74,2.41-1.32,5.15-.91,7.13-1l17-15.63c-2.54-4.41-4.22-8.86-2.21-13.92l-97.21-47.75c-.6,1.16.53,1.71.33,2.54-4.49-.67-5.07-.28-5.06,4q.09,42.72.24,85.43c0,4.69,2,6.36,6.6,5.37,3.9-.83,7.82-1.46,11.73-2.18,11.72-2.15,23.42-4.43,35.14-6.63,7.79-1.46,15.6-2.87,23.5-4.33.52-1.56,1-2.93,1.39-4.19C326.74,373.29,324,372.63,324.1,370Zm77.95-103c.28,1.34-.69,2.13-1.34,3.07l-14.1,20.47c1.19,1.28,1.54,3,3.07,4.15,9-1.4,18.09-1,27.17-1.54,9.75-.58,19.52-1.74,29.33-1.33a11,11,0,0,0,2.94-.4,3.23,3.23,0,0,0,2.72-2.58c.59-3.09,2.67-5.25,4.85-7.41L430.06,237c-2.18,1.77-4.23-.09-6.49.34q-9.09,13.06-18.17,26.15c-.93,1.33-1.51,3-3.31,3.47-.12-2.25,1.62-3.58,2.69-5.16,5.31-7.85,10.76-15.6,16.2-23.36.92-1.33,1.48-2.58.5-4.12s-2.56-1.38-4-1.13c-4.09.69-8.15,1.48-12.23,2.23-11.72,2.18-23.43,4.44-35.17,6.52-12.4,2.2-24.87,4-37.24,6.4-18.05,3.49-36.19,6.54-54.27,9.88-1.73.32-3.89.17-5.73,2.49l102.66,32.11c2.12-1.95,3.87-4.55,7.2-3.9,2.6.51,4-.94,5.25-2.86,3.63-5.37,7.35-10.69,11-16C399.8,268.86,400.4,267.4,402.05,267Zm-22-86c-2.49-.85-3.66-3.21-5.47-4.84-2.31-2.08-7-2.38-9.68-.62-2.25,1.45-3.94,3.52-6,5.15-3.57,2.82-6.37,6.64-10.81,8.31.16-1.51,1.46-2.18,2.41-3,4.35-3.85,8.79-7.61,13.17-11.44.77-.68,2.14-1.07,1.75-2.39a1.37,1.37,0,0,0-1.5-.47l-19.22,2.41c-7.07.88-14.14,1.77-21.2,2.63q-9.87,1.2-19.74,2.36c-6.75.8-13.5,1.54-20.24,2.37s-13.46,1.78-20.2,2.64q-11.08,1.41-22.17,2.75c-6.58.79-13.17,1.52-19.75,2.28s-13.18,1.47-19.75,2.28c-7.07.86-14.12,1.83-21.18,2.7-6.58.8-13.18,1.48-19.75,2.3-9.7,1.2-19.39,2.5-29.08,3.71-6.25.78-12.51,1.42-18.75,2.24-1.12.14-2.48.32-3.24,1.38.9,1.26,2,1.24,2.91,1.56q18.33,6.44,36.68,12.82,40.71,14.13,81.43,28.23l25.89,9c1.58.56,3.25,1.39,4.64-.11,3.06-3.3,6.57-2.41,10.19-1.28,1.36-1,2.77-1.88,4-3,5.78-5,11.51-10.07,17.27-15.09,1-.85,1.78-2.08,3.36-1.81-.05,1.15-1,1.7-1.7,2.33-4.48,4-9.09,7.78-13.49,11.84-2.86,2.64-6.36,4.63-8.54,7.77.62,1.6,1.47,1.44,2.57,1.23,11.23-2.08,22.47-4.14,33.72-6.11,16.15-2.83,32.32-5.48,48.46-8.38,19.4-3.48,38.74-7.26,58.17-10.6,3.76-.65,5.56-2.35,6.3-5.75-1.07-2.4-4.26-3.31-4.44-6.33,2.12.52,3,2.57,4.47,3.81.82.66,1.57,1.22,2.67.84A2.48,2.48,0,0,0,426,222c0-1,.05-2,0-3-.27-3.14-.88-6.28-.84-9.41.12-8.67-1.6-17.24-1.14-25.91a4.2,4.2,0,0,0-.06-1c-1.57-8.54-1.1-17.23-1.63-25.83-.55-9.11-1.67-18.23-1.35-27.39a4.17,4.17,0,0,0-.06-1c-1.6-7.36-1.11-14.9-1.55-22.33-.57-9.78-1.76-19.56-1.39-29.39a6.84,6.84,0,0,0-.1-1.5c-1.37-8-1.12-16.23-1.62-24.33-.51-8.45-1.16-16.91-1.46-25.39a147.93,147.93,0,0,0-1.08-15.24C409.16,27,404.87,43,400.57,59q-13.45,50-26.91,100c-.87,3.24-2.73,6.58.29,9.8a2.5,2.5,0,0,1,.24,1.93c-.55,2.33.89,3.67,2.2,5.22S380.05,178.42,380.05,181ZM131.24,330c1.74,4,4.25,2.31,6.47,1.49q45.58-16.81,91.15-33.7c3.43-1.27,6.89-2.47,10.22-3.95a3.09,3.09,0,0,0,.42-5.54,16.54,16.54,0,0,0-2.21-1.16q-22.56-11.24-45.14-22.46c-5.79-2.88-11.62-5.67-17.54-8.56-1.66,1.32-3.3,2.92-5.29,2.77-3.32-.25-4.2,1.92-5.32,4.23q-9.34,19.31-18.81,38.57C140.58,311.13,135.93,320.52,131.24,330Zm94.21,248.79c14.72,1,60.81,1.48,66.65.61l2.12-4-43.09-67.81c-4.53,2.95-9.27,2.49-13.59,2.58a26,26,0,0,0-2.43,7.05c-4.05,16.23-8,32.49-12.27,48.66C221.6,570.61,220.52,574.87,225.45,578.82Zm29.36-285.94-.18,1.24,97.06,47.67c3.75-5.08,8.64-7.26,14.85-6.06,4.14-11.28,8.19-22.31,12.4-33.75-2.59-1.1-2.88-3.92-4.54-5.76-8.76-.36-17.41-.73-26-.85-19.78-.28-39.53-1.72-59.32-1.43a25.15,25.15,0,0,1-4-.17C275,292.29,264.9,293.51,254.81,292.88ZM134.17,334.73c0,2.46,1.61,2.64,2.77,3,3.65,1.09,7.34,2.06,11,3q26.47,6.82,52.95,13.63c4.62,1.2,8.05-.09,10.48-4.11q11-18.12,21.95-36.22c3-5,6-10,9-15,.66-1.09,1-2.1,0-3.17a2.31,2.31,0,0,0-2.73-.51c-.63.22-1.25.46-1.87.69q-10.28,3.78-20.56,7.57Q187,314.8,157,326C149.37,328.85,141.61,331.29,134.17,334.73Zm-8.7-5.33c-7.3-39.49-14.66-79.24-22-118.94-1.38.12-1.25.92-1.37,1.5-.87,4.38-1.74,8.76-2.58,13.14-1.79,9.43-3.59,18.86-5.34,28.3-2.29,12.36-4.51,24.74-6.81,37.1-2,10.57-4.05,21.12-6,31.68-.6,3.18,0,4,3.23,4.89.8.21,1.58.54,2.39.69,9.27,1.73,18.62,3.13,27.8,5.27C119.34,334.1,122.67,333.39,125.47,329.4Zm299.64,15.45c-16.55,1.12-32.92,1.75-49.05,3.56-2.26,10.5-10.46,16.24-21,10.38l-16.82,15.68c.51,1.95.93,3.52,1.46,5.53l50.71,12c2.61-2.67,5.22-5.47,9.46-3.25l27.84-40ZM92.86,427.94l74,27c3-1.48,3.34-3.31,2.36-6.23-5.4-16-10.86-32.07-15.61-48.31-1.48-5.09-3.78-8.06-8.72-9.23a8.6,8.6,0,0,0-1.12,0Zm63.8-44.78c-.67,2.37.3,4.84-1.3,6.19-3.36,2.85-2,5.87-1,9,3.77,11.5,7.49,23,11.24,34.53,1.85,5.68,3.74,11.34,5.59,17,.34,1,.88,1.85,2.08,1.72.92-.11,1.32-.84,1.62-1.67,1-2.66,2-5.28,2.92-7.94q13.89-39.71,27.75-79.4a3.31,3.31,0,0,0-.17-3.25ZM374.18,294.3c-1.08-.39-2.14-.83-3.24-1.17l-67.4-21.08c-9-2.82-18-5.6-27.06-8.42-1.43-.45-3.14-1.31-4.22-.05-2.37,2.79-5.48,2.75-8.62,2.64-4.19,6.64-8,13.19-11.64,20,1.7,1.38,1.94,3.33,3.06,4.69,6.14.36,12.11.47,18.07.82,12.09.7,24.23.75,36.35,1,17.27.39,34.52,1.69,51.81,1.36a9.79,9.79,0,0,1,3,.21C367.54,295.24,370.85,294.68,374.18,294.3Zm-198.9-39.71,66.56,33.21c2.06-3.29,5.37-2.94,8.58-3,4.44-6.16,7.72-12.88,11.78-19.44a16.75,16.75,0,0,1-2.7-5,15.42,15.42,0,0,0-6.59-1.27c-7.5.3-14.9-1-22.37-1.35a97.3,97.3,0,0,1-12.88-1c-6.07-1.09-12.22-1.08-18.32-1.53C191.44,254.72,183.54,253.59,175.28,254.59ZM220.7,491.48c.65-2.93,1.25-5.65,2-8.88l-44.06-21.15-4.25,3.25v30.92Zm40.07-98.15,0,.39H388.22a55,55,0,0,0-10.47-3c-11.29-2.62-22.54-5.41-33.8-8.15-2.45-.6-4.74-1.17-6.78,1.27-1.2,1.44-3.22,1.44-5.11,1.45-2.92,0-4.24-2.22-5.69-4Zm-94,63.49c-17.85-7.59-69.49-25.89-73.84-26.06,1.85,7.95,4.17,15.62,6.59,22.94,3.62.43,6.59,1.14,9.55,1.08,11.83-.27,23.59,1.13,35.4,1.2,4.48,0,9-.11,13.43.74C160.58,457.23,163.44,456.82,166.76,456.82ZM90.22,429.59c-6.12,2.48-11.79,4.77-17.45,7.08s-11.41,4.58-17.06,7C50.24,446,44.46,447.74,39.1,451a3.62,3.62,0,0,0,2.88.91c12.32-.34,24.57,1.54,36.9,1.16a14,14,0,0,1,3.48.26c4.94,1.08,9.9.47,15.46.56C94.76,445.83,93.82,437.6,90.22,429.59Z"/><path d="M510.07,112c-2-1.22-3.12-.39-4.34,1.49-5.78,8.92-11.75,17.73-17.62,26.59q-12.39,18.69-24.74,37.41c-.9,1.35-1.46,3-3.28,3.49.71-4.3,4-7.2,6.16-10.61,9.65-14.94,19.58-29.69,29.42-44.51,2.85-4.29,5.75-8.54,8.58-12.83a4.67,4.67,0,0,0,1.12-3.6c-.65-4.05-.49-4.08,3.15-6.87,1.09-1.69-.35-4.09,1.55-5.56Z"/><path d="M342.07,599c1.69-3,4.81-4.51,7.27-6.66,8.35-7.33,17-14.37,25.46-21.52A2.5,2.5,0,0,1,377,570c-.91,2.48-3.19,3.72-5,5.29-7.78,6.67-15.71,13.17-23.49,19.83-1.49,1.27-3.46,2-4.46,3.85Z"/><path d="M350.05,584c.19,2-1.48,2.8-2.54,4-3.43,3.72-6.95,7.36-10.44,11h-2C339.83,593.78,344.31,588.27,350.05,584Z"/><path d="M506.09,139c.26-2.52,2-3.85,4-5v2C508.45,136.6,508,138.71,506.09,139Z"/><path d="M507.09,233c-.07-2.29,1.72-3.48,3-5v3C508.82,231.28,508.49,232.94,507.09,233Z"/><path d="M156.78,539.35a150.26,150.26,0,0,1-17-14c.19-.21.38-.42.56-.64a143.35,143.35,0,0,1,17,14C157.17,538.89,157,539.11,156.78,539.35Z"/><path d="M504.09,237a4.07,4.07,0,0,1,3-3.95A4,4,0,0,1,504.09,237Z"/><path d="M488.1,160a2,2,0,0,1,.46-1.84q7.9-9.09,15.85-18.16a2.08,2.08,0,0,1,1.64-.94c-.33,3.1-3.07,4.5-4.76,6.61-3.59,4.46-7.46,8.7-11.24,13C489.53,159.26,489.05,160,488.1,160Z"/><path d="M457.09,196c.94-3.91,4.52-5.91,6.66-9,1.35-1.93,2.82-4.1,5.3-5,0,.32.13.77,0,1C465.19,187.45,462.1,192.6,457.09,196Z"/><path d="M475.09,175c1.18-3.64,3.93-5.91,7-7.95C480.88,170.7,478.08,172.92,475.09,175Z"/><path d="M482.09,167c.77-3.35,3.27-5.22,6-6.94C487.24,163.37,484.75,165.25,482.09,167Z"/><path d="M469.09,182c.74-3.38,3.33-5.18,6-6.95C474.31,178.41,471.71,180.21,469.09,182Z"/><path d="M451.1,203c.77-3.35,3.27-5.22,5.95-6.94C456.26,199.37,453.75,201.23,451.1,203Z"/><path d="M377.1,570c.26-1.66,1.65-2.5,2.79-3.32,3.43-2.48,5.94-6.2,10.15-7.64A38.53,38.53,0,0,1,377.1,570Z"/><path d="M351.09,446c-.26-1.8,1.22-2.61,2.16-3.69,4.23-4.88,8.44-9.77,12.76-14.57,7.53-8.38,15.12-16.69,22.7-25,.65-.71,1.16-1.66,2.33-1.66.24,1.14-.49,1.85-1.15,2.59-6.77,7.49-13.57,15-20.3,22.49-4,4.44-7.73,9.06-11.75,13.46C355.76,441.86,354,444.56,351.09,446Z"/><path d="M318.09,483c-.23-1.14.49-1.86,1.15-2.6q9.76-10.87,19.56-21.74c2.87-3.19,5.69-6.43,8.59-9.61.75-.82,1.34-1.94,2.68-2a3.12,3.12,0,0,1-1.16,2.61q-8.4,9.43-16.81,18.87c-3.53,3.93-7.06,7.87-10.65,11.74C320.47,481.28,319.69,482.65,318.09,483Z"/><path d="M446.08,451c2.16.7,3.27,2.65,4.65,4.18,4.59,5.12,9,10.37,13.53,15.57A2.4,2.4,0,0,1,465,473c-1.49-.15-2.15-1.43-3-2.36-5.11-5.75-10.15-11.57-15.21-17.37A2.56,2.56,0,0,1,446.08,451Z"/><path d="M439.09,443c3,2.08,5.83,4.27,7,8C443.07,448.92,440.24,446.71,439.09,443Z"/><path d="M433.09,436c2.65,1.75,5.21,3.57,6,6.94C436.41,441.23,433.86,439.39,433.09,436Z"/><path d="M350.07,447c0-.65.29-1,1-1C351.06,446.7,350.73,447,350.07,447Z"/><path d="M348,189c-.75,2.37-2.9,3.53-4.57,5-7.52,6.69-15.18,13.22-22.78,19.82a3.25,3.25,0,0,1-2.62,1.14c.06-1.35,1.2-1.93,2-2.66,6.84-6,13.72-11.88,20.58-17.83,1.37-1.19,2.66-2.48,4-3.67C345.67,190,346.47,188.79,348,189Z"/><path d="M318.07,215c-.2,1.47-1.47,2.12-2.41,3-5.75,5.1-11.56,10.15-17.35,15.21a2.53,2.53,0,0,1-2.21.8c0-1.34,1.18-1.92,2-2.64q8.83-7.82,17.74-15.56A2.54,2.54,0,0,1,318.07,215Z"/><path d="M302.05,490c-2.92-1.91-3.85-5.22-5.42-8q-16.28-28.73-32.27-57.59c-1.65-3-3.91-5.77-4.28-9.37,1.6.28,1.84,1.75,2.46,2.85q15.7,27.9,31.35,55.83c2.43,4.33,4.8,8.69,7.15,13.06C301.58,487.75,302.38,488.71,302.05,490Z"/><path d="M416.05,219c-.94.14-1.48-.42-2.07-1q-14.5-15.3-29-30.57c-1.19-1.27-3-2.2-2.9-4.37,1.14.06,1.7,1,2.38,1.66q15,15.68,30.06,31.37C415.3,216.86,416.27,217.61,416.05,219Z"/><path d="M382.07,183c-1.39.07-2.06-.57-2-2A2,2,0,0,1,382.07,183Z"/><path d="M417.05,220c-.69.05-1-.28-1-.95C416.76,219,417.08,219.31,417.05,220Z"/><path d="M289.09,334c1.13,0,1.69.94,2.37,1.62q12.87,13,25.7,26.05c.9.91,2.11,1.69,1.88,3.27-1.14,0-1.69-.93-2.36-1.61Q304,350.52,291.31,337.65C290.32,336.64,288.85,335.84,289.09,334Z"/><path d="M254.09,298c1.3.11,1.91,1.2,2.7,2q11.86,12,23.66,24c1.11,1.13,2.74,2,2.59,4-.46-.12-1.08-.08-1.37-.37Q268.78,314.5,256,301.32C255.07,300.4,253.83,299.62,254.09,298Z"/><path d="M284.09,329c2.55.09,3.14,2.14,4,4C285.51,332.88,284.88,330.88,284.09,329Z"/><path d="M320.09,366A6.47,6.47,0,0,1,324,370C321.64,369.74,320.42,368.34,320.09,366Z"/><path d="M283.1,328c.68,0,1,.28.94,1C283.38,329,283,328.72,283.1,328Z"/><path d="M288.09,333c.69,0,1,.26,1,1C288.34,334,288.05,333.7,288.09,333Z"/><path d="M319.1,365c.71-.08,1,.26.94.94C319.35,366,319,365.74,319.1,365Z"/><path d="M111.1,209a3.93,3.93,0,0,1,4,3A4.17,4.17,0,0,1,111.1,209Z"/><path d="M56,401c-1.12.27-1.86-.42-2.65-1-5.49-4.22-11-8.4-16.47-12.67-1.11-.88-2.5-1.65-2.83-3.26a2.17,2.17,0,0,1,1.85.47q9.2,7.1,18.38,14.21C55.07,399.3,56,399.84,56,401Z"/><path d="M34,384a17.32,17.32,0,0,1-8.95-7A18,18,0,0,1,34,384Z"/><path d="M210.1,427c3-4.72,7.89-7.38,12-10.89,1.78-1.53,3.07-4.07,6-4.06-.42,2-2.2,2.83-3.51,4-4,3.49-8.11,6.8-12.19,10.18A2.61,2.61,0,0,1,210.1,427Z"/><path d="M228.09,412c1.39-2.37,3-4.45,5.95-5C232.67,409.41,231.05,411.5,228.09,412Z"/><path d="M234.1,407c1.36-2.39,3-4.47,5.94-5C238.67,404.4,237,406.47,234.1,407Z"/><path d="M324.09,520c1.35.08,1.93,1.21,2.61,2.07q9.49,12,18.91,24a2.16,2.16,0,0,1,.44,1.85c-3.2-1.44-4.49-4.69-6.55-7.15-5.07-6-9.8-12.36-14.68-18.56A2.6,2.6,0,0,1,324.09,520Z"/><path d="M199.1,529c3.41-4.27,6.81-8.55,11.94-11C207.64,522.32,204.17,526.52,199.1,529Z"/><path d="M212.09,517c3-4,6.24-7.79,10.95-10C220,511.31,215.27,515.62,212.09,517Z"/><path d="M211.1,518c-.06-.7.28-1,1-1C212.09,517.7,211.79,518,211.1,518Z"/><path d="M416,328c-1.14.23-1.86-.5-2.56-1.18q-7.43-7.21-14.8-14.49a4.37,4.37,0,0,1-.6-1.29,2.86,2.86,0,0,1,2.58,1.15q7.43,7.24,14.81,14.52A4,4,0,0,1,416,328Z"/><path d="M397.05,310c-.67,0-1-.28-1-1C396.76,309,397.08,309.32,397.05,310Z"/><path d="M398.06,311c-.66,0-1-.29-1-1C397.76,310,398.08,310.32,398.06,311Z"/><path d="M417,329c-.67,0-1-.29-1-1C416.75,328,417.09,328.3,417,329Z"/><path d="M418,330c-.65,0-1-.28-.94-1C417.77,329,418.09,329.3,418,330Z"/><path d="M166,463c0,1-.73,1.46-1.36,1.92q-11.15,8.21-22.32,16.35a2.85,2.85,0,0,1-2.28.69c.65-2.35,2.95-3,4.6-4.2,5.78-4.37,11.64-8.63,17.52-12.86C163.34,464.1,164.29,462.7,166,463Z"/><path d="M140.06,482c-.63,2.14-2.7,2.74-4.23,3.89-5,3.73-10.06,7.37-15.1,11-.78.57-1.53,1.29-2.64,1,.58-2.17,2.66-2.76,4.19-3.9,5-3.73,10.07-7.4,15.12-11.09C138.19,482.42,138.94,481.72,140.06,482Z"/><path d="M84.1,332c3,2.06,5.85,4.22,7,7.94C88.08,337.9,85.25,335.7,84.1,332Z"/><path class="cls-1" d="M108.57,202c9-1,18-1.92,27-3,17.34-2.11,34.66-4.35,52-6.47,12.66-1.56,25.36-2.81,38-4.57,14.65-2,29.34-3.6,44-5.47,7-.88,14-1.74,21-2.53,14.69-1.66,29.34-3.61,44-5.45l32-4"/><path class="cls-1" d="M427.07,227.5c-.69-1.78-.47-3.65-.5-5.5-.14-8.35-1.1-16.66-1.4-25-.25-6.84-.79-13.66-1.13-20.49-.38-7.68-1.26-15.33-1.38-23-.11-6.52-.79-13-1-19.5-.46-11.68-1.31-23.33-2-35-.45-7.16-.62-14.33-1-21.49-.6-10.34-1.35-20.67-2-31-.4-6.66-.55-13.34-1.05-20-.46-6.17-.18-12.4-1.46-18.51"/><path class="cls-1" d="M309.57,497c6.66.5,13.33,1.27,20,1.43,5.86.14,11.67.72,17.5,1.09,6.67.43,13.33,1.27,20,1.4,6.19.12,12.34.69,18.5,1.09,9.5.64,19,1.36,28.5,2,6.16.4,12.34.62,18.5,1,9.17.61,18.33,1.35,27.5,2,5.83.4,11.66.68,17.5,1l9,.5"/><path class="cls-1" d="M297.07,575c-2.5-9.33-5.06-18.65-7.49-28-4.94-19-10.17-37.95-15.17-56.95-4.91-18.69-9.86-37.38-15-56-2.86-10.36-5-21-8.8-31.05a4.33,4.33,0,0,1,.48-3"/><path class="cls-1" d="M370.07,170c.63-4.79,2.3-9.34,3.52-14,2.59-9.85,5.33-19.67,8-29.51,5.68-21.16,11.3-42.34,17-63.49,4.6-17,9.32-34,14-51,.22-.81-.42-1.81.51-2.5"/><path class="cls-1" d="M269.57,259c22.84-4.11,45.67-8.3,68.52-12.36,17.32-3.09,34.61-6.32,52-9.18,10.54-1.74,21-4,31.51-6"/><path class="cls-1" d="M108.57,205c12.5,4.17,25.05,8.18,37.47,12.58,5,1.78,10,3.83,15,5.4,11.44,3.52,22.68,7.67,33.93,11.68,21.15,7.56,42.53,14.46,63.56,22.34"/><path class="cls-1" d="M249.07,392.5a33.83,33.83,0,0,1-.48-4q-.3-28.49-.51-57c-.07-11.49,0-23,0-34.5"/><path class="cls-1" d="M253.57,292c9.5.17,19,.17,28.5.55,11.16.44,22.33.7,33.5,1,11.5.34,23,.71,34.5,1,8.83.22,17.65,1,26.5.91"/><path class="cls-1" d="M259.57,394c.68.93,1.66.48,2.5.48q62.49,0,125,0c.83,0,1.82.45,2.5-.48"/><path class="cls-1" d="M127.07,333.5c-2.84-15.66-5.63-31.34-8.51-47-3.29-17.84-6.66-35.67-10-53.5l-4.5-24"/><path class="cls-1" d="M122.07,335l-42.49-7.88c.51-3.85,1.39-7.51,2.12-11.09,3.59-17.62,6.6-35.35,9.89-53C94,250.16,96.68,237.36,99,224.49c.94-5.18,1.42-10.44,3.06-15.49"/><path class="cls-1" d="M133.07,334c16-5.79,32-11.72,48-17.61,18.85-6.95,37.62-14.1,56.52-20.92,2.34-.85,4.46-2.27,7-2.47"/><path class="cls-1" d="M434.57,220.5c.8-3.33,3.24-5.73,5-8.47q14.89-22.82,30-45.52c9-13.52,18-27,27-40.51,3.53-5.31,7-10.66,10.51-16"/><path class="cls-1" d="M376.07,294c-16.63-5.28-33.31-10.4-50-15.63-13.17-4.14-26.4-8.13-39.53-12.4-5.63-1.83-11.25-3.62-17-5"/><path class="cls-1" d="M494.07,501.5c-2.17-7-4.32-14-6.51-21q-9.22-29.5-18.48-59c-2.39-7.65-4.68-15.33-7-23"/><path class="cls-1" d="M12.07,362.5c12.83-.33,25.68-.45,38.49-1.1,4.84-.25,9.67-.3,14.51-.38,12-.22,24-1.14,36-1.11,2.3,0,4.65-.39,7-.41"/><path class="cls-1" d="M489.07,500.5Q480,490,471,479.61c-5.42-6.23-11-12.37-16.3-18.68-7.32-8.68-15.13-16.93-22.19-25.84-2.61-3.3-5.56-6.42-8.4-9.58-6-6.69-11.92-13.45-17.53-20.48a71.16,71.16,0,0,0-5.46-5.53"/><path class="cls-1" d="M352.07,343c-6.22-3.88-13-6.79-19.57-9.84-12.26-5.67-24.17-12-36.4-17.72-13-6.05-25.7-12.59-38.53-18.94-1.53-.77-3-1.66-4.5-2.5"/><path class="cls-1" d="M259.07,258.5c-7.71.61-15.33-.79-23-1.08s-15.34-1.24-23-1.92c-9.83-.87-19.71-1.17-29.51-2.43-3.29-.42-6.68.09-10-.57"/><path class="cls-1" d="M174.07,455.5c2.59-9.36,6.37-18.32,9.51-27.49,4.46-13,8.88-26,13.53-39,3.11-8.68,5.56-17.62,9.43-26,.35-.75-.4-1.8.53-2.49"/><path class="cls-1" d="M271.57,255l95-82"/><path class="cls-1" d="M303.07,494.5a16.32,16.32,0,0,0-2.45-7c-5.78-10.1-11.38-20.31-17.05-30.47q-6-10.75-12-21.51c-6.38-11.47-13.1-22.75-19-34.48-.52-1-2-1.33-2.42-2.54a3,3,0,0,0-2.1,3c-.5,10-1.53,20-2.31,30-.59,7.48-1.3,15-1.68,22.48-.31,6.18-1,12.34-1.46,18.5"/><path class="cls-1" d="M509.57,27.5c-8.84-2.16-17.66-4.38-26.5-6.48q-26.49-6.32-53-12.52c-4.17-1-8.34-2-12.5-3"/><path class="cls-1" d="M309.57,493c2.35-4.5,6.5-7.52,9.67-11.35,3.43-4.15,7.11-8.19,10.79-12.18,7.29-7.89,14.5-15.85,21.47-24,2.84-3.33,5.89-6.47,8.69-9.85,6.62-8,14.19-15.17,20.76-23.19,3.75-4.59,8.53-8.27,11.62-13.41"/><path class="cls-1" d="M91.57,426.5c2.5-9.66,5-19.32,7.49-29,2.54-10,5.14-20,7.4-30,.45-2,1.56-3.6,2.11-5.48"/><path class="cls-1" d="M111.07,359.5c29.83-.76,59.68-1.21,89.5-2.5"/><path class="cls-1" d="M452.07,291.5c-4.73,1.48-9.66,1.19-14.5,1.47-8.33.47-16.67.64-25,1s-16.67,1-25,1.48"/><path class="cls-1" d="M430.57,226c2.48-4.12,6.57-6.73,9.64-10.38,9.89-11.75,20-23.31,29.9-35.08,7.29-8.68,15-17,22.43-25.56,5.79-6.72,11.36-13.64,17-20.48"/><path class="cls-1" d="M405.57,548c5.17-.93,9.69-3.66,14.45-5.62,13.31-5.47,26.36-11.59,39.56-17.36,8.62-3.76,17.31-7.37,26-11a28.8,28.8,0,0,1,4-1"/><path class="cls-1" d="M390.57,546q-24.51-14.25-49-28.49c-9-5.2-18.11-10.15-26.92-15.62a22.46,22.46,0,0,0-8.07-2.89"/><path class="cls-1" d="M31.57,447c-2.78-7-4.27-14.35-6.48-21.5-2.44-8-4.66-16-7-24q-5-16.77-10-33.51"/><path class="cls-1" d="M298.57,575c1.63-7.57,1.69-15.33,2.44-23,1.07-10.83,1.75-21.69,3-32.5.63-5.47.71-11,1.05-16.5"/><path class="cls-1" d="M223.57,580l70,.5"/><path class="cls-1" d="M89.57,427c-8.84-6.83-17.72-13.59-26.49-20.51C47.8,394.43,32.15,382.82,17,370.64,15,369.1,13.43,367,11.07,366"/><path class="cls-1" d="M433.07,229l50-16q13.24-4.23,26.5-8.5"/><path class="cls-1" d="M168.07,456c-7.34-2.5-14.78-4.71-22-7.6q-6.24-2.52-12.56-4.86c-12-4.44-24-8.71-36-13-2-.71-4-1.34-6-2"/><path class="cls-1" d="M204.57,356.5c-.84,0-1.85.32-2.47,0-7-4.09-15-4.62-22.56-6.88-9.4-2.82-19-5.09-28.47-7.57-4.66-1.21-9.31-2.45-14-3.44a29.68,29.68,0,0,1-4-1.57"/><path class="cls-1" d="M259.57,393c9.33-1.83,18.62-3.92,28-5.42,8.69-1.39,17.23-3.55,26-4.64,4.88-.62,9.67-1.94,14.51-2.94"/><path class="cls-1" d="M130.07,331a218.29,218.29,0,0,1,10.2-21.39c5.66-10.93,10.5-22.26,16.28-33.11,3.26-6.12,6.35-12.33,9.52-18.5"/><path class="cls-1" d="M99.57,455.5c2.66-1.23,5.33-.08,8,0,6,.12,12,.11,18,.49,10.49.66,21,1.07,31.5,1.53,3.67.16,7.36-.27,11,.51"/><path class="cls-1" d="M173.07,463.5V496"/><path class="cls-1" d="M220.07,574.5c1.12-6.8,3.34-13.33,5-20q4.73-19,9.5-38l2.5-10"/><path class="cls-1" d="M172.07,455.5c-1.78-7.28-4.46-14.29-6.65-21.45-4.1-13.4-9.15-26.51-12.88-40a11.5,11.5,0,0,0-1.47-2.51"/><path class="cls-1" d="M106.57,499c-2.7-3.24-6.66-4.71-10.06-6.9-15-9.71-30.24-19.15-45.46-28.56-4.41-2.73-8.79-5.48-13-8.54"/><path class="cls-1" d="M295.07,575.5c-5.84-9.16-11.72-18.3-17.49-27.5-8.21-13.08-16.2-26.3-25-39-.25-.37.07-1.12-.53-1.48"/><path class="cls-1" d="M242.07,289c-8.5-4.33-17-8.72-25.51-13-14.14-7-28.33-14-42.49-21"/><path class="cls-1" d="M177.57,454c5.66-4.66,11.3-9.37,17-14,7.37-6,14.71-12,21.87-18.16,9.66-8.33,20-15.94,29.12-24.86"/><path class="cls-1" d="M375.07,347.5c3.59-1.14,7.34-.52,11-.87,11.47-1.12,23-1.35,34.49-2.59a61.23,61.23,0,0,1,6.5,0"/><path class="cls-1" d="M12.57,360c4.65-3.19,10-5,15-7.45,14.77-7.3,29.66-14.34,44.46-21.58,2.48-1.22,4.76-2.86,7.52-3.47"/><path class="cls-1" d="M361.07,567.5c-2.55-4.33-6-8-9-12-10.45-13.54-21.24-26.81-31.63-40.41-3.55-4.65-6.89-9.64-11.35-13.61"/><path class="cls-1" d="M38.07,452.5c11.17.44,22.34.77,33.5,1.38,5.82.32,11.66.65,17.5.63a45.1,45.1,0,0,1,9.5.49"/><path class="cls-1" d="M402.07,394.5c13,.17,26,.17,39,.59,4.83.16,9.66.39,14.5.41"/><path class="cls-1" d="M304.07,580c6.77-1.54,13.64-2.47,20.49-3.53,11-1.71,22-3.54,33-5.57,1.37-.26,2.7-.13,4-.4"/><path class="cls-1" d="M209.07,356q7.74-13,15.5-26c5.31-8.85,10.67-17.67,16-26.51,1.2-2,2.34-4,3.51-6"/><path class="cls-1" d="M173.57,547c-.66-15.66-.49-31.33-.48-47a8.24,8.24,0,0,0-.52-3"/><path class="cls-1" d="M479.57,567c2.66-8.83,5.38-17.65,8-26.5,2.25-7.64,4.35-15.33,6.52-23"/><path class="cls-1" d="M335.57,380q24.75,5.76,49.49,11.52c1.54.36,3,1,4.51,1.48"/><path class="cls-1" d="M162.57,248c-6.37-5.39-13.29-10.05-20-15-10.29-7.67-20.34-15.65-30.56-23.41a26,26,0,0,1-3.47-2.55"/><path class="cls-1" d="M385.57,290c2.14-1.8,3.41-4.26,5-6.49,9.93-13.94,19.16-28.36,29.48-42a55.57,55.57,0,0,0,3-5"/><path class="cls-1" d="M471.07,281.5c9.83-13.16,19.7-26.3,29.48-39.51,3-4,5.72-8.21,9-12,.24-.29,0-1,0-1.48"/><path class="cls-1" d="M38.07,450c9-3.66,18.06-7.18,27-11,8.64-3.74,17.58-6.75,26-11"/><path class="cls-1" d="M168.57,549c-5.36-5.41-11.67-9.68-17.4-14.61-6.29-5.4-12.92-10.38-19.07-15.92-4.75-4.27-10.22-7.7-14.53-12.47"/><path class="cls-1" d="M155.07,383c8.5-4.16,17-8.36,25.5-12.49q11.48-5.55,23-11c.77-.36,1.38-.63,1.48-1.54"/><path class="cls-1" d="M118.07,498l50-36.5"/><path class="cls-1" d="M117.57,502c5.83-.66,11.65-1.45,17.5-2,10.33-.92,20.69-1.44,31-2.6,10-1.12,20-1.94,30-2.92,8.66-.85,17.33-1.67,26-2.51"/><path class="cls-1" d="M342.57,598.5c4.84-2.1,7.9-6.45,11.91-9.61,10.21-8.06,19.88-16.79,30-24.93,2.57-2.06,4.69-4.69,7.54-6.46"/><path class="cls-1" d="M178.07,460c6,3.8,12.69,6.29,19,9.48,8.45,4.26,17.26,7.8,25.51,12.48a16,16,0,0,0,4,1"/><path class="cls-1" d="M328.57,375c-13.49-14.83-27.91-28.75-41.9-43.09-1.2-1.23-2.43-2.57-3.6-3.91"/><path class="cls-1" d="M178.07,548.5c11.57-11.11,23.52-21.82,35.45-32.55,4.38-3.94,8.45-8.23,13-12"/><path class="cls-1" d="M458.07,282q-11.25-18.75-22.52-37.49c-1.74-2.89-3.65-5.67-5.48-8.51"/><path class="cls-1" d="M415.07,218c-1.05-2.07-3-3.36-4.51-5q-14.47-15.27-29-30.51c-2.84-3-5.67-6-8.5-9"/><path class="cls-1" d="M111.07,497c-3.16-9.73-5.77-19.63-8.54-29.49-3-10.71-6.33-21.33-9.43-32a52.21,52.21,0,0,1-1-6"/><path class="cls-1" d="M400.07,390l28.5-41"/><path class="cls-1" d="M440.57,598.5c-7.07-7.79-13.85-15.84-20.6-23.92-2.71-3.24-5.46-6.52-8.45-9.53a70.59,70.59,0,0,1-5.45-6.55"/><path class="cls-1" d="M427.57,339l-40.5-38.5"/><path class="cls-1" d="M367.07,337c4.19-11.71,8.16-23.51,13-35a2.77,2.77,0,0,0,0-1"/><path class="cls-1" d="M186.07,598c-3.34-12.16-6.6-24.35-10.11-36.47-.33-1.16.21-2.58-.89-3.53"/><path class="cls-1" d="M221.07,582c9.26,3,17.75,7.82,26.51,12,3.3,1.57,6.35,3.71,10,4.52"/><path class="cls-1" d="M246.57,393c-7.22-7.79-15.54-14.44-23.12-21.88-4.19-4.11-8.69-8-12.88-12.12"/><path class="cls-1" d="M214.07,577q-16.5-9.75-33-19.51c-1.12-.66-1.57-2.18-3-2.49"/><path class="cls-1" d="M436.07,337l21.5-35"/><path class="cls-1" d="M399.57,581V559.5"/><path class="cls-1" d="M112.07,362c9.87,6.28,19.9,12.31,29.51,19a14.85,14.85,0,0,0,2,1"/><path class="cls-1" d="M282.07,327c-4.84-6-10.69-11-16-16.48-4.59-4.74-9.32-9.35-14-14"/><path class="cls-1" d="M106.07,356.5c-8.67-8.72-16.45-18.23-24.5-27.5"/><path class="cls-1" d="M335.57,598.5c5.35-4.82,10.62-9.67,15.09-15.42,3-3.88,6.91-7.08,10.41-10.58"/><path class="cls-1" d="M366.57,568c7.16-3.66,14.29-7.4,21.54-10.92,1.16-.56,1.53-2.05,3-2.08"/><path class="cls-1" d="M251.07,285.5l12-20"/><path class="cls-1" d="M464.07,389.5c4.34-5.58,7.47-11.91,11-18"/><path class="cls-1" d="M337.07,374.5l17-17"/><path class="cls-1" d="M497.57,595c-4.93-4.43-8.43-10.19-13.5-14.5-.78-.66-.38-2-1.5-2.5"/><path class="cls-1" d="M404.07,589q7.74,4.75,15.51,9.49c.24.14.65,0,1,0"/><path class="cls-1" d="M111.07,356.5c1.4-3.41,4.57-5.45,6.66-8.38a70.94,70.94,0,0,1,5.84-7.12"/><path class="cls-1" d="M303.57,598.5q-1.76-6.24-3.5-12.5"/><path class="cls-1" d="M207.07,598l8-12.5"/><path class="cls-1" d="M249.57,395c2.78-1.81,6.11-.35,9-1.5"/><path class="cls-1" d="M422.57,226q-3.26-3.5-6.5-7"/><path class="cls-1" d="M509.07,103.5c1.05-1.92.26-4,.5-6"/></g></g></svg>