<?xml version="1.0" encoding="UTF-8"?>
<svg width="465px" height="17px" viewBox="0 0 465 17" version="1.1" xmlns="http://www.w3.org/2000/svg" xmlns:xlink="http://www.w3.org/1999/xlink">
    <title>Path</title>
    <g id="Page-1" stroke="none" stroke-width="1" fill="none" fill-rule="evenodd" stroke-linecap="round" stroke-linejoin="round">
        <g id="guvuk-acc-Asset-1" transform="translate(-589.490000, -1.949019)" stroke="#000000" stroke-width="2">
            <path d="M1053.49,11.7190189 C1049.36,12.3790189 1045.25,13.4890189 1041.11,13.6390189 C1026.03,14.1690189 1010.94,14.8490189 995.86,14.6390189 C979.63,14.3590189 963.42,12.9790189 947.2,12.2990189 C934.68,11.7790189 922.15,11.4690189 909.63,11.2990189 C897.4,11.1390189 885.15,10.9590189 872.92,11.2990189 C856.12,11.8290189 839.34,12.8990189 822.55,13.7190189 C815.15,14.0790189 807.75,14.4290189 800.35,14.7190189 C782.28,15.4090189 764.21,16.1190189 746.14,16.7190189 C733.05,17.1490189 719.95,17.7990189 706.87,17.6290189 C692.63,17.4390189 678.38,16.8190189 664.19,15.6290189 C651.77,14.5690189 639.4,12.5690189 627.05,10.7090189 C617.49,9.26901887 607.97,7.46901887 598.44,5.70901887 C595.86,5.22901887 593.32,4.39901887 590.76,3.70901887" id="Path"></path>
        </g>
    </g>
</svg>