<?xml version="1.0" encoding="UTF-8"?>
<svg width="514px" height="543px" viewBox="0 0 514 543" version="1.1" xmlns="http://www.w3.org/2000/svg" xmlns:xlink="http://www.w3.org/1999/xlink">
    <title>life-with-baby</title>
    <g id="Page-1" stroke="none" stroke-width="1" fill="none" fill-rule="evenodd">
        <g id="life-with-baby" transform="translate(1.000000, 2.233422)" stroke="#000000" stroke-width="3">
            <path d="M512,409.766578 C344.733333,409.766578 615.816667,409.946578 448.55,409.846578 C443.63,409.846578 438.71,412.636578 433.79,409.996578 L512,409.766578 Z" id="Path"></path>
            <path d="M356.31,171.556578 C357.52,181.846578 366.65,179.256578 372.12,180.556578 C377.2,181.806578 380.88,175.836578 383.12,170.556578 C386.46,162.556578 382.61,155.556578 380.23,148.556578 C376.62,137.876578 371.67,127.656578 368.56,116.846578 C365.887777,108.185518 364.53923,99.1704797 364.56,90.106578 C365.17,59.776578 351.03,37.036578 329.56,18.316578 C316.78771,7.05001059 300.48314,0.59538149 283.46,0.0665780275 C260.62,-0.933421972 243.07,9.37657803 230.09,27.956578 C219.09,43.696578 207.63,58.796578 192.09,69.956578 C173.09,83.606578 171.84,99.956578 177.3,120.766578 C179.66483,130.0833 184.295435,138.671217 190.78,145.766578 C180.92,156.066578 179.24,168.766578 180.19,182.116578 C180.71,189.466578 180.48,196.836578 181.25,204.226578 C181.86,210.106578 178.97,218.516578 173.48,223.036578 C170.38,225.586578 168.94,230.246578 164.48,230.956578" id="Path"></path>
            <path d="M120.17,356.376578 C125.079781,358.349298 130.665722,357.589306 134.87,354.376578 C160.82,334.876578 187.87,317.376578 218.54,305.886578 C203.65,297.796578 187.9,292.986578 176.26,279.936578 C164.89,267.196578 162.82,250.996578 158.69,233.436578 C136.69,254.376578 109.33,261.926578 86.78,278.536578 C68.69,291.876578 61.95,310.226578 58.24,331.446578 C53.56,358.116578 56.38,385.256578 52.7,411.896578 C50.7,426.366578 47.36,440.656578 44.52,455.006578 C41.25,471.506578 41.12,488.126578 42.81,504.786578 C43,506.586578 46.12,507.186578 46.38,509.586578" id="Path"></path>
            <path d="M0,511.766578 C38.74,511.766578 -3.43,511.506578 35.31,511.506578 C42.7,511.506578 48.92,511.976578 56,517.646578 C71.44,530.016578 90.86,533.356578 110,536.646578 C119.91,538.336578 129.71,538.476578 139.55,538.186578 C147.55,537.946578 155.44,536.186578 160.21,527.896578 C154,517.516578 143.11,516.856578 134,515.766578 C107.11,512.436578 80,510.636578 52.88,511.576578 C52.56,511.576578 52.26,512.176578 51.95,512.496578 L0,511.766578 Z" id="Path"></path>
            <path d="M363.69,386.056578 C386.94,397.696578 409.89,400.056578 431.93,383.156578 C448.93,370.096578 453.05,353.496578 447.93,331.406578 C444.23,315.476578 439.21,300.406578 424.38,293.666578 C413.85,288.906578 401.69,282.606578 389.54,291.256578" id="Path"></path>
            <path d="M255.77,311.366578 C256.92,304.176578 262.53,296.566578 253.77,289.546578 C246.77,296.336578 250.08,305.996578 247.1,313.366578 C240.38,312.426578 245.04,304.366578 239.33,302.496578 C234.69,311.496578 236.27,321.626578 239.69,329.306578 C244.47,340.076578 256.86,335.776578 267,337.546578 C260.86,346.546578 253.34,345.846578 245.63,343.886578 C241.29,342.786578 236.4,341.126578 233.75,345.886578 C224.44,362.746578 214.37,379.406578 212.44,399.436578 C210.84,416.066578 222.69,429.706578 239.16,431.096578 C257.018452,432.634257 275.007299,430.857748 292.22,425.856578 C292.71,450.766578 295.86,475.446578 282.22,497.856578 C289.97,505.856578 298.85,501.716578 306.41,499.666578 C323.31,495.086578 340.62,491.386578 356.3,482.756578" id="Path"></path>
            <path d="M437.48,411.916578 C445,422.826578 453.11,433.196578 455.17,447.316578 C457.79,465.316578 450.56,477.316578 436.61,486.686578 C425.81,493.926578 413.61,497.406578 401.45,499.686578 C385.45,502.686578 369.08,504.476578 352.62,503.976578 C347.16,503.806578 341.93,503.326578 336.96,500.806578 C335.4,496.196578 342.23,495.806578 341.55,491.416578" id="Path"></path>
            <path d="M382.14,291.256578 C372.68,296.596578 366.19,307.036578 354.47,308.506578 C344.03,309.816578 335.09,315.066578 329.79,323.966578 C318.89,342.276578 322.32,362.466578 341.63,368.556578 C347.33,370.346578 353.41,373.076578 360.04,370.856578 C365.92,368.856578 371.71,369.696578 377.6,372.486578 C384.67,375.846578 395.79,370.656578 397.6,363.016578 C398.6,358.796578 399.93,353.266578 395.09,349.666578 C390.98,346.606578 386.93,344.086578 382.09,348.666578 C380.33,350.336578 376.22,349.136578 376.6,353.506578" id="Path"></path>
            <path d="M269.6,452.136578 C283.23,467.016578 277.2,491.276578 257.66,502.026578 C246.83,508.026578 234.92,507.366578 223.47,509.506578 C212.02,511.646578 200.57,512.356578 189.34,515.256578 C187.34,515.786578 185.04,515.256578 182.9,515.366578 C180.889199,515.50918 179.035665,514.276231 178.39,512.366578 C177.64,510.606578 178.53,508.926578 180.11,507.586578 C184.97,503.456578 191.01,503.136578 196.75,501.966578 C198.75,501.556578 200.95,502.236578 202.27,499.966578" id="Path"></path>
            <path d="M117.41,352.546578 C117.6,341.546578 114.48,332.226578 105.57,325.456578 C101.04,327.406578 101.73,332.346578 102.91,334.166578 C107.26,340.936578 107.6,350.966578 117.37,353.636578 C120.99,354.636578 119.06,358.496578 119.25,361.166578 C120.33,376.476578 121.82,391.756578 120.93,408.656578 C134.55,402.266578 146.6,396.226578 158.93,390.926578 C175.41,383.856578 193.02,383.076578 210.55,382.226578" id="Path"></path>
            <path d="M260.38,379.356578 C259.38,373.466578 260.44,364.546578 263.53,355.206578 C274.63,364.866578 278.81,377.786578 283.73,390.726578 C288.14,402.336578 288.8,414.726578 292.34,426.496578 C303.89,421.496578 315.54,418.076578 325.1,409.216578 C340.1,395.346578 333.8,378.866578 317.49,371.886578 C293.49,361.606578 254.23,377.956578 241.98,402.366578 C241.6,403.116578 241.93,404.256578 241.93,405.206578" id="Path"></path>
            <path d="M224.41,106.446578 C230.41,99.636578 235.25,92.216578 235.49,82.506578 C235.54,80.326578 235.95,77.756578 233.59,76.876578 C231.7,76.166578 229.82,76.876578 228.02,78.586578 C222.76,83.586578 219.71,94.236578 222.7,101.586578 C224.38,105.706578 222.56,109.956578 225.13,114.216578 C233.01,127.286578 247.55,131.546578 262.13,123.556578 C266.61,121.096578 271.63,119.276578 274.31,114.866578 C290.31,122.016578 306.17,122.116578 322.12,119.666578 C328.19,118.736578 332.4,117.786578 331.46,126.556578 C330.8,132.666578 334.02,137.776578 336.73,143.376578 C326.4,151.156578 323.73,164.726578 316.73,175.456578 C307.73,189.346578 296.05,200.086578 282.52,208.926578 C273.52,214.786578 264.05,213.246578 254.93,210.446578 C252.478679,209.744626 249.978408,209.226522 247.45,208.896578" id="Path"></path>
            <path d="M222.56,110.276578 C212.07,119.956578 208.02,131.166578 213.56,138.846578 C217.38,144.136578 216.56,148.106578 214.39,153.416578 C207.96,169.066578 202.33,185.076578 194.92,200.296578 C190.99,208.366578 187.39,216.746578 177.38,218.476578" id="Path"></path>
            <path d="M374.76,182.096578 C380.18,191.586578 386.55,200.096578 388.96,211.696578 C394.54,238.576578 382.03,259.556578 359.07,262.476578 C357.63,262.656578 357.24,263.816578 356.31,264.476578" id="Path"></path>
            <path d="M376.6,393.766578 C380.11,398.226578 378.46,402.296578 375.67,406.206578 C363.07,423.916578 345.47,434.206578 325.8,440.446578 C315.45,443.746578 304.8,447.106578 293.59,446.446578" id="Path"></path>
            <path d="M289,251.996578 C277.76,251.326578 268.85,256.106578 261.28,264.396578 C258.920548,266.671843 258.588405,270.333939 260.5,272.996578 C262.56,276.346578 265.75,275.216578 268.7,273.996578 C277.163303,270.563207 284.01012,264.048725 287.86,255.766578 C290.7,249.886578 294.58,249.456578 300.03,248.986578 C328.67,246.536578 350.03,262.306578 371.03,278.906578 C375.03,282.036578 378.45,285.906578 382.14,289.386578" id="Path"></path>
            <path d="M194.89,387.016578 C178.36,392.706578 161.79,398.246578 146.89,408.016578 C134.993784,415.94835 124.689284,426.039163 116.51,437.766578 C115.124686,439.709845 114.463114,442.076642 114.64,444.456578" id="Path"></path>
            <path d="M348,266.356578 C331,273.996578 323.33,290.276578 314.85,305.656578 C310.095604,314.69649 302.686716,322.063499 293.62,326.766578 C290.05,328.606578 286.5,330.516578 282.54,329.506578 C274.9,327.566578 272.24,336.506578 265.91,337.246578" id="Path"></path>
            <path d="M213.34,451.176578 C213.03,449.896578 213.05,447.756578 212.34,447.476578 C197.1,441.176578 185.47,426.876578 167.18,427.026578 C150.46,427.156578 135.28,431.256578 122.18,441.796578 C118.56,444.706578 114.37,444.106578 110.96,446.386578" id="Path"></path>
            <path d="M213.34,447.346578 C221.19,443.946578 227.5,449.866578 234.53,451.346578 C241.56,452.826578 248.13,451.706578 255.03,450.936578 C248.61,443.276578 239.59,441.806578 231.66,439.166578 C222.38,436.076578 213.03,433.456578 204.03,429.386578 C200.03,427.576578 194.23,425.386578 192.12,433.006578" id="Path"></path>
            <path d="M219.79,452.136578 C215.02,449.336578 211.31,453.966578 206.88,454.136578 C198.09,454.506578 189.62,452.636578 181.04,451.256578 C172.65,449.916578 163.76,447.326578 156.35,455.816578 C162.64,462.726578 171.91,460.676578 178.29,465.526578" id="Path"></path>
            <path d="M218,469.366578 C206.32,470.286578 194.72,471.366578 182.91,469.626578 C175.91,468.626578 168.76,468.626578 161.73,467.456578 C156.26,466.516578 153.02,469.556578 150.26,474.456578 C161.05,483.546578 173.99,483.886578 186.64,484.536578 C196.5,485.036578 206.37,485.056578 216.15,486.536578" id="Path"></path>
            <path d="M422.73,302.766578 C412.15,300.956578 400.94,308.486578 394.13,321.916578 C390.45,329.166578 389.13,337.196578 386.75,344.916578" id="Path"></path>
            <path d="M230.86,190.706578 C237.2,194.706578 241.29,201.636578 245.12,207.356578 C254.23,220.986578 267.24,227.206578 280.59,233.986578 C286.26,236.856578 294.42,238.406578 293.59,248.166578" id="Path"></path>
            <path d="M159.84,482.766578 C158.15,485.136578 153.64,485.306578 154.38,489.456578 C155.2,494.116578 159.11,491.676578 161.68,492.356578 C175.61,496.016578 190.37,492.866578 204.13,498.046578 C206.8,499.046578 209.65,495.556578 212.41,498.046578" id="Path"></path>
            <path d="M282.52,320.946578 C278.71,322.076578 274.94,322.786578 271.44,320.006578 C279.44,303.916578 279.44,303.916578 277.74,298.356578 C272.3,302.446578 265.82,305.126578 264.99,313.286578" id="Path"></path>
            <path d="M291.74,446.386578 C287,448.666578 282,448.316578 277,448.326578 C273.7,448.326578 270,447.326578 267.78,451.176578" id="Path"></path>
            <path d="M384,290.296578 C392.654398,294.442203 401.593802,297.964495 410.75,300.836578" id="Path"></path>
            <path d="M261.3,296.046578 C263.71,294.316578 263.05,289.846578 266.86,289.326578 C271.57,293.556578 266.24,299.166578 268.68,303.706578" id="Path"></path>
        </g>
    </g>
</svg>