<svg xmlns="http://www.w3.org/2000/svg" viewBox="0 0 798.58 608.37"><g id="Layer_2" data-name="Layer 2"><g id="Layer_1-2" data-name="Layer 1"><path d="M777.1,247.2l-45,25.58,66.5,23.75c-.05.4-.1.81-.16,1.21-6.87,1.17-13.73,2.37-20.61,3.51-20,3.28-40,6.45-59.92,9.87-7.51,1.28-7.29,1.54-7.5,9.27q-.85,31.11-2,62.21c-.56,15.57-1.31,31.14-1.95,46.7-.68,16.41-.86,32.85-2.19,49.19-.91,11.29-3.39,22.46-5.23,33.67-1.12,6.82-2.2,13.65-3.61,20.41a9.43,9.43,0,0,1-3,5.17c-7.27,5.7-14.65,11.28-22.27,16.51a8,8,0,0,1-6.55.74c-7.11-3.14-14.52-6.1-20.78-10.57-8.57-6.14-16.25-13.54-24.13-20.6-.61-.54-.21-2.86.39-4,5.33-10.28,10.83-20.47,16.22-30.71,1.35-2.57,2.77-2.66,5.12-1.06,3.13,2.13,6.58,3.79,9.87,5.7,2.91,1.69,5.09,1.39,7-1.71A78,78,0,0,1,665,481.08c5.09-5.71,2.28-12,1.71-18-1.19-12.62-3-25.18-4.67-37.76-2.81-21.54-5.25-43.09-11.42-64.09-7.05-24-13.08-48.31-19.53-72.49-1.49-5.57-3.09-11.12-4.23-16.77-1.28-6.36-7-8.54-11.09-12.07-6.87-5.92-14.26-11.24-21.58-16.62a10.11,10.11,0,0,0-5.44-1.89c-9.16-.2-18.33-.18-27.5-.08-6.27.06-8.16,6.19-12.29,9.24-.24.18-.26.65-.5.84-14,11.25-15.85,28.45-21.28,43.81-9.3,26.27-18.53,52.58-26.94,79.14-3.15,9.95-4,20.63-5.73,31-2.7,16.57-5.23,33.17-7.79,49.76-1.43,9.28-3.79,18.55-3.91,27.85-.12,9.55,1.84,19.14,3.12,28.67,1.73,12.89,3.65,25.76,5.57,38.63,1.69,11.35,3.47,22.68,5.19,33.82-2.66,6-5.93,12.13-8,18.61-1.66,5.19-4.66,6.07-9.31,5.58q-11.58-1.21-23.2-2c-12.06-.78-24.17-1-36.18-2.25-4.95-.52-9.7-3.08-14.52-4.78-13.49-4.78-27-9.6-41.21-14.67,3.16-6.06,6-11.74,9.05-17.33,5.52-10.17,11.2-20.25,16.71-30.43C395.32,527,400.61,517,405.75,507a13.23,13.23,0,0,0,1.2-5.72c.11-10.83.19-21.67,0-32.5-.2-13.61-.68-27.23-1-40.85-.1-5.57-2-9.27-7.69-11.6-14.64-6-29.09-12.56-43.47-19.2-4.89-2.26-9.19-3.05-14.57-1.06-32.33,11.94-65.63,20.69-99,29.17a6.91,6.91,0,0,0-4.11,2.85c-14.16,26.36-28.54,52.62-41.89,79.4-2.41,4.82-1,11.86-.43,17.78,1.16,11.63,3.06,23.19,4.53,34.79,1.19,9.49,2.21,19,3.28,28.51a13.39,13.39,0,0,1-.16,2,9.72,9.72,0,0,1-2,.54c-9.12.38-18.23.76-27.35,1.08-10.45.36-20.91.58-31.35,1.05-3.68.17-5-1.11-4.92-4.85.14-19.66-.45-39.35.31-59a107.82,107.82,0,0,1,5.09-27.63c4.38-14,2.68-27.52-.66-41.23-1.75-7.17-3.15-14.42-4.9-22.59-8.21,6-15.79,11.37-23.3,16.91-7,5.2-13.48,11.51-21.13,15.52-8.49,4.46-9.26,11.47-9.93,19.28-1.58,18.42-3.51,36.82-4.79,55.26-.4,5.87.78,11.85,1.3,17.77q1.2,13.56,2.5,27.12c.3,3.2-1,4.47-4.28,4.41q-36.68-.63-73.35-1c-2.81,0-4-1.15-3.78-3.89q1-13.86,1.87-27.71c.06-1,.08-2,.12-3,.67-17.4.61-34.87,2.22-52.19C5.87,489,9,471.63,11.77,454.23c2.94-18.71,6.1-37.38,9.26-56s6.51-37.29,9.66-55.95c3.19-18.83,6.12-37.71,9.37-56.53,5.68-32.92,10.8-65.95,20.44-98,1.8-6,2.81-12.21,4.64-18.18a18,18,0,0,1,4.32-7.5c6.77-6.58,13.87-12.82,20.92-19.11,8.16-7.26,15.69-15.53,24.74-21.45,23.63-15.44,48-29.76,71.95-44.71,5.85-3.65,11.68-.66,17.42-.53,9.2.22,18.38,1.71,27.56,2.67,12.14,1.28,24.27,2.58,36.41,3.82,7.56.77,15.11,1.57,22.69,2.07a12,12,0,0,0,5.65-1.42c24.59-11.86,49-24.16,73.74-35.62,23.9-11.05,44-27.92,66.39-41.31A25.61,25.61,0,0,1,448,3c7.46-.53,15-.07,22.49-.18q27.93-.42,55.85-1,21.68-.44,43.35-1C577.76.6,585.87,0,594,0a9.32,9.32,0,0,1,6,2.9c9.6,10.31,19,20.82,28.4,31.31,8.29,9.25,16.62,18.47,24.71,27.9,1.51,1.77,2.1,4.43,2.83,6.76,6.91,22,14,44,20.55,66.08,7.55,25.42,14.63,51,21.89,76.46,1.44,5.07,2.37,10.33,4.36,15.16.78,1.9,3.64,3.62,5.86,4.15,21.76,5.22,43.59,10.15,65.39,15.19A32.76,32.76,0,0,1,777.1,247.2Zm-360.7-222-1,1-23.55,15c3.51,2.76,5.68,2.61,8.17.21,5.19-5,10.68-9.74,16.05-14.58l1-1,.38-1Zm-240,438c-4.6,3.14-9.3,6.16-13.8,9.45-11.4,8.34-11.36,8.39-2.93,21.39l17.41-30.17.38-1.07Zm19,110.66,1,.38-.39-1c-2.14-18.52-4.28-37-6.6-57.13-5.38,4.48-9.29,7.94-13.42,11.11-3.73,2.86-4.14,5.88-1.58,9.73,1.83,2.73,3.3,5.71,4.92,8.58ZM470,218.22l-1.05-.39.4,1.06,38,49.08c2-4.91,3.32-8.24,4.71-11.54,3.5-8.34,3.56-8.4-4-13.38C495.45,234.72,482.73,226.49,470,218.22Zm167.36-10a13.56,13.56,0,0,0-2.48.14q-21.78,5.2-43.55,10.48c-5.61,1.36-11.23,2.69-18.4,4.41,6,4.12,10.83,7.2,15.4,10.57,3.08,2.27,5.7,2.43,8.94.17,4-2.83,8.46-5.1,12.66-7.69q14.06-8.66,28-17.39l1.41-1Zm16,145.63.72,2.34.83-.26c-.28-.9-.57-1.8-.86-2.69-.69-16-1.35-32.06-2.08-48.09-.23-5.27-.52-10.55-1-15.8a6.7,6.7,0,0,0-1.95-4.24c-5.44-4.34-11.09-8.4-17.89-13.47,3.08,11.55,5.69,21.51,8.39,31.46Q646.37,328.48,653.36,353.85Zm36-113.63a18.9,18.9,0,0,0-3.31.85q-24.21,11.27-48.39,22.63c-1.74.82-3.35,1.91-5.52,3.16l21,15.45c8.86-9.83,17.39-19.25,25.87-28.73,3.74-4.17,7.35-8.46,11-12.7l.37-1ZM18.08,449.87c3.21-9.84,6.61-19.61,9.58-29.52C32.09,405.57,38,391.18,39,375.49c1.17-18.31,2.61-36.6,4.05-54.89.43-5.41,1.38-10.79,1.81-16.2.49-6.32.67-12.67,1-19a289.39,289.39,0,0,0-6,29Q35.68,339.17,31.43,364c-2.87,16.87-5.8,33.73-8.6,50.61-1.91,11.53-3.65,23.09-5.46,34.63l-.69,2.66,1,.21ZM644.4,211.23l-48,28.2,29.86,23.05c2.5-6.61,4.73-12.42,6.88-18.25q6-16.17,11.87-32.36c.12-.34.25-.68.37-1ZM378,145.22l-1-.37.39,1c10.46,17.92,21.22,35.68,31.23,53.85,4,7.18,7.35,12.46,17,9.28,7-2.3,14.57-2.95,23-4.54-6.28-5.49-11.53-10.21-16.91-14.77Q413.17,174,394.55,158.46C389.13,154,383.55,149.63,378,145.22Zm-57,93.67L339,223.24c7.61-6.63,15.23-13.24,22.81-19.91,5-4.42,9.83-8.74,8.34-16.74-1-5.49-.86-11.21-1.14-16.82-.4-8.11-.71-16.22-1.11-24.33,0-.52-.5-1-1.09-2.13-1.29,2.25-2.36,3.89-3.21,5.63q-8.06,16.5-16,33Q334,210.1,320.38,238.23l-.39,1.06Zm23,45c9.1-9.66,18.13-19.38,27.31-28.95,11.16-11.65,22.48-23.15,33.66-34.79a69.37,69.37,0,0,0,4.83-6.38c-10.39-4.32-20.35-8.27-30.13-12.63-4.11-1.83-5.87-1.34-7.48,3.19-5.53,15.53-11.66,30.83-17.36,46.3-4,10.81-7.67,21.74-11.48,32.62l-.37,1ZM456.38,63.22c-2.61.33-5.23.58-7.82,1-19.45,3.3-38.88,6.75-58.36,9.83-3.37.54-4.18,2-4.91,4.94-2.68,10.68-5.76,21.26-8.56,31.92-1.31,5-2.31,10-3.75,16.33,2.77-1.82,4.32-2.72,5.74-3.79q25.92-19.44,51.8-39c8.93-6.76,17.7-13.74,26.54-20.62l.38-1.07ZM257,272.87c-46.62-46.15-91.11-92.13-138.58-137.08C126.78,192.47,134.87,247.55,143,303Zm2.82-10.45h1.59c10.29-57.52,20.58-115,31-173.12L194.1,79.71C216.32,141.46,238.09,201.94,259.85,262.42Zm-6.45.66,1.43-1.22c-.17-.59-.29-1.2-.5-1.77-5.07-13.93-10.22-27.84-15.23-41.79q-23.88-66.56-47.6-133.15c-1.51-4.26-3.1-4-6.37-2-18.67,11.56-37.45,22.92-56.16,34.41-4.38,2.69-8.64,5.58-12.92,8.36Zm251.11,9.69-90.32-57c-8.12,51.17-16.06,101.13-24,151.1l1.45,1ZM42.57,383l1.2.5,93.8-77.54L54.82,234.63C50.65,285.13,46.61,334,42.57,383Zm100.89-73.37c-.94,40.61-1.86,80-2.81,120.53l110.1-62ZM372.19,133.85l81.55,68.93c3.42-46.58,6.73-91.63,10.13-137.92Zm202.74-68-28.17,97.43L668.38,149l.44-1.67ZM135.43,430.17c.58-7,1.4-13.09,1.52-19.18.48-23.24.68-46.5,1.1-69.75.11-6.28.66-12.55.9-18.83.13-3.42,0-6.84,0-11.89L44.89,388.25ZM541.14,165.3,469.6,66l-1.34.3c-3.29,44.91-6.59,89.82-10,135.83Zm-36,115.08-1.49-1.08L392.87,372.72l.5,1.25L494,378.43Q499.56,329.32,505.14,280.38ZM253.29,364.52c2.06-29.75,4-58.24,6.07-87.67L148.84,306.07l-.09,1.3ZM473.45,61.09l-.84,1.46L543,160.23c9.53-32.93,18.58-64.17,27.8-96ZM314.87,236.77c1.1-1,1.6-1.21,1.8-1.61q16.41-33.65,32.8-67.3c4.58-9.37,9.28-18.66,13.91-28,1.68-3.38,2.11-5.67-2.26-8.23-17.22-10.08-34.06-20.82-51.06-31.28-3.52-2.16-7.14-4.15-10.72-6.23l-1.25.92C303.65,142.05,309.22,189.06,314.87,236.77ZM383.74,368.6l1.67-.15q11.38-71.64,22.79-143.29l-1.56-.66-68.16,71.69Q361.1,332.4,383.74,368.6Zm94.63,113.18c5.15-34.16,10.09-66.88,15.23-100.95l-81,37.81ZM135.75,293.06l1.3-.22c-8-54.33-16-108.66-24.07-163.55-2.21,1.32-3.65,1.88-4.7,2.85-10.58,9.81-21,19.75-31.67,29.49-2.55,2.34-2.09,4.34-.79,7q14.24,29.18,28.29,58.44c5.15,10.71,10.09,21.53,15.22,32.25C124.74,270.6,130.27,281.82,135.75,293.06Zm128.64-21.78c1,.16,1.45.36,1.68.24,14.61-7.71,29.23-15.42,43.76-23.27.75-.4,1.24-2.1,1.14-3.13-.89-9.18-1.94-18.35-2.94-27.53-1.37-12.62-2.65-25.26-4.13-37.87Q300.56,151,297,122.31c-.62-5-1.51-10-2.27-15l-1,.06ZM446,7.73c-.1.62-.3,1-.19,1.24,7,14.58,14,29.2,21.27,43.65.54,1.07,3.73,1.85,5.08,1.3,13-5.32,25.79-11,38.66-16.51q27.46-11.82,54.93-23.65c6.22-2.69,12.4-5.48,18.6-8.22l-.45-1.4c-3.4.37-6.78,1-10.18,1.07-23.25.42-46.5.69-69.74,1.06q-27.39.44-54.77,1A25.09,25.09,0,0,0,446,7.73Zm252.8,456.21.88-.23c.44-4.42,1.07-8.84,1.29-13.27q1.13-22.57,2-45.15c.74-19,1.33-38.09,2-57.13.19-5.12.74-10.22.92-15.34.16-4.55,0-9.11,0-13.67a7.38,7.38,0,0,0-3.71,3C689.64,342.05,677,362,664.54,382a6.48,6.48,0,0,0-.33,5c2,5.39,4.46,10.64,6.8,15.91,5.49,12.36,11,24.73,16.55,37C691.21,448,695.05,455.93,698.81,463.94ZM41.16,396.49l-1.46.22c-9.79,31.41-19.57,62.83-29.65,95.18l68.42-17.67Zm289.55-99a23.51,23.51,0,0,0-3.55-1.94c-19.73-5.8-39.51-11.48-59.21-17.4-3.71-1.12-4.39.33-4.52,3.43-.3,7.12-.59,14.23-1.11,21.33-1.22,16.64-2.61,33.26-3.85,49.89-.23,3.06,0,6.15,0,10.66ZM129,292.52l1.08-.9L70.25,167.47c-5.2,20.19-10.09,38.76-14.63,57.41a7.88,7.88,0,0,0,2,6.28c4.7,4.63,9.88,8.78,14.89,13.09q17.67,15.21,35.35,30.38C114.88,280.63,122,286.56,129,292.52ZM673.85,145.83l.88-.69c-.39-1.88-.62-3.81-1.19-5.64-7.2-23.09-14.37-46.19-21.85-69.19-.56-1.74-3.39-3.75-5.28-3.87-10.41-.69-20.85-.81-31.29-1.17-8.6-.3-17.2-.67-25.8-1-2.38-.08-4.76,0-7.14,0l-.47,1.52ZM82.56,472.31l51.43-38L46.49,394l-1.08,1.27C57.71,420.75,70,446.26,82.56,472.31Zm476-305.93c0,.35-.07.69-.11,1a18.3,18.3,0,0,0,2.49,1.36q18.81,6.83,37.63,13.58c16.27,5.85,32.57,11.64,48.8,17.6,2.61.95,4.25,1,5.51-1.86,3.17-7.26,6.57-14.41,9.81-21.64,3.36-7.49,6.65-15,10.38-23.47ZM517,243.47c8.41-24.91,16.38-48.56,24.36-72.21l-1.29-.68-79.79,35.5ZM411.25,423.53v77.71l64.25-16.06Zm179-414L589.17,8.4l-108.85,47a108,108,0,0,0,19.48,2.36c17.75.49,35.51.68,53.26,1.08a79.26,79.26,0,0,1,9.84.9c7.47,1.1,9.52,0,12-7.16,3.74-10.56,7.41-21.13,11.15-31.68C587.44,17.1,588.89,13.32,590.29,9.51ZM478.43,491.62l-50.15,39.93,62.83,46.85C486.81,549,482.7,520.86,478.43,491.62ZM655.19,290.06c1.81,29.75,3.56,58.41,5.31,87.06l1.48.34,42.36-66.82ZM367.31,130.37c4.87-18.82,9.46-36.53,14.24-55L302.63,88.71c-.14.55-.28,1.1-.43,1.65ZM262.84,365.45l.44,1.47c4.25,0,8.52-.22,12.76,0q21.27,1.29,42.5,2.93c3.47.28,4.91-1.42,5.31-4.32q3.66-26.15,7.14-52.32c.41-3.06.66-6.14,1-9.21l-1.37-.47Zm226,216.78L426.21,535.6c-.95,21.86-1.84,42.31-2.75,63.27ZM152.26,428.62l.36,1.06c2.81,0,5.65.24,8.43,0,11.65-1.18,23.27-2.58,34.92-3.76,11.16-1.13,22.36-2,33.52-3.15,4.06-.41,6.46-2.31,7.73-6.78,3-10.61,6.91-21,10.4-31.47,1.16-3.46,2.18-7,3.59-11.52ZM24.06,513.45,4.17,585l1.54,1.41,63.72-39ZM568.7,219.63l69.75-16.72-.13-1.49-90.06-32.54ZM645.1,62l.6-1.44L596.61,5.16,577,59.68ZM327.56,370.27l53.88,3-43.63-69.71-1,.53C333.76,325.73,330.75,347.38,327.56,370.27ZM477,383.66c-.09-.47-.17-.94-.26-1.4l-87.28-4c7.18,13,13.64,24.8,20.26,36.82Zm-403.67,161c1.94-22.11,3.76-42.85,5.69-64.86L27,509.91ZM366.94,206.25l-1.08-.86-50.59,45.07,19.27,38.33,1.51-.23Zm265.21,53.54,1.22,1.06,62.16-29-43.48-24.77ZM196.85,586.68l-27-49.32-1.62.19L144.1,588.81ZM698.5,228.29,678,154.57a33.17,33.17,0,0,0-2.31,3.49c-6.2,13.66-12.18,27.43-18.64,41-1.86,3.89-.86,5.55,2.48,7.37,6.67,3.62,13.15,7.57,19.76,11.3C685.19,221.06,691.21,224.29,698.5,228.29ZM76.67,589a8.8,8.8,0,0,0,.29-2.15c-1-10.84-1.93-21.69-3-32.52-.32-3.07-1.8-3.3-4.43-1.68-11.5,7.12-23.15,14-34.7,21.06-7.53,4.6-15,9.34-22.46,14l.25,1.28ZM240.1,420.86l55.75-14.58-39-35.68C251.2,387.67,245.84,403.69,240.1,420.86ZM441.19,10.48,402.68,45.25,463.3,55.8C455.79,40.4,448.68,25.82,441.19,10.48Zm105,165.29-1.55-.19-22,65.33a35,35,0,0,0,3.4-1.11c9.38-4.5,18.77-9,28.1-13.58,10.09-5,10.06-5,6-15.76-.06-.16,0-.34-.11-.49Q553.11,192.87,546.19,175.77Zm-50.35,86.28c-.33-1.51-.28-2.36-.67-2.86-12.66-16.1-25.43-32.12-38-48.29-2-2.52-3.82-2.89-6.76-2.18-4.79,1.14-9.72,1.69-14.58,2.59-4.66.87-9.29,1.88-13.94,2.82v1.29ZM394.29,48.1c-4-1.88-7.05-3.76-11.25-1.69-22.55,11.11-45.22,22-67.83,33-1.44.7-2.75,1.64-4.13,2.47,22.84-3,45.22-6.62,67.56-10.51,2-.35,4.55-1.67,5.49-3.31C387.73,61.74,390.78,55.12,394.29,48.1ZM780.41,296.27l0-1.54c-16.9-6-33.77-12.14-50.75-17.93-1.28-.43-4.25,1-4.89,2.27-3.07,6.21-5.62,12.67-8.32,19.05-1.1,2.61-2.13,5.25-3.66,9Zm-448.77-3.9c-7.24-14-13.75-26.49-20.5-39.51L272.6,273.47c0,.47.09.93.14,1.39ZM658.72,499.44,692,527.86c2.86-18,5.48-34.49,8.33-52.37Zm6.13-99.26-1.6.33c3.08,24.37,6.16,48.75,9.28,73.47,6.56-.78,12.24-1.66,18-2.08s6.39-1.3,4-6.58c-6-13.22-11.87-26.48-17.87-39.69C672.76,417.11,668.78,408.66,664.85,400.18ZM765.64,248.64l-59.55-13.88,20.07,36.13Zm-264,104.1,1,.21,29.16-86.05-1.1-.86c-5.15,2-10.2,4.46-15.48,6.06-3.87,1.17-5.25,3.67-5.75,7.13-.45,3.1-.69,6.22-1,9.34-2,17.52-4,35.05-6,52.58C502.07,345,501.93,348.88,501.65,352.74ZM417.76,595l1.34-.23c.83-19.33,1.67-38.67,2.54-58.94l-28.7,13.71Zm-5.55,1.91,1-1.06L388,549.73c-5.67,10.49-11,20.14-16,30-.37.72,1.41,3.38,2.72,4,4.19,1.89,8.63,3.24,13,4.76Q400,592.66,412.21,596.86Zm-92-222.47-54-3.25-.36,1.48q9,8.46,18.11,16.93c3.64,3.38,7.24,6.81,11,10.05,1.65,1.42,3.61,3.53,5.82.61C307,392,313.23,383.66,320.2,374.39ZM407,207.78l.8-.85-34-57.93-1.32.39c0,2.09-.1,4.19,0,6.27.62,10.56,1.7,21.12,1.77,31.68,0,5.23,1.22,7.94,6.46,9.73C389.67,200.13,398.29,204.16,407,207.78Zm-183.48,221-.38-1.11-73,7.35-.09,1.56c9.87,4.4,19.81,8.67,29.59,13.27,3.41,1.61,6,.95,9-.87,5.34-3.26,10.93-6.09,16.35-9.22C211.24,436.19,217.39,432.47,223.56,428.8Zm246.23,63.89-.72-1.33-56,14.1c4.41,8.2,8.27,15.36,12.29,22.82Zm192-213.18c.23.55.45,1.1.68,1.64l40.29-8.37c-1.17-11.51-2.27-22.26-3.36-33l-1.56-.24Zm-277.5,98.41L354.3,391c.1.44.19.88.29,1.32l47.78,21.18.8-1Zm-243,59.72c2.86,13.63,5.39,25.72,8.12,38.69L180,454.64Zm550.07,95.55-31.73-27.06-1.13.84c2.42,14.51,4.85,29,7.54,45.1Zm11.59-255.86-42,8.7c0,.54,0,1.07,0,1.61,14.74,6.13,29.49,12.25,45.22,18.8C705,296,704,286.79,702.93,277.33ZM188.32,510.5c-1.45-16.37-2.77-31.41-4.1-46.45l-1.37-.07L162,498.16Zm262-451.29c-1.7-1-2.43-1.69-3.27-1.83-12.13-2.1-24.27-4.1-36.4-6.16-11.08-1.88-11.16-1.95-16.8,7.46-1.88,3.14-3.25,6.58-5.43,11.08ZM141.79,580.74l1.05.31L165.33,533,141.79,534Zm70-117,18-31.7-1.06-.83-39.39,22.55Zm-19.92,36.16,1.3.45c5.15-10.27,10.34-20.52,15.33-30.87.31-.66-.65-2.65-1.47-3-5.92-2.74-12-5.23-18.73-8.12C189.52,472.76,190.69,486.32,191.85,499.89Zm199.3,43.86,1.41,1.2c8.85-4.4,17.73-8.75,26.5-13.29.82-.42,1.73-2.42,1.39-3.07-3.22-6.21-6.7-12.3-10.76-19.59C403.08,521.4,397.12,532.58,391.15,543.75ZM305.3,401.64l1.05,1.24L343,390.54c-6.59-5.8-12.06-10.6-17.75-15.59C318.21,384.36,311.76,393,305.3,401.64ZM439.47,599.32l.09,1.35c5.41.39,10.82.76,16.23,1.17,7.88.61,15.76,1.36,23.65,1.76,1.48.07,3.83-.84,4.42-2,2.25-4.42,3.94-9.12,6.38-15Zm-426-103.71c2.82,3.45,5.05,6.1,7.19,8.82,1.63,2.09,3.27,2.15,5.52.81,7.8-4.64,15.7-9.13,23.56-13.67l12-6.93c-.2-.44-.41-.87-.62-1.31Zm-2.81,4.05-1.46.44L6.33,555.62c1.35-.4,1.54-1,1.7-1.51,3.88-13.59,7.79-27.16,11.59-40.77.32-1.17.37-2.93-.28-3.75C16.61,506.14,13.57,503,10.64,499.66Zm629.72,37.95,9.87-31.36-1.29-.67L624,522.85Zm14.31-26.36c-.49.22-1,.28-1,.49-3,9-6,18.09-8.84,27.17a2.37,2.37,0,0,0,.73,2.13c4.66,2.52,9.4,4.9,15.34,8C658.63,535.38,656.69,523.58,654.67,511.25ZM371.3,378.71l-.34-1.35-36.78-2.22A69.53,69.53,0,0,0,345,386.5c1,.88,2.88,2,3.83,1.59C356.38,385.14,363.82,381.88,371.3,378.71ZM165.74,528.61c-2.49-8-4.78-15.37-7.46-24l-13.52,24ZM522,246.06l-.26,1.55,13.34,11.81,15.59-17.25ZM720.73,270.2,705.57,243l-1.3.46c.72,6.82,1.9,13.64,2,20.47.15,8,1.12,8.65,10.25,7.51A27.78,27.78,0,0,0,720.73,270.2ZM184.56,513.91l-20.22-9.73-1.12.81c2.18,7.14,4.36,14.27,6.71,22Zm454.2-21.86-11,21.12,1,.77,21.73-14.6Zm71-193.47,1.3.4c3.28-7.66,6.55-15.32,10.06-23.51l-13.53,1.27C708.31,284.24,709,291.41,709.73,298.58ZM143.45,518.81l1.19.51c2.76-4.75,5.57-9.47,8.26-14.26,3.6-6.42,2.66-11.37-3.27-16.95C147.55,498.46,145.5,508.63,143.45,518.81ZM582.81,236.48l.47-.9c-4.43-2.9-8.79-5.9-13.33-8.6-.71-.43-2.7.12-3.28.85-1.95,2.49-3.55,5.27-5.74,8.65ZM518.94,251.1c-2.2,5.75-4.18,10.92-6.65,17.39l17.44-7.21C525.67,257.46,522.59,254.55,518.94,251.1ZM664.58,490.88,687,478C674.86,475.83,668.69,479.41,664.58,490.88ZM540.16,238.05c11.53,1.88,17.54-1.27,19.32-9.74Z"/></g></g></svg>