<svg xmlns="http://www.w3.org/2000/svg" viewBox="0 0 802.79 499.56"><g id="Layer_2" data-name="Layer 2"><g id="Layer_1-2" data-name="Layer 1"><path d="M802.79,430c-2,.14-4,.4-5.94.4q-52.29,0-104.57,0c-8.81,0-9-.42-10-9.1-2.73-23.7-4.54-47.57-8.59-71C663.8,293,647,238.11,613.76,189.46c-15-21.94-32.73-41.3-54.21-57.11a5.16,5.16,0,0,0-3.94-1.2c1.35,1.82,2.6,3.71,4,5.43A455.67,455.67,0,0,1,630.6,250.85a448.47,448.47,0,0,1,29.61,99A523,523,0,0,1,668,443.35c0,4.77.76,10-3.76,14.79-1.94-2.22-3.75-4.11-5.36-6.16C638.69,426.17,616.05,402.9,588,385.4a153.39,153.39,0,0,0-36.42-16.84c-3.92-1.2-7.09-4.84-10.78-7.49-1.3,2.38-2.76,5.08-4.23,7.78l-2.35,1.32c-.9-1.73-1.72-3.53-2.72-5.2-18.21-30.37-43.32-54.35-70.94-75.87a473,473,0,0,0-70.11-45.23c-6.39-3.38-6.43-3.38-10.75,2.23q-48.28,62.64-96.56,125.29c-8.95,11.63-18.55,22.83-26.61,35.05-5.21,7.91-12.74,8.88-19.71,7.86-9.19-1.35-14.24,2.9-18.83,9-9.25,12.34-17.88,25.15-27.41,37.25a63,63,0,0,1-15.19,13.87c-6.6,4.25-12.91,2.21-20.14-4.49-4.42-4.11-5.54-10.7-2.89-17.17a29.28,29.28,0,0,0,2.43-8c-6.41,6.61-8,14.68-5.24,23s9.54,11.36,18.13,11.74c10.26.45,17.64-4,23.43-12q15.81-21.7,31.68-43.37a30.93,30.93,0,0,1,4.94-5.51c3.72-3.09,7.36-2.26,10.69.88,3.16,3,3.84,6.36,1.29,10-3.43,4.89-7,9.67-10.53,14.48q-13.29,18-26.58,36c-6.69,9.09-15.08,15.6-26.22,18.55-20.61,5.45-44.88-12.06-46.12-33.31-.75-12.75,3.17-23.83,12.36-34.64-4-.23-6.85-.54-9.68-.54Q71.36,430,9.74,430a90.58,90.58,0,0,1-9.65-1L0,426.38c1.91-.42,3.83-1.21,5.74-1.21q73.95-.1,147.89,0c7,0,8.19,1.79,7.19,8.68-.28,1.94-.07,3.95-.35,5.89-.6,4.07-.78,8.33-2.2,12.11-3.16,8.49-2.89,12,2.45,15.86,6.17,4.44,12.31,4.22,18.27-1.23a67.5,67.5,0,0,0,8.26-9.58c8.77-11.77,17.53-23.55,26-35.52,5.66-8,12.43-13.5,23.82-12.24-1.88-2.59-3.14-4.33-4.87-6.7,1.14-1.8,2.28-3.95,3.74-5.84q63.41-82.08,126.83-164.14c4.69-6.07,6.41-6.94,13-.65,1.66,1.59,1.36,5.23,1.92,7.71,4.06-6.37,9.44-3.37,15.38-.12,45.27,24.74,87.09,53.94,121.1,93.24,5.52,6.38,10.32,13.38,15.47,20.08,1.3,1.7,2.63,3.37,4.29,5.47,4.48-4.93,1.65-8.5-.9-11.55-9.59-11.43-18.87-23.18-29.25-33.85-40-41.21-87.74-71.45-139.37-95.85a650.47,650.47,0,0,0-86.8-33.51c-2.19-.67-4.12-2.18-7.18-3.85,3.08-2.81,5.07-5,7.38-6.69,38-28.23,77.6-53.89,121.72-71.74,23.22-9.39,47.06-16.35,72.56-13.36,6.61.77,13.07,2.8,19.59,4.31,2.09.48,4.14,1.13,6.2,1.71.33-.54.66-1.07,1-1.6-1.93-1.4-3.68-3.47-5.83-4.07-8.09-2.27-16.23-5-24.52-5.86-38.32-3.9-73.2,7.6-106.53,25.15-32.35,17-61.06,39.15-88,63.68-1.84,1.67-3.7,3.32-5.54,5-2.37,2.15-4.54,1.75-6.35-.65-1.95-2.58-3.73-5.28-5.57-7.94-33.33-48-74.94-86.85-127.41-113.31-10.82-5.46-22.4-9.42-33.62-14.09-2.67-1.12-5.28-2.35-9.59-4.28,3.42-2.17,5.19-3.93,7.28-4.51C115.88,25,138.48,18.12,161.47,13A553.82,553.82,0,0,1,226.14,2.26c29-2.87,58.28-3.89,87,2.36A398.43,398.43,0,0,1,363.85,19.5c28,10.12,55.7,21.12,83.28,32.32,9.16,3.72,17.66,9.09,26.33,13.92,6.6,3.67,6.56,3.87,11.55-2.16,7.61-9.21,15.05-18.55,22.76-27.66a30.84,30.84,0,0,1,7.3-6.21c3.85-2.37,7.64-1.77,10.69,1.81,2.84,3.32,2.78,6.73.25,10.2Q516.33,55,506.7,68.27c-1.32,1.81-2.62,3.63-4,5.39-2.48,3.13-2.1,5.55,1,8.26,10.32,9,20.16,18.52,30.73,27.18,6.3,5.17,13.71,9,20.46,13.62,37,25.44,63.79,59.5,83.86,99.21,15.31,30.31,25.89,62.26,33.45,95.33a609.89,609.89,0,0,1,14.56,100.2c.45,7.53.64,7.79,8.48,7.8q48.91.06,97.84,0c3.24,0,6.47.13,9.7.21ZM537.49,343.5a33.77,33.77,0,0,0,1.77-4.65,531.37,531.37,0,0,0,8-83.08c.31-25.88-1.58-51.62-7.12-77.07a230.53,230.53,0,0,0-21.7-60c-5.35-10-12-17.68-23.83-20.51-12.58-3-25-7.86-38-5.87-14.44,2.2-29.12,4.55-42.86,9.26-47.51,16.3-89.23,43.28-129.45,72.77-1.38,1-2.35,2.6-3.82,4.27C380.55,211.79,470.62,258.83,537.49,343.5Zm-272-172.21c13.58-11.31,25.84-22.22,38.82-32.2C343.73,108.76,385.88,84,436.38,77.16c12.91-1.76,25.77-2.13,38.6.57l17.31,3.65c2.6-4.25,4.66-8.13,7.2-11.67C505.57,61.21,512.05,53,518,44.42c1.87-2.69,6.73-6.13,2.36-9.41-3.78-2.83-6.67,1.65-9,4.43-8.47,10.1-16.79,20.32-25.19,30.49-4.86,5.88-5.53,5.56-12.42,2-17-8.78-33.68-18.31-51.37-25.34-27-10.72-54.55-19.89-82.08-29.09-12-4-24.32-7.6-36.78-9.39C261.14,2,219.05,6.53,177.4,14.69c-23.11,4.53-45.82,11.15-68.68,16.94a74,74,0,0,0-8.43,3.25,338.1,338.1,0,0,1,93.08,55.69C221.12,113.9,244.86,140.87,265.48,171.29ZM519.25,109a29.61,29.61,0,0,0,1.29,3.4c20.76,34.83,29,73.27,31.19,113.08,2.19,39.11-.15,78.1-8.28,116.51a19.65,19.65,0,0,0,14.07,23.44A98.49,98.49,0,0,1,576.08,373c30.77,15.48,55.42,38.39,77.46,64.39,2.33,2.74,4.62,5.51,7.83,9.32a46.68,46.68,0,0,0,.87-5.07c1.25-40.28-3.5-79.95-13-119a443.55,443.55,0,0,0-32.08-88.79,449.75,449.75,0,0,0-79.83-114.55A36.24,36.24,0,0,0,519.25,109ZM151.05,436.57c-5.52-1.24-8.76,1.41-10.46,5.39-2.12,5-4.09,10.23-4.75,15.54-2.35,18.8,9.19,33.76,28.87,36.4,13.95,1.87,24.59-4.51,32.71-15.32,11.64-15.48,23-31.15,34.48-46.76a16.18,16.18,0,0,0,2.78-4.36c.38-1.17.16-3.23-.63-3.88a4.12,4.12,0,0,0-3.93.06,23.66,23.66,0,0,0-4.38,5c-10,13.63-19.84,27.32-29.82,40.94-4.94,6.75-10.86,12.24-19.27,14.43-9.88,2.58-19,.74-26.25-6.23s-9.6-15.52-5.84-25.22C146.58,447.37,148.74,442.24,151.05,436.57ZM373,235.08c-7-1.38-8.3,3.26-10.4,6q-51.21,66-102.18,132.09c-6.23,8.07-12.47,16.12-18.65,24.23-1.57,2.07-3.81,4.35,1.06,7.1Z"/></g></g></svg>