<svg xmlns="http://www.w3.org/2000/svg" viewBox="0 0 479.02 452.14"><defs><style>.cls-1{fill:none;stroke:#000;stroke-linecap:round;stroke-linejoin:round;stroke-width:2px;}</style></defs><g id="Layer_2" data-name="Layer 2"><g id="Layer_1-2" data-name="Layer 1"><path class="cls-1" d="M239.72,254a145.73,145.73,0,0,0,35.78,22.72,143.7,143.7,0,0,0,33.73,10.19,145.93,145.93,0,0,0,29.71,2.14,141.12,141.12,0,0,0,26.11-3.31,135.35,135.35,0,0,0,24-7.52A145.42,145.42,0,0,0,422,259,142.76,142.76,0,0,0,442.21,240a146,146,0,0,0,19.1-27.68,143.76,143.76,0,0,0,10.89-27,163.17,163.17,0,0,0,4-18A136,136,0,0,0,478,141.5a157.07,157.07,0,0,0-2.13-20.94,136.05,136.05,0,0,0-7.55-27.41A139.36,139.36,0,0,0,449,58.68a148,148,0,0,0-14.86-16.87,146,146,0,0,0-28.35-21.39A144,144,0,0,0,379.66,8.55,145.22,145.22,0,0,0,330.4,1.14a147.71,147.71,0,0,0-20.95,2.13A139.81,139.81,0,0,0,244.22,32.6l-4.75,3.88A148.21,148.21,0,0,0,219.71,22,133.8,133.8,0,0,0,187.27,7.47a165.25,165.25,0,0,0-21.37-4.9,119.56,119.56,0,0,0-27.66-1.24c-4.57.37-9.19.47-13.71,1.19-5.67.91-11.29,2.23-16.88,3.56A122.85,122.85,0,0,0,81.12,16,145.41,145.41,0,0,0,19.9,73.78,139.66,139.66,0,0,0,8.43,99.21a134.35,134.35,0,0,0-6,25.2,149,149,0,0,0-1,30.82,144.79,144.79,0,0,0,7.3,36.44,142.8,142.8,0,0,0,22,41,135.16,135.16,0,0,0,16.26,18,151.84,151.84,0,0,0,29.64,21.24,144.53,144.53,0,0,0,42.11,14.94,137.32,137.32,0,0,0,31.49,2.31,143.57,143.57,0,0,0,40-7.2A139.12,139.12,0,0,0,235,257.38c1.44-1.19,2.85-2.4,4.28-3.6"/><path class="cls-1" d="M89.64,278.53a59.06,59.06,0,0,0-1.73,8.1c-.63,7.94-1.26,15.9-1.33,23.85a125.79,125.79,0,0,0,2.08,21.16,133.7,133.7,0,0,0,8.74,30.54,141.27,141.27,0,0,0,19.22,32.91,142.9,142.9,0,0,0,54.73,43.35,134.59,134.59,0,0,0,26.07,8.84,159.21,159.21,0,0,0,26.1,3.65,141.21,141.21,0,0,0,27.66-1.25A137,137,0,0,0,282,441.61a143.36,143.36,0,0,0,38-21.83,147.62,147.62,0,0,0,33.74-38.23,135,135,0,0,0,14.78-33.3,171.43,171.43,0,0,0,5-24.06,128.34,128.34,0,0,0,.62-27.44,150.14,150.14,0,0,0-5.47-30.37,144,144,0,0,0-62.81-82,141.32,141.32,0,0,0-42.47-17.42,157.48,157.48,0,0,0-25.65-3.62,126.28,126.28,0,0,0-24.29.81c-7.19,1-14.27,2.75-21.39,4.18"/><path class="cls-1" d="M239.94,36.88c2.78,2.62,5.63,5.17,8.32,7.89a142.57,142.57,0,0,1,38.42,74,129.38,129.38,0,0,1,2.23,31.48c-.47,7.6-1.71,15.16-2.63,22.73a5.08,5.08,0,0,1-.44,1.13"/><path class="cls-1" d="M191.57,168.28c-4.95,1.72-10,3.31-14.84,5.21a133.86,133.86,0,0,0-18.94,9.37,138.83,138.83,0,0,0-17.5,12,142.47,142.47,0,0,0-24.79,25.61,148,148,0,0,0-14.62,23.86,146.34,146.34,0,0,0-10.79,30.61c-.19.83-.45,1.65-.67,2.47"/><path class="cls-1" d="M239,36.88c-4.72,4.72-9.7,9.22-14.11,14.23a138.39,138.39,0,0,0-15.63,22A144.27,144.27,0,0,0,197,100.57a136.33,136.33,0,0,0-5.26,22.25A140.55,140.55,0,0,0,190,148.48a155.41,155.41,0,0,0,2.12,21.16,140,140,0,0,0,5.53,22c5.48,15.86,13.24,30.52,24.07,43.41,4.37,5.2,9.09,10.11,13.71,15.09a47.11,47.11,0,0,0,3.58,3.17"/><path class="cls-1" d="M286.07,174.8c-2.33,7.73-4.26,15.6-7.07,23.14a128.78,128.78,0,0,1-14.77,27.93,142.89,142.89,0,0,1-24.51,27.68"/></g></g></svg>