<svg version="1.1" viewBox="0.0 0.0 600.0 371.0" fill="none" stroke="none" stroke-linecap="square" stroke-miterlimit="10" width="600" height="371" xmlns:xlink="http://www.w3.org/1999/xlink" xmlns="http://www.w3.org/2000/svg"><path fill="#ffffff" d="M0 0L600.0 0L600.0 371.0L0 371.0L0 0Z" fill-rule="nonzero"/><path stroke="#333333" stroke-width="1.0" stroke-linecap="butt" d="M42.5 322.5L581.5 322.5" fill-rule="nonzero"/><path stroke="#cccccc" stroke-width="1.0" stroke-linecap="butt" d="M42.5 262.5L581.5 262.5" fill-rule="nonzero"/><path stroke="#cccccc" stroke-width="1.0" stroke-linecap="butt" d="M42.5 203.5L581.5 203.5" fill-rule="nonzero"/><path stroke="#cccccc" stroke-width="1.0" stroke-linecap="butt" d="M42.5 143.5L581.5 143.5" fill-rule="nonzero"/><path stroke="#cccccc" stroke-width="1.0" stroke-linecap="butt" d="M42.5 84.5L581.5 84.5" fill-rule="nonzero"/><path stroke="#cccccc" stroke-width="1.0" stroke-linecap="butt" d="M42.5 24.5L581.5 24.5" fill-rule="nonzero"/><clipPath id="id_0"><path d="M42.55 24.55L581.45 24.55L581.45 322.45L42.55 322.45L42.55 24.55Z" clip-rule="nonzero"/></clipPath><path stroke="#000000" stroke-width="2.0" stroke-linecap="butt" stroke-opacity="0.0" clip-path="url(#id_0)" d="M272.0 322.0L123.0 322.0L123.0 74.0C123.0 72.89543 123.89543 72.0 125.0 72.0L270.0 72.0C271.10458 72.0 272.0 72.89543 272.0 74.0Z" fill-rule="nonzero"/><path fill="#1d70b8" clip-path="url(#id_0)" d="M272.0 322.0L123.0 322.0L123.0 74.0C123.0 72.89543 123.89543 72.0 125.0 72.0L270.0 72.0C271.10458 72.0 272.0 72.89543 272.0 74.0Z" fill-rule="nonzero"/><path stroke="#000000" stroke-width="2.0" stroke-linecap="butt" stroke-opacity="0.0" clip-path="url(#id_0)" d="M502.0 322.0L353.0 322.0L353.0 301.0C353.0 299.89542 353.89542 299.0 355.0 299.0L500.0 299.0C501.10458 299.0 502.0 299.89542 502.0 301.0Z" fill-rule="nonzero"/><path fill="#1d70b8" clip-path="url(#id_0)" d="M502.0 322.0L353.0 322.0L353.0 301.0C353.0 299.89542 353.89542 299.0 355.0 299.0L500.0 299.0C501.10458 299.0 502.0 299.89542 502.0 301.0Z" fill-rule="nonzero"/><path fill="#000000" d="M36.221874 321.6375Q36.221874 322.5125 36.08125 323.23126Q35.940624 323.95 35.6125 324.48126Q35.3 324.9969 34.784374 325.27814Q34.26875 325.5594 33.51875 325.5594Q32.8 325.5594 32.3 325.3094Q31.815624 325.04376 31.51875 324.5594Q31.221874 324.0594 31.096874 323.34064Q30.971874 322.60626 30.971874 321.66876Q30.971874 320.8094 31.1125 320.09064Q31.253124 319.35626 31.565624 318.84064Q31.89375 318.325 32.409374 318.04376Q32.925 317.7625 33.675 317.7625Q34.39375 317.7625 34.878124 318.0125Q35.3625 318.2625 35.659374 318.7625Q35.971874 319.2625 36.096874 319.98126Q36.221874 320.7 36.221874 321.6375ZM35.190624 321.71564Q35.190624 321.1375 35.14375 320.7Q35.096874 320.2469 35.01875 319.90314Q34.940624 319.54376 34.815624 319.29376Q34.690624 319.04376 34.51875 318.8875Q34.346874 318.73126 34.1125 318.65314Q33.89375 318.575 33.6125 318.575Q33.1125 318.575 32.8 318.8094Q32.4875 319.04376 32.3 319.46564Q32.128124 319.8719 32.065624 320.41876Q32.003124 320.96564 32.003124 321.60626Q32.003124 322.45 32.08125 323.04376Q32.175 323.6375 32.3625 324.0125Q32.565624 324.3875 32.8625 324.5594Q33.159374 324.73126 33.58125 324.73126Q33.909374 324.73126 34.14375 324.6375Q34.39375 324.52814 34.565624 324.34064Q34.753124 324.1375 34.8625 323.85626Q34.9875 323.575 35.05 323.2469Q35.128124 322.91876 35.159374 322.52814Q35.190624 322.1375 35.190624 321.71564Z" fill-rule="nonzero"/><path fill="#000000" d="M35.925 263.4325Q35.925 264.04187 35.721874 264.52625Q35.51875 264.995 35.14375 265.32312Q34.76875 265.63562 34.253124 265.8075Q33.7375 265.97937 33.096874 265.97937Q32.753124 265.97937 32.425 265.9325Q32.1125 265.88562 31.8625 265.8075Q31.628124 265.72937 31.45625 265.66687Q31.3 265.58875 31.253124 265.5575Q31.221874 265.51062 31.20625 265.47937Q31.190624 265.44812 31.175 265.40125Q31.159374 265.33875 31.14375 265.26062Q31.14375 265.1825 31.14375 265.08875Q31.14375 264.97937 31.14375 264.90125Q31.159374 264.82312 31.175 264.77625Q31.20625 264.72937 31.2375 264.71375Q31.26875 264.6825 31.315624 264.6825Q31.378124 264.6825 31.4875 264.76062Q31.6125 264.82312 31.815624 264.91687Q32.034374 264.995 32.33125 265.07312Q32.64375 265.15125 33.065624 265.15125Q33.45625 265.15125 33.784374 265.0575Q34.1125 264.96375 34.346874 264.76062Q34.596874 264.5575 34.721874 264.26062Q34.8625 263.96375 34.8625 263.52625Q34.8625 263.16687 34.7375 262.88562Q34.628124 262.60437 34.39375 262.41687Q34.159374 262.22937 33.8 262.15125Q33.440624 262.0575 32.925 262.0575Q32.565624 262.0575 32.3 262.08875Q32.05 262.12 31.83125 262.12Q31.675 262.12 31.596874 262.0575Q31.534374 261.97937 31.534374 261.76062L31.534374 258.66687Q31.534374 258.47937 31.6125 258.38562Q31.70625 258.29187 31.878124 258.29187L35.2375 258.29187Q35.284374 258.29187 35.33125 258.32312Q35.378124 258.33875 35.39375 258.40125Q35.425 258.44812 35.440624 258.52625Q35.45625 258.60437 35.45625 258.71375Q35.45625 258.9325 35.39375 259.0575Q35.346874 259.16687 35.2375 259.16687L32.409374 259.16687L32.409374 261.29187Q32.6125 261.26062 32.815624 261.26062Q33.034374 261.245 33.315624 261.245Q33.971874 261.245 34.45625 261.40125Q34.940624 261.5575 35.26875 261.85437Q35.596874 262.13562 35.753124 262.54187Q35.925 262.9325 35.925 263.4325Z" fill-rule="nonzero"/><path fill="#000000" d="M29.9875 205.88374Q29.9875 206.00874 29.95625 206.08687Q29.940624 206.14937 29.909374 206.19624Q29.89375 206.24312 29.846874 206.27437Q29.815624 206.29 29.76875 206.29L25.815624 206.29Q25.76875 206.29 25.7375 206.27437Q25.70625 206.24312 25.659374 206.19624Q25.628124 206.14937 25.6125 206.08687Q25.596874 206.00874 25.596874 205.88374Q25.596874 205.79 25.6125 205.71187Q25.628124 205.63374 25.659374 205.58687Q25.690624 205.54 25.721874 205.50874Q25.76875 205.4775 25.815624 205.4775L27.39375 205.4775L27.39375 199.71187L25.925 200.58687Q25.815624 200.64937 25.7375 200.665Q25.675 200.665 25.628124 200.63374Q25.596874 200.58687 25.58125 200.50874Q25.565624 200.415 25.565624 200.29Q25.565624 200.18062 25.565624 200.11812Q25.58125 200.04 25.596874 199.99312Q25.628124 199.94624 25.659374 199.915Q25.690624 199.88374 25.7375 199.83687L27.4875 198.7275Q27.503124 198.71187 27.534374 198.69624Q27.58125 198.68062 27.628124 198.68062Q27.690624 198.665 27.753124 198.665Q27.83125 198.64937 27.925 198.64937Q28.065624 198.64937 28.159374 198.665Q28.253124 198.68062 28.3 198.69624Q28.3625 198.71187 28.378124 198.75874Q28.39375 198.79 28.39375 198.82124L28.39375 205.4775L29.76875 205.4775Q29.815624 205.4775 29.846874 205.50874Q29.89375 205.54 29.925 205.58687Q29.95625 205.63374 29.971874 205.71187Q29.9875 205.79 29.9875 205.88374ZM36.221874 202.4775Q36.221874 203.3525 36.08125 204.07124Q35.940624 204.79 35.6125 205.32124Q35.3 205.83687 34.784374 206.11812Q34.26875 206.39937 33.51875 206.39937Q32.8 206.39937 32.3 206.14937Q31.815624 205.88374 31.51875 205.39937Q31.221874 204.89937 31.096874 204.18062Q30.971874 203.44624 30.971874 202.50874Q30.971874 201.64937 31.1125 200.93062Q31.253124 200.19624 31.565624 199.68062Q31.89375 199.165 32.409374 198.88374Q32.925 198.6025 33.675 198.6025Q34.39375 198.6025 34.878124 198.8525Q35.3625 199.1025 35.659374 199.6025Q35.971874 200.1025 36.096874 200.82124Q36.221874 201.54 36.221874 202.4775ZM35.190624 202.55562Q35.190624 201.9775 35.14375 201.54Q35.096874 201.08687 35.01875 200.74312Q34.940624 200.38374 34.815624 200.13374Q34.690624 199.88374 34.51875 199.7275Q34.346874 199.57124 34.1125 199.49312Q33.89375 199.415 33.6125 199.415Q33.1125 199.415 32.8 199.64937Q32.4875 199.88374 32.3 200.30562Q32.128124 200.71187 32.065624 201.25874Q32.003124 201.80562 32.003124 202.44624Q32.003124 203.29 32.08125 203.88374Q32.175 204.4775 32.3625 204.8525Q32.565624 205.2275 32.8625 205.39937Q33.159374 205.57124 33.58125 205.57124Q33.909374 205.57124 34.14375 205.4775Q34.39375 205.36812 34.565624 205.18062Q34.753124 204.9775 34.8625 204.69624Q34.9875 204.415 35.05 204.08687Q35.128124 203.75874 35.159374 203.36812Q35.190624 202.9775 35.190624 202.55562Z" fill-rule="nonzero"/><path fill="#000000" d="M29.9875 146.30376Q29.9875 146.42876 29.95625 146.50688Q29.940624 146.56938 29.909374 146.61626Q29.89375 146.66313 29.846874 146.69438Q29.815624 146.71 29.76875 146.71L25.815624 146.71Q25.76875 146.71 25.7375 146.69438Q25.70625 146.66313 25.659374 146.61626Q25.628124 146.56938 25.6125 146.50688Q25.596874 146.42876 25.596874 146.30376Q25.596874 146.21 25.6125 146.13188Q25.628124 146.05376 25.659374 146.00688Q25.690624 145.96 25.721874 145.92876Q25.76875 145.8975 25.815624 145.8975L27.39375 145.8975L27.39375 140.13188L25.925 141.00688Q25.815624 141.06938 25.7375 141.085Q25.675 141.085 25.628124 141.05376Q25.596874 141.00688 25.58125 140.92876Q25.565624 140.835 25.565624 140.71Q25.565624 140.60063 25.565624 140.53813Q25.58125 140.46 25.596874 140.41313Q25.628124 140.36626 25.659374 140.335Q25.690624 140.30376 25.7375 140.25688L27.4875 139.1475Q27.503124 139.13188 27.534374 139.11626Q27.58125 139.10063 27.628124 139.10063Q27.690624 139.085 27.753124 139.085Q27.83125 139.06938 27.925 139.06938Q28.065624 139.06938 28.159374 139.085Q28.253124 139.10063 28.3 139.11626Q28.3625 139.13188 28.378124 139.17876Q28.39375 139.21 28.39375 139.24126L28.39375 145.8975L29.76875 145.8975Q29.815624 145.8975 29.846874 145.92876Q29.89375 145.96 29.925 146.00688Q29.95625 146.05376 29.971874 146.13188Q29.9875 146.21 29.9875 146.30376ZM35.925 144.2725Q35.925 144.88188 35.721874 145.36626Q35.51875 145.835 35.14375 146.16313Q34.76875 146.47563 34.253124 146.6475Q33.7375 146.81938 33.096874 146.81938Q32.753124 146.81938 32.425 146.7725Q32.1125 146.72563 31.8625 146.6475Q31.628124 146.56938 31.45625 146.50688Q31.3 146.42876 31.253124 146.3975Q31.221874 146.35063 31.20625 146.31938Q31.190624 146.28813 31.175 146.24126Q31.159374 146.17876 31.14375 146.10063Q31.14375 146.0225 31.14375 145.92876Q31.14375 145.81938 31.14375 145.74126Q31.159374 145.66313 31.175 145.61626Q31.20625 145.56938 31.2375 145.55376Q31.26875 145.5225 31.315624 145.5225Q31.378124 145.5225 31.4875 145.60063Q31.6125 145.66313 31.815624 145.75688Q32.034374 145.835 32.33125 145.91313Q32.64375 145.99126 33.065624 145.99126Q33.45625 145.99126 33.784374 145.8975Q34.1125 145.80376 34.346874 145.60063Q34.596874 145.3975 34.721874 145.10063Q34.8625 144.80376 34.8625 144.36626Q34.8625 144.00688 34.7375 143.72563Q34.628124 143.44438 34.39375 143.25688Q34.159374 143.06938 33.8 142.99126Q33.440624 142.8975 32.925 142.8975Q32.565624 142.8975 32.3 142.92876Q32.05 142.96 31.83125 142.96Q31.675 142.96 31.596874 142.8975Q31.534374 142.81938 31.534374 142.60063L31.534374 139.50688Q31.534374 139.31938 31.6125 139.22563Q31.70625 139.13188 31.878124 139.13188L35.2375 139.13188Q35.284374 139.13188 35.33125 139.16313Q35.378124 139.17876 35.39375 139.24126Q35.425 139.28813 35.440624 139.36626Q35.45625 139.44438 35.45625 139.55376Q35.45625 139.7725 35.39375 139.8975Q35.346874 140.00688 35.2375 140.00688L32.409374 140.00688L32.409374 142.13188Q32.6125 142.10063 32.815624 142.10063Q33.034374 142.085 33.315624 142.085Q33.971874 142.085 34.45625 142.24126Q34.940624 142.3975 35.26875 142.69438Q35.596874 142.97563 35.753124 143.38188Q35.925 143.7725 35.925 144.2725Z" fill-rule="nonzero"/><path fill="#000000" d="M29.971874 86.6925Q29.971874 86.80187 29.95625 86.88Q29.940624 86.95812 29.909374 87.02062Q29.878124 87.08312 29.83125 87.11437Q29.8 87.13 29.7375 87.13L25.55 87.13Q25.471874 87.13 25.409374 87.11437Q25.346874 87.08312 25.3 87.03625Q25.253124 86.98937 25.2375 86.91125Q25.221874 86.8175 25.221874 86.6925Q25.221874 86.5675 25.221874 86.48937Q25.2375 86.39562 25.26875 86.33312Q25.3 86.255 25.33125 86.1925Q25.378124 86.13 25.45625 86.05187L26.925 84.48937Q27.440624 83.95812 27.7375 83.53625Q28.05 83.09875 28.20625 82.755Q28.378124 82.39562 28.425 82.11437Q28.4875 81.8175 28.4875 81.5675Q28.4875 81.3175 28.409374 81.09875Q28.33125 80.86437 28.175 80.6925Q28.01875 80.52062 27.784374 80.42687Q27.55 80.33312 27.2375 80.33312Q26.878124 80.33312 26.596874 80.42687Q26.315624 80.52062 26.096874 80.64562Q25.89375 80.755 25.7375 80.86437Q25.596874 80.95812 25.534374 80.95812Q25.4875 80.95812 25.45625 80.9425Q25.425 80.91125 25.39375 80.86437Q25.378124 80.80187 25.3625 80.72375Q25.3625 80.63 25.3625 80.505Q25.3625 80.42687 25.3625 80.36437Q25.378124 80.28625 25.378124 80.23937Q25.39375 80.1925 25.409374 80.16125Q25.440624 80.11437 25.503124 80.05187Q25.58125 79.98937 25.753124 79.89562Q25.940624 79.78625 26.190624 79.6925Q26.45625 79.58312 26.76875 79.52062Q27.08125 79.4425 27.425 79.4425Q27.971874 79.4425 28.378124 79.59875Q28.8 79.73937 29.065624 80.02062Q29.346874 80.28625 29.471874 80.64562Q29.6125 81.005 29.6125 81.41125Q29.6125 81.77062 29.55 82.13Q29.4875 82.48937 29.284374 82.91125Q29.08125 83.33312 28.675 83.84875Q28.284374 84.34875 27.64375 85.02062L26.440624 86.27062L29.7375 86.27062Q29.784374 86.27062 29.83125 86.30187Q29.878124 86.33312 29.909374 86.38Q29.940624 86.42687 29.95625 86.505Q29.971874 86.58312 29.971874 86.6925ZM36.221874 83.3175Q36.221874 84.1925 36.08125 84.91125Q35.940624 85.63 35.6125 86.16125Q35.3 86.67687 34.784374 86.95812Q34.26875 87.23937 33.51875 87.23937Q32.8 87.23937 32.3 86.98937Q31.815624 86.72375 31.51875 86.23937Q31.221874 85.73937 31.096874 85.02062Q30.971874 84.28625 30.971874 83.34875Q30.971874 82.48937 31.1125 81.77062Q31.253124 81.03625 31.565624 80.52062Q31.89375 80.005 32.409374 79.72375Q32.925 79.4425 33.675 79.4425Q34.39375 79.4425 34.878124 79.6925Q35.3625 79.9425 35.659374 80.4425Q35.971874 80.9425 36.096874 81.66125Q36.221874 82.38 36.221874 83.3175ZM35.190624 83.39562Q35.190624 82.8175 35.14375 82.38Q35.096874 81.92687 35.01875 81.58312Q34.940624 81.22375 34.815624 80.97375Q34.690624 80.72375 34.51875 80.5675Q34.346874 80.41125 34.1125 80.33312Q33.89375 80.255 33.6125 80.255Q33.1125 80.255 32.8 80.48937Q32.4875 80.72375 32.3 81.14562Q32.128124 81.55187 32.065624 82.09875Q32.003124 82.64562 32.003124 83.28625Q32.003124 84.13 32.08125 84.72375Q32.175 85.3175 32.3625 85.6925Q32.565624 86.0675 32.8625 86.23937Q33.159374 86.41125 33.58125 86.41125Q33.909374 86.41125 34.14375 86.3175Q34.39375 86.20812 34.565624 86.02062Q34.753124 85.8175 34.8625 85.53625Q34.9875 85.255 35.05 84.92687Q35.128124 84.59875 35.159374 84.20812Q35.190624 83.8175 35.190624 83.39562Z" fill-rule="nonzero"/><path fill="#000000" d="M29.971874 27.1125Q29.971874 27.221874 29.95625 27.3Q29.940624 27.378124 29.909374 27.440624Q29.878124 27.503124 29.83125 27.534374Q29.8 27.55 29.7375 27.55L25.55 27.55Q25.471874 27.55 25.409374 27.534374Q25.346874 27.503124 25.3 27.45625Q25.253124 27.409374 25.2375 27.33125Q25.221874 27.2375 25.221874 27.1125Q25.221874 26.9875 25.221874 26.909374Q25.2375 26.815624 25.26875 26.753124Q25.3 26.675 25.33125 26.6125Q25.378124 26.55 25.45625 26.471874L26.925 24.909374Q27.440624 24.378124 27.7375 23.95625Q28.05 23.51875 28.20625 23.175Q28.378124 22.815624 28.425 22.534374Q28.4875 22.2375 28.4875 21.9875Q28.4875 21.7375 28.409374 21.51875Q28.33125 21.284374 28.175 21.1125Q28.01875 20.940624 27.784374 20.846874Q27.55 20.753124 27.2375 20.753124Q26.878124 20.753124 26.596874 20.846874Q26.315624 20.940624 26.096874 21.065624Q25.89375 21.175 25.7375 21.284374Q25.596874 21.378124 25.534374 21.378124Q25.4875 21.378124 25.45625 21.3625Q25.425 21.33125 25.39375 21.284374Q25.378124 21.221874 25.3625 21.14375Q25.3625 21.05 25.3625 20.925Q25.3625 20.846874 25.3625 20.784374Q25.378124 20.70625 25.378124 20.659374Q25.39375 20.6125 25.409374 20.58125Q25.440624 20.534374 25.503124 20.471874Q25.58125 20.409374 25.753124 20.315624Q25.940624 20.20625 26.190624 20.1125Q26.45625 20.003124 26.76875 19.940624Q27.08125 19.8625 27.425 19.8625Q27.971874 19.8625 28.378124 20.01875Q28.8 20.159374 29.065624 20.440624Q29.346874 20.70625 29.471874 21.065624Q29.6125 21.425 29.6125 21.83125Q29.6125 22.190624 29.55 22.55Q29.4875 22.909374 29.284374 23.33125Q29.08125 23.753124 28.675 24.26875Q28.284374 24.76875 27.64375 25.440624L26.440624 26.690624L29.7375 26.690624Q29.784374 26.690624 29.83125 26.721874Q29.878124 26.753124 29.909374 26.8Q29.940624 26.846874 29.95625 26.925Q29.971874 27.003124 29.971874 27.1125ZM35.925 25.1125Q35.925 25.721874 35.721874 26.20625Q35.51875 26.675 35.14375 27.003124Q34.76875 27.315624 34.253124 27.4875Q33.7375 27.659374 33.096874 27.659374Q32.753124 27.659374 32.425 27.6125Q32.1125 27.565624 31.8625 27.4875Q31.628124 27.409374 31.45625 27.346874Q31.3 27.26875 31.253124 27.2375Q31.221874 27.190624 31.20625 27.159374Q31.190624 27.128124 31.175 27.08125Q31.159374 27.01875 31.14375 26.940624Q31.14375 26.8625 31.14375 26.76875Q31.14375 26.659374 31.14375 26.58125Q31.159374 26.503124 31.175 26.45625Q31.20625 26.409374 31.2375 26.39375Q31.26875 26.3625 31.315624 26.3625Q31.378124 26.3625 31.4875 26.440624Q31.6125 26.503124 31.815624 26.596874Q32.034374 26.675 32.33125 26.753124Q32.64375 26.83125 33.065624 26.83125Q33.45625 26.83125 33.784374 26.7375Q34.1125 26.64375 34.346874 26.440624Q34.596874 26.2375 34.721874 25.940624Q34.8625 25.64375 34.8625 25.20625Q34.8625 24.846874 34.7375 24.565624Q34.628124 24.284374 34.39375 24.096874Q34.159374 23.909374 33.8 23.83125Q33.440624 23.7375 32.925 23.7375Q32.565624 23.7375 32.3 23.76875Q32.05 23.8 31.83125 23.8Q31.675 23.8 31.596874 23.7375Q31.534374 23.659374 31.534374 23.440624L31.534374 20.346874Q31.534374 20.159374 31.6125 20.065624Q31.70625 19.971874 31.878124 19.971874L35.2375 19.971874Q35.284374 19.971874 35.33125 20.003124Q35.378124 20.01875 35.39375 20.08125Q35.425 20.128124 35.440624 20.20625Q35.45625 20.284374 35.45625 20.39375Q35.45625 20.6125 35.39375 20.7375Q35.346874 20.846874 35.2375 20.846874L32.409374 20.846874L32.409374 22.971874Q32.6125 22.940624 32.815624 22.940624Q33.034374 22.925 33.315624 22.925Q33.971874 22.925 34.45625 23.08125Q34.940624 23.2375 35.26875 23.534374Q35.596874 23.815624 35.753124 24.221874Q35.925 24.6125 35.925 25.1125Z" fill-rule="nonzero"/><path fill="#000000" d="M186.85605 348.45L186.85605 342.9969L181.8873 335.5594L183.96542 335.5594L186.5123 339.45Q187.21542 340.54376 187.8248 341.6219Q188.40292 340.6219 189.23105 339.35626L191.71542 335.5594L193.6998 335.5594L188.55917 342.9969L188.55917 348.45L186.85605 348.45ZM201.41855 345.45L203.05917 345.65314Q202.66855 347.075 201.62167 347.8719Q200.5748 348.66876 198.9498 348.66876Q196.90292 348.66876 195.6998 347.40314Q194.49667 346.1375 194.49667 343.85626Q194.49667 341.5125 195.6998 340.21564Q196.91855 338.90314 198.85605 338.90314Q200.73105 338.90314 201.91855 340.1844Q203.10605 341.45 203.10605 343.7625Q203.10605 343.90314 203.09042 344.1844L196.1373 344.1844Q196.21542 345.73126 196.99667 346.54376Q197.79355 347.35626 198.9498 347.35626Q199.8248 347.35626 200.43417 346.90314Q201.05917 346.45 201.41855 345.45ZM196.21542 342.8875L201.43417 342.8875Q201.3248 341.71564 200.84042 341.1219Q200.0748 340.2 198.87167 340.2Q197.79355 340.2 197.04355 340.9344Q196.30917 341.66876 196.21542 342.8875ZM204.3873 345.66876L205.96542 345.41876Q206.09042 346.35626 206.68417 346.85626Q207.29355 347.35626 208.37167 347.35626Q209.46542 347.35626 209.99667 346.91876Q210.52792 346.46564 210.52792 345.8719Q210.52792 345.34064 210.05917 345.02814Q209.73105 344.825 208.43417 344.4969Q206.6998 344.0594 206.02792 343.7469Q205.35605 343.41876 204.99667 342.85626Q204.65292 342.27814 204.65292 341.59064Q204.65292 340.96564 204.93417 340.4344Q205.23105 339.90314 205.71542 339.5594Q206.09042 339.27814 206.73105 339.09064Q207.37167 338.90314 208.09042 338.90314Q209.1998 338.90314 210.02792 339.23126Q210.85605 339.54376 211.24667 340.09064Q211.65292 340.6219 211.79355 341.52814L210.24667 341.73126Q210.1373 341.0125 209.6373 340.60626Q209.1373 340.2 208.21542 340.2Q207.12167 340.2 206.65292 340.5594Q206.18417 340.91876 206.18417 341.40314Q206.18417 341.71564 206.3873 341.96564Q206.5748 342.21564 206.98105 342.3875Q207.23105 342.46564 208.3873 342.79376Q210.05917 343.23126 210.71542 343.52814Q211.3873 343.8094 211.7623 344.35626Q212.15292 344.90314 212.15292 345.7Q212.15292 346.4969 211.68417 347.2Q211.23105 347.90314 210.35605 348.29376Q209.48105 348.66876 208.3873 348.66876Q206.55917 348.66876 205.60605 347.91876Q204.65292 347.15314 204.3873 345.66876Z" fill-rule="nonzero"/><path fill="#000000" d="M416.53458 348.45L416.53458 335.5594L418.28458 335.5594L425.0502 345.6844L425.0502 335.5594L426.6752 335.5594L426.6752 348.45L424.94083 348.45L418.15958 338.325L418.15958 348.45L416.53458 348.45ZM428.75333 343.77814Q428.75333 341.1844 430.20645 339.9344Q431.40958 338.90314 433.12833 338.90314Q435.06583 338.90314 436.28458 340.16876Q437.50333 341.4344 437.50333 343.65314Q437.50333 345.45 436.95645 346.48126Q436.4252 347.5125 435.39395 348.09064Q434.3627 348.66876 433.12833 348.66876Q431.1752 348.66876 429.95645 347.41876Q428.75333 346.15314 428.75333 343.77814ZM430.37833 343.77814Q430.37833 345.575 431.15958 346.46564Q431.94083 347.35626 433.12833 347.35626Q434.31583 347.35626 435.09708 346.46564Q435.87833 345.5594 435.87833 343.73126Q435.87833 341.9969 435.08145 341.10626Q434.3002 340.21564 433.12833 340.21564Q431.94083 340.21564 431.15958 341.10626Q430.37833 341.9969 430.37833 343.77814Z" fill-rule="nonzero"/></svg>