<svg version="1.1" viewBox="0.0 0.0 600.0 371.0" fill="none" stroke="none" stroke-linecap="square" stroke-miterlimit="10" width="600" height="371" xmlns:xlink="http://www.w3.org/1999/xlink" xmlns="http://www.w3.org/2000/svg"><path fill="#ffffff" d="M0 0L600.0 0L600.0 371.0L0 371.0L0 0Z" fill-rule="nonzero"/><path stroke="#333333" stroke-width="1.0" stroke-linecap="butt" d="M42.5 318.5L581.5 318.5" fill-rule="nonzero"/><path stroke="#cccccc" stroke-width="1.0" stroke-linecap="butt" d="M42.5 244.5L581.5 244.5" fill-rule="nonzero"/><path stroke="#cccccc" stroke-width="1.0" stroke-linecap="butt" d="M42.5 171.5L581.5 171.5" fill-rule="nonzero"/><path stroke="#cccccc" stroke-width="1.0" stroke-linecap="butt" d="M42.5 98.5L581.5 98.5" fill-rule="nonzero"/><path stroke="#cccccc" stroke-width="1.0" stroke-linecap="butt" d="M42.5 24.5L581.5 24.5" fill-rule="nonzero"/><clipPath id="id_0"><path d="M42.55 24.55L581.45 24.55L581.45 318.45L42.55 318.45L42.55 24.55Z" clip-rule="nonzero"/></clipPath><path stroke="#000000" stroke-width="2.0" stroke-linecap="butt" stroke-opacity="0.0" clip-path="url(#id_0)" d="M272.0 318.0L123.0 318.0L123.0 56.0C123.0 54.89543 123.89543 54.0 125.0 54.0L270.0 54.0C271.10458 54.0 272.0 54.89543 272.0 56.0Z" fill-rule="nonzero"/><path fill="#1d70b8" clip-path="url(#id_0)" d="M272.0 318.0L123.0 318.0L123.0 56.0C123.0 54.89543 123.89543 54.0 125.0 54.0L270.0 54.0C271.10458 54.0 272.0 54.89543 272.0 56.0Z" fill-rule="nonzero"/><path stroke="#000000" stroke-width="2.0" stroke-linecap="butt" stroke-opacity="0.0" clip-path="url(#id_0)" d="M502.0 318.0L353.0 318.0L353.0 247.0C353.0 245.89543 353.89542 245.0 355.0 245.0L500.0 245.0C501.10458 245.0 502.0 245.89543 502.0 247.0Z" fill-rule="nonzero"/><path fill="#1d70b8" clip-path="url(#id_0)" d="M502.0 318.0L353.0 318.0L353.0 247.0C353.0 245.89543 353.89542 245.0 355.0 245.0L500.0 245.0C501.10458 245.0 502.0 245.89543 502.0 247.0Z" fill-rule="nonzero"/><path fill="#000000" d="M36.221874 317.6375Q36.221874 318.5125 36.08125 319.23126Q35.940624 319.95 35.6125 320.48126Q35.3 320.9969 34.784374 321.27814Q34.26875 321.5594 33.51875 321.5594Q32.8 321.5594 32.3 321.3094Q31.815624 321.04376 31.51875 320.5594Q31.221874 320.0594 31.096874 319.34064Q30.971874 318.60626 30.971874 317.66876Q30.971874 316.8094 31.1125 316.09064Q31.253124 315.35626 31.565624 314.84064Q31.89375 314.325 32.409374 314.04376Q32.925 313.7625 33.675 313.7625Q34.39375 313.7625 34.878124 314.0125Q35.3625 314.2625 35.659374 314.7625Q35.971874 315.2625 36.096874 315.98126Q36.221874 316.7 36.221874 317.6375ZM35.190624 317.71564Q35.190624 317.1375 35.14375 316.7Q35.096874 316.2469 35.01875 315.90314Q34.940624 315.54376 34.815624 315.29376Q34.690624 315.04376 34.51875 314.8875Q34.346874 314.73126 34.1125 314.65314Q33.89375 314.575 33.6125 314.575Q33.1125 314.575 32.8 314.8094Q32.4875 315.04376 32.3 315.46564Q32.128124 315.8719 32.065624 316.41876Q32.003124 316.96564 32.003124 317.60626Q32.003124 318.45 32.08125 319.04376Q32.175 319.6375 32.3625 320.0125Q32.565624 320.3875 32.8625 320.5594Q33.159374 320.73126 33.58125 320.73126Q33.909374 320.73126 34.14375 320.6375Q34.39375 320.52814 34.565624 320.34064Q34.753124 320.1375 34.8625 319.85626Q34.9875 319.575 35.05 319.2469Q35.128124 318.91876 35.159374 318.52814Q35.190624 318.1375 35.190624 317.71564Z" fill-rule="nonzero"/><path fill="#000000" d="M35.925 245.5375Q35.925 246.14688 35.721874 246.63126Q35.51875 247.1 35.14375 247.42813Q34.76875 247.74063 34.253124 247.9125Q33.7375 248.08438 33.096874 248.08438Q32.753124 248.08438 32.425 248.0375Q32.1125 247.99063 31.8625 247.9125Q31.628124 247.83438 31.45625 247.77188Q31.3 247.69376 31.253124 247.6625Q31.221874 247.61563 31.20625 247.58438Q31.190624 247.55313 31.175 247.50626Q31.159374 247.44376 31.14375 247.36563Q31.14375 247.2875 31.14375 247.19376Q31.14375 247.08438 31.14375 247.00626Q31.159374 246.92813 31.175 246.88126Q31.20625 246.83438 31.2375 246.81876Q31.26875 246.7875 31.315624 246.7875Q31.378124 246.7875 31.4875 246.86563Q31.6125 246.92813 31.815624 247.02188Q32.034374 247.1 32.33125 247.17813Q32.64375 247.25626 33.065624 247.25626Q33.45625 247.25626 33.784374 247.1625Q34.1125 247.06876 34.346874 246.86563Q34.596874 246.6625 34.721874 246.36563Q34.8625 246.06876 34.8625 245.63126Q34.8625 245.27188 34.7375 244.99063Q34.628124 244.70938 34.39375 244.52188Q34.159374 244.33438 33.8 244.25626Q33.440624 244.1625 32.925 244.1625Q32.565624 244.1625 32.3 244.19376Q32.05 244.225 31.83125 244.225Q31.675 244.225 31.596874 244.1625Q31.534374 244.08438 31.534374 243.86563L31.534374 240.77188Q31.534374 240.58438 31.6125 240.49063Q31.70625 240.39688 31.878124 240.39688L35.2375 240.39688Q35.284374 240.39688 35.33125 240.42813Q35.378124 240.44376 35.39375 240.50626Q35.425 240.55313 35.440624 240.63126Q35.45625 240.70938 35.45625 240.81876Q35.45625 241.0375 35.39375 241.1625Q35.346874 241.27188 35.2375 241.27188L32.409374 241.27188L32.409374 243.39688Q32.6125 243.36563 32.815624 243.36563Q33.034374 243.35 33.315624 243.35Q33.971874 243.35 34.45625 243.50626Q34.940624 243.6625 35.26875 243.95938Q35.596874 244.24063 35.753124 244.64688Q35.925 245.0375 35.925 245.5375Z" fill-rule="nonzero"/><path fill="#000000" d="M29.9875 174.09375Q29.9875 174.21875 29.95625 174.29688Q29.940624 174.35938 29.909374 174.40625Q29.89375 174.45312 29.846874 174.48438Q29.815624 174.5 29.76875 174.5L25.815624 174.5Q25.76875 174.5 25.7375 174.48438Q25.70625 174.45312 25.659374 174.40625Q25.628124 174.35938 25.6125 174.29688Q25.596874 174.21875 25.596874 174.09375Q25.596874 174.0 25.6125 173.92188Q25.628124 173.84375 25.659374 173.79688Q25.690624 173.75 25.721874 173.71875Q25.76875 173.6875 25.815624 173.6875L27.39375 173.6875L27.39375 167.92188L25.925 168.79688Q25.815624 168.85938 25.7375 168.875Q25.675 168.875 25.628124 168.84375Q25.596874 168.79688 25.58125 168.71875Q25.565624 168.625 25.565624 168.5Q25.565624 168.39062 25.565624 168.32812Q25.58125 168.25 25.596874 168.20312Q25.628124 168.15625 25.659374 168.125Q25.690624 168.09375 25.7375 168.04688L27.4875 166.9375Q27.503124 166.92188 27.534374 166.90625Q27.58125 166.89062 27.628124 166.89062Q27.690624 166.875 27.753124 166.875Q27.83125 166.85938 27.925 166.85938Q28.065624 166.85938 28.159374 166.875Q28.253124 166.89062 28.3 166.90625Q28.3625 166.92188 28.378124 166.96875Q28.39375 167.0 28.39375 167.03125L28.39375 173.6875L29.76875 173.6875Q29.815624 173.6875 29.846874 173.71875Q29.89375 173.75 29.925 173.79688Q29.95625 173.84375 29.971874 173.92188Q29.9875 174.0 29.9875 174.09375ZM36.221874 170.6875Q36.221874 171.5625 36.08125 172.28125Q35.940624 173.0 35.6125 173.53125Q35.3 174.04688 34.784374 174.32812Q34.26875 174.60938 33.51875 174.60938Q32.8 174.60938 32.3 174.35938Q31.815624 174.09375 31.51875 173.60938Q31.221874 173.10938 31.096874 172.39062Q30.971874 171.65625 30.971874 170.71875Q30.971874 169.85938 31.1125 169.14062Q31.253124 168.40625 31.565624 167.89062Q31.89375 167.375 32.409374 167.09375Q32.925 166.8125 33.675 166.8125Q34.39375 166.8125 34.878124 167.0625Q35.3625 167.3125 35.659374 167.8125Q35.971874 168.3125 36.096874 169.03125Q36.221874 169.75 36.221874 170.6875ZM35.190624 170.76562Q35.190624 170.1875 35.14375 169.75Q35.096874 169.29688 35.01875 168.95312Q34.940624 168.59375 34.815624 168.34375Q34.690624 168.09375 34.51875 167.9375Q34.346874 167.78125 34.1125 167.70312Q33.89375 167.625 33.6125 167.625Q33.1125 167.625 32.8 167.85938Q32.4875 168.09375 32.3 168.51562Q32.128124 168.92188 32.065624 169.46875Q32.003124 170.01562 32.003124 170.65625Q32.003124 171.5 32.08125 172.09375Q32.175 172.6875 32.3625 173.0625Q32.565624 173.4375 32.8625 173.60938Q33.159374 173.78125 33.58125 173.78125Q33.909374 173.78125 34.14375 173.6875Q34.39375 173.57812 34.565624 173.39062Q34.753124 173.1875 34.8625 172.90625Q34.9875 172.625 35.05 172.29688Q35.128124 171.96875 35.159374 171.57812Q35.190624 171.1875 35.190624 170.76562Z" fill-rule="nonzero"/><path fill="#000000" d="M29.9875 100.61875Q29.9875 100.74375 29.95625 100.82188Q29.940624 100.88438 29.909374 100.93125Q29.89375 100.97813 29.846874 101.00938Q29.815624 101.025 29.76875 101.025L25.815624 101.025Q25.76875 101.025 25.7375 101.00938Q25.70625 100.97813 25.659374 100.93125Q25.628124 100.88438 25.6125 100.82188Q25.596874 100.74375 25.596874 100.61875Q25.596874 100.525 25.6125 100.44688Q25.628124 100.36875 25.659374 100.32188Q25.690624 100.275 25.721874 100.24375Q25.76875 100.2125 25.815624 100.2125L27.39375 100.2125L27.39375 94.44688L25.925 95.32188Q25.815624 95.38438 25.7375 95.4Q25.675 95.4 25.628124 95.36875Q25.596874 95.32188 25.58125 95.24375Q25.565624 95.15 25.565624 95.025Q25.565624 94.91563 25.565624 94.85313Q25.58125 94.775 25.596874 94.72813Q25.628124 94.68125 25.659374 94.65Q25.690624 94.61875 25.7375 94.57188L27.4875 93.4625Q27.503124 93.44688 27.534374 93.43125Q27.58125 93.41563 27.628124 93.41563Q27.690624 93.4 27.753124 93.4Q27.83125 93.38438 27.925 93.38438Q28.065624 93.38438 28.159374 93.4Q28.253124 93.41563 28.3 93.43125Q28.3625 93.44688 28.378124 93.49375Q28.39375 93.525 28.39375 93.55625L28.39375 100.2125L29.76875 100.2125Q29.815624 100.2125 29.846874 100.24375Q29.89375 100.275 29.925 100.32188Q29.95625 100.36875 29.971874 100.44688Q29.9875 100.525 29.9875 100.61875ZM35.925 98.5875Q35.925 99.19688 35.721874 99.68125Q35.51875 100.15 35.14375 100.47813Q34.76875 100.79063 34.253124 100.9625Q33.7375 101.13438 33.096874 101.13438Q32.753124 101.13438 32.425 101.0875Q32.1125 101.04063 31.8625 100.9625Q31.628124 100.88438 31.45625 100.82188Q31.3 100.74375 31.253124 100.7125Q31.221874 100.66563 31.20625 100.63438Q31.190624 100.60313 31.175 100.55625Q31.159374 100.49375 31.14375 100.41563Q31.14375 100.3375 31.14375 100.24375Q31.14375 100.13438 31.14375 100.05625Q31.159374 99.97813 31.175 99.93125Q31.20625 99.88438 31.2375 99.86875Q31.26875 99.8375 31.315624 99.8375Q31.378124 99.8375 31.4875 99.91563Q31.6125 99.97813 31.815624 100.07188Q32.034374 100.15 32.33125 100.22813Q32.64375 100.30625 33.065624 100.30625Q33.45625 100.30625 33.784374 100.2125Q34.1125 100.11875 34.346874 99.91563Q34.596874 99.7125 34.721874 99.41563Q34.8625 99.11875 34.8625 98.68125Q34.8625 98.32188 34.7375 98.04063Q34.628124 97.75938 34.39375 97.57188Q34.159374 97.38438 33.8 97.30625Q33.440624 97.2125 32.925 97.2125Q32.565624 97.2125 32.3 97.24375Q32.05 97.275 31.83125 97.275Q31.675 97.275 31.596874 97.2125Q31.534374 97.13438 31.534374 96.91563L31.534374 93.82188Q31.534374 93.63438 31.6125 93.54063Q31.70625 93.44688 31.878124 93.44688L35.2375 93.44688Q35.284374 93.44688 35.33125 93.47813Q35.378124 93.49375 35.39375 93.55625Q35.425 93.60313 35.440624 93.68125Q35.45625 93.75938 35.45625 93.86875Q35.45625 94.0875 35.39375 94.2125Q35.346874 94.32188 35.2375 94.32188L32.409374 94.32188L32.409374 96.44688Q32.6125 96.41563 32.815624 96.41563Q33.034374 96.4 33.315624 96.4Q33.971874 96.4 34.45625 96.55625Q34.940624 96.7125 35.26875 97.00938Q35.596874 97.29063 35.753124 97.69688Q35.925 98.0875 35.925 98.5875Z" fill-rule="nonzero"/><path fill="#000000" d="M29.971874 27.1125Q29.971874 27.221874 29.95625 27.3Q29.940624 27.378124 29.909374 27.440624Q29.878124 27.503124 29.83125 27.534374Q29.8 27.55 29.7375 27.55L25.55 27.55Q25.471874 27.55 25.409374 27.534374Q25.346874 27.503124 25.3 27.45625Q25.253124 27.409374 25.2375 27.33125Q25.221874 27.2375 25.221874 27.1125Q25.221874 26.9875 25.221874 26.909374Q25.2375 26.815624 25.26875 26.753124Q25.3 26.675 25.33125 26.6125Q25.378124 26.55 25.45625 26.471874L26.925 24.909374Q27.440624 24.378124 27.7375 23.95625Q28.05 23.51875 28.20625 23.175Q28.378124 22.815624 28.425 22.534374Q28.4875 22.2375 28.4875 21.9875Q28.4875 21.7375 28.409374 21.51875Q28.33125 21.284374 28.175 21.1125Q28.01875 20.940624 27.784374 20.846874Q27.55 20.753124 27.2375 20.753124Q26.878124 20.753124 26.596874 20.846874Q26.315624 20.940624 26.096874 21.065624Q25.89375 21.175 25.7375 21.284374Q25.596874 21.378124 25.534374 21.378124Q25.4875 21.378124 25.45625 21.3625Q25.425 21.33125 25.39375 21.284374Q25.378124 21.221874 25.3625 21.14375Q25.3625 21.05 25.3625 20.925Q25.3625 20.846874 25.3625 20.784374Q25.378124 20.70625 25.378124 20.659374Q25.39375 20.6125 25.409374 20.58125Q25.440624 20.534374 25.503124 20.471874Q25.58125 20.409374 25.753124 20.315624Q25.940624 20.20625 26.190624 20.1125Q26.45625 20.003124 26.76875 19.940624Q27.08125 19.8625 27.425 19.8625Q27.971874 19.8625 28.378124 20.01875Q28.8 20.159374 29.065624 20.440624Q29.346874 20.70625 29.471874 21.065624Q29.6125 21.425 29.6125 21.83125Q29.6125 22.190624 29.55 22.55Q29.4875 22.909374 29.284374 23.33125Q29.08125 23.753124 28.675 24.26875Q28.284374 24.76875 27.64375 25.440624L26.440624 26.690624L29.7375 26.690624Q29.784374 26.690624 29.83125 26.721874Q29.878124 26.753124 29.909374 26.8Q29.940624 26.846874 29.95625 26.925Q29.971874 27.003124 29.971874 27.1125ZM36.221874 23.7375Q36.221874 24.6125 36.08125 25.33125Q35.940624 26.05 35.6125 26.58125Q35.3 27.096874 34.784374 27.378124Q34.26875 27.659374 33.51875 27.659374Q32.8 27.659374 32.3 27.409374Q31.815624 27.14375 31.51875 26.659374Q31.221874 26.159374 31.096874 25.440624Q30.971874 24.70625 30.971874 23.76875Q30.971874 22.909374 31.1125 22.190624Q31.253124 21.45625 31.565624 20.940624Q31.89375 20.425 32.409374 20.14375Q32.925 19.8625 33.675 19.8625Q34.39375 19.8625 34.878124 20.1125Q35.3625 20.3625 35.659374 20.8625Q35.971874 21.3625 36.096874 22.08125Q36.221874 22.8 36.221874 23.7375ZM35.190624 23.815624Q35.190624 23.2375 35.14375 22.8Q35.096874 22.346874 35.01875 22.003124Q34.940624 21.64375 34.815624 21.39375Q34.690624 21.14375 34.51875 20.9875Q34.346874 20.83125 34.1125 20.753124Q33.89375 20.675 33.6125 20.675Q33.1125 20.675 32.8 20.909374Q32.4875 21.14375 32.3 21.565624Q32.128124 21.971874 32.065624 22.51875Q32.003124 23.065624 32.003124 23.70625Q32.003124 24.55 32.08125 25.14375Q32.175 25.7375 32.3625 26.1125Q32.565624 26.4875 32.8625 26.659374Q33.159374 26.83125 33.58125 26.83125Q33.909374 26.83125 34.14375 26.7375Q34.39375 26.628124 34.565624 26.440624Q34.753124 26.2375 34.8625 25.95625Q34.9875 25.675 35.05 25.346874Q35.128124 25.01875 35.159374 24.628124Q35.190624 24.2375 35.190624 23.815624Z" fill-rule="nonzero"/><path fill="#000000" d="M185.41855 347.45L185.41855 341.3875L179.90292 333.1375L182.1998 333.1375L185.02792 337.45Q185.80917 338.65314 186.48105 339.8719Q187.12167 338.7469 188.04355 337.34064L190.8248 333.1375L193.02792 333.1375L187.30917 341.3875L187.30917 347.45L185.41855 347.45ZM202.2623 344.10626L204.0748 344.34064Q203.65292 345.91876 202.48105 346.8094Q201.3248 347.6844 199.5123 347.6844Q197.24667 347.6844 195.90292 346.29376Q194.5748 344.8875 194.5748 342.35626Q194.5748 339.73126 195.91855 338.29376Q197.2623 336.84064 199.41855 336.84064Q201.49667 336.84064 202.80917 338.2625Q204.1373 339.66876 204.1373 342.2469Q204.1373 342.40314 204.12167 342.71564L196.3873 342.71564Q196.48105 344.41876 197.35605 345.325Q198.23105 346.23126 199.52792 346.23126Q200.49667 346.23126 201.16855 345.73126Q201.85605 345.21564 202.2623 344.10626ZM196.48105 341.2625L202.27792 341.2625Q202.16855 339.96564 201.62167 339.3094Q200.77792 338.29376 199.43417 338.29376Q198.23105 338.29376 197.40292 339.10626Q196.5748 339.90314 196.48105 341.2625ZM205.4498 344.35626L207.1998 344.075Q207.34042 345.1219 208.0123 345.6844Q208.68417 346.23126 209.8873 346.23126Q211.09042 346.23126 211.66855 345.7469Q212.2623 345.2469 212.2623 344.59064Q212.2623 343.9969 211.74667 343.65314Q211.3873 343.41876 209.9498 343.0594Q208.0123 342.5594 207.2623 342.21564Q206.52792 341.85626 206.1373 341.23126Q205.74667 340.59064 205.74667 339.825Q205.74667 339.1375 206.05917 338.54376Q206.3873 337.95 206.93417 337.5594Q207.34042 337.2625 208.04355 337.0594Q208.7623 336.84064 209.5748 336.84064Q210.79355 336.84064 211.71542 337.2Q212.6373 337.54376 213.0748 338.15314Q213.5123 338.7469 213.68417 339.7469L211.96542 339.98126Q211.84042 339.1844 211.27792 338.7469Q210.71542 338.29376 209.6998 338.29376Q208.48105 338.29376 207.96542 338.7Q207.4498 339.09064 207.4498 339.6219Q207.4498 339.96564 207.66855 340.2469Q207.87167 340.52814 208.34042 340.71564Q208.60605 340.8094 209.8873 341.15314Q211.7623 341.65314 212.49667 341.98126Q213.23105 342.29376 213.65292 342.90314Q214.0748 343.4969 214.0748 344.40314Q214.0748 345.27814 213.55917 346.0594Q213.04355 346.84064 212.0748 347.2625Q211.10605 347.6844 209.8873 347.6844Q207.87167 347.6844 206.80917 346.84064Q205.74667 345.9969 205.4498 344.35626Z" fill-rule="nonzero"/><path fill="#000000" d="M416.19083 347.45L416.19083 333.1375L418.12833 333.1375L425.64395 344.3719L425.64395 333.1375L427.45645 333.1375L427.45645 347.45L425.51895 347.45L418.00333 336.2L418.00333 347.45L416.19083 347.45ZM428.33145 342.2625Q428.33145 339.3875 429.9252 337.9969Q431.26895 336.84064 433.19083 336.84064Q435.33145 336.84064 436.6752 338.2469Q438.03458 339.65314 438.03458 342.1219Q438.03458 344.1219 437.44083 345.27814Q436.84708 346.41876 435.69083 347.0594Q434.5502 347.6844 433.19083 347.6844Q431.00333 347.6844 429.65958 346.29376Q428.33145 344.8875 428.33145 342.2625ZM430.12833 342.2625Q430.12833 344.2625 430.9877 345.2469Q431.8627 346.23126 433.19083 346.23126Q434.50333 346.23126 435.3627 345.2469Q436.2377 344.2469 436.2377 342.2Q436.2377 340.27814 435.3627 339.29376Q434.4877 338.29376 433.19083 338.29376Q431.8627 338.29376 430.9877 339.29376Q430.12833 340.27814 430.12833 342.2625Z" fill-rule="nonzero"/></svg>