<?xml version="1.0" encoding="UTF-8"?>
<svg width="700px" height="700px" viewBox="0 0 700 700" version="1.1" xmlns="http://www.w3.org/2000/svg" xmlns:xlink="http://www.w3.org/1999/xlink">
    <title>Artboard</title>
    <g id="Artboard" stroke="none" stroke-width="1" fill="none" fill-rule="evenodd">
        <g id="jon" fill-rule="nonzero">
            <path d="M0,672.697554 C9.03582199,667.884117 13.16902,660.062282 13.3071221,650.129636 C13.1538339,642.24659 17.0716146,634.840337 23.6746428,630.530662 C27.0088216,628.192988 30.3627293,625.845451 33.9040613,623.833277 C35.4272438,623.063694 37.1375827,622.742178 38.8362786,622.906099 C49.7562075,623.783959 60.6564077,625.056363 71.5862011,625.707361 C74.8238167,625.852242 78.0397216,625.112272 80.8883628,623.56696 C104.069784,610.596325 126.945407,597.083192 150.235337,584.30983 C165.229278,576.073723 180.696711,568.676023 196.075364,561.159959 C204.021614,557.138512 212.946427,555.455631 221.811674,556.307068 C223.812842,556.308653 225.725927,555.484241 227.099011,554.028576 C234.990558,545.003382 235.316085,534.893191 231.350582,523.954458 C223.623442,502.616203 216.126471,481.199038 208.859671,459.702965 C207.537837,455.82657 207.271497,451.476722 207.162989,447.33401 C207.005158,441.011442 204.933626,435.66537 199.419408,432.538609 C192.425524,428.593169 189.989008,422.586236 189.860771,415.149081 C189.357684,387.195637 183.369973,359.912918 180.173896,332.235656 C180.012725,331.436432 179.923588,330.624362 179.907556,329.80921 C180.065387,327.254537 179.374877,323.368279 180.71644,322.421373 C184.366281,319.846973 188.854598,318.278661 193.540205,320.399335 C194.684479,320.912242 195.809025,321.464604 197.683267,322.372055 C197.19991,318.594296 196.963163,315.408353 196.361433,312.291455 C190.738705,283.262879 184.958147,254.25403 179.424199,225.21559 C176.987684,212.392909 179.345283,199.945046 183.241735,187.733908 C186.319439,178.107034 189.357684,168.470296 192.287421,158.803968 C193.273865,155.657479 194.862039,153.615714 198.206082,152.61949 C209.74747,149.177094 213.989177,142.568482 211.92751,130.830797 C210.434368,123.637652 212.272542,116.155068 216.928779,110.472326 C222.452862,103.567805 228.203827,96.8013753 234.201404,90.3012625 C239.133621,84.9453275 245.732927,82.1046105 252.490065,79.7176192 C271.271948,72.9906437 288.189454,63.2158156 302.571799,49.2292301 C304.125334,47.8835306 306.091282,47.1076557 308.145204,47.0296472 C310.939307,46.9434 313.726103,47.36105 316.372143,48.2625972 C322.819859,50.4556859 329.805228,50.4972207 336.278572,48.3809604 C344.515374,45.8854695 352.633804,42.8967986 361.008709,41.0424417 C369.383614,39.1880848 377.413263,40.7465336 384.939827,45.1259723 C386.623055,45.9591042 388.581001,46.0379891 390.325808,45.3429715 C402.468927,39.207812 415.292692,38.2510427 428.461712,40.440762 C429.734224,40.6577612 430.878498,41.6539849 432.081959,42.2852553 C432.081959,42.7291173 432.081959,43.1631158 432.081959,43.5971142 L416.949917,48.5289144 C418.268735,49.7819625 419.672852,50.9420733 421.152166,52.0009018 C425.551704,54.6344831 430.030157,57.0905197 434.469153,59.6945102 C435.660695,60.4832898 436.803742,61.3429734 437.892111,62.2689099 L437.527127,63.25527 L421.744032,60.8584151 C421.60593,65.9776237 423.292748,69.1043851 427.031369,71.4617856 C433.245963,75.4072258 439.204081,79.6683012 445.369353,83.6531958 C446.661594,84.4817382 448.496378,85.2905535 449.877399,85.0340999 C455.79606,83.919513 461.458245,84.8861459 467.05138,86.809548 C471.115527,88.2200428 475.219131,89.5319017 479.273414,90.9621238 C480.297244,91.4034987 481.28647,91.9211501 482.232744,92.5107091 L482.232744,93.7535227 L461.073532,97.4326457 C463.450861,99.6815466 465.157408,101.378086 466.923142,102.946398 C470.740678,106.369068 474.627265,109.712828 478.425073,113.165088 C479.727178,114.348721 480.930639,115.650716 479.589076,117.672754 C477.971309,120.0992 479.372058,121.292695 481.473183,122.604554 C487.707505,126.421768 493.803726,130.495435 499.761844,134.283057 C499.268623,137.291455 498.084891,137.646545 495.944308,136.827866 C491.63355,135.160918 487.234013,133.710968 481.936811,131.846748 C482.157086,133.795151 482.509732,135.726304 482.992306,137.626818 C486.05028,146.504058 488.910966,155.558843 492.412841,164.258539 C497.858009,177.663172 498.489332,191.580712 498.449875,205.784297 C498.370959,231.666385 493.81359,257.07502 490.291987,282.532973 C488.703813,293.945158 486.819706,305.327753 485.152617,316.739939 C485.033392,318.454135 485.033392,320.174542 485.152617,321.888739 L492.057721,320.379608 L492.501621,321.139105 C491.643415,321.938057 490.85426,322.815917 489.927003,323.526096 C482.262338,329.444257 478.573039,336.812366 480.723486,346.735148 C481.344945,349.625183 480.82213,352.761808 480.013247,355.898433 C479.401652,350.73977 478.543446,345.600834 478.217919,340.422444 C476.955272,320.527562 476.55083,300.553771 474.489163,280.737797 C472.713565,263.525814 469.556946,246.412468 466.183309,229.447075 C464.101914,218.981795 458.429864,210.0651 450.449536,202.746308 C448.762718,201.197723 447.707224,198.988276 446.128914,197.291737 C443.613483,194.618701 441.275612,191.531394 438.237366,189.65731 C424.693498,181.322568 410.133593,176.913538 393.965785,178.935577 C390.098926,179.418893 386.074237,178.679123 382.128463,178.45226 C367.12137,177.584263 352.117565,176.712979 337.117049,175.838406 C336.212086,175.736175 335.298362,175.929979 334.512838,176.390768 C331.820949,178.587656 328.1458,179.143418 324.924608,177.840717 C317.753164,175.069045 310.857924,177.525082 304.0416,179.004622 C298.044024,180.316481 292.204278,182.575245 286.443449,184.656465 C285.299174,185.070736 284.529748,186.56014 283.651814,187.615545 C283.252664,188.139348 282.905755,188.700963 282.616048,189.292357 C281.629605,191.156578 280.524788,193.001071 279.577802,194.904746 C278.818241,196.42374 278.206646,198.01178 277.526,199.570229 L273.777515,195.79247 L267.947634,198.869913 L271.469237,200.309999 C267.336039,205.725116 263.232434,211.159959 259.000592,216.58494 C258.038404,217.865239 256.831278,218.941502 255.449395,219.751155 C252.549252,221.329332 250.625687,223.696596 250.31989,226.823357 C249.777346,232.386428 248.238494,238.107316 252.598574,243.167343 C254.512274,245.386653 252.016572,248.641641 248.090527,249.381411 L241.185423,250.634089 L241.057186,251.620449 L247.498661,255.98016 C244.233533,257.587927 241.027592,259.077331 237.93016,260.764006 C237.032496,261.247323 236.450495,262.312592 235.720526,263.10168 C236.531582,263.72261 237.400344,264.264302 238.314873,264.71931 C240.28776,265.45908 242.260647,266.021305 244.233533,266.69203 C243.454243,270.223199 242.832784,270.371153 238.758772,268.28007 C236.539275,270.25279 237.091683,274.129185 239.903047,275.855315 C240.790846,276.397813 241.875934,276.683858 242.753868,277.167174 C246.028861,278.85385 247.25205,281.428249 245.150926,284.288693 C241.994307,288.57936 243.809363,292.100665 245.654012,295.927742 C247.705814,300.16909 250.586229,303.197216 255.518446,303.818622 C263.409994,304.804983 271.301542,305.603934 279.104309,306.777703 C286.670331,307.92188 294.246216,309.194285 301.693864,310.910551 C305.662821,311.808794 308.903165,314.662433 310.295651,318.485796 C311.735859,322.155056 310.986162,323.417597 307.050252,323.555687 C295.045235,324.019276 283.040219,324.325048 271.054931,324.907 C265.471661,325.183181 259.888391,325.804588 254.354443,326.573949 C252.69739,326.890796 251.191949,327.747506 250.073279,329.010258 C247.751856,331.77974 245.588124,334.677643 243.592345,337.690227 C242.7761,339.183761 242.073731,340.736755 241.491221,342.335982 C243.59871,342.052806 245.689637,341.657704 247.755137,341.15235 C259.316254,337.483091 270.956286,334.24783 283.10927,333.162834 C290.201725,332.339959 297.382404,333.536638 303.824582,336.615094 C306.340013,337.848044 309.141512,338.508905 312.386911,339.623492 L312.386911,329.907846 C314.724782,330.785706 317.220484,331.239432 319.163778,332.531564 C327.765565,338.272179 331.987543,346.281423 331.69161,356.805884 C331.483954,361.094577 332.007668,365.387333 333.240326,369.500338 C336.034297,377.327014 336.117672,385.865333 333.477072,393.745068 C331.731067,398.98264 332.362391,399.604047 337.659592,401.251268 L329.15645,408.353061 C332.234153,410.671007 331.879034,412.604272 329.551027,414.429038 C329.261848,414.630792 329.052444,414.927423 328.959161,415.267444 C327.518954,422.98078 325.013387,430.644798 328.584313,438.476496 C329.793576,441.224457 330.738253,444.08137 331.405541,447.008511 C333.230461,454.741574 334.848229,462.523954 336.633691,470.681152 C337.047998,469.527111 337.383388,468.639387 337.69905,467.722072 C341.644824,468.304024 341.644824,468.304024 346.882839,463.22427 C353.324314,468.15607 352.416786,476.352722 355.277472,483.188197 C358.443956,481.639612 359.223246,478.542442 359.755926,476.027224 C360.259012,473.669823 359.104873,470.967196 358.63138,468.136343 C359.448465,468.258762 360.242936,468.501404 360.98898,468.856386 C362.949158,469.885425 364.769207,471.161672 366.404555,472.653872 C368.949579,475.307181 370.823821,475.41568 372.481046,471.667512 C374.010034,472.140965 375.440377,472.515782 376.841126,473.038553 C379.825945,474.348206 383.24144,474.2468 386.143288,472.762372 C387.997802,471.835193 390.81903,472.693327 393.166765,472.989235 C394.475241,473.312517 395.745181,473.775476 396.954708,474.370139 C397.290099,473.383779 397.576168,472.634145 397.793185,472.042329 C406.325921,476.037087 407.312364,484.86501 411.159494,492.430391 L406.621854,492.065438 C409.097827,497.875099 403.662524,501.465449 403.20876,506.703021 L411.494885,503.911622 C411.593529,505.884342 411.642851,506.870702 411.702038,508.093789 C406.986838,508.360106 408.742707,512.31541 407.756264,514.929264 C404.303712,514.396629 401.443026,513.084771 399.608241,509.84951 C398.108847,507.215928 396.352978,504.740165 394.794397,502.146038 C393.097714,499.325048 390.848623,498.121689 387.465122,498.812141 C384.081621,499.502593 380.560018,499.966182 377.02855,500.528407 C376.850991,500.045091 376.683295,499.542047 376.505735,499.088321 C379.228319,497.865235 381.881852,496.464604 384.693216,495.478244 C389.911502,493.63375 391.657507,490.437944 389.802993,485.299008 C389.585976,484.697328 388.81655,484.312648 387.662411,484.15483 C387.909022,485.35819 388.185226,486.551685 388.382515,487.774772 C388.579803,488.997858 388.688312,490.201217 388.836279,491.404577 C388.51263,491.483699 388.182456,491.533221 387.849835,491.552531 C385.314675,484.855146 377.669739,484.786101 373.497083,480.505298 L368.693103,488.652632 C364.74733,487.735317 365.862011,485.279281 366.404555,483.109289 C366.947098,480.939297 367.667202,478.650941 368.377441,476.204768 L364.431668,474.370139 C362.685663,477.763217 360.880471,480.820933 359.49945,484.066058 C358.11843,487.311183 354.754657,489.698174 356.352696,493.475933 C353.393365,494.067749 350.315662,494.610247 347.297145,495.300699 C343.992559,496.060196 341.220653,495.82347 338.981427,492.746026 C337.09732,490.161763 334.719991,487.932589 331.948085,484.855146 C331.306897,487.547909 331.119472,489.510765 330.340182,491.217168 C329.837096,492.321892 327.883938,493.98884 327.597869,493.801432 C323.790198,491.394713 322.497957,493.939522 321.403004,497.026829 L318.315436,495.054109 L317.654519,495.636061 C318.867845,496.957784 320.071306,498.299233 321.333953,499.581502 C321.718075,499.842984 322.140794,500.042678 322.586737,500.173318 C344.288492,510.263781 338.034441,508.064198 361.196133,503.014034 C363.918717,502.422218 366.601843,501.593676 369.324427,500.972269 C370.499311,500.86884 371.681011,500.86884 372.855895,500.972269 C368.357713,504.828937 365.270145,508.330515 359.686875,509.030831 C351.469801,510.066509 342.828556,510.37228 336.377216,517.10912 C333.477072,520.127381 329.472112,519.969564 325.526338,519.387611 C321.373411,518.776068 317.200755,518.34207 313.067557,517.63189 C309.930667,517.089392 307.632254,517.809435 306.063809,520.758652 C305.233068,522.208919 303.951532,523.34835 302.413968,524.003776 L303.725938,518.085616 C300.352301,518.23357 296.633409,522.031056 294.364589,516.75403 L289.008202,524.743546 L292.687636,525.404408 L292.884924,526.647221 L283.513712,528.975031 C283.798892,529.325495 284.108768,529.655122 284.440968,529.961391 C290.260985,534.636738 290.507596,535.978187 287.163552,542.961617 C286.385827,544.625727 286.085315,546.473035 286.295482,548.297824 L288.879964,544.589111 C289.235084,547.686281 289.580339,550.171908 289.866407,552.667399 C290.438545,558.772968 290.852851,559.128058 297.067445,557.98388 C297.363378,561.347368 297.649446,564.671401 297.965108,568.320933 C305.748147,565.421035 310.729686,569.869519 315.602717,575.146545 C320.840732,580.818115 319.341338,587.969226 319.696457,595.278154 L323.139145,592.654436 L325.624982,593.936704 L328.771737,590.208263 L329.866689,590.740897 L331.948085,598.168188 C335.154026,593.552023 338.300781,589.004904 341.4574,584.467647 L342.443843,585.000282 L339.060342,593.275843 C340.618923,593.374479 341.723739,593.522433 342.828556,593.502705 C348.115893,593.404069 348.115893,593.384342 348.747217,598.809323 L361.975423,596.708376 C361.975423,596.836602 362.21217,597.546782 362.370001,598.138598 C365.694315,597.3791 366.92737,592.516345 371.563654,594.193157 C371.820129,591.668076 372.086469,589.172585 372.382402,586.302277 L369.423072,588.156634 C369.382639,587.476571 369.290302,586.800591 369.146867,586.134596 C368.762154,584.911509 368.288662,583.70815 367.844762,582.504791 C366.841727,583.472682 365.92421,584.525427 365.102449,585.651279 C364.323159,586.91382 364.116006,588.61036 363.247936,589.724946 C362.587018,590.602807 361.275049,590.96776 359.726332,591.845621 C360.136833,589.565413 360.673627,587.309753 361.334235,585.089054 C361.828933,584.09474 362.564861,583.240187 363.474818,582.603427 C366.582114,579.999436 369.768327,577.464491 373.161692,574.712546 C373.457557,575.600949 373.646316,576.521487 373.723965,577.454627 C373.723965,578.717168 373.319523,579.989573 373.280065,581.261977 C373.211014,582.928926 371.780671,584.862191 374.394746,586.075414 C377.008822,587.288637 378.863335,586.627776 380.569882,584.625465 C380.733779,584.473031 380.92008,584.346624 381.122291,584.250648 L387.435529,588.196088 L388.254277,587.683181 C387.188918,581.932702 386.113695,576.172359 384.851047,569.346748 L392.545306,574.219366 L387.909022,561.238868 C394.814126,562.560591 400.604549,566.792075 407.203856,562.757863 C406.148361,558.72365 404.935036,554.058167 403.63293,549.037594 C411.859869,547.853962 413.803162,557.027111 420.678673,558.210743 C419.573856,558.960377 418.853753,559.46342 418.11392,559.946737 C415.657676,561.593958 414.671232,563.241179 416.703306,566.22985 C418.133649,568.320933 418.508498,571.16165 419.534399,574.12073 C424.081903,571.16165 424.239734,565.115263 428.41239,561.179687 C428.41239,561.998365 428.728052,563.014316 428.41239,563.586405 C426.784758,566.12135 424.999295,568.409706 425.78845,571.881693 C426.005468,572.868053 424.279192,574.61391 423.056002,575.422726 C420.777317,576.94172 418.478904,578.214125 418.281616,581.340886 C418.151289,582.031489 417.806036,582.663248 417.295172,583.145925 C411.376511,589.389584 405.635411,595.879833 399.332037,601.728948 C394.054407,606.627649 387.193758,609.469678 379.997745,609.738192 C377.732021,610.001015 375.561301,610.798907 373.664778,612.066002 C369.561174,614.600947 365.132043,614.886991 360.535216,614.847537 C355.93839,614.808083 351.203461,614.660129 346.577041,615.025082 C341.003636,615.468944 335.726163,614.522038 330.399369,613.052362 C324.155182,611.395277 317.664384,610.694961 311.282095,609.550783 C309.240157,609.18583 306.803641,609.284466 305.26479,608.179743 C298.685212,603.474806 291.109326,602.577218 283.464389,601.689494 C281.165976,601.423177 279.429836,600.703134 281.382994,597.921598 C280.145615,597.297034 278.969839,596.557283 277.871255,595.712152 C274.655449,592.753072 270.906964,594.252339 267.375497,594.479202 C266.832953,594.479202 265.856374,596.540694 266.033934,597.438282 C267.188051,604.12781 269.942896,610.439053 274.063583,615.833897 C276.669402,619.137155 278.096415,623.216467 278.117866,627.423628 C278.186917,630.560253 280.031566,633.805377 281.590147,636.725003 C283.632085,640.581671 284.362053,644.319975 282.182013,649.133412 C280.889772,647.713054 279.52848,646.677376 278.759054,645.306335 C275.059891,638.697723 270.650489,632.868335 263.844029,629.051122 C262.285449,628.183125 261.358192,626.092041 260.312562,624.464547 C259.266932,622.837053 258.290353,620.903788 257.303909,619.138203 C252.568981,621.62383 252.559116,624.967591 253.683662,629.297712 C257.964826,645.83897 265.678814,660.861233 274.201685,675.449498 C279.064852,683.784241 284.638257,691.704712 289.896001,699.812592 L0,699.812592 L0,672.697554 Z M245.624419,482.665427 C244.411093,484.223876 243.444379,485.348326 242.615766,486.610867 C242.142273,487.311183 241.441898,488.238361 241.629323,488.899222 C242.057885,491.290666 242.807796,493.613204 243.858685,495.803743 C244.720401,497.277165 246.087283,498.388101 247.705814,498.930504 C252.401285,500.252226 252.539387,500.124 250.665145,504.848664 C249.067864,508.66914 249.436101,513.028689 251.651588,516.527167 L256.583805,514.199357 C257.205265,518.519614 257.737944,522.267783 258.280488,526.035678 C259.141012,525.243342 260.111093,524.578959 261.160903,524.062958 C266.024069,522.583418 267.829261,518.97334 267.424819,514.406493 C266.911868,508.488333 265.767594,502.698399 264.988304,496.839421 C264.880828,495.012946 264.880828,493.181733 264.988304,491.355259 L268.934077,495.557153 C269.180688,493.022207 269.289197,491.207305 269.555537,489.412129 C269.782419,487.942453 269.812012,486.216323 270.611031,485.101736 C272.85197,481.981428 275.300606,479.015632 277.940306,476.224496 C279.163496,474.9225 280.899636,473.541596 282.596319,473.354188 C287.528536,472.782099 290.043967,469.49752 292.460754,465.847988 C294.285674,463.105907 296.120459,460.166554 300.233928,463.096043 C301.457118,458.864559 302.344917,454.899391 303.77526,451.131496 C305.412756,446.801375 304.524957,443.240615 302.216679,439.383948 C300.243792,436.069778 298.122939,432.183519 298.073617,428.533987 C297.935515,418.196934 298.665483,407.820426 299.365858,397.493236 C299.809757,390.963533 302.769088,385.242645 305.965164,379.620392 C306.829855,378.085654 307.066716,376.275767 306.626082,374.570229 C306.31042,373.682505 303.942955,373.110416 302.502748,373.110416 C300.090499,373.215374 297.68803,373.482293 295.311575,373.909368 C294.778896,371.936648 294.719709,369.411566 293.496519,367.705163 C290.803529,363.907677 288.623489,360.297599 291.780108,355.227708 C289.38305,355.020573 287.627181,354.517529 286.009413,354.783846 C282.221471,355.415117 278.522308,356.480386 274.754094,357.249746 C269.299061,358.35447 263.853894,359.903055 258.349539,360.208827 C252.845185,360.514598 252.785998,360.011555 250.635551,364.943355 C250.5665,365.101172 250.260703,365.160354 250.05355,365.25899 L247.044897,364.27263 C246.226149,367.23171 246.2952,370.812197 244.539331,372.607372 C238.688836,378.622438 232.461674,384.259356 225.89555,389.483993 C221.87086,392.679799 219.976889,396.201105 220.667399,401.182223 C220.884417,402.799853 220.91401,404.447075 221.278994,406.025251 C223.843747,417.042893 224.159409,428.711532 230.847496,438.575132 C232.156312,440.888323 232.570504,443.601403 232.011499,446.199696 C231.313308,448.66025 231.932153,451.306891 233.648995,453.202852 C236.687241,456.941157 236.095375,459.121012 231.863533,461.527731 C230.309295,462.543411 228.814065,463.646626 227.385079,464.832037 C228.515196,465.27616 229.667596,465.661358 230.837631,465.986078 C238.028804,467.38671 238.028804,467.366982 238.10772,474.360275 C238.186635,480.820933 238.364195,481.037933 245.624419,482.665427 Z M241.678645,605.279844 C243.533159,600.20009 237.505989,580.403844 233.905471,577.109401 L231.932584,580.64057 L230.087934,576.754312 L228.884473,577.306673 C231.883261,586.88423 236.746428,595.583925 241.678645,605.279844 Z M297.560666,355.089618 C298.54711,355.829388 298.961416,356.500113 299.533553,356.579022 C303.755531,357.180701 307.977509,357.782381 312.219216,358.10788 C312.959049,358.10788 314.507765,356.845339 314.468307,356.243659 C314.251289,353.008398 314.803698,349.339139 311.390603,347.307237 C308.510189,352.663172 302.177222,352.130538 297.560666,355.089618 Z M273.886024,508.961786 C281.323807,505.272799 283.237507,501.485176 279.558073,497.421373 L270.4532,503.043625 L273.886024,508.961786 Z M292.628449,337.226637 C290.07356,339.002085 290.270849,343.884568 292.717229,347.78069 C296.140188,347.208601 296.771512,345.383835 295.183338,342.454346 C294.325132,340.846579 293.575435,339.159903 292.638313,337.236501 L292.628449,337.226637 Z M346.655957,489.343084 L347.257687,490.497125 C349.092472,489.984218 352.406922,489.658719 352.505566,488.928813 C352.811364,486.472776 351.972887,483.87865 351.568445,481.343704 L350.503086,481.343704 L346.655957,489.343084 Z M311.143993,439.936309 L313.669288,436.977229 L309.348665,432.716154 C306.261097,435.892233 306.270962,435.971142 311.114399,439.916582 L311.143993,439.936309 Z M234.319777,372.035284 C233.007807,374.008004 231.932584,375.674952 230.847496,377.31231 L231.833939,378.170443 L237.39748,374.9845 C236.766157,374.313775 236.411037,373.88964 235.986866,373.495096 C235.562696,373.100552 235.108932,372.76519 234.290183,372.045147 L234.319777,372.035284 Z M242.911699,502.550445 C245.466588,507.038383 245.762521,507.156747 249.43209,504.730301 C246.91666,504.345621 246.127505,500.538271 242.882106,502.560309 L242.911699,502.550445 Z" id="Shape" fill="#000000"></path>
            <path d="M433.305149,699.940818 C432.555452,682.462518 436.26448,665.625352 441.246019,649.084094 C449.625028,621.575575 456.198859,593.549368 460.925566,565.184308 C461.369465,562.442227 460.66909,559.423966 460.047631,556.622703 C459.228883,552.913989 457.9761,549.303912 456.881148,545.555743 C463.993405,543.701387 470.01071,545.506425 475.712353,549.254594 C481.631014,553.140852 487.263606,557.904971 493.744539,560.400462 C505.581861,564.957446 517.813759,568.360388 530.025929,571.753466 C536.21093,573.469733 541.606775,575.698907 544.822581,581.617067 C545.463769,582.800699 547.061808,583.639105 548.393506,584.230921 C557.547702,588.294724 566.734778,592.286195 575.954736,596.205332 C577.076891,596.798883 578.355542,597.029779 579.614442,596.866193 C589.261858,594.084658 598.504834,596.156014 607.81686,598.671232 C617.799667,601.360707 627.831797,603.885789 637.913249,606.246477 C645.32144,608.002198 650.884981,612.342182 655.669231,617.954571 C660.453482,623.56696 664.882613,629.090576 669.804966,634.357739 C673.173851,638.044962 678.003734,640.049718 682.993715,639.832037 C687.994983,639.664356 691.269975,642.011893 693.943237,646.016514 C695.63992,648.561323 697.938333,650.711588 699.960542,653.049262 L699.960542,699.940818 L433.305149,699.940818 Z" id="Path" fill="#000000"></path>
            <path d="M412.944956,342.178165 C414.118824,344.624338 414.986894,346.429377 416.02266,348.569778 C411.613258,351.34145 408.466503,356.529704 402.025027,355.523616 C401.442364,355.505461 400.862915,355.616625 400.328345,355.849115 C394.843719,357.565382 394.695753,357.545654 389.645162,353.758032 C385.156845,357.377973 391.045912,362.852271 387.435529,366.49194 C377.502043,363.601905 375.341732,360.810506 377.571094,353.294443 L370.66599,350.128227 C372.974268,348.155507 374.93729,346.587194 376.69316,344.831473 C377.452721,344.08184 378.379978,342.769981 378.192554,341.951302 C377.423128,338.54836 378.952115,335.816142 382.592092,335.175008 C397.970745,332.472382 413.171838,332.265246 427.840253,338.696314 C431.845213,340.452035 436.08692,341.655394 439.352048,346.399786 L433.048674,342.641754 L436.520955,348.885413 L426.14357,347.731372 C425.09794,343.016571 425.09794,342.996844 419.682365,342.4938 C417.709478,342.316255 415.746456,342.266937 412.944956,342.178165 Z M389.793129,338.903449 L383.726502,344.239657 L390.631606,349.062958 C392.82151,345.354244 390.207435,342.523391 389.793129,338.903449 L389.793129,338.903449 Z" id="Shape" fill="#000000"></path>
            <path d="M371.948367,319.048022 C371.899045,314.865855 374.305967,313.129861 377.788112,312.192819 C382.089005,311.009187 386.666103,310.614643 390.306079,307.448427 C391.371595,306.726292 392.654243,306.395201 393.936191,306.511385 C403.928863,307.014429 412.895634,309.874873 419.33711,318.14057 C419.741552,318.653478 420.007892,319.9752 419.741552,320.182336 C418.865817,321.017946 417.765414,321.580098 416.575068,321.799966 C409.265522,322.322737 401.936248,322.68769 394.616837,323.04278 C391.361574,323.210461 388.10631,323.259779 384.841183,323.348551 C381.910698,323.509242 379.041878,322.465151 376.900313,320.458517 C375.765903,319.442566 373.674643,319.501747 371.948367,319.048022 Z" id="Path" fill="#000000"></path>
            <path d="M436.807023,542.498027 L432.802063,543.168752 L432.397621,542.182392 C433.117725,541.856893 434.123897,541.038214 434.528339,541.274941 C436.501226,542.399391 437.487669,541.343986 438.523435,539.9039 C440.752797,536.94482 443.268228,534.133694 445.329895,531.02666 C446.20783,529.704937 446.977255,527.554673 446.503763,526.252677 C445.083284,522.307237 446.286745,520.009018 449.798484,518.361797 C450.197442,518.186592 450.539216,517.902943 450.784927,517.543118 C450.439672,514.238812 450.153603,511.486867 449.749162,507.580882 C453.537104,510.027054 454.503819,508.498196 455.312703,506.199977 C459.130239,495.350017 463.924354,484.75651 466.656802,473.650096 C468.905893,464.496675 468.629689,454.73171 469.704912,445.262654 C470.237592,440.666216 471.2339,436.119096 472.171021,431.58184 C472.309123,430.930842 473.32516,430.457389 473.936755,429.914891 C474.351061,430.605343 475.169809,431.325386 475.120487,431.986247 C474.055128,448.369688 473.552042,465.019445 468.09701,480.56448 C459.939122,503.793259 450.419943,526.558449 441.40385,549.49132 C441.04873,550.388908 439.904456,550.97086 439.125166,551.71063 C438.365604,550.635498 437.152279,549.649138 436.945126,548.475369 C436.715794,546.491378 436.669565,544.490492 436.807023,542.498027 L436.807023,542.498027 Z" id="Path" fill="#000000"></path>
            <path d="M342.039401,570.224608 C341.71275,568.681057 341.504988,567.114726 341.417942,565.539398 C341.615231,560.893642 341.999944,556.25775 342.207097,551.611994 C342.143086,550.382223 341.968104,549.160749 341.684282,547.962462 L330.527606,555.596889 L329.541163,554.541483 L332.589273,549.047458 L327.045461,547.597509 L328.031904,544.638429 C332.530087,544.342521 336.663285,544.303066 340.717567,543.730977 C343.489473,543.346297 345.057918,544.401702 345.758293,546.749239 C346.379753,548.820595 347.050534,551.118814 346.744737,553.170443 C345.985175,558.210743 344.692934,563.16227 343.558524,568.143389 C343.430287,568.597114 342.937065,568.991658 342.039401,570.224608 Z" id="Path" fill="#000000"></path>
            <path d="M473.492855,426.285086 C474.163637,419.745519 474.479299,414.113403 475.367098,408.530605 C476.619881,400.531225 478.178462,392.561436 479.845551,384.631101 C480.171077,383.102243 481.571827,381.810112 482.479355,380.40948 L483.830783,381.021024 C481.196979,395.392289 478.592768,409.763555 475.939235,424.124958 C475.761675,424.726637 474.804825,425.121181 473.492855,426.285086 Z" id="Path" fill="#000000"></path>
            <path d="M311.972605,533.857513 C314.290747,538.789313 316.786449,539.173994 321.610158,535.702007 C323.089823,534.636738 325.072574,534.281648 327.035597,533.512287 C327.084919,538.246815 324.727319,542.843253 322.152701,543.750705 C319.578084,544.658156 312.929455,542.211983 310.877653,539.479766 C309.506496,537.654999 309.841887,535.928869 311.972605,533.857513 Z" id="Path" fill="#000000"></path>
            <path d="M496.08241,333.596832 L493.606437,357.269474 C489.601477,351.144178 491.337617,336.348777 496.08241,333.596832 Z" id="Path" fill="#000000"></path>
            <path d="M352.160311,593.552023 C351.607903,587.929771 351.173868,582.909199 350.631324,577.849171 C357.644937,577.967535 358.818804,579.664074 356.303374,585.582234 C355.31693,587.811408 354.330487,590.001127 353.255263,592.190847 C352.924308,592.67092 352.558327,593.125885 352.160311,593.552023 L352.160311,593.552023 Z" id="Path" fill="#000000"></path>
            <path d="M396.352978,559.108331 C395.366534,554.492165 394.508328,550.526998 393.551478,546.058787 L397.655083,544.086067 C398.325865,549.234866 399.115019,553.900349 396.352978,559.108331 Z" id="Path" fill="#000000"></path>
            <path d="M366.325639,436.326232 L357.832361,442.599481 C355.533948,439.768628 355.533948,439.768628 364.431668,433.051516 C364.984076,433.998422 365.546349,434.984782 366.325639,436.326232 Z" id="Path" fill="#000000"></path>
            <path d="M402.735267,538.690677 C410.626814,541.837166 411.001663,543.385751 405.822835,548.465506 L402.735267,538.690677 Z" id="Path" fill="#000000"></path>
            <path d="M430.789718,560.252508 C431.608467,557.549882 432.298977,555.320708 433.176912,552.420809 C434.548068,554.255439 435.287901,556.681885 437.260787,553.614305 C437.832925,557.401928 436.520955,558.753241 430.789718,560.252508 Z" id="Path" fill="#000000"></path>
            <path d="M254.818072,265.054673 C253.555424,261.37555 253.624475,258.012062 256.692314,255.191072 C259.592458,259.195694 256.317466,261.987093 254.818072,265.054673 Z" id="Path" fill="#000000"></path>
            <path d="M416.131169,529.981118 L419.149686,537.871999 L418.015276,538.315861 C416.969646,535.662552 415.93388,533.009244 414.88825,530.346071 L416.131169,529.981118 Z" id="Path" fill="#000000"></path>
            <path d="M241.678645,605.279844 C236.677377,595.583925 231.81421,586.844775 228.85488,577.306673 L230.058341,576.754312 L231.90299,580.64057 L233.875877,577.109401 C237.525718,580.403844 243.552887,600.20009 241.678645,605.279844 Z" id="Path" fill="#FFFFFF"></path>
            <path d="M297.560666,355.089618 C302.177222,352.041765 308.510189,352.623718 311.370875,347.307237 C314.783969,349.378593 314.231561,353.008398 314.448578,356.243659 C314.448578,356.845339 312.93932,358.157198 312.199487,358.10788 C307.95778,357.782381 303.735802,357.180701 299.513824,356.579022 C298.961416,356.539567 298.497788,355.868842 297.560666,355.089618 Z" id="Path" fill="#FFFFFF"></path>
            <path d="M273.876159,508.961786 L270.4532,503.043625 L279.548209,497.401646 C283.227643,501.49504 281.313943,505.282663 273.876159,508.961786 Z" id="Path" fill="#FFFFFF"></path>
            <path d="M292.638313,337.236501 C293.575435,339.209221 294.325132,340.846579 295.193202,342.464209 C296.781376,345.423289 296.179645,347.218465 292.727093,347.790553 C290.280714,343.894431 290.083425,339.011949 292.638313,337.236501 Z" id="Path" fill="#FFFFFF"></path>
            <path d="M346.665821,489.352948 L350.512951,481.383159 L351.57831,481.383159 C351.982751,483.918104 352.821228,486.512231 352.515431,488.968267 C352.416786,489.698174 349.102336,490.023673 347.267552,490.53658 L346.665821,489.352948 Z" id="Path" fill="#FFFFFF"></path>
            <path d="M311.114399,439.916582 C306.270962,435.971142 306.261097,435.862642 309.319072,432.656972 L313.689017,436.957502 L311.114399,439.916582 Z" id="Path" fill="#FFFFFF"></path>
            <path d="M234.290183,372.045147 C235.108932,372.76519 235.542967,373.12028 235.937544,373.50496 C236.332121,373.88964 236.716834,374.323639 237.348158,374.994364 L231.81421,378.180307 L230.827767,377.322173 C231.90299,375.684816 232.978214,374.047458 234.290183,372.045147 Z" id="Path" fill="#FFFFFF"></path>
            <path d="M242.882106,502.560309 C246.127505,500.538271 246.91666,504.345621 249.402497,504.740165 C245.732927,507.16661 245.436994,507.048247 242.882106,502.560309 Z" id="Path" fill="#FFFFFF"></path>
            <path d="M389.793129,338.903449 C390.207435,342.523391 392.82151,345.354244 390.55269,349.072822 L383.726502,344.239657 L389.793129,338.903449 Z" id="Path" fill="#FFFFFF"></path>
        </g>
    </g>
</svg>