<?xml version="1.0" encoding="UTF-8"?>
<svg width="700px" height="700px" viewBox="0 0 700 700" version="1.1" xmlns="http://www.w3.org/2000/svg" xmlns:xlink="http://www.w3.org/1999/xlink">
    <title>Artboard</title>
    <g id="Artboard" stroke="none" stroke-width="1" fill="none" fill-rule="evenodd">
        <g id="guvuk-acc-Asset-1" transform="translate(-14.000000, 26.000000)">
            <path d="M0,640.287444 C4.56303878,639.34179 8.07525327,636.504829 11.7862724,633.98939 C13.7837852,632.646562 15.7339636,631.237538 17.6936089,629.828514 C18.1669531,629.488078 18.8107014,629.119273 18.9621715,628.63699 C19.5112509,626.906444 20.8555486,626.291769 22.5501211,625.875681 C22.4175847,622.651002 25.2387166,621.393282 27.0090241,619.615453 C29.3925672,617.229996 32.1210176,615.215381 35.1032112,613.638922 C37.3892588,612.623363 39.8387358,612.024474 42.3359117,611.870549 C46.3778839,611.302109 50.4915175,611.513986 54.453525,612.494681 C55.5314507,612.82412 56.6641056,612.936618 57.7858687,612.82566 C63.0115894,612.040767 68.1047738,613.563269 73.2736933,613.601096 C78.4426127,613.638922 83.6304659,613.185008 88.8088523,613.137725 C93.9872386,613.090443 99.1656249,613.26066 104.344011,613.383595 C104.916431,613.541326 105.462061,613.783563 105.962849,614.102292 C104.504948,615.917947 101.82582,616.769036 102.346498,619.539801 C102.602104,620.863716 102.497969,622.30111 103.747597,623.322416 C105.782978,622.376762 103.936935,620.863716 104.43868,619.170996 C105.387422,618.806815 106.316446,618.393315 107.221944,617.93219 C108.047899,617.55664 108.779015,617.000824 109.361461,616.305665 C110.932964,614.055009 112.258327,611.577397 113.839297,609.38348 C115.675873,606.773476 115.675873,606.442497 112.741139,604.95782 C114.277144,603.853048 115.905091,602.881776 117.607118,602.054663 C120.522918,600.929335 122.34056,598.62194 124.328606,596.503676 C126.108381,594.612368 127.944957,592.825083 129.800466,591.037797 C131.655976,589.250512 133.350548,587.784748 135.082988,586.120398 C136.401945,584.687332 138.395819,584.082582 140.289775,584.541156 C140.920572,584.617027 141.551539,584.401131 142.003282,583.954851 L138.888676,582.063543 C139.46839,578.931905 140.535284,575.910216 142.050616,573.108202 C144.644543,568.134064 147.427807,563.25449 150.277339,558.412743 C152.795531,554.110019 155.512527,549.90186 158.125387,545.6937 C159.706357,543.121522 161.12639,540.454779 162.85883,537.977166 C165.784098,533.721724 168.822968,529.541935 171.918639,525.409428 C176.093536,519.830071 180.315767,514.279083 184.642134,508.803748 C189.659583,502.448955 194.790635,496.160358 199.921687,489.890673 C201.720395,487.696757 203.282431,488.103388 204.655129,490.581 C206.283434,493.578723 208.214678,496.406227 210.041787,499.290471 C210.268992,499.64982 210.600333,500.188842 210.903274,500.236125 C211.691913,500.35325 212.497561,500.227918 213.213194,499.876777 C213.563469,499.62145 213.582402,498.429926 213.298396,497.890904 C212.484244,496.302206 211.405019,494.845899 210.515131,493.28557 C210.301642,492.718619 210.177104,492.122129 210.145923,491.517198 L210.647668,491.205132 C212.143436,492.094046 213.932677,492.718178 215.059236,493.947528 C216.185796,495.176878 216.640206,496.992533 217.378623,498.543405 C217.93717,498.288078 218.202242,498.240796 218.221176,498.136774 C218.856233,495.187349 218.458555,492.109548 217.094617,489.417846 C216.545537,488.368171 214.964568,487.866974 213.62027,486.959147 C213.989478,484.585556 216.166862,483.602076 217.672097,481.890443 L220.739368,483.951968 C221.382103,483.626018 221.864906,483.05348 222.077265,482.365402 C222.289625,481.677324 222.21336,480.932619 221.865927,480.301744 C221.28817,479.196489 221.520642,477.841882 222.43394,476.991956 C222.837077,476.540931 223.108828,475.988212 223.219692,475.393801 C223.715231,472.775685 224.07545,470.133812 224.298917,467.47868 C224.322607,465.30601 225.083568,463.205653 226.457366,461.521061 C226.745252,461.039776 226.956067,460.516505 227.082181,459.970189 L226.675105,459.506819 C226.031357,459.91345 225.359208,460.282255 224.781728,460.745625 C223.229159,461.937149 222.320338,461.993888 220.928705,460.660516 C219.339481,459.38262 218.567802,457.345152 218.912259,455.336486 C219.058779,454.573675 219.163073,453.803374 219.224666,453.02909 C219.30746,451.80674 219.977789,450.700144 221.023374,450.059738 C222.903459,448.798348 223.948545,446.61583 223.751667,444.362072 C223.554788,442.108315 222.147069,440.139594 220.076686,439.222546 C216.413001,437.510912 214.103081,435.00493 214.396554,430.569814 C214.399425,428.660165 214.183437,426.756464 213.752806,424.895892 C213.563469,423.666542 213.364664,422.484475 214.510157,421.425342 L217.123017,421.113277 C217.956103,418.692403 216.829544,415.439354 220.237623,414.370765 L219.082663,411.84587 C220.029351,407.458037 223.28596,404.904772 226.154426,402.105636 C227.217413,401.0989 227.916521,399.768721 228.142472,398.323021 C228.980567,394.528557 230.83226,391.031833 233.500729,388.204526 C234.740891,386.767133 235.394106,385.4905 234.930229,383.570823 C234.397976,381.880961 234.837993,380.035635 236.075722,378.766902 C236.647891,377.917147 236.893327,376.889456 236.766805,375.873202 C236.432901,372.931589 237.292061,369.978903 239.15246,367.674384 C239.985546,366.634165 240.203284,364.998184 240.402089,363.598616 C240.512604,362.132241 240.528415,360.660276 240.449423,359.19187 C240.442651,358.500507 240.502889,357.810113 240.629294,357.130345 C240.941701,355.796973 241.670651,354.539253 243.07175,354.425775 C243.876436,354.359579 244.756856,355.229581 245.741412,355.74969 C247.899862,352.997838 250.209782,350.000115 252.576503,347.059132 C253.025938,346.632897 253.536444,346.275934 254.091205,346 C255.293499,347.068589 254.782288,347.891307 254.242675,348.695113 C250.209782,354.879689 248.448941,361.556004 250.086713,368.884821 C250.391655,370.378759 250.979688,371.800694 251.819153,373.074067 C252.396678,374.029472 253.468578,374.572823 254.581507,374.474317 C255.694435,374.375811 256.65399,373.652654 257.05434,372.610696 C257.915827,370.813954 259.231724,370.303301 261.0683,369.877757 C264.116637,369.177973 266.511759,369.461669 268.954215,371.769064 C271.03693,373.736024 273.829661,374.955918 276.23425,376.610812 C278.968593,378.451489 282.205749,379.402748 285.502331,379.334294 C289.024012,379.334294 292.593028,378.833098 296.038974,380.147557 C296.71916,380.234107 297.409564,380.192407 298.074355,380.024622 C298.161954,379.458264 298.206261,378.886066 298.206891,378.312988 C298.068843,377.692792 298.251758,377.044795 298.693818,376.587992 C299.135877,376.131189 299.778012,375.926619 300.403209,376.043419 C302.107248,376.137985 302.930867,375.173418 304.104761,374.227764 C306.3287,372.620141 308.656286,371.160672 311.072388,369.858844 C311.356395,369.688626 311.782405,369.735909 312.019077,369.546778 C316.335977,366.596338 321.258757,368.289059 325.888064,367.778406 C326.32458,367.731874 326.764191,367.831677 327.137693,368.062102 C329.447613,369.688626 332.06994,371.059824 333.906516,373.111893 C335.367137,374.832174 337.604182,375.691087 339.842253,375.390918 C341.574693,375.296353 343.297666,375.239614 345.030107,375.286896 C345.714022,375.468711 346.367785,375.749044 346.970818,376.119072 C346.515584,376.877411 345.975673,377.581701 345.361448,378.218423 C342.16164,380.724405 341.404289,384.128759 341.574693,387.930287 C341.631495,389.15018 342.521382,389.39605 343.46807,389.708116 C346.033596,390.549748 346.459606,392.147903 344.310623,393.717688 C342.077637,395.06126 341.125433,397.807297 342.048038,400.242699 C342.182799,400.834696 342.227479,401.443599 342.180574,402.048897 C342.123773,404.337379 342.691786,405.954447 345.333047,406.616405 C346.705745,406.95684 347.841771,408.337495 349.006198,409.339888 C349.593145,409.841084 349.877152,410.758368 350.501966,411.098804 C353.616572,412.782067 355.159674,415.571746 356.238899,418.730229 C356.669452,419.841004 357.005146,420.986178 357.242389,422.153496 C357.45066,423.449041 357.744134,424.564913 359.211501,424.829696 C360.678868,425.094479 361.199547,424.110999 361.606623,422.938388 C361.72466,422.721768 361.874653,422.52412 362.051567,422.352083 C365.033635,421.803604 368.365979,422.787084 371.026174,420.460776 C369.956416,418.15338 367.021681,417.623814 366.955413,414.881418 C367.225866,414.58013 367.546076,414.32744 367.902102,414.134352 C370.15522,413.358916 371.064041,411.987718 370.401359,409.547931 C370.161379,408.923365 370.198684,408.226313 370.50396,407.630865 C370.809236,407.035416 371.35366,406.597787 372.001263,406.427274 C373.790504,405.888251 373.89464,404.725097 373.553832,403.183682 C373.269826,401.840853 373.16569,400.441286 374.793994,399.249762 C375.428276,399.807698 376.223494,400.195416 376.583236,400.8952 C377.520491,402.569483 379.013979,403.863985 380.805467,404.55488 C382.871259,405.31624 384.516179,406.918112 385.330638,408.961626 C386.949475,413.396742 390.509024,415.760876 394.466182,417.66164 C395.880079,418.281059 396.980645,419.448705 397.514519,420.895776 C398.457306,423.025782 399.578378,425.072506 400.865797,427.014156 C401.513637,428.024808 402.852024,428.331712 403.876266,427.704483 C407.426348,426.134698 410.010808,427.855788 412.462731,430.134813 C413.144347,430.777858 413.882764,431.383076 414.507579,432.08286 C415.059202,432.819099 415.568094,433.586339 416.031747,434.380799 C414.952522,434.380799 414.403443,434.54156 414.024768,434.380799 C411.73,433.053646 408.804572,433.64621 407.20861,435.761453 C405.693908,437.520369 404.122405,439.232002 402.550902,440.934179 C400.979399,442.636356 400.960466,446.47571 402.446767,448.499409 C402.806508,448.981692 403.270386,449.388323 403.658528,449.851694 C405.409902,451.932132 405.428836,453.558656 403.715329,455.639095 C403.327187,456.102465 402.872777,456.509096 402.503568,456.99138 C401.035247,458.802671 401.035247,461.393033 402.503568,463.204325 C402.859859,463.581141 403.177039,463.993025 403.450257,464.433674 C405.62764,468.916073 409.527997,471.053251 414.091036,472.292057 C415.53157,472.719745 416.648611,473.860599 417.044704,475.308693 C417.496303,476.280221 417.257897,477.432535 416.457757,478.145654 C415.511069,479.091307 414.86732,480.33957 414.024768,481.408159 C413.44743,482.13138 412.831173,482.822726 412.178725,483.479141 C411.620179,484.046533 411.014298,484.576099 410.380017,485.162404 C413.040211,487.053712 414.696916,487.205017 416.959502,485.47447 C418.792893,483.95437 421.200342,483.311704 423.548454,483.715554 C424.756334,484.062374 425.929039,484.521445 427.051202,485.086752 C426.000378,486.429581 425.366096,487.394147 424.580345,488.235779 C422.478696,490.486435 422.563898,490.410783 423.917663,493.086983 C424.495143,494.212311 424.457275,495.640248 424.779149,497.351881 C425.540304,497.428771 426.305137,497.463498 427.070136,497.455903 C429.73033,497.332968 431.017827,498.212426 431.368102,500.82243 C431.614241,502.609716 431.491171,504.444284 431.566906,506.259939 C431.562463,507.209923 431.635282,508.158696 431.784645,509.096901 C431.808574,509.676578 432.097527,510.213214 432.568519,510.552696 C433.039512,510.892178 433.64043,510.996943 434.1987,510.836904 C434.451897,510.782128 434.707878,510.74109 434.965518,510.713969 C437.899304,510.236076 440.720047,509.223129 443.28691,507.725703 C443.989886,507.139534 444.917712,506.89661 445.818147,507.062972 C446.718582,507.229334 447.498041,507.787691 447.944618,508.586248 C448.257733,509.102708 448.612329,509.592908 449.004909,510.052011 C449.440381,510.606566 450.085967,510.956645 450.788749,511.019324 C451.491531,511.082004 452.188993,510.85171 452.715928,510.38299 C453.321608,509.944475 453.709189,509.2669 453.779853,508.523019 C453.850518,507.779138 453.597437,507.040837 453.085137,506.496353 C452.9242,506.297766 452.715928,506.137004 452.545524,505.938417 C450.91722,504.122762 451.134958,502.761021 453.416478,501.077757 C453.689386,501.232848 453.935519,501.430816 454.145428,501.664062 C454.722908,502.609716 455.092117,504.01874 456.474282,503.687761 C457.85392,503.284813 459.17475,502.703011 460.403039,501.957215 C460.800648,501.749171 460.999453,501.134496 461.226658,500.671126 C462.107443,498.730235 463.967412,497.414498 466.092637,497.228946 C468.686564,496.935794 470.333802,495.526769 470.684077,493.0397 C471.346759,488.368171 474.470831,486.155341 478.409055,484.481534 C479.541293,484.051147 480.526717,483.306325 481.249121,482.3349 C482.631286,480.103157 484.448928,478.098371 484.695067,475.214127 C484.922273,472.679775 486.41804,472.150209 488.661692,473.464668 C490.441467,474.504887 491.056814,474.325213 492.259109,472.566297 C493.073261,471.365316 494.057817,470.277815 494.815168,469.048465 C495.315737,468.381416 495.575953,467.564966 495.553585,466.731613 C494.881436,463.497477 496.860015,461.104973 498.024442,458.476056 C498.308449,457.823555 499.302472,457.407467 500.050355,457.038662 C501.451455,456.338878 502.170938,455.412138 501.896398,453.747787 C501.489322,451.298544 501.25265,448.820931 500.883441,446.371688 C500.735844,445.911336 500.802157,445.409167 501.064207,445.002791 C501.326258,444.596416 501.756564,444.328454 502.237206,444.272337 C503.183895,444.035923 504.045381,443.638749 504.234719,442.522877 C504.480858,441.038201 505.465414,440.584287 506.838112,440.555918 C507.442351,440.571703 508.043817,440.468891 508.60842,440.253308 C509.716046,439.752112 510.501797,438.759175 510.160989,437.596021 C509.943251,436.905694 508.930294,436.338302 508.154009,435.978953 C507.029998,435.599065 505.877789,435.308165 504.708063,435.108952 C507.245188,432.271991 507.803735,428.678507 511.552621,427.108721 C512.264475,428.179531 512.91862,429.287521 513.512267,430.427966 C515.247852,433.916205 517.676568,437.014743 520.650298,439.534612 C525.038902,443.685537 528.858762,448.397908 532.010561,453.5492 C533.458994,455.790399 535.238769,457.851924 536.469464,460.168776 C538.590046,464.206718 540.407688,468.414877 542.3484,472.55684 C543.370823,474.7413 544.374313,476.944673 545.38727,479.176416 C545.958191,480.357057 547.027759,481.220795 548.303071,481.531094 C555.223364,483.715554 562.10579,486.022949 569.045017,488.15067 C573.257781,489.446216 577.565213,490.476979 581.777977,491.715785 C584.258301,492.453395 586.672357,493.427418 589.152681,494.193398 C591.633005,494.959377 593.961859,495.545683 596.366448,496.226553 C596.86518,496.369693 597.352505,496.549869 597.824348,496.765576 C602.22645,498.741992 606.742154,500.548191 610.983319,502.78939 C614.107391,504.472654 617.098927,506.373418 620.535406,507.328528 C621.950078,507.686753 623.390079,507.936501 624.842839,508.075595 C629.233519,508.467266 633.560148,509.391346 637.72727,510.827447 C640.369067,511.639607 643.051926,512.311956 645.764656,512.841689 C647.847371,513.380712 649.930086,513.929191 651.9844,514.553323 C657.863336,516.321695 663.713871,518.16572 669.602274,519.905723 C673.057687,520.936486 676.617236,521.674095 680.015848,522.818336 C684.351681,524.265187 688.621246,525.94845 692.871878,527.622257 C698.823393,529.961174 704.752819,532.347374 710.660156,534.780856 C714.44691,536.322272 718.110595,538.033905 721.868948,539.565864 C723.525653,540.237278 725.286494,540.662823 727,541.201845 L727,674 L479.33681,674 C481.570995,670.09445 483.795713,666.179444 486.143501,662.056393 C486.143501,661.366066 485.745892,660.051607 486.228703,659.285628 C487.449931,657.39432 488.57649,655.257143 491.170417,654.623555 C492.656718,654.25475 493.366734,653.119965 493.063794,651.417789 C492.868199,650.314872 492.852215,649.187639 493.01646,648.079631 C493.694099,644.472716 492.858969,640.746093 490.70654,637.772005 C489.426357,636.229799 489.503641,633.974768 490.88641,632.523627 C491.265086,632.0508 491.833099,631.691452 492.136039,631.218625 C492.708014,630.639925 492.924652,629.798891 492.703327,629.016295 C492.482002,628.2337 491.856841,627.630214 491.066281,627.43601 C490.469813,627.338567 489.883561,627.186625 489.314907,626.982096 C488.557557,626.528182 487.260593,625.68655 487.364729,625.308289 C487.885408,623.275133 485.925762,621.270347 487.364729,619.331757 C487.648736,618.953496 488.254616,618.821104 488.680626,618.537408 C489.106636,618.253712 489.627315,617.847081 490.091192,617.478276 C489.968123,617.014906 489.977589,616.532622 489.769318,616.390774 C487.724471,614.679141 487.942209,612.702725 488.500755,610.329134 C489.087702,607.794782 489.059302,604.825429 486.739915,603.142165 C483.757846,600.976618 483.312902,598.215309 483.483306,594.952804 C483.568508,593.316823 483.880915,591.992908 485.376683,590.981058 C487.109123,589.817904 487.061789,589.042468 485.802693,587.368661 C485.310415,586.71616 484.581465,585.827245 484.714001,585.203114 C485.225214,582.930354 485.225214,580.572601 484.714001,578.299841 C484.53413,577.496036 485.23468,576.512556 485.395617,575.585815 C485.758382,574.359858 485.886844,573.076637 485.774292,571.8032 C485.338816,569.83624 485.509219,568.275912 486.99552,566.838518 C487.480804,566.317315 487.786056,565.654449 487.866474,564.947211 C488.339818,561.363183 488.813162,557.779155 489.087702,554.176215 C489.248639,552.020124 489.248639,549.911316 490.166927,547.849791 C490.525086,546.71303 490.682063,545.52259 490.630804,544.331959 C490.73494,542.27989 490.697073,540.227822 490.801208,538.18521 C490.905344,536.142598 491.113616,533.882485 491.302953,531.735851 C491.520692,529.201499 490.166927,527.489866 488.330351,526.061929 C487.427867,525.182976 486.030574,525.060402 484.988541,525.768776 C483.684802,526.623351 482.28316,527.318644 480.813644,527.839758 C478.635405,528.448308 476.77259,529.865883 475.606857,531.802047 C474.91296,532.764546 473.911084,533.461757 472.766792,533.778463 C469.803657,534.629552 469.150441,535.036183 469.036839,538.137927 C468.951637,540.624996 467.749342,542.251521 465.581426,542.695978 C462.324817,543.357936 460.204235,545.069569 458.254056,547.717399 C456.688787,549.658009 455.718898,552.009474 455.461325,554.48828 C455.11105,558.535678 453.160872,559.812311 449.383585,558.450569 C448.729425,558.220271 448.132238,557.852677 447.632211,557.372524 C446.583251,556.260949 444.908979,556.010864 443.580384,556.767306 C442.79675,557.133718 441.990412,557.449583 441.166328,557.712959 C438.411464,558.460026 437.379574,560.294594 437.237571,563.06536 C437.0577,566.488626 435.836472,569.448522 432.28639,570.84809 C431.890733,570.999596 431.55739,571.279299 431.339701,571.642439 C430.080605,574.252443 428.27243,574.78201 425.593302,573.628312 C423.633656,572.78668 421.806547,574.129508 421.49414,576.257229 C421.427872,576.748969 421.361604,577.202883 421.304802,577.656797 C416.978436,580.096584 416.789098,579.992562 415.283863,582.772784 C412.652069,587.623987 408.912649,589.85573 403.355588,588.702033 C402.628528,588.495211 401.847656,588.608323 401.209356,589.012921 C400.571056,589.417518 400.136064,590.075103 400.013777,590.820297 C399.810916,591.851229 399.034369,592.674719 398.016264,592.938561 C395.53594,593.751824 395.176199,595.709327 397.069576,597.534439 C397.849999,598.200708 398.672128,598.816631 399.530966,599.378463 C398.404407,601.506184 396.6909,600.324117 395.431805,600.324117 C395.214066,600.551074 395.043662,600.655096 394.996328,600.796944 C394.861709,601.11498 394.784776,601.454394 394.769123,601.799337 C394.93006,605.317169 392.951481,607.785325 390.774097,610.206199 C389.376921,611.909616 387.247395,612.841364 385.046631,612.712181 C379.573725,612.431114 374.145841,613.830327 369.492538,616.721753 C367.047115,617.984247 364.330869,618.633356 361.578222,618.61306 C359.561776,618.660343 357.639998,618.61306 355.822356,619.558714 C354.348804,620.310405 352.620375,620.382919 351.088913,619.757301 C347.955374,618.650887 344.888103,617.100014 341.366422,617.913277 C339.473045,618.348277 337.466065,618.603604 335.544287,619.085887 C333.632219,619.750333 331.511284,619.362519 329.958825,618.064581 C328.611756,616.986271 327.166468,616.036463 325.641925,615.22762 C324.902914,614.812739 324.065923,614.60372 323.218402,614.622402 C320.473006,614.783163 317.737076,615.142511 314.991679,615.331642 C311.204925,615.596425 307.569641,616.040882 305.136651,619.501975 C304.066893,621.015021 302.381788,621.033934 300.696682,621.109586 C299.507416,621.050173 298.325668,621.328892 297.288603,621.913392 C295.442495,623.465294 293.685193,625.119646 292.025015,626.868618 C291.967292,628.924325 291.713697,630.969869 291.267664,632.977541 C290.737519,634.698631 290.320976,636.240046 290.926856,637.980049 C291.201614,638.711562 291.339593,639.487246 291.333932,640.268531 C291.078032,642.295908 292.181842,644.251397 294.050928,645.081909 C295.887504,646.074845 295.84017,647.985066 294.221332,649.33735 C293.801617,649.645024 293.354845,649.91406 292.886502,650.141156 C290.09377,651.729854 289.79083,652.514747 291.3718,655.266599 C292.531848,657.044104 292.5132,659.342792 291.324465,661.101283 C289.355353,664.411071 289.36482,664.486723 291.864078,667.41825 C292.894318,668.423425 293.038896,670.02809 292.204886,671.200865 C291.693674,672.089779 291.314999,673.092172 290.870055,673.981087 L278.875511,673.981087 C278.744417,672.785522 278.54529,671.598382 278.279097,670.425429 C277.995584,669.553152 277.584024,668.727743 277.057869,667.976186 C276.438196,666.961209 275.718273,666.010808 274.908886,665.139224 C273.716059,663.957157 272.428562,662.094219 271.122132,662.018567 C269.039417,661.895632 268.045394,660.789217 266.852567,659.588237 C265.339006,657.92702 263.736771,656.348634 262.052856,654.859968 C260.879034,654.0088 259.565526,653.368765 258.171433,652.968661 C257.516536,652.852541 256.843817,653.03266 256.334857,653.460401 C254.100672,655.597578 253.684129,660.883783 255.208298,663.588352 C257.009925,666.73125 258.014224,670.266803 258.133565,673.886522 L0,673.886522 L0,640.287444 Z M368.129307,540.83304 L369.776545,543.528153 C371.187111,545.826092 372.058064,546.081418 374.737193,545.561309 C377.9086,544.946634 379.09196,542.289347 380.502526,540.010321 C381.335612,538.67695 382.083496,537.69347 383.654999,537.258469 C385.425307,536.766729 386.731737,535.802162 386.495065,533.570419 C386.371995,532.151939 387.195614,530.667263 388.634581,530.83748 C391.891189,531.225198 393.121885,529.466282 393.898169,526.837365 C394.03052,526.515524 394.216137,526.218222 394.447248,525.957907 C395.71553,524.512153 396.283293,522.582486 395.999818,520.681159 C395.706344,519.045178 397.079043,518.175177 398.688413,518.676373 C400.297784,519.17757 400.998333,520.416376 401.178204,522.714315 C401.225538,523.461381 401.717816,524.681274 402.181694,524.766383 C403.17,524.873355 404.166408,524.657702 405.02176,524.151708 C405.555688,523.710384 405.914798,523.093523 406.034716,522.411705 C406.602792,520.687306 407.576736,519.124212 408.874782,517.853654 C409.595495,517.023162 410.059221,516.001451 410.209613,514.912671 C410.645089,511.243535 410.550421,511.186795 413.996367,510.184402 C415.520535,509.739945 416.476691,508.973966 416.457757,507.347441 C416.453251,505.945346 416.980983,504.593666 417.934591,503.564826 C419.18422,502.05178 418.88128,501.039931 417.129906,500.009168 C415.597927,499.166004 413.794361,498.96205 412.112457,499.441776 C410.635623,499.772755 409.09252,499.914603 407.994362,498.647427 C406.716273,497.074022 404.714497,496.272756 402.702373,496.529162 C401.590542,496.680053 400.505208,496.110208 399.999148,495.10986 C399.493088,494.109511 399.677605,492.898674 400.458721,492.094046 C401.982889,490.524261 401.878754,488.64241 401.111936,486.770016 C400.648696,485.379315 400.032752,484.044115 399.27536,482.788814 C398.19567,481.218874 397.660337,479.338953 397.751191,477.436413 C397.751191,476.103042 397.751191,474.400865 396.946506,473.51195 C394.636586,470.826294 393.888702,467.592158 392.809477,464.414761 C391.682918,461.076604 390.745696,457.549315 387.763627,455.24192 C385.822712,453.758642 384.508767,451.602619 384.081009,449.199193 C383.883307,448.105877 383.446961,447.069477 382.802979,446.163644 C380.407857,443.071356 376.800974,441.643419 373.506498,439.827764 C372.781435,439.563458 371.982994,439.583736 371.272313,439.884503 C370.145754,440.300591 368.668919,440.707222 368.129307,441.596137 C365.970857,445.180164 362.363974,446.059622 358.832825,447.364624 C355.623551,448.565605 352.650949,448.716909 349.593145,447.175494 C348.826328,446.787776 347.964841,446.617558 347.188556,446.22984 C346.247384,445.895097 345.37019,445.402615 344.59463,444.773533 C343.61142,443.652599 342.164645,443.04869 340.675339,443.137552 C338.005678,443.326683 335.326549,443.477988 332.675821,443.875162 C331.323706,444.133074 330.024489,444.615752 328.832266,445.303099 C326.541279,446.551362 324.269227,447.752343 321.561698,447.827995 C320.792999,447.895528 320.055384,448.162866 319.422181,448.603431 C317.708562,449.573216 316.089048,450.700255 314.584603,451.969958 C312.842696,453.605939 311.053455,453.5492 309.074876,452.83996 C307.038666,452.105155 304.845267,451.916051 302.713129,452.29148 C300.317818,452.772768 297.83278,452.518932 295.584564,451.563327 C292.659296,450.248868 290.018035,450.967565 287.689181,453.076373 C285.871539,454.712354 285.606467,454.627245 283.372282,453.587026 C281.915779,452.899936 280.354124,452.462 278.752442,452.29148 C275.741972,452.007784 272.693635,452.159089 269.692632,451.85648 C267.90747,451.748143 266.162431,451.281807 264.56158,450.485282 C262.478866,449.312671 262.450465,449.028975 260.623356,450.721695 C259.357543,451.934867 257.640654,452.562562 255.889913,452.452242 C254.072271,452.404959 252.254629,452.395502 250.436987,452.452242 C247.757859,452.546807 246.583965,453.955831 246.725968,456.622575 C246.849038,458.844861 246.96264,461.076604 246.877438,463.289433 C246.76263,464.029949 246.307125,464.673959 245.646743,465.029436 C244.094174,465.681937 242.409068,466.022373 240.799698,466.551939 C240.042347,466.797809 238.906321,467.024766 238.707516,467.554332 C238.508712,468.083898 239.038857,469.095747 239.322864,469.871184 C239.398599,470.079227 239.673139,470.239988 239.88141,470.391293 C241.011771,471.243436 241.611864,472.625371 241.46238,474.03206 C241.46238,474.977714 241.46238,475.923367 241.46238,476.869021 C241.367711,481.152833 240.648228,481.956638 236.435464,482.495661 C233.727934,482.836096 231.171875,483.772293 230.300922,486.524146 C229.770776,488.216866 230.121051,490.231109 230.300922,492.075133 C230.521791,493.342158 230.283492,494.646339 229.628773,495.753726 C228.085671,498.231339 227.612326,500.803517 229.382634,503.517544 C229.922925,504.49376 230.184874,505.599284 230.139985,506.713853 C230.139985,508.605161 228.956624,509.465706 227.063247,509.323858 C222.831549,509.021248 222.43394,509.494075 223.607834,513.475277 C223.607834,513.560386 223.607834,513.645495 223.674102,513.721147 C224.450387,516.397348 225.463343,516.955283 228.237141,516.217673 C230.026382,515.744846 230.679597,516.217673 230.632263,517.986046 C230.632263,518.458873 230.537594,518.9317 230.461859,519.631483 L234.10661,518.307568 C234.409897,519.260129 234.606744,520.243286 234.693557,521.239095 C234.434336,523.194032 235.526976,525.077844 237.353752,525.825515 C239.247129,526.71443 240.553559,527.962693 240.591426,530.34574 C240.591426,532.416722 243.819634,532.813896 243.554562,535.225314 C243.494945,535.480459 243.514763,535.747707 243.611363,535.991293 C244.037373,536.672164 244.397114,537.646187 245.031396,537.882601 C246.514132,538.432509 247.611178,539.703262 247.93773,541.249128 C248.469103,542.999725 249.598007,544.508863 251.12807,545.514026 C253.28652,547.083811 255.284033,548.86164 257.395148,550.488165 C258.001952,550.950481 258.703395,551.273373 259.449462,551.433819 C260.58028,551.63075 261.50732,552.440112 261.854051,553.53317 C262.312403,554.8301 262.859622,556.093962 263.491822,557.315785 C264.220772,558.582961 265.205329,559.462419 266.909368,558.630244 C267.64015,558.39743 268.416626,558.345505 269.171954,558.478939 C271.069717,558.733794 272.833574,559.596509 274.19887,560.937639 C275.571568,562.08188 277.038935,561.713075 277.569081,560.285138 C278.099227,558.857201 276.991601,554.923281 275.865042,554.005997 C274.482876,552.890125 273.024976,551.868819 271.557609,550.762404 C269.967172,551.972841 269.929304,554.469367 267.505782,555.358282 C267.223461,554.552661 267.029826,553.718721 266.928302,552.871212 C266.908941,551.575473 267.03276,550.281556 267.29751,549.012945 C267.515249,547.991639 267.799255,546.48805 268.499805,546.175984 C269.88197,545.523483 270.393182,547.121638 271.226268,548.001096 C271.302003,548.086204 271.529208,548.001096 271.784814,548.057835 C271.921563,547.752436 272.0324,547.436107 272.116155,547.112181 C272.22154,546.691998 272.266172,546.258909 272.248691,545.826092 C271.813215,541.220758 274.643813,538.204123 277.928823,536.029119 C280.371279,534.412051 282.321457,533.466398 280.693153,530.166066 C280.163008,529.097477 281.261166,527.574975 282.359325,527.329105 C283.703623,527.054865 284.300036,527.934323 284.498841,529.031282 C284.760015,530.406466 285.606406,531.60047 286.818228,532.303243 C288.189602,533.096681 289.087154,534.508603 289.222817,536.085858 C289.401455,538.102754 290.548464,539.907758 292.299555,540.927606 C293.918392,542.071847 295.546696,543.197175 297.127666,544.388698 C297.902147,544.979322 298.962097,545.028305 299.787861,544.511633 C301.105673,543.893976 302.458603,543.354027 303.839688,542.894565 C306.518817,542.043477 306.944826,541.372063 306.168542,538.64858 C305.865601,537.551622 305.827734,536.416837 306.859624,535.877815 C307.712863,535.363092 308.743064,535.229312 309.69969,535.50901 C311.280987,536.345202 312.680661,537.486215 313.817785,538.86608 C314.914449,540.560235 316.816327,541.560318 318.835235,541.504454 C320.040657,541.389941 321.255735,541.42807 322.451585,541.617933 C324.8261,542.188588 327.325867,541.907421 329.513881,540.823584 C330.851964,540.17371 332.402624,540.118758 333.783447,540.672279 C336.992721,541.892172 337.058989,541.81652 339.27424,539.225429 C340.722674,537.513796 341.773498,537.050425 343.818345,537.977166 C345.341016,538.738381 346.721224,539.755612 347.898573,540.984345 C350.06649,543.112066 352.168138,544.965547 355.585684,544.114459 C356.603814,544.004212 357.629119,544.244411 358.492018,544.795329 C362.079967,546.837941 363.613603,546.48805 365.942456,542.979674 C366.620005,542.213688 367.350766,541.496366 368.129307,540.83304 L368.129307,540.83304 Z M314.4426,414.020874 C312.852163,414.238374 311.062922,414.408592 309.302081,414.730114 C307.957783,414.975984 306.547217,415.202941 306.054939,416.857835 C305.344923,419.203056 304.852645,419.373274 302.419655,419.184143 C300.023693,418.973032 297.6148,418.950898 295.215355,419.117947 C291.239263,419.43947 287.433576,419.590774 283.523752,418.039902 C279.812733,416.564682 276.063846,416.394464 272.277092,419.16523 C269.143018,421.710444 264.770624,422.085347 261.24817,420.110884 C260.651807,419.783886 260.01532,419.535928 259.354793,419.373274 C257.101675,418.815338 255.946715,419.742079 256.315923,422.05893 C256.728605,423.749567 256.306298,425.53538 255.179897,426.862851 C254.157473,428.073288 254.668685,429.170247 256.259122,429.491769 C257.338347,429.709269 258.502774,429.557965 259.610399,429.718726 C260.548903,429.897113 261.475313,430.133989 262.384197,430.427966 C262.270594,431.59112 262.194859,432.319273 262.10019,433.264927 C263.605425,434.125472 265.157994,434.881995 266.549626,435.856018 C267.674445,436.670066 269.084161,436.987931 270.449983,436.735476 C271.895399,436.546364 273.359334,436.546364 274.80475,436.735476 C276.171053,436.962599 277.574146,436.726232 278.790309,436.064062 C279.786711,435.388771 280.956767,435.014499 282.16052,434.986017 C284.992855,435.311624 287.854624,435.286214 290.680717,434.910365 C291.544729,434.848028 292.412231,434.967219 293.227309,435.260257 C294.514627,435.810641 295.992009,435.682931 297.165534,434.919821 C298.273159,434.220037 299.447053,434.172755 300.431609,435.74254 L296.966729,438.730806 C298.377295,439.090154 299.238782,439.572438 300.052934,439.487329 C302.608993,439.203633 305.155585,438.787545 307.683243,438.295805 C309.292614,437.983739 310.873584,437.737869 312.000143,439.15635 C314.338464,442.125703 317.235331,441.898746 320.454072,441.047657 C322.219429,440.71926 324.007833,440.529548 325.802862,440.480265 C327.932911,440.272221 330.328033,440.622113 332.126742,439.742655 C334.90972,438.499279 337.252325,436.445973 338.84823,433.851233 C339.731139,432.110553 341.577119,431.072858 343.524872,431.222315 C345.333047,431.222315 347.160156,431.279054 348.968331,431.156119 C350.047675,430.975787 351.108943,430.700476 352.139737,430.333401 C351.683256,429.719052 351.162821,429.154807 350.587168,428.650137 C348.785803,427.57602 347.459535,425.859164 346.876149,423.846216 C346.532333,423.060416 346.058698,422.337953 345.47505,421.709038 C343.250332,418.749142 340.239862,416.753813 337.106323,414.890875 C335.487486,413.945221 335.014142,414.03033 333.982251,415.656855 C333.755046,416.016203 333.584642,416.422834 333.34797,416.782182 C329.892557,422.049474 323.881084,422.919475 319.147642,418.749142 C317.500404,417.302292 316.042503,415.628485 314.4426,414.020874 Z M304.369834,381.462015 C307.266701,380.289405 309.652356,381.102667 312.019077,382.227995 C312.586507,382.441149 313.197485,382.512569 313.798851,382.436039 C316.799854,382.284734 319.810324,382.142886 322.80186,381.85919 C324.5627,381.688972 326.285673,379.570708 326.475011,377.6794 C326.626481,376.194724 325.708193,374.974831 323.303604,374.596569 C320.080427,374.106739 316.822072,373.885325 313.562179,373.934612 C312.11353,374.072992 310.734332,374.620788 309.586087,375.513853 C307.825247,376.771573 306.301078,378.350814 303.62195,376.809399 L304.369834,381.462015 Z M297.743014,388.478766 C299.636391,387.381808 300.469477,386.124088 299.996133,384.771803 C299.67866,384.043551 299.054751,383.493034 298.292093,383.268214 C297.87555,383.173649 296.957262,384.005824 296.767925,384.582673 C296.276011,385.960702 296.664755,387.499045 297.752481,388.478766 L297.743014,388.478766 Z M214.992968,501.304714 C213.856951,502.430765 213.612935,504.175701 214.396554,505.569612 C214.832031,506.515266 215.485246,507.366354 216.924213,506.770592 C217.520627,504.699611 216.687541,503.091999 214.992968,501.304714 Z" id="Shape" fill="#000000" fill-rule="nonzero"></path>
            <path d="M160.169234,194.639932 C157.936166,192.310219 160.055688,189.270229 158.021326,187.253039 C156.6777,187.830732 156.725011,189.03347 156.526306,190.094152 C156.242441,191.618882 156.06266,193.172024 155.750409,194.696754 C155.485469,196.003666 155.296226,197.234814 156.19513,198.409141 C156.526024,198.693162 156.672319,199.137375 156.575026,199.562659 C156.477732,199.987943 156.15289,200.324185 155.731485,200.435801 C152.561665,197.282166 153.044234,193.389842 153.006386,189.54487 C153.100324,183.06206 153.787626,176.601505 155.059672,170.244246 C155.617939,167.081141 156.138358,163.614984 159.137859,161.039042 C161.14278,159.357751 162.462406,156.999228 162.847022,154.409779 C163.083576,152.591467 164.512361,150.990974 163.963556,148.954843 C163.897321,148.708613 164.20011,148.310858 164.398815,148.007806 C167.672719,143.660904 170.965548,139.332942 174.239452,134.97657 C176.926703,131.396768 179.916742,128.034785 181.421224,123.61212 C182.08948,121.738315 182.325617,119.737498 182.111961,117.759428 C181.989493,116.321936 182.114311,114.87407 182.480985,113.478819 C183.047553,111.302395 183.024691,109.014205 182.41475,106.849556 C182.068078,105.701628 181.90208,104.506679 181.922718,103.307636 C181.977573,102.558338 182.380411,101.878178 183.010866,101.470384 C183.597519,101.262035 184.449113,101.801847 185.149312,102.010195 C185.102001,104.046325 183.067639,105.457411 184.373415,107.218901 C184.751901,107.739772 185.603495,107.919709 186.748415,108.516342 C187.041742,105.741523 187.240447,103.468633 187.533774,101.214683 C187.679296,99.8560287 187.942063,98.5125334 188.319132,97.1992444 C189.369431,93.8562021 188.101503,91.3749639 184.761364,90.5036894 C183.663441,90.2461029 182.580056,89.9299729 181.515846,89.5566519 C180.825109,89.2914814 179.90728,88.8937257 179.623416,88.3065624 C178.928751,86.7442452 177.376769,85.7408975 175.668237,85.7495612 C177.418735,83.9407196 178.052699,83.6566084 180.247918,83.6566084 C180.862958,85.844265 182.774312,86.1851984 184.685666,86.3935467 C187.240447,86.6776579 189.823614,86.9049469 192.397319,86.9901803 C193.45717,86.8907392 194.50187,86.6682694 195.510367,86.3272541 C195.245427,83.7607825 196.551204,82.8042746 198.774809,82.5959264 C202.34204,82.2644632 203.818135,80.0199844 204.556183,76.6580013 C205.833573,70.8621319 207.394828,65.1136143 209.098015,59.4408598 C209.590047,57.8024849 210.990446,56.4008694 212.192139,55.0560762 C212.765337,54.5494086 213.546561,54.3486498 214.292736,54.5162648 C215.626899,55.0560762 216.752895,54.6867316 218.077597,54.5162648 C219.530883,54.4098572 220.99161,54.4734222 222.430186,54.7056723 C223.100578,54.8071567 223.764161,54.9494766 224.417238,55.1318392 C225.155285,53.5029347 224.757875,52.5180157 223.385863,51.7509153 C222.629133,51.3702098 221.978825,50.807204 221.493433,50.1125405 C221.156617,49.6931139 221.060714,49.1290785 221.239954,48.621754 C221.419194,48.1144295 221.848036,47.7361114 222.373413,47.6218319 C224.123911,46.9304945 225.846022,46.1728645 228.003393,45.2637085 C226.366441,43.5211596 227.057178,40.7368694 224.710564,39.5814836 C222.732975,38.6344461 220.622915,37.8768161 218.550704,37.0244824 C218.673712,35.651278 219.430684,35.0735852 220.443134,35.6133965 C223.127875,37.0257947 226.106252,37.7880654 229.138851,37.8389346 C229.507875,37.8389346 229.867436,38.2082793 230.312157,38.454509 L229.413253,41.1440955 C229.937008,41.2232873 230.469677,41.2232873 230.993432,41.1440955 C232.497914,40.5285211 233.945623,39.7614207 235.46903,39.1647871 C237.719403,38.2226667 240.265393,38.2916302 242.461559,39.3541946 C246.37889,41.1346251 249.719029,39.4110169 251.403292,35.4902817 C252.345894,33.5031441 252.62457,31.2651595 252.198112,29.107249 C251.649308,26.1714328 252.40628,22.9988572 252.434666,19.9304557 C252.290896,18.4556678 252.025042,16.9953717 251.639845,15.5646129 C252.217037,14.6175754 253.749905,14.4849902 254.856977,15.3183831 C257.998411,17.6670361 261.480482,17.2692804 264.820621,16.5968838 C269.371916,15.6498463 273.752892,16.2654206 278.162254,17.0514618 C280.792732,17.5249805 283.347513,17.9132659 285.608967,16.1517761 C286.473892,15.4810368 287.192063,14.6397556 287.719026,13.6800083 C288.362453,12.4583299 289.034265,11.3976479 290.557672,11.3502961 C292.081078,11.3029442 292.686655,12.4772707 293.207074,13.7557713 C294.011357,15.74455 294.919723,16.1328354 297.096018,15.6498463 C298.51534,15.3089128 299.934663,14.911157 301.164743,14.5891643 C305.091535,18.0742622 306.066137,18.2731401 308.204583,16.047602 C307.873407,15.1479164 307.53277,14.153527 307.211057,13.3011933 C309.472511,10.7441921 312.046216,10.6684291 314.071116,12.9886709 C315.140339,14.2198197 316.209562,15.4604388 317.29771,16.6821171 C317.604224,17.119796 318.081231,17.4074853 318.611075,17.4742243 C319.14092,17.5409633 319.674274,17.380539 320.079582,17.032521 C321.025797,16.3695948 320.571614,15.5740833 320.079582,14.759631 C318.612949,12.2783928 319.048208,10.6494883 321.527291,9.23840247 C322.927689,8.4334206 324.365936,7.72314248 325.96504,6.89921987 L326.778785,8.86905785 C328.011179,9.45476298 329.486218,9.05249578 330.251394,7.92202036 C331.718027,6.15106025 333.572609,5.89536013 335.64482,6.21735288 C337.775633,6.3968382 339.585915,7.84931758 340.224501,9.89185833 C341.038246,12.2405113 341.587051,12.5340929 344.113445,12.0889853 C345.655775,11.8143444 346.866931,11.7480518 347.850994,13.4148378 C348.835058,15.0816238 349.80966,14.911157 350.746413,12.5909152 L347.841532,10.9241292 C347.96454,9.38992846 348.910755,9.20999134 349.85697,9.23840247 C354.34203,9.39939884 358.789241,7.99778336 363.293225,9.11528759 C365.168275,9.6362036 367.132437,8.64917322 367.835057,6.83292724 C368.544718,5.45025251 369.263842,4.06757778 369.897806,2.64702154 C370.749399,0.658242815 371.619917,1.01811706 374.288244,1.03705781 C375.840036,1.03705781 375.906272,2.30608805 375.981969,3.47094416 C375.980687,3.81688183 376.028475,4.16125024 376.123901,4.49374465 C377.070116,6.93710137 377.533761,9.34257659 375.518323,11.4165887 C376.530773,13.3106637 377.997407,12.9034375 379.303184,12.7140301 C380.921211,12.4867411 382.510853,12.0889853 384.100494,11.7669926 C384.531194,11.7248195 384.944406,11.5750221 385.302187,11.3313553 C387.194617,9.49410259 389.616928,9.36151734 392.048701,9.12475797 C394.480474,8.88799859 396.66623,8.29136498 398.984457,8.30083535 C401.738403,8.34080529 404.483517,8.62284392 407.188142,9.14369872 C409.582066,9.57933596 410.376887,11.4639406 409.231967,13.6421268 C408.691507,14.515637 407.999339,15.2853814 407.188142,15.9150168 C405.049696,17.7522695 402.863939,19.5232296 400.621409,21.3699527 C401.567624,23.0556794 403.091031,22.7810386 404.510353,22.4969273 C405.081977,22.3033373 405.625913,22.0359084 406.128381,21.7014158 C408.683162,20.3945041 409.231967,20.7543783 409.317126,23.5954908 C409.403051,24.2646564 409.551953,24.9241998 409.761847,25.5653288 C411.919217,25.0444582 412.203082,23.5860204 411.947604,22.1275827 C411.588042,20.0251595 412.259855,18.1879067 412.893819,16.3127725 C413.24631,14.8685833 414.615989,13.9114083 416.092026,14.077764 C417.568121,14.1914085 418.116926,15.3562646 418.580572,16.6915875 C419.161966,18.7384596 420.041963,20.6882607 421.192125,22.4779866 C421.939635,23.5102574 423.652284,23.8701317 424.976985,24.4288838 C426.017822,24.864521 427.134356,25.1202212 428.364435,25.4990362 C427.579077,27.3173481 426.2733,27.2037036 425.137842,27.3931111 C423.76583,27.6014594 422.374894,27.6772224 421.040731,27.9992151 C420.586548,28.1128596 420.255372,28.7757859 419.867424,29.183012 C420.331069,29.6186492 420.737942,30.2721051 421.277285,30.4236311 C422.2235,30.6603905 423.254874,30.3383977 424.11593,30.6793312 C425.070975,31.0996722 425.89482,31.7704462 426.500392,32.6207581 C426.689635,32.9048693 425.942125,34.1076069 425.374396,34.6000664 C424.276786,35.5471039 424.191627,36.4941414 425.062145,37.4980011 C426.708559,39.3920761 430.739435,39.0227315 432.281766,36.6172563 L429.802682,34.2970144 C431.373399,33.0279842 432.357463,32.9806323 434.022802,33.9750217 C435.693215,34.8726245 437.310751,35.8654913 438.867423,36.9487194 C440.03455,38.0127506 441.107755,39.1756074 442.075092,40.424347 L445.992422,39.0700834 L446.446606,39.7708911 C445.964036,40.3675247 445.500391,41.0020398 444.989434,41.5418512 C443.655271,42.9150556 443.730968,44.4587267 445.45308,44.9985381 C447.711565,45.682601 449.69143,47.073362 451.101984,48.9666251 C451.39531,49.3454401 452.104972,49.392792 452.824095,49.6674329 C453.0228,48.4362841 453.183657,47.4703059 453.353976,46.4475054 C453.931167,46.4475054 454.432661,46.2959794 454.744912,46.4475054 C455.883414,47.1294958 457.327737,47.0194649 458.349991,46.1728645 C459.873398,45.1690048 460.469513,45.6141124 461.141326,47.4134836 C461.578965,48.3973879 462.1419,49.3205135 462.816126,50.1598924 C463.839333,51.3179806 464.772502,52.5527336 465.607461,53.8533386 C466.141939,55.1691368 467.478828,55.9750526 468.890827,55.8326469 C469.666724,55.8326469 470.44262,55.8326469 471.218516,55.8326469 C472.439212,55.7444856 473.627159,56.2525362 474.407261,57.1963809 C475.203511,57.9600664 476.133772,58.5700776 477.151285,58.9957521 C478.598994,59.724971 480.112938,60.331075 481.607958,60.9940012 L481.607958,63.9203471 C482.904967,64.2854325 484.237222,64.5108428 485.582061,64.5927437 C488.345009,64.4696288 490.199591,66.3447631 492.404272,67.4338562 C492.810418,67.6337443 493.089817,68.0236355 493.148762,68.4727641 C493.207706,68.9218926 493.03839,69.3707766 492.697599,69.6688646 C492.225368,70.1846817 491.71962,70.668724 491.183654,71.117832 C491.685148,72.5383882 492.593515,72.5099771 493.653276,71.9985769 C494.713037,71.4871766 495.621403,71.8944027 496.31214,72.8414402 C498.631292,75.8651403 501.462367,78.4582739 504.676681,80.5029735 C507.5721,82.3970485 507.515327,82.5485745 506.181163,85.6643278 C505.974547,86.1372015 505.858978,86.6448632 505.840526,87.1606471 C505.840526,88.7706108 508.972498,93.29745 510.505366,93.9509059 C513.807657,95.3619917 516.182657,97.4738853 515.879868,101.460913 C515.879868,101.678732 516.069111,101.924962 516.229968,102.265895 L518.245406,102.663651 C520.592019,106.101397 522.872397,109.416028 525.124389,112.7496 C525.744777,113.680329 526.313371,114.644616 526.827576,115.638064 C527.415764,116.999977 528.617999,117.999193 530.063632,118.327651 C532.644117,118.983692 534.422472,121.346392 534.340524,124.009876 C534.340524,127.135099 534.45407,130.241382 535.986938,133.110906 C536.226014,133.667585 536.35148,134.266485 536.355962,134.872396 C536.564966,138.508639 538.022281,141.961061 540.48146,144.645823 C540.955244,145.261073 541.238186,146.001972 541.295205,146.776657 C541.474986,148.320328 541.456062,149.88294 541.57907,151.436081 C541.591163,152.295002 541.731492,153.147286 541.995404,153.964672 C543.102476,156.673199 544.256858,159.362785 545.505862,162.01449 C546.79737,164.769045 547.419881,167.790194 547.322595,170.831409 C547.192555,172.481968 547.633544,174.127086 548.571599,175.490834 C549.517814,176.873508 549.404268,178.331946 548.978471,179.95138 C548.631264,181.184898 548.58261,182.48345 548.836539,183.73953 C549.385344,186.26812 550.350483,188.711477 550.899288,191.240067 C551.326269,193.255067 551.551321,195.307676 551.571101,197.3674 C551.571101,200.388449 551.381858,203.418969 551.306161,206.449489 C551.221001,209.659946 551.069607,212.841992 549.773292,215.872512 C549.176428,217.342177 549.277338,219.003411 550.047694,220.389881 C550.539726,221.393741 550.90875,222.463893 551.362933,223.496164 C552.215245,225.143588 552.003006,227.141109 550.823591,228.572285 C549.877376,229.822374 549.735443,231.574394 549.205563,233.099124 C548.921699,233.894636 548.581061,234.680677 548.259348,235.504599 C548.259348,235.627714 548.259348,235.873944 548.382356,235.949707 C551.372396,238.222597 550.766818,241.196295 550.02877,244.217344 C549.782754,245.240145 549.612436,246.281886 549.356957,247.579327 C550.17161,247.665088 550.993002,247.665088 551.807655,247.579327 C552.819772,247.193187 553.962629,247.593135 554.51383,248.526365 C555.192371,249.475178 555.157574,250.759903 554.42867,251.670529 C553.860941,252.532333 553.01881,253.365726 552.848491,254.312764 C552.577021,255.654612 552.635471,257.042393 553.01881,258.356614 C554.096481,261.28455 554.585265,264.396816 554.457057,267.514466 C554.411857,267.944577 554.453692,268.379393 554.580065,268.792967 C555.743909,271.956072 553.775782,274.475192 552.839029,277.164778 C552.725483,277.496242 552.233451,277.695119 551.845503,278.007642 C550.492416,276.634437 550.814129,275.166529 551.268312,273.802795 C551.884765,272.531639 551.548001,271.003126 550.454567,270.109349 C549.044706,268.764556 549.205563,268.148982 550.728969,266.737896 C552.252376,265.32681 552.309149,264.758587 550.833053,263.385383 C549.806288,262.479172 549.152155,261.223765 548.997396,259.862404 C548.66622,257.617925 546.72648,257.115995 544.975982,258.621784 C544.455563,259.076362 543.972994,259.815052 543.395802,259.900285 C540.916719,260.26963 540.34899,262.106882 540.292217,264.048309 C540.207058,267.192474 538.399787,269.171782 536.507357,271.378379 C534.614927,273.584977 533.413233,276.293504 531.899289,278.793683 C531.54919,279.380846 531.322098,280.299473 530.820604,280.47941 C528.729469,281.24651 528.682158,282.903826 528.549688,284.684256 C528.29421,288.216706 527.877875,291.730215 527.603473,295.262665 C527.631396,296.84728 526.99683,298.371562 525.852975,299.467511 C524.357955,300.774423 524.29172,302.232861 525.228473,303.871236 C526.165226,305.509611 526.988433,307.024871 527.849489,308.606423 C528.138845,309.034182 528.353236,309.508175 528.483453,310.008039 C528.710544,311.589591 529.694608,312.337751 531.104469,312.849151 C533.943114,313.928774 534.141819,314.421233 532.798194,317.300227 C531.830073,319.314377 530.71031,321.25192 529.448592,323.096097 C529.04172,323.702201 527.783254,324.421949 527.423692,324.213601 C526.719172,323.670071 526.235147,322.889575 526.061142,322.016474 C525.824588,321.069436 526.061142,319.932991 525.900286,318.919661 C525.777278,318.247265 525.209549,317.12029 524.868911,317.12029 C524.063167,317.154701 523.317336,317.555847 522.844011,318.209383 C521.750681,320.250768 520.887478,322.407474 520.270306,324.639768 C519.62688,327.367236 518.321103,329.176077 515.189131,330 C514.694051,329.316212 514.316671,328.554395 514.072597,327.746051 C513.831788,325.924722 512.790753,324.306243 511.233952,323.332856 C508.783255,321.561896 508.754868,320.889499 509.341522,318.048387 C510.013335,314.639052 510.155267,311.172895 510.846004,307.735149 C511.584052,303.946999 511.22449,299.988382 511.281263,296.105528 C511.246886,295.501599 511.078823,294.912867 510.789231,294.38192 C509.906014,292.644074 509.948619,290.579496 510.902777,288.879632 C512.06796,286.806625 512.255087,284.323313 511.413733,282.098844 C510.249888,278.642157 510.912239,275.299115 511.593514,271.88978 C511.806483,270.467696 511.806483,269.021783 511.593514,267.5997 C511.281263,264.502887 510.647299,261.443956 510.47698,258.347144 C510.337598,256.347476 509.748925,254.40511 508.754868,252.664919 C507.647797,250.619318 506.625885,248.535835 506.758355,246.035656 C506.737057,244.630549 507.494666,243.3291 508.726482,242.654732 C510.883852,241.376232 510.940625,240.83642 510.136342,238.412004 C509.190127,235.428836 508.58455,232.445668 510.249888,229.434089 C510.590141,228.655235 510.590141,227.769586 510.249888,226.990732 C509.743172,225.707078 508.923431,224.570815 507.865426,223.685571 C504.127877,221.175922 504.080566,217.567709 505.026781,213.978437 C505.647473,211.99542 505.258663,209.833883 503.985944,208.192038 C502.434152,205.909678 501.099988,203.456851 499.614431,201.146079 C498.876383,199.990694 498.024789,198.9016 497.211045,197.793567 C496.955566,197.443163 496.548694,197.177992 496.378375,196.846529 C495.280766,194.34635 494.277778,191.80829 493.14232,189.327051 C492.482269,187.6579 491.634691,186.069296 490.615925,184.591864 C489.134531,182.897469 488.209592,180.788098 487.966523,178.549765 C487.70475,176.293103 486.667904,174.197523 485.033256,172.62131 C484.09653,171.61938 483.286191,170.506183 482.620408,169.306679 C480.554136,165.637586 478.885628,161.757949 477.643317,157.733881 C476.684319,154.978416 475.517101,152.30003 474.151783,149.721944 C473.83007,149.030606 473.205568,148.481324 472.846006,147.827869 C472.306664,146.795598 471.899791,145.706505 471.407759,144.655293 C471.001923,143.556529 470.501711,142.495032 469.91274,141.482717 C468.41772,139.27612 466.667222,137.239989 465.276286,134.9671 C464.831565,134.247351 465.210051,133.025673 465.210051,132.059694 C464.112441,128.65983 461.340031,126.481644 459.154274,123.848879 C458.183214,122.749651 457.376821,121.515086 456.76035,120.183844 C455.369414,116.982858 454.479972,113.554582 452.84302,110.46724 C450.761346,106.603327 448.291725,102.692062 443.466028,101.858669 C439.141825,101.110509 436.227483,98.4303932 433.360451,95.5229881 C432.158758,94.3013097 430.928678,93.0985721 429.708061,91.8958345 C428.487443,90.6930969 427.181667,89.3104222 425.838041,88.1076846 C424.494416,86.9049469 423.330571,86.0336725 422.053181,85.0771646 C419.214536,82.9936821 416.006867,81.2890146 414.161747,78.1448502 C413.646417,77.0281024 412.590389,76.2577865 411.370413,76.1087196 C410.21603,75.9856047 409.790233,75.0669783 409.137345,74.2146446 C407.736931,72.282105 406.121101,70.5155383 404.32111,68.9491161 C402.899136,67.8780986 401.042556,67.5737089 399.353481,68.1346639 C397.748636,68.6295694 396.00286,68.1409196 394.887346,66.8845744 C392.852984,64.8768549 392.540733,64.8768549 389.995414,66.4584076 C388.859956,67.1592153 387.894817,67.2349783 387.005374,66.1932371 C385.207566,64.0813435 383.11643,62.8501947 380.183164,63.5225913 C379.492427,63.6835877 378.678682,63.2005986 377.912247,63.0964245 C377.098398,62.8419706 376.235996,62.7835619 375.395315,62.9259577 C373.502885,63.7119988 371.67669,63.3426542 369.793722,62.98278 C368.944873,62.8547046 368.08316,62.8356095 367.229479,62.9259577 C362.148304,63.2479505 357.152289,63.513121 352.090038,61.9789202 C349.440636,61.2023495 346.507369,60.3973676 343.470019,61.391757 C341.899302,61.9031572 340.035258,61.4485792 338.322609,61.6285164 C337.132171,61.694456 335.970102,62.0175335 334.916234,62.5755538 C332.143824,64.3559843 332.191135,64.4696288 329.390338,63.5225913 C329.163247,64.0339916 328.888844,64.5453918 328.699601,65.0852032 C327.921215,67.6527452 325.542076,69.3971624 322.861454,69.3658126 C321.914739,69.3149517 320.965471,69.3402876 320.022809,69.4415756 C319.085519,69.5387383 318.194051,69.8962917 317.449104,70.4738465 C315.536752,72.3237241 313.762569,74.3115239 312.140837,76.4212419 C310.371415,78.798306 307.93018,79.2623544 305.791734,77.2072831 C303.653288,75.1522117 303.13287,75.0953895 300.720021,77.2072831 C299.329085,78.4479022 298.269324,78.3816095 296.935161,76.9610533 C296.691889,76.7120825 296.470301,76.4427771 296.272811,76.1560714 C294.739942,73.8737111 293.055679,72.254277 289.876397,72.1595732 C287.293229,72.0743399 284.757373,70.7200763 282.183668,70.0097981 C277.093031,68.5987123 272.257872,69.5552201 267.63088,71.8375805 C266.652014,72.2932902 265.546867,72.400225 264.498908,72.1406325 C260.354486,71.5155877 256.068132,70.587491 252.027794,72.0838102 C249.25065,73.260116 246.623678,74.7639101 244.202595,76.5632976 C240.928691,78.798306 237.862954,81.298485 234.645823,83.6281972 C232.710795,85.051479 230.688207,86.3514888 228.590046,87.5205213 C225.259369,89.3293629 222.704588,92.085242 220.187656,94.7085359 C216.516342,98.4966858 212.485465,102.067017 209.410266,106.499153 C207.158275,109.756962 204.395327,112.645426 202.010865,115.818001 C199.891343,118.659114 198.008375,121.642282 195.974012,124.530746 C194.895327,126.064947 193.67471,127.504444 192.596024,129.029174 C191.148315,131.065305 189.757379,133.129847 188.375905,135.184918 C186.578097,137.827153 184.988455,140.639854 182.963555,143.083211 C180.529515,146.012742 178.583692,149.316159 177.201105,152.866108 C176.457378,154.295533 175.596528,155.660786 174.6274,156.94784 C174.061858,157.794512 173.595165,158.703288 173.236464,159.656367 C172.873048,161.170618 171.992905,162.510402 170.747918,163.444517 C170.076648,163.966763 169.578639,164.679767 169.319134,165.490118 C167.956584,169.496086 166.679194,173.539936 165.401803,177.574316 C164.578596,180.178669 164.275807,182.906137 162.260369,185.150616 C161.503397,185.993479 161.702102,187.77391 161.598019,189.137644 C161.56017,191.041189 161.484473,192.82162 160.169234,194.639932 Z M218.654788,65.8428332 C217.405784,63.3710653 216.497417,61.4106977 215.447119,59.5450339 C215.05917,58.8631669 214.207577,57.8214257 213.78178,57.9161294 C212.910972,58.1684488 212.192718,58.7870994 211.813653,59.6113265 C210.938622,61.8608374 210.196146,64.1597711 209.590047,66.4962891 C209.381424,67.2437446 209.452065,68.041673 209.788752,68.7407679 C210.091541,69.2616385 211.189151,69.8582721 211.586561,69.6878054 C213.961561,68.4945382 216.232477,67.1497449 218.654788,65.8144221 L218.654788,65.8428332 Z M209.221023,76.9137014 C213.005884,78.8077764 214.008872,79.2055322 215.447119,78.0027945 C217.51933,76.2602456 219.619927,74.8396893 222.345027,74.4987558 C222.512421,74.4474578 222.664978,74.3564938 222.789748,74.2335853 C224.019827,73.2865478 223.963054,71.8565212 222.468035,71.5061174 C220.923183,71.0552223 219.281811,71.0552223 217.736959,71.5061174 C215.238572,72.57876 212.827834,73.845339 210.5268,75.2942673 C210.063155,75.6541416 209.760366,76.2791863 209.221023,76.9137014 Z M462.541724,55.8515877 C462.541724,54.9045502 462.778278,54.0522164 462.541724,53.8343978 C461.254872,52.7926566 459.826087,51.9403228 458.406764,50.9932854 C457.50786,53.0483567 457.50786,53.0483567 462.541724,55.8515877 Z M209.173713,85.768502 C210.914748,86.7155394 212.182677,86.5545431 213.081581,85.4938611 C213.460067,85.0487535 213.365445,84.1964197 213.478991,83.5240231 C212.863951,83.5240231 212.116442,83.3819675 211.652796,83.6755491 C210.770835,84.3044241 209.941713,85.004406 209.173713,85.768502 Z" id="Shape" fill="#000000" fill-rule="nonzero"></path>
            <path d="M201.794431,278.344684 C200.053872,277.055467 198.360612,278.796381 196.638972,278.532891 C197.234924,276.32146 198.587641,275.145167 200.574148,275.606274 C203.903912,276.387332 206.495831,275.201629 208.87018,273.121942 C211.244529,271.042256 214.271588,270.61879 217.308106,270.298838 C219.35137,270.0824 221.394635,269.771859 223.437899,269.498959 C223.942126,269.380797 224.454275,269.299027 224.970347,269.25429 C231.270413,269.25429 237.579938,268.887286 243.823246,270.195325 C246.109403,270.646154 248.417463,270.979098 250.738182,271.192821 C253.642267,271.493952 254.522006,270.835228 255.27877,267.965072 C256.114402,265.289874 258.466981,263.363622 261.26667,263.062282 C262.646853,262.9634 264.033014,262.98229 265.409956,263.118744 C268.020794,263.363413 270.272169,264.210344 271.407316,266.882883 C271.849101,267.81834 272.422419,268.686516 273.110036,269.461317 C274.510051,271.202232 275.569521,272.999608 274.95465,275.361605 C274.890725,275.615926 274.91403,275.884202 275.020867,276.123843 C276.647911,279.257488 275.900606,282.485237 275.247896,285.618882 C274.481672,289.251276 273.25193,292.733104 270.026221,295.029228 C268.437015,296.177291 267.188353,297.52297 266.989703,299.602657 C266.971785,299.941321 266.856909,300.267829 266.658618,300.543691 C263.281556,304.439575 259.422056,307.544989 254.086866,308.429561 C252.667392,308.739384 251.313238,309.293514 250.085473,310.066962 C249.239614,310.660412 248.147027,310.781179 247.190848,310.386913 C242.120525,308.504844 237.031283,308.909489 231.998799,310.56571 C229.955534,311.233845 228.063623,312.146648 225.755491,311.694952 C224.809535,311.516155 223.664928,312.287803 222.643296,312.701859 C221.848693,313.031221 221.139226,313.586431 220.325704,313.8311 C219.887787,314.039051 219.382486,314.055703 218.931695,313.877039 C218.480903,313.698375 218.125549,313.340617 217.951356,312.890066 C217.750306,312.360375 217.776104,311.771883 218.022743,311.261614 C218.269382,310.751346 218.715338,310.36383 219.256774,310.189296 C219.98516,309.944627 220.85544,310.104603 221.527068,309.794062 C222.112933,309.407432 222.630696,308.927337 223.059517,308.373099 C222.594131,307.831903 222.04487,307.368095 221.432473,306.999189 C220.849576,306.832641 220.225078,306.889728 219.682455,307.159165 C216.731073,308.504844 214.00672,307.413244 211.490478,306.161668 C209.831436,305.264182 207.985769,304.76168 206.09853,304.693654 C204.064725,304.693654 203.591747,304.119623 203.203905,302.124629 C202.778225,299.903788 202.068758,299.301526 199.779545,299.103908 C198.360612,298.953343 196.941678,298.426363 195.560582,298.351081 C194.474417,298.333536 193.395102,298.525268 192.382171,298.915701 C191.019995,299.395629 189.771333,300.23315 188.399697,300.675436 C186.907418,301.116674 185.297852,300.920035 183.95724,300.132706 C182.616627,299.345378 181.665975,298.038426 181.333408,296.525473 C180.746915,294.144656 180.813132,292.07438 182.525312,290.022924 C183.85911,288.404345 184.4929,286.258786 185.798319,284.574334 C187.057031,283.062053 188.521602,281.731791 190.149715,280.621988 C192.278116,279.097512 193.328127,279.257488 195.522744,280.876068 C197.717362,282.494647 201.141722,281.21484 201.794431,278.344684 Z M218.206764,291.293321 C215.822955,290.352286 213.656716,289.834717 211.821562,288.752527 C209.570187,287.406848 210.251276,284.611975 209.645864,282.541699 C208.066118,282.071182 206.807997,282.541699 206.562048,283.802685 C206.183666,285.816499 204.925545,286.569327 203.270122,287.322155 C201.37821,288.206727 200.782258,291.142755 201.851188,292.883669 C202.66422,294.167218 203.35161,295.525391 203.903912,296.939529 C204.925545,299.630888 206.74178,300.270791 209.07829,298.708674 C209.681086,298.24012 210.372876,297.897625 211.112095,297.701767 C213.694555,297.287711 215.898631,296.516063 216.78783,293.683549 C217.160877,292.832134 217.637406,292.029408 218.206764,291.293321 L218.206764,291.293321 Z M238.639408,282.720495 C238.504197,284.285041 238.456826,285.855873 238.497515,287.425669 C238.620489,289.025427 239.566445,289.439483 241.023217,288.921914 C242.479989,288.404345 243.766488,288.046751 245.147584,287.679748 C246.476749,287.522179 247.439976,286.343156 247.323282,285.01662 L238.639408,282.720495 Z M225.916303,283.66153 C226.001439,283.802685 226.086575,284.066175 226.181171,284.066175 C228.110855,284.202561 230.046308,284.240253 231.97988,284.179099 C232.358262,284.179099 233.010971,283.12514 232.925835,282.635802 C232.793799,281.928026 232.349329,281.316605 231.715012,280.970171 C229.662288,280.104419 226.985233,281.421868 225.944682,283.680351 L225.916303,283.66153 Z M260.226119,290.709879 L259.78152,290.041745 C257.019329,290.700469 253.869296,289.608869 251.107105,292.112021 C253.944972,293.99409 256.432836,293.147159 258.835564,292.34728 C259.422056,292.177893 259.77206,291.293321 260.226119,290.7287 L260.226119,290.709879 Z M229.009578,274.796984 C231.629876,275.361605 234.259633,276.001508 237.116419,275.352194 C235.669107,272.51968 232.670427,272.293832 229.056876,274.815805 L229.009578,274.796984 Z" id="Shape" fill="#000000" fill-rule="nonzero"></path>
            <path d="M382.897878,259.246117 L383.172909,256.817661 C385.866309,255.513665 389.252028,255.797142 391.158272,257.469659 C390.987564,258.811452 389.877959,258.896495 388.882159,259.123277 L386.245661,259.690232 L386.14134,260.380027 C386.672433,260.644605 387.203526,261.145416 387.725135,261.135966 C389.446672,261.116693 391.163313,260.949132 392.855874,260.635156 C395.135466,260.051064 397.542031,260.199893 399.731632,261.060372 C401.10481,261.591443 402.538019,261.9532 403.999345,262.137586 C406.977259,262.581701 409.974142,263.082511 412.980508,263.195902 C415.398462,263.363835 417.710599,264.249119 419.619172,265.737749 C421.443469,267.078152 423.762968,267.561058 425.973321,267.060644 C425.585298,266.170785 425.118761,265.317003 424.579202,264.509347 C424.010159,263.983766 423.408316,263.494578 422.777279,263.044714 C422.13238,262.439962 421.421095,261.570632 422.322056,260.871387 C423.033176,260.479568 423.896534,260.479568 424.607653,260.871387 C426.324222,262.421064 428.477046,262.808483 430.525548,263.394336 C435.673178,264.941357 440.353428,267.740573 444.144292,271.539586 C445.089223,272.638533 445.892125,273.851196 446.534211,275.149198 C447.183303,276.156561 447.778454,277.197432 448.317166,278.267449 C448.601366,278.953611 448.829713,279.661437 449,280.38408 C448.40252,280.535268 448.174909,280.667558 448.051619,280.610862 C445.917763,279.080085 443.812359,278.721013 441.412956,280.195096 C440.682703,280.648659 439.373938,280.365182 438.378138,280.195096 C437.023369,279.838146 435.596679,280.430757 434.897582,281.64083 C433.76091,283.029955 432.307436,284.128237 430.658321,284.844125 C428.420143,285.789049 426.400092,284.910269 424.702491,282.954275 C423.872316,281.974645 422.89689,281.127046 421.809931,280.440776 C420.465792,279.778386 419.600452,278.428718 419.562269,276.935106 C419.531892,275.181948 418.7688,273.520906 417.456864,272.352221 C416.317313,271.15407 414.546723,270.795199 413.027927,271.454543 C411.282907,279.01394 406.313393,283.625172 399.883373,286.989103 C398.943287,287.38747 397.936182,287.605469 396.914942,287.631652 C395.18889,287.78284 394.743151,288.330896 395.274244,289.908921 C396.146754,292.479115 396.108819,292.403521 393.889608,293.688619 C391.81835,294.809973 389.450741,295.268572 387.108688,295.002064 C384.263546,294.784731 381.835692,295.219397 379.806158,297.458868 C378.146492,299.273123 375.860895,299.254225 373.764974,298.403793 C371.669053,297.553361 369.971452,297.893533 367.99882,298.583328 C366.680083,298.953976 365.304007,299.078909 363.939752,298.951849 C362.830146,298.951849 361.730025,298.43214 360.62042,298.356546 C358.40818,298.365731 356.387032,297.108955 355.423295,295.124904 C354.86375,294.05714 353.630856,293.329548 352.625572,292.375174 C353.450663,290.29634 354.105046,288.28365 356.5329,287.300929 C357.073477,287.990724 357.48128,288.604925 358.00289,289.190778 C358.524499,289.776631 359.264236,290.494774 360.203132,289.776631 C360.571596,289.399725 360.765678,288.886835 360.738679,288.361371 C360.711679,287.835908 360.466043,287.345446 360.060875,287.008002 C359.045322,286.440224 357.978442,285.968838 356.874317,285.600064 C356.665673,284.248822 356.305289,282.661349 356.200967,281.064426 C356.225176,279.546393 355.188524,278.215045 353.706726,277.861132 C351.849817,277.361243 350.21404,276.256959 349.059661,274.723982 C348.281989,273.608971 347.1629,273.779057 346.005876,274.147578 C343.221911,275.136036 340.126535,274.003346 338.646443,271.454543 C338.214493,270.643379 338.129019,269.692959 338.409348,268.818203 C339.049923,267.189236 338.821619,265.348135 337.802385,263.923494 C336.228073,261.306053 336.996261,259.548493 339.879338,258.565771 C340.957004,258.119546 342.20093,258.435168 342.933123,259.34061 C343.931096,260.467038 345.43483,261.011535 346.925805,260.786344 C349.153492,260.585005 351.369308,260.269613 353.564469,259.84142 C355.747488,259.393119 357.987466,259.287905 360.203132,259.529594 C362.344783,259.633599 364.491184,259.478123 366.595217,259.066581 C370.692221,258.45238 374.760773,257.620847 378.857777,257.053892 C379.483708,256.968849 380.270864,257.743687 380.896795,258.235048 C381.351256,258.658558 381.76118,259.127146 382.120206,259.633536 L382.897878,259.246117 Z M380.650216,270.178895 C377.387787,270.840342 374.504711,271.99315 372.655369,274.979112 C371.952366,276.073491 371.862828,277.450933 372.418273,278.626521 C373.992585,282.689697 377.160176,284.881922 381.171826,285.817397 C382.167625,286.044179 383.666066,285.269341 384.567028,284.52285 C385.467989,283.77636 385.297281,282.434567 384.728253,281.196716 C384.0755,279.72247 383.582707,278.182954 383.258263,276.604382 C382.92633,275.101952 382.859943,273.533377 382.679751,271.99315 C382.692707,271.47067 382.475308,270.968755 382.084869,270.619731 C381.694429,270.270706 381.170137,270.109603 380.650216,270.178895 L380.650216,270.178895 Z M404.302826,271.123819 C404.132118,268.808754 402.737999,267.769337 400.291177,267.98667 C399.055279,268.087953 397.916927,268.695516 397.147533,269.6645 C396.37814,270.633484 396.046653,271.877054 396.232108,273.098712 L404.302826,271.123819 Z" id="Shape" fill="#000000" fill-rule="nonzero"></path>
            <path d="M414.266553,219.981464 C412.1645,219.85789 410.253373,221.198408 409.649751,223.219817 C408.104536,226.996323 406.521632,227.874361 402.460731,226.996323 C399.634118,226.354317 397.127854,226.288228 394.923095,228.780722 C393.311926,230.602887 388.073269,231.056067 385.925042,229.724849 C383.882161,228.301938 381.156268,228.362976 379.178858,229.875909 C377.398092,231.046626 375.607903,232.217343 373.836559,233.406942 C371.70432,234.738027 369.211671,235.371534 366.704071,235.219665 C365.940885,235.219665 365.008103,234.993075 364.452202,235.351843 C362.850455,236.390382 361.371194,235.993849 359.74118,235.455697 C358.766821,235.115544 357.747663,234.921477 356.716704,234.87978 C354.040286,235.011144 351.384015,234.354747 349.075425,232.991527 C348.110704,232.578786 347.092381,232.305407 346.050949,232.179578 C346.229968,231.292099 346.38072,230.423503 346.588005,229.564347 C346.917777,228.195364 346.465519,227.260679 345.04279,227.19459 C342.385773,227.071853 341.038421,225.570692 340.331768,223.182052 C339.483784,220.349673 340.331768,217.94215 342.074846,215.723453 C344.788395,212.230185 348.283974,213.2404 351.421514,214.562177 C353.397302,215.361211 355.588674,215.447977 357.62122,214.80765 C359.863667,214.278939 362.162646,214.024025 364.423936,213.570845 C366.206937,213.355301 367.954907,212.911071 369.624905,212.249068 C371.846933,211.096001 374.321538,210.518281 376.823347,210.568522 C378.445371,210.560402 380.048587,210.219827 381.53437,209.567748 C383.580656,208.950077 385.701106,208.613416 387.837718,208.566974 C389.300181,208.486758 390.765927,208.486758 392.22839,208.566974 C396.317558,208.642504 400.425569,209.114568 404.477049,208.151559 C406.016331,207.751106 407.653343,208.155868 408.830033,209.227863 C410.254118,210.515471 412.148456,211.151625 414.059268,210.983938 C416.042364,210.906096 417.998873,211.461516 419.646541,212.570071 C421.074604,213.349105 422.638756,213.845911 424.253921,214.033467 C425.644645,214.083318 426.910363,214.851443 427.598747,216.063339 C428.420753,217.732357 430.086492,218.818563 431.942309,218.895718 C432.462291,218.898282 432.965222,219.081842 433.365038,219.414988 C435.070428,221.397653 437.501316,221.59592 439.743762,222.426751 C441.986209,223.257582 443.889462,224.928686 446,226.278787 C443.322246,228.756159 439.219207,228.837252 436.446047,226.467613 C435.296557,225.353543 434.25071,223.956236 432.86567,223.295348 C431.141435,222.464516 430.039056,224.456623 428.512685,224.975893 C425.99403,225.980663 423.158421,225.800477 420.786608,224.484947 C419.847617,223.88285 418.842178,223.391778 417.790398,223.021551 C416.179228,222.473957 414.624591,222.030218 414.266553,219.981464 Z" id="Path" fill="#000000" fill-rule="nonzero"></path>
            <path d="M238.716938,250 C236.079415,249.571654 233.460936,249.048121 230.813892,248.762557 C228.166848,248.476993 225.262717,248.572181 222.482368,248.496031 C219.511585,248.41988 216.550323,248.438918 214.160366,246.163926 C213.589699,245.81828 212.908881,245.702577 212.256018,245.840287 C210.540808,246.103567 208.845277,246.482001 207.18093,246.973024 C205.94403,247.319633 204.777438,247.880197 203.734059,248.629294 C202.6807,249.52461 201.294439,249.926502 199.925362,249.733474 C195.040709,249.13379 190.12749,248.676888 185.233315,248.10576 C184.454595,248.104936 183.699231,247.839801 183.090923,247.353775 C181.919749,245.859325 180.472445,245.916437 178.86327,246.116332 C176.254313,246.430452 175.359269,245.354829 176.463791,242.965611 C177.280512,241.136932 177.481005,239.092538 177.035096,237.14011 C176.520922,234.37014 177.139835,233.008953 179.834488,232.038036 C182.91001,230.914818 186.004576,229.629781 189.356229,229.801119 C190.948487,229.963002 192.506013,229.262513 193.441057,227.963992 C194.650765,226.311267 196.637539,225.412079 198.678014,225.593813 C202.051112,225.825219 205.438263,225.444685 208.675843,224.470595 C210.751583,223.794761 212.92254,223.518716 214.436497,225.965046 C214.760236,226.47906 216.178975,226.488579 217.064497,226.431466 C217.950019,226.374354 218.892672,225.841301 219.835324,225.708038 C220.573996,225.515436 221.356191,225.5792 222.05389,225.888895 C224.758064,227.98303 227.624109,227.26912 230.52824,226.650399 C231.537544,226.431466 232.575414,226.260128 233.575197,225.974564 C235.103708,225.463601 236.786897,226.007767 237.726676,227.316714 C238.380431,227.996576 239.217124,228.472649 240.135677,228.687421 C242.400975,229.071321 244.363793,230.475407 245.458331,232.494938 C246.113816,233.38846 247.032859,234.054227 248.086331,234.398697 C251.209463,235.693253 253.799376,240.205161 252.771028,243.365401 C252.289791,244.416664 251.528937,245.315577 250.571506,245.964031 C249.335562,246.908753 248.008682,247.728231 246.610461,248.410361 C245.561733,248.978011 244.425829,249.367251 243.249287,249.562135 C241.771779,249.657456 240.289662,249.657456 238.812155,249.562135 L238.716938,250 Z" id="Path" fill="#000000" fill-rule="nonzero"></path>
            <path d="M517.383123,386.981308 C517.184976,389.728972 516.967958,392.336449 516.807553,394.943925 C516.420695,401.242991 516.090451,407.551402 515.656415,413.850467 C515.458852,414.611965 515.140361,415.337525 514.712858,416 L513.976884,416 C513.581314,415.263677 513.310375,414.468066 513.174861,413.64486 C513.231475,410.841121 513.533413,408.037383 513.608897,405.233645 C513.665511,403.037383 513.542848,400.841121 513.448493,398.64486 C513.448493,397.794393 513.212604,396.953271 513.146555,396.102804 C512.98615,394.140187 512.504936,392.056075 514.967618,391.224299 C514.618503,389.813084 513.863657,388.523364 514.175031,387.607477 C515.005322,385.66083 515.996269,383.785315 517.137798,382 C518.024741,382.420561 518.562568,382.654206 519.024911,382.934579 C519.487254,383.214953 519.808063,383.626168 520.119436,383.570093 C523.893662,382.794393 526.780945,385.971963 530.404201,385.813084 C532.47059,385.728972 534.565285,385.813084 536.254251,384.299065 C536.452398,384.130841 536.669416,383.859813 536.876998,383.859813 C537.584665,383.859813 538.292333,383.962617 539,384.018692 C538.839595,384.691589 538.896209,385.588785 538.471608,385.990654 C535.169161,389.065421 531.291144,389.654206 526.979091,388.504673 C524.403182,387.82243 521.780096,387.345794 519.157009,386.841121 C518.562201,386.818411 517.966769,386.865467 517.383123,386.981308 L517.383123,386.981308 Z" id="Path" fill="#000000" fill-rule="nonzero"></path>
            <path d="M553.874814,288.851563 C553.625722,292.422992 553.434112,295.994421 553.098796,299.556224 C552.945508,301.163848 551.450955,302.290148 550.224654,301.933967 C548.998354,301.577787 547.915761,299.700621 548.739681,298.497309 C550.94319,295.291687 549.189963,292.817678 547.90618,290.016368 C547.230049,288.3341 546.926032,286.524229 547.015196,284.712171 C547.193069,283.631699 547.848232,282.690243 548.797164,282.151523 C550.052206,281.535428 550.435425,282.940896 550.991092,283.80728 C551.380011,284.472768 551.905891,285.047123 552.533548,285.491917 C553.71033,286.156372 554.268362,287.55415 553.874814,288.851563 Z" id="Path" fill="#000000" fill-rule="nonzero"></path>
            <path d="M249,28.3969544 C247.66162,28.5203974 246.80545,28.5868667 245.959122,28.6913184 C243.682981,28.8111114 241.60271,29.9717211 240.359576,31.815376 C239.795283,32.6944865 239.014315,33.4252079 238.086298,33.9423939 C237.62377,34.1797843 236.708554,33.619543 236,33.420135 C236.152088,32.7580784 236.397093,32.1191433 236.728236,31.5210119 C236.993944,31.1601785 237.712339,31.0462311 238.165026,30.8658144 C239.605898,30.3871967 240.832416,29.4451161 241.63891,28.1975464 C243.587434,25.2444099 246.067373,25.2254187 249,28.3969544 Z" id="Path" fill="#000000" fill-rule="nonzero"></path>
            <path d="M551.449101,319 C549.801709,316.553052 549.50312,308.503634 550.841625,306 C553.374489,307.568314 553.806929,314.928052 551.449101,319 Z" id="Path" fill="#000000" fill-rule="nonzero"></path>
            <path d="M356,4.94390526 C356.75,3.76208496 357.846154,3.97162757 358.884615,4.10573484 C360.807692,4.34042256 362.634615,4.94390526 364.586538,4.2230787 C364.894231,4.10573484 365.548077,4.65054561 366,4.88523333 C365.682692,5.27917343 365.355769,6 365.038462,6 C362.432692,6 359.836538,5.87427444 357.240385,5.70664035 C356.798077,5.67311353 356.442308,5.2205015 356,4.94390526 Z" id="Path" fill="#000000" fill-rule="nonzero"></path>
            <path d="M159.093453,260 C161.991103,263.399015 161.553722,266.62069 158,268 C158.382709,265.172414 158.054673,262.53202 159.093453,260 Z" id="Path" fill="#000000" fill-rule="nonzero"></path>
            <path d="M345,1.51400258 C342.75,3.72803508 340.44,3.42859625 339,0.878829322 C341.25,-0.455034518 343.14,-0.291704252 345,1.51400258 Z" id="Path" fill="#000000" fill-rule="nonzero"></path>
            <path d="M174.088694,240.995154 C173.360311,241.046953 172.664416,240.680409 172.28475,240.044976 C171.905083,239.409543 171.905083,238.611393 172.28475,237.97596 C172.664416,237.340527 173.360311,236.973983 174.088694,237.025783 C174.559445,236.93979 175.043365,237.07128 175.409569,237.384687 C175.775773,237.698094 175.986422,238.161035 175.984542,238.648299 C176.053537,239.218625 175.889652,239.792796 175.53123,240.236484 C175.172807,240.680172 174.651292,240.954451 174.088694,240.995154 L174.088694,240.995154 Z" id="Path" fill="#000000" fill-rule="nonzero"></path>
            <path d="M364.611955,409 C365.747071,409.178693 366.075657,410.052238 365.986043,411.134243 C365.991839,411.684629 365.751023,412.208895 365.32926,412.564088 C364.907496,412.91928 364.348768,413.068359 363.805424,412.970674 C363.298865,412.998073 362.806189,412.800174 362.460183,412.430316 C362.114177,412.060457 361.950452,411.556704 362.013135,411.05483 C362.292053,409.84907 363.37075,408.996173 364.611955,409 Z" id="Path" fill="#000000" fill-rule="nonzero"></path>
            <path d="M156.49731,234 C157.390931,236.373832 156.929707,238.504673 156.372395,241 C154.498672,238.121495 154.546716,235.813084 156.49731,234 Z" id="Path" fill="#000000" fill-rule="nonzero"></path>
            <path d="M512.755099,419 C514.167897,420.535088 514.229659,420.850877 513.673804,423 C511.782353,421.736842 511.519866,420.745614 512.755099,419 Z" id="Path" fill="#000000" fill-rule="nonzero"></path>
            <path d="M330,1.74478146 C330.936937,-0.180320853 331.693694,-0.368735123 334,0.483225052 C333.099099,2.03149883 332.387387,2.27725657 330,1.74478146 Z" id="Path" fill="#000000" fill-rule="nonzero"></path>
            <path d="M456,42.3507783 C458.067633,40.5609453 458.434783,40.5609453 460,42.2844882 C458.618357,44.5383521 457.73913,44.5825455 456,42.3507783 Z" id="Path" fill="#000000" fill-rule="nonzero"></path>
            <path d="M265,12.0968069 C262.95,13.4189053 262.64,13.3624054 261,11.4414077 C262.78,9.32831026 264,9.53171001 265,12.0968069 Z" id="Path" fill="#000000" fill-rule="nonzero"></path>
            <path d="M351,472.996559 C349.941927,474.862713 347.945978,476.00777 345.791911,475.98439 C341.732803,476.13425 339.199393,478.382148 336.731907,481.173289 C335.811891,482.168758 334.78198,483.05792 333.661677,483.823935 C332.715475,484.290004 332.239784,485.362325 332.531532,486.371553 C332.882499,487.479115 332.715869,488.684809 332.077457,489.657131 C331.439045,490.629453 330.39606,491.266039 329.235272,491.391859 C328.039625,491.506137 326.837051,491.531183 325.637641,491.466789 C324.030005,491.414551 322.420739,491.489719 320.825103,491.691579 C317.293397,492.347216 313.818198,493.461799 310.145224,492.731232 C307.442291,494.061239 304.127197,492.459611 301.565532,494.529551 C301.219703,494.792324 300.779849,494.900837 300.350625,494.82927 C298.165677,494.25793 296.762412,495.400611 295.434491,496.871111 C294.255106,498.19158 292.478641,498.820534 290.725549,498.538303 C285.850978,497.973717 280.919282,498.128368 276.090159,498.997248 C275.029132,499.017127 273.968834,498.929253 272.92575,498.734994 C273.698017,497.629777 274.131239,497.04907 274.52679,496.458997 C274.99786,495.863319 275.393257,495.212132 275.704026,494.520184 C277.399245,489.443681 277.399245,488.347831 271.795604,484.741827 C270.203982,483.720907 268.471092,482.91541 266.983066,481.782095 C266.122866,481.005419 265.400163,480.09037 264.845207,479.07525 C264.289552,478.222922 263.903418,477.276932 263.404271,476.377773 C262.697929,475.057132 262.886287,474.392129 264.214209,473.670928 C264.50866,473.50221 264.825774,473.37606 265.155997,473.296279 C268.084958,472.696839 271.004502,472.013103 273.961717,471.600989 C275.323782,471.447938 276.702969,471.578721 278.011407,471.985005 C279.464647,472.528949 281.072164,472.498785 282.503737,471.900709 C285.395027,470.617533 288.418168,471.301269 291.403637,471.619721 C295.392223,472.215227 299.432504,472.394159 303.458527,472.153597 C307.272769,471.79768 311.171773,472.490782 315.023687,472.387753 C319.996329,472.24726 324.959554,471.685285 329.932196,471.451129 C335.940805,471.19824 341.949414,471.104578 347.967442,471.010916 C349.318634,470.894718 350.573315,471.716251 351,472.996559 Z" id="Path" fill="#000000" fill-rule="nonzero"></path>
            <path d="M342.495498,506.999473 C340.632433,506.903739 338.776552,506.699005 336.937356,506.386319 C335.955104,506.162759 335.081925,505.602112 334.469164,504.801553 C333.970063,503.964822 333.863282,502.950775 334.177127,502.028212 C334.450323,501.433924 335.69384,501.018866 336.51343,501 C338.397546,501 340.281662,501.235828 342.165778,501.33016 C344.577446,501.45279 346.009374,502.499868 346,504.207265 C345.990533,505.914662 344.294829,507.027772 342.495498,506.999473 Z" id="Path" fill="#000000" fill-rule="nonzero"></path>
            <path d="M265.373904,502 C268.085622,502.094553 269.504755,504.089617 268.835864,506.245421 C268.458763,507.468771 267.993421,508.660408 267.443849,509.810062 C267.239421,510.345719 266.812475,510.754503 266.284354,510.920235 C265.756232,511.085967 265.184678,510.990526 264.732131,510.661037 C263.336762,510.060227 262.331811,508.754992 262.068009,507.200862 C261.804208,505.646732 262.318164,504.059383 263.430506,502.992804 C264.011018,502.533835 264.670947,502.196704 265.373904,502 Z" id="Path" fill="#000000" fill-rule="nonzero"></path>
            <path d="M255,499.582512 C256.555449,498.346603 258.204537,497.214846 259.934673,496.195881 C260.728643,495.796908 261.944724,496.130932 263,496.130932 C262.997655,496.993072 262.855371,497.85002 262.577889,498.673225 C261.190955,501.31758 260.98995,501.345416 257.894472,500.528913 C257.080402,500.259838 256.266332,499.972206 255,499.582512 Z" id="Path" fill="#000000" fill-rule="nonzero"></path>
            <path d="M251.023319,490 C251.899558,490.190996 252.765126,490.42583 253.616586,490.703568 C254.424014,491.027579 255.383428,491.629314 254.841977,492.555061 C254.349068,493.276926 253.590941,493.787155 252.723666,493.980711 C251.94989,494.068277 251.171847,493.855436 250.55786,493.388233 C249.947418,492.78376 249.423409,492.10182 249,491.360848 L251.023319,490 Z" id="Path" fill="#000000" fill-rule="nonzero"></path>
            <line x1="303.91" y1="376.09" x2="303.09" y2="376.91" id="Path" stroke="#000000" stroke-width="2" stroke-linecap="round" stroke-linejoin="round"></line>
            <line x1="155" y1="197" x2="156" y2="199" id="Path" stroke="#000000" stroke-width="2" stroke-linecap="round" stroke-linejoin="round"></line>
            <line x1="254.5" y1="346.09" x2="254.5" y2="346.91" id="Path" stroke="#000000" stroke-width="2" stroke-linecap="round" stroke-linejoin="round"></line>
            <line x1="550.5" y1="305.085" x2="550.5" y2="305.915" id="Path" stroke="#000000" stroke-width="2" stroke-linecap="round" stroke-linejoin="round"></line>
            <line x1="426.91" y1="485.5" x2="426.09" y2="485.5" id="Path" stroke="#000000" stroke-width="2" stroke-linecap="round" stroke-linejoin="round"></line>
            <line x1="375.5" y1="399.085" x2="375.5" y2="399.915" id="Path" stroke="#000000" stroke-width="2" stroke-linecap="round" stroke-linejoin="round"></line>
            <line x1="242" y1="29" x2="240" y2="31" id="Path" stroke="#000000" stroke-width="2" stroke-linecap="round" stroke-linejoin="round"></line>
            <line x1="363" y1="5.5" x2="361" y2="5.5" id="Path" stroke="#000000" stroke-width="2" stroke-linecap="round" stroke-linejoin="round"></line>
            <line x1="399.915" y1="599.5" x2="399.085" y2="599.5" id="Path" stroke="#000000" stroke-width="2" stroke-linecap="round" stroke-linejoin="round"></line>
            <line x1="183.225" y1="107.09" x2="183.775" y2="107.91" id="Path" stroke="#000000" stroke-width="2" stroke-linecap="round" stroke-linejoin="round"></line>
            <line x1="487.5" y1="472.085" x2="487.5" y2="472.915" id="Path" stroke="#000000" stroke-width="2" stroke-linecap="round" stroke-linejoin="round"></line>
            <line x1="357.5" y1="544.09" x2="357.5" y2="544.91" id="Path" stroke="#000000" stroke-width="2" stroke-linecap="round" stroke-linejoin="round"></line>
            <line x1="308.5" y1="380.09" x2="308.5" y2="380.91" id="Path" stroke="#000000" stroke-width="2" stroke-linecap="round" stroke-linejoin="round"></line>
            <line x1="300.91" y1="435.5" x2="300.09" y2="435.5" id="Path" stroke="#000000" stroke-width="2" stroke-linecap="round" stroke-linejoin="round"></line>
            <line x1="393.5" y1="209.09" x2="393.5" y2="209.91" id="Path" stroke="#000000" stroke-width="2" stroke-linecap="round" stroke-linejoin="round"></line>
            <line x1="218.5" y1="482.09" x2="218.5" y2="482.91" id="Path" stroke="#000000" stroke-width="2" stroke-linecap="round" stroke-linejoin="round"></line>
            <line x1="333.915" y1="1.5" x2="333.085" y2="1.5" id="Path" stroke="#000000" stroke-width="2" stroke-linecap="round" stroke-linejoin="round"></line>
            <line x1="262.91" y1="430.5" x2="262.09" y2="430.5" id="Path" stroke="#000000" stroke-width="2" stroke-linecap="round" stroke-linejoin="round"></line>
            <line x1="221.5" y1="226.09" x2="221.5" y2="226.91" id="Path" stroke="#000000" stroke-width="2" stroke-linecap="round" stroke-linejoin="round"></line>
            <line x1="307" y1="417.635" x2="305" y2="417.365" id="Path" stroke="#000000" stroke-width="2" stroke-linecap="round" stroke-linejoin="round"></line>
            <line x1="223" y1="48.635" x2="221" y2="48.365" id="Path" stroke="#000000" stroke-width="2" stroke-linecap="round" stroke-linejoin="round"></line>
            <line x1="215.36" y1="421" x2="215.64" y2="422" id="Path" stroke="#000000" stroke-width="2" stroke-linecap="round" stroke-linejoin="round"></line>
        </g>
    </g>
</svg>