<?xml version="1.0" encoding="UTF-8"?>
<svg width="700px" height="700px" viewBox="0 0 700 700" version="1.1" xmlns="http://www.w3.org/2000/svg" xmlns:xlink="http://www.w3.org/1999/xlink">
    <title>Artboard</title>
    <g id="Artboard" stroke="none" stroke-width="1" fill="none" fill-rule="evenodd">
        <g id="guvuk-acc-Asset-1" transform="translate(0.000000, 37.000000)">
            <path d="M341.795044,152.614739 C341.326189,148.16062 338.363027,145.347492 334.884126,142.534364 C330.945747,144.409782 328.207636,143.293908 326.566644,138.971068 C325.96651,137.38634 324.306765,136.15794 323.125251,134.826393 C317.498995,128.262428 311.872739,121.801611 306.312123,115.228269 C301.295378,109.311323 296.381782,103.300606 290.671132,96.4271969 C290.961822,98.7339618 291.121232,100.065509 291.35566,101.922173 L286.667113,101.096989 C286.507703,98.855864 286.367046,96.942937 286.170127,94.2610884 L282.091092,96.5866075 C280.262559,92.0856028 278.237106,87.6877461 271.569993,87.8002713 L280.06564,100.506232 L278.602813,101.603352 C276.024113,98.4151406 273.670462,95.0393871 270.801072,92.0856028 C267.931681,89.1318185 264.349632,86.5437408 260.111186,82.9710683 C261.667783,91.1385164 269.385131,93.4077729 271.673141,99.3809812 L270.632284,100.440593 L255.497656,86.8250536 C255.150703,89.1505727 255.00067,90.1632987 254.728734,92.001209 L242.979236,81.4801105 L235.711989,85.9811152 C236.03081,87.5845981 236.312123,89.0286704 236.602813,90.5196282 C230.629605,91.6542565 226.334896,84.6589451 219.949096,87.8659109 C220.239786,89.3756229 220.539853,90.9791058 221.121232,94.0266611 L210.103148,82.7741493 L208.959143,83.7118587 L211.481581,88.5691929 L205.358339,91.0447455 C205.949096,94.7111889 206.605492,98.4620261 207.233758,102.212863 L205.930342,102.831751 L201.795044,99.8217046 L198.616209,102.634833 L201.795044,106.582589 C193.927662,108.326728 190.880107,114.90007 187.598125,120.582589 C182.215673,129.903419 177.883456,139.843138 173.223041,149.576561 C172.810449,150.44863 173.598125,151.873948 173.223041,152.783526 C172.782317,153.843138 171.67582,154.658945 170.794374,155.596654 C170.344273,151.7708 169.800402,148.38567 169.61286,144.972408 C169.532984,142.710135 169.702798,140.445951 170.119223,138.220901 C170.625586,135.342133 171.694575,132.594645 172.060281,129.668992 C172.248047,127.344861 172.269983,125.010306 172.125921,122.683058 C174.601474,117.328737 177.339585,113.043406 178.511721,108.364236 C179.449431,104.613399 178.511721,100.346822 178.408573,96.3052947 C178.508706,95.7473599 178.64337,95.1961776 178.811788,94.6549263 C181.015405,92.9576725 183.866042,90.7915639 186.688547,88.57857 C193.496316,83.2617582 193.946417,81.4519792 190.345613,73.1626289 L193.787006,68.1083757 C193.243135,66.4580074 192.614869,64.5732116 191.733423,61.9194943 C192.671132,61.1693268 194.368386,60.4472907 195.081045,59.1907602 C198.203617,53.7051607 202.545211,50.4513094 209.109176,49.701142 C210.890824,49.5136001 212.64434,47.1130643 214.013396,45.4158104 C217.164099,41.5336939 220.286671,39.2081748 226.072338,39.5363731 C231.858004,39.8645713 237.821835,38.4017448 242.407234,33.9851339 C243.378202,33.0223482 244.450277,32.1672035 245.604823,31.4345646 C255.056932,25.6020127 264.152713,18.9911621 274.12994,14.1619591 C284.444742,9.18272269 295.068989,4.55981579 307.315472,5.52565638 C313.504354,6.01326522 319.8714,3.50020427 326.154052,3.48145008 C335.531145,3.48145008 344.58004,-0.935160766 353.563295,0.180713313 C364.337575,1.53101472 375.336906,-0.184993318 385.970529,3.31266241 C392.609511,5.4975251 399.717348,6.28520092 406.600134,7.61674814 C416.70864,9.55780641 422.438044,17.0594809 427.689216,24.7580743 C429.986604,28.1338278 431.908908,30.6750201 436.034829,31.8846651 C439.073007,32.7754889 441.529806,35.5886169 444.25854,37.5109209 L452.116544,43.1371768 C463.012726,41.6743503 473.777629,40.2677863 484.533155,38.7486972 C489.118553,38.1016778 495.026122,40.239655 501.411922,45.4064333 C500.271986,45.6428461 499.114865,45.7870942 497.951775,45.8377796 C496.488626,45.6209651 495.041402,45.3077131 493.619558,44.9000703 C498.101808,50.104357 502.649699,52.9831246 507.244474,55.8618921 C509.038377,57.1474842 510.702849,58.6046822 512.214334,60.2128633 C512.692565,60.6629638 512.80509,61.5631648 513.320831,61.9194943 C520.728734,67.0862726 524.470194,75.4975251 530.855995,81.6113898 C535.591427,86.1405258 539.48292,91.1666477 541.67716,97.7962525 C544.152713,105.297927 548.35365,112.208845 551.991962,119.719896 C550.116544,122.364236 550.969859,125.186741 551.391829,128.412461 C552.404555,136.232957 554.814468,143.734632 555.442733,151.723915 C556.070998,159.713198 557.036839,167.664973 556.464836,175.888684 C556.089752,181.243004 557.06497,186.784866 558.077696,192.111055 C558.780978,195.796252 560.600134,199.275154 562.269257,203.823044 C560.159411,208.136507 558.021433,213.509581 561.500335,219.501544 C562.438044,221.048764 561.762894,223.505563 561.781648,225.549769 C561.875419,234.439253 561.54722,243.366246 562.175486,252.199467 C562.606832,258.378972 565.12927,264.389689 563.58205,270.756735 C563.522478,271.214107 563.604283,271.678756 563.816477,272.088282 C569.442733,285.216212 567.736102,298.719226 565.532485,312.22224 C565.251172,313.947626 565.007368,316.132488 565.804421,317.48279 C569.142666,323.165308 568.430007,329.344812 568.786336,335.439923 C569.142666,341.535033 569.874079,347.630144 570.277294,353.725255 C570.511721,357.279173 570.41795,360.861222 570.464836,364.433895 C570.464836,366.703151 569.817816,369.272475 570.652378,371.185402 C572.687207,375.873948 572.077696,380.44997 571.815137,385.251042 C571.449431,392.011926 572.087073,398.838449 571.468185,405.561825 C570.408573,417.011256 568.711319,428.413801 567.135968,441.016614 C565.410583,438.991162 564.519759,437.940928 562.550569,435.64354 C561.706631,442.413801 561.040857,447.833761 560.215673,454.397726 L565.64501,450.750037 C564.125921,461.505563 562.747488,471.248362 561.153382,482.519628 C557.899531,477.193439 560.590757,473.330077 560.553248,469.541731 C560.553248,465.528336 560.975218,461.51494 561.228399,457.41715 C557.749498,460.57723 557.702612,460.774149 558.790355,467.31936 L554.233088,476.537043 L557.561956,478.618758 C555.255191,496.93222 551.091762,514.67368 543.083724,531.993171 C548.634963,532.105697 547.931681,523.853855 554.336236,525.644879 C550.660415,536.22224 546.965841,546.855864 543.083724,557.90208 C546.834561,557.995851 547.725385,555.173346 548.606832,553.279173 C552.357669,545.092971 556.389819,536.925522 559.240455,528.392368 C561.509712,521.593975 562.231748,514.326728 563.647689,507.209514 C564.766887,501.039509 566.222508,494.935293 568.008038,488.924183 C569.883456,512.366916 566.882786,535.247023 561.444072,557.939588 L562.850636,558.614739 C563.647689,557.330077 564.819826,556.129809 565.157401,554.732622 C567.332887,545.946286 569.377093,537.122441 571.346283,528.28922 C571.880777,525.86993 571.674481,523.038048 575.978567,523.778838 C577.038178,527.107706 578.744809,530.464705 579.082384,533.952984 C579.907569,542.392368 584.933691,548.590626 589.706631,554.929541 C592.03215,558.014605 594.310784,560.940258 595.229739,564.916145 C596.383121,569.942267 600.312123,572.689756 604.822505,574.855864 C613.215003,578.86926 621.523108,583.06082 629.784327,587.346152 C631.340924,588.152582 632.409913,589.859213 633.900871,590.871939 C636.713999,592.747358 639.442733,595.101008 642.574682,596.123111 C649.663764,598.439253 656.771601,600.445951 664.554588,600.19277 C670.818486,599.986474 677.176155,601.524317 683.430676,602.668322 C687.181514,603.343473 689.732083,605.969059 691.954454,609.072877 C694.411253,612.51427 697.299397,615.636842 700,618.937579 L700,687.305964 L0,687.305964 L0,613.442602 C8.3217837,607.774258 14.8331403,599.827147 18.7541862,590.553118 C19.8521158,588.348121 21.6219249,586.548761 23.8084394,585.414471 C27.2785945,583.703293 30.8818368,582.276421 34.5827194,581.147893 C50.0830543,575.859213 65.6959143,570.889354 81.083724,565.291229 C90.3858004,561.906098 99.2283992,557.245683 108.492967,553.757405 C114.283558,551.70417 120.246117,550.172734 126.309444,549.181383 C133.256326,548.098018 139.936848,545.715298 146.00134,542.15794 C151.627595,538.744678 157.882117,536.531685 163.817816,533.606031 C167.231078,531.936909 170.550569,530.905429 174.132619,533.793573 C178.005358,525.457338 186.454119,524.41648 192.886805,520.412461 C194.77441,519.211695 196.767461,518.185352 198.841259,517.346152 C202.376423,515.977096 205.930342,514.148563 209.606162,513.792234 C215.020552,513.146652 220.209418,511.245781 224.759545,508.240995 C226.044206,507.443942 227.572672,506.009246 227.769591,504.715208 C228.594776,498.076226 233.836571,494.240995 237.315472,488.839789 C236.765912,487.220047 236.11768,485.635478 235.374414,484.09498 C230.779638,475.749367 225.734762,467.638181 221.533825,459.105027 C215.344943,446.539722 209.746818,433.693104 203.904889,420.968389 C203.520429,420.143205 202.882786,419.261758 202.96718,418.445951 C203.070328,416.758074 203.042197,414.423178 204.0643,413.626125 C205.086403,412.829072 207.35566,413.626125 208.855995,414.226259 C215.973208,417.189421 220.108506,423.912796 226.222371,428.188751 C228.397857,429.70784 230.526457,431.292569 232.992632,433.074216 C233.114534,433.824384 233.320831,435.109046 233.61152,436.825054 L248.48359,438.044076 L252.956463,434.208845 C252.656397,439.047425 252.440723,442.573212 252.206296,446.399066 L259.707971,453.103687 C262.924313,453.103687 266.834561,453.957003 268.550569,459.170666 C269.488279,461.983794 272.526457,462.752716 275.45211,462.415141 C284.472873,461.364906 293.465506,459.977096 302.514401,459.236306 C306.561979,458.887035 310.639463,459.2456 314.563965,460.295918 C319.137229,461.746793 324.063713,461.631303 328.563965,459.967719 C332.239777,458.752005 336.001013,457.811696 339.816477,457.154591 C341.349918,456.939183 342.905943,456.939183 344.439384,457.154591 C346.830543,457.342133 349.202947,457.801611 351.584729,457.886005 C365.340924,458.392368 378.909578,454.99786 392.675151,455.879307 C395.310114,456.048094 397.926323,456.432555 400.711319,456.741999 C400.345613,457.810988 400.270596,458.476762 400.073677,458.51427 C390.696584,460.305295 381.385131,462.133828 372.008038,463.756065 C366.860013,464.637512 361.599464,464.937579 356.470194,465.884665 C350.665774,466.963031 344.898861,468.313332 339.197589,469.851175 C327.823175,472.917485 316.204956,472.495516 304.605492,472.664303 C300.538162,472.707585 296.492647,473.265261 292.565305,474.324049 C289.030141,475.308644 285.879437,475.533694 282.747488,473.602013 C276.77428,469.926192 270.407234,467.778838 263.308774,468.54776 C257.410583,469.194779 254.250502,465.19076 251.071668,461.186741 C246.204956,463.999869 242.247823,460.896052 238.084394,459.677029 C235.590087,465.940928 237.062291,470.179374 243.185532,475.524317 C246.93637,478.768791 250.61219,482.032019 253.987944,485.595315 C258.188881,490.011926 259.239116,496.003888 261.264568,501.536373 C265.99039,514.648055 274.352738,526.142624 285.373074,534.67502 C288.598794,537.197458 291.824514,539.729273 294.862693,542.467384 C299.907569,546.987143 305.51507,550.044076 312.416611,550.550439 C314.648359,550.719226 316.814468,551.685067 319.046216,552.116413 C321.70931,552.622776 324.48493,553.551108 327.073007,553.22291 C332.971199,552.48212 338.588078,553.372944 344.411253,553.944946 C350.87207,554.573212 357.698593,551.769461 364.337575,550.325388 C366.550569,549.83778 368.660415,548.318691 370.817147,548.309313 C380.738111,548.309313 387.583389,542.307974 394.831882,536.775489 C400.701942,532.283861 405.221701,526.807639 409.685198,520.975087 C413.436035,516.042736 418.846618,512.310653 423.694575,508.250372 C427.701825,504.791781 432.135799,501.861009 436.888145,499.529675 C436.438044,500.570532 436.241125,501.883326 435.490958,502.605362 C431.205626,506.684397 426.751507,510.557137 422.447421,514.608041 C418.987274,517.852515 415.705291,521.293908 412.254521,524.557137 C403.815137,532.499534 395.535164,540.563835 386.880107,548.243674 C382.013396,552.557137 379.087743,557.461356 378.797053,564.006567 C378.506363,570.551778 378.009377,577.012595 377.559277,584.176695 C375.974548,585.301946 373.808439,586.877297 371.417281,588.574551 L374.455459,597.070198 L370.338915,601.608711 C376.237106,605.668992 382.997991,605.7065 389.458808,606.212863 C401.717794,607.175578 414.001786,607.772586 426.310784,608.003888 C434.099281,608.138876 441.778975,606.162246 448.534494,602.283861 C456.814468,597.595315 465.610181,593.760084 472.230409,586.342803 C477.669123,580.285201 480.979236,574.152582 480.229069,565.525656 C479.51641,557.245683 478.541192,549.134498 474.74347,541.764102 C466.932351,526.629474 462.834561,510.341463 458.802411,493.940928 C457.480241,488.502214 455.473543,483.22291 453.635633,477.41849 C467.541862,457.389019 473.974548,433.918155 478.137977,409.83778 C480.951105,393.718557 482.282652,377.355529 483.970529,361.076895 C484.908238,352.262428 485.273945,343.391698 485.686537,334.530345 C485.723111,331.569764 485.50665,328.611471 485.039518,325.687746 C483.586068,313.975757 477.687877,304.851845 468.460817,297.753386 C463.453449,293.899401 460.630944,294.246353 454.80777,297.050104 C450.882668,298.75813 446.698525,299.794656 442.430007,300.116413 C439.101139,300.463366 437.075687,301.926192 435.134628,304.364236 C433.477678,306.300582 431.555071,307.99273 429.423979,309.390358 C424.079035,321.364906 395.74146,333.498865 385.229739,321.796252 L398.760884,320.380311 L395.206966,314.754056 C402.539853,313.572542 409.272605,311.425188 415.264568,316.348161 C419.202947,313.460017 419.202947,313.460017 418.61219,308.949635 C413.309975,307.991689 407.867097,308.138535 402.624246,309.380981 C393.32217,311.650238 389.271266,309.840459 384.132619,301.419829 C383.233796,300.269042 382.249541,299.187615 381.188212,298.184732 C379.415941,300.163299 377.559277,301.673011 376.499665,303.614069 C375.064357,306.528402 372.115032,308.390752 368.866711,308.433895 C365.115874,308.668322 361.468185,309.371604 357.764233,309.849836 C357.511052,309.409113 357.267247,308.959012 357.023443,308.518289 L363.324849,300.613399 L357.904889,302.488818 C364.543871,289.754725 374.127261,281.137177 388.305425,278.689756 C392.979249,277.900589 397.694156,277.377754 402.427328,277.123781 C407.762894,276.823714 413.126591,277.123781 418.45278,276.814337 C427.25787,276.307974 435.012726,278.980445 442.083054,283.987813 C444.389819,285.628804 446.621567,287.35419 449.022103,284.484799 C447.718687,279.796252 447.081045,274.985804 445.018084,270.859883 C442.93589,266.871752 440.120479,263.311927 436.719357,260.366916 C432.649699,256.775489 427.904889,253.906098 423.272605,250.989822 C418.640322,248.073547 413.895512,246.413801 408.363027,247.876628 C406.890824,248.270465 405.221701,247.93289 403.533825,247.93289 C399.276624,237.880646 389.468185,234.420499 380.091092,228.475422 L386.833222,228.475422 C377.240455,218.957672 369.457468,209.111725 357.754856,201.67569 L363.568654,200.897391 L349.503014,185.959682 L350.834561,182.377632 C349.118553,177.454658 342.563965,176.413801 343.089082,169.906098 L359.489618,185.847157 C361.561956,181.721236 359.142666,180.295918 357.6142,178.551778 C350.112525,169.962361 344.345613,159.96638 336.046885,152.033359 C335.109176,151.161289 334.724715,149.754725 334.809109,147.644879 L342.029471,152.427197 C342.179504,155.971738 344.608171,157.359548 347.29002,158.503553 C346.849781,157.198213 346.061989,156.037598 345.011386,155.146554 C343.961152,154.25573 342.854655,153.468054 341.795044,152.614739 Z M399.370395,30.9469558 C391.671802,25.2081748 391.249833,25.0112558 386.167448,25.3957167 C390.752847,27.9744173 394.428667,31.0219725 399.529806,30.7781681 C400.889484,32.7754889 402.249163,34.7821869 404.133958,37.5390522 C399.670462,36.713868 395.750837,32.7098493 391.5499,37.3515104 C402.455459,47.7600837 415.264568,55.3273978 427.332887,64.7044909 C421.987944,67.4050938 421.331547,61.7975921 418.021433,61.2537207 C415.086403,60.7754889 412.45144,58.4405928 408.409913,56.2088446 L414.720697,64.6482284 C407.32217,61.7319524 403.8714,55.346152 397.082384,54.2209009 C398.447466,56.5249017 400.172832,58.5953411 402.1929,60.3535197 C404.237106,62.1726758 407.434695,63.101008 406.881447,67.3113228 C401.255191,62.7728098 396.707301,57.3434729 388.567984,57.5779002 C388.905559,60.1847321 389.158741,62.1257903 389.327528,63.4385834 C400.251842,64.9295412 405.868721,73.4064333 414.308104,80.4767615 L412.376423,73.678369 L417.121232,75.5537877 C416.755526,73.4814501 416.474213,71.859213 415.911587,68.633493 C422.475553,73.9409276 422.475553,81.3863396 427.820496,86.1030174 C432.509042,90.2289384 434.918955,97.1117247 441.173476,100.440593 L435.359678,91.2322873 L435.987944,90.8384494 L441.951775,95.6488982 L442.664434,94.9549933 L428.701942,71.3997354 L432.105827,68.136507 C444.099129,78.6763597 451.975887,92.1512424 461.596785,103.825723 L468.751507,102.259749 C466.38848,98.0588111 464.381782,94.3454822 462.243804,90.7071701 C458.492967,84.2744842 450.569324,80.5611554 449.847287,71.9529839 C449.791025,71.3434729 447.596785,70.9308808 447.034159,70.7152076 C446.09645,67.8270629 445.252512,65.4546584 444.427328,63.0353684 C451.403885,65.6515773 455.107837,73.0125954 462.243804,75.3474916 C458.614869,69.7212358 454.245144,64.7888848 450.681849,59.3314166 C446.780978,53.3582083 440.817147,50.0856028 435.331547,46.2034863 C433.606162,44.9750871 431.008707,44.9844642 429.245814,43.7935733 C424.004019,40.2302779 418.977897,36.2918988 413.867381,32.5410616 L413.342264,33.788215 C410.651038,33.3006061 407.941058,32.8505057 405.25921,32.3066343 C403.318151,31.9409276 401.339585,31.3970562 399.370395,30.9469558 Z M345.920965,76.2101842 C345.564635,73.6221065 344.298727,71.9248526 341.007368,71.2121936 C341.804421,74.475422 343.379772,75.9007401 346.099129,76.0320194 C347.80576,79.7828566 353.600804,82.2865405 349.334226,87.5377126 C353.169457,90.6602846 355.785666,94.1016778 356.948426,98.5933054 L345.480241,88.1472237 C345.770931,85.6810482 348.987274,82.5209678 344.073677,81.3488312 C343.876758,82.4928366 343.679839,83.646219 343.426658,85.0996684 L336.984595,78.5357033 L330.017415,78.1418654 C332.042867,80.8799765 333.571333,83.0554621 335.221701,85.1465539 C337.040857,87.4533188 339.403885,89.4412625 340.763563,91.9824548 C344.917616,99.7466879 350.29069,106.535703 356.066979,113.109046 C359.770931,117.328737 363.446752,121.754725 359.874079,128.796922 L365.434695,127.859213 C369.635633,133.532354 373.874079,139.439923 378.300067,145.150573 C381.038178,148.657605 384.151373,151.883326 387.09578,155.230948 C387.405224,158.681718 389.215003,161.316681 391.671802,163.567184 C391.462554,160.247537 389.705308,157.219239 386.926993,155.390358 L387.817816,153.655596 C392.253182,155.35285 392.506363,161.232287 397.429337,163.12646 C395.685198,158.569193 394.428667,154.687076 392.74079,150.936239 C391.268587,147.785536 389.261889,144.888014 387.489618,141.877967 L388.352311,141.259079 L394.475553,147.823044 C394.475553,140.883995 388.005358,137.020633 388.024113,130.616078 C390.230587,132.211216 392.135687,134.186169 393.650368,136.44863 C395.797723,139.899401 397.326189,143.725255 399.48292,147.157271 C401.011386,149.576561 402.755526,152.783526 405.109176,153.552448 C409.563295,155.090291 411.335566,158.090961 413.32351,161.86993 C415.874079,166.764772 418.180844,172.184732 423.985265,174.48212 C425.804421,177.782857 427.626702,181.080468 429.45211,184.374953 C429.639652,179.761423 428.955124,175.682388 423.825854,174.669662 C423.703952,173.441263 423.891494,172.06283 423.375754,171.021973 C422.513061,169.249702 421.012726,167.786875 420.140656,166.023982 C418.45278,162.620097 417.374414,158.888014 415.45211,155.709179 C409.666443,146.182053 403.346283,136.954993 397.729404,127.362227 C395.219654,122.790837 391.902928,118.711645 387.939719,115.32204 C384.188881,112.208845 379.640991,108.908108 379.350301,103.572542 C379.087743,98.9496349 376.143336,97.4117917 373.067649,95.5832585 C371.736102,94.7862056 370.104488,94.5142699 368.726055,93.7922337 C361.955794,90.2289384 356.723376,85.0152746 351.509712,79.7078399 C349.990623,78.1981279 347.768252,77.3448124 345.874079,76.1820529 L345.920965,76.2101842 Z M245.361018,501.433225 C244.695244,507.537713 243.785666,512.488818 245.520429,517.233627 C249.046216,526.892033 253.603483,535.987813 261.264568,543.208175 C262.761016,544.622663 264.100329,546.194626 265.25921,547.896721 C270.801072,555.942267 279.202947,559.908778 287.764233,563.631484 C288.814468,564.090961 290.408573,563.275154 291.280643,563.134498 C289.817816,558.445951 288.561286,554.451309 286.995311,549.462696 C285.500502,548.001356 284.091579,546.454672 282.77562,544.830412 C281.172137,542.720566 278.790355,540.38567 278.734092,538.097659 C278.61219,532.968389 275.236437,531.111725 271.766912,528.954993 C270.422986,528.256523 269.177503,527.383108 268.06296,526.357538 C260.683188,518.368255 253.453449,510.341463 245.361018,501.433225 Z M352.888145,146.519628 C357.848627,147.616748 358.336236,153.252381 363.606162,153.027331 C362.973841,151.873951 362.236158,150.781552 361.402545,149.764102 C350.150033,138.961691 341.448091,125.702482 328.095111,116.991162 C323.809779,114.178034 320.396517,110.070867 315.642331,105.682388 C316.083054,108.036038 316.889484,109.592636 316.42063,110.295918 C313.841929,114.178034 316.233088,116.616078 318.567984,119.166648 C322.093771,123.001879 325.657066,126.808979 329.135968,130.691095 C330.767582,132.510251 332.03349,134.704491 333.824514,136.317351 C337.987944,140.068188 342.376423,143.640861 346.361688,147.007237 C346.77428,153.993171 346.77428,153.993171 352.541192,153.843138 C356.995311,159.750707 361.308774,166.399066 366.606832,172.156601 C370.723376,176.629474 374.558607,181.786875 381.263228,183.559146 L352.888145,146.519628 Z M403.261889,118.013265 L404.574682,116.691095 C390.584059,100.543741 380.091092,80.9549933 359.255191,71.4935063 C364.628265,78.3669156 370.45144,84.8183556 376.434025,91.1197622 C382.885466,97.9087776 387.067649,106.957672 396.407234,110.952314 C398.095111,111.67435 399.098459,113.943607 400.486269,115.443942 C401.339585,116.362897 402.333557,117.15995 403.261889,118.013265 L403.261889,118.013265 Z M567.107837,568.413801 L565.026122,568.09498 C562.653717,577.425188 560.459478,586.802281 557.843269,596.066849 C556.239786,601.693104 558.002679,606.466045 560.656397,612.007907 L567.951775,603.568523 L563.563295,600.342803 C564.744809,589.66542 565.926323,579.022419 567.107837,568.413801 Z M398.45144,99.5028834 C395.835231,93.0326892 394.259879,86.1030174 388.821165,81.3206999 C388.146015,80.720566 387.377093,79.7453483 386.655057,79.7547254 C381.900871,79.7547254 379.725385,76.0038881 376.799732,73.3314166 C374.924313,71.5966544 372.983255,69.8994005 371.070328,68.1833925 C376.087073,82.3615573 389.683858,88.6348325 398.45144,99.5028834 Z M436.475553,208.57723 L401.977227,157.83778 C405.006028,168.883995 424.632284,200.466045 436.475553,208.57723 Z M304.202277,104.266447 C306.38714,100.140526 305.833891,97.9931715 302.664434,95.6395211 C300.208235,93.7570327 297.857294,91.7410466 295.622237,89.6006731 C292.443403,86.6187575 289.38647,83.5055626 286.245144,80.4580074 C286.638982,82.8960516 288.176825,84.2088446 289.189551,85.8967214 C292.283992,91.0072371 295.669123,95.6957836 300.985934,98.855864 C302.439384,99.6998024 302.955124,102.053453 304.202277,104.266447 Z M333.618218,101.744009 C328.395177,91.4292063 323.303416,86.2155425 315.6142,83.8150067 C319.308774,87.3407937 321.990623,90.3789719 325.16008,92.7982619 C328.329538,95.2175519 327.879437,101.275154 333.618218,101.744009 L333.618218,101.744009 Z M469.145345,112.602683 L467.635633,113.540392 L479.67582,134.273145 C480.54789,123.986474 472.221031,119.663634 469.145345,112.602683 L469.145345,112.602683 Z M412.066979,118.472743 C412.263898,112.152582 409.385131,108.889354 402.117883,106.432555 C405.090422,110.699133 406.965841,115.247023 412.066979,118.472743 L412.066979,118.472743 Z M377.287341,51.7734796 L385.670462,55.2336269 C384.573342,51.0608205 382.341594,49.701142 377.287341,51.7734796 Z M355.269926,117.985134 C353.67582,115.559593 352.078589,113.1278 350.478232,110.689756 C349.70931,114.684397 351.472204,117.009916 355.269926,117.985134 Z M371.99866,141.1278 L370.45144,142.065509 L375.880777,150.232957 L377.118553,149.473413 L371.99866,141.1278 Z M424.594776,29.7279337 L425.082384,28.1900904 L417.186872,24.5330241 L416.596115,25.8739484 L424.594776,29.7279337 Z M567.557937,622.510251 C569.808439,618.262428 569.808439,618.262428 567.895512,615.092971 C567.77361,617.709179 567.689216,619.537713 567.557937,622.510251 Z M488.790355,42.4151406 C486.980576,42.4151406 486.052244,42.2182217 485.273945,42.4807803 C484.495646,42.7433389 484.101808,43.4184896 483.276624,44.15928 C485.986604,46.1847321 487.196249,45.0125954 488.809109,42.4151406 L488.790355,42.4151406 Z M556.305425,575.596654 L554.64568,574.658945 L551.363697,580.285201 L552.601474,581.035368 L556.305425,575.596654 Z M384.648359,9.25773944 C386.945747,12.1646383 386.945747,12.1646383 390.527796,11.6488982 L384.648359,9.25773944 Z M433.662425,288.001209 C432.09645,284.662964 431.018084,283.537713 427.661085,285.506902 L433.662425,288.001209 Z M546.947086,466.597324 L548.034829,466.766112 C548.509935,464.821928 548.991293,462.887121 549.478902,460.961691 L547.978567,460.652247 C547.622237,462.630814 547.294039,464.618758 546.947086,466.597324 Z" id="Shape" fill="#000000" fill-rule="nonzero"></path>
            <path d="M261.367716,312.981785 L258.057602,308.621437 C253.631614,311.978436 254.100469,318.936239 247.555258,319.873948 C242.585399,320.567853 237.803081,322.687076 232.167448,324.374953 L232.167448,327.263098 C240.222371,324.656266 246.139317,327.919494 251.77495,332.598664 C253.237776,333.808309 255.525787,333.995851 258.038848,334.858543 C246.233088,343.110385 234.146015,347.161289 220.1929,342.275824 C218.711319,341.760084 217.023443,341.778838 215.569993,341.197458 C211.631614,339.612729 208.377763,337.362227 207.927662,332.570532 C207.365037,326.625455 204.120563,322.99652 198.681849,320.380311 C194.180844,318.22358 190.345613,314.697793 186.004019,311.640861 L190.298727,303.304625 L188.217013,299.919494 C188.498326,299.45064 188.638982,298.850506 188.957803,298.737981 C190.230033,298.45589 191.482879,298.092565 192.70864,297.650238 C197.594106,295.155931 201.813798,291.189421 207.955794,291.536373 C208.987274,291.592636 210.140656,289.595315 211.144005,288.648228 C220.643001,289.473413 229.982585,287.391698 240.400536,286.407103 C235.074347,281.981115 230.638982,278.520968 226.503684,274.723245 C225.397187,273.710519 224.365707,271.375623 224.815807,270.250372 C225.265908,269.125121 227.469524,268.262428 229.054253,267.709179 C230.155632,267.389949 231.331157,267.439341 232.401875,267.849836 C241.488279,271.31936 251.249833,270.015944 260.533155,271.863232 C269.507033,273.654257 278.874749,275.107706 286.592096,280.658945 C288.654849,282.323634 290.199996,284.542141 291.046216,287.054123 C292.060139,290.060213 292.610318,293.203193 292.67783,296.374953 C293.043537,305.301946 292.302746,306.089622 282.972539,308.274484 C279.756196,305.798932 276.342934,303.510921 271.485599,305.367585 C269.844608,305.995851 267.359678,304.429876 263.852646,303.492167 L274.748828,314.725924 C272.45144,317.670332 270.463496,316.873279 268.137977,315.522977 C266.431346,314.529005 264.434025,314.135167 261.367716,312.981785 Z" id="Path" fill="#000000" fill-rule="nonzero"></path>
            <path d="M182.375084,359.454658 C180.565305,357.279173 179.843269,356.097659 178.830543,355.253721 C170.663094,348.380311 171.22572,339.228269 171.263228,329.748027 C171.263228,321.308644 169.519089,312.794243 171.8071,304.364236 C169.059612,289.886005 165.927662,275.464035 163.705291,260.910787 C162.073677,250.220901 161.661085,239.343473 160.667113,228.569193 C160.498326,226.768791 160.479571,224.818356 159.729404,223.22425 C155.912927,214.784866 158.172806,206.486139 160.395177,198.243674 C160.779638,196.808979 162.139317,195.655596 162.983255,194.324049 C165.918285,189.729273 167.240455,184.946956 165.35566,179.498865 C163.724046,174.810318 166.133958,170.403084 167.156062,165.977096 C167.624916,163.961021 169.415941,162.226259 170.663094,160.350841 C170.663094,165.752046 171.281983,171.087612 170.541192,176.226259 C168.309444,191.782857 170.77562,207.03001 172.669792,222.35218 C174.376423,236.098999 176.42063,249.827063 177.583389,263.61139 C179.29002,283.303285 180.490288,303.051443 181.690556,322.790224 C182.337575,333.451979 182.534494,344.141865 182.890824,354.812997 C182.810879,356.369057 182.638663,357.919002 182.375084,359.454658 L182.375084,359.454658 Z" id="Path" fill="#000000" fill-rule="nonzero"></path>
            <path d="M275.358339,410.531685 C282.522438,408.853185 288.64568,409.125121 293.174816,415.032689 C297.347622,420.527666 303.442733,420.902749 308.58138,418.783526 C315.961152,415.764102 322.693905,416.701812 330.148694,419.055462 C337.650368,411.253721 347.027461,409.509581 358.336236,411.8351 C357.098459,413.794913 356.51708,415.651577 355.260549,416.523647 C351.718495,418.957989 348.053452,421.208344 344.279973,423.265777 C341.316812,424.9349 338.231748,426.378972 335.156062,427.823044 C331.808439,429.389019 330.101808,431.873948 329.295378,435.5779 C328.563965,438.916145 328.601474,443.726594 324.100469,444.298597 C319.074347,444.936239 313.673141,445.133158 308.80643,443.970399 C296.616209,441.072877 290.783657,430.67368 284.154052,421.362227 C282.88019,419.798341 281.491669,418.331461 280,416.973747 C278.74347,415.660954 277.411922,414.413801 276.249163,413.044745 C275.808439,412.594645 275.780308,411.853855 275.358339,410.531685 Z" id="Path" fill="#000000" fill-rule="nonzero"></path>
            <path d="M349.887475,289.379642 L349.887475,299.525656 L346.371065,302.826393 L339.685198,299.413131 C338.531815,293.693104 335.212324,288.488818 335.77495,281.999869 C336.337575,275.510921 338.588078,272.060151 345.011386,270.034699 C347.112526,269.219529 349.116021,268.172176 350.984595,266.912127 C359.170797,262.101678 367.366376,257.488148 377.381112,257.760084 C379.434695,257.825723 381.535164,256.437914 383.616879,255.725255 C384.657736,261.735971 383.616879,263.367585 375.533825,268.487478 C374.342934,274.601343 370.301407,278.080244 364.384461,280.105697 C361.927662,280.949635 359.883456,283.012595 357.670462,284.569193 C355.457468,286.12579 353.394508,287.644879 351.265908,289.1921 L349.887475,289.379642 Z" id="Path" fill="#000000" fill-rule="nonzero"></path>
            <path d="M344.251842,491.831082 C336.459478,498.395047 328.245144,503.618088 317.995981,502.567853 C315.286001,502.295918 312.604153,500.692435 310.166109,499.304625 C309.434695,498.882656 309.565975,496.99786 309.294039,495.760084 L344.251842,491.831082 Z" id="Path" fill="#000000" fill-rule="nonzero"></path>
            <path d="M422.653717,442.216882 C419.146685,448.555797 417.824514,449.474752 413.351641,446.699133 C409.020164,443.881061 405.076385,440.507885 401.620898,436.665643 C399.135968,434.011926 397.626256,430.44863 395.610181,427.176025 C398.526457,425.656936 400.017415,427.372944 401.236437,428.845147 C404.884126,433.205496 409.910248,435.240325 414.842599,437.54709 C417.524586,438.968843 420.131731,440.527496 422.653717,442.216882 L422.653717,442.216882 Z" id="Path" fill="#000000" fill-rule="nonzero"></path>
            <path d="M368.876088,392.762093 C372.326859,397.45064 380.1286,396.672341 379.106497,404.586607 C373.048895,401.595315 370.132619,398.425857 368.876088,392.762093 Z" id="Path" fill="#000000" fill-rule="nonzero"></path>
            <path d="M267.303416,413.626125 C268.541192,409.603352 264.537173,404.539722 270.116544,400.788885 C270.77294,405.899401 272.301407,410.391028 267.303416,413.626125 Z" id="Path" fill="#000000" fill-rule="nonzero"></path>
            <path d="M573.728064,503.899401 C575.978567,509.02867 577.188212,514.15794 574.084394,519.324719 C572.593436,514.232957 574.928332,508.963031 573.728064,503.899401 Z" id="Path" fill="#000000" fill-rule="nonzero"></path>
            <path d="M294.618888,479.237646 L307.052914,484.723245 C301.595445,485.801611 298.679169,484.601343 294.618888,479.237646 Z" id="Path" fill="#000000" fill-rule="nonzero"></path>
            <path d="M551.044876,519.137177 L555.395847,513.454658 C556.333557,515.639521 556.971199,517.055462 557.890154,519.137177 L551.044876,519.137177 Z" id="Path" fill="#000000" fill-rule="nonzero"></path>
            <path d="M558.246484,498.713868 C561.331547,502.033359 559.906229,504.668322 556.952445,507.03135 L558.246484,498.713868 Z" id="Path" fill="#000000" fill-rule="nonzero"></path>
            <path d="M364.647019,108.026661 L385.154722,136.082924 L384.057602,136.889354 C375.468185,128.778168 369.19491,118.950975 363.174816,108.926862 L364.647019,108.026661 Z" id="Path" fill="#000000" fill-rule="nonzero"></path>
            <polygon id="Path" fill="#000000" fill-rule="nonzero" points="361.955794 97.4211688 358.017415 93.3046249 359.330208 91.9637006 363.446752 95.9020797"></polygon>
            <path d="M439.176155,62.294578 C434.337575,60.9536537 431.552579,57.9154755 427.876758,54.3896885 C433.090422,54.3896885 435.753516,56.3682552 439.176155,62.294578 Z" id="Path" fill="#000000" fill-rule="nonzero"></path>
            <polygon id="Path" fill="#000000" fill-rule="nonzero" points="421.331547 48.9603516 424.454119 51.4265271 423.51641 52.720566 420.318821 50.3481614"></polygon>
            <path d="M341.626256,134.61072 C344.814468,136.401745 348.237106,137.948965 349.615539,141.587277 L348.45278,142.843808 L340.632284,135.595315 L341.626256,134.61072 Z" id="Path" fill="#000000" fill-rule="nonzero"></path>
            <line x1="436.175486" y1="499.951644" x2="430.70864" y2="504.743339" id="Path" stroke="#000000" stroke-width="2" stroke-linecap="round" stroke-linejoin="round"></line>
            <line x1="416.342934" y1="517.046085" x2="414.28935" y2="518.415141" id="Path" stroke="#000000" stroke-width="2" stroke-linecap="round" stroke-linejoin="round"></line>
            <path d="M408.147354,526.620097 C402.221031,532.083817 396.297834,537.553788 390.377763,543.03001" id="Path" stroke="#000000" stroke-width="2" stroke-linecap="round" stroke-linejoin="round"></path>
            <path d="M568.12994,490.424518 C567.667336,493.156378 567.210985,495.891363 566.760884,498.629474" id="Path" stroke="#000000" stroke-width="2" stroke-linecap="round" stroke-linejoin="round"></path>
            <line x1="401.339585" y1="458.251711" x2="388.32418" y2="458.251711" id="Path" stroke="#000000" stroke-width="2" stroke-linecap="round" stroke-linejoin="round"></line>
            <path d="M172.285332,147.22291 C172.088413,150.298597 171.066309,153.177364 170.231748,156.112394" id="Path" stroke="#000000" stroke-width="2" stroke-linecap="round" stroke-linejoin="round"></path>
            <line x1="372.598794" y1="76.7634327" x2="386.270596" y2="90.4352344" id="Path" stroke="#000000" stroke-width="2" stroke-linecap="round" stroke-linejoin="round"></line>
            <line x1="405.409243" y1="115.050104" x2="406.778299" y2="117.103687" id="Path" stroke="#000000" stroke-width="2" stroke-linecap="round" stroke-linejoin="round"></line>
            <path d="M384.901541,255.884665 C382.463496,255.809648 382.941728,258.050774 382.172806,259.307304" id="Path" stroke="#000000" stroke-width="2" stroke-linecap="round" stroke-linejoin="round"></path>
            <line x1="345.255191" y1="492.431216" x2="339.094441" y2="493.800271" id="Path" stroke="#000000" stroke-width="2" stroke-linecap="round" stroke-linejoin="round"></line>
            <line x1="379.434695" y1="149.229608" x2="370.545211" y2="138.295918" id="Path" stroke="#000000" stroke-width="2" stroke-linecap="round" stroke-linejoin="round"></line>
            <line x1="170.916276" y1="160.857204" x2="168.862693" y2="166.324049" id="Path" stroke="#000000" stroke-width="2" stroke-linecap="round" stroke-linejoin="round"></line>
            <line x1="167.493637" y1="180.680378" x2="167.493637" y2="186.831751" id="Path" stroke="#000000" stroke-width="2" stroke-linecap="round" stroke-linejoin="round"></line>
            <line x1="343.886135" y1="151.967719" x2="350.722036" y2="157.434565" id="Path" stroke="#000000" stroke-width="2" stroke-linecap="round" stroke-linejoin="round"></line>
            <path d="M363.024782,108.214203 C370.095111,117.553788 377.159187,126.896498 384.217013,136.242334" id="Path" stroke="#000000" stroke-width="2" stroke-linecap="round" stroke-linejoin="round"></path>
            <line x1="252.243804" y1="336.555797" x2="257.026122" y2="334.511591" id="Path" stroke="#000000" stroke-width="2" stroke-linecap="round" stroke-linejoin="round"></line>
            <line x1="428.655057" y1="28.9121266" x2="425.926323" y2="26.1740154" id="Path" stroke="#000000" stroke-width="2" stroke-linecap="round" stroke-linejoin="round"></line>
            <line x1="404.049565" y1="37.117083" x2="397.898192" y2="33.0099163" id="Path" stroke="#000000" stroke-width="2" stroke-linecap="round" stroke-linejoin="round"></line>
            <line x1="268.681849" y1="87.7065003" x2="278.931011" y2="100.693774" id="Path" stroke="#000000" stroke-width="2" stroke-linecap="round" stroke-linejoin="round"></line>
            <path d="M565.438714,451.41581 C564.754186,452.35352 563.563295,453.178704 563.460147,454.153922 C562.41929,463.259079 561.584729,472.382991 560.647019,481.497525" id="Path" stroke="#000000" stroke-width="2" stroke-linecap="round" stroke-linejoin="round"></path>
            <path d="M395.844608,56.2651072 C398.348292,58.0842632 400.898861,59.8565338 403.346283,61.7507066 C405.081045,63.101008 406.731413,64.5638345 406.093771,67.2081748" id="Path" stroke="#000000" stroke-width="2" stroke-linecap="round" stroke-linejoin="round"></path>
            <line x1="334.996651" y1="148.554457" x2="347.299397" y2="161.541731" id="Path" stroke="#000000" stroke-width="2" stroke-linecap="round" stroke-linejoin="round"></line>
            <line x1="387.639652" y1="130.090961" x2="395.844608" y2="144.409782" id="Path" stroke="#000000" stroke-width="2" stroke-linecap="round" stroke-linejoin="round"></line>
            <line x1="398.573342" y1="160.172676" x2="399.942398" y2="162.226259" id="Path" stroke="#000000" stroke-width="2" stroke-linecap="round" stroke-linejoin="round"></line>
            <line x1="395.844608" y1="315.363567" x2="400.626926" y2="317.41715" id="Path" stroke="#000000" stroke-width="2" stroke-linecap="round" stroke-linejoin="round"></line>
            <line x1="259.107837" y1="87.7065003" x2="270.735432" y2="99.3247187" id="Path" stroke="#000000" stroke-width="2" stroke-linecap="round" stroke-linejoin="round"></line>
            <path d="M427.295378,64.4606865 C424.182184,65.3983958 423.703952,61.8069692 421.781648,61.1599497 C417.027461,59.5658439 412.835901,57.3434729 409.432016,53.5926356 C409.141326,53.2644374 407.697254,53.9770964 406.778299,54.2021467" id="Path" stroke="#000000" stroke-width="2" stroke-linecap="round" stroke-linejoin="round"></path>
            <line x1="353.45077" y1="146.500874" x2="362.340255" y2="156.074886" id="Path" stroke="#000000" stroke-width="2" stroke-linecap="round" stroke-linejoin="round"></line>
            <path d="M417.036839,69.9275318 C416.877428,72.665643 420.506363,74.3722739 419.090422,77.4292063" id="Path" stroke="#000000" stroke-width="2" stroke-linecap="round" stroke-linejoin="round"></path>
            <path d="M342.51708,169.727934 C346.167895,174.047648 349.812458,178.376739 353.45077,182.715208" id="Path" stroke="#000000" stroke-width="2" stroke-linecap="round" stroke-linejoin="round"></path>
            <path d="M387.639652,153.336775 C389.93704,157.200137 393.575352,160.275824 394.475553,164.954993" id="Path" stroke="#000000" stroke-width="2" stroke-linecap="round" stroke-linejoin="round"></path>
            <line x1="216.723376" y1="87.7065003" x2="220.821165" y2="93.1733456" id="Path" stroke="#000000" stroke-width="2" stroke-linecap="round" stroke-linejoin="round"></line>
            <line x1="413.6142" y1="64.4606865" x2="406.778299" y2="56.959012" id="Path" stroke="#000000" stroke-width="2" stroke-linecap="round" stroke-linejoin="round"></line>
            <line x1="350.703282" y1="108.898731" x2="357.539183" y2="118.472743" id="Path" stroke="#000000" stroke-width="2" stroke-linecap="round" stroke-linejoin="round"></line>
            <path d="M270.060281,400.826393 C269.600804,402.645549 268.344273,404.736641 268.850636,406.236976 C269.957133,409.500204 268.053583,411.806969 267.32217,414.498195" id="Path" stroke="#000000" stroke-width="2" stroke-linecap="round" stroke-linejoin="round"></path>
            <path d="M294.656397,480.109715 C298.688547,481.90074 302.111186,485.248362 306.96852,484.892033" id="Path" stroke="#000000" stroke-width="2" stroke-linecap="round" stroke-linejoin="round"></path>
            <line x1="435.490958" y1="90.4352344" x2="442.992632" y2="98.6401909" id="Path" stroke="#000000" stroke-width="2" stroke-linecap="round" stroke-linejoin="round"></line>
            <line x1="361.018084" y1="298.953654" x2="358.204956" y2="301.691765" id="Path" stroke="#000000" stroke-width="2" stroke-linecap="round" stroke-linejoin="round"></line>
            <path d="M387.639652,141.034029 C389.320044,143.239496 390.884993,145.530581 392.328198,147.898061 C393.32217,149.689086 394.316142,150.917485 396.501005,150.598664" id="Path" stroke="#000000" stroke-width="2" stroke-linecap="round" stroke-linejoin="round"></path>
            <line x1="380.803751" y1="228.541062" x2="387.639652" y2="230.594645" id="Path" stroke="#000000" stroke-width="2" stroke-linecap="round" stroke-linejoin="round"></line>
            <polyline id="Path" stroke="#000000" stroke-width="2" stroke-linecap="round" stroke-linejoin="round" points="348.668453 84.9683891 347.06497 87.0969893 356.873409 97.9556631"></polyline>
            <path d="M251.587408,435.005898 C251.362358,436.600003 251.137307,438.194109 250.90288,439.788215" id="Path" stroke="#000000" stroke-width="2" stroke-linecap="round" stroke-linejoin="round"></path>
            <path d="M341.832552,78.1324883 C344.711319,77.7855358 346.77428,78.713868 348.049565,81.5176189 C348.555928,82.6241159 349.812458,83.3930375 350.722036,84.2838613" id="Path" stroke="#000000" stroke-width="2" stroke-linecap="round" stroke-linejoin="round"></path>
            <path d="M558.555928,497.926192 C560.843938,501.292569 557.618218,504.265107 557.8714,507.490827" id="Path" stroke="#000000" stroke-width="2" stroke-linecap="round" stroke-linejoin="round"></path>
            <line x1="369.176155" y1="394.665643" x2="374.652378" y2="399.457338" id="Path" stroke="#000000" stroke-width="2" stroke-linecap="round" stroke-linejoin="round"></line>
            <line x1="430.70864" y1="55.5712023" x2="439.598125" y2="61.7225753" id="Path" stroke="#000000" stroke-width="2" stroke-linecap="round" stroke-linejoin="round"></line>
            <path d="M574.281313,503.374283 C574.731413,506.112394 575.54722,508.841129 575.54722,511.57924 C575.54722,514.317351 574.731413,517.046085 574.281313,519.784196" id="Path" stroke="#000000" stroke-width="2" stroke-linecap="round" stroke-linejoin="round"></path>
            <line x1="201.682518" y1="106.16062" x2="196.900201" y2="105.476092" id="Path" stroke="#000000" stroke-width="2" stroke-linecap="round" stroke-linejoin="round"></line>
            <path d="M341.148024,134.198128 C343.648582,136.698686 346.14914,139.199244 348.649699,141.699802" id="Path" stroke="#000000" stroke-width="2" stroke-linecap="round" stroke-linejoin="round"></path>
            <path d="M479.929002,43.2684561 C483.098459,39.9958506 486.727395,39.2456832 490.87207,41.2148727" id="Path" stroke="#000000" stroke-width="2" stroke-linecap="round" stroke-linejoin="round"></path>
            <path d="M495.654387,42.5839283 C496.920295,44.7594139 499.011386,44.7406597 501.13061,44.6375117" id="Path" stroke="#000000" stroke-width="2" stroke-linecap="round" stroke-linejoin="round"></path>
            <line x1="564.707301" y1="432.952314" x2="566.760884" y2="440.453989" id="Path" stroke="#000000" stroke-width="2" stroke-linecap="round" stroke-linejoin="round"></line>
            <line x1="204.42063" y1="98.6401909" x2="205.780308" y2="100.693774" id="Path" stroke="#000000" stroke-width="2" stroke-linecap="round" stroke-linejoin="round"></line>
            <line x1="358.926993" y1="91.80429" x2="363.024782" y2="97.2711353" id="Path" stroke="#000000" stroke-width="2" stroke-linecap="round" stroke-linejoin="round"></line>
            <path d="M289.189551,93.8578734 C288.776959,95.733292 288.373744,97.5243168 287.933021,99.4841293 L291.927662,101.359548" id="Path" stroke="#000000" stroke-width="2" stroke-linecap="round" stroke-linejoin="round"></path>
            <line x1="276.886805" y1="558.070867" x2="276.886805" y2="560.115074" id="Path" stroke="#000000" stroke-width="2" stroke-linecap="round" stroke-linejoin="round"></line>
            <line x1="349.352981" y1="185.472073" x2="354.135298" y2="186.156601" id="Path" stroke="#000000" stroke-width="2" stroke-linecap="round" stroke-linejoin="round"></line>
            <line x1="373.283322" y1="581.991832" x2="378.06564" y2="583.360887" id="Path" stroke="#000000" stroke-width="2" stroke-linecap="round" stroke-linejoin="round"></line>
            <line x1="443.695914" y1="63.0916309" x2="448.487609" y2="67.1987977" id="Path" stroke="#000000" stroke-width="2" stroke-linecap="round" stroke-linejoin="round"></line>
            <path d="M304.914936,110.267786 C304.689886,111.402415 304.455459,112.54642 304.230409,113.681048" id="Path" stroke="#000000" stroke-width="2" stroke-linecap="round" stroke-linejoin="round"></path>
            <line x1="425.241795" y1="311.265777" x2="428.655057" y2="311.950305" id="Path" stroke="#000000" stroke-width="2" stroke-linecap="round" stroke-linejoin="round"></line>
            <path d="M555.123912,514.307974 C556.521098,517.721236 551.766912,517.280512 551.71065,519.784196" id="Path" stroke="#000000" stroke-width="2" stroke-linecap="round" stroke-linejoin="round"></path>
            <line x1="426.657736" y1="173.15995" x2="423.844608" y2="174.529005" id="Path" stroke="#000000" stroke-width="2" stroke-linecap="round" stroke-linejoin="round"></line>
        </g>
    </g>
</svg>