<svg version="1.1" viewBox="0.0 0.0 965.0 596.0" fill="none" stroke="none" stroke-linecap="square" stroke-miterlimit="10" width="965" height="596" xmlns:xlink="http://www.w3.org/1999/xlink" xmlns="http://www.w3.org/2000/svg"><path fill="#ffffff" d="M0 0L965.0 0L965.0 596.0L0 596.0L0 0Z" fill-rule="nonzero"/><path stroke="#333333" stroke-width="1.0" stroke-linecap="butt" d="M115.5 559.5L935.5 559.5" fill-rule="nonzero"/><path stroke="#cccccc" stroke-width="1.0" stroke-linecap="butt" d="M115.5 428.5L935.5 428.5" fill-rule="nonzero"/><path stroke="#cccccc" stroke-width="1.0" stroke-linecap="butt" d="M115.5 298.5L935.5 298.5" fill-rule="nonzero"/><path stroke="#cccccc" stroke-width="1.0" stroke-linecap="butt" d="M115.5 167.5L935.5 167.5" fill-rule="nonzero"/><path stroke="#cccccc" stroke-width="1.0" stroke-linecap="butt" d="M115.5 36.5L935.5 36.5" fill-rule="nonzero"/><clipPath id="id_0"><path d="M115.8 36.8L935.2 36.8L935.2 559.2L115.8 559.2L115.8 36.8Z" clip-rule="nonzero"/></clipPath><path fill="#1d70b8" clip-path="url(#id_0)" d="M134.93214 559.2C134.93214 561.6853 132.91742 563.7 130.43214 563.7C127.94686 563.7 125.932144 561.6853 125.932144 559.2C125.932144 556.7147 127.94686 554.7 130.43214 554.7C132.91742 554.7 134.93214 556.7147 134.93214 559.2Z" fill-rule="nonzero"/><path fill="#1d70b8" clip-path="url(#id_0)" d="M164.19643 559.2C164.19643 561.6853 162.18172 563.7 159.69643 563.7C157.21115 563.7 155.19643 561.6853 155.19643 559.2C155.19643 556.7147 157.21115 554.7 159.69643 554.7C162.18172 554.7 164.19643 556.7147 164.19643 559.2Z" fill-rule="nonzero"/><path fill="#1d70b8" clip-path="url(#id_0)" d="M193.46071 559.2C193.46071 561.6853 191.446 563.7 188.96071 563.7C186.47543 563.7 184.46071 561.6853 184.46071 559.2C184.46071 556.7147 186.47543 554.7 188.96071 554.7C191.446 554.7 193.46071 556.7147 193.46071 559.2Z" fill-rule="nonzero"/><path fill="#1d70b8" clip-path="url(#id_0)" d="M222.725 559.2C222.725 561.6853 220.71028 563.7 218.225 563.7C215.73972 563.7 213.725 561.6853 213.725 559.2C213.725 556.7147 215.73972 554.7 218.225 554.7C220.71028 554.7 222.725 556.7147 222.725 559.2Z" fill-rule="nonzero"/><path fill="#1d70b8" clip-path="url(#id_0)" d="M251.98929 559.2C251.98929 561.6853 249.97456 563.7 247.48929 563.7C245.004 563.7 242.98929 561.6853 242.98929 559.2C242.98929 556.7147 245.004 554.7 247.48929 554.7C249.97456 554.7 251.98929 556.7147 251.98929 559.2Z" fill-rule="nonzero"/><path fill="#1d70b8" clip-path="url(#id_0)" d="M281.25357 559.2C281.25357 561.6853 279.23886 563.7 276.75357 563.7C274.26828 563.7 272.25357 561.6853 272.25357 559.2C272.25357 556.7147 274.26828 554.7 276.75357 554.7C279.23886 554.7 281.25357 556.7147 281.25357 559.2Z" fill-rule="nonzero"/><path fill="#1d70b8" clip-path="url(#id_0)" d="M310.51785 472.13333C310.51785 474.61862 308.50314 476.63333 306.01785 476.63333C303.53256 476.63333 301.51785 474.61862 301.51785 472.13333C301.51785 469.64804 303.53256 467.63333 306.01785 467.63333C308.50314 467.63333 310.51785 469.64804 310.51785 472.13333Z" fill-rule="nonzero"/><path fill="#1d70b8" clip-path="url(#id_0)" d="M339.78214 472.13333C339.78214 474.61862 337.76743 476.63333 335.28214 476.63333C332.79688 476.63333 330.78214 474.61862 330.78214 472.13333C330.78214 469.64804 332.79688 467.63333 335.28214 467.63333C337.76743 467.63333 339.78214 469.64804 339.78214 472.13333Z" fill-rule="nonzero"/><path fill="#1d70b8" clip-path="url(#id_0)" d="M369.04642 385.06668C369.04642 387.55194 367.0317 389.56668 364.54642 389.56668C362.06116 389.56668 360.04642 387.55194 360.04642 385.06668C360.04642 382.5814 362.06116 380.56668 364.54642 380.56668C367.0317 380.56668 369.04642 382.5814 369.04642 385.06668Z" fill-rule="nonzero"/><path fill="#1d70b8" clip-path="url(#id_0)" d="M398.3107 385.06668C398.3107 387.55194 396.296 389.56668 393.8107 389.56668C391.32544 389.56668 389.3107 387.55194 389.3107 385.06668C389.3107 382.5814 391.32544 380.56668 393.8107 380.56668C396.296 380.56668 398.3107 382.5814 398.3107 385.06668Z" fill-rule="nonzero"/><path fill="#1d70b8" clip-path="url(#id_0)" d="M427.575 385.06668C427.575 387.55194 425.56027 389.56668 423.075 389.56668C420.58972 389.56668 418.575 387.55194 418.575 385.06668C418.575 382.5814 420.58972 380.56668 423.075 380.56668C425.56027 380.56668 427.575 382.5814 427.575 385.06668Z" fill-rule="nonzero"/><path fill="#1d70b8" clip-path="url(#id_0)" d="M456.8393 298.0C456.8393 300.4853 454.82455 302.5 452.3393 302.5C449.854 302.5 447.8393 300.4853 447.8393 298.0C447.8393 295.5147 449.854 293.5 452.3393 293.5C454.82455 293.5 456.8393 295.5147 456.8393 298.0Z" fill-rule="nonzero"/><path fill="#1d70b8" clip-path="url(#id_0)" d="M486.10358 210.93333C486.10358 213.41861 484.08887 215.43333 481.60358 215.43333C479.1183 215.43333 477.10358 213.41861 477.10358 210.93333C477.10358 208.44806 479.1183 206.43333 481.60358 206.43333C484.08887 206.43333 486.10358 208.44806 486.10358 210.93333Z" fill-rule="nonzero"/><path fill="#1d70b8" clip-path="url(#id_0)" d="M515.36786 123.86667C515.36786 126.35195 513.35315 128.36667 510.86786 128.36667C508.38257 128.36667 506.36786 126.35195 506.36786 123.86667C506.36786 121.381386 508.38257 119.36667 510.86786 119.36667C513.35315 119.36667 515.36786 121.381386 515.36786 123.86667Z" fill-rule="nonzero"/><path fill="#1d70b8" clip-path="url(#id_0)" d="M544.63214 36.8C544.63214 39.285282 542.61743 41.3 540.13214 41.3C537.64685 41.3 535.63214 39.285282 535.63214 36.8C535.63214 34.31472 537.64685 32.3 540.13214 32.3C542.61743 32.3 544.63214 34.31472 544.63214 36.8Z" fill-rule="nonzero"/><path fill="#1d70b8" clip-path="url(#id_0)" d="M573.8964 36.8C573.8964 39.285282 571.8817 41.3 569.3964 41.3C566.91113 41.3 564.8964 39.285282 564.8964 36.8C564.8964 34.31472 566.91113 32.3 569.3964 32.3C571.8817 32.3 573.8964 34.31472 573.8964 36.8Z" fill-rule="nonzero"/><path fill="#1d70b8" clip-path="url(#id_0)" d="M603.1607 36.8C603.1607 39.285282 601.146 41.3 598.6607 41.3C596.1754 41.3 594.1607 39.285282 594.1607 36.8C594.1607 34.31472 596.1754 32.3 598.6607 32.3C601.146 32.3 603.1607 34.31472 603.1607 36.8Z" fill-rule="nonzero"/><path fill="#1d70b8" clip-path="url(#id_0)" d="M632.425 36.8C632.425 39.285282 630.4103 41.3 627.925 41.3C625.4397 41.3 623.425 39.285282 623.425 36.8C623.425 34.31472 625.4397 32.3 627.925 32.3C630.4103 32.3 632.425 34.31472 632.425 36.8Z" fill-rule="nonzero"/><path fill="#1d70b8" clip-path="url(#id_0)" d="M661.6893 36.8C661.6893 39.285282 659.67456 41.3 657.1893 41.3C654.704 41.3 652.6893 39.285282 652.6893 36.8C652.6893 34.31472 654.704 32.3 657.1893 32.3C659.67456 32.3 661.6893 34.31472 661.6893 36.8Z" fill-rule="nonzero"/><path fill="#1d70b8" clip-path="url(#id_0)" d="M690.95355 36.8C690.95355 39.285282 688.93884 41.3 686.45355 41.3C683.96826 41.3 681.95355 39.285282 681.95355 36.8C681.95355 34.31472 683.96826 32.3 686.45355 32.3C688.93884 32.3 690.95355 34.31472 690.95355 36.8Z" fill-rule="nonzero"/><path fill="#1d70b8" clip-path="url(#id_0)" d="M720.21783 36.8C720.21783 39.285282 718.2031 41.3 715.71783 41.3C713.2326 41.3 711.21783 39.285282 711.21783 36.8C711.21783 34.31472 713.2326 32.3 715.71783 32.3C718.2031 32.3 720.21783 34.31472 720.21783 36.8Z" fill-rule="nonzero"/><path fill="#1d70b8" clip-path="url(#id_0)" d="M749.4821 36.8C749.4821 39.285282 747.4674 41.3 744.9821 41.3C742.4969 41.3 740.4821 39.285282 740.4821 36.8C740.4821 34.31472 742.4969 32.3 744.9821 32.3C747.4674 32.3 749.4821 34.31472 749.4821 36.8Z" fill-rule="nonzero"/><path fill="#1d70b8" clip-path="url(#id_0)" d="M778.7464 36.8C778.7464 39.285282 776.7317 41.3 774.2464 41.3C771.76117 41.3 769.7464 39.285282 769.7464 36.8C769.7464 34.31472 771.76117 32.3 774.2464 32.3C776.7317 32.3 778.7464 34.31472 778.7464 36.8Z" fill-rule="nonzero"/><path fill="#1d70b8" clip-path="url(#id_0)" d="M808.01074 36.8C808.01074 39.285282 805.996 41.3 803.51074 41.3C801.02545 41.3 799.01074 39.285282 799.01074 36.8C799.01074 34.31472 801.02545 32.3 803.51074 32.3C805.996 32.3 808.01074 34.31472 808.01074 36.8Z" fill-rule="nonzero"/><path fill="#1d70b8" clip-path="url(#id_0)" d="M837.275 36.8C837.275 39.285282 835.26025 41.3 832.775 41.3C830.28973 41.3 828.275 39.285282 828.275 36.8C828.275 34.31472 830.28973 32.3 832.775 32.3C835.26025 32.3 837.275 34.31472 837.275 36.8Z" fill-rule="nonzero"/><path fill="#1d70b8" clip-path="url(#id_0)" d="M866.5393 36.8C866.5393 39.285282 864.5246 41.3 862.0393 41.3C859.554 41.3 857.5393 39.285282 857.5393 36.8C857.5393 34.31472 859.554 32.3 862.0393 32.3C864.5246 32.3 866.5393 34.31472 866.5393 36.8Z" fill-rule="nonzero"/><path fill="#1d70b8" clip-path="url(#id_0)" d="M895.8036 36.8C895.8036 39.285282 893.7889 41.3 891.3036 41.3C888.8183 41.3 886.8036 39.285282 886.8036 36.8C886.8036 34.31472 888.8183 32.3 891.3036 32.3C893.7889 32.3 895.8036 34.31472 895.8036 36.8Z" fill-rule="nonzero"/><path fill="#1d70b8" clip-path="url(#id_0)" d="M925.0679 36.8C925.0679 39.285282 923.05316 41.3 920.5679 41.3C918.0826 41.3 916.0679 39.285282 916.0679 36.8C916.0679 34.31472 918.0826 32.3 920.5679 32.3C923.05316 32.3 925.0679 34.31472 925.0679 36.8Z" fill-rule="nonzero"/><path fill="#000000" d="M37.003136 411.45312Q35.628136 411.45312 34.659386 410.76562Q33.690636 410.0625 33.690636 408.75Q33.690636 407.53125 34.565636 406.73438Q35.42501 405.9375 37.11251 405.9375Q38.73751 405.9375 39.628136 406.75Q40.503136 407.54688 40.503136 408.73438Q40.503136 409.89062 39.64376 410.67188Q38.76876 411.45312 37.003136 411.45312ZM34.784386 408.70312Q34.784386 409.29688 35.30001 409.6875Q35.80001 410.07812 37.159386 410.07812Q38.409386 410.07812 38.909386 409.6875Q39.409386 409.28125 39.409386 408.70312Q39.409386 408.10938 38.909386 407.71875Q38.39376 407.32812 37.05001 407.32812Q35.80001 407.32812 35.30001 407.71875Q34.784386 408.10938 34.784386 408.70312ZM47.26876 408.6875L33.690636 401.64062L33.690636 400.35938L47.26876 407.39062L47.26876 408.6875ZM43.76876 403.125Q42.39376 403.125 41.42501 402.4375Q40.45626 401.73438 40.45626 400.40625Q40.45626 399.1875 41.33126 398.40625Q42.190636 397.60938 43.878136 397.60938Q45.503136 397.60938 46.39376 398.40625Q47.26876 399.20312 47.26876 400.39062Q47.26876 401.5625 46.39376 402.34375Q45.51876 403.125 43.76876 403.125ZM41.55001 400.35938Q41.55001 400.95312 42.065636 401.34375Q42.565636 401.73438 43.940636 401.73438Q45.159386 401.73438 45.67501 401.34375Q46.190636 400.95312 46.190636 400.375Q46.190636 399.76562 45.67501 399.375Q45.159386 398.98438 43.815636 398.98438Q42.565636 398.98438 42.065636 399.375Q41.55001 399.76562 41.55001 400.35938ZM42.128136 390.90625Q39.534386 390.90625 38.284386 389.45312Q37.253136 388.25 37.253136 386.53125Q37.253136 384.59375 38.51876 383.375Q39.784386 382.15625 42.003136 382.15625Q43.80001 382.15625 44.83126 382.70312Q45.86251 383.23438 46.440636 384.26562Q47.01876 385.29688 47.01876 386.53125Q47.01876 388.48438 45.76876 389.70312Q44.503136 390.90625 42.128136 390.90625ZM42.128136 389.28125Q43.92501 389.28125 44.815636 388.5Q45.70626 387.71875 45.70626 386.53125Q45.70626 385.34375 44.815636 384.5625Q43.909386 383.78125 42.08126 383.78125Q40.346886 383.78125 39.45626 384.57812Q38.565636 385.35938 38.565636 386.53125Q38.565636 387.71875 39.45626 388.5Q40.346886 389.28125 42.128136 389.28125ZM46.80001 379.9375L38.690636 379.9375L38.690636 381.32812L37.471886 381.32812L37.471886 379.9375L36.471886 379.9375Q35.534386 379.9375 35.08126 379.76562Q34.45626 379.54688 34.08126 378.96875Q33.690636 378.39062 33.690636 377.34375Q33.690636 376.6875 33.846886 375.875L35.23751 376.10938Q35.14376 376.60938 35.14376 377.04688Q35.14376 377.76562 35.45626 378.0625Q35.753136 378.35938 36.596886 378.35938L37.471886 378.35938L37.471886 376.54688L38.690636 376.54688L38.690636 378.35938L46.80001 378.35938L46.80001 379.9375ZM45.378136 366.85938L46.784386 366.625Q46.92501 367.29688 46.92501 367.82812Q46.92501 368.6875 46.659386 369.17188Q46.378136 369.64062 45.940636 369.82812Q45.48751 370.01562 44.065636 370.01562L38.690636 370.01562L38.690636 371.1875L37.471886 371.1875L37.471886 370.01562L35.159386 370.01562L34.20626 368.45312L37.471886 368.45312L37.471886 366.85938L38.690636 366.85938L38.690636 368.45312L44.159386 368.45312Q44.83126 368.45312 45.034386 368.375Q45.221886 368.28125 45.33126 368.09375Q45.440636 367.90625 45.440636 367.54688Q45.440636 367.29688 45.378136 366.85938ZM42.128136 365.90625Q39.534386 365.90625 38.284386 364.45312Q37.253136 363.25 37.253136 361.53125Q37.253136 359.59375 38.51876 358.375Q39.784386 357.15625 42.003136 357.15625Q43.80001 357.15625 44.83126 357.70312Q45.86251 358.23438 46.440636 359.26562Q47.01876 360.29688 47.01876 361.53125Q47.01876 363.48438 45.76876 364.70312Q44.503136 365.90625 42.128136 365.90625ZM42.128136 364.28125Q43.92501 364.28125 44.815636 363.5Q45.70626 362.71875 45.70626 361.53125Q45.70626 360.34375 44.815636 359.5625Q43.909386 358.78125 42.08126 358.78125Q40.346886 358.78125 39.45626 359.57812Q38.565636 360.35938 38.565636 361.53125Q38.565636 362.71875 39.45626 363.5Q40.346886 364.28125 42.128136 364.28125ZM50.378136 355.3125L37.471886 355.3125L37.471886 353.875L38.67501 353.875Q37.971886 353.35938 37.61251 352.71875Q37.253136 352.07812 37.253136 351.17188Q37.253136 349.96875 37.878136 349.0625Q38.48751 348.14062 39.61251 347.67188Q40.721886 347.20312 42.065636 347.20312Q43.48751 347.20312 44.64376 347.71875Q45.784386 348.23438 46.409386 349.21875Q47.01876 350.20312 47.01876 351.28125Q47.01876 352.0625 46.690636 352.70312Q46.346886 353.32812 45.83126 353.73438L50.378136 353.73438L50.378136 355.3125ZM42.190636 353.875Q43.98751 353.875 44.846886 353.15625Q45.70626 352.42188 45.70626 351.39062Q45.70626 350.32812 44.815636 349.57812Q43.92501 348.82812 42.05001 348.82812Q40.26876 348.82812 39.378136 349.5625Q38.48751 350.29688 38.48751 351.3125Q38.48751 352.32812 39.440636 353.10938Q40.378136 353.875 42.190636 353.875ZM46.80001 329.25L45.628136 329.25Q47.01876 330.14062 47.01876 331.875Q47.01876 332.98438 46.409386 333.92188Q45.784386 334.85938 44.690636 335.375Q43.58126 335.89062 42.14376 335.89062Q40.73751 335.89062 39.61251 335.42188Q38.471886 334.95312 37.86251 334.03125Q37.253136 333.09375 37.253136 331.9375Q37.253136 331.09375 37.61251 330.4375Q37.971886 329.78125 38.534386 329.35938L33.909386 329.35938L33.909386 327.79688L46.80001 327.79688L46.80001 329.25ZM42.14376 334.26562Q43.940636 334.26562 44.83126 333.51562Q45.70626 332.75 45.70626 331.71875Q45.70626 330.6875 44.86251 329.96875Q44.01876 329.23438 42.26876 329.23438Q40.36251 329.23438 39.471886 329.96875Q38.565636 330.70312 38.565636 331.78125Q38.565636 332.84375 39.42501 333.5625Q40.284386 334.26562 42.14376 334.26562ZM45.64376 319.21875Q46.39376 320.09375 46.70626 320.92188Q47.01876 321.73438 47.01876 322.65625Q47.01876 324.20312 46.26876 325.03125Q45.503136 325.84375 44.33126 325.84375Q43.659386 325.84375 43.096886 325.53125Q42.51876 325.21875 42.17501 324.71875Q41.83126 324.21875 41.659386 323.57812Q41.534386 323.10938 41.42501 322.17188Q41.190636 320.26562 40.878136 319.35938Q40.55001 319.34375 40.45626 319.34375Q39.503136 319.34375 39.096886 319.79688Q38.565636 320.40625 38.565636 321.59375Q38.565636 322.71875 38.95626 323.25Q39.346886 323.78125 40.346886 324.03125L40.128136 325.57812Q39.128136 325.35938 38.51876 324.89062Q37.909386 324.40625 37.58126 323.5Q37.253136 322.57812 37.253136 321.35938Q37.253136 320.17188 37.534386 319.42188Q37.815636 318.67188 38.253136 318.32812Q38.67501 317.96875 39.315636 317.82812Q39.721886 317.75 40.784386 317.75L42.89376 317.75Q45.096886 317.75 45.690636 317.65625Q46.26876 317.54688 46.80001 317.25L46.80001 318.90625Q46.30001 319.15625 45.64376 319.21875ZM42.11251 319.35938Q42.471886 320.21875 42.70626 321.9375Q42.846886 322.90625 43.034386 323.3125Q43.20626 323.71875 43.55001 323.9375Q43.878136 324.15625 44.30001 324.15625Q44.92501 324.15625 45.346886 323.6875Q45.76876 323.20312 45.76876 322.28125Q45.76876 321.35938 45.378136 320.65625Q44.971886 319.9375 44.284386 319.60938Q43.73751 319.35938 42.690636 319.35938L42.11251 319.35938ZM45.378136 311.85938L46.784386 311.625Q46.92501 312.29688 46.92501 312.82812Q46.92501 313.6875 46.659386 314.17188Q46.378136 314.64062 45.940636 314.82812Q45.48751 315.01562 44.065636 315.01562L38.690636 315.01562L38.690636 316.1875L37.471886 316.1875L37.471886 315.01562L35.159386 315.01562L34.20626 313.45312L37.471886 313.45312L37.471886 311.85938L38.690636 311.85938L38.690636 313.45312L44.159386 313.45312Q44.83126 313.45312 45.034386 313.375Q45.221886 313.28125 45.33126 313.09375Q45.440636 312.90625 45.440636 312.54688Q45.440636 312.29688 45.378136 311.85938ZM45.64376 304.21875Q46.39376 305.09375 46.70626 305.92188Q47.01876 306.73438 47.01876 307.65625Q47.01876 309.20312 46.26876 310.03125Q45.503136 310.84375 44.33126 310.84375Q43.659386 310.84375 43.096886 310.53125Q42.51876 310.21875 42.17501 309.71875Q41.83126 309.21875 41.659386 308.57812Q41.534386 308.10938 41.42501 307.17188Q41.190636 305.26562 40.878136 304.35938Q40.55001 304.34375 40.45626 304.34375Q39.503136 304.34375 39.096886 304.79688Q38.565636 305.40625 38.565636 306.59375Q38.565636 307.71875 38.95626 308.25Q39.346886 308.78125 40.346886 309.03125L40.128136 310.57812Q39.128136 310.35938 38.51876 309.89062Q37.909386 309.40625 37.58126 308.5Q37.253136 307.57812 37.253136 306.35938Q37.253136 305.17188 37.534386 304.42188Q37.815636 303.67188 38.253136 303.32812Q38.67501 302.96875 39.315636 302.82812Q39.721886 302.75 40.784386 302.75L42.89376 302.75Q45.096886 302.75 45.690636 302.65625Q46.26876 302.54688 46.80001 302.25L46.80001 303.90625Q46.30001 304.15625 45.64376 304.21875ZM42.11251 304.35938Q42.471886 305.21875 42.70626 306.9375Q42.846886 307.90625 43.034386 308.3125Q43.20626 308.71875 43.55001 308.9375Q43.878136 309.15625 44.30001 309.15625Q44.92501 309.15625 45.346886 308.6875Q45.76876 308.20312 45.76876 307.28125Q45.76876 306.35938 45.378136 305.65625Q44.971886 304.9375 44.284386 304.60938Q43.73751 304.35938 42.690636 304.35938L42.11251 304.35938ZM35.73751 295.29688L33.909386 295.29688L33.909386 293.71875L35.73751 293.71875L35.73751 295.29688ZM46.80001 295.29688L37.471886 295.29688L37.471886 293.71875L46.80001 293.71875L46.80001 295.29688ZM45.378136 287.85938L46.784386 287.625Q46.92501 288.29688 46.92501 288.82812Q46.92501 289.6875 46.659386 290.17188Q46.378136 290.64062 45.940636 290.82812Q45.48751 291.01562 44.065636 291.01562L38.690636 291.01562L38.690636 292.1875L37.471886 292.1875L37.471886 291.01562L35.159386 291.01562L34.20626 289.45312L37.471886 289.45312L37.471886 287.85938L38.690636 287.85938L38.690636 289.45312L44.159386 289.45312Q44.83126 289.45312 45.034386 289.375Q45.221886 289.28125 45.33126 289.09375Q45.440636 288.90625 45.440636 288.54688Q45.440636 288.29688 45.378136 287.85938ZM43.80001 279.92188L44.003136 278.28125Q45.42501 278.67188 46.221886 279.71875Q47.01876 280.76562 47.01876 282.39062Q47.01876 284.4375 45.753136 285.64062Q44.48751 286.84375 42.20626 286.84375Q39.86251 286.84375 38.565636 285.64062Q37.253136 284.42188 37.253136 282.48438Q37.253136 280.60938 38.534386 279.42188Q39.80001 278.23438 42.11251 278.23438Q42.253136 278.23438 42.534386 278.25L42.534386 285.20312Q44.08126 285.125 44.89376 284.34375Q45.70626 283.54688 45.70626 282.39062Q45.70626 281.51562 45.253136 280.90625Q44.80001 280.28125 43.80001 279.92188ZM41.23751 285.125L41.23751 279.90625Q40.065636 280.01562 39.471886 280.5Q38.55001 281.26562 38.55001 282.46875Q38.55001 283.54688 39.284386 284.29688Q40.01876 285.03125 41.23751 285.125ZM46.80001 276.3125L37.471886 276.3125L37.471886 274.89062L38.76876 274.89062Q38.096886 274.45312 37.67501 273.73438Q37.253136 273.0 37.253136 272.0625Q37.253136 271.03125 37.690636 270.375Q38.11251 269.70312 38.89376 269.4375Q37.253136 268.32812 37.253136 266.54688Q37.253136 265.15625 38.034386 264.42188Q38.80001 263.67188 40.39376 263.67188L46.80001 263.67188L46.80001 265.23438L40.92501 265.23438Q39.971886 265.23438 39.55001 265.39062Q39.128136 265.54688 38.878136 265.95312Q38.628136 266.35938 38.628136 266.90625Q38.628136 267.89062 39.284386 268.54688Q39.940636 269.1875 41.378136 269.1875L46.80001 269.1875L46.80001 270.76562L40.73751 270.76562Q39.67501 270.76562 39.159386 271.15625Q38.628136 271.54688 38.628136 272.42188Q38.628136 273.09375 38.98751 273.65625Q39.33126 274.21875 40.003136 274.48438Q40.67501 274.73438 41.95626 274.73438L46.80001 274.73438L46.80001 276.3125ZM44.01876 262.95312L43.76876 261.375Q44.70626 261.25 45.20626 260.65625Q45.70626 260.04688 45.70626 258.96875Q45.70626 257.875 45.26876 257.34375Q44.815636 256.8125 44.221886 256.8125Q43.690636 256.8125 43.378136 257.28125Q43.17501 257.60938 42.846886 258.90625Q42.409386 260.64062 42.096886 261.3125Q41.76876 261.98438 41.20626 262.34375Q40.628136 262.6875 39.940636 262.6875Q39.315636 262.6875 38.784386 262.40625Q38.253136 262.10938 37.909386 261.625Q37.628136 261.25 37.440636 260.60938Q37.253136 259.96875 37.253136 259.25Q37.253136 258.14062 37.58126 257.3125Q37.89376 256.48438 38.440636 256.09375Q38.971886 255.6875 39.878136 255.54688L40.08126 257.09375Q39.36251 257.20312 38.95626 257.70312Q38.55001 258.20312 38.55001 259.125Q38.55001 260.21875 38.909386 260.6875Q39.26876 261.15625 39.753136 261.15625Q40.065636 261.15625 40.315636 260.95312Q40.565636 260.76562 40.73751 260.35938Q40.815636 260.10938 41.14376 258.95312Q41.58126 257.28125 41.878136 256.625Q42.159386 255.95312 42.70626 255.57812Q43.253136 255.1875 44.05001 255.1875Q44.846886 255.1875 45.55001 255.65625Q46.253136 256.10938 46.64376 256.98438Q47.01876 257.85938 47.01876 258.95312Q47.01876 260.78125 46.26876 261.73438Q45.503136 262.6875 44.01876 262.95312ZM46.80001 248.32812L37.471886 248.32812L37.471886 246.90625L38.878136 246.90625Q37.89376 246.35938 37.58126 245.90625Q37.253136 245.4375 37.253136 244.89062Q37.253136 244.07812 37.76876 243.26562L39.23751 243.79688Q38.89376 244.39062 38.89376 244.96875Q38.89376 245.48438 39.20626 245.90625Q39.51876 246.3125 40.065636 246.48438Q40.909386 246.75 41.909386 246.75L46.80001 246.75L46.80001 248.32812ZM43.80001 235.92188L44.003136 234.28125Q45.42501 234.67188 46.221886 235.71875Q47.01876 236.76562 47.01876 238.39062Q47.01876 240.4375 45.753136 241.64062Q44.48751 242.84375 42.20626 242.84375Q39.86251 242.84375 38.565636 241.64062Q37.253136 240.42188 37.253136 238.48438Q37.253136 236.60938 38.534386 235.42188Q39.80001 234.23438 42.11251 234.23438Q42.253136 234.23438 42.534386 234.25L42.534386 241.20312Q44.08126 241.125 44.89376 240.34375Q45.70626 239.54688 45.70626 238.39062Q45.70626 237.51562 45.253136 236.90625Q44.80001 236.28125 43.80001 235.92188ZM41.23751 241.125L41.23751 235.90625Q40.065636 236.01562 39.471886 236.5Q38.55001 237.26562 38.55001 238.46875Q38.55001 239.54688 39.284386 240.29688Q40.01876 241.03125 41.23751 241.125ZM50.378136 226.35938L45.80001 226.35938Q46.33126 226.73438 46.67501 227.40625Q47.01876 228.0625 47.01876 228.8125Q47.01876 230.46875 45.690636 231.67188Q44.36251 232.85938 42.05001 232.85938Q40.64376 232.85938 39.534386 232.375Q38.409386 231.89062 37.83126 230.96875Q37.253136 230.03125 37.253136 228.92188Q37.253136 227.20312 38.70626 226.20312L37.471886 226.20312L37.471886 224.78125L50.378136 224.78125L50.378136 226.35938ZM42.11251 231.23438Q43.909386 231.23438 44.815636 230.48438Q45.70626 229.73438 45.70626 228.67188Q45.70626 227.65625 44.86251 226.9375Q44.003136 226.20312 42.253136 226.20312Q40.378136 226.20312 39.440636 226.98438Q38.503136 227.75 38.503136 228.78125Q38.503136 229.8125 39.378136 230.53125Q40.253136 231.23438 42.11251 231.23438ZM46.80001 216.20312L45.42501 216.20312Q47.01876 217.28125 47.01876 219.15625Q47.01876 219.98438 46.70626 220.70312Q46.378136 221.42188 45.909386 221.76562Q45.42501 222.10938 44.721886 222.25Q44.253136 222.34375 43.253136 222.34375L37.471886 222.34375L37.471886 220.76562L42.64376 220.76562Q43.878136 220.76562 44.315636 220.67188Q44.940636 220.51562 45.30001 220.03125Q45.64376 219.54688 45.64376 218.84375Q45.64376 218.125 45.284386 217.5Q44.92501 216.875 44.30001 216.625Q43.659386 216.35938 42.471886 216.35938L37.471886 216.35938L37.471886 214.78125L46.80001 214.78125L46.80001 216.20312ZM35.73751 212.29688L33.909386 212.29688L33.909386 210.71875L35.73751 210.71875L35.73751 212.29688ZM46.80001 212.29688L37.471886 212.29688L37.471886 210.71875L46.80001 210.71875L46.80001 212.29688ZM46.80001 208.32812L37.471886 208.32812L37.471886 206.90625L38.878136 206.90625Q37.89376 206.35938 37.58126 205.90625Q37.253136 205.4375 37.253136 204.89062Q37.253136 204.07812 37.76876 203.26562L39.23751 203.79688Q38.89376 204.39062 38.89376 204.96875Q38.89376 205.48438 39.20626 205.90625Q39.51876 206.3125 40.065636 206.48438Q40.909386 206.75 41.909386 206.75L46.80001 206.75L46.80001 208.32812ZM43.80001 195.92188L44.003136 194.28125Q45.42501 194.67188 46.221886 195.71875Q47.01876 196.76562 47.01876 198.39062Q47.01876 200.4375 45.753136 201.64062Q44.48751 202.84375 42.20626 202.84375Q39.86251 202.84375 38.565636 201.64062Q37.253136 200.42188 37.253136 198.48438Q37.253136 196.60938 38.534386 195.42188Q39.80001 194.23438 42.11251 194.23438Q42.253136 194.23438 42.534386 194.25L42.534386 201.20312Q44.08126 201.125 44.89376 200.34375Q45.70626 199.54688 45.70626 198.39062Q45.70626 197.51562 45.253136 196.90625Q44.80001 196.28125 43.80001 195.92188ZM41.23751 201.125L41.23751 195.90625Q40.065636 196.01562 39.471886 196.5Q38.55001 197.26562 38.55001 198.46875Q38.55001 199.54688 39.284386 200.29688Q40.01876 201.03125 41.23751 201.125ZM46.80001 186.25L45.628136 186.25Q47.01876 187.14062 47.01876 188.875Q47.01876 189.98438 46.409386 190.92188Q45.784386 191.85938 44.690636 192.375Q43.58126 192.89062 42.14376 192.89062Q40.73751 192.89062 39.61251 192.42188Q38.471886 191.95312 37.86251 191.03125Q37.253136 190.09375 37.253136 188.9375Q37.253136 188.09375 37.61251 187.4375Q37.971886 186.78125 38.534386 186.35938L33.909386 186.35938L33.909386 184.79688L46.80001 184.79688L46.80001 186.25ZM42.14376 191.26562Q43.940636 191.26562 44.83126 190.51562Q45.70626 189.75 45.70626 188.71875Q45.70626 187.6875 44.86251 186.96875Q44.01876 186.23438 42.26876 186.23438Q40.36251 186.23438 39.471886 186.96875Q38.565636 187.70312 38.565636 188.78125Q38.565636 189.84375 39.42501 190.5625Q40.284386 191.26562 42.14376 191.26562Z" fill-rule="nonzero"/><path fill="#000000" d="M92.3 558.96564Q92.3 557.4344 92.6125 556.5125Q92.925 555.575 93.53438 555.075Q94.15938 554.575 95.09688 554.575Q95.78438 554.575 96.3 554.85626Q96.83125 555.1375 97.175 555.66876Q97.51875 556.1844 97.70625 556.9344Q97.89375 557.6844 97.89375 558.96564Q97.89375 560.48126 97.58125 561.40314Q97.28438 562.325 96.65938 562.84064Q96.05 563.34064 95.09688 563.34064Q93.8625 563.34064 93.14375 562.45Q92.3 561.3875 92.3 558.96564ZM93.37813 558.96564Q93.37813 561.075 93.87813 561.77814Q94.37813 562.48126 95.09688 562.48126Q95.83125 562.48126 96.31563 561.77814Q96.81563 561.075 96.81563 558.96564Q96.81563 556.84064 96.31563 556.15314Q95.83125 555.45 95.08125 555.45Q94.3625 555.45 93.925 556.0594Q93.37813 556.84064 93.37813 558.96564ZM99.50313 556.66876Q99.50313 555.7469 99.95625 555.10626Q100.425 554.46564 101.3 554.46564Q102.1125 554.46564 102.64375 555.04376Q103.175 555.6219 103.175 556.73126Q103.175 557.825 102.62813 558.41876Q102.09688 558.9969 101.31563 558.9969Q100.53438 558.9969 100.01875 558.41876Q99.50313 557.84064 99.50313 556.66876ZM101.33125 555.1844Q100.94063 555.1844 100.675 555.52814Q100.425 555.8719 100.425 556.77814Q100.425 557.60626 100.675 557.95Q100.94063 558.27814 101.33125 558.27814Q101.7375 558.27814 101.9875 557.9344Q102.25313 557.59064 102.25313 556.7Q102.25313 555.85626 101.9875 555.52814Q101.72188 555.1844 101.33125 555.1844ZM101.33125 563.5125L106.03438 554.46564L106.89375 554.46564L102.20625 563.5125L101.33125 563.5125ZM105.05 561.1844Q105.05 560.2625 105.50313 559.6219Q105.97188 558.98126 106.8625 558.98126Q107.675 558.98126 108.20625 559.5594Q108.7375 560.1219 108.7375 561.2469Q108.7375 562.34064 108.19063 562.9344Q107.65938 563.5125 106.8625 563.5125Q106.09688 563.5125 105.56563 562.9344Q105.05 562.35626 105.05 561.1844ZM106.89375 559.7Q106.4875 559.7 106.22188 560.04376Q105.97188 560.3875 105.97188 561.29376Q105.97188 562.10626 106.2375 562.45Q106.50313 562.79376 106.89375 562.79376Q107.28438 562.79376 107.55 562.45Q107.81563 562.10626 107.81563 561.2Q107.81563 560.3719 107.55 560.04376Q107.28438 559.7 106.89375 559.7Z" fill-rule="nonzero"/><path fill="#000000" d="M90.84688 431.58438L90.84688 432.6L85.15938 432.6Q85.15938 432.225 85.28438 431.86563Q85.50313 431.2875 85.97188 430.725Q86.45625 430.1625 87.3625 429.42813Q88.76875 428.27188 89.25313 427.6Q89.75313 426.92813 89.75313 426.33438Q89.75313 425.70938 89.3 425.2875Q88.84688 424.85 88.12813 424.85Q87.3625 424.85 86.90938 425.30313Q86.45625 425.75626 86.44063 426.56876L85.3625 426.45938Q85.47188 425.24063 86.19063 424.61563Q86.925 423.975 88.15938 423.975Q89.39375 423.975 90.1125 424.6625Q90.83125 425.35 90.83125 426.36563Q90.83125 426.88126 90.6125 427.38126Q90.40938 427.86563 89.90938 428.42813Q89.425 428.975 88.3 429.92813Q87.34688 430.725 87.06563 431.02188Q86.8 431.30313 86.62813 431.58438L90.84688 431.58438ZM92.3 430.35L93.40938 430.25626Q93.53438 431.06876 93.97188 431.475Q94.425 431.88126 95.06563 431.88126Q95.81563 431.88126 96.34688 431.30313Q96.87813 430.725 96.87813 429.7875Q96.87813 428.88126 96.3625 428.36563Q95.8625 427.83438 95.03438 427.83438Q94.53438 427.83438 94.1125 428.06876Q93.70625 428.30313 93.47188 428.6625L92.4875 428.5375L93.31563 424.13126L97.59688 424.13126L97.59688 425.13126L94.15938 425.13126L93.70625 427.44376Q94.47188 426.89688 95.31563 426.89688Q96.44063 426.89688 97.20625 427.67813Q97.9875 428.45938 97.9875 429.69376Q97.9875 430.85 97.31563 431.70938Q96.4875 432.74063 95.06563 432.74063Q93.89375 432.74063 93.14375 432.08438Q92.40938 431.42813 92.3 430.35ZM99.50313 426.06876Q99.50313 425.14688 99.95625 424.50626Q100.425 423.86563 101.3 423.86563Q102.1125 423.86563 102.64375 424.44376Q103.175 425.02188 103.175 426.13126Q103.175 427.225 102.62813 427.81876Q102.09688 428.39688 101.31563 428.39688Q100.53438 428.39688 100.01875 427.81876Q99.50313 427.24063 99.50313 426.06876ZM101.33125 424.58438Q100.94063 424.58438 100.675 424.92813Q100.425 425.27188 100.425 426.17813Q100.425 427.00626 100.675 427.35Q100.94063 427.67813 101.33125 427.67813Q101.7375 427.67813 101.9875 427.33438Q102.25313 426.99063 102.25313 426.1Q102.25313 425.25626 101.9875 424.92813Q101.72188 424.58438 101.33125 424.58438ZM101.33125 432.9125L106.03438 423.86563L106.89375 423.86563L102.20625 432.9125L101.33125 432.9125ZM105.05 430.58438Q105.05 429.6625 105.50313 429.02188Q105.97188 428.38126 106.8625 428.38126Q107.675 428.38126 108.20625 428.95938Q108.7375 429.52188 108.7375 430.64688Q108.7375 431.74063 108.19063 432.33438Q107.65938 432.9125 106.8625 432.9125Q106.09688 432.9125 105.56563 432.33438Q105.05 431.75626 105.05 430.58438ZM106.89375 429.1Q106.4875 429.1 106.22188 429.44376Q105.97188 429.7875 105.97188 430.69376Q105.97188 431.50626 106.2375 431.85Q106.50313 432.19376 106.89375 432.19376Q107.28438 432.19376 107.55 431.85Q107.81563 431.50626 107.81563 430.6Q107.81563 429.77188 107.55 429.44376Q107.28438 429.1 106.89375 429.1Z" fill-rule="nonzero"/><path fill="#000000" d="M85.3 299.75L86.40938 299.65625Q86.53438 300.46875 86.97188 300.875Q87.425 301.28125 88.06563 301.28125Q88.81563 301.28125 89.34688 300.70312Q89.87813 300.125 89.87813 299.1875Q89.87813 298.28125 89.3625 297.76562Q88.8625 297.23438 88.03438 297.23438Q87.53438 297.23438 87.1125 297.46875Q86.70625 297.70312 86.47188 298.0625L85.4875 297.9375L86.31563 293.53125L90.59688 293.53125L90.59688 294.53125L87.15938 294.53125L86.70625 296.84375Q87.47188 296.29688 88.31563 296.29688Q89.44063 296.29688 90.20625 297.07812Q90.9875 297.85938 90.9875 299.09375Q90.9875 300.25 90.31563 301.10938Q89.4875 302.14062 88.06563 302.14062Q86.89375 302.14062 86.14375 301.48438Q85.40938 300.82812 85.3 299.75ZM92.3 297.76562Q92.3 296.23438 92.6125 295.3125Q92.925 294.375 93.53438 293.875Q94.15938 293.375 95.09688 293.375Q95.78438 293.375 96.3 293.65625Q96.83125 293.9375 97.175 294.46875Q97.51875 294.98438 97.70625 295.73438Q97.89375 296.48438 97.89375 297.76562Q97.89375 299.28125 97.58125 300.20312Q97.28438 301.125 96.65938 301.64062Q96.05 302.14062 95.09688 302.14062Q93.8625 302.14062 93.14375 301.25Q92.3 300.1875 92.3 297.76562ZM93.37813 297.76562Q93.37813 299.875 93.87813 300.57812Q94.37813 301.28125 95.09688 301.28125Q95.83125 301.28125 96.31563 300.57812Q96.81563 299.875 96.81563 297.76562Q96.81563 295.64062 96.31563 294.95312Q95.83125 294.25 95.08125 294.25Q94.3625 294.25 93.925 294.85938Q93.37813 295.64062 93.37813 297.76562ZM99.50313 295.46875Q99.50313 294.54688 99.95625 293.90625Q100.425 293.26562 101.3 293.26562Q102.1125 293.26562 102.64375 293.84375Q103.175 294.42188 103.175 295.53125Q103.175 296.625 102.62813 297.21875Q102.09688 297.79688 101.31563 297.79688Q100.53438 297.79688 100.01875 297.21875Q99.50313 296.64062 99.50313 295.46875ZM101.33125 293.98438Q100.94063 293.98438 100.675 294.32812Q100.425 294.67188 100.425 295.57812Q100.425 296.40625 100.675 296.75Q100.94063 297.07812 101.33125 297.07812Q101.7375 297.07812 101.9875 296.73438Q102.25313 296.39062 102.25313 295.5Q102.25313 294.65625 101.9875 294.32812Q101.72188 293.98438 101.33125 293.98438ZM101.33125 302.3125L106.03438 293.26562L106.89375 293.26562L102.20625 302.3125L101.33125 302.3125ZM105.05 299.98438Q105.05 299.0625 105.50313 298.42188Q105.97188 297.78125 106.8625 297.78125Q107.675 297.78125 108.20625 298.35938Q108.7375 298.92188 108.7375 300.04688Q108.7375 301.14062 108.19063 301.73438Q107.65938 302.3125 106.8625 302.3125Q106.09688 302.3125 105.56563 301.73438Q105.05 301.15625 105.05 299.98438ZM106.89375 298.5Q106.4875 298.5 106.22188 298.84375Q105.97188 299.1875 105.97188 300.09375Q105.97188 300.90625 106.2375 301.25Q106.50313 301.59375 106.89375 301.59375Q107.28438 301.59375 107.55 301.25Q107.81563 300.90625 107.81563 300.0Q107.81563 299.17188 107.55 298.84375Q107.28438 298.5 106.89375 298.5Z" fill-rule="nonzero"/><path fill="#000000" d="M85.3625 163.93124L85.3625 162.91562L90.925 162.91562L90.925 163.74374Q90.1125 164.61874 89.3 166.07187Q88.50313 167.50937 88.06563 169.04062Q87.7375 170.11874 87.65938 171.4L86.56563 171.4Q86.58125 170.38437 86.95625 168.94687Q87.34688 167.50937 88.05 166.18124Q88.76875 164.85312 89.58125 163.93124L85.3625 163.93124ZM92.3 169.15L93.40938 169.05624Q93.53438 169.86874 93.97188 170.275Q94.425 170.68124 95.06563 170.68124Q95.81563 170.68124 96.34688 170.10312Q96.87813 169.525 96.87813 168.5875Q96.87813 167.68124 96.3625 167.16562Q95.8625 166.63437 95.03438 166.63437Q94.53438 166.63437 94.1125 166.86874Q93.70625 167.10312 93.47188 167.4625L92.4875 167.3375L93.31563 162.93124L97.59688 162.93124L97.59688 163.93124L94.15938 163.93124L93.70625 166.24374Q94.47188 165.69687 95.31563 165.69687Q96.44063 165.69687 97.20625 166.47812Q97.9875 167.25937 97.9875 168.49374Q97.9875 169.65 97.31563 170.50937Q96.4875 171.54062 95.06563 171.54062Q93.89375 171.54062 93.14375 170.88437Q92.40938 170.22812 92.3 169.15ZM99.50313 164.86874Q99.50313 163.94687 99.95625 163.30624Q100.425 162.66562 101.3 162.66562Q102.1125 162.66562 102.64375 163.24374Q103.175 163.82187 103.175 164.93124Q103.175 166.025 102.62813 166.61874Q102.09688 167.19687 101.31563 167.19687Q100.53438 167.19687 100.01875 166.61874Q99.50313 166.04062 99.50313 164.86874ZM101.33125 163.38437Q100.94063 163.38437 100.675 163.72812Q100.425 164.07187 100.425 164.97812Q100.425 165.80624 100.675 166.15Q100.94063 166.47812 101.33125 166.47812Q101.7375 166.47812 101.9875 166.13437Q102.25313 165.79062 102.25313 164.9Q102.25313 164.05624 101.9875 163.72812Q101.72188 163.38437 101.33125 163.38437ZM101.33125 171.7125L106.03438 162.66562L106.89375 162.66562L102.20625 171.7125L101.33125 171.7125ZM105.05 169.38437Q105.05 168.4625 105.50313 167.82187Q105.97188 167.18124 106.8625 167.18124Q107.675 167.18124 108.20625 167.75937Q108.7375 168.32187 108.7375 169.44687Q108.7375 170.54062 108.19063 171.13437Q107.65938 171.7125 106.8625 171.7125Q106.09688 171.7125 105.56563 171.13437Q105.05 170.55624 105.05 169.38437ZM106.89375 167.9Q106.4875 167.9 106.22188 168.24374Q105.97188 168.5875 105.97188 169.49374Q105.97188 170.30624 106.2375 170.65Q106.50313 170.99374 106.89375 170.99374Q107.28438 170.99374 107.55 170.65Q107.81563 170.30624 107.81563 169.4Q107.81563 168.57187 107.55 168.24374Q107.28438 167.9 106.89375 167.9Z" fill-rule="nonzero"/><path fill="#000000" d="M82.26875 40.8L81.22188 40.8L81.22188 34.08125Q80.83125 34.440624 80.20625 34.815624Q79.59688 35.175 79.1125 35.346874L79.1125 34.33125Q79.9875 33.909374 80.64375 33.33125Q81.31563 32.7375 81.59688 32.175L82.26875 32.175L82.26875 40.8ZM85.3 36.565624Q85.3 35.034374 85.6125 34.1125Q85.925 33.175 86.53438 32.675Q87.15938 32.175 88.09688 32.175Q88.78438 32.175 89.3 32.45625Q89.83125 32.7375 90.175 33.26875Q90.51875 33.784374 90.70625 34.534374Q90.89375 35.284374 90.89375 36.565624Q90.89375 38.08125 90.58125 39.003124Q90.28438 39.925 89.65938 40.440624Q89.05 40.940624 88.09688 40.940624Q86.8625 40.940624 86.14375 40.05Q85.3 38.9875 85.3 36.565624ZM86.37813 36.565624Q86.37813 38.675 86.87813 39.378124Q87.37813 40.08125 88.09688 40.08125Q88.83125 40.08125 89.31563 39.378124Q89.81563 38.675 89.81563 36.565624Q89.81563 34.440624 89.31563 33.753124Q88.83125 33.05 88.08125 33.05Q87.3625 33.05 86.925 33.659374Q86.37813 34.440624 86.37813 36.565624ZM92.3 36.565624Q92.3 35.034374 92.6125 34.1125Q92.925 33.175 93.53438 32.675Q94.15938 32.175 95.09688 32.175Q95.78438 32.175 96.3 32.45625Q96.83125 32.7375 97.175 33.26875Q97.51875 33.784374 97.70625 34.534374Q97.89375 35.284374 97.89375 36.565624Q97.89375 38.08125 97.58125 39.003124Q97.28438 39.925 96.65938 40.440624Q96.05 40.940624 95.09688 40.940624Q93.8625 40.940624 93.14375 40.05Q92.3 38.9875 92.3 36.565624ZM93.37813 36.565624Q93.37813 38.675 93.87813 39.378124Q94.37813 40.08125 95.09688 40.08125Q95.83125 40.08125 96.31563 39.378124Q96.81563 38.675 96.81563 36.565624Q96.81563 34.440624 96.31563 33.753124Q95.83125 33.05 95.08125 33.05Q94.3625 33.05 93.925 33.659374Q93.37813 34.440624 93.37813 36.565624ZM99.50313 34.26875Q99.50313 33.346874 99.95625 32.70625Q100.425 32.065624 101.3 32.065624Q102.1125 32.065624 102.64375 32.64375Q103.175 33.221874 103.175 34.33125Q103.175 35.425 102.62813 36.01875Q102.09688 36.596874 101.31563 36.596874Q100.53438 36.596874 100.01875 36.01875Q99.50313 35.440624 99.50313 34.26875ZM101.33125 32.784374Q100.94063 32.784374 100.675 33.128124Q100.425 33.471874 100.425 34.378124Q100.425 35.20625 100.675 35.55Q100.94063 35.878124 101.33125 35.878124Q101.7375 35.878124 101.9875 35.534374Q102.25313 35.190624 102.25313 34.3Q102.25313 33.45625 101.9875 33.128124Q101.72188 32.784374 101.33125 32.784374ZM101.33125 41.1125L106.03438 32.065624L106.89375 32.065624L102.20625 41.1125L101.33125 41.1125ZM105.05 38.784374Q105.05 37.8625 105.50313 37.221874Q105.97188 36.58125 106.8625 36.58125Q107.675 36.58125 108.20625 37.159374Q108.7375 37.721874 108.7375 38.846874Q108.7375 39.940624 108.19063 40.534374Q107.65938 41.1125 106.8625 41.1125Q106.09688 41.1125 105.56563 40.534374Q105.05 39.95625 105.05 38.784374ZM106.89375 37.3Q106.4875 37.3 106.22188 37.64375Q105.97188 37.9875 105.97188 38.89375Q105.97188 39.70625 106.2375 40.05Q106.50313 40.39375 106.89375 40.39375Q107.28438 40.39375 107.55 40.05Q107.81563 39.70625 107.81563 38.8Q107.81563 37.971874 107.55 37.64375Q107.28438 37.3 106.89375 37.3Z" fill-rule="nonzero"/></svg>