<svg version="1.1" viewBox="0.0 0.0 659.0 371.0" fill="none" stroke="none" stroke-linecap="square" stroke-miterlimit="10" width="659" height="371" xmlns:xlink="http://www.w3.org/1999/xlink" xmlns="http://www.w3.org/2000/svg"><path fill="#ffffff" d="M0 0L659.0 0L659.0 371.0L0 371.0L0 0Z" fill-rule="nonzero"/><path stroke="#333333" stroke-width="1.0" stroke-linecap="butt" d="M42.5 332.5L640.5 332.5" fill-rule="nonzero"/><path stroke="#cccccc" stroke-width="1.0" stroke-linecap="butt" d="M42.5 281.5L640.5 281.5" fill-rule="nonzero"/><path stroke="#cccccc" stroke-width="1.0" stroke-linecap="butt" d="M42.5 229.5L640.5 229.5" fill-rule="nonzero"/><path stroke="#cccccc" stroke-width="1.0" stroke-linecap="butt" d="M42.5 178.5L640.5 178.5" fill-rule="nonzero"/><path stroke="#cccccc" stroke-width="1.0" stroke-linecap="butt" d="M42.5 127.5L640.5 127.5" fill-rule="nonzero"/><path stroke="#cccccc" stroke-width="1.0" stroke-linecap="butt" d="M42.5 75.5L640.5 75.5" fill-rule="nonzero"/><path stroke="#cccccc" stroke-width="1.0" stroke-linecap="butt" d="M42.5 24.5L640.5 24.5" fill-rule="nonzero"/><clipPath id="id_0"><path d="M42.55 24.55L640.45 24.55L640.45 332.45L42.55 332.45L42.55 24.55Z" clip-rule="nonzero"/></clipPath><path stroke="#000000" stroke-width="2.0" stroke-linecap="butt" stroke-opacity="0.0" clip-path="url(#id_0)" d="M155.0 332.0L82.0 332.0L82.0 155.0C82.0 153.89543 82.89543 153.0 84.0 153.0L153.0 153.0C154.10457 153.0 155.0 153.89543 155.0 155.0Z" fill-rule="nonzero"/><path fill="#1d70b8" clip-path="url(#id_0)" d="M155.0 332.0L82.0 332.0L82.0 155.0C82.0 153.89543 82.89543 153.0 84.0 153.0L153.0 153.0C154.10457 153.0 155.0 153.89543 155.0 155.0Z" fill-rule="nonzero"/><path stroke="#000000" stroke-width="2.0" stroke-linecap="butt" stroke-opacity="0.0" clip-path="url(#id_0)" d="M267.0 332.0L194.0 332.0L194.0 52.0C194.0 50.89543 194.89543 50.0 196.0 50.0L265.0 50.0C266.10458 50.0 267.0 50.89543 267.0 52.0Z" fill-rule="nonzero"/><path fill="#1d70b8" clip-path="url(#id_0)" d="M267.0 332.0L194.0 332.0L194.0 52.0C194.0 50.89543 194.89543 50.0 196.0 50.0L265.0 50.0C266.10458 50.0 267.0 50.89543 267.0 52.0Z" fill-rule="nonzero"/><path stroke="#000000" stroke-width="2.0" stroke-linecap="butt" stroke-opacity="0.0" clip-path="url(#id_0)" d="M379.0 332.0L306.0 332.0L306.0 232.0C306.0 230.89543 306.89542 230.0 308.0 230.0L377.0 230.0C378.10458 230.0 379.0 230.89543 379.0 232.0Z" fill-rule="nonzero"/><path fill="#1d70b8" clip-path="url(#id_0)" d="M379.0 332.0L306.0 332.0L306.0 232.0C306.0 230.89543 306.89542 230.0 308.0 230.0L377.0 230.0C378.10458 230.0 379.0 230.89543 379.0 232.0Z" fill-rule="nonzero"/><path stroke="#000000" stroke-width="2.0" stroke-linecap="butt" stroke-opacity="0.0" clip-path="url(#id_0)" d="M490.0 332.0L417.0 332.0L417.0 332.0L490.0 332.0Z" fill-rule="nonzero"/><path fill="#1d70b8" clip-path="url(#id_0)" d="M490.0 332.0L417.0 332.0L417.0 332.0L490.0 332.0Z" fill-rule="nonzero"/><path stroke="#000000" stroke-width="2.0" stroke-linecap="butt" stroke-opacity="0.0" clip-path="url(#id_0)" d="M602.0 332.0L529.0 332.0L529.0 309.0C529.0 307.89542 529.89545 307.0 531.0 307.0L600.0 307.0C601.10455 307.0 602.0 307.89542 602.0 309.0Z" fill-rule="nonzero"/><path fill="#1d70b8" clip-path="url(#id_0)" d="M602.0 332.0L529.0 332.0L529.0 309.0C529.0 307.89542 529.89545 307.0 531.0 307.0L600.0 307.0C601.10455 307.0 602.0 307.89542 602.0 309.0Z" fill-rule="nonzero"/><path fill="#000000" d="M36.221874 331.6375Q36.221874 332.5125 36.08125 333.23126Q35.940624 333.95 35.6125 334.48126Q35.3 334.9969 34.784374 335.27814Q34.26875 335.5594 33.51875 335.5594Q32.8 335.5594 32.3 335.3094Q31.815624 335.04376 31.51875 334.5594Q31.221874 334.0594 31.096874 333.34064Q30.971874 332.60626 30.971874 331.66876Q30.971874 330.8094 31.1125 330.09064Q31.253124 329.35626 31.565624 328.84064Q31.89375 328.325 32.409374 328.04376Q32.925 327.7625 33.675 327.7625Q34.39375 327.7625 34.878124 328.0125Q35.3625 328.2625 35.659374 328.7625Q35.971874 329.2625 36.096874 329.98126Q36.221874 330.7 36.221874 331.6375ZM35.190624 331.71564Q35.190624 331.1375 35.14375 330.7Q35.096874 330.2469 35.01875 329.90314Q34.940624 329.54376 34.815624 329.29376Q34.690624 329.04376 34.51875 328.8875Q34.346874 328.73126 34.1125 328.65314Q33.89375 328.575 33.6125 328.575Q33.1125 328.575 32.8 328.8094Q32.4875 329.04376 32.3 329.46564Q32.128124 329.8719 32.065624 330.41876Q32.003124 330.96564 32.003124 331.60626Q32.003124 332.45 32.08125 333.04376Q32.175 333.6375 32.3625 334.0125Q32.565624 334.3875 32.8625 334.5594Q33.159374 334.73126 33.58125 334.73126Q33.909374 334.73126 34.14375 334.6375Q34.39375 334.52814 34.565624 334.34064Q34.753124 334.1375 34.8625 333.85626Q34.9875 333.575 35.05 333.2469Q35.128124 332.91876 35.159374 332.52814Q35.190624 332.1375 35.190624 331.71564Z" fill-rule="nonzero"/><path fill="#000000" d="M35.971874 283.69583Q35.971874 283.8052 35.95625 283.88333Q35.940624 283.96146 35.909374 284.02396Q35.878124 284.08646 35.83125 284.1177Q35.8 284.13333 35.7375 284.13333L31.55 284.13333Q31.471874 284.13333 31.409374 284.1177Q31.346874 284.08646 31.3 284.03958Q31.253124 283.9927 31.2375 283.91458Q31.221874 283.82083 31.221874 283.69583Q31.221874 283.57083 31.221874 283.4927Q31.2375 283.39896 31.26875 283.33646Q31.3 283.25833 31.33125 283.19583Q31.378124 283.13333 31.45625 283.0552L32.925 281.4927Q33.440624 280.96146 33.7375 280.53958Q34.05 280.10208 34.20625 279.75833Q34.378124 279.39896 34.425 279.1177Q34.4875 278.82083 34.4875 278.57083Q34.4875 278.32083 34.409374 278.10208Q34.33125 277.8677 34.175 277.69583Q34.01875 277.52396 33.784374 277.4302Q33.55 277.33646 33.2375 277.33646Q32.878124 277.33646 32.596874 277.4302Q32.315624 277.52396 32.096874 277.64896Q31.89375 277.75833 31.7375 277.8677Q31.596874 277.96146 31.534374 277.96146Q31.4875 277.96146 31.45625 277.94583Q31.425 277.91458 31.39375 277.8677Q31.378124 277.8052 31.3625 277.72708Q31.3625 277.63333 31.3625 277.50833Q31.3625 277.4302 31.3625 277.3677Q31.378124 277.28958 31.378124 277.2427Q31.39375 277.19583 31.409374 277.16458Q31.440624 277.1177 31.503124 277.0552Q31.58125 276.9927 31.753124 276.89896Q31.940624 276.78958 32.190624 276.69583Q32.45625 276.58646 32.76875 276.52396Q33.08125 276.44583 33.425 276.44583Q33.971874 276.44583 34.378124 276.60208Q34.8 276.7427 35.065624 277.02396Q35.346874 277.28958 35.471874 277.64896Q35.6125 278.00833 35.6125 278.41458Q35.6125 278.77396 35.55 279.13333Q35.4875 279.4927 35.284374 279.91458Q35.08125 280.33646 34.675 280.85208Q34.284374 281.35208 33.64375 282.02396L32.440624 283.27396L35.7375 283.27396Q35.784374 283.27396 35.83125 283.3052Q35.878124 283.33646 35.909374 283.38333Q35.940624 283.4302 35.95625 283.50833Q35.971874 283.58646 35.971874 283.69583Z" fill-rule="nonzero"/><path fill="#000000" d="M36.284374 230.66042Q36.284374 230.84792 36.221874 230.97292Q36.175 231.08229 36.065624 231.08229L35.20625 231.08229L35.20625 232.67604Q35.20625 232.72292 35.175 232.75417Q35.159374 232.78542 35.096874 232.81667Q35.05 232.83229 34.95625 232.83229Q34.8625 232.84792 34.70625 232.84792Q34.565624 232.84792 34.471874 232.83229Q34.378124 232.83229 34.315624 232.81667Q34.26875 232.78542 34.253124 232.75417Q34.2375 232.72292 34.2375 232.67604L34.2375 231.08229L31.096874 231.08229Q31.034374 231.08229 30.9875 231.06667Q30.940624 231.03542 30.89375 230.98854Q30.8625 230.94167 30.846874 230.86354Q30.83125 230.76979 30.83125 230.62917Q30.83125 230.51979 30.83125 230.44167Q30.846874 230.34792 30.8625 230.26979Q30.878124 230.19167 30.909374 230.12917Q30.940624 230.06667 30.971874 229.98854L33.70625 225.37917Q33.7375 225.33229 33.784374 225.30104Q33.846874 225.26979 33.925 225.25417Q34.01875 225.22292 34.14375 225.20729Q34.284374 225.19167 34.45625 225.19167Q34.659374 225.19167 34.8 225.20729Q34.940624 225.22292 35.01875 225.25417Q35.1125 225.26979 35.159374 225.31667Q35.20625 225.34792 35.20625 225.41042L35.20625 230.23854L36.065624 230.23854Q36.159374 230.23854 36.221874 230.34792Q36.284374 230.44167 36.284374 230.66042ZM34.2375 226.08229L34.221874 226.08229L31.753124 230.23854L34.2375 230.23854L34.2375 226.08229Z" fill-rule="nonzero"/><path fill="#000000" d="M36.159374 179.04688Q36.159374 179.54688 36.003124 180.01562Q35.846874 180.46875 35.534374 180.82812Q35.221874 181.1875 34.7375 181.40625Q34.253124 181.60938 33.58125 181.60938Q33.1125 181.60938 32.7375 181.5Q32.378124 181.375 32.1125 181.15625Q31.846874 180.9375 31.659374 180.625Q31.4875 180.3125 31.378124 179.90625Q31.26875 179.5 31.221874 179.03125Q31.175 178.54688 31.175 177.98438Q31.175 177.5 31.221874 177.0Q31.284374 176.5 31.409374 176.04688Q31.55 175.57812 31.784374 175.17188Q32.01875 174.76562 32.3625 174.46875Q32.70625 174.15625 33.190624 173.98438Q33.690624 173.8125 34.33125 173.8125Q34.55 173.8125 34.76875 173.84375Q34.9875 173.85938 35.175 173.90625Q35.3625 173.95312 35.4875 174.01562Q35.628124 174.0625 35.659374 174.09375Q35.70625 174.125 35.721874 174.17188Q35.753124 174.20312 35.753124 174.25Q35.76875 174.28125 35.76875 174.34375Q35.784374 174.39062 35.784374 174.48438Q35.784374 174.57812 35.784374 174.65625Q35.784374 174.73438 35.753124 174.78125Q35.7375 174.82812 35.70625 174.85938Q35.675 174.875 35.6125 174.875Q35.55 174.875 35.440624 174.84375Q35.33125 174.79688 35.175 174.75Q35.01875 174.70312 34.784374 174.65625Q34.565624 174.60938 34.26875 174.60938Q33.721874 174.60938 33.33125 174.84375Q32.940624 175.0625 32.690624 175.4375Q32.440624 175.8125 32.315624 176.3125Q32.190624 176.79688 32.175 177.34375Q32.33125 177.25 32.51875 177.17188Q32.70625 177.07812 32.925 177.01562Q33.159374 176.9375 33.409374 176.89062Q33.675 176.84375 33.95625 176.84375Q34.565624 176.84375 34.9875 177.01562Q35.409374 177.1875 35.675 177.48438Q35.940624 177.76562 36.05 178.17188Q36.159374 178.57812 36.159374 179.04688ZM35.14375 179.14062Q35.14375 178.79688 35.065624 178.51562Q35.003124 178.23438 34.846874 178.04688Q34.690624 177.85938 34.425 177.75Q34.159374 177.64062 33.76875 177.64062Q33.55 177.64062 33.33125 177.6875Q33.128124 177.71875 32.925 177.79688Q32.721874 177.85938 32.534374 177.95312Q32.346874 178.03125 32.190624 178.14062Q32.190624 178.89062 32.284374 179.40625Q32.39375 179.92188 32.565624 180.23438Q32.753124 180.53125 33.034374 180.67188Q33.315624 180.79688 33.675 180.79688Q34.05 180.79688 34.33125 180.65625Q34.6125 180.51562 34.784374 180.28125Q34.971874 180.04688 35.05 179.75Q35.14375 179.45312 35.14375 179.14062Z" fill-rule="nonzero"/><path fill="#000000" d="M36.14375 128.23021Q36.14375 128.73021 35.95625 129.12083Q35.784374 129.49583 35.45625 129.76146Q35.128124 130.02708 34.64375 130.16771Q34.159374 130.29271 33.534374 130.29271Q32.940624 130.29271 32.471874 130.16771Q32.01875 130.04271 31.690624 129.80833Q31.378124 129.57396 31.20625 129.23021Q31.034374 128.87083 31.034374 128.41771Q31.034374 128.05833 31.14375 127.76146Q31.26875 127.464584 31.4875 127.214584Q31.70625 126.94896 32.01875 126.73021Q32.346874 126.51146 32.753124 126.308334Q32.409374 126.13646 32.128124 125.933334Q31.8625 125.73021 31.675 125.495834Q31.4875 125.26146 31.39375 124.995834Q31.3 124.714584 31.3 124.402084Q31.3 123.995834 31.440624 123.652084Q31.58125 123.308334 31.8625 123.058334Q32.159374 122.79271 32.6125 122.652084Q33.065624 122.495834 33.659374 122.495834Q34.2375 122.495834 34.64375 122.63646Q35.065624 122.76146 35.33125 123.01146Q35.6125 123.245834 35.7375 123.57396Q35.878124 123.88646 35.878124 124.245834Q35.878124 124.558334 35.76875 124.839584Q35.675 125.10521 35.4875 125.35521Q35.3 125.589584 35.01875 125.808334Q34.753124 126.027084 34.409374 126.214584Q34.815624 126.41771 35.14375 126.63646Q35.471874 126.85521 35.690624 127.10521Q35.909374 127.339584 36.01875 127.620834Q36.14375 127.902084 36.14375 128.23021ZM34.878124 124.339584Q34.878124 124.10521 34.784374 123.902084Q34.70625 123.69896 34.534374 123.558334Q34.378124 123.41771 34.128124 123.35521Q33.89375 123.277084 33.58125 123.277084Q32.940624 123.277084 32.6125 123.57396Q32.3 123.85521 32.3 124.339584Q32.3 124.57396 32.378124 124.777084Q32.45625 124.964584 32.6125 125.152084Q32.784374 125.32396 33.034374 125.495834Q33.3 125.652084 33.64375 125.839584Q34.2375 125.527084 34.55 125.16771Q34.878124 124.79271 34.878124 124.339584ZM35.128124 128.33958Q35.128124 128.07396 35.01875 127.85521Q34.925 127.63646 34.721874 127.44896Q34.51875 127.245834 34.20625 127.07396Q33.909374 126.902084 33.51875 126.69896Q33.14375 126.88646 32.8625 127.07396Q32.596874 127.245834 32.409374 127.44896Q32.2375 127.63646 32.14375 127.85521Q32.05 128.05833 32.05 128.32396Q32.05 128.88646 32.440624 129.19896Q32.83125 129.51146 33.596874 129.51146Q34.346874 129.51146 34.7375 129.19896Q35.128124 128.88646 35.128124 128.33958Z" fill-rule="nonzero"/><path fill="#000000" d="M29.9875 78.46042Q29.9875 78.58542 29.95625 78.66354Q29.940624 78.72604 29.909374 78.77292Q29.89375 78.81979 29.846874 78.85104Q29.815624 78.86667 29.76875 78.86667L25.815624 78.86667Q25.76875 78.86667 25.7375 78.85104Q25.70625 78.81979 25.659374 78.77292Q25.628124 78.72604 25.6125 78.66354Q25.596874 78.58542 25.596874 78.46042Q25.596874 78.36667 25.6125 78.28854Q25.628124 78.21042 25.659374 78.16354Q25.690624 78.11667 25.721874 78.08542Q25.76875 78.05417 25.815624 78.05417L27.39375 78.05417L27.39375 72.28854L25.925 73.16354Q25.815624 73.22604 25.7375 73.24167Q25.675 73.24167 25.628124 73.21042Q25.596874 73.16354 25.58125 73.08542Q25.565624 72.99167 25.565624 72.86667Q25.565624 72.75729 25.565624 72.69479Q25.58125 72.61667 25.596874 72.56979Q25.628124 72.52292 25.659374 72.49167Q25.690624 72.46042 25.7375 72.41354L27.4875 71.30417Q27.503124 71.28854 27.534374 71.27292Q27.58125 71.25729 27.628124 71.25729Q27.690624 71.24167 27.753124 71.24167Q27.83125 71.22604 27.925 71.22604Q28.065624 71.22604 28.159374 71.24167Q28.253124 71.25729 28.3 71.27292Q28.3625 71.28854 28.378124 71.33542Q28.39375 71.36667 28.39375 71.39792L28.39375 78.05417L29.76875 78.05417Q29.815624 78.05417 29.846874 78.08542Q29.89375 78.11667 29.925 78.16354Q29.95625 78.21042 29.971874 78.28854Q29.9875 78.36667 29.9875 78.46042ZM36.221874 75.05417Q36.221874 75.92917 36.08125 76.64792Q35.940624 77.36667 35.6125 77.89792Q35.3 78.41354 34.784374 78.69479Q34.26875 78.97604 33.51875 78.97604Q32.8 78.97604 32.3 78.72604Q31.815624 78.46042 31.51875 77.97604Q31.221874 77.47604 31.096874 76.75729Q30.971874 76.02292 30.971874 75.08542Q30.971874 74.22604 31.1125 73.50729Q31.253124 72.77292 31.565624 72.25729Q31.89375 71.74167 32.409374 71.46042Q32.925 71.17917 33.675 71.17917Q34.39375 71.17917 34.878124 71.42917Q35.3625 71.67917 35.659374 72.17917Q35.971874 72.67917 36.096874 73.39792Q36.221874 74.11667 36.221874 75.05417ZM35.190624 75.13229Q35.190624 74.55417 35.14375 74.11667Q35.096874 73.66354 35.01875 73.31979Q34.940624 72.96042 34.815624 72.71042Q34.690624 72.46042 34.51875 72.30417Q34.346874 72.14792 34.1125 72.06979Q33.89375 71.99167 33.6125 71.99167Q33.1125 71.99167 32.8 72.22604Q32.4875 72.46042 32.3 72.88229Q32.128124 73.28854 32.065624 73.83542Q32.003124 74.38229 32.003124 75.02292Q32.003124 75.86667 32.08125 76.46042Q32.175 77.05417 32.3625 77.42917Q32.565624 77.80417 32.8625 77.97604Q33.159374 78.14792 33.58125 78.14792Q33.909374 78.14792 34.14375 78.05417Q34.39375 77.94479 34.565624 77.75729Q34.753124 77.55417 34.8625 77.27292Q34.9875 76.99167 35.05 76.66354Q35.128124 76.33542 35.159374 75.94479Q35.190624 75.55417 35.190624 75.13229Z" fill-rule="nonzero"/><path fill="#000000" d="M29.9875 27.14375Q29.9875 27.26875 29.95625 27.346874Q29.940624 27.409374 29.909374 27.45625Q29.89375 27.503124 29.846874 27.534374Q29.815624 27.55 29.76875 27.55L25.815624 27.55Q25.76875 27.55 25.7375 27.534374Q25.70625 27.503124 25.659374 27.45625Q25.628124 27.409374 25.6125 27.346874Q25.596874 27.26875 25.596874 27.14375Q25.596874 27.05 25.6125 26.971874Q25.628124 26.89375 25.659374 26.846874Q25.690624 26.8 25.721874 26.76875Q25.76875 26.7375 25.815624 26.7375L27.39375 26.7375L27.39375 20.971874L25.925 21.846874Q25.815624 21.909374 25.7375 21.925Q25.675 21.925 25.628124 21.89375Q25.596874 21.846874 25.58125 21.76875Q25.565624 21.675 25.565624 21.55Q25.565624 21.440624 25.565624 21.378124Q25.58125 21.3 25.596874 21.253124Q25.628124 21.20625 25.659374 21.175Q25.690624 21.14375 25.7375 21.096874L27.4875 19.9875Q27.503124 19.971874 27.534374 19.95625Q27.58125 19.940624 27.628124 19.940624Q27.690624 19.925 27.753124 19.925Q27.83125 19.909374 27.925 19.909374Q28.065624 19.909374 28.159374 19.925Q28.253124 19.940624 28.3 19.95625Q28.3625 19.971874 28.378124 20.01875Q28.39375 20.05 28.39375 20.08125L28.39375 26.7375L29.76875 26.7375Q29.815624 26.7375 29.846874 26.76875Q29.89375 26.8 29.925 26.846874Q29.95625 26.89375 29.971874 26.971874Q29.9875 27.05 29.9875 27.14375ZM35.971874 27.1125Q35.971874 27.221874 35.95625 27.3Q35.940624 27.378124 35.909374 27.440624Q35.878124 27.503124 35.83125 27.534374Q35.8 27.55 35.7375 27.55L31.55 27.55Q31.471874 27.55 31.409374 27.534374Q31.346874 27.503124 31.3 27.45625Q31.253124 27.409374 31.2375 27.33125Q31.221874 27.2375 31.221874 27.1125Q31.221874 26.9875 31.221874 26.909374Q31.2375 26.815624 31.26875 26.753124Q31.3 26.675 31.33125 26.6125Q31.378124 26.55 31.45625 26.471874L32.925 24.909374Q33.440624 24.378124 33.7375 23.95625Q34.05 23.51875 34.20625 23.175Q34.378124 22.815624 34.425 22.534374Q34.4875 22.2375 34.4875 21.9875Q34.4875 21.7375 34.409374 21.51875Q34.33125 21.284374 34.175 21.1125Q34.01875 20.940624 33.784374 20.846874Q33.55 20.753124 33.2375 20.753124Q32.878124 20.753124 32.596874 20.846874Q32.315624 20.940624 32.096874 21.065624Q31.89375 21.175 31.7375 21.284374Q31.596874 21.378124 31.534374 21.378124Q31.4875 21.378124 31.45625 21.3625Q31.425 21.33125 31.39375 21.284374Q31.378124 21.221874 31.3625 21.14375Q31.3625 21.05 31.3625 20.925Q31.3625 20.846874 31.3625 20.784374Q31.378124 20.70625 31.378124 20.659374Q31.39375 20.6125 31.409374 20.58125Q31.440624 20.534374 31.503124 20.471874Q31.58125 20.409374 31.753124 20.315624Q31.940624 20.20625 32.190624 20.1125Q32.45625 20.003124 32.76875 19.940624Q33.08125 19.8625 33.425 19.8625Q33.971874 19.8625 34.378124 20.01875Q34.8 20.159374 35.065624 20.440624Q35.346874 20.70625 35.471874 21.065624Q35.6125 21.425 35.6125 21.83125Q35.6125 22.190624 35.55 22.55Q35.4875 22.909374 35.284374 23.33125Q35.08125 23.753124 34.675 24.26875Q34.284374 24.76875 33.64375 25.440624L32.440624 26.690624L35.7375 26.690624Q35.784374 26.690624 35.83125 26.721874Q35.878124 26.753124 35.909374 26.8Q35.940624 26.846874 35.95625 26.925Q35.971874 27.003124 35.971874 27.1125Z" fill-rule="nonzero"/><path fill="#000000" d="M79.03286 346.6844L80.09536 346.59064Q80.173485 347.2469 80.454735 347.65314Q80.735985 348.0594 81.31411 348.325Q81.90786 348.575 82.642235 348.575Q83.28286 348.575 83.78286 348.3875Q84.28286 348.1844 84.517235 347.85626Q84.767235 347.5125 84.767235 347.1219Q84.767235 346.71564 84.53286 346.41876Q84.298485 346.10626 83.767235 345.90314Q83.40786 345.7625 82.22036 345.48126Q81.048485 345.2 80.579735 344.95Q79.954735 344.6219 79.65786 344.15314Q79.360985 343.66876 79.360985 343.075Q79.360985 342.4344 79.72036 341.8719Q80.09536 341.29376 80.798485 341.0125Q81.517235 340.71564 82.37661 340.71564Q83.329735 340.71564 84.06411 341.02814Q84.798485 341.325 85.18911 341.9344Q85.579735 342.52814 85.610985 343.27814L84.517235 343.35626Q84.423485 342.54376 83.90786 342.1375Q83.40786 341.71564 82.423485 341.71564Q81.392235 341.71564 80.923485 342.09064Q80.454735 342.46564 80.454735 342.9969Q80.454735 343.46564 80.78286 343.7625Q81.110985 344.0594 82.485985 344.3719Q83.87661 344.6844 84.392235 344.91876Q85.142235 345.27814 85.50161 345.8094Q85.860985 346.325 85.860985 347.02814Q85.860985 347.71564 85.47036 348.325Q85.079735 348.91876 84.34536 349.2625Q83.610985 349.59064 82.68911 349.59064Q81.517235 349.59064 80.72036 349.2625Q79.93911 348.91876 79.485985 348.23126Q79.048485 347.54376 79.03286 346.6844ZM89.579735 348.5125L89.735985 349.4344Q89.28286 349.52814 88.93911 349.52814Q88.360985 349.52814 88.048485 349.35626Q87.735985 349.16876 87.59536 348.8719Q87.47036 348.575 87.47036 347.6219L87.47036 344.04376L86.704735 344.04376L86.704735 343.23126L87.47036 343.23126L87.47036 341.6844L88.517235 341.0594L88.517235 343.23126L89.579735 343.23126L89.579735 344.04376L88.517235 344.04376L88.517235 347.6844Q88.517235 348.1375 88.56411 348.2625Q88.62661 348.3875 88.75161 348.46564Q88.87661 348.54376 89.110985 348.54376Q89.298485 348.54376 89.579735 348.5125ZM90.267235 349.45L90.267235 343.23126L91.22036 343.23126L91.22036 344.16876Q91.579735 343.5125 91.87661 343.3094Q92.18911 343.09064 92.56411 343.09064Q93.09536 343.09064 93.642235 343.41876L93.28286 344.40314Q92.892235 344.16876 92.517235 344.16876Q92.15786 344.16876 91.87661 344.3875Q91.610985 344.59064 91.50161 344.96564Q91.31411 345.52814 91.31411 346.1844L91.31411 349.45L90.267235 349.45ZM93.892235 346.34064Q93.892235 344.60626 94.84536 343.77814Q95.642235 343.09064 96.798485 343.09064Q98.079735 343.09064 98.892235 343.9344Q99.72036 344.7625 99.72036 346.2469Q99.72036 347.45 99.360985 348.1375Q99.00161 348.825 98.298485 349.21564Q97.610985 349.59064 96.798485 349.59064Q95.50161 349.59064 94.68911 348.7625Q93.892235 347.91876 93.892235 346.34064ZM94.97036 346.34064Q94.97036 347.52814 95.485985 348.1219Q96.017235 348.71564 96.798485 348.71564Q97.59536 348.71564 98.110985 348.1219Q98.62661 347.52814 98.62661 346.3094Q98.62661 345.15314 98.09536 344.5594Q97.579735 343.96564 96.798485 343.96564Q96.017235 343.96564 95.485985 344.5594Q94.97036 345.1375 94.97036 346.34064ZM101.28286 349.45L101.28286 343.23126L102.22036 343.23126L102.22036 344.10626Q102.90786 343.09064 104.204735 343.09064Q104.767235 343.09064 105.235985 343.29376Q105.72036 343.4969 105.954735 343.825Q106.18911 344.15314 106.28286 344.59064Q106.329735 344.8875 106.329735 345.6219L106.329735 349.45L105.28286 349.45L105.28286 345.66876Q105.28286 345.0125 105.15786 344.7Q105.03286 344.3875 104.72036 344.2Q104.40786 343.9969 103.985985 343.9969Q103.31411 343.9969 102.81411 344.4344Q102.329735 344.85626 102.329735 346.04376L102.329735 349.45L101.28286 349.45ZM108.079735 349.96564L109.110985 350.1219Q109.173485 350.59064 109.47036 350.8094Q109.860985 351.10626 110.53286 351.10626Q111.267235 351.10626 111.65786 350.8094Q112.06411 350.5125 112.204735 349.9969Q112.298485 349.66876 112.28286 348.6375Q111.59536 349.45 110.56411 349.45Q109.28286 349.45 108.579735 348.52814Q107.87661 347.59064 107.87661 346.3094Q107.87661 345.41876 108.18911 344.66876Q108.517235 343.90314 109.12661 343.4969Q109.735985 343.09064 110.56411 343.09064Q111.673485 343.09064 112.392235 343.98126L112.392235 343.23126L113.360985 343.23126L113.360985 348.60626Q113.360985 350.0594 113.06411 350.66876Q112.767235 351.27814 112.12661 351.6219Q111.485985 351.98126 110.548485 351.98126Q109.43911 351.98126 108.75161 351.48126Q108.06411 350.98126 108.079735 349.96564ZM108.954735 346.23126Q108.954735 347.45 109.43911 348.0125Q109.923485 348.575 110.65786 348.575Q111.392235 348.575 111.87661 348.0125Q112.37661 347.45 112.37661 346.2625Q112.37661 345.1219 111.860985 344.54376Q111.360985 343.96564 110.642235 343.96564Q109.93911 343.96564 109.43911 344.54376Q108.954735 345.10626 108.954735 346.23126ZM115.25161 349.45L115.25161 340.85626L116.31411 340.85626L116.31411 349.45L115.25161 349.45ZM118.235985 351.84064L118.110985 350.85626Q118.454735 350.95 118.72036 350.95Q119.06411 350.95 119.267235 350.825Q119.485985 350.71564 119.62661 350.5125Q119.72036 350.34064 119.954735 349.71564Q119.97036 349.6375 120.048485 349.46564L117.673485 343.23126L118.81411 343.23126L120.110985 346.825Q120.360985 347.5125 120.56411 348.27814Q120.75161 347.54376 121.00161 346.85626L122.329735 343.23126L123.37661 343.23126L121.017235 349.5594Q120.62661 350.575 120.423485 350.96564Q120.142235 351.4969 119.767235 351.73126Q119.40786 351.98126 118.90786 351.98126Q118.610985 351.98126 118.235985 351.84064ZM130.34537 348.6844Q129.75162 349.1844 129.20474 349.3875Q128.6735 349.59064 128.0485 349.59064Q127.017235 349.59064 126.47036 349.09064Q125.923485 348.59064 125.923485 347.8094Q125.923485 347.35626 126.12661 346.98126Q126.329735 346.59064 126.673485 346.3719Q127.017235 346.1375 127.43911 346.02814Q127.735985 345.9344 128.37662 345.85626Q129.64224 345.71564 130.25162 345.4969Q130.25162 345.27814 130.25162 345.23126Q130.25162 344.575 129.95474 344.3094Q129.5485 343.96564 128.75162 343.96564Q128.01724 343.96564 127.65786 344.23126Q127.298485 344.48126 127.12661 345.1375L126.09536 344.9969Q126.235985 344.34064 126.56411 343.9344Q126.892235 343.52814 127.50161 343.3094Q128.111 343.09064 128.90787 343.09064Q129.70474 343.09064 130.20474 343.27814Q130.70474 343.46564 130.93912 343.7469Q131.1735 344.02814 131.26724 344.46564Q131.31412 344.73126 131.31412 345.4344L131.31412 346.84064Q131.31412 348.3094 131.37662 348.7Q131.45474 349.09064 131.65787 349.45L130.5485 349.45Q130.39224 349.1219 130.34537 348.6844ZM130.25162 346.325Q129.6735 346.5594 128.53287 346.73126Q127.87661 346.825 127.610985 346.95Q127.34536 347.0594 127.18911 347.27814Q127.048485 347.4969 127.048485 347.77814Q127.048485 348.2 127.360985 348.48126Q127.68911 348.7625 128.2985 348.7625Q128.90787 348.7625 129.37662 348.4969Q129.861 348.23126 130.07974 347.7625Q130.25162 347.40314 130.25162 346.71564L130.25162 346.325ZM133.07974 349.96564L134.111 350.1219Q134.1735 350.59064 134.47037 350.8094Q134.861 351.10626 135.53287 351.10626Q136.26724 351.10626 136.65787 350.8094Q137.06412 350.5125 137.20474 349.9969Q137.2985 349.66876 137.28287 348.6375Q136.59537 349.45 135.56412 349.45Q134.28287 349.45 133.57974 348.52814Q132.87662 347.59064 132.87662 346.3094Q132.87662 345.41876 133.18912 344.66876Q133.51724 343.90314 134.12662 343.4969Q134.736 343.09064 135.56412 343.09064Q136.6735 343.09064 137.39224 343.98126L137.39224 343.23126L138.361 343.23126L138.361 348.60626Q138.361 350.0594 138.06412 350.66876Q137.76724 351.27814 137.12662 351.6219Q136.486 351.98126 135.5485 351.98126Q134.43912 351.98126 133.75162 351.48126Q133.06412 350.98126 133.07974 349.96564ZM133.95474 346.23126Q133.95474 347.45 134.43912 348.0125Q134.9235 348.575 135.65787 348.575Q136.39224 348.575 136.87662 348.0125Q137.37662 347.45 137.37662 346.2625Q137.37662 345.1219 136.861 344.54376Q136.361 343.96564 135.64224 343.96564Q134.93912 343.96564 134.43912 344.54376Q133.95474 345.10626 133.95474 346.23126ZM140.26724 349.45L140.26724 343.23126L141.22037 343.23126L141.22037 344.16876Q141.57974 343.5125 141.87662 343.3094Q142.18912 343.09064 142.56412 343.09064Q143.09537 343.09064 143.64224 343.41876L143.28287 344.40314Q142.89224 344.16876 142.51724 344.16876Q142.15787 344.16876 141.87662 344.3875Q141.611 344.59064 141.50162 344.96564Q141.31412 345.52814 141.31412 346.1844L141.31412 349.45L140.26724 349.45ZM148.53287 347.45L149.62662 347.575Q149.37662 348.52814 148.6735 349.0594Q147.97037 349.59064 146.89224 349.59064Q145.53287 349.59064 144.72037 348.7469Q143.9235 347.90314 143.9235 346.3875Q143.9235 344.825 144.736 343.96564Q145.5485 343.09064 146.82974 343.09064Q148.07974 343.09064 148.861 343.9344Q149.65787 344.77814 149.65787 346.325Q149.65787 346.41876 149.65787 346.60626L145.01724 346.60626Q145.07974 347.6375 145.59537 348.1844Q146.111 348.71564 146.89224 348.71564Q147.47037 348.71564 147.87662 348.41876Q148.2985 348.10626 148.53287 347.45ZM145.07974 345.7469L148.5485 345.7469Q148.486 344.95 148.15787 344.5594Q147.64224 343.95 146.84537 343.95Q146.111 343.95 145.611 344.4344Q145.12662 344.91876 145.07974 345.7469ZM155.53287 347.45L156.62662 347.575Q156.37662 348.52814 155.6735 349.0594Q154.97037 349.59064 153.89224 349.59064Q152.53287 349.59064 151.72037 348.7469Q150.9235 347.90314 150.9235 346.3875Q150.9235 344.825 151.736 343.96564Q152.5485 343.09064 153.82974 343.09064Q155.07974 343.09064 155.861 343.9344Q156.65787 344.77814 156.65787 346.325Q156.65787 346.41876 156.65787 346.60626L152.01724 346.60626Q152.07974 347.6375 152.59537 348.1844Q153.111 348.71564 153.89224 348.71564Q154.47037 348.71564 154.87662 348.41876Q155.2985 348.10626 155.53287 347.45ZM152.07974 345.7469L155.5485 345.7469Q155.486 344.95 155.15787 344.5594Q154.64224 343.95 153.84537 343.95Q153.111 343.95 152.611 344.4344Q152.12662 344.91876 152.07974 345.7469Z" fill-rule="nonzero"/><path fill="#000000" d="M213.72737 349.45L217.02425 340.85626L218.243 340.85626L221.75862 349.45L220.47737 349.45L219.46175 346.84064L215.88362 346.84064L214.9305 349.45L213.72737 349.45ZM216.21175 345.91876L219.118 345.91876L218.22737 343.54376Q217.8055 342.46564 217.618 341.7625Q217.44612 342.59064 217.14925 343.40314L216.21175 345.91876ZM221.33675 349.96564L222.368 350.1219Q222.4305 350.59064 222.72737 350.8094Q223.118 351.10626 223.78987 351.10626Q224.52425 351.10626 224.91487 350.8094Q225.32112 350.5125 225.46175 349.9969Q225.5555 349.66876 225.53987 348.6375Q224.85237 349.45 223.82112 349.45Q222.53987 349.45 221.83675 348.52814Q221.13362 347.59064 221.13362 346.3094Q221.13362 345.41876 221.44612 344.66876Q221.77425 343.90314 222.38362 343.4969Q222.993 343.09064 223.82112 343.09064Q224.9305 343.09064 225.64925 343.98126L225.64925 343.23126L226.618 343.23126L226.618 348.60626Q226.618 350.0594 226.32112 350.66876Q226.02425 351.27814 225.38362 351.6219Q224.743 351.98126 223.8055 351.98126Q222.69612 351.98126 222.00862 351.48126Q221.32112 350.98126 221.33675 349.96564ZM222.21175 346.23126Q222.21175 347.45 222.69612 348.0125Q223.1805 348.575 223.91487 348.575Q224.64925 348.575 225.13362 348.0125Q225.63362 347.45 225.63362 346.2625Q225.63362 345.1219 225.118 344.54376Q224.618 343.96564 223.89925 343.96564Q223.19612 343.96564 222.69612 344.54376Q222.21175 345.10626 222.21175 346.23126ZM228.52425 349.45L228.52425 343.23126L229.47737 343.23126L229.47737 344.16876Q229.83675 343.5125 230.13362 343.3094Q230.44612 343.09064 230.82112 343.09064Q231.35237 343.09064 231.89925 343.41876L231.53987 344.40314Q231.14925 344.16876 230.77425 344.16876Q230.41487 344.16876 230.13362 344.3875Q229.868 344.59064 229.75862 344.96564Q229.57112 345.52814 229.57112 346.1844L229.57112 349.45L228.52425 349.45ZM236.78987 347.45L237.88362 347.575Q237.63362 348.52814 236.9305 349.0594Q236.22737 349.59064 235.14925 349.59064Q233.78987 349.59064 232.97737 348.7469Q232.1805 347.90314 232.1805 346.3875Q232.1805 344.825 232.993 343.96564Q233.8055 343.09064 235.08675 343.09064Q236.33675 343.09064 237.118 343.9344Q237.91487 344.77814 237.91487 346.325Q237.91487 346.41876 237.91487 346.60626L233.27425 346.60626Q233.33675 347.6375 233.85237 348.1844Q234.368 348.71564 235.14925 348.71564Q235.72737 348.71564 236.13362 348.41876Q236.5555 348.10626 236.78987 347.45ZM233.33675 345.7469L236.8055 345.7469Q236.743 344.95 236.41487 344.5594Q235.89925 343.95 235.10237 343.95Q234.368 343.95 233.868 344.4344Q233.38362 344.91876 233.33675 345.7469ZM243.78987 347.45L244.88362 347.575Q244.63362 348.52814 243.9305 349.0594Q243.22737 349.59064 242.14925 349.59064Q240.78987 349.59064 239.97737 348.7469Q239.1805 347.90314 239.1805 346.3875Q239.1805 344.825 239.993 343.96564Q240.8055 343.09064 242.08675 343.09064Q243.33675 343.09064 244.118 343.9344Q244.91487 344.77814 244.91487 346.325Q244.91487 346.41876 244.91487 346.60626L240.27425 346.60626Q240.33675 347.6375 240.85237 348.1844Q241.368 348.71564 242.14925 348.71564Q242.72737 348.71564 243.13362 348.41876Q243.5555 348.10626 243.78987 347.45ZM240.33675 345.7469L243.8055 345.7469Q243.743 344.95 243.41487 344.5594Q242.89925 343.95 242.10237 343.95Q241.368 343.95 240.868 344.4344Q240.38362 344.91876 240.33675 345.7469Z" fill-rule="nonzero"/><path fill="#000000" d="M268.42188 349.45L268.42188 340.85626L269.57812 340.85626L274.09375 347.60626L274.09375 340.85626L275.1875 340.85626L275.1875 349.45L274.01562 349.45L269.5 342.7L269.5 349.45L268.42188 349.45ZM281.54688 347.45L282.64062 347.575Q282.39062 348.52814 281.6875 349.0594Q280.98438 349.59064 279.90625 349.59064Q278.54688 349.59064 277.73438 348.7469Q276.9375 347.90314 276.9375 346.3875Q276.9375 344.825 277.75 343.96564Q278.5625 343.09064 279.84375 343.09064Q281.09375 343.09064 281.875 343.9344Q282.67188 344.77814 282.67188 346.325Q282.67188 346.41876 282.67188 346.60626L278.03125 346.60626Q278.09375 347.6375 278.60938 348.1844Q279.125 348.71564 279.90625 348.71564Q280.48438 348.71564 280.89062 348.41876Q281.3125 348.10626 281.54688 347.45ZM278.09375 345.7469L281.5625 345.7469Q281.5 344.95 281.17188 344.5594Q280.65625 343.95 279.85938 343.95Q279.125 343.95 278.625 344.4344Q278.14062 344.91876 278.09375 345.7469ZM284.29688 342.075L284.29688 340.85626L285.35938 340.85626L285.35938 342.075L284.29688 342.075ZM284.29688 349.45L284.29688 343.23126L285.35938 343.23126L285.35938 349.45L284.29688 349.45ZM289.59375 348.5125L289.75 349.4344Q289.29688 349.52814 288.95312 349.52814Q288.375 349.52814 288.0625 349.35626Q287.75 349.16876 287.60938 348.8719Q287.48438 348.575 287.48438 347.6219L287.48438 344.04376L286.71875 344.04376L286.71875 343.23126L287.48438 343.23126L287.48438 341.6844L288.53125 341.0594L288.53125 343.23126L289.59375 343.23126L289.59375 344.04376L288.53125 344.04376L288.53125 347.6844Q288.53125 348.1375 288.57812 348.2625Q288.64062 348.3875 288.76562 348.46564Q288.89062 348.54376 289.125 348.54376Q289.3125 348.54376 289.59375 348.5125ZM290.29688 349.45L290.29688 340.85626L291.34375 340.85626L291.34375 343.9344Q292.07812 343.09064 293.20312 343.09064Q293.90625 343.09064 294.40625 343.3719Q294.92188 343.6375 295.14062 344.1219Q295.35938 344.59064 295.35938 345.5125L295.35938 349.45L294.3125 349.45L294.3125 345.5125Q294.3125 344.71564 293.96875 344.35626Q293.625 343.9969 293.0 343.9969Q292.53125 343.9969 292.10938 344.2469Q291.70312 344.48126 291.51562 344.90314Q291.34375 345.3094 291.34375 346.04376L291.34375 349.45L290.29688 349.45ZM301.54688 347.45L302.64062 347.575Q302.39062 348.52814 301.6875 349.0594Q300.98438 349.59064 299.90625 349.59064Q298.54688 349.59064 297.73438 348.7469Q296.9375 347.90314 296.9375 346.3875Q296.9375 344.825 297.75 343.96564Q298.5625 343.09064 299.84375 343.09064Q301.09375 343.09064 301.875 343.9344Q302.67188 344.77814 302.67188 346.325Q302.67188 346.41876 302.67188 346.60626L298.03125 346.60626Q298.09375 347.6375 298.60938 348.1844Q299.125 348.71564 299.90625 348.71564Q300.48438 348.71564 300.89062 348.41876Q301.3125 348.10626 301.54688 347.45ZM298.09375 345.7469L301.5625 345.7469Q301.5 344.95 301.17188 344.5594Q300.65625 343.95 299.85938 343.95Q299.125 343.95 298.625 344.4344Q298.14062 344.91876 298.09375 345.7469ZM304.28125 349.45L304.28125 343.23126L305.23438 343.23126L305.23438 344.16876Q305.59375 343.5125 305.89062 343.3094Q306.20312 343.09064 306.57812 343.09064Q307.10938 343.09064 307.65625 343.41876L307.29688 344.40314Q306.90625 344.16876 306.53125 344.16876Q306.17188 344.16876 305.89062 344.3875Q305.625 344.59064 305.51562 344.96564Q305.32812 345.52814 305.32812 346.1844L305.32812 349.45L304.28125 349.45ZM315.35938 348.6844Q314.76562 349.1844 314.21875 349.3875Q313.6875 349.59064 313.0625 349.59064Q312.03125 349.59064 311.48438 349.09064Q310.9375 348.59064 310.9375 347.8094Q310.9375 347.35626 311.14062 346.98126Q311.34375 346.59064 311.6875 346.3719Q312.03125 346.1375 312.45312 346.02814Q312.75 345.9344 313.39062 345.85626Q314.65625 345.71564 315.26562 345.4969Q315.26562 345.27814 315.26562 345.23126Q315.26562 344.575 314.96875 344.3094Q314.5625 343.96564 313.76562 343.96564Q313.03125 343.96564 312.67188 344.23126Q312.3125 344.48126 312.14062 345.1375L311.10938 344.9969Q311.25 344.34064 311.57812 343.9344Q311.90625 343.52814 312.51562 343.3094Q313.125 343.09064 313.92188 343.09064Q314.71875 343.09064 315.21875 343.27814Q315.71875 343.46564 315.95312 343.7469Q316.1875 344.02814 316.28125 344.46564Q316.32812 344.73126 316.32812 345.4344L316.32812 346.84064Q316.32812 348.3094 316.39062 348.7Q316.46875 349.09064 316.67188 349.45L315.5625 349.45Q315.40625 349.1219 315.35938 348.6844ZM315.26562 346.325Q314.6875 346.5594 313.54688 346.73126Q312.89062 346.825 312.625 346.95Q312.35938 347.0594 312.20312 347.27814Q312.0625 347.4969 312.0625 347.77814Q312.0625 348.2 312.375 348.48126Q312.70312 348.7625 313.3125 348.7625Q313.92188 348.7625 314.39062 348.4969Q314.875 348.23126 315.09375 347.7625Q315.26562 347.40314 315.26562 346.71564L315.26562 346.325ZM318.09375 349.96564L319.125 350.1219Q319.1875 350.59064 319.48438 350.8094Q319.875 351.10626 320.54688 351.10626Q321.28125 351.10626 321.67188 350.8094Q322.07812 350.5125 322.21875 349.9969Q322.3125 349.66876 322.29688 348.6375Q321.60938 349.45 320.57812 349.45Q319.29688 349.45 318.59375 348.52814Q317.89062 347.59064 317.89062 346.3094Q317.89062 345.41876 318.20312 344.66876Q318.53125 343.90314 319.14062 343.4969Q319.75 343.09064 320.57812 343.09064Q321.6875 343.09064 322.40625 343.98126L322.40625 343.23126L323.375 343.23126L323.375 348.60626Q323.375 350.0594 323.07812 350.66876Q322.78125 351.27814 322.14062 351.6219Q321.5 351.98126 320.5625 351.98126Q319.45312 351.98126 318.76562 351.48126Q318.07812 350.98126 318.09375 349.96564ZM318.96875 346.23126Q318.96875 347.45 319.45312 348.0125Q319.9375 348.575 320.67188 348.575Q321.40625 348.575 321.89062 348.0125Q322.39062 347.45 322.39062 346.2625Q322.39062 345.1219 321.875 344.54376Q321.375 343.96564 320.65625 343.96564Q319.95312 343.96564 319.45312 344.54376Q318.96875 345.10626 318.96875 346.23126ZM325.28125 349.45L325.28125 343.23126L326.23438 343.23126L326.23438 344.16876Q326.59375 343.5125 326.89062 343.3094Q327.20312 343.09064 327.57812 343.09064Q328.10938 343.09064 328.65625 343.41876L328.29688 344.40314Q327.90625 344.16876 327.53125 344.16876Q327.17188 344.16876 326.89062 344.3875Q326.625 344.59064 326.51562 344.96564Q326.32812 345.52814 326.32812 346.1844L326.32812 349.45L325.28125 349.45ZM333.54688 347.45L334.64062 347.575Q334.39062 348.52814 333.6875 349.0594Q332.98438 349.59064 331.90625 349.59064Q330.54688 349.59064 329.73438 348.7469Q328.9375 347.90314 328.9375 346.3875Q328.9375 344.825 329.75 343.96564Q330.5625 343.09064 331.84375 343.09064Q333.09375 343.09064 333.875 343.9344Q334.67188 344.77814 334.67188 346.325Q334.67188 346.41876 334.67188 346.60626L330.03125 346.60626Q330.09375 347.6375 330.60938 348.1844Q331.125 348.71564 331.90625 348.71564Q332.48438 348.71564 332.89062 348.41876Q333.3125 348.10626 333.54688 347.45ZM330.09375 345.7469L333.5625 345.7469Q333.5 344.95 333.17188 344.5594Q332.65625 343.95 331.85938 343.95Q331.125 343.95 330.625 344.4344Q330.14062 344.91876 330.09375 345.7469ZM340.54688 347.45L341.64062 347.575Q341.39062 348.52814 340.6875 349.0594Q339.98438 349.59064 338.90625 349.59064Q337.54688 349.59064 336.73438 348.7469Q335.9375 347.90314 335.9375 346.3875Q335.9375 344.825 336.75 343.96564Q337.5625 343.09064 338.84375 343.09064Q340.09375 343.09064 340.875 343.9344Q341.67188 344.77814 341.67188 346.325Q341.67188 346.41876 341.67188 346.60626L337.03125 346.60626Q337.09375 347.6375 337.60938 348.1844Q338.125 348.71564 338.90625 348.71564Q339.48438 348.71564 339.89062 348.41876Q340.3125 348.10626 340.54688 347.45ZM337.09375 345.7469L340.5625 345.7469Q340.5 344.95 340.17188 344.5594Q339.65625 343.95 338.85938 343.95Q338.125 343.95 337.625 344.4344Q337.14062 344.91876 337.09375 345.7469ZM346.29688 349.45L346.29688 343.23126L347.23438 343.23126L347.23438 344.10626Q347.92188 343.09064 349.21875 343.09064Q349.78125 343.09064 350.25 343.29376Q350.73438 343.4969 350.96875 343.825Q351.20312 344.15314 351.29688 344.59064Q351.34375 344.8875 351.34375 345.6219L351.34375 349.45L350.29688 349.45L350.29688 345.66876Q350.29688 345.0125 350.17188 344.7Q350.04688 344.3875 349.73438 344.2Q349.42188 343.9969 349.0 343.9969Q348.32812 343.9969 347.82812 344.4344Q347.34375 344.85626 347.34375 346.04376L347.34375 349.45L346.29688 349.45ZM352.90625 346.34064Q352.90625 344.60626 353.85938 343.77814Q354.65625 343.09064 355.8125 343.09064Q357.09375 343.09064 357.90625 343.9344Q358.73438 344.7625 358.73438 346.2469Q358.73438 347.45 358.375 348.1375Q358.01562 348.825 357.3125 349.21564Q356.625 349.59064 355.8125 349.59064Q354.51562 349.59064 353.70312 348.7625Q352.90625 347.91876 352.90625 346.34064ZM353.98438 346.34064Q353.98438 347.52814 354.5 348.1219Q355.03125 348.71564 355.8125 348.71564Q356.60938 348.71564 357.125 348.1219Q357.64062 347.52814 357.64062 346.3094Q357.64062 345.15314 357.10938 344.5594Q356.59375 343.96564 355.8125 343.96564Q355.03125 343.96564 354.5 344.5594Q353.98438 345.1375 353.98438 346.34064ZM360.28125 349.45L360.28125 343.23126L361.23438 343.23126L361.23438 344.16876Q361.59375 343.5125 361.89062 343.3094Q362.20312 343.09064 362.57812 343.09064Q363.10938 343.09064 363.65625 343.41876L363.29688 344.40314Q362.90625 344.16876 362.53125 344.16876Q362.17188 344.16876 361.89062 344.3875Q361.625 344.59064 361.51562 344.96564Q361.32812 345.52814 361.32812 346.1844L361.32812 349.45L360.28125 349.45ZM371.32812 349.45L371.32812 348.66876Q370.73438 349.59064 369.59375 349.59064Q368.84375 349.59064 368.21875 349.1844Q367.59375 348.7625 367.25 348.02814Q366.90625 347.29376 366.90625 346.34064Q366.90625 345.41876 367.21875 344.65314Q367.53125 343.8875 368.15625 343.4969Q368.78125 343.09064 369.54688 343.09064Q370.10938 343.09064 370.54688 343.325Q370.98438 343.5594 371.26562 343.9344L371.26562 340.85626L372.3125 340.85626L372.3125 349.45L371.32812 349.45ZM368.0 346.34064Q368.0 347.54376 368.5 348.1375Q369.0 348.71564 369.6875 348.71564Q370.375 348.71564 370.85938 348.15314Q371.34375 347.59064 371.34375 346.4344Q371.34375 345.15314 370.84375 344.5594Q370.35938 343.96564 369.64062 343.96564Q368.9375 343.96564 368.46875 344.54376Q368.0 345.10626 368.0 346.34064ZM374.29688 342.075L374.29688 340.85626L375.35938 340.85626L375.35938 342.075L374.29688 342.075ZM374.29688 349.45L374.29688 343.23126L375.35938 343.23126L375.35938 349.45L374.29688 349.45ZM376.875 347.59064L377.90625 347.4344Q378.0 348.0594 378.39062 348.3875Q378.79688 348.71564 379.53125 348.71564Q380.25 348.71564 380.59375 348.4344Q380.95312 348.1375 380.95312 347.73126Q380.95312 347.3719 380.64062 347.16876Q380.42188 347.02814 379.5625 346.8094Q378.40625 346.5125 377.95312 346.3094Q377.51562 346.09064 377.28125 345.71564Q377.04688 345.34064 377.04688 344.8719Q377.04688 344.46564 377.23438 344.10626Q377.42188 343.7469 377.75 343.5125Q378.0 343.34064 378.42188 343.21564Q378.84375 343.09064 379.34375 343.09064Q380.0625 343.09064 380.60938 343.3094Q381.17188 343.5125 381.4375 343.8719Q381.70312 344.23126 381.79688 344.825L380.76562 344.96564Q380.70312 344.4969 380.35938 344.23126Q380.03125 343.95 379.40625 343.95Q378.6875 343.95 378.375 344.2Q378.0625 344.4344 378.0625 344.7625Q378.0625 344.96564 378.1875 345.1219Q378.32812 345.29376 378.59375 345.40314Q378.75 345.46564 379.53125 345.66876Q380.65625 345.98126 381.09375 346.16876Q381.53125 346.35626 381.78125 346.71564Q382.03125 347.075 382.03125 347.6219Q382.03125 348.15314 381.71875 348.6219Q381.42188 349.075 380.84375 349.34064Q380.26562 349.59064 379.53125 349.59064Q378.3125 349.59064 377.67188 349.09064Q377.04688 348.575 376.875 347.59064ZM388.35938 348.6844Q387.76562 349.1844 387.21875 349.3875Q386.6875 349.59064 386.0625 349.59064Q385.03125 349.59064 384.48438 349.09064Q383.9375 348.59064 383.9375 347.8094Q383.9375 347.35626 384.14062 346.98126Q384.34375 346.59064 384.6875 346.3719Q385.03125 346.1375 385.45312 346.02814Q385.75 345.9344 386.39062 345.85626Q387.65625 345.71564 388.26562 345.4969Q388.26562 345.27814 388.26562 345.23126Q388.26562 344.575 387.96875 344.3094Q387.5625 343.96564 386.76562 343.96564Q386.03125 343.96564 385.67188 344.23126Q385.3125 344.48126 385.14062 345.1375L384.10938 344.9969Q384.25 344.34064 384.57812 343.9344Q384.90625 343.52814 385.51562 343.3094Q386.125 343.09064 386.92188 343.09064Q387.71875 343.09064 388.21875 343.27814Q388.71875 343.46564 388.95312 343.7469Q389.1875 344.02814 389.28125 344.46564Q389.32812 344.73126 389.32812 345.4344L389.32812 346.84064Q389.32812 348.3094 389.39062 348.7Q389.46875 349.09064 389.67188 349.45L388.5625 349.45Q388.40625 349.1219 388.35938 348.6844ZM388.26562 346.325Q387.6875 346.5594 386.54688 346.73126Q385.89062 346.825 385.625 346.95Q385.35938 347.0594 385.20312 347.27814Q385.0625 347.4969 385.0625 347.77814Q385.0625 348.2 385.375 348.48126Q385.70312 348.7625 386.3125 348.7625Q386.92188 348.7625 387.39062 348.4969Q387.875 348.23126 388.09375 347.7625Q388.26562 347.40314 388.26562 346.71564L388.26562 346.325ZM391.09375 349.96564L392.125 350.1219Q392.1875 350.59064 392.48438 350.8094Q392.875 351.10626 393.54688 351.10626Q394.28125 351.10626 394.67188 350.8094Q395.07812 350.5125 395.21875 349.9969Q395.3125 349.66876 395.29688 348.6375Q394.60938 349.45 393.57812 349.45Q392.29688 349.45 391.59375 348.52814Q390.89062 347.59064 390.89062 346.3094Q390.89062 345.41876 391.20312 344.66876Q391.53125 343.90314 392.14062 343.4969Q392.75 343.09064 393.57812 343.09064Q394.6875 343.09064 395.40625 343.98126L395.40625 343.23126L396.375 343.23126L396.375 348.60626Q396.375 350.0594 396.07812 350.66876Q395.78125 351.27814 395.14062 351.6219Q394.5 351.98126 393.5625 351.98126Q392.45312 351.98126 391.76562 351.48126Q391.07812 350.98126 391.09375 349.96564ZM391.96875 346.23126Q391.96875 347.45 392.45312 348.0125Q392.9375 348.575 393.67188 348.575Q394.40625 348.575 394.89062 348.0125Q395.39062 347.45 395.39062 346.2625Q395.39062 345.1219 394.875 344.54376Q394.375 343.96564 393.65625 343.96564Q392.95312 343.96564 392.45312 344.54376Q391.96875 345.10626 391.96875 346.23126ZM398.28125 349.45L398.28125 343.23126L399.23438 343.23126L399.23438 344.16876Q399.59375 343.5125 399.89062 343.3094Q400.20312 343.09064 400.57812 343.09064Q401.10938 343.09064 401.65625 343.41876L401.29688 344.40314Q400.90625 344.16876 400.53125 344.16876Q400.17188 344.16876 399.89062 344.3875Q399.625 344.59064 399.51562 344.96564Q399.32812 345.52814 399.32812 346.1844L399.32812 349.45L398.28125 349.45ZM406.54688 347.45L407.64062 347.575Q407.39062 348.52814 406.6875 349.0594Q405.98438 349.59064 404.90625 349.59064Q403.54688 349.59064 402.73438 348.7469Q401.9375 347.90314 401.9375 346.3875Q401.9375 344.825 402.75 343.96564Q403.5625 343.09064 404.84375 343.09064Q406.09375 343.09064 406.875 343.9344Q407.67188 344.77814 407.67188 346.325Q407.67188 346.41876 407.67188 346.60626L403.03125 346.60626Q403.09375 347.6375 403.60938 348.1844Q404.125 348.71564 404.90625 348.71564Q405.48438 348.71564 405.89062 348.41876Q406.3125 348.10626 406.54688 347.45ZM403.09375 345.7469L406.5625 345.7469Q406.5 344.95 406.17188 344.5594Q405.65625 343.95 404.85938 343.95Q404.125 343.95 403.625 344.4344Q403.14062 344.91876 403.09375 345.7469ZM413.54688 347.45L414.64062 347.575Q414.39062 348.52814 413.6875 349.0594Q412.98438 349.59064 411.90625 349.59064Q410.54688 349.59064 409.73438 348.7469Q408.9375 347.90314 408.9375 346.3875Q408.9375 344.825 409.75 343.96564Q410.5625 343.09064 411.84375 343.09064Q413.09375 343.09064 413.875 343.9344Q414.67188 344.77814 414.67188 346.325Q414.67188 346.41876 414.67188 346.60626L410.03125 346.60626Q410.09375 347.6375 410.60938 348.1844Q411.125 348.71564 411.90625 348.71564Q412.48438 348.71564 412.89062 348.41876Q413.3125 348.10626 413.54688 347.45ZM410.09375 345.7469L413.5625 345.7469Q413.5 344.95 413.17188 344.5594Q412.65625 343.95 411.85938 343.95Q411.125 343.95 410.625 344.4344Q410.14062 344.91876 410.09375 345.7469Z" fill-rule="nonzero"/><path fill="#000000" d="M428.6789 349.45L428.6789 340.85626L431.64764 340.85626Q432.64764 340.85626 433.1789 340.98126Q433.91327 341.15314 434.4289 341.59064Q435.1164 342.16876 435.44452 343.075Q435.78827 343.96564 435.78827 345.10626Q435.78827 346.09064 435.5539 346.84064Q435.33514 347.59064 434.97577 348.09064Q434.6164 348.59064 434.1789 348.8719Q433.75702 349.15314 433.16327 349.3094Q432.56952 349.45 431.78827 349.45L428.6789 349.45ZM429.81952 348.4344L431.64764 348.4344Q432.50702 348.4344 432.9914 348.27814Q433.47577 348.1219 433.75702 347.825Q434.16327 347.4344 434.38202 346.7469Q434.6164 346.0594 434.6164 345.09064Q434.6164 343.7469 434.16327 343.02814Q433.72577 342.29376 433.10077 342.04376Q432.63202 341.8719 431.63202 341.8719L429.81952 341.8719L429.81952 348.4344ZM437.5539 342.075L437.5539 340.85626L438.6164 340.85626L438.6164 342.075L437.5539 342.075ZM437.5539 349.45L437.5539 343.23126L438.6164 343.23126L438.6164 349.45L437.5539 349.45ZM440.13202 347.59064L441.16327 347.4344Q441.25702 348.0594 441.64764 348.3875Q442.0539 348.71564 442.78827 348.71564Q443.50702 348.71564 443.85077 348.4344Q444.21014 348.1375 444.21014 347.73126Q444.21014 347.3719 443.89764 347.16876Q443.6789 347.02814 442.81952 346.8094Q441.66327 346.5125 441.21014 346.3094Q440.77264 346.09064 440.53827 345.71564Q440.3039 345.34064 440.3039 344.8719Q440.3039 344.46564 440.4914 344.10626Q440.6789 343.7469 441.00702 343.5125Q441.25702 343.34064 441.6789 343.21564Q442.10077 343.09064 442.60077 343.09064Q443.31952 343.09064 443.8664 343.3094Q444.4289 343.5125 444.69452 343.8719Q444.96014 344.23126 445.0539 344.825L444.02264 344.96564Q443.96014 344.4969 443.6164 344.23126Q443.28827 343.95 442.66327 343.95Q441.94452 343.95 441.63202 344.2Q441.31952 344.4344 441.31952 344.7625Q441.31952 344.96564 441.44452 345.1219Q441.58514 345.29376 441.85077 345.40314Q442.00702 345.46564 442.78827 345.66876Q443.91327 345.98126 444.35077 346.16876Q444.78827 346.35626 445.03827 346.71564Q445.28827 347.075 445.28827 347.6219Q445.28827 348.15314 444.97577 348.6219Q444.6789 349.075 444.10077 349.34064Q443.52264 349.59064 442.78827 349.59064Q441.56952 349.59064 440.9289 349.09064Q440.3039 348.575 440.13202 347.59064ZM451.6164 348.6844Q451.02264 349.1844 450.47577 349.3875Q449.94452 349.59064 449.31952 349.59064Q448.28827 349.59064 447.7414 349.09064Q447.19452 348.59064 447.19452 347.8094Q447.19452 347.35626 447.39764 346.98126Q447.60077 346.59064 447.94452 346.3719Q448.28827 346.1375 448.71014 346.02814Q449.00702 345.9344 449.64764 345.85626Q450.91327 345.71564 451.52264 345.4969Q451.52264 345.27814 451.52264 345.23126Q451.52264 344.575 451.22577 344.3094Q450.81952 343.96564 450.02264 343.96564Q449.28827 343.96564 448.9289 344.23126Q448.56952 344.48126 448.39764 345.1375L447.3664 344.9969Q447.50702 344.34064 447.83514 343.9344Q448.16327 343.52814 448.77264 343.3094Q449.38202 343.09064 450.1789 343.09064Q450.97577 343.09064 451.47577 343.27814Q451.97577 343.46564 452.21014 343.7469Q452.44452 344.02814 452.53827 344.46564Q452.58514 344.73126 452.58514 345.4344L452.58514 346.84064Q452.58514 348.3094 452.64764 348.7Q452.72577 349.09064 452.9289 349.45L451.81952 349.45Q451.66327 349.1219 451.6164 348.6844ZM451.52264 346.325Q450.94452 346.5594 449.8039 346.73126Q449.14764 346.825 448.88202 346.95Q448.6164 347.0594 448.46014 347.27814Q448.31952 347.4969 448.31952 347.77814Q448.31952 348.2 448.63202 348.48126Q448.96014 348.7625 449.56952 348.7625Q450.1789 348.7625 450.64764 348.4969Q451.13202 348.23126 451.35077 347.7625Q451.52264 347.40314 451.52264 346.71564L451.52264 346.325ZM454.35077 349.96564L455.38202 350.1219Q455.44452 350.59064 455.7414 350.8094Q456.13202 351.10626 456.8039 351.10626Q457.53827 351.10626 457.9289 350.8094Q458.33514 350.5125 458.47577 349.9969Q458.56952 349.66876 458.5539 348.6375Q457.8664 349.45 456.83514 349.45Q455.5539 349.45 454.85077 348.52814Q454.14764 347.59064 454.14764 346.3094Q454.14764 345.41876 454.46014 344.66876Q454.78827 343.90314 455.39764 343.4969Q456.00702 343.09064 456.83514 343.09064Q457.94452 343.09064 458.66327 343.98126L458.66327 343.23126L459.63202 343.23126L459.63202 348.60626Q459.63202 350.0594 459.33514 350.66876Q459.03827 351.27814 458.39764 351.6219Q457.75702 351.98126 456.81952 351.98126Q455.71014 351.98126 455.02264 351.48126Q454.33514 350.98126 454.35077 349.96564ZM455.22577 346.23126Q455.22577 347.45 455.71014 348.0125Q456.19452 348.575 456.9289 348.575Q457.66327 348.575 458.14764 348.0125Q458.64764 347.45 458.64764 346.2625Q458.64764 345.1219 458.13202 344.54376Q457.63202 343.96564 456.91327 343.96564Q456.21014 343.96564 455.71014 344.54376Q455.22577 345.10626 455.22577 346.23126ZM461.53827 349.45L461.53827 343.23126L462.4914 343.23126L462.4914 344.16876Q462.85077 343.5125 463.14764 343.3094Q463.46014 343.09064 463.83514 343.09064Q464.3664 343.09064 464.91327 343.41876L464.5539 344.40314Q464.16327 344.16876 463.78827 344.16876Q463.4289 344.16876 463.14764 344.3875Q462.88202 344.59064 462.77264 344.96564Q462.58514 345.52814 462.58514 346.1844L462.58514 349.45L461.53827 349.45ZM469.8039 347.45L470.89764 347.575Q470.64764 348.52814 469.94452 349.0594Q469.2414 349.59064 468.16327 349.59064Q466.8039 349.59064 465.9914 348.7469Q465.19452 347.90314 465.19452 346.3875Q465.19452 344.825 466.00702 343.96564Q466.81952 343.09064 468.10077 343.09064Q469.35077 343.09064 470.13202 343.9344Q470.9289 344.77814 470.9289 346.325Q470.9289 346.41876 470.9289 346.60626L466.28827 346.60626Q466.35077 347.6375 466.8664 348.1844Q467.38202 348.71564 468.16327 348.71564Q468.7414 348.71564 469.14764 348.41876Q469.56952 348.10626 469.8039 347.45ZM466.35077 345.7469L469.81952 345.7469Q469.75702 344.95 469.4289 344.5594Q468.91327 343.95 468.1164 343.95Q467.38202 343.95 466.88202 344.4344Q466.39764 344.91876 466.35077 345.7469ZM476.8039 347.45L477.89764 347.575Q477.64764 348.52814 476.94452 349.0594Q476.2414 349.59064 475.16327 349.59064Q473.8039 349.59064 472.9914 348.7469Q472.19452 347.90314 472.19452 346.3875Q472.19452 344.825 473.00702 343.96564Q473.81952 343.09064 475.10077 343.09064Q476.35077 343.09064 477.13202 343.9344Q477.9289 344.77814 477.9289 346.325Q477.9289 346.41876 477.9289 346.60626L473.28827 346.60626Q473.35077 347.6375 473.8664 348.1844Q474.38202 348.71564 475.16327 348.71564Q475.7414 348.71564 476.14764 348.41876Q476.56952 348.10626 476.8039 347.45ZM473.35077 345.7469L476.81952 345.7469Q476.75702 344.95 476.4289 344.5594Q475.91327 343.95 475.1164 343.95Q474.38202 343.95 473.88202 344.4344Q473.39764 344.91876 473.35077 345.7469Z" fill-rule="nonzero"/><path fill="#000000" d="M517.5609 346.6844L518.6234 346.59064Q518.70154 347.2469 518.9828 347.65314Q519.26404 348.0594 519.84216 348.325Q520.4359 348.575 521.1703 348.575Q521.8109 348.575 522.3109 348.3875Q522.8109 348.1844 523.0453 347.85626Q523.2953 347.5125 523.2953 347.1219Q523.2953 346.71564 523.0609 346.41876Q522.82654 346.10626 522.2953 345.90314Q521.9359 345.7625 520.7484 345.48126Q519.57654 345.2 519.1078 344.95Q518.4828 344.6219 518.1859 344.15314Q517.88904 343.66876 517.88904 343.075Q517.88904 342.4344 518.2484 341.8719Q518.6234 341.29376 519.32654 341.0125Q520.0453 340.71564 520.90466 340.71564Q521.8578 340.71564 522.59216 341.02814Q523.32654 341.325 523.71716 341.9344Q524.1078 342.52814 524.13904 343.27814L523.0453 343.35626Q522.95154 342.54376 522.4359 342.1375Q521.9359 341.71564 520.95154 341.71564Q519.9203 341.71564 519.45154 342.09064Q518.9828 342.46564 518.9828 342.9969Q518.9828 343.46564 519.3109 343.7625Q519.63904 344.0594 521.01404 344.3719Q522.40466 344.6844 522.9203 344.91876Q523.6703 345.27814 524.02966 345.8094Q524.38904 346.325 524.38904 347.02814Q524.38904 347.71564 523.9984 348.325Q523.6078 348.91876 522.8734 349.2625Q522.13904 349.59064 521.21716 349.59064Q520.0453 349.59064 519.2484 349.2625Q518.46716 348.91876 518.01404 348.23126Q517.57654 347.54376 517.5609 346.6844ZM528.1078 348.5125L528.26404 349.4344Q527.8109 349.52814 527.46716 349.52814Q526.88904 349.52814 526.57654 349.35626Q526.26404 349.16876 526.1234 348.8719Q525.9984 348.575 525.9984 347.6219L525.9984 344.04376L525.2328 344.04376L525.2328 343.23126L525.9984 343.23126L525.9984 341.6844L527.0453 341.0594L527.0453 343.23126L528.1078 343.23126L528.1078 344.04376L527.0453 344.04376L527.0453 347.6844Q527.0453 348.1375 527.09216 348.2625Q527.15466 348.3875 527.27966 348.46564Q527.40466 348.54376 527.63904 348.54376Q527.82654 348.54376 528.1078 348.5125ZM528.7953 349.45L528.7953 343.23126L529.7484 343.23126L529.7484 344.16876Q530.1078 343.5125 530.40466 343.3094Q530.71716 343.09064 531.09216 343.09064Q531.6234 343.09064 532.1703 343.41876L531.8109 344.40314Q531.4203 344.16876 531.0453 344.16876Q530.6859 344.16876 530.40466 344.3875Q530.13904 344.59064 530.02966 344.96564Q529.84216 345.52814 529.84216 346.1844L529.84216 349.45L528.7953 349.45ZM532.4203 346.34064Q532.4203 344.60626 533.3734 343.77814Q534.1703 343.09064 535.32654 343.09064Q536.6078 343.09064 537.4203 343.9344Q538.2484 344.7625 538.2484 346.2469Q538.2484 347.45 537.88904 348.1375Q537.52966 348.825 536.82654 349.21564Q536.13904 349.59064 535.32654 349.59064Q534.02966 349.59064 533.21716 348.7625Q532.4203 347.91876 532.4203 346.34064ZM533.4984 346.34064Q533.4984 347.52814 534.01404 348.1219Q534.5453 348.71564 535.32654 348.71564Q536.1234 348.71564 536.63904 348.1219Q537.15466 347.52814 537.15466 346.3094Q537.15466 345.15314 536.6234 344.5594Q536.1078 343.96564 535.32654 343.96564Q534.5453 343.96564 534.01404 344.5594Q533.4984 345.1375 533.4984 346.34064ZM539.8109 349.45L539.8109 343.23126L540.7484 343.23126L540.7484 344.10626Q541.4359 343.09064 542.7328 343.09064Q543.2953 343.09064 543.76404 343.29376Q544.2484 343.4969 544.4828 343.825Q544.71716 344.15314 544.8109 344.59064Q544.8578 344.8875 544.8578 345.6219L544.8578 349.45L543.8109 349.45L543.8109 345.66876Q543.8109 345.0125 543.6859 344.7Q543.5609 344.3875 543.2484 344.2Q542.9359 343.9969 542.51404 343.9969Q541.84216 343.9969 541.34216 344.4344Q540.8578 344.85626 540.8578 346.04376L540.8578 349.45L539.8109 349.45ZM546.6078 349.96564L547.63904 350.1219Q547.70154 350.59064 547.9984 350.8094Q548.38904 351.10626 549.0609 351.10626Q549.7953 351.10626 550.1859 350.8094Q550.59216 350.5125 550.7328 349.9969Q550.82654 349.66876 550.8109 348.6375Q550.1234 349.45 549.09216 349.45Q547.8109 349.45 547.1078 348.52814Q546.40466 347.59064 546.40466 346.3094Q546.40466 345.41876 546.71716 344.66876Q547.0453 343.90314 547.65466 343.4969Q548.26404 343.09064 549.09216 343.09064Q550.20154 343.09064 550.9203 343.98126L550.9203 343.23126L551.88904 343.23126L551.88904 348.60626Q551.88904 350.0594 551.59216 350.66876Q551.2953 351.27814 550.65466 351.6219Q550.01404 351.98126 549.07654 351.98126Q547.96716 351.98126 547.27966 351.48126Q546.59216 350.98126 546.6078 349.96564ZM547.4828 346.23126Q547.4828 347.45 547.96716 348.0125Q548.45154 348.575 549.1859 348.575Q549.9203 348.575 550.40466 348.0125Q550.90466 347.45 550.90466 346.2625Q550.90466 345.1219 550.38904 344.54376Q549.88904 343.96564 549.1703 343.96564Q548.46716 343.96564 547.96716 344.54376Q547.4828 345.10626 547.4828 346.23126ZM553.77966 349.45L553.77966 340.85626L554.84216 340.85626L554.84216 349.45L553.77966 349.45ZM556.76404 351.84064L556.63904 350.85626Q556.9828 350.95 557.2484 350.95Q557.59216 350.95 557.7953 350.825Q558.01404 350.71564 558.15466 350.5125Q558.2484 350.34064 558.4828 349.71564Q558.4984 349.6375 558.57654 349.46564L556.20154 343.23126L557.34216 343.23126L558.63904 346.825Q558.88904 347.5125 559.09216 348.27814Q559.27966 347.54376 559.52966 346.85626L560.8578 343.23126L561.90466 343.23126L559.5453 349.5594Q559.15466 350.575 558.95154 350.96564Q558.6703 351.4969 558.2953 351.73126Q557.9359 351.98126 557.4359 351.98126Q557.13904 351.98126 556.76404 351.84064ZM568.84216 349.45L568.84216 348.66876Q568.2484 349.59064 567.1078 349.59064Q566.3578 349.59064 565.7328 349.1844Q565.1078 348.7625 564.76404 348.02814Q564.4203 347.29376 564.4203 346.34064Q564.4203 345.41876 564.7328 344.65314Q565.0453 343.8875 565.6703 343.4969Q566.2953 343.09064 567.0609 343.09064Q567.6234 343.09064 568.0609 343.325Q568.4984 343.5594 568.77966 343.9344L568.77966 340.85626L569.82654 340.85626L569.82654 349.45L568.84216 349.45ZM565.51404 346.34064Q565.51404 347.54376 566.01404 348.1375Q566.51404 348.71564 567.20154 348.71564Q567.88904 348.71564 568.3734 348.15314Q568.8578 347.59064 568.8578 346.4344Q568.8578 345.15314 568.3578 344.5594Q567.8734 343.96564 567.15466 343.96564Q566.45154 343.96564 565.9828 344.54376Q565.51404 345.10626 565.51404 346.34064ZM571.8109 342.075L571.8109 340.85626L572.8734 340.85626L572.8734 342.075L571.8109 342.075ZM571.8109 349.45L571.8109 343.23126L572.8734 343.23126L572.8734 349.45L571.8109 349.45ZM574.38904 347.59064L575.4203 347.4344Q575.51404 348.0594 575.90466 348.3875Q576.3109 348.71564 577.0453 348.71564Q577.76404 348.71564 578.1078 348.4344Q578.46716 348.1375 578.46716 347.73126Q578.46716 347.3719 578.15466 347.16876Q577.9359 347.02814 577.07654 346.8094Q575.9203 346.5125 575.46716 346.3094Q575.02966 346.09064 574.7953 345.71564Q574.5609 345.34064 574.5609 344.8719Q574.5609 344.46564 574.7484 344.10626Q574.9359 343.7469 575.26404 343.5125Q575.51404 343.34064 575.9359 343.21564Q576.3578 343.09064 576.8578 343.09064Q577.57654 343.09064 578.1234 343.3094Q578.6859 343.5125 578.95154 343.8719Q579.21716 344.23126 579.3109 344.825L578.27966 344.96564Q578.21716 344.4969 577.8734 344.23126Q577.5453 343.95 576.9203 343.95Q576.20154 343.95 575.88904 344.2Q575.57654 344.4344 575.57654 344.7625Q575.57654 344.96564 575.70154 345.1219Q575.84216 345.29376 576.1078 345.40314Q576.26404 345.46564 577.0453 345.66876Q578.1703 345.98126 578.6078 346.16876Q579.0453 346.35626 579.2953 346.71564Q579.5453 347.075 579.5453 347.6219Q579.5453 348.15314 579.2328 348.6219Q578.9359 349.075 578.3578 349.34064Q577.77966 349.59064 577.0453 349.59064Q575.82654 349.59064 575.1859 349.09064Q574.5609 348.575 574.38904 347.59064ZM585.8734 348.6844Q585.27966 349.1844 584.7328 349.3875Q584.20154 349.59064 583.57654 349.59064Q582.5453 349.59064 581.9984 349.09064Q581.45154 348.59064 581.45154 347.8094Q581.45154 347.35626 581.65466 346.98126Q581.8578 346.59064 582.20154 346.3719Q582.5453 346.1375 582.96716 346.02814Q583.26404 345.9344 583.90466 345.85626Q585.1703 345.71564 585.77966 345.4969Q585.77966 345.27814 585.77966 345.23126Q585.77966 344.575 585.4828 344.3094Q585.07654 343.96564 584.27966 343.96564Q583.5453 343.96564 583.1859 344.23126Q582.82654 344.48126 582.65466 345.1375L581.6234 344.9969Q581.76404 344.34064 582.09216 343.9344Q582.4203 343.52814 583.02966 343.3094Q583.63904 343.09064 584.4359 343.09064Q585.2328 343.09064 585.7328 343.27814Q586.2328 343.46564 586.46716 343.7469Q586.70154 344.02814 586.7953 344.46564Q586.84216 344.73126 586.84216 345.4344L586.84216 346.84064Q586.84216 348.3094 586.90466 348.7Q586.9828 349.09064 587.1859 349.45L586.07654 349.45Q585.9203 349.1219 585.8734 348.6844ZM585.77966 346.325Q585.20154 346.5594 584.0609 346.73126Q583.40466 346.825 583.13904 346.95Q582.8734 347.0594 582.71716 347.27814Q582.57654 347.4969 582.57654 347.77814Q582.57654 348.2 582.88904 348.48126Q583.21716 348.7625 583.82654 348.7625Q584.4359 348.7625 584.90466 348.4969Q585.38904 348.23126 585.6078 347.7625Q585.77966 347.40314 585.77966 346.71564L585.77966 346.325ZM588.6078 349.96564L589.63904 350.1219Q589.70154 350.59064 589.9984 350.8094Q590.38904 351.10626 591.0609 351.10626Q591.7953 351.10626 592.1859 350.8094Q592.59216 350.5125 592.7328 349.9969Q592.82654 349.66876 592.8109 348.6375Q592.1234 349.45 591.09216 349.45Q589.8109 349.45 589.1078 348.52814Q588.40466 347.59064 588.40466 346.3094Q588.40466 345.41876 588.71716 344.66876Q589.0453 343.90314 589.65466 343.4969Q590.26404 343.09064 591.09216 343.09064Q592.20154 343.09064 592.9203 343.98126L592.9203 343.23126L593.88904 343.23126L593.88904 348.60626Q593.88904 350.0594 593.59216 350.66876Q593.2953 351.27814 592.65466 351.6219Q592.01404 351.98126 591.07654 351.98126Q589.96716 351.98126 589.27966 351.48126Q588.59216 350.98126 588.6078 349.96564ZM589.4828 346.23126Q589.4828 347.45 589.96716 348.0125Q590.45154 348.575 591.1859 348.575Q591.9203 348.575 592.40466 348.0125Q592.90466 347.45 592.90466 346.2625Q592.90466 345.1219 592.38904 344.54376Q591.88904 343.96564 591.1703 343.96564Q590.46716 343.96564 589.96716 344.54376Q589.4828 345.10626 589.4828 346.23126ZM595.7953 349.45L595.7953 343.23126L596.7484 343.23126L596.7484 344.16876Q597.1078 343.5125 597.40466 343.3094Q597.71716 343.09064 598.09216 343.09064Q598.6234 343.09064 599.1703 343.41876L598.8109 344.40314Q598.4203 344.16876 598.0453 344.16876Q597.6859 344.16876 597.40466 344.3875Q597.13904 344.59064 597.02966 344.96564Q596.84216 345.52814 596.84216 346.1844L596.84216 349.45L595.7953 349.45ZM604.0609 347.45L605.15466 347.575Q604.90466 348.52814 604.20154 349.0594Q603.4984 349.59064 602.4203 349.59064Q601.0609 349.59064 600.2484 348.7469Q599.45154 347.90314 599.45154 346.3875Q599.45154 344.825 600.26404 343.96564Q601.07654 343.09064 602.3578 343.09064Q603.6078 343.09064 604.38904 343.9344Q605.1859 344.77814 605.1859 346.325Q605.1859 346.41876 605.1859 346.60626L600.5453 346.60626Q600.6078 347.6375 601.1234 348.1844Q601.63904 348.71564 602.4203 348.71564Q602.9984 348.71564 603.40466 348.41876Q603.82654 348.10626 604.0609 347.45ZM600.6078 345.7469L604.07654 345.7469Q604.01404 344.95 603.6859 344.5594Q603.1703 343.95 602.3734 343.95Q601.63904 343.95 601.13904 344.4344Q600.65466 344.91876 600.6078 345.7469ZM611.0609 347.45L612.15466 347.575Q611.90466 348.52814 611.20154 349.0594Q610.4984 349.59064 609.4203 349.59064Q608.0609 349.59064 607.2484 348.7469Q606.45154 347.90314 606.45154 346.3875Q606.45154 344.825 607.26404 343.96564Q608.07654 343.09064 609.3578 343.09064Q610.6078 343.09064 611.38904 343.9344Q612.1859 344.77814 612.1859 346.325Q612.1859 346.41876 612.1859 346.60626L607.5453 346.60626Q607.6078 347.6375 608.1234 348.1844Q608.63904 348.71564 609.4203 348.71564Q609.9984 348.71564 610.40466 348.41876Q610.82654 348.10626 611.0609 347.45ZM607.6078 345.7469L611.07654 345.7469Q611.01404 344.95 610.6859 344.5594Q610.1703 343.95 609.3734 343.95Q608.63904 343.95 608.13904 344.4344Q607.65466 344.91876 607.6078 345.7469Z" fill-rule="nonzero"/></svg>