<svg version="1.1" viewBox="0.0 0.0 600.0 371.0" fill="none" stroke="none" stroke-linecap="square" stroke-miterlimit="10" width="600" height="371" xmlns:xlink="http://www.w3.org/1999/xlink" xmlns="http://www.w3.org/2000/svg"><path fill="#ffffff" d="M0 0L600.0 0L600.0 371.0L0 371.0L0 0Z" fill-rule="nonzero"/><path stroke="#333333" stroke-width="1.0" stroke-linecap="butt" d="M42.5 332.5L581.5 332.5" fill-rule="nonzero"/><path stroke="#cccccc" stroke-width="1.0" stroke-linecap="butt" d="M42.5 270.5L581.5 270.5" fill-rule="nonzero"/><path stroke="#cccccc" stroke-width="1.0" stroke-linecap="butt" d="M42.5 209.5L581.5 209.5" fill-rule="nonzero"/><path stroke="#cccccc" stroke-width="1.0" stroke-linecap="butt" d="M42.5 147.5L581.5 147.5" fill-rule="nonzero"/><path stroke="#cccccc" stroke-width="1.0" stroke-linecap="butt" d="M42.5 86.5L581.5 86.5" fill-rule="nonzero"/><path stroke="#cccccc" stroke-width="1.0" stroke-linecap="butt" d="M42.5 24.5L581.5 24.5" fill-rule="nonzero"/><clipPath id="id_0"><path d="M42.55 24.55L581.45 24.55L581.45 332.45L42.55 332.45L42.55 24.55Z" clip-rule="nonzero"/></clipPath><path stroke="#000000" stroke-width="2.0" stroke-linecap="butt" stroke-opacity="0.0" clip-path="url(#id_0)" d="M204.0 332.0L99.0 332.0L99.0 27.0C99.0 25.89543 99.89543 25.0 101.0 25.0L202.0 25.0C203.10457 25.0 204.0 25.89543 204.0 27.0Z" fill-rule="nonzero"/><path fill="#1d70b8" clip-path="url(#id_0)" d="M204.0 332.0L99.0 332.0L99.0 27.0C99.0 25.89543 99.89543 25.0 101.0 25.0L202.0 25.0C203.10457 25.0 204.0 25.89543 204.0 27.0Z" fill-rule="nonzero"/><path stroke="#000000" stroke-width="2.0" stroke-linecap="butt" stroke-opacity="0.0" clip-path="url(#id_0)" d="M365.0 332.0L260.0 332.0L260.0 150.0C260.0 148.89543 260.89542 148.0 262.0 148.0L363.0 148.0C364.10458 148.0 365.0 148.89543 365.0 150.0Z" fill-rule="nonzero"/><path fill="#1d70b8" clip-path="url(#id_0)" d="M365.0 332.0L260.0 332.0L260.0 150.0C260.0 148.89543 260.89542 148.0 262.0 148.0L363.0 148.0C364.10458 148.0 365.0 148.89543 365.0 150.0Z" fill-rule="nonzero"/><path stroke="#000000" stroke-width="2.0" stroke-linecap="butt" stroke-opacity="0.0" clip-path="url(#id_0)" d="M526.0 332.0L421.0 332.0L421.0 181.0C421.0 179.89543 421.89542 179.0 423.0 179.0L524.0 179.0C525.10455 179.0 526.0 179.89543 526.0 181.0Z" fill-rule="nonzero"/><path fill="#1d70b8" clip-path="url(#id_0)" d="M526.0 332.0L421.0 332.0L421.0 181.0C421.0 179.89543 421.89542 179.0 423.0 179.0L524.0 179.0C525.10455 179.0 526.0 179.89543 526.0 181.0Z" fill-rule="nonzero"/><path fill="#000000" d="M36.221874 331.6375Q36.221874 332.5125 36.08125 333.23126Q35.940624 333.95 35.6125 334.48126Q35.3 334.9969 34.784374 335.27814Q34.26875 335.5594 33.51875 335.5594Q32.8 335.5594 32.3 335.3094Q31.815624 335.04376 31.51875 334.5594Q31.221874 334.0594 31.096874 333.34064Q30.971874 332.60626 30.971874 331.66876Q30.971874 330.8094 31.1125 330.09064Q31.253124 329.35626 31.565624 328.84064Q31.89375 328.325 32.409374 328.04376Q32.925 327.7625 33.675 327.7625Q34.39375 327.7625 34.878124 328.0125Q35.3625 328.2625 35.659374 328.7625Q35.971874 329.2625 36.096874 329.98126Q36.221874 330.7 36.221874 331.6375ZM35.190624 331.71564Q35.190624 331.1375 35.14375 330.7Q35.096874 330.2469 35.01875 329.90314Q34.940624 329.54376 34.815624 329.29376Q34.690624 329.04376 34.51875 328.8875Q34.346874 328.73126 34.1125 328.65314Q33.89375 328.575 33.6125 328.575Q33.1125 328.575 32.8 328.8094Q32.4875 329.04376 32.3 329.46564Q32.128124 329.8719 32.065624 330.41876Q32.003124 330.96564 32.003124 331.60626Q32.003124 332.45 32.08125 333.04376Q32.175 333.6375 32.3625 334.0125Q32.565624 334.3875 32.8625 334.5594Q33.159374 334.73126 33.58125 334.73126Q33.909374 334.73126 34.14375 334.6375Q34.39375 334.52814 34.565624 334.34064Q34.753124 334.1375 34.8625 333.85626Q34.9875 333.575 35.05 333.2469Q35.128124 332.91876 35.159374 332.52814Q35.190624 332.1375 35.190624 331.71564Z" fill-rule="nonzero"/><path fill="#000000" d="M35.971874 273.4325Q35.971874 273.54187 35.95625 273.62Q35.940624 273.69812 35.909374 273.76062Q35.878124 273.82312 35.83125 273.85437Q35.8 273.87 35.7375 273.87L31.55 273.87Q31.471874 273.87 31.409374 273.85437Q31.346874 273.82312 31.3 273.77625Q31.253124 273.72937 31.2375 273.65125Q31.221874 273.5575 31.221874 273.4325Q31.221874 273.3075 31.221874 273.22937Q31.2375 273.13562 31.26875 273.07312Q31.3 272.995 31.33125 272.9325Q31.378124 272.87 31.45625 272.79187L32.925 271.22937Q33.440624 270.69812 33.7375 270.27625Q34.05 269.83875 34.20625 269.495Q34.378124 269.13562 34.425 268.85437Q34.4875 268.5575 34.4875 268.3075Q34.4875 268.0575 34.409374 267.83875Q34.33125 267.60437 34.175 267.4325Q34.01875 267.26062 33.784374 267.16687Q33.55 267.07312 33.2375 267.07312Q32.878124 267.07312 32.596874 267.16687Q32.315624 267.26062 32.096874 267.38562Q31.89375 267.495 31.7375 267.60437Q31.596874 267.69812 31.534374 267.69812Q31.4875 267.69812 31.45625 267.6825Q31.425 267.65125 31.39375 267.60437Q31.378124 267.54187 31.3625 267.46375Q31.3625 267.37 31.3625 267.245Q31.3625 267.16687 31.3625 267.10437Q31.378124 267.02625 31.378124 266.97937Q31.39375 266.9325 31.409374 266.90125Q31.440624 266.85437 31.503124 266.79187Q31.58125 266.72937 31.753124 266.63562Q31.940624 266.52625 32.190624 266.4325Q32.45625 266.32312 32.76875 266.26062Q33.08125 266.1825 33.425 266.1825Q33.971874 266.1825 34.378124 266.33875Q34.8 266.47937 35.065624 266.76062Q35.346874 267.02625 35.471874 267.38562Q35.6125 267.745 35.6125 268.15125Q35.6125 268.51062 35.55 268.87Q35.4875 269.22937 35.284374 269.65125Q35.08125 270.07312 34.675 270.58875Q34.284374 271.08875 33.64375 271.76062L32.440624 273.01062L35.7375 273.01062Q35.784374 273.01062 35.83125 273.04187Q35.878124 273.07312 35.909374 273.12Q35.940624 273.16687 35.95625 273.245Q35.971874 273.32312 35.971874 273.4325Z" fill-rule="nonzero"/><path fill="#000000" d="M36.284374 210.13374Q36.284374 210.32124 36.221874 210.44624Q36.175 210.55562 36.065624 210.55562L35.20625 210.55562L35.20625 212.14937Q35.20625 212.19624 35.175 212.2275Q35.159374 212.25874 35.096874 212.29Q35.05 212.30562 34.95625 212.30562Q34.8625 212.32124 34.70625 212.32124Q34.565624 212.32124 34.471874 212.30562Q34.378124 212.30562 34.315624 212.29Q34.26875 212.25874 34.253124 212.2275Q34.2375 212.19624 34.2375 212.14937L34.2375 210.55562L31.096874 210.55562Q31.034374 210.55562 30.9875 210.54Q30.940624 210.50874 30.89375 210.46187Q30.8625 210.415 30.846874 210.33687Q30.83125 210.24312 30.83125 210.1025Q30.83125 209.99312 30.83125 209.915Q30.846874 209.82124 30.8625 209.74312Q30.878124 209.665 30.909374 209.6025Q30.940624 209.54 30.971874 209.46187L33.70625 204.8525Q33.7375 204.80562 33.784374 204.77437Q33.846874 204.74312 33.925 204.7275Q34.01875 204.69624 34.14375 204.68062Q34.284374 204.665 34.45625 204.665Q34.659374 204.665 34.8 204.68062Q34.940624 204.69624 35.01875 204.7275Q35.1125 204.74312 35.159374 204.79Q35.20625 204.82124 35.20625 204.88374L35.20625 209.71187L36.065624 209.71187Q36.159374 209.71187 36.221874 209.82124Q36.284374 209.915 36.284374 210.13374ZM34.2375 205.55562L34.221874 205.55562L31.753124 209.71187L34.2375 209.71187L34.2375 205.55562Z" fill-rule="nonzero"/><path fill="#000000" d="M36.159374 148.25688Q36.159374 148.75688 36.003124 149.22563Q35.846874 149.67876 35.534374 150.03813Q35.221874 150.3975 34.7375 150.61626Q34.253124 150.81938 33.58125 150.81938Q33.1125 150.81938 32.7375 150.71Q32.378124 150.585 32.1125 150.36626Q31.846874 150.1475 31.659374 149.835Q31.4875 149.5225 31.378124 149.11626Q31.26875 148.71 31.221874 148.24126Q31.175 147.75688 31.175 147.19438Q31.175 146.71 31.221874 146.21Q31.284374 145.71 31.409374 145.25688Q31.55 144.78813 31.784374 144.38188Q32.01875 143.97563 32.3625 143.67876Q32.70625 143.36626 33.190624 143.19438Q33.690624 143.0225 34.33125 143.0225Q34.55 143.0225 34.76875 143.05376Q34.9875 143.06938 35.175 143.11626Q35.3625 143.16313 35.4875 143.22563Q35.628124 143.2725 35.659374 143.30376Q35.70625 143.335 35.721874 143.38188Q35.753124 143.41313 35.753124 143.46Q35.76875 143.49126 35.76875 143.55376Q35.784374 143.60063 35.784374 143.69438Q35.784374 143.78813 35.784374 143.86626Q35.784374 143.94438 35.753124 143.99126Q35.7375 144.03813 35.70625 144.06938Q35.675 144.085 35.6125 144.085Q35.55 144.085 35.440624 144.05376Q35.33125 144.00688 35.175 143.96Q35.01875 143.91313 34.784374 143.86626Q34.565624 143.81938 34.26875 143.81938Q33.721874 143.81938 33.33125 144.05376Q32.940624 144.2725 32.690624 144.6475Q32.440624 145.0225 32.315624 145.5225Q32.190624 146.00688 32.175 146.55376Q32.33125 146.46 32.51875 146.38188Q32.70625 146.28813 32.925 146.22563Q33.159374 146.1475 33.409374 146.10063Q33.675 146.05376 33.95625 146.05376Q34.565624 146.05376 34.9875 146.22563Q35.409374 146.3975 35.675 146.69438Q35.940624 146.97563 36.05 147.38188Q36.159374 147.78813 36.159374 148.25688ZM35.14375 148.35063Q35.14375 148.00688 35.065624 147.72563Q35.003124 147.44438 34.846874 147.25688Q34.690624 147.06938 34.425 146.96Q34.159374 146.85063 33.76875 146.85063Q33.55 146.85063 33.33125 146.8975Q33.128124 146.92876 32.925 147.00688Q32.721874 147.06938 32.534374 147.16313Q32.346874 147.24126 32.190624 147.35063Q32.190624 148.10063 32.284374 148.61626Q32.39375 149.13188 32.565624 149.44438Q32.753124 149.74126 33.034374 149.88188Q33.315624 150.00688 33.675 150.00688Q34.05 150.00688 34.33125 149.86626Q34.6125 149.72563 34.784374 149.49126Q34.971874 149.25688 35.05 148.96Q35.14375 148.66313 35.14375 148.35063Z" fill-rule="nonzero"/><path fill="#000000" d="M36.14375 87.17687Q36.14375 87.67687 35.95625 88.0675Q35.784374 88.4425 35.45625 88.70812Q35.128124 88.97375 34.64375 89.11437Q34.159374 89.23937 33.534374 89.23937Q32.940624 89.23937 32.471874 89.11437Q32.01875 88.98937 31.690624 88.755Q31.378124 88.52062 31.20625 88.17687Q31.034374 87.8175 31.034374 87.36437Q31.034374 87.005 31.14375 86.70812Q31.26875 86.41125 31.4875 86.16125Q31.70625 85.89562 32.01875 85.67687Q32.346874 85.45812 32.753124 85.255Q32.409374 85.08312 32.128124 84.88Q31.8625 84.67687 31.675 84.4425Q31.4875 84.20812 31.39375 83.9425Q31.3 83.66125 31.3 83.34875Q31.3 82.9425 31.440624 82.59875Q31.58125 82.255 31.8625 82.005Q32.159374 81.73937 32.6125 81.59875Q33.065624 81.4425 33.659374 81.4425Q34.2375 81.4425 34.64375 81.58312Q35.065624 81.70812 35.33125 81.95812Q35.6125 82.1925 35.7375 82.52062Q35.878124 82.83312 35.878124 83.1925Q35.878124 83.505 35.76875 83.78625Q35.675 84.05187 35.4875 84.30187Q35.3 84.53625 35.01875 84.755Q34.753124 84.97375 34.409374 85.16125Q34.815624 85.36437 35.14375 85.58312Q35.471874 85.80187 35.690624 86.05187Q35.909374 86.28625 36.01875 86.5675Q36.14375 86.84875 36.14375 87.17687ZM34.878124 83.28625Q34.878124 83.05187 34.784374 82.84875Q34.70625 82.64562 34.534374 82.505Q34.378124 82.36437 34.128124 82.30187Q33.89375 82.22375 33.58125 82.22375Q32.940624 82.22375 32.6125 82.52062Q32.3 82.80187 32.3 83.28625Q32.3 83.52062 32.378124 83.72375Q32.45625 83.91125 32.6125 84.09875Q32.784374 84.27062 33.034374 84.4425Q33.3 84.59875 33.64375 84.78625Q34.2375 84.47375 34.55 84.11437Q34.878124 83.73937 34.878124 83.28625ZM35.128124 87.28625Q35.128124 87.02062 35.01875 86.80187Q34.925 86.58312 34.721874 86.39562Q34.51875 86.1925 34.20625 86.02062Q33.909374 85.84875 33.51875 85.64562Q33.14375 85.83312 32.8625 86.02062Q32.596874 86.1925 32.409374 86.39562Q32.2375 86.58312 32.14375 86.80187Q32.05 87.005 32.05 87.27062Q32.05 87.83312 32.440624 88.14562Q32.83125 88.45812 33.596874 88.45812Q34.346874 88.45812 34.7375 88.14562Q35.128124 87.83312 35.128124 87.28625Z" fill-rule="nonzero"/><path fill="#000000" d="M29.9875 27.14375Q29.9875 27.26875 29.95625 27.346874Q29.940624 27.409374 29.909374 27.45625Q29.89375 27.503124 29.846874 27.534374Q29.815624 27.55 29.76875 27.55L25.815624 27.55Q25.76875 27.55 25.7375 27.534374Q25.70625 27.503124 25.659374 27.45625Q25.628124 27.409374 25.6125 27.346874Q25.596874 27.26875 25.596874 27.14375Q25.596874 27.05 25.6125 26.971874Q25.628124 26.89375 25.659374 26.846874Q25.690624 26.8 25.721874 26.76875Q25.76875 26.7375 25.815624 26.7375L27.39375 26.7375L27.39375 20.971874L25.925 21.846874Q25.815624 21.909374 25.7375 21.925Q25.675 21.925 25.628124 21.89375Q25.596874 21.846874 25.58125 21.76875Q25.565624 21.675 25.565624 21.55Q25.565624 21.440624 25.565624 21.378124Q25.58125 21.3 25.596874 21.253124Q25.628124 21.20625 25.659374 21.175Q25.690624 21.14375 25.7375 21.096874L27.4875 19.9875Q27.503124 19.971874 27.534374 19.95625Q27.58125 19.940624 27.628124 19.940624Q27.690624 19.925 27.753124 19.925Q27.83125 19.909374 27.925 19.909374Q28.065624 19.909374 28.159374 19.925Q28.253124 19.940624 28.3 19.95625Q28.3625 19.971874 28.378124 20.01875Q28.39375 20.05 28.39375 20.08125L28.39375 26.7375L29.76875 26.7375Q29.815624 26.7375 29.846874 26.76875Q29.89375 26.8 29.925 26.846874Q29.95625 26.89375 29.971874 26.971874Q29.9875 27.05 29.9875 27.14375ZM36.221874 23.7375Q36.221874 24.6125 36.08125 25.33125Q35.940624 26.05 35.6125 26.58125Q35.3 27.096874 34.784374 27.378124Q34.26875 27.659374 33.51875 27.659374Q32.8 27.659374 32.3 27.409374Q31.815624 27.14375 31.51875 26.659374Q31.221874 26.159374 31.096874 25.440624Q30.971874 24.70625 30.971874 23.76875Q30.971874 22.909374 31.1125 22.190624Q31.253124 21.45625 31.565624 20.940624Q31.89375 20.425 32.409374 20.14375Q32.925 19.8625 33.675 19.8625Q34.39375 19.8625 34.878124 20.1125Q35.3625 20.3625 35.659374 20.8625Q35.971874 21.3625 36.096874 22.08125Q36.221874 22.8 36.221874 23.7375ZM35.190624 23.815624Q35.190624 23.2375 35.14375 22.8Q35.096874 22.346874 35.01875 22.003124Q34.940624 21.64375 34.815624 21.39375Q34.690624 21.14375 34.51875 20.9875Q34.346874 20.83125 34.1125 20.753124Q33.89375 20.675 33.6125 20.675Q33.1125 20.675 32.8 20.909374Q32.4875 21.14375 32.3 21.565624Q32.128124 21.971874 32.065624 22.51875Q32.003124 23.065624 32.003124 23.70625Q32.003124 24.55 32.08125 25.14375Q32.175 25.7375 32.3625 26.1125Q32.565624 26.4875 32.8625 26.659374Q33.159374 26.83125 33.58125 26.83125Q33.909374 26.83125 34.14375 26.7375Q34.39375 26.628124 34.565624 26.440624Q34.753124 26.2375 34.8625 25.95625Q34.9875 25.675 35.05 25.346874Q35.128124 25.01875 35.159374 24.628124Q35.190624 24.2375 35.190624 23.815624Z" fill-rule="nonzero"/><path fill="#000000" d="M143.97807 349.45L143.97807 345.8094L140.66557 340.85626L142.0562 340.85626L143.7437 343.45Q144.21245 344.16876 144.6187 344.90314Q145.00932 344.23126 145.5562 343.3875L147.22807 340.85626L148.54057 340.85626L145.1187 345.8094L145.1187 349.45L143.97807 349.45ZM152.6812 347.45L153.77495 347.575Q153.52495 348.52814 152.82182 349.0594Q152.1187 349.59064 151.04057 349.59064Q149.6812 349.59064 148.8687 348.7469Q148.07182 347.90314 148.07182 346.3875Q148.07182 344.825 148.88432 343.96564Q149.69682 343.09064 150.97807 343.09064Q152.22807 343.09064 153.00932 343.9344Q153.8062 344.77814 153.8062 346.325Q153.8062 346.41876 153.8062 346.60626L149.16557 346.60626Q149.22807 347.6375 149.7437 348.1844Q150.25932 348.71564 151.04057 348.71564Q151.6187 348.71564 152.02495 348.41876Q152.44682 348.10626 152.6812 347.45ZM149.22807 345.7469L152.69682 345.7469Q152.63432 344.95 152.3062 344.5594Q151.79057 343.95 150.9937 343.95Q150.25932 343.95 149.75932 344.4344Q149.27495 344.91876 149.22807 345.7469ZM155.00932 347.59064L156.04057 347.4344Q156.13432 348.0594 156.52495 348.3875Q156.9312 348.71564 157.66557 348.71564Q158.38432 348.71564 158.72807 348.4344Q159.08745 348.1375 159.08745 347.73126Q159.08745 347.3719 158.77495 347.16876Q158.5562 347.02814 157.69682 346.8094Q156.54057 346.5125 156.08745 346.3094Q155.64995 346.09064 155.41557 345.71564Q155.1812 345.34064 155.1812 344.8719Q155.1812 344.46564 155.3687 344.10626Q155.5562 343.7469 155.88432 343.5125Q156.13432 343.34064 156.5562 343.21564Q156.97807 343.09064 157.47807 343.09064Q158.19682 343.09064 158.7437 343.3094Q159.3062 343.5125 159.57182 343.8719Q159.83745 344.23126 159.9312 344.825L158.89995 344.96564Q158.83745 344.4969 158.4937 344.23126Q158.16557 343.95 157.54057 343.95Q156.82182 343.95 156.50932 344.2Q156.19682 344.4344 156.19682 344.7625Q156.19682 344.96564 156.32182 345.1219Q156.46245 345.29376 156.72807 345.40314Q156.88432 345.46564 157.66557 345.66876Q158.79057 345.98126 159.22807 346.16876Q159.66557 346.35626 159.91557 346.71564Q160.16557 347.075 160.16557 347.6219Q160.16557 348.15314 159.85307 348.6219Q159.5562 349.075 158.97807 349.34064Q158.39995 349.59064 157.66557 349.59064Q156.44682 349.59064 155.8062 349.09064Q155.1812 348.575 155.00932 347.59064Z" fill-rule="nonzero"/><path fill="#000000" d="M304.92188 349.45L304.92188 340.85626L306.07812 340.85626L310.59375 347.60626L310.59375 340.85626L311.6875 340.85626L311.6875 349.45L310.51562 349.45L306.0 342.7L306.0 349.45L304.92188 349.45ZM313.40625 346.34064Q313.40625 344.60626 314.35938 343.77814Q315.15625 343.09064 316.3125 343.09064Q317.59375 343.09064 318.40625 343.9344Q319.23438 344.7625 319.23438 346.2469Q319.23438 347.45 318.875 348.1375Q318.51562 348.825 317.8125 349.21564Q317.125 349.59064 316.3125 349.59064Q315.01562 349.59064 314.20312 348.7625Q313.40625 347.91876 313.40625 346.34064ZM314.48438 346.34064Q314.48438 347.52814 315.0 348.1219Q315.53125 348.71564 316.3125 348.71564Q317.10938 348.71564 317.625 348.1219Q318.14062 347.52814 318.14062 346.3094Q318.14062 345.15314 317.60938 344.5594Q317.09375 343.96564 316.3125 343.96564Q315.53125 343.96564 315.0 344.5594Q314.48438 345.1375 314.48438 346.34064Z" fill-rule="nonzero"/><path fill="#000000" d="M437.99066 349.45L437.99066 340.85626L439.11566 340.85626L439.11566 349.45L437.99066 349.45ZM447.72504 348.6844Q447.1313 349.1844 446.5844 349.3875Q446.05316 349.59064 445.42816 349.59064Q444.3969 349.59064 443.85004 349.09064Q443.30316 348.59064 443.30316 347.8094Q443.30316 347.35626 443.5063 346.98126Q443.7094 346.59064 444.05316 346.3719Q444.3969 346.1375 444.8188 346.02814Q445.11566 345.9344 445.7563 345.85626Q447.0219 345.71564 447.6313 345.4969Q447.6313 345.27814 447.6313 345.23126Q447.6313 344.575 447.3344 344.3094Q446.92816 343.96564 446.1313 343.96564Q445.3969 343.96564 445.03754 344.23126Q444.67816 344.48126 444.5063 345.1375L443.47504 344.9969Q443.61566 344.34064 443.9438 343.9344Q444.2719 343.52814 444.8813 343.3094Q445.49066 343.09064 446.28754 343.09064Q447.0844 343.09064 447.5844 343.27814Q448.0844 343.46564 448.3188 343.7469Q448.55316 344.02814 448.6469 344.46564Q448.6938 344.73126 448.6938 345.4344L448.6938 346.84064Q448.6938 348.3094 448.7563 348.7Q448.8344 349.09064 449.03754 349.45L447.92816 349.45Q447.7719 349.1219 447.72504 348.6844ZM447.6313 346.325Q447.05316 346.5594 445.91254 346.73126Q445.2563 346.825 444.99066 346.95Q444.72504 347.0594 444.5688 347.27814Q444.42816 347.4969 444.42816 347.77814Q444.42816 348.2 444.74066 348.48126Q445.0688 348.7625 445.67816 348.7625Q446.28754 348.7625 446.7563 348.4969Q447.24066 348.23126 447.4594 347.7625Q447.6313 347.40314 447.6313 346.71564L447.6313 346.325ZM450.66254 349.45L450.66254 343.23126L451.60004 343.23126L451.60004 344.10626Q451.8969 343.6375 452.3813 343.3719Q452.86566 343.09064 453.49066 343.09064Q454.17816 343.09064 454.61566 343.3719Q455.0688 343.65314 455.24066 344.16876Q455.99066 343.09064 457.16254 343.09064Q458.10004 343.09064 458.5844 343.60626Q459.0844 344.10626 459.0844 345.1844L459.0844 349.45L458.03754 349.45L458.03754 345.52814Q458.03754 344.90314 457.92816 344.6219Q457.8344 344.34064 457.5688 344.16876Q457.30316 343.9969 456.92816 343.9969Q456.2719 343.9969 455.8344 344.4344Q455.41254 344.8719 455.41254 345.84064L455.41254 349.45L454.35004 349.45L454.35004 345.40314Q454.35004 344.7 454.0844 344.35626Q453.8344 343.9969 453.2563 343.9969Q452.80316 343.9969 452.42816 344.23126Q452.05316 344.46564 451.8813 344.91876Q451.7094 345.3719 451.7094 346.21564L451.7094 349.45L450.66254 349.45ZM464.66254 349.45L464.66254 343.23126L465.60004 343.23126L465.60004 344.10626Q466.28754 343.09064 467.5844 343.09064Q468.1469 343.09064 468.61566 343.29376Q469.10004 343.4969 469.3344 343.825Q469.5688 344.15314 469.66254 344.59064Q469.7094 344.8875 469.7094 345.6219L469.7094 349.45L468.66254 349.45L468.66254 345.66876Q468.66254 345.0125 468.53754 344.7Q468.41254 344.3875 468.10004 344.2Q467.78754 343.9969 467.36566 343.9969Q466.6938 343.9969 466.1938 344.4344Q465.7094 344.85626 465.7094 346.04376L465.7094 349.45L464.66254 349.45ZM471.2719 346.34064Q471.2719 344.60626 472.22504 343.77814Q473.0219 343.09064 474.17816 343.09064Q475.4594 343.09064 476.2719 343.9344Q477.10004 344.7625 477.10004 346.2469Q477.10004 347.45 476.74066 348.1375Q476.3813 348.825 475.67816 349.21564Q474.99066 349.59064 474.17816 349.59064Q472.8813 349.59064 472.0688 348.7625Q471.2719 347.91876 471.2719 346.34064ZM472.35004 346.34064Q472.35004 347.52814 472.86566 348.1219Q473.3969 348.71564 474.17816 348.71564Q474.97504 348.71564 475.49066 348.1219Q476.0063 347.52814 476.0063 346.3094Q476.0063 345.15314 475.47504 344.5594Q474.9594 343.96564 474.17816 343.96564Q473.3969 343.96564 472.86566 344.5594Q472.35004 345.1375 472.35004 346.34064ZM480.9594 348.5125L481.11566 349.4344Q480.66254 349.52814 480.3188 349.52814Q479.74066 349.52814 479.42816 349.35626Q479.11566 349.16876 478.97504 348.8719Q478.85004 348.575 478.85004 347.6219L478.85004 344.04376L478.0844 344.04376L478.0844 343.23126L478.85004 343.23126L478.85004 341.6844L479.8969 341.0594L479.8969 343.23126L480.9594 343.23126L480.9594 344.04376L479.8969 344.04376L479.8969 347.6844Q479.8969 348.1375 479.9438 348.2625Q480.0063 348.3875 480.1313 348.46564Q480.2563 348.54376 480.49066 348.54376Q480.67816 348.54376 480.9594 348.5125ZM484.24066 347.59064L485.2719 347.4344Q485.36566 348.0594 485.7563 348.3875Q486.16254 348.71564 486.8969 348.71564Q487.61566 348.71564 487.9594 348.4344Q488.3188 348.1375 488.3188 347.73126Q488.3188 347.3719 488.0063 347.16876Q487.78754 347.02814 486.92816 346.8094Q485.7719 346.5125 485.3188 346.3094Q484.8813 346.09064 484.6469 345.71564Q484.41254 345.34064 484.41254 344.8719Q484.41254 344.46564 484.60004 344.10626Q484.78754 343.7469 485.11566 343.5125Q485.36566 343.34064 485.78754 343.21564Q486.2094 343.09064 486.7094 343.09064Q487.42816 343.09064 487.97504 343.3094Q488.53754 343.5125 488.80316 343.8719Q489.0688 344.23126 489.16254 344.825L488.1313 344.96564Q488.0688 344.4969 487.72504 344.23126Q487.3969 343.95 486.7719 343.95Q486.05316 343.95 485.74066 344.2Q485.42816 344.4344 485.42816 344.7625Q485.42816 344.96564 485.55316 345.1219Q485.6938 345.29376 485.9594 345.40314Q486.11566 345.46564 486.8969 345.66876Q488.0219 345.98126 488.4594 346.16876Q488.8969 346.35626 489.1469 346.71564Q489.3969 347.075 489.3969 347.6219Q489.3969 348.15314 489.0844 348.6219Q488.78754 349.075 488.2094 349.34064Q487.6313 349.59064 486.8969 349.59064Q485.67816 349.59064 485.03754 349.09064Q484.41254 348.575 484.24066 347.59064ZM495.74066 349.45L495.74066 348.52814Q495.0063 349.59064 493.7563 349.59064Q493.2094 349.59064 492.72504 349.3875Q492.2563 349.16876 492.0219 348.85626Q491.78754 348.52814 491.6938 348.0594Q491.6313 347.7625 491.6313 347.075L491.6313 343.23126L492.6938 343.23126L492.6938 346.6844Q492.6938 347.4969 492.7563 347.79376Q492.85004 348.2 493.16254 348.45Q493.49066 348.6844 493.97504 348.6844Q494.4438 348.6844 494.85004 348.45Q495.2719 348.2 495.4438 347.77814Q495.6313 347.35626 495.6313 346.5594L495.6313 343.23126L496.67816 343.23126L496.67816 349.45L495.74066 349.45ZM498.6469 349.45L498.6469 343.23126L499.60004 343.23126L499.60004 344.16876Q499.9594 343.5125 500.2563 343.3094Q500.5688 343.09064 500.9438 343.09064Q501.47504 343.09064 502.0219 343.41876L501.66254 344.40314Q501.2719 344.16876 500.8969 344.16876Q500.53754 344.16876 500.2563 344.3875Q499.99066 344.59064 499.8813 344.96564Q499.6938 345.52814 499.6938 346.1844L499.6938 349.45L498.6469 349.45ZM506.91254 347.45L508.0063 347.575Q507.7563 348.52814 507.05316 349.0594Q506.35004 349.59064 505.2719 349.59064Q503.91254 349.59064 503.10004 348.7469Q502.30316 347.90314 502.30316 346.3875Q502.30316 344.825 503.11566 343.96564Q503.92816 343.09064 505.2094 343.09064Q506.4594 343.09064 507.24066 343.9344Q508.03754 344.77814 508.03754 346.325Q508.03754 346.41876 508.03754 346.60626L503.3969 346.60626Q503.4594 347.6375 503.97504 348.1844Q504.49066 348.71564 505.2719 348.71564Q505.85004 348.71564 506.2563 348.41876Q506.67816 348.10626 506.91254 347.45ZM503.4594 345.7469L506.92816 345.7469Q506.86566 344.95 506.53754 344.5594Q506.0219 343.95 505.22504 343.95Q504.49066 343.95 503.99066 344.4344Q503.5063 344.91876 503.4594 345.7469Z" fill-rule="nonzero"/></svg>