<?xml version="1.0" encoding="UTF-8"?>
<svg width="1800px" height="1113px" viewBox="0 0 1800 1113" version="1.1" xmlns="http://www.w3.org/2000/svg" xmlns:xlink="http://www.w3.org/1999/xlink">
    <title>Q18</title>
    <defs>
        <polygon id="path-1" points="-4.26325641e-14 -3.19744231e-14 1616.7 -3.19744231e-14 1616.7 923.7 -4.26325641e-14 923.7"></polygon>
        <polygon id="path-3" points="-4.26325641e-14 -3.19744231e-14 1616.7 -3.19744231e-14 1616.7 923.7 -4.26325641e-14 923.7"></polygon>
        <polygon id="path-5" points="-4.26325641e-14 -3.19744231e-14 1616.7 -3.19744231e-14 1616.7 923.7 -4.26325641e-14 923.7"></polygon>
        <polygon id="path-7" points="-4.26325641e-14 -3.19744231e-14 1616.7 -3.19744231e-14 1616.7 923.7 -4.26325641e-14 923.7"></polygon>
        <polygon id="path-9" points="-4.26325641e-14 -3.19744231e-14 1616.7 -3.19744231e-14 1616.7 923.7 -4.26325641e-14 923.7"></polygon>
        <polygon id="path-11" points="-4.26325641e-14 -3.19744231e-14 1616.7 -3.19744231e-14 1616.7 923.7 -4.26325641e-14 923.7"></polygon>
    </defs>
    <g id="Page-1" stroke="none" stroke-width="1" fill="none" fill-rule="evenodd">
        <g id="Q18">
            <polygon id="Path" fill="#FFFFFF" fill-rule="nonzero" points="0 0 1800 0 1800 1113 0 1113"></polygon>
            <line x1="127.5" y1="997.5" x2="1744.5" y2="997.5" id="Path" stroke="#333333"></line>
            <line x1="127.5" y1="811.5" x2="1744.5" y2="811.5" id="Path" stroke="#CCCCCC"></line>
            <line x1="127.5" y1="628.5" x2="1744.5" y2="628.5" id="Path" stroke="#CCCCCC"></line>
            <line x1="127.5" y1="442.5" x2="1744.5" y2="442.5" id="Path" stroke="#CCCCCC"></line>
            <line x1="127.5" y1="259.5" x2="1744.5" y2="259.5" id="Path" stroke="#CCCCCC"></line>
            <line x1="127.5" y1="73.5" x2="1744.5" y2="73.5" id="Path" stroke="#CCCCCC"></line>
            <g id="Clipped" transform="translate(127.650000, 73.650000)">
                <mask id="mask-2" fill="white">
                    <use xlink:href="#path-1"></use>
                </mask>
                <g id="Path"></g>
                <path d="M484.35,922.35 L169.35,922.35 L169.35,7.35 C169.35,4.03629 172.03629,1.35 175.35,1.35 L478.35,1.35 C481.66371,1.35 484.35,4.03629 484.35,7.35 L484.35,922.35 Z" id="Path" stroke-opacity="0" stroke="#000000" stroke-width="2" mask="url(#mask-2)"></path>
            </g>
            <g id="Clipped" transform="translate(127.650000, 73.650000)">
                <mask id="mask-4" fill="white">
                    <use xlink:href="#path-3"></use>
                </mask>
                <g id="Path"></g>
                <path d="M484.35,922.35 L169.35,922.35 L169.35,7.35 C169.35,4.03629 172.03629,1.35 175.35,1.35 L478.35,1.35 C481.66371,1.35 484.35,4.03629 484.35,7.35 L484.35,922.35 Z" id="Path" fill="#1D70B8" fill-rule="nonzero" mask="url(#mask-4)"></path>
            </g>
            <g id="Clipped" transform="translate(127.650000, 73.650000)">
                <mask id="mask-6" fill="white">
                    <use xlink:href="#path-5"></use>
                </mask>
                <g id="Path"></g>
                <path d="M967.35,922.35 L652.35,922.35 L652.35,376.35 C652.35,373.03629 655.03626,370.35 658.35,370.35 L961.35,370.35 C964.66374,370.35 967.35,373.03629 967.35,376.35 L967.35,922.35 Z" id="Path" stroke-opacity="0" stroke="#000000" stroke-width="2" mask="url(#mask-6)"></path>
            </g>
            <g id="Clipped" transform="translate(127.650000, 73.650000)">
                <mask id="mask-8" fill="white">
                    <use xlink:href="#path-7"></use>
                </mask>
                <g id="Path"></g>
                <path d="M967.35,922.35 L652.35,922.35 L652.35,376.35 C652.35,373.03629 655.03626,370.35 658.35,370.35 L961.35,370.35 C964.66374,370.35 967.35,373.03629 967.35,376.35 L967.35,922.35 Z" id="Path" fill="#1D70B8" fill-rule="nonzero" mask="url(#mask-8)"></path>
            </g>
            <g id="Clipped" transform="translate(127.650000, 73.650000)">
                <mask id="mask-10" fill="white">
                    <use xlink:href="#path-9"></use>
                </mask>
                <g id="Path"></g>
                <path d="M1450.35,922.35 L1135.35,922.35 L1135.35,469.35 C1135.35,466.03629 1138.03626,463.35 1141.35,463.35 L1444.35,463.35 C1447.66365,463.35 1450.35,466.03629 1450.35,469.35 L1450.35,922.35 Z" id="Path" stroke-opacity="0" stroke="#000000" stroke-width="2" mask="url(#mask-10)"></path>
            </g>
            <g id="Clipped" transform="translate(127.650000, 73.650000)">
                <mask id="mask-12" fill="white">
                    <use xlink:href="#path-11"></use>
                </mask>
                <g id="Path"></g>
                <path d="M1450.35,922.35 L1135.35,922.35 L1135.35,469.35 C1135.35,466.03629 1138.03626,463.35 1141.35,463.35 L1444.35,463.35 C1447.66365,463.35 1450.35,466.03629 1450.35,469.35 L1450.35,922.35 Z" id="Path" fill="#1D70B8" fill-rule="nonzero" mask="url(#mask-12)"></path>
            </g>
            <path d="M108.665622,994.9125 C108.665622,996.6625 108.524998,998.25626 108.24375,999.69378 C107.962498,1001.13126 107.493748,1002.38126 106.8375,1003.44378 C106.2125,1004.47506 105.384374,1005.27194 104.353122,1005.83442 C103.321874,1006.39694 102.05625,1006.6782 100.55625,1006.6782 C99.11875,1006.6782 97.9,1006.4282 96.9,1005.9282 C95.931248,1005.39692 95.149998,1004.64692 94.55625,1003.6782 C93.962498,1002.6782 93.540622,1001.45944 93.290622,1000.02192 C93.040622,998.55316 92.915622,996.88128 92.915622,995.00628 C92.915622,993.28756 93.056248,991.70944 93.3375,990.27192 C93.618748,988.80316 94.071872,987.55316 94.696872,986.52192 C95.353124,985.49064 96.196874,984.69376 97.228122,984.13128 C98.259374,983.56876 99.525,983.2875 101.025,983.2875 C102.4625,983.2875 103.665624,983.5375 104.634372,984.0375 C105.603124,984.5375 106.384374,985.2875 106.978122,986.2875 C107.603122,987.2875 108.040622,988.50626 108.290622,989.94378 C108.540622,991.38126 108.665622,993.0375 108.665622,994.9125 Z M105.571872,995.14692 C105.571872,993.99064 105.524998,992.975 105.43125,992.1 C105.337498,991.1938 105.212498,990.39694 105.05625,989.70942 C104.899998,988.99066 104.696872,988.38128 104.446872,987.88128 C104.196872,987.38128 103.899998,986.97502 103.55625,986.6625 C103.212498,986.35002 102.806248,986.11566 102.3375,985.95942 C101.9,985.80314 101.4,985.725 100.8375,985.725 C99.8375,985.725 99.025,985.9594 98.4,986.4282 C97.775,986.89692 97.275,987.55316 96.9,988.39692 C96.556248,989.20944 96.321872,990.16256 96.196872,991.25628 C96.071872,992.35004 96.009372,993.53754 96.009372,994.81878 C96.009372,996.50626 96.087498,997.94376 96.24375,999.13128 C96.43125,1000.31876 96.7125,1001.2875 97.0875,1002.0375 C97.493748,1002.7875 97.993748,1003.3344 98.5875,1003.6782 C99.181248,1004.02192 99.899998,1004.19378 100.74375,1004.19378 C101.399998,1004.19378 101.962498,1004.10002 102.43125,1003.9125 C102.93125,1003.69378 103.353124,1003.39692 103.696872,1003.02192 C104.071872,1002.61564 104.368748,1002.13126 104.5875,1001.56878 C104.8375,1001.00626 105.025,1000.3969 105.15,999.7407 C105.306248,999.08442 105.415622,998.36566 105.478122,997.58442 C105.540622,996.80314 105.571872,995.99064 105.571872,995.14692 Z" id="Shape" fill="#000000" fill-rule="nonzero"></path>
            <path d="M107.915622,820.2975 C107.915622,820.51624 107.899998,820.70374 107.86875,820.86 C107.837498,821.01624 107.790622,821.15686 107.728122,821.28186 C107.665622,821.40686 107.587498,821.50061 107.49375,821.56311 C107.43125,821.59437 107.3375,821.61 107.2125,821.61 L94.65,821.61 C94.493748,821.61 94.353122,821.59437 94.228122,821.56311 C94.103122,821.50061 93.993748,821.42249 93.9,821.32875 C93.806248,821.23499 93.743748,821.10999 93.7125,820.95375 C93.681248,820.76625 93.665622,820.5475 93.665622,820.2975 C93.665622,820.0475 93.665622,819.84437 93.665622,819.68811 C93.696874,819.50061 93.74375,819.34436 93.80625,819.21936 C93.86875,819.06312 93.93125,818.9225 93.99375,818.7975 C94.087498,818.6725 94.212498,818.53187 94.36875,818.37561 L98.775,813.68811 C99.806248,812.62561 100.618748,811.67249 101.2125,810.82875 C101.8375,809.95375 102.30625,809.1725 102.61875,808.485 C102.962498,807.76624 103.181248,807.12561 103.275,806.56311 C103.4,805.96937 103.4625,805.4225 103.4625,804.9225 C103.4625,804.4225 103.384374,803.95375 103.228122,803.51625 C103.071874,803.0475 102.8375,802.64124 102.525,802.2975 C102.2125,801.95374 101.821874,801.68811 101.353122,801.50061 C100.884374,801.31311 100.3375,801.21936 99.7125,801.21936 C98.993748,801.21936 98.353122,801.31311 97.790622,801.50061 C97.228122,801.68811 96.728122,801.90686 96.290622,802.15686 C95.884374,802.37562 95.525,802.59437 95.2125,802.81311 C94.931248,803.00061 94.728122,803.09436 94.603122,803.09436 C94.509374,803.09436 94.43125,803.07874 94.36875,803.0475 C94.30625,802.985 94.24375,802.90687 94.18125,802.81311 C94.149998,802.68811 94.118748,802.54749 94.0875,802.39125 C94.0875,802.20375 94.0875,801.985 94.0875,801.735 C94.0875,801.57874 94.0875,801.43811 94.0875,801.31311 C94.118748,801.15687 94.134372,801.03187 94.134372,800.93811 C94.165622,800.84437 94.196874,800.76625 94.228122,800.70375 C94.290622,800.60999 94.384372,800.50061 94.509372,800.37561 C94.665622,800.25061 94.915624,800.09436 95.259372,799.90686 C95.634372,799.68812 96.071872,799.485 96.571872,799.2975 C97.103124,799.07874 97.68125,798.90686 98.30625,798.78186 C98.93125,798.62562 99.5875,798.5475 100.275,798.5475 C101.368748,798.5475 102.321872,798.70375 103.134372,799.01625 C103.978124,799.29749 104.665622,799.71936 105.196872,800.28186 C105.759372,800.81312 106.165622,801.43812 106.415622,802.15686 C106.696874,802.87562 106.8375,803.64125 106.8375,804.45375 C106.8375,805.17249 106.775,805.89124 106.65,806.61 C106.525,807.32874 106.259374,808.10999 105.853122,808.95375 C105.446874,809.79749 104.8375,810.73499 104.025,811.76625 C103.243748,812.76625 102.212498,813.93812 100.93125,815.28186 L97.321872,819.03186 L107.2125,819.03186 C107.306248,819.03186 107.399998,819.06311 107.49375,819.12561 C107.587498,819.18811 107.665622,819.26624 107.728122,819.36 C107.790622,819.45374 107.837498,819.57874 107.86875,819.735 C107.899998,819.89124 107.915622,820.07874 107.915622,820.2975 Z" id="Path" fill="#000000" fill-rule="nonzero"></path>
            <path d="M108.853122,630.40122 C108.853122,630.77622 108.790622,631.08872 108.665622,631.33872 C108.571874,631.55748 108.415624,631.66686 108.196872,631.66686 L105.61875,631.66686 L105.61875,636.44811 C105.61875,636.54185 105.5875,636.61998 105.525,636.6825 C105.49375,636.74498 105.415622,636.80748 105.290622,636.87 C105.196874,636.90124 105.05625,636.91686 104.86875,636.91686 C104.68125,636.9481 104.43125,636.96372 104.11875,636.96372 C103.837498,636.96372 103.603122,636.9481 103.415622,636.91686 C103.228122,636.91686 103.071872,636.90124 102.946872,636.87 C102.853124,636.80748 102.790624,636.74498 102.759372,636.6825 C102.728124,636.61998 102.7125,636.54185 102.7125,636.44811 L102.7125,631.66686 L93.290622,631.66686 C93.165622,631.66686 93.056248,631.65124 92.9625,631.62 C92.868748,631.55748 92.774998,631.47935 92.68125,631.38561 C92.61875,631.29187 92.571874,631.16687 92.540622,631.01061 C92.509374,630.82311 92.49375,630.58874 92.49375,630.3075 C92.49375,630.08874 92.49375,629.90124 92.49375,629.745 C92.524998,629.55748 92.556248,629.3856 92.5875,629.22936 C92.618748,629.07312 92.665622,628.9325 92.728122,628.8075 C92.790622,628.6825 92.853122,628.54187 92.915622,628.38561 L101.11875,614.5575 C101.18125,614.46374 101.259374,614.38561 101.353122,614.32311 C101.478122,614.26061 101.618748,614.21374 101.775,614.1825 C101.9625,614.11998 102.18125,614.0731 102.43125,614.04186 C102.712498,614.01062 103.024998,613.995 103.36875,613.995 C103.774998,613.995 104.118748,614.01062 104.4,614.04186 C104.681248,614.0731 104.899998,614.11998 105.05625,614.1825 C105.24375,614.21374 105.384374,614.27624 105.478122,614.37 C105.571874,614.43248 105.61875,614.52622 105.61875,614.65122 L105.61875,629.13561 L108.196872,629.13561 C108.384372,629.13561 108.540622,629.24498 108.665622,629.46372 C108.790622,629.65124 108.853122,629.96374 108.853122,630.40122 Z M102.7125,616.66686 L102.665622,616.66686 L95.259372,629.13561 L102.7125,629.13561 L102.7125,616.66686 Z" id="Shape" fill="#000000" fill-rule="nonzero"></path>
            <path d="M108.478122,444.77064 C108.478122,445.77064 108.321872,446.73939 108.009372,447.67689 C107.696872,448.58315 107.228122,449.39565 106.603122,450.11439 C105.978122,450.83313 105.181248,451.41126 104.2125,451.84878 C103.243748,452.25502 102.087498,452.45814 100.74375,452.45814 C99.80625,452.45814 98.9625,452.34876 98.2125,452.13 C97.493748,451.88 96.868748,451.53626 96.3375,451.09878 C95.806248,450.66126 95.353122,450.13 94.978122,449.505 C94.634374,448.88 94.353124,448.16126 94.134372,447.34878 C93.915624,446.53626 93.759374,445.66126 93.665622,444.72378 C93.571874,443.75502 93.525,442.70814 93.525,441.58314 C93.525,440.61438 93.571874,439.63 93.665622,438.63 C93.790622,437.63 93.978122,436.67688 94.228122,435.77064 C94.509374,434.83314 94.884374,433.95814 95.353122,433.14564 C95.821874,432.33314 96.4,431.63002 97.0875,431.03628 C97.775,430.41128 98.603124,429.9269 99.571872,429.58314 C100.571872,429.23938 101.712498,429.0675 102.99375,429.0675 C103.43125,429.0675 103.86875,429.09876 104.30625,429.16128 C104.74375,429.19252 105.15,429.25502 105.525,429.34878 C105.9,429.44252 106.2125,429.55189 106.4625,429.67689 C106.743748,429.77063 106.915622,429.84876 106.978122,429.91128 C107.071874,429.97376 107.134374,430.05188 107.165622,430.14564 C107.228122,430.20814 107.259372,430.28626 107.259372,430.38 C107.290624,430.44252 107.30625,430.53628 107.30625,430.66128 C107.337498,430.75502 107.353122,430.89564 107.353122,431.08314 C107.353122,431.27064 107.353122,431.44252 107.353122,431.59878 C107.353122,431.75502 107.321872,431.88002 107.259372,431.97378 C107.228124,432.06752 107.18125,432.14564 107.11875,432.20814 C107.05625,432.23938 106.9625,432.255 106.8375,432.255 C106.7125,432.255 106.540624,432.22376 106.321872,432.16128 C106.103124,432.06752 105.8375,431.97376 105.525,431.88 C105.2125,431.78626 104.821874,431.69252 104.353122,431.59878 C103.915622,431.50502 103.399998,431.45814 102.80625,431.45814 C101.712498,431.45814 100.774998,431.69252 99.99375,432.16128 C99.212498,432.59876 98.571872,433.1925 98.071872,433.9425 C97.571872,434.6925 97.196872,435.5675 96.946872,436.5675 C96.696872,437.53626 96.556248,438.56752 96.525,439.66128 C96.8375,439.47376 97.18125,439.30188 97.55625,439.14564 C97.93125,438.95814 98.3375,438.80189 98.775,438.67689 C99.243748,438.52063 99.728122,438.39563 100.228122,438.30189 C100.759374,438.20815 101.30625,438.16128 101.86875,438.16128 C103.087498,438.16128 104.118748,438.33315 104.9625,438.67689 C105.806248,439.02063 106.493748,439.48938 107.025,440.08314 C107.556248,440.64564 107.931248,441.33314 108.15,442.14564 C108.368748,442.95814 108.478122,443.83314 108.478122,444.77064 Z M105.43125,445.05189 C105.43125,444.36439 105.353124,443.73939 105.196872,443.17689 C105.071872,442.61439 104.853122,442.14564 104.540622,441.77064 C104.228122,441.39564 103.806248,441.09876 103.275,440.88 C102.743748,440.66126 102.087498,440.55189 101.30625,440.55189 C100.86875,440.55189 100.43125,440.59876 99.99375,440.6925 C99.587498,440.75502 99.181248,440.8644 98.775,441.02064 C98.368748,441.14564 97.978122,441.30189 97.603122,441.48939 C97.228122,441.64565 96.884372,441.83315 96.571872,442.05189 C96.571872,443.55189 96.665622,444.81752 96.853122,445.84878 C97.071872,446.88002 97.353124,447.70814 97.696872,448.33314 C98.071872,448.9269 98.540622,449.3644 99.103122,449.64564 C99.665622,449.89564 100.306248,450.02064 101.025,450.02064 C101.775,450.02064 102.43125,449.88002 102.99375,449.59878 C103.55625,449.31752 104.009374,448.94252 104.353122,448.47378 C104.728122,448.00502 104.993748,447.47376 105.15,446.88 C105.3375,446.28626 105.43125,445.67689 105.43125,445.05189 Z" id="Shape" fill="#000000" fill-rule="nonzero"></path>
            <path d="M108.43125,261.53061 C108.43125,262.53061 108.24375,263.42124 107.86875,264.2025 C107.524998,264.9525 107.024998,265.59312 106.36875,266.12436 C105.712498,266.65562 104.899998,267.06187 103.93125,267.34311 C102.962498,267.59311 101.853122,267.71811 100.603122,267.71811 C99.415622,267.71811 98.353122,267.59311 97.415622,267.34311 C96.509374,267.09311 95.728124,266.73374 95.071872,266.265 C94.446872,265.79624 93.962498,265.21811 93.61875,264.53061 C93.274998,263.81187 93.103122,262.99937 93.103122,262.09311 C93.103122,261.37437 93.212498,260.71812 93.43125,260.12436 C93.68125,259.53062 94.025,258.98375 94.4625,258.48375 C94.9,257.95249 95.43125,257.46811 96.05625,257.03061 C96.712498,256.59311 97.446872,256.17124 98.259372,255.765 C97.571872,255.42124 96.946872,255.04624 96.384372,254.64 C95.853124,254.23374 95.4,253.79624 95.025,253.3275 C94.65,252.85874 94.36875,252.35874 94.18125,251.8275 C93.99375,251.265 93.9,250.67125 93.9,250.04625 C93.9,249.23375 94.040624,248.48375 94.321872,247.79625 C94.603122,247.10875 95.025,246.515 95.5875,246.015 C96.181248,245.48374 96.931248,245.07749 97.8375,244.79625 C98.743748,244.48375 99.790622,244.3275 100.978122,244.3275 C102.134374,244.3275 103.11875,244.46812 103.93125,244.74936 C104.774998,244.99936 105.462498,245.37436 105.99375,245.87436 C106.55625,246.34312 106.9625,246.90562 107.2125,247.56186 C107.493748,248.18686 107.634372,248.85874 107.634372,249.5775 C107.634372,250.2025 107.524998,250.79625 107.30625,251.35875 C107.11875,251.88999 106.8375,252.40561 106.4625,252.90561 C106.0875,253.37437 105.61875,253.8275 105.05625,254.265 C104.524998,254.7025 103.915622,255.10875 103.228122,255.48375 C104.040622,255.88999 104.774998,256.31186 105.43125,256.74936 C106.087498,257.18686 106.634372,257.65561 107.071872,258.15561 C107.509372,258.62437 107.837498,259.14 108.05625,259.7025 C108.30625,260.265 108.43125,260.87437 108.43125,261.53061 Z M104.634372,249.85875 C104.634372,249.38999 104.540622,248.95249 104.353122,248.54625 C104.196874,248.13999 103.946874,247.79624 103.603122,247.515 C103.290622,247.23374 102.884372,247.03061 102.384372,246.90561 C101.915624,246.74937 101.36875,246.67125 100.74375,246.67125 C99.462498,246.67125 98.493748,246.96812 97.8375,247.56186 C97.2125,248.12436 96.9,248.88999 96.9,249.85875 C96.9,250.32749 96.978124,250.76499 97.134372,251.17125 C97.290624,251.54625 97.525,251.92125 97.8375,252.29625 C98.181248,252.63999 98.603122,252.98374 99.103122,253.3275 C99.634374,253.64 100.24375,253.98375 100.93125,254.35875 C102.11875,253.73375 103.025,253.06187 103.65,252.34311 C104.306248,251.59311 104.634372,250.76499 104.634372,249.85875 Z M105.384372,261.85875 C105.384372,261.32749 105.274998,260.84311 105.05625,260.40561 C104.86875,259.96811 104.571874,259.56186 104.165622,259.18686 C103.759374,258.78062 103.24375,258.40562 102.61875,258.06186 C102.024998,257.71812 101.337498,257.34312 100.55625,256.93686 C99.80625,257.31186 99.15,257.68686 98.5875,258.06186 C98.056248,258.40562 97.603122,258.78062 97.228122,259.18686 C96.884374,259.56186 96.61875,259.96811 96.43125,260.40561 C96.24375,260.81187 96.15,261.28062 96.15,261.81186 C96.15,262.93686 96.540624,263.81186 97.321872,264.43686 C98.103124,265.06186 99.259374,265.37436 100.790622,265.37436 C102.290622,265.37436 103.431248,265.06186 104.2125,264.43686 C104.993748,263.81186 105.384372,262.95249 105.384372,261.85875 Z" id="Shape" fill="#000000" fill-rule="nonzero"></path>
            <path d="M89.9625,81.43125 C89.9625,81.68125 89.93125,81.884374 89.86875,82.040622 C89.837498,82.165622 89.790622,82.274998 89.728122,82.36875 C89.696872,82.462498 89.634374,82.540622 89.540622,82.603122 C89.478122,82.634374 89.399998,82.65 89.30625,82.65 L77.446872,82.65 C77.353124,82.65 77.275,82.634374 77.2125,82.603122 C77.15,82.540622 77.071874,82.462498 76.978122,82.36875 C76.915622,82.274998 76.868748,82.165622 76.8375,82.040622 C76.806248,81.884374 76.790622,81.68125 76.790622,81.43125 C76.790622,81.24375 76.806248,81.071874 76.8375,80.915622 C76.868748,80.759374 76.915622,80.634374 76.978122,80.540622 C77.040622,80.446874 77.103122,80.36875 77.165622,80.30625 C77.259374,80.24375 77.353124,80.2125 77.446872,80.2125 L82.18125,80.2125 L82.18125,62.915622 L77.775,65.540622 C77.556248,65.665622 77.368748,65.743748 77.2125,65.775 C77.0875,65.775 76.978124,65.74375 76.884372,65.68125 C76.821872,65.587498 76.774998,65.462498 76.74375,65.30625 C76.712498,65.11875 76.696872,64.9 76.696872,64.65 C76.696872,64.431248 76.696872,64.259372 76.696872,64.134372 C76.728124,63.978124 76.759374,63.853124 76.790622,63.759372 C76.853122,63.665624 76.915622,63.5875 76.978122,63.525 C77.040622,63.4625 77.118748,63.384374 77.2125,63.290622 L82.4625,59.9625 C82.493748,59.931248 82.540622,59.899998 82.603122,59.86875 C82.696872,59.837498 82.790624,59.821872 82.884372,59.821872 C83.009372,59.790624 83.134372,59.775 83.259372,59.775 C83.415624,59.743748 83.5875,59.728122 83.775,59.728122 C84.056248,59.728122 84.290622,59.743748 84.478122,59.775 C84.665622,59.806248 84.806248,59.837498 84.9,59.86875 C85.025,59.899998 85.103124,59.962498 85.134372,60.05625 C85.165624,60.11875 85.18125,60.18125 85.18125,60.24375 L85.18125,80.2125 L89.30625,80.2125 C89.399998,80.2125 89.478122,80.24375 89.540622,80.30625 C89.634374,80.36875 89.7125,80.446874 89.775,80.540622 C89.8375,80.634374 89.884374,80.759374 89.915622,80.915622 C89.946874,81.071874 89.9625,81.24375 89.9625,81.43125 Z M108.665622,71.2125 C108.665622,72.9625 108.524998,74.55625 108.24375,75.99375 C107.962498,77.43125 107.493748,78.68125 106.8375,79.74375 C106.2125,80.774998 105.384374,81.571872 104.353122,82.134372 C103.321874,82.696872 102.05625,82.978122 100.55625,82.978122 C99.11875,82.978122 97.9,82.728122 96.9,82.228122 C95.931248,81.696874 95.149998,80.946874 94.55625,79.978122 C93.962498,78.978122 93.540622,77.759372 93.290622,76.321872 C93.040622,74.853124 92.915622,73.18125 92.915622,71.30625 C92.915622,69.5875 93.056248,68.009372 93.3375,66.571872 C93.618748,65.103124 94.071872,63.853124 94.696872,62.821872 C95.353124,61.790624 96.196874,60.99375 97.228122,60.43125 C98.259374,59.86875 99.525,59.5875 101.025,59.5875 C102.4625,59.5875 103.665624,59.8375 104.634372,60.3375 C105.603124,60.8375 106.384374,61.5875 106.978122,62.5875 C107.603122,63.5875 108.040622,64.80625 108.290622,66.24375 C108.540622,67.68125 108.665622,69.3375 108.665622,71.2125 Z M105.571872,71.446872 C105.571872,70.290624 105.524998,69.275 105.43125,68.4 C105.337498,67.493748 105.212498,66.696872 105.05625,66.009372 C104.899998,65.290624 104.696872,64.68125 104.446872,64.18125 C104.196872,63.68125 103.899998,63.275 103.55625,62.9625 C103.212498,62.65 102.806248,62.415624 102.3375,62.259372 C101.9,62.103124 101.4,62.025 100.8375,62.025 C99.8375,62.025 99.025,62.259374 98.4,62.728122 C97.775,63.196874 97.275,63.853124 96.9,64.696872 C96.556248,65.509372 96.321872,66.462498 96.196872,67.55625 C96.071872,68.649998 96.009372,69.837498 96.009372,71.11875 C96.009372,72.80625 96.087498,74.24375 96.24375,75.43125 C96.43125,76.61875 96.7125,77.5875 97.0875,78.3375 C97.493748,79.0875 97.993748,79.634374 98.5875,79.978122 C99.181248,80.321874 99.899998,80.49375 100.74375,80.49375 C101.399998,80.49375 101.962498,80.4 102.43125,80.2125 C102.93125,79.993748 103.353124,79.696872 103.696872,79.321872 C104.071872,78.915624 104.368748,78.43125 104.5875,77.86875 C104.8375,77.30625 105.025,76.696874 105.15,76.040622 C105.306248,75.384374 105.415622,74.665624 105.478122,73.884372 C105.540622,73.103124 105.571872,72.290624 105.571872,71.446872 Z" id="Shape" fill="#000000" fill-rule="nonzero"></path>
            <path d="M431.93421,1048.35 L431.93421,1037.4282 L421.99671,1022.56878 L426.1686,1022.56878 L431.2311,1030.35 C432.1686,1031.78752 433.0436,1033.24066 433.8561,1034.70942 C434.63734,1033.36566 435.57484,1031.85002 436.6686,1030.1625 L441.68421,1022.56878 L445.62171,1022.56878 L435.3561,1037.4282 L435.3561,1048.35 L431.93421,1048.35 Z M458.0436,1042.35 L461.32485,1042.725 C460.82485,1044.63128 459.87172,1046.11568 458.46546,1047.1782 C457.05922,1048.24068 455.27797,1048.77192 453.12171,1048.77192 C450.40297,1048.77192 448.2311,1047.92818 446.6061,1046.2407 C445.01234,1044.55318 444.21546,1042.19378 444.21546,1039.1625 C444.21546,1036.0375 445.02796,1033.61564 446.65296,1031.89692 C448.27796,1030.14692 450.37171,1029.27192 452.93421,1029.27192 C455.43421,1029.27192 457.46546,1030.11568 459.02796,1031.8032 C460.62172,1033.49068 461.4186,1035.88128 461.4186,1038.975 C461.4186,1039.16252 461.4186,1039.44378 461.4186,1039.81878 L447.49671,1039.81878 C447.62171,1041.88126 448.19984,1043.4594 449.2311,1044.5532 C450.26234,1045.61568 451.55921,1046.14692 453.12171,1046.14692 C454.27797,1046.14692 455.26235,1045.85004 456.07485,1045.25628 C456.91859,1044.63128 457.57484,1043.66252 458.0436,1042.35 Z M447.68421,1037.2407 L458.09046,1037.2407 C457.96546,1035.6469 457.57484,1034.4594 456.9186,1033.6782 C455.88734,1032.4594 454.57484,1031.85 452.9811,1031.85 C451.51234,1031.85 450.27796,1032.3344 449.27796,1033.3032 C448.30922,1034.27192 447.77797,1035.58442 447.68421,1037.2407 Z M465.02796,1042.77192 L468.12171,1042.3032 C468.30921,1043.5532 468.79359,1044.5063 469.57485,1045.1625 C470.38735,1045.81878 471.52796,1046.14692 472.99671,1046.14692 C474.43421,1046.14692 475.49671,1045.86568 476.18421,1045.3032 C476.90297,1044.7094 477.26235,1044.00626 477.26235,1043.19378 C477.26235,1042.47506 476.94985,1041.91256 476.32485,1041.50628 C475.88735,1041.22504 474.80922,1040.86568 473.09046,1040.4282 C470.77796,1039.8344 469.16859,1039.3344 468.26235,1038.9282 C467.38735,1038.49068 466.71547,1037.89692 466.24671,1037.14692 C465.77797,1036.39692 465.5436,1035.55318 465.5436,1034.6157 C465.5436,1033.80318 465.7311,1033.03754 466.1061,1032.31878 C466.4811,1031.60006 466.99672,1031.0063 467.65296,1030.5375 C468.15296,1030.19378 468.82484,1029.89692 469.6686,1029.64692 C470.51234,1029.39692 471.43421,1029.27192 472.43421,1029.27192 C473.87171,1029.27192 475.13734,1029.49068 476.2311,1029.9282 C477.3561,1030.3344 478.18422,1030.8969 478.71546,1031.6157 C479.24672,1032.33442 479.6061,1033.28752 479.7936,1034.475 L476.69985,1034.89692 C476.57485,1033.95944 476.1686,1033.22506 475.4811,1032.69378 C474.82484,1032.13126 473.87171,1031.85 472.62171,1031.85 C471.18421,1031.85 470.15296,1032.1 469.52796,1032.6 C468.90296,1033.0688 468.59046,1033.6313 468.59046,1034.2875 C468.59046,1034.69378 468.71546,1035.05318 468.96546,1035.3657 C469.24672,1035.70942 469.65297,1035.99066 470.18421,1036.20942 C470.49671,1036.33442 471.43421,1036.60004 472.99671,1037.00628 C475.24671,1037.63128 476.80921,1038.13128 477.68421,1038.50628 C478.55921,1038.88128 479.24671,1039.42816 479.74671,1040.14692 C480.24671,1040.86564 480.49671,1041.7719 480.49671,1042.8657 C480.49671,1043.92818 480.18421,1044.92818 479.55921,1045.8657 C478.96547,1046.7719 478.09047,1047.49064 476.93421,1048.02192 C475.77797,1048.52192 474.46547,1048.77192 472.99671,1048.77192 C470.55921,1048.77192 468.69984,1048.27192 467.4186,1047.27192 C466.1686,1046.24064 465.37172,1044.74064 465.02796,1042.77192 Z" id="Shape" fill="#000000" fill-rule="nonzero"></path>
            <path d="M914.76564,1048.35 L914.76564,1022.56878 L918.23436,1022.56878 L931.78125,1042.81878 L931.78125,1022.56878 L935.0625,1022.56878 L935.0625,1048.35 L931.54686,1048.35 L918,1028.1 L918,1048.35 L914.76564,1048.35 Z M940.21875,1039.02192 C940.21875,1035.55316 941.17188,1032.99066 943.07814,1031.33442 C944.67188,1029.95942 946.625,1029.27192 948.9375,1029.27192 C951.5,1029.27192 953.59375,1030.11568 955.21875,1031.8032 C956.87501,1033.4594 957.70314,1035.7719 957.70314,1038.7407 C957.70314,1041.1469 957.34376,1043.0375 956.625,1044.4125 C955.90624,1045.7875 954.84374,1046.86564 953.4375,1047.64692 C952.0625,1048.39692 950.5625,1048.77192 948.9375,1048.77192 C946.34374,1048.77192 944.23436,1047.94378 942.60936,1046.2875 C941.01562,1044.60002 940.21875,1042.17816 940.21875,1039.02192 Z M943.45314,1039.02192 C943.45314,1041.39692 943.96876,1043.17818 945,1044.3657 C946.0625,1045.55318 947.375,1046.14692 948.9375,1046.14692 C950.53126,1046.14692 951.84376,1045.55318 952.875,1044.3657 C953.90624,1043.17818 954.42186,1041.36568 954.42186,1038.9282 C954.42186,1036.61568 953.89062,1034.86568 952.82814,1033.6782 C951.79688,1032.49068 950.5,1031.89692 948.9375,1031.89692 C947.375,1031.89692 946.0625,1032.49068 945,1033.6782 C943.96876,1034.8344 943.45314,1036.61564 943.45314,1039.02192 Z" id="Shape" fill="#000000" fill-rule="nonzero"></path>
            <path d="M1313.97198,1048.35 L1313.97198,1022.56878 L1317.34698,1022.56878 L1317.34698,1048.35 L1313.97198,1048.35 Z M1343.17512,1046.0532 C1341.98764,1047.0532 1340.847,1047.7563 1339.7532,1048.1625 C1338.69072,1048.56878 1337.53448,1048.77192 1336.28448,1048.77192 C1334.22196,1048.77192 1332.64384,1048.27192 1331.55012,1047.27192 C1330.45636,1046.27192 1329.90948,1044.99068 1329.90948,1043.4282 C1329.90948,1042.52192 1330.11262,1041.69378 1330.5189,1040.94378 C1330.9251,1040.16254 1331.47196,1039.55318 1332.15948,1039.1157 C1332.84696,1038.6469 1333.6126,1038.30314 1334.4564,1038.08442 C1335.05012,1037.89694 1335.98762,1037.72506 1337.2689,1037.56878 C1339.8001,1037.28754 1341.6751,1036.92818 1342.8939,1036.4907 C1342.8939,1036.05318 1342.8939,1035.78754 1342.8939,1035.69378 C1342.8939,1034.38126 1342.597,1033.4594 1342.0032,1032.9282 C1341.19072,1032.24068 1339.98762,1031.89692 1338.3939,1031.89692 C1336.9251,1031.89692 1335.83134,1032.16254 1335.11262,1032.69378 C1334.39386,1033.19378 1333.86262,1034.10002 1333.5189,1035.4125 L1330.42512,1034.9907 C1330.70636,1033.67818 1331.17512,1032.61568 1331.8314,1031.8032 C1332.4876,1030.99068 1333.4251,1030.36568 1334.6439,1029.9282 C1335.86262,1029.49068 1337.26886,1029.27192 1338.86262,1029.27192 C1340.45634,1029.27192 1341.7532,1029.45942 1342.7532,1029.83442 C1343.7532,1030.20942 1344.4876,1030.67818 1344.9564,1031.2407 C1345.42512,1031.80318 1345.75322,1032.52192 1345.9407,1033.39692 C1346.0345,1033.92816 1346.0814,1034.89692 1346.0814,1036.3032 L1346.0814,1040.52192 C1346.0814,1043.45944 1346.1439,1045.3188 1346.2689,1046.1 C1346.4251,1046.88128 1346.70634,1047.63128 1347.11262,1048.35 L1343.78448,1048.35 C1343.47196,1047.6938 1343.26884,1046.9282 1343.17512,1046.0532 Z M1342.8939,1038.975 C1341.73762,1039.4438 1340.01886,1039.85006 1337.73762,1040.19378 C1336.42514,1040.38126 1335.50326,1040.6 1334.97198,1040.85 C1334.44074,1041.0688 1334.01888,1041.39694 1333.7064,1041.83442 C1333.42512,1042.27194 1333.28448,1042.77194 1333.28448,1043.33442 C1333.28448,1044.17814 1333.59698,1044.88126 1334.22198,1045.44378 C1334.87826,1046.00626 1335.81576,1046.2875 1337.03448,1046.2875 C1338.25324,1046.2875 1339.33138,1046.0219 1340.2689,1045.4907 C1341.23762,1044.95942 1341.94072,1044.22502 1342.3782,1043.2875 C1342.722,1042.56878 1342.8939,1041.52192 1342.8939,1040.14692 L1342.8939,1038.975 Z M1351.98762,1048.35 L1351.98762,1029.69378 L1354.80012,1029.69378 L1354.80012,1032.31878 C1355.39384,1031.38126 1356.1751,1030.6469 1357.1439,1030.1157 C1358.11262,1029.55318 1359.22198,1029.27192 1360.47198,1029.27192 C1361.84698,1029.27192 1362.97198,1029.55318 1363.84698,1030.1157 C1364.75326,1030.67818 1365.37826,1031.47504 1365.72198,1032.50628 C1367.22198,1030.35004 1369.14386,1029.27192 1371.48762,1029.27192 C1373.36262,1029.27192 1374.78448,1029.78754 1375.7532,1030.81878 C1376.7532,1031.81878 1377.2532,1033.39692 1377.2532,1035.5532 L1377.2532,1048.35 L1374.11262,1048.35 L1374.11262,1036.58442 C1374.11262,1035.33442 1374.00324,1034.42818 1373.78448,1033.8657 C1373.59696,1033.30318 1373.2376,1032.85004 1372.7064,1032.50628 C1372.17512,1032.16256 1371.53448,1031.9907 1370.78448,1031.9907 C1369.47196,1031.9907 1368.3782,1032.4282 1367.5032,1033.3032 C1366.65948,1034.1782 1366.23762,1035.58444 1366.23762,1037.52192 L1366.23762,1048.35 L1363.05012,1048.35 L1363.05012,1036.20942 C1363.05012,1034.80314 1362.78448,1033.75626 1362.2532,1033.06878 C1361.7532,1032.35006 1360.9251,1031.9907 1359.7689,1031.9907 C1358.86262,1031.9907 1358.03448,1032.22506 1357.28448,1032.69378 C1356.53448,1033.16254 1355.98762,1033.85004 1355.6439,1034.75628 C1355.3001,1035.66256 1355.1282,1036.95944 1355.1282,1038.64692 L1355.1282,1048.35 L1351.98762,1048.35 Z M1393.98762,1048.35 L1393.98762,1029.69378 L1396.80012,1029.69378 L1396.80012,1032.31878 C1398.17512,1030.28754 1400.15948,1029.27192 1402.7532,1029.27192 C1403.8782,1029.27192 1404.90946,1029.47504 1405.84698,1029.88128 C1406.81574,1030.28756 1407.53448,1030.8188 1408.0032,1031.475 C1408.472,1032.13128 1408.80014,1032.89692 1408.98762,1033.77192 C1409.08134,1034.36564 1409.1282,1035.3969 1409.1282,1036.8657 L1409.1282,1048.35 L1405.98762,1048.35 L1405.98762,1037.00628 C1405.98762,1035.69376 1405.86262,1034.725 1405.61262,1034.1 C1405.36262,1033.475 1404.92512,1032.975 1404.30012,1032.6 C1403.67512,1032.1938 1402.94074,1031.9907 1402.09698,1031.9907 C1400.75326,1031.9907 1399.5814,1032.4282 1398.5814,1033.3032 C1397.6126,1034.14692 1397.1282,1035.75628 1397.1282,1038.13128 L1397.1282,1048.35 L1393.98762,1048.35 Z M1413.8157,1039.02192 C1413.8157,1035.55316 1414.76884,1032.99066 1416.67512,1031.33442 C1418.26884,1029.95942 1420.22196,1029.27192 1422.53448,1029.27192 C1425.09696,1029.27192 1427.1907,1030.11568 1428.8157,1031.8032 C1430.47198,1033.4594 1431.30012,1035.7719 1431.30012,1038.7407 C1431.30012,1041.1469 1430.94074,1043.0375 1430.22198,1044.4125 C1429.50326,1045.7875 1428.44076,1046.86564 1427.03448,1047.64692 C1425.65948,1048.39692 1424.15948,1048.77192 1422.53448,1048.77192 C1419.94076,1048.77192 1417.8314,1047.94378 1416.2064,1046.2875 C1414.6126,1044.60002 1413.8157,1042.17816 1413.8157,1039.02192 Z M1417.05012,1039.02192 C1417.05012,1041.39692 1417.56574,1043.17818 1418.59698,1044.3657 C1419.65946,1045.55318 1420.97196,1046.14692 1422.53448,1046.14692 C1424.12824,1046.14692 1425.44074,1045.55318 1426.47198,1044.3657 C1427.50326,1043.17818 1428.0189,1041.36568 1428.0189,1038.9282 C1428.0189,1036.61568 1427.48764,1034.86568 1426.42512,1033.6782 C1425.39384,1032.49068 1424.09696,1031.89692 1422.53448,1031.89692 C1420.97196,1031.89692 1419.65946,1032.49068 1418.59698,1033.6782 C1417.56574,1034.8344 1417.05012,1036.61564 1417.05012,1039.02192 Z M1442.8782,1045.5375 L1443.34698,1048.3032 C1442.44074,1048.49068 1441.64388,1048.58442 1440.9564,1048.58442 C1439.80012,1048.58442 1438.90948,1048.41254 1438.28448,1048.06878 C1437.65948,1047.69378 1437.20636,1047.20942 1436.92512,1046.6157 C1436.67512,1046.0219 1436.55012,1044.7719 1436.55012,1042.8657 L1436.55012,1032.13128 L1434.2532,1032.13128 L1434.2532,1029.69378 L1436.55012,1029.69378 L1436.55012,1025.0532 L1439.6907,1023.1782 L1439.6907,1029.69378 L1442.8782,1029.69378 L1442.8782,1032.13128 L1439.6907,1032.13128 L1439.6907,1043.0532 C1439.6907,1043.9594 1439.7376,1044.5375 1439.8314,1044.7875 C1439.9564,1045.0375 1440.1439,1045.24064 1440.3939,1045.39692 C1440.6439,1045.55316 1441.00326,1045.63128 1441.47198,1045.63128 C1441.84698,1045.63128 1442.31572,1045.60002 1442.8782,1045.5375 Z M1452.72198,1042.77192 L1455.8157,1042.3032 C1456.00322,1043.5532 1456.48762,1044.5063 1457.2689,1045.1625 C1458.08138,1045.81878 1459.22198,1046.14692 1460.6907,1046.14692 C1462.12822,1046.14692 1463.19072,1045.86568 1463.8782,1045.3032 C1464.597,1044.7094 1464.9564,1044.00626 1464.9564,1043.19378 C1464.9564,1042.47506 1464.6439,1041.91256 1464.0189,1041.50628 C1463.58138,1041.22504 1462.50324,1040.86568 1460.78448,1040.4282 C1458.47196,1039.8344 1456.8626,1039.3344 1455.9564,1038.9282 C1455.0814,1038.49068 1454.4095,1037.89692 1453.9407,1037.14692 C1453.47198,1036.39692 1453.23762,1035.55318 1453.23762,1034.6157 C1453.23762,1033.80318 1453.42512,1033.03754 1453.80012,1032.31878 C1454.17512,1031.60006 1454.69074,1031.0063 1455.34698,1030.5375 C1455.84698,1030.19378 1456.51886,1029.89692 1457.36262,1029.64692 C1458.20634,1029.39692 1459.1282,1029.27192 1460.1282,1029.27192 C1461.56572,1029.27192 1462.83136,1029.49068 1463.92512,1029.9282 C1465.05012,1030.3344 1465.87824,1030.8969 1466.40948,1031.6157 C1466.94076,1032.33442 1467.30014,1033.28752 1467.48762,1034.475 L1464.3939,1034.89692 C1464.2689,1033.95944 1463.86264,1033.22506 1463.17512,1032.69378 C1462.51884,1032.13126 1461.5657,1031.85 1460.3157,1031.85 C1458.87822,1031.85 1457.84698,1032.1 1457.22198,1032.6 C1456.59698,1033.0688 1456.28448,1033.6313 1456.28448,1034.2875 C1456.28448,1034.69378 1456.40948,1035.05318 1456.65948,1035.3657 C1456.94076,1035.70942 1457.347,1035.99066 1457.8782,1036.20942 C1458.19072,1036.33442 1459.12822,1036.60004 1460.6907,1037.00628 C1462.9407,1037.63128 1464.5032,1038.13128 1465.3782,1038.50628 C1466.2532,1038.88128 1466.9407,1039.42816 1467.4407,1040.14692 C1467.9407,1040.86564 1468.1907,1041.7719 1468.1907,1042.8657 C1468.1907,1043.92818 1467.8782,1044.92818 1467.2532,1045.8657 C1466.65948,1046.7719 1465.78448,1047.49064 1464.6282,1048.02192 C1463.472,1048.52192 1462.1595,1048.77192 1460.6907,1048.77192 C1458.25322,1048.77192 1456.39386,1048.27192 1455.11262,1047.27192 C1453.86262,1046.24064 1453.06574,1044.74064 1452.72198,1042.77192 Z M1487.22198,1048.35 L1487.22198,1045.58442 C1485.75326,1047.70942 1483.7689,1048.77192 1481.2689,1048.77192 C1480.1751,1048.77192 1479.14384,1048.56878 1478.17512,1048.1625 C1477.23764,1047.72502 1476.5345,1047.19378 1476.0657,1046.56878 C1475.59698,1045.91254 1475.26888,1045.11568 1475.0814,1044.1782 C1474.9564,1043.5844 1474.8939,1042.6 1474.8939,1041.225 L1474.8939,1029.69378 L1478.0814,1029.69378 L1478.0814,1040.0532 C1478.0814,1041.6782 1478.1439,1042.78756 1478.2689,1043.38128 C1478.45638,1044.19376 1478.86262,1044.85 1479.48762,1045.35 C1480.14386,1045.8188 1480.95636,1046.0532 1481.92512,1046.0532 C1482.86264,1046.0532 1483.73764,1045.8188 1484.55012,1045.35 C1485.39384,1044.85 1485.9876,1044.17814 1486.3314,1043.33442 C1486.7064,1042.49066 1486.8939,1041.27192 1486.8939,1039.6782 L1486.8939,1029.69378 L1490.03448,1029.69378 L1490.03448,1048.35 L1487.22198,1048.35 Z M1495.9407,1048.35 L1495.9407,1029.69378 L1498.80012,1029.69378 L1498.80012,1032.50628 C1499.51884,1031.19376 1500.1751,1030.3344 1500.7689,1029.9282 C1501.3939,1029.49068 1502.0814,1029.27192 1502.8314,1029.27192 C1503.89388,1029.27192 1504.97198,1029.60004 1506.0657,1030.25628 L1504.98762,1033.20942 C1504.20634,1032.74066 1503.4407,1032.50628 1502.6907,1032.50628 C1501.97198,1032.50628 1501.33138,1032.72502 1500.7689,1033.1625 C1500.23762,1033.56878 1499.86262,1034.14692 1499.6439,1034.89692 C1499.2689,1036.02192 1499.0814,1037.24068 1499.0814,1038.5532 L1499.0814,1048.35 L1495.9407,1048.35 Z M1520.73762,1042.35 L1524.0189,1042.725 C1523.5189,1044.63128 1522.56576,1046.11568 1521.15948,1047.1782 C1519.75324,1048.24068 1517.97198,1048.77192 1515.8157,1048.77192 C1513.09698,1048.77192 1510.92512,1047.92818 1509.30012,1046.2407 C1507.70636,1044.55318 1506.90948,1042.19378 1506.90948,1039.1625 C1506.90948,1036.0375 1507.72198,1033.61564 1509.34698,1031.89692 C1510.97198,1030.14692 1513.06572,1029.27192 1515.6282,1029.27192 C1518.1282,1029.27192 1520.15946,1030.11568 1521.72198,1031.8032 C1523.31574,1033.49068 1524.11262,1035.88128 1524.11262,1038.975 C1524.11262,1039.16252 1524.11262,1039.44378 1524.11262,1039.81878 L1510.1907,1039.81878 C1510.3157,1041.88126 1510.89384,1043.4594 1511.92512,1044.5532 C1512.95636,1045.61568 1514.25322,1046.14692 1515.8157,1046.14692 C1516.97198,1046.14692 1517.95638,1045.85004 1518.7689,1045.25628 C1519.61262,1044.63128 1520.26886,1043.66252 1520.73762,1042.35 Z M1510.3782,1037.2407 L1520.78448,1037.2407 C1520.65948,1035.6469 1520.26886,1034.4594 1519.61262,1033.6782 C1518.58134,1032.4594 1517.26884,1031.85 1515.67512,1031.85 C1514.20636,1031.85 1512.97198,1032.3344 1511.97198,1033.3032 C1511.00326,1034.27192 1510.472,1035.58442 1510.3782,1037.2407 Z" id="Shape" fill="#000000" fill-rule="nonzero"></path>
        </g>
    </g>
</svg>