<svg version="1.1" viewBox="0.0 0.0 600.0 371.0" fill="none" stroke="none" stroke-linecap="square" stroke-miterlimit="10" width="600" height="371" xmlns:xlink="http://www.w3.org/1999/xlink" xmlns="http://www.w3.org/2000/svg"><path fill="#ffffff" d="M0 0L600.0 0L600.0 371.0L0 371.0L0 0Z" fill-rule="nonzero"/><path stroke="#333333" stroke-width="1.0" stroke-linecap="butt" d="M42.5 332.5L581.5 332.5" fill-rule="nonzero"/><path stroke="#cccccc" stroke-width="1.0" stroke-linecap="butt" d="M42.5 229.5L581.5 229.5" fill-rule="nonzero"/><path stroke="#cccccc" stroke-width="1.0" stroke-linecap="butt" d="M42.5 127.5L581.5 127.5" fill-rule="nonzero"/><path stroke="#cccccc" stroke-width="1.0" stroke-linecap="butt" d="M42.5 24.5L581.5 24.5" fill-rule="nonzero"/><clipPath id="id_0"><path d="M42.55 24.55L581.45 24.55L581.45 332.45L42.55 332.45L42.55 24.55Z" clip-rule="nonzero"/></clipPath><path stroke="#000000" stroke-width="2.0" stroke-linecap="butt" stroke-opacity="0.0" clip-path="url(#id_0)" d="M204.0 332.0L99.0 332.0L99.0 27.0C99.0 25.89543 99.89543 25.0 101.0 25.0L202.0 25.0C203.10457 25.0 204.0 25.89543 204.0 27.0Z" fill-rule="nonzero"/><path fill="#1d70b8" clip-path="url(#id_0)" d="M204.0 332.0L99.0 332.0L99.0 27.0C99.0 25.89543 99.89543 25.0 101.0 25.0L202.0 25.0C203.10457 25.0 204.0 25.89543 204.0 27.0Z" fill-rule="nonzero"/><path stroke="#000000" stroke-width="2.0" stroke-linecap="butt" stroke-opacity="0.0" clip-path="url(#id_0)" d="M365.0 332.0L260.0 332.0L260.0 232.0C260.0 230.89543 260.89542 230.0 262.0 230.0L363.0 230.0C364.10458 230.0 365.0 230.89543 365.0 232.0Z" fill-rule="nonzero"/><path fill="#1d70b8" clip-path="url(#id_0)" d="M365.0 332.0L260.0 332.0L260.0 232.0C260.0 230.89543 260.89542 230.0 262.0 230.0L363.0 230.0C364.10458 230.0 365.0 230.89543 365.0 232.0Z" fill-rule="nonzero"/><path stroke="#000000" stroke-width="2.0" stroke-linecap="butt" stroke-opacity="0.0" clip-path="url(#id_0)" d="M526.0 332.0L421.0 332.0L421.0 273.0C421.0 271.89542 421.89542 271.0 423.0 271.0L524.0 271.0C525.10455 271.0 526.0 271.89542 526.0 273.0Z" fill-rule="nonzero"/><path fill="#1d70b8" clip-path="url(#id_0)" d="M526.0 332.0L421.0 332.0L421.0 273.0C421.0 271.89542 421.89542 271.0 423.0 271.0L524.0 271.0C525.10455 271.0 526.0 271.89542 526.0 273.0Z" fill-rule="nonzero"/><path fill="#000000" d="M36.221874 331.6375Q36.221874 332.5125 36.08125 333.23126Q35.940624 333.95 35.6125 334.48126Q35.3 334.9969 34.784374 335.27814Q34.26875 335.5594 33.51875 335.5594Q32.8 335.5594 32.3 335.3094Q31.815624 335.04376 31.51875 334.5594Q31.221874 334.0594 31.096874 333.34064Q30.971874 332.60626 30.971874 331.66876Q30.971874 330.8094 31.1125 330.09064Q31.253124 329.35626 31.565624 328.84064Q31.89375 328.325 32.409374 328.04376Q32.925 327.7625 33.675 327.7625Q34.39375 327.7625 34.878124 328.0125Q35.3625 328.2625 35.659374 328.7625Q35.971874 329.2625 36.096874 329.98126Q36.221874 330.7 36.221874 331.6375ZM35.190624 331.71564Q35.190624 331.1375 35.14375 330.7Q35.096874 330.2469 35.01875 329.90314Q34.940624 329.54376 34.815624 329.29376Q34.690624 329.04376 34.51875 328.8875Q34.346874 328.73126 34.1125 328.65314Q33.89375 328.575 33.6125 328.575Q33.1125 328.575 32.8 328.8094Q32.4875 329.04376 32.3 329.46564Q32.128124 329.8719 32.065624 330.41876Q32.003124 330.96564 32.003124 331.60626Q32.003124 332.45 32.08125 333.04376Q32.175 333.6375 32.3625 334.0125Q32.565624 334.3875 32.8625 334.5594Q33.159374 334.73126 33.58125 334.73126Q33.909374 334.73126 34.14375 334.6375Q34.39375 334.52814 34.565624 334.34064Q34.753124 334.1375 34.8625 333.85626Q34.9875 333.575 35.05 333.2469Q35.128124 332.91876 35.159374 332.52814Q35.190624 332.1375 35.190624 331.71564Z" fill-rule="nonzero"/><path fill="#000000" d="M35.925 230.37917Q35.925 230.98854 35.721874 231.47292Q35.51875 231.94167 35.14375 232.26979Q34.76875 232.58229 34.253124 232.75417Q33.7375 232.92604 33.096874 232.92604Q32.753124 232.92604 32.425 232.87917Q32.1125 232.83229 31.8625 232.75417Q31.628124 232.67604 31.45625 232.61354Q31.3 232.53542 31.253124 232.50417Q31.221874 232.45729 31.20625 232.42604Q31.190624 232.39479 31.175 232.34792Q31.159374 232.28542 31.14375 232.20729Q31.14375 232.12917 31.14375 232.03542Q31.14375 231.92604 31.14375 231.84792Q31.159374 231.76979 31.175 231.72292Q31.20625 231.67604 31.2375 231.66042Q31.26875 231.62917 31.315624 231.62917Q31.378124 231.62917 31.4875 231.70729Q31.6125 231.76979 31.815624 231.86354Q32.034374 231.94167 32.33125 232.01979Q32.64375 232.09792 33.065624 232.09792Q33.45625 232.09792 33.784374 232.00417Q34.1125 231.91042 34.346874 231.70729Q34.596874 231.50417 34.721874 231.20729Q34.8625 230.91042 34.8625 230.47292Q34.8625 230.11354 34.7375 229.83229Q34.628124 229.55104 34.39375 229.36354Q34.159374 229.17604 33.8 229.09792Q33.440624 229.00417 32.925 229.00417Q32.565624 229.00417 32.3 229.03542Q32.05 229.06667 31.83125 229.06667Q31.675 229.06667 31.596874 229.00417Q31.534374 228.92604 31.534374 228.70729L31.534374 225.61354Q31.534374 225.42604 31.6125 225.33229Q31.70625 225.23854 31.878124 225.23854L35.2375 225.23854Q35.284374 225.23854 35.33125 225.26979Q35.378124 225.28542 35.39375 225.34792Q35.425 225.39479 35.440624 225.47292Q35.45625 225.55104 35.45625 225.66042Q35.45625 225.87917 35.39375 226.00417Q35.346874 226.11354 35.2375 226.11354L32.409374 226.11354L32.409374 228.23854Q32.6125 228.20729 32.815624 228.20729Q33.034374 228.19167 33.315624 228.19167Q33.971874 228.19167 34.45625 228.34792Q34.940624 228.50417 35.26875 228.80104Q35.596874 229.08229 35.753124 229.48854Q35.925 229.87917 35.925 230.37917Z" fill-rule="nonzero"/><path fill="#000000" d="M29.9875 129.77708Q29.9875 129.90208 29.95625 129.98021Q29.940624 130.04271 29.909374 130.08958Q29.89375 130.13646 29.846874 130.16771Q29.815624 130.18333 29.76875 130.18333L25.815624 130.18333Q25.76875 130.18333 25.7375 130.16771Q25.70625 130.13646 25.659374 130.08958Q25.628124 130.04271 25.6125 129.98021Q25.596874 129.90208 25.596874 129.77708Q25.596874 129.68333 25.6125 129.60521Q25.628124 129.52708 25.659374 129.48021Q25.690624 129.43333 25.721874 129.40208Q25.76875 129.37083 25.815624 129.37083L27.39375 129.37083L27.39375 123.60521L25.925 124.48021Q25.815624 124.54271 25.7375 124.558334Q25.675 124.558334 25.628124 124.527084Q25.596874 124.48021 25.58125 124.402084Q25.565624 124.308334 25.565624 124.183334Q25.565624 124.07396 25.565624 124.01146Q25.58125 123.933334 25.596874 123.88646Q25.628124 123.839584 25.659374 123.808334Q25.690624 123.777084 25.7375 123.73021L27.4875 122.620834Q27.503124 122.60521 27.534374 122.589584Q27.58125 122.57396 27.628124 122.57396Q27.690624 122.558334 27.753124 122.558334Q27.83125 122.54271 27.925 122.54271Q28.065624 122.54271 28.159374 122.558334Q28.253124 122.57396 28.3 122.589584Q28.3625 122.60521 28.378124 122.652084Q28.39375 122.683334 28.39375 122.714584L28.39375 129.37083L29.76875 129.37083Q29.815624 129.37083 29.846874 129.40208Q29.89375 129.43333 29.925 129.48021Q29.95625 129.52708 29.971874 129.60521Q29.9875 129.68333 29.9875 129.77708ZM36.221874 126.370834Q36.221874 127.245834 36.08125 127.964584Q35.940624 128.68333 35.6125 129.21458Q35.3 129.73021 34.784374 130.01146Q34.26875 130.29271 33.51875 130.29271Q32.8 130.29271 32.3 130.04271Q31.815624 129.77708 31.51875 129.29271Q31.221874 128.79271 31.096874 128.07396Q30.971874 127.339584 30.971874 126.402084Q30.971874 125.54271 31.1125 124.82396Q31.253124 124.089584 31.565624 123.57396Q31.89375 123.058334 32.409374 122.777084Q32.925 122.495834 33.675 122.495834Q34.39375 122.495834 34.878124 122.745834Q35.3625 122.995834 35.659374 123.495834Q35.971874 123.995834 36.096874 124.714584Q36.221874 125.433334 36.221874 126.370834ZM35.190624 126.44896Q35.190624 125.870834 35.14375 125.433334Q35.096874 124.98021 35.01875 124.63646Q34.940624 124.277084 34.815624 124.027084Q34.690624 123.777084 34.51875 123.620834Q34.346874 123.464584 34.1125 123.38646Q33.89375 123.308334 33.6125 123.308334Q33.1125 123.308334 32.8 123.54271Q32.4875 123.777084 32.3 124.19896Q32.128124 124.60521 32.065624 125.152084Q32.003124 125.69896 32.003124 126.339584Q32.003124 127.183334 32.08125 127.777084Q32.175 128.37083 32.3625 128.74583Q32.565624 129.12083 32.8625 129.29271Q33.159374 129.46458 33.58125 129.46458Q33.909374 129.46458 34.14375 129.37083Q34.39375 129.26146 34.565624 129.07396Q34.753124 128.87083 34.8625 128.58958Q34.9875 128.30833 35.05 127.98021Q35.128124 127.652084 35.159374 127.26146Q35.190624 126.870834 35.190624 126.44896Z" fill-rule="nonzero"/><path fill="#000000" d="M29.9875 27.14375Q29.9875 27.26875 29.95625 27.346874Q29.940624 27.409374 29.909374 27.45625Q29.89375 27.503124 29.846874 27.534374Q29.815624 27.55 29.76875 27.55L25.815624 27.55Q25.76875 27.55 25.7375 27.534374Q25.70625 27.503124 25.659374 27.45625Q25.628124 27.409374 25.6125 27.346874Q25.596874 27.26875 25.596874 27.14375Q25.596874 27.05 25.6125 26.971874Q25.628124 26.89375 25.659374 26.846874Q25.690624 26.8 25.721874 26.76875Q25.76875 26.7375 25.815624 26.7375L27.39375 26.7375L27.39375 20.971874L25.925 21.846874Q25.815624 21.909374 25.7375 21.925Q25.675 21.925 25.628124 21.89375Q25.596874 21.846874 25.58125 21.76875Q25.565624 21.675 25.565624 21.55Q25.565624 21.440624 25.565624 21.378124Q25.58125 21.3 25.596874 21.253124Q25.628124 21.20625 25.659374 21.175Q25.690624 21.14375 25.7375 21.096874L27.4875 19.9875Q27.503124 19.971874 27.534374 19.95625Q27.58125 19.940624 27.628124 19.940624Q27.690624 19.925 27.753124 19.925Q27.83125 19.909374 27.925 19.909374Q28.065624 19.909374 28.159374 19.925Q28.253124 19.940624 28.3 19.95625Q28.3625 19.971874 28.378124 20.01875Q28.39375 20.05 28.39375 20.08125L28.39375 26.7375L29.76875 26.7375Q29.815624 26.7375 29.846874 26.76875Q29.89375 26.8 29.925 26.846874Q29.95625 26.89375 29.971874 26.971874Q29.9875 27.05 29.9875 27.14375ZM35.925 25.1125Q35.925 25.721874 35.721874 26.20625Q35.51875 26.675 35.14375 27.003124Q34.76875 27.315624 34.253124 27.4875Q33.7375 27.659374 33.096874 27.659374Q32.753124 27.659374 32.425 27.6125Q32.1125 27.565624 31.8625 27.4875Q31.628124 27.409374 31.45625 27.346874Q31.3 27.26875 31.253124 27.2375Q31.221874 27.190624 31.20625 27.159374Q31.190624 27.128124 31.175 27.08125Q31.159374 27.01875 31.14375 26.940624Q31.14375 26.8625 31.14375 26.76875Q31.14375 26.659374 31.14375 26.58125Q31.159374 26.503124 31.175 26.45625Q31.20625 26.409374 31.2375 26.39375Q31.26875 26.3625 31.315624 26.3625Q31.378124 26.3625 31.4875 26.440624Q31.6125 26.503124 31.815624 26.596874Q32.034374 26.675 32.33125 26.753124Q32.64375 26.83125 33.065624 26.83125Q33.45625 26.83125 33.784374 26.7375Q34.1125 26.64375 34.346874 26.440624Q34.596874 26.2375 34.721874 25.940624Q34.8625 25.64375 34.8625 25.20625Q34.8625 24.846874 34.7375 24.565624Q34.628124 24.284374 34.39375 24.096874Q34.159374 23.909374 33.8 23.83125Q33.440624 23.7375 32.925 23.7375Q32.565624 23.7375 32.3 23.76875Q32.05 23.8 31.83125 23.8Q31.675 23.8 31.596874 23.7375Q31.534374 23.659374 31.534374 23.440624L31.534374 20.346874Q31.534374 20.159374 31.6125 20.065624Q31.70625 19.971874 31.878124 19.971874L35.2375 19.971874Q35.284374 19.971874 35.33125 20.003124Q35.378124 20.01875 35.39375 20.08125Q35.425 20.128124 35.440624 20.20625Q35.45625 20.284374 35.45625 20.39375Q35.45625 20.6125 35.39375 20.7375Q35.346874 20.846874 35.2375 20.846874L32.409374 20.846874L32.409374 22.971874Q32.6125 22.940624 32.815624 22.940624Q33.034374 22.925 33.315624 22.925Q33.971874 22.925 34.45625 23.08125Q34.940624 23.2375 35.26875 23.534374Q35.596874 23.815624 35.753124 24.221874Q35.925 24.6125 35.925 25.1125Z" fill-rule="nonzero"/><path fill="#000000" d="M143.97807 349.45L143.97807 345.8094L140.66557 340.85626L142.0562 340.85626L143.7437 343.45Q144.21245 344.16876 144.6187 344.90314Q145.00932 344.23126 145.5562 343.3875L147.22807 340.85626L148.54057 340.85626L145.1187 345.8094L145.1187 349.45L143.97807 349.45ZM152.6812 347.45L153.77495 347.575Q153.52495 348.52814 152.82182 349.0594Q152.1187 349.59064 151.04057 349.59064Q149.6812 349.59064 148.8687 348.7469Q148.07182 347.90314 148.07182 346.3875Q148.07182 344.825 148.88432 343.96564Q149.69682 343.09064 150.97807 343.09064Q152.22807 343.09064 153.00932 343.9344Q153.8062 344.77814 153.8062 346.325Q153.8062 346.41876 153.8062 346.60626L149.16557 346.60626Q149.22807 347.6375 149.7437 348.1844Q150.25932 348.71564 151.04057 348.71564Q151.6187 348.71564 152.02495 348.41876Q152.44682 348.10626 152.6812 347.45ZM149.22807 345.7469L152.69682 345.7469Q152.63432 344.95 152.3062 344.5594Q151.79057 343.95 150.9937 343.95Q150.25932 343.95 149.75932 344.4344Q149.27495 344.91876 149.22807 345.7469ZM155.00932 347.59064L156.04057 347.4344Q156.13432 348.0594 156.52495 348.3875Q156.9312 348.71564 157.66557 348.71564Q158.38432 348.71564 158.72807 348.4344Q159.08745 348.1375 159.08745 347.73126Q159.08745 347.3719 158.77495 347.16876Q158.5562 347.02814 157.69682 346.8094Q156.54057 346.5125 156.08745 346.3094Q155.64995 346.09064 155.41557 345.71564Q155.1812 345.34064 155.1812 344.8719Q155.1812 344.46564 155.3687 344.10626Q155.5562 343.7469 155.88432 343.5125Q156.13432 343.34064 156.5562 343.21564Q156.97807 343.09064 157.47807 343.09064Q158.19682 343.09064 158.7437 343.3094Q159.3062 343.5125 159.57182 343.8719Q159.83745 344.23126 159.9312 344.825L158.89995 344.96564Q158.83745 344.4969 158.4937 344.23126Q158.16557 343.95 157.54057 343.95Q156.82182 343.95 156.50932 344.2Q156.19682 344.4344 156.19682 344.7625Q156.19682 344.96564 156.32182 345.1219Q156.46245 345.29376 156.72807 345.40314Q156.88432 345.46564 157.66557 345.66876Q158.79057 345.98126 159.22807 346.16876Q159.66557 346.35626 159.91557 346.71564Q160.16557 347.075 160.16557 347.6219Q160.16557 348.15314 159.85307 348.6219Q159.5562 349.075 158.97807 349.34064Q158.39995 349.59064 157.66557 349.59064Q156.44682 349.59064 155.8062 349.09064Q155.1812 348.575 155.00932 347.59064Z" fill-rule="nonzero"/><path fill="#000000" d="M304.92188 349.45L304.92188 340.85626L306.07812 340.85626L310.59375 347.60626L310.59375 340.85626L311.6875 340.85626L311.6875 349.45L310.51562 349.45L306.0 342.7L306.0 349.45L304.92188 349.45ZM313.40625 346.34064Q313.40625 344.60626 314.35938 343.77814Q315.15625 343.09064 316.3125 343.09064Q317.59375 343.09064 318.40625 343.9344Q319.23438 344.7625 319.23438 346.2469Q319.23438 347.45 318.875 348.1375Q318.51562 348.825 317.8125 349.21564Q317.125 349.59064 316.3125 349.59064Q315.01562 349.59064 314.20312 348.7625Q313.40625 347.91876 313.40625 346.34064ZM314.48438 346.34064Q314.48438 347.52814 315.0 348.1219Q315.53125 348.71564 316.3125 348.71564Q317.10938 348.71564 317.625 348.1219Q318.14062 347.52814 318.14062 346.3094Q318.14062 345.15314 317.60938 344.5594Q317.09375 343.96564 316.3125 343.96564Q315.53125 343.96564 315.0 344.5594Q314.48438 345.1375 314.48438 346.34064Z" fill-rule="nonzero"/><path fill="#000000" d="M437.99066 349.45L437.99066 340.85626L439.11566 340.85626L439.11566 349.45L437.99066 349.45ZM447.72504 348.6844Q447.1313 349.1844 446.5844 349.3875Q446.05316 349.59064 445.42816 349.59064Q444.3969 349.59064 443.85004 349.09064Q443.30316 348.59064 443.30316 347.8094Q443.30316 347.35626 443.5063 346.98126Q443.7094 346.59064 444.05316 346.3719Q444.3969 346.1375 444.8188 346.02814Q445.11566 345.9344 445.7563 345.85626Q447.0219 345.71564 447.6313 345.4969Q447.6313 345.27814 447.6313 345.23126Q447.6313 344.575 447.3344 344.3094Q446.92816 343.96564 446.1313 343.96564Q445.3969 343.96564 445.03754 344.23126Q444.67816 344.48126 444.5063 345.1375L443.47504 344.9969Q443.61566 344.34064 443.9438 343.9344Q444.2719 343.52814 444.8813 343.3094Q445.49066 343.09064 446.28754 343.09064Q447.0844 343.09064 447.5844 343.27814Q448.0844 343.46564 448.3188 343.7469Q448.55316 344.02814 448.6469 344.46564Q448.6938 344.73126 448.6938 345.4344L448.6938 346.84064Q448.6938 348.3094 448.7563 348.7Q448.8344 349.09064 449.03754 349.45L447.92816 349.45Q447.7719 349.1219 447.72504 348.6844ZM447.6313 346.325Q447.05316 346.5594 445.91254 346.73126Q445.2563 346.825 444.99066 346.95Q444.72504 347.0594 444.5688 347.27814Q444.42816 347.4969 444.42816 347.77814Q444.42816 348.2 444.74066 348.48126Q445.0688 348.7625 445.67816 348.7625Q446.28754 348.7625 446.7563 348.4969Q447.24066 348.23126 447.4594 347.7625Q447.6313 347.40314 447.6313 346.71564L447.6313 346.325ZM450.66254 349.45L450.66254 343.23126L451.60004 343.23126L451.60004 344.10626Q451.8969 343.6375 452.3813 343.3719Q452.86566 343.09064 453.49066 343.09064Q454.17816 343.09064 454.61566 343.3719Q455.0688 343.65314 455.24066 344.16876Q455.99066 343.09064 457.16254 343.09064Q458.10004 343.09064 458.5844 343.60626Q459.0844 344.10626 459.0844 345.1844L459.0844 349.45L458.03754 349.45L458.03754 345.52814Q458.03754 344.90314 457.92816 344.6219Q457.8344 344.34064 457.5688 344.16876Q457.30316 343.9969 456.92816 343.9969Q456.2719 343.9969 455.8344 344.4344Q455.41254 344.8719 455.41254 345.84064L455.41254 349.45L454.35004 349.45L454.35004 345.40314Q454.35004 344.7 454.0844 344.35626Q453.8344 343.9969 453.2563 343.9969Q452.80316 343.9969 452.42816 344.23126Q452.05316 344.46564 451.8813 344.91876Q451.7094 345.3719 451.7094 346.21564L451.7094 349.45L450.66254 349.45ZM464.66254 349.45L464.66254 343.23126L465.60004 343.23126L465.60004 344.10626Q466.28754 343.09064 467.5844 343.09064Q468.1469 343.09064 468.61566 343.29376Q469.10004 343.4969 469.3344 343.825Q469.5688 344.15314 469.66254 344.59064Q469.7094 344.8875 469.7094 345.6219L469.7094 349.45L468.66254 349.45L468.66254 345.66876Q468.66254 345.0125 468.53754 344.7Q468.41254 344.3875 468.10004 344.2Q467.78754 343.9969 467.36566 343.9969Q466.6938 343.9969 466.1938 344.4344Q465.7094 344.85626 465.7094 346.04376L465.7094 349.45L464.66254 349.45ZM471.2719 346.34064Q471.2719 344.60626 472.22504 343.77814Q473.0219 343.09064 474.17816 343.09064Q475.4594 343.09064 476.2719 343.9344Q477.10004 344.7625 477.10004 346.2469Q477.10004 347.45 476.74066 348.1375Q476.3813 348.825 475.67816 349.21564Q474.99066 349.59064 474.17816 349.59064Q472.8813 349.59064 472.0688 348.7625Q471.2719 347.91876 471.2719 346.34064ZM472.35004 346.34064Q472.35004 347.52814 472.86566 348.1219Q473.3969 348.71564 474.17816 348.71564Q474.97504 348.71564 475.49066 348.1219Q476.0063 347.52814 476.0063 346.3094Q476.0063 345.15314 475.47504 344.5594Q474.9594 343.96564 474.17816 343.96564Q473.3969 343.96564 472.86566 344.5594Q472.35004 345.1375 472.35004 346.34064ZM480.9594 348.5125L481.11566 349.4344Q480.66254 349.52814 480.3188 349.52814Q479.74066 349.52814 479.42816 349.35626Q479.11566 349.16876 478.97504 348.8719Q478.85004 348.575 478.85004 347.6219L478.85004 344.04376L478.0844 344.04376L478.0844 343.23126L478.85004 343.23126L478.85004 341.6844L479.8969 341.0594L479.8969 343.23126L480.9594 343.23126L480.9594 344.04376L479.8969 344.04376L479.8969 347.6844Q479.8969 348.1375 479.9438 348.2625Q480.0063 348.3875 480.1313 348.46564Q480.2563 348.54376 480.49066 348.54376Q480.67816 348.54376 480.9594 348.5125ZM484.24066 347.59064L485.2719 347.4344Q485.36566 348.0594 485.7563 348.3875Q486.16254 348.71564 486.8969 348.71564Q487.61566 348.71564 487.9594 348.4344Q488.3188 348.1375 488.3188 347.73126Q488.3188 347.3719 488.0063 347.16876Q487.78754 347.02814 486.92816 346.8094Q485.7719 346.5125 485.3188 346.3094Q484.8813 346.09064 484.6469 345.71564Q484.41254 345.34064 484.41254 344.8719Q484.41254 344.46564 484.60004 344.10626Q484.78754 343.7469 485.11566 343.5125Q485.36566 343.34064 485.78754 343.21564Q486.2094 343.09064 486.7094 343.09064Q487.42816 343.09064 487.97504 343.3094Q488.53754 343.5125 488.80316 343.8719Q489.0688 344.23126 489.16254 344.825L488.1313 344.96564Q488.0688 344.4969 487.72504 344.23126Q487.3969 343.95 486.7719 343.95Q486.05316 343.95 485.74066 344.2Q485.42816 344.4344 485.42816 344.7625Q485.42816 344.96564 485.55316 345.1219Q485.6938 345.29376 485.9594 345.40314Q486.11566 345.46564 486.8969 345.66876Q488.0219 345.98126 488.4594 346.16876Q488.8969 346.35626 489.1469 346.71564Q489.3969 347.075 489.3969 347.6219Q489.3969 348.15314 489.0844 348.6219Q488.78754 349.075 488.2094 349.34064Q487.6313 349.59064 486.8969 349.59064Q485.67816 349.59064 485.03754 349.09064Q484.41254 348.575 484.24066 347.59064ZM495.74066 349.45L495.74066 348.52814Q495.0063 349.59064 493.7563 349.59064Q493.2094 349.59064 492.72504 349.3875Q492.2563 349.16876 492.0219 348.85626Q491.78754 348.52814 491.6938 348.0594Q491.6313 347.7625 491.6313 347.075L491.6313 343.23126L492.6938 343.23126L492.6938 346.6844Q492.6938 347.4969 492.7563 347.79376Q492.85004 348.2 493.16254 348.45Q493.49066 348.6844 493.97504 348.6844Q494.4438 348.6844 494.85004 348.45Q495.2719 348.2 495.4438 347.77814Q495.6313 347.35626 495.6313 346.5594L495.6313 343.23126L496.67816 343.23126L496.67816 349.45L495.74066 349.45ZM498.6469 349.45L498.6469 343.23126L499.60004 343.23126L499.60004 344.16876Q499.9594 343.5125 500.2563 343.3094Q500.5688 343.09064 500.9438 343.09064Q501.47504 343.09064 502.0219 343.41876L501.66254 344.40314Q501.2719 344.16876 500.8969 344.16876Q500.53754 344.16876 500.2563 344.3875Q499.99066 344.59064 499.8813 344.96564Q499.6938 345.52814 499.6938 346.1844L499.6938 349.45L498.6469 349.45ZM506.91254 347.45L508.0063 347.575Q507.7563 348.52814 507.05316 349.0594Q506.35004 349.59064 505.2719 349.59064Q503.91254 349.59064 503.10004 348.7469Q502.30316 347.90314 502.30316 346.3875Q502.30316 344.825 503.11566 343.96564Q503.92816 343.09064 505.2094 343.09064Q506.4594 343.09064 507.24066 343.9344Q508.03754 344.77814 508.03754 346.325Q508.03754 346.41876 508.03754 346.60626L503.3969 346.60626Q503.4594 347.6375 503.97504 348.1844Q504.49066 348.71564 505.2719 348.71564Q505.85004 348.71564 506.2563 348.41876Q506.67816 348.10626 506.91254 347.45ZM503.4594 345.7469L506.92816 345.7469Q506.86566 344.95 506.53754 344.5594Q506.0219 343.95 505.22504 343.95Q504.49066 343.95 503.99066 344.4344Q503.5063 344.91876 503.4594 345.7469Z" fill-rule="nonzero"/></svg>