<svg version="1.1" viewBox="0.0 0.0 600.0 371.0" fill="none" stroke="none" stroke-linecap="square" stroke-miterlimit="10" width="600" height="371" xmlns:xlink="http://www.w3.org/1999/xlink" xmlns="http://www.w3.org/2000/svg"><path fill="#ffffff" d="M0 0L600.0 0L600.0 371.0L0 371.0L0 0Z" fill-rule="nonzero"/><path stroke="#333333" stroke-width="1.0" stroke-linecap="butt" d="M42.5 318.5L581.5 318.5" fill-rule="nonzero"/><path stroke="#cccccc" stroke-width="1.0" stroke-linecap="butt" d="M42.5 220.5L581.5 220.5" fill-rule="nonzero"/><path stroke="#cccccc" stroke-width="1.0" stroke-linecap="butt" d="M42.5 122.5L581.5 122.5" fill-rule="nonzero"/><path stroke="#cccccc" stroke-width="1.0" stroke-linecap="butt" d="M42.5 24.5L581.5 24.5" fill-rule="nonzero"/><clipPath id="id_0"><path d="M42.55 24.55L581.45 24.55L581.45 318.45L42.55 318.45L42.55 24.55Z" clip-rule="nonzero"/></clipPath><path stroke="#000000" stroke-width="2.0" stroke-linecap="butt" stroke-opacity="0.0" clip-path="url(#id_0)" d="M167.0 318.0L86.0 318.0L86.0 222.0C86.0 220.89543 86.89543 220.0 88.0 220.0L165.0 220.0C166.10457 220.0 167.0 220.89543 167.0 222.0Z" fill-rule="nonzero"/><path fill="#1d70b8" clip-path="url(#id_0)" d="M167.0 318.0L86.0 318.0L86.0 222.0C86.0 220.89543 86.89543 220.0 88.0 220.0L165.0 220.0C166.10457 220.0 167.0 220.89543 167.0 222.0Z" fill-rule="nonzero"/><path stroke="#000000" stroke-width="2.0" stroke-linecap="butt" stroke-opacity="0.0" clip-path="url(#id_0)" d="M291.0 318.0L210.0 318.0L210.0 262.0C210.0 260.89542 210.89543 260.0 212.0 260.0L289.0 260.0C290.10458 260.0 291.0 260.89542 291.0 262.0Z" fill-rule="nonzero"/><path fill="#1d70b8" clip-path="url(#id_0)" d="M291.0 318.0L210.0 318.0L210.0 262.0C210.0 260.89542 210.89543 260.0 212.0 260.0L289.0 260.0C290.10458 260.0 291.0 260.89542 291.0 262.0Z" fill-rule="nonzero"/><path stroke="#000000" stroke-width="2.0" stroke-linecap="butt" stroke-opacity="0.0" clip-path="url(#id_0)" d="M415.0 318.0L334.0 318.0L334.0 66.0C334.0 64.89543 334.89542 64.0 336.0 64.0L413.0 64.0C414.10458 64.0 415.0 64.89543 415.0 66.0Z" fill-rule="nonzero"/><path fill="#1d70b8" clip-path="url(#id_0)" d="M415.0 318.0L334.0 318.0L334.0 66.0C334.0 64.89543 334.89542 64.0 336.0 64.0L413.0 64.0C414.10458 64.0 415.0 64.89543 415.0 66.0Z" fill-rule="nonzero"/><path stroke="#000000" stroke-width="2.0" stroke-linecap="butt" stroke-opacity="0.0" clip-path="url(#id_0)" d="M539.0 318.0L458.0 318.0L458.0 281.0C458.0 279.89542 458.89542 279.0 460.0 279.0L537.0 279.0C538.10455 279.0 539.0 279.89542 539.0 281.0Z" fill-rule="nonzero"/><path fill="#1d70b8" clip-path="url(#id_0)" d="M539.0 318.0L458.0 318.0L458.0 281.0C458.0 279.89542 458.89542 279.0 460.0 279.0L537.0 279.0C538.10455 279.0 539.0 279.89542 539.0 281.0Z" fill-rule="nonzero"/><path fill="#000000" d="M36.221874 317.6375Q36.221874 318.5125 36.08125 319.23126Q35.940624 319.95 35.6125 320.48126Q35.3 320.9969 34.784374 321.27814Q34.26875 321.5594 33.51875 321.5594Q32.8 321.5594 32.3 321.3094Q31.815624 321.04376 31.51875 320.5594Q31.221874 320.0594 31.096874 319.34064Q30.971874 318.60626 30.971874 317.66876Q30.971874 316.8094 31.1125 316.09064Q31.253124 315.35626 31.565624 314.84064Q31.89375 314.325 32.409374 314.04376Q32.925 313.7625 33.675 313.7625Q34.39375 313.7625 34.878124 314.0125Q35.3625 314.2625 35.659374 314.7625Q35.971874 315.2625 36.096874 315.98126Q36.221874 316.7 36.221874 317.6375ZM35.190624 317.71564Q35.190624 317.1375 35.14375 316.7Q35.096874 316.2469 35.01875 315.90314Q34.940624 315.54376 34.815624 315.29376Q34.690624 315.04376 34.51875 314.8875Q34.346874 314.73126 34.1125 314.65314Q33.89375 314.575 33.6125 314.575Q33.1125 314.575 32.8 314.8094Q32.4875 315.04376 32.3 315.46564Q32.128124 315.8719 32.065624 316.41876Q32.003124 316.96564 32.003124 317.60626Q32.003124 318.45 32.08125 319.04376Q32.175 319.6375 32.3625 320.0125Q32.565624 320.3875 32.8625 320.5594Q33.159374 320.73126 33.58125 320.73126Q33.909374 320.73126 34.14375 320.6375Q34.39375 320.52814 34.565624 320.34064Q34.753124 320.1375 34.8625 319.85626Q34.9875 319.575 35.05 319.2469Q35.128124 318.91876 35.159374 318.52814Q35.190624 318.1375 35.190624 317.71564Z" fill-rule="nonzero"/><path fill="#000000" d="M35.925 221.04584Q35.925 221.65521 35.721874 222.13959Q35.51875 222.60834 35.14375 222.93646Q34.76875 223.24896 34.253124 223.42084Q33.7375 223.59271 33.096874 223.59271Q32.753124 223.59271 32.425 223.54584Q32.1125 223.49896 31.8625 223.42084Q31.628124 223.34271 31.45625 223.28021Q31.3 223.20209 31.253124 223.17084Q31.221874 223.12396 31.20625 223.09271Q31.190624 223.06146 31.175 223.01459Q31.159374 222.95209 31.14375 222.87396Q31.14375 222.79584 31.14375 222.70209Q31.14375 222.59271 31.14375 222.51459Q31.159374 222.43646 31.175 222.38959Q31.20625 222.34271 31.2375 222.32709Q31.26875 222.29584 31.315624 222.29584Q31.378124 222.29584 31.4875 222.37396Q31.6125 222.43646 31.815624 222.53021Q32.034374 222.60834 32.33125 222.68646Q32.64375 222.76459 33.065624 222.76459Q33.45625 222.76459 33.784374 222.67084Q34.1125 222.57709 34.346874 222.37396Q34.596874 222.17084 34.721874 221.87396Q34.8625 221.57709 34.8625 221.13959Q34.8625 220.78021 34.7375 220.49896Q34.628124 220.21771 34.39375 220.03021Q34.159374 219.84271 33.8 219.76459Q33.440624 219.67084 32.925 219.67084Q32.565624 219.67084 32.3 219.70209Q32.05 219.73334 31.83125 219.73334Q31.675 219.73334 31.596874 219.67084Q31.534374 219.59271 31.534374 219.37396L31.534374 216.28021Q31.534374 216.09271 31.6125 215.99896Q31.70625 215.90521 31.878124 215.90521L35.2375 215.90521Q35.284374 215.90521 35.33125 215.93646Q35.378124 215.95209 35.39375 216.01459Q35.425 216.06146 35.440624 216.13959Q35.45625 216.21771 35.45625 216.32709Q35.45625 216.54584 35.39375 216.67084Q35.346874 216.78021 35.2375 216.78021L32.409374 216.78021L32.409374 218.90521Q32.6125 218.87396 32.815624 218.87396Q33.034374 218.85834 33.315624 218.85834Q33.971874 218.85834 34.45625 219.01459Q34.940624 219.17084 35.26875 219.46771Q35.596874 219.74896 35.753124 220.15521Q35.925 220.54584 35.925 221.04584Z" fill-rule="nonzero"/><path fill="#000000" d="M29.9875 125.11042Q29.9875 125.23542 29.95625 125.313545Q29.940624 125.376045 29.909374 125.42292Q29.89375 125.469795 29.846874 125.501045Q29.815624 125.51667 29.76875 125.51667L25.815624 125.51667Q25.76875 125.51667 25.7375 125.501045Q25.70625 125.469795 25.659374 125.42292Q25.628124 125.376045 25.6125 125.313545Q25.596874 125.23542 25.596874 125.11042Q25.596874 125.01667 25.6125 124.938545Q25.628124 124.86042 25.659374 124.813545Q25.690624 124.76667 25.721874 124.73542Q25.76875 124.70417 25.815624 124.70417L27.39375 124.70417L27.39375 118.938545L25.925 119.813545Q25.815624 119.876045 25.7375 119.89167Q25.675 119.89167 25.628124 119.86042Q25.596874 119.813545 25.58125 119.73542Q25.565624 119.64167 25.565624 119.51667Q25.565624 119.407295 25.565624 119.344795Q25.58125 119.26667 25.596874 119.219795Q25.628124 119.17292 25.659374 119.14167Q25.690624 119.11042 25.7375 119.063545L27.4875 117.95417Q27.503124 117.938545 27.534374 117.92292Q27.58125 117.907295 27.628124 117.907295Q27.690624 117.89167 27.753124 117.89167Q27.83125 117.876045 27.925 117.876045Q28.065624 117.876045 28.159374 117.89167Q28.253124 117.907295 28.3 117.92292Q28.3625 117.938545 28.378124 117.98542Q28.39375 118.01667 28.39375 118.04792L28.39375 124.70417L29.76875 124.70417Q29.815624 124.70417 29.846874 124.73542Q29.89375 124.76667 29.925 124.813545Q29.95625 124.86042 29.971874 124.938545Q29.9875 125.01667 29.9875 125.11042ZM36.221874 121.70417Q36.221874 122.57917 36.08125 123.29792Q35.940624 124.01667 35.6125 124.54792Q35.3 125.063545 34.784374 125.344795Q34.26875 125.626045 33.51875 125.626045Q32.8 125.626045 32.3 125.376045Q31.815624 125.11042 31.51875 124.626045Q31.221874 124.126045 31.096874 123.407295Q30.971874 122.67292 30.971874 121.73542Q30.971874 120.876045 31.1125 120.157295Q31.253124 119.42292 31.565624 118.907295Q31.89375 118.39167 32.409374 118.11042Q32.925 117.82917 33.675 117.82917Q34.39375 117.82917 34.878124 118.07917Q35.3625 118.32917 35.659374 118.82917Q35.971874 119.32917 36.096874 120.04792Q36.221874 120.76667 36.221874 121.70417ZM35.190624 121.782295Q35.190624 121.20417 35.14375 120.76667Q35.096874 120.313545 35.01875 119.969795Q34.940624 119.61042 34.815624 119.36042Q34.690624 119.11042 34.51875 118.95417Q34.346874 118.79792 34.1125 118.719795Q33.89375 118.64167 33.6125 118.64167Q33.1125 118.64167 32.8 118.876045Q32.4875 119.11042 32.3 119.532295Q32.128124 119.938545 32.065624 120.48542Q32.003124 121.032295 32.003124 121.67292Q32.003124 122.51667 32.08125 123.11042Q32.175 123.70417 32.3625 124.07917Q32.565624 124.45417 32.8625 124.626045Q33.159374 124.79792 33.58125 124.79792Q33.909374 124.79792 34.14375 124.70417Q34.39375 124.594795 34.565624 124.407295Q34.753124 124.20417 34.8625 123.92292Q34.9875 123.64167 35.05 123.313545Q35.128124 122.98542 35.159374 122.594795Q35.190624 122.20417 35.190624 121.782295Z" fill-rule="nonzero"/><path fill="#000000" d="M29.9875 27.14375Q29.9875 27.26875 29.95625 27.346874Q29.940624 27.409374 29.909374 27.45625Q29.89375 27.503124 29.846874 27.534374Q29.815624 27.55 29.76875 27.55L25.815624 27.55Q25.76875 27.55 25.7375 27.534374Q25.70625 27.503124 25.659374 27.45625Q25.628124 27.409374 25.6125 27.346874Q25.596874 27.26875 25.596874 27.14375Q25.596874 27.05 25.6125 26.971874Q25.628124 26.89375 25.659374 26.846874Q25.690624 26.8 25.721874 26.76875Q25.76875 26.7375 25.815624 26.7375L27.39375 26.7375L27.39375 20.971874L25.925 21.846874Q25.815624 21.909374 25.7375 21.925Q25.675 21.925 25.628124 21.89375Q25.596874 21.846874 25.58125 21.76875Q25.565624 21.675 25.565624 21.55Q25.565624 21.440624 25.565624 21.378124Q25.58125 21.3 25.596874 21.253124Q25.628124 21.20625 25.659374 21.175Q25.690624 21.14375 25.7375 21.096874L27.4875 19.9875Q27.503124 19.971874 27.534374 19.95625Q27.58125 19.940624 27.628124 19.940624Q27.690624 19.925 27.753124 19.925Q27.83125 19.909374 27.925 19.909374Q28.065624 19.909374 28.159374 19.925Q28.253124 19.940624 28.3 19.95625Q28.3625 19.971874 28.378124 20.01875Q28.39375 20.05 28.39375 20.08125L28.39375 26.7375L29.76875 26.7375Q29.815624 26.7375 29.846874 26.76875Q29.89375 26.8 29.925 26.846874Q29.95625 26.89375 29.971874 26.971874Q29.9875 27.05 29.9875 27.14375ZM35.925 25.1125Q35.925 25.721874 35.721874 26.20625Q35.51875 26.675 35.14375 27.003124Q34.76875 27.315624 34.253124 27.4875Q33.7375 27.659374 33.096874 27.659374Q32.753124 27.659374 32.425 27.6125Q32.1125 27.565624 31.8625 27.4875Q31.628124 27.409374 31.45625 27.346874Q31.3 27.26875 31.253124 27.2375Q31.221874 27.190624 31.20625 27.159374Q31.190624 27.128124 31.175 27.08125Q31.159374 27.01875 31.14375 26.940624Q31.14375 26.8625 31.14375 26.76875Q31.14375 26.659374 31.14375 26.58125Q31.159374 26.503124 31.175 26.45625Q31.20625 26.409374 31.2375 26.39375Q31.26875 26.3625 31.315624 26.3625Q31.378124 26.3625 31.4875 26.440624Q31.6125 26.503124 31.815624 26.596874Q32.034374 26.675 32.33125 26.753124Q32.64375 26.83125 33.065624 26.83125Q33.45625 26.83125 33.784374 26.7375Q34.1125 26.64375 34.346874 26.440624Q34.596874 26.2375 34.721874 25.940624Q34.8625 25.64375 34.8625 25.20625Q34.8625 24.846874 34.7375 24.565624Q34.628124 24.284374 34.39375 24.096874Q34.159374 23.909374 33.8 23.83125Q33.440624 23.7375 32.925 23.7375Q32.565624 23.7375 32.3 23.76875Q32.05 23.8 31.83125 23.8Q31.675 23.8 31.596874 23.7375Q31.534374 23.659374 31.534374 23.440624L31.534374 20.346874Q31.534374 20.159374 31.6125 20.065624Q31.70625 19.971874 31.878124 19.971874L35.2375 19.971874Q35.284374 19.971874 35.33125 20.003124Q35.378124 20.01875 35.39375 20.08125Q35.425 20.128124 35.440624 20.20625Q35.45625 20.284374 35.45625 20.39375Q35.45625 20.6125 35.39375 20.7375Q35.346874 20.846874 35.2375 20.846874L32.409374 20.846874L32.409374 22.971874Q32.6125 22.940624 32.815624 22.940624Q33.034374 22.925 33.315624 22.925Q33.971874 22.925 34.45625 23.08125Q34.940624 23.2375 35.26875 23.534374Q35.596874 23.815624 35.753124 24.221874Q35.925 24.6125 35.925 25.1125Z" fill-rule="nonzero"/><path fill="#000000" d="M71.01617 335.45L71.01617 331.8094L67.70367 326.85626L69.09429 326.85626L70.78179 329.45Q71.25054 330.16876 71.65679 330.90314Q72.04742 330.23126 72.59429 329.3875L74.26617 326.85626L75.57867 326.85626L72.15679 331.8094L72.15679 335.45L71.01617 335.45ZM79.71929 333.45L80.81304 333.575Q80.56304 334.52814 79.85992 335.0594Q79.15679 335.59064 78.07867 335.59064Q76.71929 335.59064 75.90679 334.7469Q75.10992 333.90314 75.10992 332.3875Q75.10992 330.825 75.92242 329.96564Q76.73492 329.09064 78.01617 329.09064Q79.26617 329.09064 80.04742 329.9344Q80.84429 330.77814 80.84429 332.325Q80.84429 332.41876 80.84429 332.60626L76.20367 332.60626Q76.26617 333.6375 76.78179 334.1844Q77.29742 334.71564 78.07867 334.71564Q78.65679 334.71564 79.06304 334.41876Q79.48492 334.10626 79.71929 333.45ZM76.26617 331.7469L79.73492 331.7469Q79.67242 330.95 79.34429 330.5594Q78.82867 329.95 78.03179 329.95Q77.29742 329.95 76.79742 330.4344Q76.31304 330.91876 76.26617 331.7469ZM82.04742 333.59064L83.07867 333.4344Q83.17242 334.0594 83.56304 334.3875Q83.96929 334.71564 84.70367 334.71564Q85.42242 334.71564 85.76617 334.4344Q86.12554 334.1375 86.12554 333.73126Q86.12554 333.3719 85.81304 333.16876Q85.59429 333.02814 84.73492 332.8094Q83.57867 332.5125 83.12554 332.3094Q82.68804 332.09064 82.45367 331.71564Q82.21929 331.34064 82.21929 330.8719Q82.21929 330.46564 82.40679 330.10626Q82.59429 329.7469 82.92242 329.5125Q83.17242 329.34064 83.59429 329.21564Q84.01617 329.09064 84.51617 329.09064Q85.23492 329.09064 85.78179 329.3094Q86.34429 329.5125 86.60992 329.8719Q86.87554 330.23126 86.96929 330.825L85.93804 330.96564Q85.87554 330.4969 85.53179 330.23126Q85.20367 329.95 84.57867 329.95Q83.85992 329.95 83.54742 330.2Q83.23492 330.4344 83.23492 330.7625Q83.23492 330.96564 83.35992 331.1219Q83.50054 331.29376 83.76617 331.40314Q83.92242 331.46564 84.70367 331.66876Q85.82867 331.98126 86.26617 332.16876Q86.70367 332.35626 86.95367 332.71564Q87.20367 333.075 87.20367 333.6219Q87.20367 334.15314 86.89117 334.6219Q86.59429 335.075 86.01617 335.34064Q85.43804 335.59064 84.70367 335.59064Q83.48492 335.59064 82.84429 335.09064Q82.21929 334.575 82.04742 333.59064ZM96.53179 334.6844Q95.93804 335.1844 95.39117 335.3875Q94.85992 335.59064 94.23492 335.59064Q93.20367 335.59064 92.65679 335.09064Q92.10992 334.59064 92.10992 333.8094Q92.10992 333.35626 92.31304 332.98126Q92.51617 332.59064 92.85992 332.3719Q93.20367 332.1375 93.62554 332.02814Q93.92242 331.9344 94.56304 331.85626Q95.82867 331.71564 96.43804 331.4969Q96.43804 331.27814 96.43804 331.23126Q96.43804 330.575 96.14117 330.3094Q95.73492 329.96564 94.93804 329.96564Q94.20367 329.96564 93.84429 330.23126Q93.48492 330.48126 93.31304 331.1375L92.28179 330.9969Q92.42242 330.34064 92.75054 329.9344Q93.07867 329.52814 93.68804 329.3094Q94.29742 329.09064 95.09429 329.09064Q95.89117 329.09064 96.39117 329.27814Q96.89117 329.46564 97.12554 329.7469Q97.35992 330.02814 97.45367 330.46564Q97.50054 330.73126 97.50054 331.4344L97.50054 332.84064Q97.50054 334.3094 97.56304 334.7Q97.64117 335.09064 97.84429 335.45L96.73492 335.45Q96.57867 335.1219 96.53179 334.6844ZM96.43804 332.325Q95.85992 332.5594 94.71929 332.73126Q94.06304 332.825 93.79742 332.95Q93.53179 333.0594 93.37554 333.27814Q93.23492 333.4969 93.23492 333.77814Q93.23492 334.2 93.54742 334.48126Q93.87554 334.7625 94.48492 334.7625Q95.09429 334.7625 95.56304 334.4969Q96.04742 334.23126 96.26617 333.7625Q96.43804 333.40314 96.43804 332.71564L96.43804 332.325ZM99.46929 335.45L99.46929 329.23126L100.40679 329.23126L100.40679 330.10626Q101.09429 329.09064 102.39117 329.09064Q102.95367 329.09064 103.42242 329.29376Q103.90679 329.4969 104.14117 329.825Q104.37554 330.15314 104.46929 330.59064Q104.51617 330.8875 104.51617 331.6219L104.51617 335.45L103.46929 335.45L103.46929 331.66876Q103.46929 331.0125 103.34429 330.7Q103.21929 330.3875 102.90679 330.2Q102.59429 329.9969 102.17242 329.9969Q101.50054 329.9969 101.00054 330.4344Q100.51617 330.85626 100.51617 332.04376L100.51617 335.45L99.46929 335.45ZM110.50054 335.45L110.50054 334.66876Q109.90679 335.59064 108.76617 335.59064Q108.01617 335.59064 107.39117 335.1844Q106.76617 334.7625 106.42242 334.02814Q106.07867 333.29376 106.07867 332.34064Q106.07867 331.41876 106.39117 330.65314Q106.70367 329.8875 107.32867 329.4969Q107.95367 329.09064 108.71929 329.09064Q109.28179 329.09064 109.71929 329.325Q110.15679 329.5594 110.43804 329.9344L110.43804 326.85626L111.48492 326.85626L111.48492 335.45L110.50054 335.45ZM107.17242 332.34064Q107.17242 333.54376 107.67242 334.1375Q108.17242 334.71564 108.85992 334.71564Q109.54742 334.71564 110.03179 334.15314Q110.51617 333.59064 110.51617 332.4344Q110.51617 331.15314 110.01617 330.5594Q109.53179 329.96564 108.81304 329.96564Q108.10992 329.96564 107.64117 330.54376Q107.17242 331.10626 107.17242 332.34064ZM116.46929 328.075L116.46929 326.85626L117.53179 326.85626L117.53179 328.075L116.46929 328.075ZM116.46929 335.45L116.46929 329.23126L117.53179 329.23126L117.53179 335.45L116.46929 335.45ZM121.76617 334.5125L121.92242 335.4344Q121.46929 335.52814 121.12554 335.52814Q120.54742 335.52814 120.23492 335.35626Q119.92242 335.16876 119.78179 334.8719Q119.65679 334.575 119.65679 333.6219L119.65679 330.04376L118.89117 330.04376L118.89117 329.23126L119.65679 329.23126L119.65679 327.6844L120.70367 327.0594L120.70367 329.23126L121.76617 329.23126L121.76617 330.04376L120.70367 330.04376L120.70367 333.6844Q120.70367 334.1375 120.75054 334.2625Q120.81304 334.3875 120.93804 334.46564Q121.06304 334.54376 121.29742 334.54376Q121.48492 334.54376 121.76617 334.5125ZM125.46929 328.075L125.46929 326.85626L126.53179 326.85626L126.53179 328.075L125.46929 328.075ZM125.46929 335.45L125.46929 329.23126L126.53179 329.23126L126.53179 335.45L125.46929 335.45ZM128.04742 333.59064L129.07867 333.4344Q129.17242 334.0594 129.56305 334.3875Q129.9693 334.71564 130.70367 334.71564Q131.42242 334.71564 131.76617 334.4344Q132.12555 334.1375 132.12555 333.73126Q132.12555 333.3719 131.81305 333.16876Q131.5943 333.02814 130.73492 332.8094Q129.57867 332.5125 129.12555 332.3094Q128.68805 332.09064 128.45367 331.71564Q128.2193 331.34064 128.2193 330.8719Q128.2193 330.46564 128.4068 330.10626Q128.5943 329.7469 128.92242 329.5125Q129.17242 329.34064 129.5943 329.21564Q130.01617 329.09064 130.51617 329.09064Q131.23492 329.09064 131.7818 329.3094Q132.3443 329.5125 132.60992 329.8719Q132.87555 330.23126 132.9693 330.825L131.93805 330.96564Q131.87555 330.4969 131.5318 330.23126Q131.20367 329.95 130.57867 329.95Q129.85992 329.95 129.54742 330.2Q129.23492 330.4344 129.23492 330.7625Q129.23492 330.96564 129.35992 331.1219Q129.50055 331.29376 129.76617 331.40314Q129.92242 331.46564 130.70367 331.66876Q131.82867 331.98126 132.26617 332.16876Q132.70367 332.35626 132.95367 332.71564Q133.20367 333.075 133.20367 333.6219Q133.20367 334.15314 132.89117 334.6219Q132.5943 335.075 132.01617 335.34064Q131.43805 335.59064 130.70367 335.59064Q129.48492 335.59064 128.8443 335.09064Q128.2193 334.575 128.04742 333.59064ZM138.45367 335.45L138.45367 329.23126L139.4068 329.23126L139.4068 330.16876Q139.76617 329.5125 140.06305 329.3094Q140.37555 329.09064 140.75055 329.09064Q141.2818 329.09064 141.82867 329.41876L141.4693 330.40314Q141.07867 330.16876 140.70367 330.16876Q140.3443 330.16876 140.06305 330.3875Q139.79742 330.59064 139.68805 330.96564Q139.50055 331.52814 139.50055 332.1844L139.50055 335.45L138.45367 335.45ZM146.7193 333.45L147.81305 333.575Q147.56305 334.52814 146.85992 335.0594Q146.1568 335.59064 145.07867 335.59064Q143.7193 335.59064 142.9068 334.7469Q142.10992 333.90314 142.10992 332.3875Q142.10992 330.825 142.92242 329.96564Q143.73492 329.09064 145.01617 329.09064Q146.26617 329.09064 147.04742 329.9344Q147.8443 330.77814 147.8443 332.325Q147.8443 332.41876 147.8443 332.60626L143.20367 332.60626Q143.26617 333.6375 143.7818 334.1844Q144.29742 334.71564 145.07867 334.71564Q145.6568 334.71564 146.06305 334.41876Q146.48492 334.10626 146.7193 333.45ZM143.26617 331.7469L146.73492 331.7469Q146.67242 330.95 146.3443 330.5594Q145.82867 329.95 145.0318 329.95Q144.29742 329.95 143.79742 330.4344Q143.31305 330.91876 143.26617 331.7469ZM149.26617 335.96564L150.29742 336.1219Q150.35992 336.59064 150.6568 336.8094Q151.04742 337.10626 151.7193 337.10626Q152.45367 337.10626 152.8443 336.8094Q153.25055 336.5125 153.39117 335.9969Q153.48492 335.66876 153.4693 334.6375Q152.7818 335.45 151.75055 335.45Q150.4693 335.45 149.76617 334.52814Q149.06305 333.59064 149.06305 332.3094Q149.06305 331.41876 149.37555 330.66876Q149.70367 329.90314 150.31305 329.4969Q150.92242 329.09064 151.75055 329.09064Q152.85992 329.09064 153.57867 329.98126L153.57867 329.23126L154.54742 329.23126L154.54742 334.60626Q154.54742 336.0594 154.25055 336.66876Q153.95367 337.27814 153.31305 337.6219Q152.67242 337.98126 151.73492 337.98126Q150.62555 337.98126 149.93805 337.48126Q149.25055 336.98126 149.26617 335.96564ZM150.14117 332.23126Q150.14117 333.45 150.62555 334.0125Q151.10992 334.575 151.8443 334.575Q152.57867 334.575 153.06305 334.0125Q153.56305 333.45 153.56305 332.2625Q153.56305 331.1219 153.04742 330.54376Q152.54742 329.96564 151.82867 329.96564Q151.12555 329.96564 150.62555 330.54376Q150.14117 331.10626 150.14117 332.23126ZM160.54742 335.45L160.54742 334.52814Q159.81305 335.59064 158.56305 335.59064Q158.01617 335.59064 157.5318 335.3875Q157.06305 335.16876 156.82867 334.85626Q156.5943 334.52814 156.50055 334.0594Q156.43805 333.7625 156.43805 333.075L156.43805 329.23126L157.50055 329.23126L157.50055 332.6844Q157.50055 333.4969 157.56305 333.79376Q157.6568 334.2 157.9693 334.45Q158.29742 334.6844 158.7818 334.6844Q159.25055 334.6844 159.6568 334.45Q160.07867 334.2 160.25055 333.77814Q160.43805 333.35626 160.43805 332.5594L160.43805 329.23126L161.48492 329.23126L161.48492 335.45L160.54742 335.45ZM163.43805 335.45L163.43805 326.85626L164.50055 326.85626L164.50055 335.45L163.43805 335.45ZM170.5318 334.6844Q169.93805 335.1844 169.39117 335.3875Q168.85992 335.59064 168.23492 335.59064Q167.20367 335.59064 166.6568 335.09064Q166.10992 334.59064 166.10992 333.8094Q166.10992 333.35626 166.31305 332.98126Q166.51617 332.59064 166.85992 332.3719Q167.20367 332.1375 167.62555 332.02814Q167.92242 331.9344 168.56305 331.85626Q169.82867 331.71564 170.43805 331.4969Q170.43805 331.27814 170.43805 331.23126Q170.43805 330.575 170.14117 330.3094Q169.73492 329.96564 168.93805 329.96564Q168.20367 329.96564 167.8443 330.23126Q167.48492 330.48126 167.31305 331.1375L166.2818 330.9969Q166.42242 330.34064 166.75055 329.9344Q167.07867 329.52814 167.68805 329.3094Q168.29742 329.09064 169.0943 329.09064Q169.89117 329.09064 170.39117 329.27814Q170.89117 329.46564 171.12555 329.7469Q171.35992 330.02814 171.45367 330.46564Q171.50055 330.73126 171.50055 331.4344L171.50055 332.84064Q171.50055 334.3094 171.56305 334.7Q171.64117 335.09064 171.8443 335.45L170.73492 335.45Q170.57867 335.1219 170.5318 334.6844ZM170.43805 332.325Q169.85992 332.5594 168.7193 332.73126Q168.06305 332.825 167.79742 332.95Q167.5318 333.0594 167.37555 333.27814Q167.23492 333.4969 167.23492 333.77814Q167.23492 334.2 167.54742 334.48126Q167.87555 334.7625 168.48492 334.7625Q169.0943 334.7625 169.56305 334.4969Q170.04742 334.23126 170.26617 333.7625Q170.43805 333.40314 170.43805 332.71564L170.43805 332.325ZM173.45367 335.45L173.45367 329.23126L174.4068 329.23126L174.4068 330.16876Q174.76617 329.5125 175.06305 329.3094Q175.37555 329.09064 175.75055 329.09064Q176.2818 329.09064 176.82867 329.41876L176.4693 330.40314Q176.07867 330.16876 175.70367 330.16876Q175.3443 330.16876 175.06305 330.3875Q174.79742 330.59064 174.68805 330.96564Q174.50055 331.52814 174.50055 332.1844L174.50055 335.45L173.45367 335.45ZM177.43805 335.45L177.43805 326.85626L178.50055 326.85626L178.50055 335.45L177.43805 335.45ZM180.42242 337.84064L180.29742 336.85626Q180.64117 336.95 180.9068 336.95Q181.25055 336.95 181.45367 336.825Q181.67242 336.71564 181.81305 336.5125Q181.9068 336.34064 182.14117 335.71564Q182.1568 335.6375 182.23492 335.46564L179.85992 329.23126L181.00055 329.23126L182.29742 332.825Q182.54742 333.5125 182.75055 334.27814Q182.93805 333.54376 183.18805 332.85626L184.51617 329.23126L185.56305 329.23126L183.20367 335.5594Q182.81305 336.575 182.60992 336.96564Q182.32867 337.4969 181.95367 337.73126Q181.5943 337.98126 181.0943 337.98126Q180.79742 337.98126 180.42242 337.84064Z" fill-rule="nonzero"/><path fill="#000000" d="M95.96929 349.45L95.96929 343.23126L96.90679 343.23126L96.90679 344.10626Q97.20367 343.6375 97.68804 343.3719Q98.17242 343.09064 98.79742 343.09064Q99.48492 343.09064 99.92242 343.3719Q100.37554 343.65314 100.54742 344.16876Q101.29742 343.09064 102.46929 343.09064Q103.40679 343.09064 103.89117 343.60626Q104.39117 344.10626 104.39117 345.1844L104.39117 349.45L103.34429 349.45L103.34429 345.52814Q103.34429 344.90314 103.23492 344.6219Q103.14117 344.34064 102.87554 344.16876Q102.60992 343.9969 102.23492 343.9969Q101.57867 343.9969 101.14117 344.4344Q100.71929 344.8719 100.71929 345.84064L100.71929 349.45L99.65679 349.45L99.65679 345.40314Q99.65679 344.7 99.39117 344.35626Q99.14117 343.9969 98.56304 343.9969Q98.10992 343.9969 97.73492 344.23126Q97.35992 344.46564 97.18804 344.91876Q97.01617 345.3719 97.01617 346.21564L97.01617 349.45L95.96929 349.45ZM111.03179 348.6844Q110.43804 349.1844 109.89117 349.3875Q109.35992 349.59064 108.73492 349.59064Q107.70367 349.59064 107.15679 349.09064Q106.60992 348.59064 106.60992 347.8094Q106.60992 347.35626 106.81304 346.98126Q107.01617 346.59064 107.35992 346.3719Q107.70367 346.1375 108.12554 346.02814Q108.42242 345.9344 109.06304 345.85626Q110.32867 345.71564 110.93804 345.4969Q110.93804 345.27814 110.93804 345.23126Q110.93804 344.575 110.64117 344.3094Q110.23492 343.96564 109.43804 343.96564Q108.70367 343.96564 108.34429 344.23126Q107.98492 344.48126 107.81304 345.1375L106.78179 344.9969Q106.92242 344.34064 107.25054 343.9344Q107.57867 343.52814 108.18804 343.3094Q108.79742 343.09064 109.59429 343.09064Q110.39117 343.09064 110.89117 343.27814Q111.39117 343.46564 111.62554 343.7469Q111.85992 344.02814 111.95367 344.46564Q112.00054 344.73126 112.00054 345.4344L112.00054 346.84064Q112.00054 348.3094 112.06304 348.7Q112.14117 349.09064 112.34429 349.45L111.23492 349.45Q111.07867 349.1219 111.03179 348.6844ZM110.93804 346.325Q110.35992 346.5594 109.21929 346.73126Q108.56304 346.825 108.29742 346.95Q108.03179 347.0594 107.87554 347.27814Q107.73492 347.4969 107.73492 347.77814Q107.73492 348.2 108.04742 348.48126Q108.37554 348.7625 108.98492 348.7625Q109.59429 348.7625 110.06304 348.4969Q110.54742 348.23126 110.76617 347.7625Q110.93804 347.40314 110.93804 346.71564L110.93804 346.325ZM113.96929 342.075L113.96929 340.85626L115.03179 340.85626L115.03179 342.075L113.96929 342.075ZM113.96929 349.45L113.96929 343.23126L115.03179 343.23126L115.03179 349.45L113.96929 349.45ZM116.96929 349.45L116.96929 343.23126L117.90679 343.23126L117.90679 344.10626Q118.59429 343.09064 119.89117 343.09064Q120.45367 343.09064 120.92242 343.29376Q121.40679 343.4969 121.64117 343.825Q121.87554 344.15314 121.96929 344.59064Q122.01617 344.8875 122.01617 345.6219L122.01617 349.45L120.96929 349.45L120.96929 345.66876Q120.96929 345.0125 120.84429 344.7Q120.71929 344.3875 120.40679 344.2Q120.09429 343.9969 119.67242 343.9969Q119.00054 343.9969 118.50054 344.4344Q118.01617 344.85626 118.01617 346.04376L118.01617 349.45L116.96929 349.45ZM126.26617 348.5125L126.42242 349.4344Q125.96929 349.52814 125.62554 349.52814Q125.04742 349.52814 124.73492 349.35626Q124.42242 349.16876 124.28179 348.8719Q124.15679 348.575 124.15679 347.6219L124.15679 344.04376L123.39117 344.04376L123.39117 343.23126L124.15679 343.23126L124.15679 341.6844L125.20367 341.0594L125.20367 343.23126L126.26617 343.23126L126.26617 344.04376L125.20367 344.04376L125.20367 347.6844Q125.20367 348.1375 125.25054 348.2625Q125.31304 348.3875 125.43804 348.46564Q125.56304 348.54376 125.79742 348.54376Q125.98492 348.54376 126.26617 348.5125ZM131.0318 348.6844Q130.43805 349.1844 129.89117 349.3875Q129.35992 349.59064 128.73492 349.59064Q127.70367 349.59064 127.15679 349.09064Q126.60992 348.59064 126.60992 347.8094Q126.60992 347.35626 126.81304 346.98126Q127.01617 346.59064 127.35992 346.3719Q127.70367 346.1375 128.12555 346.02814Q128.42242 345.9344 129.06305 345.85626Q130.32867 345.71564 130.93805 345.4969Q130.93805 345.27814 130.93805 345.23126Q130.93805 344.575 130.64117 344.3094Q130.23492 343.96564 129.43805 343.96564Q128.70367 343.96564 128.3443 344.23126Q127.98492 344.48126 127.81304 345.1375L126.78179 344.9969Q126.92242 344.34064 127.25054 343.9344Q127.57867 343.52814 128.18805 343.3094Q128.79742 343.09064 129.5943 343.09064Q130.39117 343.09064 130.89117 343.27814Q131.39117 343.46564 131.62555 343.7469Q131.85992 344.02814 131.95367 344.46564Q132.00055 344.73126 132.00055 345.4344L132.00055 346.84064Q132.00055 348.3094 132.06305 348.7Q132.14117 349.09064 132.3443 349.45L131.23492 349.45Q131.07867 349.1219 131.0318 348.6844ZM130.93805 346.325Q130.35992 346.5594 129.2193 346.73126Q128.56305 346.825 128.29742 346.95Q128.0318 347.0594 127.87554 347.27814Q127.73492 347.4969 127.73492 347.77814Q127.73492 348.2 128.04742 348.48126Q128.37555 348.7625 128.98492 348.7625Q129.5943 348.7625 130.06305 348.4969Q130.54742 348.23126 130.76617 347.7625Q130.93805 347.40314 130.93805 346.71564L130.93805 346.325ZM133.9693 342.075L133.9693 340.85626L135.0318 340.85626L135.0318 342.075L133.9693 342.075ZM133.9693 349.45L133.9693 343.23126L135.0318 343.23126L135.0318 349.45L133.9693 349.45ZM136.9693 349.45L136.9693 343.23126L137.9068 343.23126L137.9068 344.10626Q138.5943 343.09064 139.89117 343.09064Q140.45367 343.09064 140.92242 343.29376Q141.4068 343.4969 141.64117 343.825Q141.87555 344.15314 141.9693 344.59064Q142.01617 344.8875 142.01617 345.6219L142.01617 349.45L140.9693 349.45L140.9693 345.66876Q140.9693 345.0125 140.8443 344.7Q140.7193 344.3875 140.4068 344.2Q140.0943 343.9969 139.67242 343.9969Q139.00055 343.9969 138.50055 344.4344Q138.01617 344.85626 138.01617 346.04376L138.01617 349.45L136.9693 349.45ZM148.2193 347.45L149.31305 347.575Q149.06305 348.52814 148.35992 349.0594Q147.6568 349.59064 146.57867 349.59064Q145.2193 349.59064 144.4068 348.7469Q143.60992 347.90314 143.60992 346.3875Q143.60992 344.825 144.42242 343.96564Q145.23492 343.09064 146.51617 343.09064Q147.76617 343.09064 148.54742 343.9344Q149.3443 344.77814 149.3443 346.325Q149.3443 346.41876 149.3443 346.60626L144.70367 346.60626Q144.76617 347.6375 145.2818 348.1844Q145.79742 348.71564 146.57867 348.71564Q147.1568 348.71564 147.56305 348.41876Q147.98492 348.10626 148.2193 347.45ZM144.76617 345.7469L148.23492 345.7469Q148.17242 344.95 147.8443 344.5594Q147.32867 343.95 146.5318 343.95Q145.79742 343.95 145.29742 344.4344Q144.81305 344.91876 144.76617 345.7469ZM155.00055 349.45L155.00055 348.66876Q154.4068 349.59064 153.26617 349.59064Q152.51617 349.59064 151.89117 349.1844Q151.26617 348.7625 150.92242 348.02814Q150.57867 347.29376 150.57867 346.34064Q150.57867 345.41876 150.89117 344.65314Q151.20367 343.8875 151.82867 343.4969Q152.45367 343.09064 153.2193 343.09064Q153.7818 343.09064 154.2193 343.325Q154.6568 343.5594 154.93805 343.9344L154.93805 340.85626L155.98492 340.85626L155.98492 349.45L155.00055 349.45ZM151.67242 346.34064Q151.67242 347.54376 152.17242 348.1375Q152.67242 348.71564 153.35992 348.71564Q154.04742 348.71564 154.5318 348.15314Q155.01617 347.59064 155.01617 346.4344Q155.01617 345.15314 154.51617 344.5594Q154.0318 343.96564 153.31305 343.96564Q152.60992 343.96564 152.14117 344.54376Q151.67242 345.10626 151.67242 346.34064Z" fill-rule="nonzero"/><path fill="#000000" d="M211.90121 335.45L211.90121 331.8094L208.58871 326.85626L209.97934 326.85626L211.66684 329.45Q212.13559 330.16876 212.54184 330.90314Q212.93246 330.23126 213.47934 329.3875L215.15121 326.85626L216.46371 326.85626L213.04184 331.8094L213.04184 335.45L211.90121 335.45ZM220.60434 333.45L221.69809 333.575Q221.44809 334.52814 220.74496 335.0594Q220.04184 335.59064 218.96371 335.59064Q217.60434 335.59064 216.79184 334.7469Q215.99496 333.90314 215.99496 332.3875Q215.99496 330.825 216.80746 329.96564Q217.61996 329.09064 218.90121 329.09064Q220.15121 329.09064 220.93246 329.9344Q221.72934 330.77814 221.72934 332.325Q221.72934 332.41876 221.72934 332.60626L217.08871 332.60626Q217.15121 333.6375 217.66684 334.1844Q218.18246 334.71564 218.96371 334.71564Q219.54184 334.71564 219.94809 334.41876Q220.36996 334.10626 220.60434 333.45ZM217.15121 331.7469L220.61996 331.7469Q220.55746 330.95 220.22934 330.5594Q219.71371 329.95 218.91684 329.95Q218.18246 329.95 217.68246 330.4344Q217.19809 330.91876 217.15121 331.7469ZM222.93246 333.59064L223.96371 333.4344Q224.05746 334.0594 224.44809 334.3875Q224.85434 334.71564 225.58871 334.71564Q226.30746 334.71564 226.65121 334.4344Q227.01059 334.1375 227.01059 333.73126Q227.01059 333.3719 226.69809 333.16876Q226.47934 333.02814 225.61996 332.8094Q224.46371 332.5125 224.01059 332.3094Q223.57309 332.09064 223.33871 331.71564Q223.10434 331.34064 223.10434 330.8719Q223.10434 330.46564 223.29184 330.10626Q223.47934 329.7469 223.80746 329.5125Q224.05746 329.34064 224.47934 329.21564Q224.90121 329.09064 225.40121 329.09064Q226.11996 329.09064 226.66684 329.3094Q227.22934 329.5125 227.49496 329.8719Q227.76059 330.23126 227.85434 330.825L226.82309 330.96564Q226.76059 330.4969 226.41684 330.23126Q226.08871 329.95 225.46371 329.95Q224.74496 329.95 224.43246 330.2Q224.11996 330.4344 224.11996 330.7625Q224.11996 330.96564 224.24496 331.1219Q224.38559 331.29376 224.65121 331.40314Q224.80746 331.46564 225.58871 331.66876Q226.71371 331.98126 227.15121 332.16876Q227.58871 332.35626 227.83871 332.71564Q228.08871 333.075 228.08871 333.6219Q228.08871 334.15314 227.77621 334.6219Q227.47934 335.075 226.90121 335.34064Q226.32309 335.59064 225.58871 335.59064Q224.36996 335.59064 223.72934 335.09064Q223.10434 334.575 222.93246 333.59064ZM234.32309 335.45L233.33871 335.45L233.33871 326.85626L234.40121 326.85626L234.40121 329.91876Q235.07309 329.09064 236.10434 329.09064Q236.68246 329.09064 237.18246 329.325Q237.69809 329.54376 238.02621 329.96564Q238.36996 330.3875 238.55746 330.98126Q238.74496 331.575 238.74496 332.2469Q238.74496 333.84064 237.94809 334.71564Q237.15121 335.59064 236.05746 335.59064Q234.94809 335.59064 234.32309 334.66876L234.32309 335.45ZM234.30746 332.29376Q234.30746 333.40314 234.61996 333.90314Q235.11996 334.71564 235.96371 334.71564Q236.65121 334.71564 237.15121 334.1219Q237.66684 333.52814 237.66684 332.325Q237.66684 331.10626 237.18246 330.52814Q236.69809 329.95 236.01059 329.95Q235.32309 329.95 234.80746 330.5594Q234.30746 331.15314 234.30746 332.29376ZM244.43246 335.45L244.43246 334.52814Q243.69809 335.59064 242.44809 335.59064Q241.90121 335.59064 241.41684 335.3875Q240.94809 335.16876 240.71371 334.85626Q240.47934 334.52814 240.38559 334.0594Q240.32309 333.7625 240.32309 333.075L240.32309 329.23126L241.38559 329.23126L241.38559 332.6844Q241.38559 333.4969 241.44809 333.79376Q241.54184 334.2 241.85434 334.45Q242.18246 334.6844 242.66684 334.6844Q243.13559 334.6844 243.54184 334.45Q243.96371 334.2 244.13559 333.77814Q244.32309 333.35626 244.32309 332.5594L244.32309 329.23126L245.36996 329.23126L245.36996 335.45L244.43246 335.45ZM249.65121 334.5125L249.80746 335.4344Q249.35434 335.52814 249.01059 335.52814Q248.43246 335.52814 248.11996 335.35626Q247.80746 335.16876 247.66684 334.8719Q247.54184 334.575 247.54184 333.6219L247.54184 330.04376L246.77621 330.04376L246.77621 329.23126L247.54184 329.23126L247.54184 327.6844L248.58871 327.0594L248.58871 329.23126L249.65121 329.23126L249.65121 330.04376L248.58871 330.04376L248.58871 333.6844Q248.58871 334.1375 248.63559 334.2625Q248.69809 334.3875 248.82309 334.46564Q248.94809 334.54376 249.18246 334.54376Q249.36996 334.54376 249.65121 334.5125ZM253.35434 328.075L253.35434 326.85626L254.41684 326.85626L254.41684 328.075L253.35434 328.075ZM253.35434 335.45L253.35434 329.23126L254.41684 329.23126L254.41684 335.45L253.35434 335.45ZM258.6512 334.5125L258.80746 335.4344Q258.35434 335.52814 258.0106 335.52814Q257.43246 335.52814 257.11996 335.35626Q256.80746 335.16876 256.66684 334.8719Q256.54184 334.575 256.54184 333.6219L256.54184 330.04376L255.77621 330.04376L255.77621 329.23126L256.54184 329.23126L256.54184 327.6844L257.5887 327.0594L257.5887 329.23126L258.6512 329.23126L258.6512 330.04376L257.5887 330.04376L257.5887 333.6844Q257.5887 334.1375 257.6356 334.2625Q257.6981 334.3875 257.8231 334.46564Q257.9481 334.54376 258.18246 334.54376Q258.36996 334.54376 258.6512 334.5125ZM262.35434 328.075L262.35434 326.85626L263.41684 326.85626L263.41684 328.075L262.35434 328.075ZM262.35434 335.45L262.35434 329.23126L263.41684 329.23126L263.41684 335.45L262.35434 335.45ZM264.93246 333.59064L265.9637 333.4344Q266.05746 334.0594 266.4481 334.3875Q266.85434 334.71564 267.5887 334.71564Q268.30746 334.71564 268.6512 334.4344Q269.0106 334.1375 269.0106 333.73126Q269.0106 333.3719 268.6981 333.16876Q268.47934 333.02814 267.61996 332.8094Q266.4637 332.5125 266.0106 332.3094Q265.5731 332.09064 265.3387 331.71564Q265.10434 331.34064 265.10434 330.8719Q265.10434 330.46564 265.29184 330.10626Q265.47934 329.7469 265.80746 329.5125Q266.05746 329.34064 266.47934 329.21564Q266.9012 329.09064 267.4012 329.09064Q268.11996 329.09064 268.66684 329.3094Q269.22934 329.5125 269.49496 329.8719Q269.7606 330.23126 269.85434 330.825L268.8231 330.96564Q268.7606 330.4969 268.41684 330.23126Q268.0887 329.95 267.4637 329.95Q266.74496 329.95 266.43246 330.2Q266.11996 330.4344 266.11996 330.7625Q266.11996 330.96564 266.24496 331.1219Q266.3856 331.29376 266.6512 331.40314Q266.80746 331.46564 267.5887 331.66876Q268.7137 331.98126 269.1512 332.16876Q269.5887 332.35626 269.8387 332.71564Q270.0887 333.075 270.0887 333.6219Q270.0887 334.15314 269.7762 334.6219Q269.47934 335.075 268.9012 335.34064Q268.3231 335.59064 267.5887 335.59064Q266.36996 335.59064 265.72934 335.09064Q265.10434 334.575 264.93246 333.59064ZM275.35434 335.45L275.35434 329.23126L276.29184 329.23126L276.29184 330.10626Q276.97934 329.09064 278.2762 329.09064Q278.8387 329.09064 279.30746 329.29376Q279.79184 329.4969 280.0262 329.825Q280.2606 330.15314 280.35434 330.59064Q280.4012 330.8875 280.4012 331.6219L280.4012 335.45L279.35434 335.45L279.35434 331.66876Q279.35434 331.0125 279.22934 330.7Q279.10434 330.3875 278.79184 330.2Q278.47934 329.9969 278.05746 329.9969Q277.3856 329.9969 276.8856 330.4344Q276.4012 330.85626 276.4012 332.04376L276.4012 335.45L275.35434 335.45ZM281.9637 332.34064Q281.9637 330.60626 282.91684 329.77814Q283.7137 329.09064 284.86996 329.09064Q286.1512 329.09064 286.9637 329.9344Q287.79184 330.7625 287.79184 332.2469Q287.79184 333.45 287.43246 334.1375Q287.0731 334.825 286.36996 335.21564Q285.68246 335.59064 284.86996 335.59064Q283.5731 335.59064 282.7606 334.7625Q281.9637 333.91876 281.9637 332.34064ZM283.04184 332.34064Q283.04184 333.52814 283.55746 334.1219Q284.0887 334.71564 284.86996 334.71564Q285.66684 334.71564 286.18246 334.1219Q286.6981 333.52814 286.6981 332.3094Q286.6981 331.15314 286.16684 330.5594Q285.6512 329.96564 284.86996 329.96564Q284.0887 329.96564 283.55746 330.5594Q283.04184 331.1375 283.04184 332.34064ZM291.6512 334.5125L291.80746 335.4344Q291.35434 335.52814 291.0106 335.52814Q290.43246 335.52814 290.11996 335.35626Q289.80746 335.16876 289.66684 334.8719Q289.54184 334.575 289.54184 333.6219L289.54184 330.04376L288.7762 330.04376L288.7762 329.23126L289.54184 329.23126L289.54184 327.6844L290.5887 327.0594L290.5887 329.23126L291.6512 329.23126L291.6512 330.04376L290.5887 330.04376L290.5887 333.6844Q290.5887 334.1375 290.6356 334.2625Q290.6981 334.3875 290.8231 334.46564Q290.9481 334.54376 291.18246 334.54376Q291.36996 334.54376 291.6512 334.5125Z" fill-rule="nonzero"/><path fill="#000000" d="M194.83871 349.45L194.83871 343.23126L195.79184 343.23126L195.79184 344.16876Q196.15121 343.5125 196.44809 343.3094Q196.76059 343.09064 197.13559 343.09064Q197.66684 343.09064 198.21371 343.41876L197.85434 344.40314Q197.46371 344.16876 197.08871 344.16876Q196.72934 344.16876 196.44809 344.3875Q196.18246 344.59064 196.07309 344.96564Q195.88559 345.52814 195.88559 346.1844L195.88559 349.45L194.83871 349.45ZM203.10434 347.45L204.19809 347.575Q203.94809 348.52814 203.24496 349.0594Q202.54184 349.59064 201.46371 349.59064Q200.10434 349.59064 199.29184 348.7469Q198.49496 347.90314 198.49496 346.3875Q198.49496 344.825 199.30746 343.96564Q200.11996 343.09064 201.40121 343.09064Q202.65121 343.09064 203.43246 343.9344Q204.22934 344.77814 204.22934 346.325Q204.22934 346.41876 204.22934 346.60626L199.58871 346.60626Q199.65121 347.6375 200.16684 348.1844Q200.68246 348.71564 201.46371 348.71564Q202.04184 348.71564 202.44809 348.41876Q202.86996 348.10626 203.10434 347.45ZM199.65121 345.7469L203.11996 345.7469Q203.05746 344.95 202.72934 344.5594Q202.21371 343.95 201.41684 343.95Q200.68246 343.95 200.18246 344.4344Q199.69809 344.91876 199.65121 345.7469ZM205.65121 349.96564L206.68246 350.1219Q206.74496 350.59064 207.04184 350.8094Q207.43246 351.10626 208.10434 351.10626Q208.83871 351.10626 209.22934 350.8094Q209.63559 350.5125 209.77621 349.9969Q209.86996 349.66876 209.85434 348.6375Q209.16684 349.45 208.13559 349.45Q206.85434 349.45 206.15121 348.52814Q205.44809 347.59064 205.44809 346.3094Q205.44809 345.41876 205.76059 344.66876Q206.08871 343.90314 206.69809 343.4969Q207.30746 343.09064 208.13559 343.09064Q209.24496 343.09064 209.96371 343.98126L209.96371 343.23126L210.93246 343.23126L210.93246 348.60626Q210.93246 350.0594 210.63559 350.66876Q210.33871 351.27814 209.69809 351.6219Q209.05746 351.98126 208.11996 351.98126Q207.01059 351.98126 206.32309 351.48126Q205.63559 350.98126 205.65121 349.96564ZM206.52621 346.23126Q206.52621 347.45 207.01059 348.0125Q207.49496 348.575 208.22934 348.575Q208.96371 348.575 209.44809 348.0125Q209.94809 347.45 209.94809 346.2625Q209.94809 345.1219 209.43246 344.54376Q208.93246 343.96564 208.21371 343.96564Q207.51059 343.96564 207.01059 344.54376Q206.52621 345.10626 206.52621 346.23126ZM216.93246 349.45L216.93246 348.52814Q216.19809 349.59064 214.94809 349.59064Q214.40121 349.59064 213.91684 349.3875Q213.44809 349.16876 213.21371 348.85626Q212.97934 348.52814 212.88559 348.0594Q212.82309 347.7625 212.82309 347.075L212.82309 343.23126L213.88559 343.23126L213.88559 346.6844Q213.88559 347.4969 213.94809 347.79376Q214.04184 348.2 214.35434 348.45Q214.68246 348.6844 215.16684 348.6844Q215.63559 348.6844 216.04184 348.45Q216.46371 348.2 216.63559 347.77814Q216.82309 347.35626 216.82309 346.5594L216.82309 343.23126L217.86996 343.23126L217.86996 349.45L216.93246 349.45ZM219.82309 349.45L219.82309 340.85626L220.88559 340.85626L220.88559 349.45L219.82309 349.45ZM226.91684 348.6844Q226.32309 349.1844 225.77621 349.3875Q225.24496 349.59064 224.61996 349.59064Q223.58871 349.59064 223.04184 349.09064Q222.49496 348.59064 222.49496 347.8094Q222.49496 347.35626 222.69809 346.98126Q222.90121 346.59064 223.24496 346.3719Q223.58871 346.1375 224.01059 346.02814Q224.30746 345.9344 224.94809 345.85626Q226.21371 345.71564 226.82309 345.4969Q226.82309 345.27814 226.82309 345.23126Q226.82309 344.575 226.52621 344.3094Q226.11996 343.96564 225.32309 343.96564Q224.58871 343.96564 224.22934 344.23126Q223.86996 344.48126 223.69809 345.1375L222.66684 344.9969Q222.80746 344.34064 223.13559 343.9344Q223.46371 343.52814 224.07309 343.3094Q224.68246 343.09064 225.47934 343.09064Q226.27621 343.09064 226.77621 343.27814Q227.27621 343.46564 227.51059 343.7469Q227.74496 344.02814 227.83871 344.46564Q227.88559 344.73126 227.88559 345.4344L227.88559 346.84064Q227.88559 348.3094 227.94809 348.7Q228.02621 349.09064 228.22934 349.45L227.11996 349.45Q226.96371 349.1219 226.91684 348.6844ZM226.82309 346.325Q226.24496 346.5594 225.10434 346.73126Q224.44809 346.825 224.18246 346.95Q223.91684 347.0594 223.76059 347.27814Q223.61996 347.4969 223.61996 347.77814Q223.61996 348.2 223.93246 348.48126Q224.26059 348.7625 224.86996 348.7625Q225.47934 348.7625 225.94809 348.4969Q226.43246 348.23126 226.65121 347.7625Q226.82309 347.40314 226.82309 346.71564L226.82309 346.325ZM229.83871 349.45L229.83871 343.23126L230.79184 343.23126L230.79184 344.16876Q231.15121 343.5125 231.44809 343.3094Q231.76059 343.09064 232.13559 343.09064Q232.66684 343.09064 233.21371 343.41876L232.85434 344.40314Q232.46371 344.16876 232.08871 344.16876Q231.72934 344.16876 231.44809 344.3875Q231.18246 344.59064 231.07309 344.96564Q230.88559 345.52814 230.88559 346.1844L230.88559 349.45L229.83871 349.45ZM233.82309 349.45L233.82309 340.85626L234.88559 340.85626L234.88559 349.45L233.82309 349.45ZM236.80746 351.84064L236.68246 350.85626Q237.02621 350.95 237.29184 350.95Q237.63559 350.95 237.83871 350.825Q238.05746 350.71564 238.19809 350.5125Q238.29184 350.34064 238.52621 349.71564Q238.54184 349.6375 238.61996 349.46564L236.24496 343.23126L237.38559 343.23126L238.68246 346.825Q238.93246 347.5125 239.13559 348.27814Q239.32309 347.54376 239.57309 346.85626L240.90121 343.23126L241.94809 343.23126L239.58871 349.5594Q239.19809 350.575 238.99496 350.96564Q238.71371 351.4969 238.33871 351.73126Q237.97934 351.98126 237.47934 351.98126Q237.18246 351.98126 236.80746 351.84064ZM244.85434 349.45L244.85434 343.23126L245.79184 343.23126L245.79184 344.10626Q246.08871 343.6375 246.57309 343.3719Q247.05746 343.09064 247.68246 343.09064Q248.36996 343.09064 248.80746 343.3719Q249.26059 343.65314 249.43246 344.16876Q250.18246 343.09064 251.35434 343.09064Q252.29184 343.09064 252.77621 343.60626Q253.27621 344.10626 253.27621 345.1844L253.27621 349.45L252.22934 349.45L252.22934 345.52814Q252.22934 344.90314 252.11996 344.6219Q252.02621 344.34064 251.76059 344.16876Q251.49496 343.9969 251.11996 343.9969Q250.46371 343.9969 250.02621 344.4344Q249.60434 344.8719 249.60434 345.84064L249.60434 349.45L248.54184 349.45L248.54184 345.40314Q248.54184 344.7 248.27621 344.35626Q248.02621 343.9969 247.44809 343.9969Q246.99496 343.9969 246.61996 344.23126Q246.24496 344.46564 246.07309 344.91876Q245.90121 345.3719 245.90121 346.21564L245.90121 349.45L244.85434 349.45ZM259.91684 348.6844Q259.3231 349.1844 258.7762 349.3875Q258.24496 349.59064 257.61996 349.59064Q256.5887 349.59064 256.04184 349.09064Q255.49496 348.59064 255.49496 347.8094Q255.49496 347.35626 255.69809 346.98126Q255.90121 346.59064 256.24496 346.3719Q256.5887 346.1375 257.0106 346.02814Q257.30746 345.9344 257.9481 345.85626Q259.2137 345.71564 259.8231 345.4969Q259.8231 345.27814 259.8231 345.23126Q259.8231 344.575 259.5262 344.3094Q259.11996 343.96564 258.3231 343.96564Q257.5887 343.96564 257.22934 344.23126Q256.86996 344.48126 256.6981 345.1375L255.66684 344.9969Q255.80746 344.34064 256.1356 343.9344Q256.4637 343.52814 257.0731 343.3094Q257.68246 343.09064 258.47934 343.09064Q259.2762 343.09064 259.7762 343.27814Q260.2762 343.46564 260.5106 343.7469Q260.74496 344.02814 260.8387 344.46564Q260.8856 344.73126 260.8856 345.4344L260.8856 346.84064Q260.8856 348.3094 260.9481 348.7Q261.0262 349.09064 261.22934 349.45L260.11996 349.45Q259.9637 349.1219 259.91684 348.6844ZM259.8231 346.325Q259.24496 346.5594 258.10434 346.73126Q257.4481 346.825 257.18246 346.95Q256.91684 347.0594 256.7606 347.27814Q256.61996 347.4969 256.61996 347.77814Q256.61996 348.2 256.93246 348.48126Q257.2606 348.7625 257.86996 348.7625Q258.47934 348.7625 258.9481 348.4969Q259.43246 348.23126 259.6512 347.7625Q259.8231 347.40314 259.8231 346.71564L259.8231 346.325ZM262.85434 342.075L262.85434 340.85626L263.91684 340.85626L263.91684 342.075L262.85434 342.075ZM262.85434 349.45L262.85434 343.23126L263.91684 343.23126L263.91684 349.45L262.85434 349.45ZM265.85434 349.45L265.85434 343.23126L266.79184 343.23126L266.79184 344.10626Q267.47934 343.09064 268.7762 343.09064Q269.3387 343.09064 269.80746 343.29376Q270.29184 343.4969 270.5262 343.825Q270.7606 344.15314 270.85434 344.59064Q270.9012 344.8875 270.9012 345.6219L270.9012 349.45L269.85434 349.45L269.85434 345.66876Q269.85434 345.0125 269.72934 344.7Q269.60434 344.3875 269.29184 344.2Q268.97934 343.9969 268.55746 343.9969Q267.8856 343.9969 267.3856 344.4344Q266.9012 344.85626 266.9012 346.04376L266.9012 349.45L265.85434 349.45ZM275.1512 348.5125L275.30746 349.4344Q274.85434 349.52814 274.5106 349.52814Q273.93246 349.52814 273.61996 349.35626Q273.30746 349.16876 273.16684 348.8719Q273.04184 348.575 273.04184 347.6219L273.04184 344.04376L272.2762 344.04376L272.2762 343.23126L273.04184 343.23126L273.04184 341.6844L274.0887 341.0594L274.0887 343.23126L275.1512 343.23126L275.1512 344.04376L274.0887 344.04376L274.0887 347.6844Q274.0887 348.1375 274.1356 348.2625Q274.1981 348.3875 274.3231 348.46564Q274.4481 348.54376 274.68246 348.54376Q274.86996 348.54376 275.1512 348.5125ZM279.91684 348.6844Q279.3231 349.1844 278.7762 349.3875Q278.24496 349.59064 277.61996 349.59064Q276.5887 349.59064 276.04184 349.09064Q275.49496 348.59064 275.49496 347.8094Q275.49496 347.35626 275.6981 346.98126Q275.9012 346.59064 276.24496 346.3719Q276.5887 346.1375 277.0106 346.02814Q277.30746 345.9344 277.9481 345.85626Q279.2137 345.71564 279.8231 345.4969Q279.8231 345.27814 279.8231 345.23126Q279.8231 344.575 279.5262 344.3094Q279.11996 343.96564 278.3231 343.96564Q277.5887 343.96564 277.22934 344.23126Q276.86996 344.48126 276.6981 345.1375L275.66684 344.9969Q275.80746 344.34064 276.1356 343.9344Q276.4637 343.52814 277.0731 343.3094Q277.68246 343.09064 278.47934 343.09064Q279.2762 343.09064 279.7762 343.27814Q280.2762 343.46564 280.5106 343.7469Q280.74496 344.02814 280.8387 344.46564Q280.8856 344.73126 280.8856 345.4344L280.8856 346.84064Q280.8856 348.3094 280.9481 348.7Q281.0262 349.09064 281.22934 349.45L280.11996 349.45Q279.9637 349.1219 279.91684 348.6844ZM279.8231 346.325Q279.24496 346.5594 278.10434 346.73126Q277.4481 346.825 277.18246 346.95Q276.91684 347.0594 276.7606 347.27814Q276.61996 347.4969 276.61996 347.77814Q276.61996 348.2 276.93246 348.48126Q277.2606 348.7625 277.86996 348.7625Q278.47934 348.7625 278.9481 348.4969Q279.43246 348.23126 279.6512 347.7625Q279.8231 347.40314 279.8231 346.71564L279.8231 346.325ZM282.85434 342.075L282.85434 340.85626L283.91684 340.85626L283.91684 342.075L282.85434 342.075ZM282.85434 349.45L282.85434 343.23126L283.91684 343.23126L283.91684 349.45L282.85434 349.45ZM285.85434 349.45L285.85434 343.23126L286.79184 343.23126L286.79184 344.10626Q287.47934 343.09064 288.7762 343.09064Q289.3387 343.09064 289.80746 343.29376Q290.29184 343.4969 290.5262 343.825Q290.7606 344.15314 290.85434 344.59064Q290.9012 344.8875 290.9012 345.6219L290.9012 349.45L289.85434 349.45L289.85434 345.66876Q289.85434 345.0125 289.72934 344.7Q289.60434 344.3875 289.29184 344.2Q288.97934 343.9969 288.55746 343.9969Q287.8856 343.9969 287.3856 344.4344Q286.9012 344.85626 286.9012 346.04376L286.9012 349.45L285.85434 349.45ZM297.10434 347.45L298.1981 347.575Q297.9481 348.52814 297.24496 349.0594Q296.54184 349.59064 295.4637 349.59064Q294.10434 349.59064 293.29184 348.7469Q292.49496 347.90314 292.49496 346.3875Q292.49496 344.825 293.30746 343.96564Q294.11996 343.09064 295.4012 343.09064Q296.6512 343.09064 297.43246 343.9344Q298.22934 344.77814 298.22934 346.325Q298.22934 346.41876 298.22934 346.60626L293.5887 346.60626Q293.6512 347.6375 294.16684 348.1844Q294.68246 348.71564 295.4637 348.71564Q296.04184 348.71564 296.4481 348.41876Q296.86996 348.10626 297.10434 347.45ZM293.6512 345.7469L297.11996 345.7469Q297.05746 344.95 296.72934 344.5594Q296.2137 343.95 295.41684 343.95Q294.68246 343.95 294.18246 344.4344Q293.6981 344.91876 293.6512 345.7469ZM303.8856 349.45L303.8856 348.66876Q303.29184 349.59064 302.1512 349.59064Q301.4012 349.59064 300.7762 349.1844Q300.1512 348.7625 299.80746 348.02814Q299.4637 347.29376 299.4637 346.34064Q299.4637 345.41876 299.7762 344.65314Q300.0887 343.8875 300.7137 343.4969Q301.3387 343.09064 302.10434 343.09064Q302.66684 343.09064 303.10434 343.325Q303.54184 343.5594 303.8231 343.9344L303.8231 340.85626L304.86996 340.85626L304.86996 349.45L303.8856 349.45ZM300.55746 346.34064Q300.55746 347.54376 301.05746 348.1375Q301.55746 348.71564 302.24496 348.71564Q302.93246 348.71564 303.41684 348.15314Q303.9012 347.59064 303.9012 346.4344Q303.9012 345.15314 303.4012 344.5594Q302.91684 343.96564 302.1981 343.96564Q301.49496 343.96564 301.0262 344.54376Q300.55746 345.10626 300.55746 346.34064Z" fill-rule="nonzero"/><path fill="#000000" d="M366.8644 335.45L366.8644 326.85626L368.02066 326.85626L372.5363 333.60626L372.5363 326.85626L373.63004 326.85626L373.63004 335.45L372.45816 335.45L367.94254 328.7L367.94254 335.45L366.8644 335.45ZM375.3488 332.34064Q375.3488 330.60626 376.3019 329.77814Q377.0988 329.09064 378.25504 329.09064Q379.5363 329.09064 380.3488 329.9344Q381.1769 330.7625 381.1769 332.2469Q381.1769 333.45 380.81754 334.1375Q380.45816 334.825 379.75504 335.21564Q379.06754 335.59064 378.25504 335.59064Q376.95816 335.59064 376.14566 334.7625Q375.3488 333.91876 375.3488 332.34064ZM376.4269 332.34064Q376.4269 333.52814 376.94254 334.1219Q377.4738 334.71564 378.25504 334.71564Q379.0519 334.71564 379.56754 334.1219Q380.08316 333.52814 380.08316 332.3094Q380.08316 331.15314 379.5519 330.5594Q379.0363 329.96564 378.25504 329.96564Q377.4738 329.96564 376.94254 330.5594Q376.4269 331.1375 376.4269 332.34064Z" fill-rule="nonzero"/><path fill="#000000" d="M462.95258 335.45L462.95258 326.85626L464.07758 326.85626L464.07758 335.45L462.95258 335.45ZM472.68695 334.6844Q472.0932 335.1844 471.54633 335.3875Q471.01508 335.59064 470.39008 335.59064Q469.35883 335.59064 468.81195 335.09064Q468.26508 334.59064 468.26508 333.8094Q468.26508 333.35626 468.4682 332.98126Q468.67133 332.59064 469.01508 332.3719Q469.35883 332.1375 469.7807 332.02814Q470.07758 331.9344 470.7182 331.85626Q471.98383 331.71564 472.5932 331.4969Q472.5932 331.27814 472.5932 331.23126Q472.5932 330.575 472.29633 330.3094Q471.89008 329.96564 471.0932 329.96564Q470.35883 329.96564 469.99945 330.23126Q469.64008 330.48126 469.4682 331.1375L468.43695 330.9969Q468.57758 330.34064 468.9057 329.9344Q469.23383 329.52814 469.8432 329.3094Q470.45258 329.09064 471.24945 329.09064Q472.04633 329.09064 472.54633 329.27814Q473.04633 329.46564 473.2807 329.7469Q473.51508 330.02814 473.60883 330.46564Q473.6557 330.73126 473.6557 331.4344L473.6557 332.84064Q473.6557 334.3094 473.7182 334.7Q473.79633 335.09064 473.99945 335.45L472.89008 335.45Q472.73383 335.1219 472.68695 334.6844ZM472.5932 332.325Q472.01508 332.5594 470.87445 332.73126Q470.2182 332.825 469.95258 332.95Q469.68695 333.0594 469.5307 333.27814Q469.39008 333.4969 469.39008 333.77814Q469.39008 334.2 469.70258 334.48126Q470.0307 334.7625 470.64008 334.7625Q471.24945 334.7625 471.7182 334.4969Q472.20258 334.23126 472.42133 333.7625Q472.5932 333.40314 472.5932 332.71564L472.5932 332.325ZM475.62445 335.45L475.62445 329.23126L476.56195 329.23126L476.56195 330.10626Q476.85883 329.6375 477.3432 329.3719Q477.82758 329.09064 478.45258 329.09064Q479.14008 329.09064 479.57758 329.3719Q480.0307 329.65314 480.20258 330.16876Q480.95258 329.09064 482.12445 329.09064Q483.06195 329.09064 483.54633 329.60626Q484.04633 330.10626 484.04633 331.1844L484.04633 335.45L482.99945 335.45L482.99945 331.52814Q482.99945 330.90314 482.89008 330.6219Q482.79633 330.34064 482.5307 330.16876Q482.26508 329.9969 481.89008 329.9969Q481.23383 329.9969 480.79633 330.4344Q480.37445 330.8719 480.37445 331.84064L480.37445 335.45L479.31195 335.45L479.31195 331.40314Q479.31195 330.7 479.04633 330.35626Q478.79633 329.9969 478.2182 329.9969Q477.76508 329.9969 477.39008 330.23126Q477.01508 330.46564 476.8432 330.91876Q476.67133 331.3719 476.67133 332.21564L476.67133 335.45L475.62445 335.45ZM489.62445 335.45L489.62445 329.23126L490.56195 329.23126L490.56195 330.10626Q491.24945 329.09064 492.54633 329.09064Q493.10883 329.09064 493.57758 329.29376Q494.06195 329.4969 494.29633 329.825Q494.5307 330.15314 494.62445 330.59064Q494.67133 330.8875 494.67133 331.6219L494.67133 335.45L493.62445 335.45L493.62445 331.66876Q493.62445 331.0125 493.49945 330.7Q493.37445 330.3875 493.06195 330.2Q492.74945 329.9969 492.32758 329.9969Q491.6557 329.9969 491.1557 330.4344Q490.67133 330.85626 490.67133 332.04376L490.67133 335.45L489.62445 335.45ZM496.23383 332.34064Q496.23383 330.60626 497.18695 329.77814Q497.98383 329.09064 499.14008 329.09064Q500.42133 329.09064 501.23383 329.9344Q502.06195 330.7625 502.06195 332.2469Q502.06195 333.45 501.70258 334.1375Q501.3432 334.825 500.64008 335.21564Q499.95258 335.59064 499.14008 335.59064Q497.8432 335.59064 497.0307 334.7625Q496.23383 333.91876 496.23383 332.34064ZM497.31195 332.34064Q497.31195 333.52814 497.82758 334.1219Q498.35883 334.71564 499.14008 334.71564Q499.93695 334.71564 500.45258 334.1219Q500.9682 333.52814 500.9682 332.3094Q500.9682 331.15314 500.43695 330.5594Q499.92133 329.96564 499.14008 329.96564Q498.35883 329.96564 497.82758 330.5594Q497.31195 331.1375 497.31195 332.34064ZM505.92133 334.5125L506.07758 335.4344Q505.62445 335.52814 505.2807 335.52814Q504.70258 335.52814 504.39008 335.35626Q504.07758 335.16876 503.93695 334.8719Q503.81195 334.575 503.81195 333.6219L503.81195 330.04376L503.04633 330.04376L503.04633 329.23126L503.81195 329.23126L503.81195 327.6844L504.85883 327.0594L504.85883 329.23126L505.92133 329.23126L505.92133 330.04376L504.85883 330.04376L504.85883 333.6844Q504.85883 334.1375 504.9057 334.2625Q504.9682 334.3875 505.0932 334.46564Q505.2182 334.54376 505.45258 334.54376Q505.64008 334.54376 505.92133 334.5125ZM509.20258 333.59064L510.23383 333.4344Q510.32758 334.0594 510.7182 334.3875Q511.12445 334.71564 511.85883 334.71564Q512.5776 334.71564 512.9213 334.4344Q513.2807 334.1375 513.2807 333.73126Q513.2807 333.3719 512.9682 333.16876Q512.74945 333.02814 511.89008 332.8094Q510.73383 332.5125 510.2807 332.3094Q509.8432 332.09064 509.60883 331.71564Q509.37445 331.34064 509.37445 330.8719Q509.37445 330.46564 509.56195 330.10626Q509.74945 329.7469 510.07758 329.5125Q510.32758 329.34064 510.74945 329.21564Q511.17133 329.09064 511.67133 329.09064Q512.3901 329.09064 512.93695 329.3094Q513.49945 329.5125 513.7651 329.8719Q514.0307 330.23126 514.12445 330.825L513.0932 330.96564Q513.0307 330.4969 512.68695 330.23126Q512.3588 329.95 511.73383 329.95Q511.01508 329.95 510.70258 330.2Q510.39008 330.4344 510.39008 330.7625Q510.39008 330.96564 510.51508 331.1219Q510.6557 331.29376 510.92133 331.40314Q511.07758 331.46564 511.85883 331.66876Q512.9838 331.98126 513.4213 332.16876Q513.8588 332.35626 514.1088 332.71564Q514.3588 333.075 514.3588 333.6219Q514.3588 334.15314 514.0463 334.6219Q513.74945 335.075 513.1713 335.34064Q512.5932 335.59064 511.85883 335.59064Q510.64008 335.59064 509.99945 335.09064Q509.37445 334.575 509.20258 333.59064ZM520.7026 335.45L520.7026 334.52814Q519.9682 335.59064 518.7182 335.59064Q518.1713 335.59064 517.68695 335.3875Q517.2182 335.16876 516.9838 334.85626Q516.74945 334.52814 516.6557 334.0594Q516.5932 333.7625 516.5932 333.075L516.5932 329.23126L517.6557 329.23126L517.6557 332.6844Q517.6557 333.4969 517.7182 333.79376Q517.81195 334.2 518.12445 334.45Q518.4526 334.6844 518.93695 334.6844Q519.4057 334.6844 519.81195 334.45Q520.2338 334.2 520.4057 333.77814Q520.5932 333.35626 520.5932 332.5594L520.5932 329.23126L521.6401 329.23126L521.6401 335.45L520.7026 335.45ZM523.6088 335.45L523.6088 329.23126L524.56195 329.23126L524.56195 330.16876Q524.9213 329.5125 525.2182 329.3094Q525.5307 329.09064 525.9057 329.09064Q526.43695 329.09064 526.9838 329.41876L526.62445 330.40314Q526.2338 330.16876 525.8588 330.16876Q525.49945 330.16876 525.2182 330.3875Q524.9526 330.59064 524.8432 330.96564Q524.6557 331.52814 524.6557 332.1844L524.6557 335.45L523.6088 335.45ZM531.87445 333.45L532.9682 333.575Q532.7182 334.52814 532.0151 335.0594Q531.31195 335.59064 530.2338 335.59064Q528.87445 335.59064 528.06195 334.7469Q527.2651 333.90314 527.2651 332.3875Q527.2651 330.825 528.0776 329.96564Q528.8901 329.09064 530.1713 329.09064Q531.4213 329.09064 532.2026 329.9344Q532.99945 330.77814 532.99945 332.325Q532.99945 332.41876 532.99945 332.60626L528.3588 332.60626Q528.4213 333.6375 528.93695 334.1844Q529.4526 334.71564 530.2338 334.71564Q530.81195 334.71564 531.2182 334.41876Q531.6401 334.10626 531.87445 333.45ZM528.4213 331.7469L531.8901 331.7469Q531.8276 330.95 531.49945 330.5594Q530.9838 329.95 530.18695 329.95Q529.4526 329.95 528.9526 330.4344Q528.4682 330.91876 528.4213 331.7469Z" fill-rule="nonzero"/></svg>