<?xml version="1.0" encoding="UTF-8"?>
<svg width="1800px" height="1113px" viewBox="0 0 1800 1113" version="1.1" xmlns="http://www.w3.org/2000/svg" xmlns:xlink="http://www.w3.org/1999/xlink">
    <title>Q26</title>
    <defs>
        <polygon id="path-1" points="-4.26325641e-14 -3.19744231e-14 1616.7 -3.19744231e-14 1616.7 881.7 -4.26325641e-14 881.7"></polygon>
        <polygon id="path-3" points="-4.26325641e-14 -3.19744231e-14 1616.7 -3.19744231e-14 1616.7 881.7 -4.26325641e-14 881.7"></polygon>
        <polygon id="path-5" points="-4.26325641e-14 -3.19744231e-14 1616.7 -3.19744231e-14 1616.7 881.7 -4.26325641e-14 881.7"></polygon>
        <polygon id="path-7" points="-4.26325641e-14 -3.19744231e-14 1616.7 -3.19744231e-14 1616.7 881.7 -4.26325641e-14 881.7"></polygon>
        <polygon id="path-9" points="-4.26325641e-14 -3.19744231e-14 1616.7 -3.19744231e-14 1616.7 881.7 -4.26325641e-14 881.7"></polygon>
        <polygon id="path-11" points="-4.26325641e-14 -3.19744231e-14 1616.7 -3.19744231e-14 1616.7 881.7 -4.26325641e-14 881.7"></polygon>
        <polygon id="path-13" points="-4.26325641e-14 -3.19744231e-14 1616.7 -3.19744231e-14 1616.7 881.7 -4.26325641e-14 881.7"></polygon>
        <polygon id="path-15" points="-4.26325641e-14 -3.19744231e-14 1616.7 -3.19744231e-14 1616.7 881.7 -4.26325641e-14 881.7"></polygon>
    </defs>
    <g id="Page-1" stroke="none" stroke-width="1" fill="none" fill-rule="evenodd">
        <g id="Q26">
            <polygon id="Path" fill="#FFFFFF" fill-rule="nonzero" points="0 0 1800 0 1800 1113 0 1113"></polygon>
            <line x1="127.5" y1="955.5" x2="1744.5" y2="955.5" id="Path" stroke="#333333"></line>
            <line x1="127.5" y1="661.5" x2="1744.5" y2="661.5" id="Path" stroke="#CCCCCC"></line>
            <line x1="127.5" y1="367.5" x2="1744.5" y2="367.5" id="Path" stroke="#CCCCCC"></line>
            <line x1="127.5" y1="73.5" x2="1744.5" y2="73.5" id="Path" stroke="#CCCCCC"></line>
            <g id="Clipped" transform="translate(127.650000, 73.650000)">
                <mask id="mask-2" fill="white">
                    <use xlink:href="#path-1"></use>
                </mask>
                <g id="Path"></g>
                <path d="M373.35,880.35 L130.35,880.35 L130.35,592.35 C130.35,589.03629 133.03629,586.35 136.35,586.35 L367.35,586.35 C370.66371,586.35 373.35,589.03629 373.35,592.35 L373.35,880.35 Z" id="Path" stroke-opacity="0" stroke="#000000" stroke-width="2" mask="url(#mask-2)"></path>
            </g>
            <g id="Clipped" transform="translate(127.650000, 73.650000)">
                <mask id="mask-4" fill="white">
                    <use xlink:href="#path-3"></use>
                </mask>
                <g id="Path"></g>
                <path d="M373.35,880.35 L130.35,880.35 L130.35,592.35 C130.35,589.03629 133.03629,586.35 136.35,586.35 L367.35,586.35 C370.66371,586.35 373.35,589.03629 373.35,592.35 L373.35,880.35 Z" id="Path" fill="#1D70B8" fill-rule="nonzero" mask="url(#mask-4)"></path>
            </g>
            <g id="Clipped" transform="translate(127.650000, 73.650000)">
                <mask id="mask-6" fill="white">
                    <use xlink:href="#path-5"></use>
                </mask>
                <g id="Path"></g>
                <path d="M745.35,880.35 L502.35,880.35 L502.35,712.35 C502.35,709.03626 505.03629,706.35 508.35,706.35 L739.35,706.35 C742.66374,706.35 745.35,709.03626 745.35,712.35 L745.35,880.35 Z" id="Path" stroke-opacity="0" stroke="#000000" stroke-width="2" mask="url(#mask-6)"></path>
            </g>
            <g id="Clipped" transform="translate(127.650000, 73.650000)">
                <mask id="mask-8" fill="white">
                    <use xlink:href="#path-7"></use>
                </mask>
                <g id="Path"></g>
                <path d="M745.35,880.35 L502.35,880.35 L502.35,712.35 C502.35,709.03626 505.03629,706.35 508.35,706.35 L739.35,706.35 C742.66374,706.35 745.35,709.03626 745.35,712.35 L745.35,880.35 Z" id="Path" fill="#1D70B8" fill-rule="nonzero" mask="url(#mask-8)"></path>
            </g>
            <g id="Clipped" transform="translate(127.650000, 73.650000)">
                <mask id="mask-10" fill="white">
                    <use xlink:href="#path-9"></use>
                </mask>
                <g id="Path"></g>
                <path d="M1117.35,880.35 L874.35,880.35 L874.35,124.35 C874.35,121.03629 877.03626,118.35 880.35,118.35 L1111.35,118.35 C1114.66374,118.35 1117.35,121.03629 1117.35,124.35 L1117.35,880.35 Z" id="Path" stroke-opacity="0" stroke="#000000" stroke-width="2" mask="url(#mask-10)"></path>
            </g>
            <g id="Clipped" transform="translate(127.650000, 73.650000)">
                <mask id="mask-12" fill="white">
                    <use xlink:href="#path-11"></use>
                </mask>
                <g id="Path"></g>
                <path d="M1117.35,880.35 L874.35,880.35 L874.35,124.35 C874.35,121.03629 877.03626,118.35 880.35,118.35 L1111.35,118.35 C1114.66374,118.35 1117.35,121.03629 1117.35,124.35 L1117.35,880.35 Z" id="Path" fill="#1D70B8" fill-rule="nonzero" mask="url(#mask-12)"></path>
            </g>
            <g id="Clipped" transform="translate(127.650000, 73.650000)">
                <mask id="mask-14" fill="white">
                    <use xlink:href="#path-13"></use>
                </mask>
                <g id="Path"></g>
                <path d="M1489.35,880.35 L1246.35,880.35 L1246.35,769.35 C1246.35,766.03626 1249.03626,763.35 1252.35,763.35 L1483.35,763.35 C1486.66365,763.35 1489.35,766.03626 1489.35,769.35 L1489.35,880.35 Z" id="Path" stroke-opacity="0" stroke="#000000" stroke-width="2" mask="url(#mask-14)"></path>
            </g>
            <g id="Clipped" transform="translate(127.650000, 73.650000)">
                <mask id="mask-16" fill="white">
                    <use xlink:href="#path-15"></use>
                </mask>
                <g id="Path"></g>
                <path d="M1489.35,880.35 L1246.35,880.35 L1246.35,769.35 C1246.35,766.03626 1249.03626,763.35 1252.35,763.35 L1483.35,763.35 C1486.66365,763.35 1489.35,766.03626 1489.35,769.35 L1489.35,880.35 Z" id="Path" fill="#1D70B8" fill-rule="nonzero" mask="url(#mask-16)"></path>
            </g>
            <path d="M108.665622,952.9125 C108.665622,954.6625 108.524998,956.25626 108.24375,957.69378 C107.962498,959.13126 107.493748,960.38126 106.8375,961.44378 C106.2125,962.47506 105.384374,963.27194 104.353122,963.83442 C103.321874,964.39694 102.05625,964.6782 100.55625,964.6782 C99.11875,964.6782 97.9,964.4282 96.9,963.9282 C95.931248,963.39692 95.149998,962.64692 94.55625,961.6782 C93.962498,960.6782 93.540622,959.45944 93.290622,958.02192 C93.040622,956.55316 92.915622,954.88128 92.915622,953.00628 C92.915622,951.28756 93.056248,949.70944 93.3375,948.27192 C93.618748,946.80316 94.071872,945.55316 94.696872,944.52192 C95.353124,943.49064 96.196874,942.69376 97.228122,942.13128 C98.259374,941.56876 99.525,941.2875 101.025,941.2875 C102.4625,941.2875 103.665624,941.5375 104.634372,942.0375 C105.603124,942.5375 106.384374,943.2875 106.978122,944.2875 C107.603122,945.2875 108.040622,946.50626 108.290622,947.94378 C108.540622,949.38126 108.665622,951.0375 108.665622,952.9125 Z M105.571872,953.14692 C105.571872,951.99064 105.524998,950.975 105.43125,950.1 C105.337498,949.1938 105.212498,948.39694 105.05625,947.70942 C104.899998,946.99066 104.696872,946.38128 104.446872,945.88128 C104.196872,945.38128 103.899998,944.97502 103.55625,944.6625 C103.212498,944.35002 102.806248,944.11566 102.3375,943.95942 C101.9,943.80314 101.4,943.725 100.8375,943.725 C99.8375,943.725 99.025,943.9594 98.4,944.4282 C97.775,944.89692 97.275,945.55316 96.9,946.39692 C96.556248,947.20944 96.321872,948.16256 96.196872,949.25628 C96.071872,950.35004 96.009372,951.53754 96.009372,952.81878 C96.009372,954.50626 96.087498,955.94376 96.24375,957.13128 C96.43125,958.31876 96.7125,959.2875 97.0875,960.0375 C97.493748,960.7875 97.993748,961.3344 98.5875,961.6782 C99.181248,962.02192 99.899998,962.19378 100.74375,962.19378 C101.399998,962.19378 101.962498,962.10002 102.43125,961.9125 C102.93125,961.69378 103.353124,961.39692 103.696872,961.02192 C104.071872,960.61564 104.368748,960.13126 104.5875,959.56878 C104.8375,959.00626 105.025,958.3969 105.15,957.7407 C105.306248,957.08442 105.415622,956.36566 105.478122,955.58442 C105.540622,954.80314 105.571872,953.99064 105.571872,953.14692 Z" id="Shape" fill="#000000" fill-rule="nonzero"></path>
            <path d="M107.775,663.13752 C107.775,664.35626 107.571874,665.45001 107.165622,666.41877 C106.759374,667.35627 106.18125,668.15314 105.43125,668.80938 C104.68125,669.43438 103.790624,669.91876 102.759372,670.26252 C101.728124,670.60626 100.571874,670.77813 99.290622,670.77813 C98.603122,670.77813 97.93125,670.73126 97.275,670.63752 C96.65,670.54376 96.0875,670.41876 95.5875,670.26252 C95.118748,670.10626 94.712498,669.96563 94.36875,669.84063 C94.05625,669.68439 93.853124,669.57502 93.759372,669.51252 C93.696872,669.41876 93.649998,669.34063 93.61875,669.27813 C93.587498,669.21563 93.556248,669.13751 93.525,669.04377 C93.493748,668.91877 93.462498,668.77814 93.43125,668.62188 C93.43125,668.46564 93.43125,668.29377 93.43125,668.10627 C93.43125,667.88751 93.43125,667.70001 93.43125,667.54377 C93.462498,667.38751 93.493748,667.26251 93.525,667.16877 C93.5875,667.07501 93.65,667.01251 93.7125,666.98127 C93.775,666.91877 93.853124,666.88752 93.946872,666.88752 C94.071872,666.88752 94.243748,666.96564 94.4625,667.12188 C94.7125,667.24688 95.040624,667.40313 95.446872,667.59063 C95.884372,667.74689 96.399998,667.90314 96.99375,668.05938 C97.61875,668.21564 98.353124,668.29377 99.196872,668.29377 C99.978124,668.29377 100.696874,668.20002 101.353122,668.01252 C102.009374,667.82502 102.571874,667.52814 103.040622,667.12188 C103.540622,666.71564 103.915622,666.21563 104.165622,665.62188 C104.446874,665.02814 104.5875,664.29377 104.5875,663.41877 C104.5875,662.70001 104.4625,662.05938 104.2125,661.49688 C103.993748,660.93438 103.649998,660.46563 103.18125,660.09063 C102.712498,659.71563 102.118748,659.45001 101.4,659.29377 C100.681248,659.10627 99.806248,659.01252 98.775,659.01252 C98.056248,659.01252 97.43125,659.04377 96.9,659.10627 C96.4,659.16877 95.93125,659.20002 95.49375,659.20002 C95.18125,659.20002 94.946874,659.13752 94.790622,659.01252 C94.665622,658.85626 94.603122,658.55938 94.603122,658.12188 L94.603122,648.84063 C94.603122,648.46563 94.681248,648.18438 94.8375,647.99688 C95.025,647.80938 95.290624,647.71563 95.634372,647.71563 L105.7125,647.71563 C105.806248,647.71563 105.899998,647.74688 105.99375,647.80938 C106.087498,647.84064 106.149998,647.91877 106.18125,648.04377 C106.24375,648.13751 106.290624,648.26251 106.321872,648.41877 C106.353124,648.57501 106.36875,648.76251 106.36875,648.98127 C106.36875,649.41877 106.30625,649.76252 106.18125,650.01252 C106.087498,650.23126 105.93125,650.34063 105.7125,650.34063 L97.228122,650.34063 L97.228122,656.71563 C97.634374,656.65313 98.040624,656.62188 98.446872,656.62188 C98.884372,656.59064 99.384372,656.57502 99.946872,656.57502 C101.259372,656.57502 102.399998,656.73127 103.36875,657.04377 C104.337498,657.35627 105.149998,657.80939 105.80625,658.40313 C106.462498,658.96563 106.946872,659.65313 107.259372,660.46563 C107.603124,661.24689 107.775,662.13752 107.775,663.13752 Z" id="Path" fill="#000000" fill-rule="nonzero"></path>
            <path d="M89.9625,375.33126 C89.9625,375.58126 89.93125,375.784385 89.86875,375.940635 C89.837498,376.065635 89.790622,376.17501 89.728122,376.26876 C89.696872,376.36251 89.634374,376.440635 89.540622,376.503135 C89.478122,376.534385 89.399998,376.55001 89.30625,376.55001 L77.446872,376.55001 C77.353124,376.55001 77.275,376.534385 77.2125,376.503135 C77.15,376.440635 77.071874,376.36251 76.978122,376.26876 C76.915622,376.17501 76.868748,376.065635 76.8375,375.940635 C76.806248,375.784385 76.790622,375.58126 76.790622,375.33126 C76.790622,375.14376 76.806248,374.971885 76.8375,374.815635 C76.868748,374.659385 76.915622,374.534385 76.978122,374.440635 C77.040622,374.346885 77.103122,374.26876 77.165622,374.20626 C77.259374,374.14376 77.353124,374.11251 77.446872,374.11251 L82.18125,374.11251 L82.18125,356.815635 L77.775,359.440635 C77.556248,359.565635 77.368748,359.64376 77.2125,359.67501 C77.0875,359.67501 76.978124,359.64376 76.884372,359.58126 C76.821872,359.48751 76.774998,359.36251 76.74375,359.20626 C76.712498,359.01876 76.696872,358.80001 76.696872,358.55001 C76.696872,358.33126 76.696872,358.159385 76.696872,358.034385 C76.728124,357.878135 76.759374,357.753135 76.790622,357.659385 C76.853122,357.565635 76.915622,357.48751 76.978122,357.42501 C77.040622,357.36251 77.118748,357.284385 77.2125,357.190635 L82.4625,353.86251 C82.493748,353.83126 82.540622,353.80001 82.603122,353.76876 C82.696872,353.73751 82.790624,353.721885 82.884372,353.721885 C83.009372,353.690635 83.134372,353.67501 83.259372,353.67501 C83.415624,353.64376 83.5875,353.628135 83.775,353.628135 C84.056248,353.628135 84.290622,353.64376 84.478122,353.67501 C84.665622,353.70626 84.806248,353.73751 84.9,353.76876 C85.025,353.80001 85.103124,353.86251 85.134372,353.95626 C85.165624,354.01876 85.18125,354.08126 85.18125,354.14376 L85.18125,374.11251 L89.30625,374.11251 C89.399998,374.11251 89.478122,374.14376 89.540622,374.20626 C89.634374,374.26876 89.7125,374.346885 89.775,374.440635 C89.8375,374.534385 89.884374,374.659385 89.915622,374.815635 C89.946874,374.971885 89.9625,375.14376 89.9625,375.33126 Z M108.665622,365.11251 C108.665622,366.86251 108.524998,368.45626 108.24375,369.89376 C107.962498,371.33126 107.493748,372.58126 106.8375,373.64376 C106.2125,374.67501 105.384374,375.471885 104.353122,376.034385 C103.321874,376.596885 102.05625,376.878135 100.55625,376.878135 C99.11875,376.878135 97.9,376.628135 96.9,376.128135 C95.931248,375.596885 95.149998,374.846885 94.55625,373.878135 C93.962498,372.878135 93.540622,371.659385 93.290622,370.221885 C93.040622,368.753135 92.915622,367.08126 92.915622,365.20626 C92.915622,363.48751 93.056248,361.909385 93.3375,360.471885 C93.618748,359.003135 94.071872,357.753135 94.696872,356.721885 C95.353124,355.690635 96.196874,354.89376 97.228122,354.33126 C98.259374,353.76876 99.525,353.48751 101.025,353.48751 C102.4625,353.48751 103.665624,353.73751 104.634372,354.23751 C105.603124,354.73751 106.384374,355.48751 106.978122,356.48751 C107.603122,357.48751 108.040622,358.70626 108.290622,360.14376 C108.540622,361.58126 108.665622,363.23751 108.665622,365.11251 Z M105.571872,365.346885 C105.571872,364.190635 105.524998,363.17501 105.43125,362.30001 C105.337498,361.39376 105.212498,360.596885 105.05625,359.909385 C104.899998,359.190635 104.696872,358.58126 104.446872,358.08126 C104.196872,357.58126 103.899998,357.17501 103.55625,356.86251 C103.212498,356.55001 102.806248,356.315635 102.3375,356.159385 C101.9,356.003135 101.4,355.92501 100.8375,355.92501 C99.8375,355.92501 99.025,356.159385 98.4,356.628135 C97.775,357.096885 97.275,357.753135 96.9,358.596885 C96.556248,359.409385 96.321872,360.36251 96.196872,361.45626 C96.071872,362.55001 96.009372,363.73751 96.009372,365.01876 C96.009372,366.70626 96.087498,368.14376 96.24375,369.33126 C96.43125,370.51876 96.7125,371.48751 97.0875,372.23751 C97.493748,372.98751 97.993748,373.534385 98.5875,373.878135 C99.181248,374.221885 99.899998,374.39376 100.74375,374.39376 C101.399998,374.39376 101.962498,374.30001 102.43125,374.11251 C102.93125,373.89376 103.353124,373.596885 103.696872,373.221885 C104.071872,372.815635 104.368748,372.33126 104.5875,371.76876 C104.8375,371.20626 105.025,370.596885 105.15,369.940635 C105.306248,369.284385 105.415622,368.565635 105.478122,367.784385 C105.540622,367.003135 105.571872,366.190635 105.571872,365.346885 Z" id="Shape" fill="#000000" fill-rule="nonzero"></path>
            <path d="M89.9625,81.43125 C89.9625,81.68125 89.93125,81.884374 89.86875,82.040622 C89.837498,82.165622 89.790622,82.274998 89.728122,82.36875 C89.696872,82.462498 89.634374,82.540622 89.540622,82.603122 C89.478122,82.634374 89.399998,82.65 89.30625,82.65 L77.446872,82.65 C77.353124,82.65 77.275,82.634374 77.2125,82.603122 C77.15,82.540622 77.071874,82.462498 76.978122,82.36875 C76.915622,82.274998 76.868748,82.165622 76.8375,82.040622 C76.806248,81.884374 76.790622,81.68125 76.790622,81.43125 C76.790622,81.24375 76.806248,81.071874 76.8375,80.915622 C76.868748,80.759374 76.915622,80.634374 76.978122,80.540622 C77.040622,80.446874 77.103122,80.36875 77.165622,80.30625 C77.259374,80.24375 77.353124,80.2125 77.446872,80.2125 L82.18125,80.2125 L82.18125,62.915622 L77.775,65.540622 C77.556248,65.665622 77.368748,65.743748 77.2125,65.775 C77.0875,65.775 76.978124,65.74375 76.884372,65.68125 C76.821872,65.587498 76.774998,65.462498 76.74375,65.30625 C76.712498,65.11875 76.696872,64.9 76.696872,64.65 C76.696872,64.431248 76.696872,64.259372 76.696872,64.134372 C76.728124,63.978124 76.759374,63.853124 76.790622,63.759372 C76.853122,63.665624 76.915622,63.5875 76.978122,63.525 C77.040622,63.4625 77.118748,63.384374 77.2125,63.290622 L82.4625,59.9625 C82.493748,59.931248 82.540622,59.899998 82.603122,59.86875 C82.696872,59.837498 82.790624,59.821872 82.884372,59.821872 C83.009372,59.790624 83.134372,59.775 83.259372,59.775 C83.415624,59.743748 83.5875,59.728122 83.775,59.728122 C84.056248,59.728122 84.290622,59.743748 84.478122,59.775 C84.665622,59.806248 84.806248,59.837498 84.9,59.86875 C85.025,59.899998 85.103124,59.962498 85.134372,60.05625 C85.165624,60.11875 85.18125,60.18125 85.18125,60.24375 L85.18125,80.2125 L89.30625,80.2125 C89.399998,80.2125 89.478122,80.24375 89.540622,80.30625 C89.634374,80.36875 89.7125,80.446874 89.775,80.540622 C89.8375,80.634374 89.884374,80.759374 89.915622,80.915622 C89.946874,81.071874 89.9625,81.24375 89.9625,81.43125 Z M107.775,75.3375 C107.775,76.556248 107.571874,77.649998 107.165622,78.61875 C106.759374,79.55625 106.18125,80.353124 105.43125,81.009372 C104.68125,81.634372 103.790624,82.118748 102.759372,82.4625 C101.728124,82.806248 100.571874,82.978122 99.290622,82.978122 C98.603122,82.978122 97.93125,82.931248 97.275,82.8375 C96.65,82.743748 96.0875,82.618748 95.5875,82.4625 C95.118748,82.306248 94.712498,82.165622 94.36875,82.040622 C94.05625,81.884374 93.853124,81.775 93.759372,81.7125 C93.696872,81.618748 93.649998,81.540622 93.61875,81.478122 C93.587498,81.415622 93.556248,81.337498 93.525,81.24375 C93.493748,81.11875 93.462498,80.978124 93.43125,80.821872 C93.43125,80.665624 93.43125,80.49375 93.43125,80.30625 C93.43125,80.087498 93.43125,79.899998 93.43125,79.74375 C93.462498,79.587498 93.493748,79.462498 93.525,79.36875 C93.5875,79.274998 93.65,79.212498 93.7125,79.18125 C93.775,79.11875 93.853124,79.0875 93.946872,79.0875 C94.071872,79.0875 94.243748,79.165624 94.4625,79.321872 C94.7125,79.446872 95.040624,79.603122 95.446872,79.790622 C95.884372,79.946874 96.399998,80.103124 96.99375,80.259372 C97.61875,80.415622 98.353124,80.49375 99.196872,80.49375 C99.978124,80.49375 100.696874,80.4 101.353122,80.2125 C102.009374,80.025 102.571874,79.728124 103.040622,79.321872 C103.540622,78.915622 103.915622,78.415622 104.165622,77.821872 C104.446874,77.228124 104.5875,76.49375 104.5875,75.61875 C104.5875,74.899998 104.4625,74.259372 104.2125,73.696872 C103.993748,73.134372 103.649998,72.665622 103.18125,72.290622 C102.712498,71.915622 102.118748,71.649998 101.4,71.49375 C100.681248,71.30625 99.806248,71.2125 98.775,71.2125 C98.056248,71.2125 97.43125,71.24375 96.9,71.30625 C96.4,71.36875 95.93125,71.4 95.49375,71.4 C95.18125,71.4 94.946874,71.3375 94.790622,71.2125 C94.665622,71.056248 94.603122,70.759372 94.603122,70.321872 L94.603122,61.040622 C94.603122,60.665622 94.681248,60.384372 94.8375,60.196872 C95.025,60.009372 95.290624,59.915622 95.634372,59.915622 L105.7125,59.915622 C105.806248,59.915622 105.899998,59.946872 105.99375,60.009372 C106.087498,60.040624 106.149998,60.11875 106.18125,60.24375 C106.24375,60.337498 106.290624,60.462498 106.321872,60.61875 C106.353124,60.774998 106.36875,60.962498 106.36875,61.18125 C106.36875,61.61875 106.30625,61.9625 106.18125,62.2125 C106.087498,62.431248 105.93125,62.540622 105.7125,62.540622 L97.228122,62.540622 L97.228122,68.915622 C97.634374,68.853122 98.040624,68.821872 98.446872,68.821872 C98.884372,68.790624 99.384372,68.775 99.946872,68.775 C101.259372,68.775 102.399998,68.93125 103.36875,69.24375 C104.337498,69.55625 105.149998,70.009374 105.80625,70.603122 C106.462498,71.165622 106.946872,71.853122 107.259372,72.665622 C107.603124,73.446874 107.775,74.3375 107.775,75.3375 Z" id="Shape" fill="#000000" fill-rule="nonzero"></path>
            <path d="M213.04851,1006.35 L213.04851,995.4282 L203.11101,980.56878 L207.28287,980.56878 L212.34537,988.35 C213.28287,989.78752 214.15787,991.24066 214.97037,992.70942 C215.75163,991.36566 216.68913,989.85002 217.78287,988.1625 L222.79851,980.56878 L226.73601,980.56878 L216.47037,995.4282 L216.47037,1006.35 L213.04851,1006.35 Z M239.15787,1000.35 L242.43912,1000.725 C241.93912,1002.63128 240.986,1004.11568 239.57976,1005.1782 C238.1735,1006.24068 236.39225,1006.77192 234.23601,1006.77192 C231.51725,1006.77192 229.34537,1005.92818 227.72037,1004.2407 C226.12663,1002.55318 225.32976,1000.19378 225.32976,997.1625 C225.32976,994.0375 226.14226,991.61564 227.76726,989.89692 C229.39226,988.14692 231.48601,987.27192 234.04851,987.27192 C236.54851,987.27192 238.57976,988.11568 240.14226,989.8032 C241.736,991.49068 242.53287,993.88128 242.53287,996.975 C242.53287,997.16252 242.53287,997.44378 242.53287,997.81878 L228.61101,997.81878 C228.73601,999.88126 229.31413,1001.4594 230.34537,1002.5532 C231.37663,1003.61568 232.67351,1004.14692 234.23601,1004.14692 C235.39225,1004.14692 236.37662,1003.85004 237.18912,1003.25628 C238.03288,1002.63128 238.68913,1001.66252 239.15787,1000.35 Z M228.79851,995.2407 L239.20476,995.2407 C239.07976,993.6469 238.68913,992.4594 238.03287,991.6782 C237.00163,990.4594 235.68913,989.85 234.09537,989.85 C232.62663,989.85 231.39226,990.3344 230.39226,991.3032 C229.4235,992.27192 228.89225,993.58442 228.79851,995.2407 Z M246.14226,1000.77192 L249.23601,1000.3032 C249.42351,1001.5532 249.90788,1002.5063 250.68912,1003.1625 C251.50162,1003.81878 252.64226,1004.14692 254.11101,1004.14692 C255.54851,1004.14692 256.61101,1003.86568 257.29851,1003.3032 C258.01725,1002.7094 258.37662,1002.00626 258.37662,1001.19378 C258.37662,1000.47506 258.06412,999.91256 257.43912,999.50628 C257.00162,999.22504 255.9235,998.86568 254.20476,998.4282 C251.89226,997.8344 250.28288,997.3344 249.37662,996.9282 C248.50162,996.49068 247.82975,995.89692 247.36101,995.14692 C246.89225,994.39692 246.65787,993.55318 246.65787,992.6157 C246.65787,991.80318 246.84537,991.03754 247.22037,990.31878 C247.59537,989.60006 248.111,989.0063 248.76726,988.5375 C249.26726,988.19378 249.93913,987.89692 250.78287,987.64692 C251.62663,987.39692 252.54851,987.27192 253.54851,987.27192 C254.98601,987.27192 256.25163,987.49068 257.34537,987.9282 C258.47037,988.3344 259.2985,988.8969 259.82976,989.6157 C260.361,990.33442 260.72037,991.28752 260.90787,992.475 L257.81412,992.89692 C257.68912,991.95944 257.28287,991.22506 256.59537,990.69378 C255.93913,990.13126 254.98601,989.85 253.73601,989.85 C252.29851,989.85 251.26726,990.1 250.64226,990.6 C250.01726,991.0688 249.70476,991.6313 249.70476,992.2875 C249.70476,992.69378 249.82976,993.05318 250.07976,993.3657 C250.361,993.70942 250.76725,993.99066 251.29851,994.20942 C251.61101,994.33442 252.54851,994.60004 254.11101,995.00628 C256.36101,995.63128 257.92351,996.13128 258.79851,996.50628 C259.67351,996.88128 260.36101,997.42816 260.86101,998.14692 C261.36101,998.86564 261.61101,999.7719 261.61101,1000.8657 C261.61101,1001.92818 261.29851,1002.92818 260.67351,1003.8657 C260.07975,1004.7719 259.20475,1005.49064 258.04851,1006.02192 C256.89225,1006.52192 255.57975,1006.77192 254.11101,1006.77192 C251.67351,1006.77192 249.81413,1006.27192 248.53287,1005.27192 C247.28287,1004.24064 246.486,1002.74064 246.14226,1000.77192 Z M289.59537,1004.0532 C288.40787,1005.0532 287.26725,1005.7563 286.17351,1006.1625 C285.11101,1006.56878 283.95476,1006.77192 282.70476,1006.77192 C280.64226,1006.77192 279.06413,1006.27192 277.97037,1005.27192 C276.87663,1004.27192 276.32976,1002.99068 276.32976,1001.4282 C276.32976,1000.52192 276.53288,999.69378 276.93912,998.94378 C277.34538,998.16254 277.89226,997.55318 278.57976,997.1157 C279.26726,996.6469 280.03288,996.30314 280.87662,996.08442 C281.47038,995.89694 282.40788,995.72506 283.68912,995.56878 C286.22038,995.28754 288.09538,994.92818 289.31412,994.4907 C289.31412,994.05318 289.31412,993.78754 289.31412,993.69378 C289.31412,992.38126 289.01725,991.4594 288.42351,990.9282 C287.61101,990.24068 286.40788,989.89692 284.81412,989.89692 C283.34538,989.89692 282.25163,990.16254 281.53287,990.69378 C280.81413,991.19378 280.28288,992.10002 279.93912,993.4125 L276.84537,992.9907 C277.12663,991.67818 277.59538,990.61568 278.25162,989.8032 C278.90788,988.99068 279.84538,988.36568 281.06412,987.9282 C282.28288,987.49068 283.68913,987.27192 285.28287,987.27192 C286.87663,987.27192 288.17351,987.45942 289.17351,987.83442 C290.17351,988.20942 290.90788,988.67818 291.37662,989.2407 C291.84538,989.80318 292.17351,990.52192 292.36101,991.39692 C292.45475,991.92816 292.50162,992.89692 292.50162,994.3032 L292.50162,998.52192 C292.50162,1001.45944 292.56412,1003.3188 292.68912,1004.1 C292.84538,1004.88128 293.12663,1005.63128 293.53287,1006.35 L290.20476,1006.35 C289.89226,1005.6938 289.68913,1004.9282 289.59537,1004.0532 Z M289.31412,996.975 C288.15788,997.4438 286.43913,997.85006 284.15787,998.19378 C282.84537,998.38126 281.9235,998.6 281.39226,998.85 C280.861,999.0688 280.43912,999.39694 280.12662,999.83442 C279.84538,1000.27194 279.70476,1000.77194 279.70476,1001.33442 C279.70476,1002.17814 280.01726,1002.88126 280.64226,1003.44378 C281.2985,1004.00626 282.236,1004.2875 283.45476,1004.2875 C284.6735,1004.2875 285.75162,1004.0219 286.68912,1003.4907 C287.65788,1002.95942 288.36101,1002.22502 288.79851,1001.2875 C289.14225,1000.56878 289.31412,999.52192 289.31412,998.14692 L289.31412,996.975 Z M298.40787,1006.35 L298.40787,987.69378 L301.22037,987.69378 L301.22037,990.31878 C302.59537,988.28754 304.57975,987.27192 307.17351,987.27192 C308.29851,987.27192 309.32976,987.47504 310.26726,987.88128 C311.236,988.28756 311.95475,988.8188 312.42351,989.475 C312.89225,990.13128 313.22037,990.89692 313.40787,991.77192 C313.50163,992.36564 313.54851,993.3969 313.54851,994.8657 L313.54851,1006.35 L310.40787,1006.35 L310.40787,995.00628 C310.40787,993.69376 310.28287,992.725 310.03287,992.1 C309.78287,991.475 309.34537,990.975 308.72037,990.6 C308.09537,990.1938 307.361,989.9907 306.51726,989.9907 C305.1735,989.9907 304.00162,990.4282 303.00162,991.3032 C302.03288,992.14692 301.54851,993.75628 301.54851,996.13128 L301.54851,1006.35 L298.40787,1006.35 Z M331.50162,1006.35 L331.50162,1004.00628 C330.31412,1005.85004 328.57975,1006.77192 326.29851,1006.77192 C324.79851,1006.77192 323.42351,1006.36568 322.17351,1005.5532 C320.92351,1004.7094 319.95476,1003.55314 319.26726,1002.08442 C318.57976,1000.61566 318.23601,998.92816 318.23601,997.02192 C318.23601,995.17816 318.54851,993.49066 319.17351,991.95942 C319.79851,990.42814 320.73601,989.2719 321.98601,988.4907 C323.23601,987.67818 324.62663,987.27192 326.15787,987.27192 C327.28287,987.27192 328.28287,987.50628 329.15787,987.975 C330.03287,988.4438 330.75162,989.0532 331.31412,989.8032 L331.31412,980.56878 L334.45476,980.56878 L334.45476,1006.35 L331.50162,1006.35 Z M321.51726,997.02192 C321.51726,999.42816 322.01726,1001.22502 323.01726,1002.4125 C324.01726,1003.56878 325.20476,1004.14692 326.57976,1004.14692 C327.95476,1004.14692 329.12663,1003.58442 330.09537,1002.45942 C331.06413,1001.33442 331.54851,999.61568 331.54851,997.3032 C331.54851,994.74068 331.04851,992.86568 330.04851,991.6782 C329.07975,990.49068 327.87662,989.89692 326.43912,989.89692 C325.03288,989.89692 323.86101,990.47504 322.92351,991.63128 C321.98601,992.75628 321.51726,994.55316 321.51726,997.02192 Z M349.40787,984.225 L349.40787,980.56878 L352.59537,980.56878 L352.59537,984.225 L349.40787,984.225 Z M349.40787,1006.35 L349.40787,987.69378 L352.59537,987.69378 L352.59537,1006.35 L349.40787,1006.35 Z M365.29851,1003.5375 L365.76726,1006.3032 C364.861,1006.49068 364.06412,1006.58442 363.37662,1006.58442 C362.22038,1006.58442 361.32976,1006.41254 360.70476,1006.06878 C360.07976,1005.69378 359.62663,1005.20942 359.34537,1004.6157 C359.09537,1004.0219 358.97037,1002.7719 358.97037,1000.8657 L358.97037,990.13128 L356.67351,990.13128 L356.67351,987.69378 L358.97037,987.69378 L358.97037,983.0532 L362.11101,981.1782 L362.11101,987.69378 L365.29851,987.69378 L365.29851,990.13128 L362.11101,990.13128 L362.11101,1001.0532 C362.11101,1001.9594 362.15788,1002.5375 362.25162,1002.7875 C362.37662,1003.0375 362.56412,1003.24064 362.81412,1003.39692 C363.06412,1003.55316 363.4235,1003.63128 363.89226,1003.63128 C364.26726,1003.63128 364.73601,1003.60002 365.29851,1003.5375 Z M376.40787,984.225 L376.40787,980.56878 L379.59537,980.56878 L379.59537,984.225 L376.40787,984.225 Z M376.40787,1006.35 L376.40787,987.69378 L379.59537,987.69378 L379.59537,1006.35 L376.40787,1006.35 Z M384.14226,1000.77192 L387.23601,1000.3032 C387.42351,1001.5532 387.90789,1002.5063 388.68915,1003.1625 C389.50165,1003.81878 390.64227,1004.14692 392.11101,1004.14692 C393.54851,1004.14692 394.61101,1003.86568 395.29851,1003.3032 C396.01727,1002.7094 396.37665,1002.00626 396.37665,1001.19378 C396.37665,1000.47506 396.06415,999.91256 395.43915,999.50628 C395.00165,999.22504 393.92352,998.86568 392.20476,998.4282 C389.89226,997.8344 388.28289,997.3344 387.37665,996.9282 C386.50165,996.49068 385.82977,995.89692 385.36101,995.14692 C384.89227,994.39692 384.6579,993.55318 384.6579,992.6157 C384.6579,991.80318 384.8454,991.03754 385.2204,990.31878 C385.5954,989.60006 386.11102,989.0063 386.76726,988.5375 C387.26726,988.19378 387.93914,987.89692 388.7829,987.64692 C389.62664,987.39692 390.54851,987.27192 391.54851,987.27192 C392.98601,987.27192 394.25164,987.49068 395.3454,987.9282 C396.4704,988.3344 397.29852,988.8969 397.82976,989.6157 C398.36102,990.33442 398.7204,991.28752 398.9079,992.475 L395.81415,992.89692 C395.68915,991.95944 395.2829,991.22506 394.5954,990.69378 C393.93914,990.13126 392.98601,989.85 391.73601,989.85 C390.29851,989.85 389.26726,990.1 388.64226,990.6 C388.01726,991.0688 387.70476,991.6313 387.70476,992.2875 C387.70476,992.69378 387.82976,993.05318 388.07976,993.3657 C388.36102,993.70942 388.76727,993.99066 389.29851,994.20942 C389.61101,994.33442 390.54851,994.60004 392.11101,995.00628 C394.36101,995.63128 395.92351,996.13128 396.79851,996.50628 C397.67351,996.88128 398.36101,997.42816 398.86101,998.14692 C399.36101,998.86564 399.61101,999.7719 399.61101,1000.8657 C399.61101,1001.92818 399.29851,1002.92818 398.67351,1003.8657 C398.07977,1004.7719 397.20477,1005.49064 396.04851,1006.02192 C394.89227,1006.52192 393.57977,1006.77192 392.11101,1006.77192 C389.67351,1006.77192 387.81414,1006.27192 386.5329,1005.27192 C385.2829,1004.24064 384.48602,1002.74064 384.14226,1000.77192 Z M415.36101,1006.35 L415.36101,987.69378 L418.2204,987.69378 L418.2204,990.50628 C418.93914,989.19376 419.59539,988.3344 420.18915,987.9282 C420.81415,987.49068 421.50165,987.27192 422.25165,987.27192 C423.31415,987.27192 424.39227,987.60004 425.48601,988.25628 L424.4079,991.20942 C423.62664,990.74066 422.86101,990.50628 422.11101,990.50628 C421.39227,990.50628 420.75165,990.72502 420.18915,991.1625 C419.65789,991.56878 419.28289,992.14692 419.06415,992.89692 C418.68915,994.02192 418.50165,995.24068 418.50165,996.5532 L418.50165,1006.35 L415.36101,1006.35 Z M440.1579,1000.35 L443.43915,1000.725 C442.93915,1002.63128 441.98602,1004.11568 440.57976,1005.1782 C439.17352,1006.24068 437.39227,1006.77192 435.23601,1006.77192 C432.51727,1006.77192 430.3454,1005.92818 428.7204,1004.2407 C427.12664,1002.55318 426.32976,1000.19378 426.32976,997.1625 C426.32976,994.0375 427.14226,991.61564 428.76726,989.89692 C430.39226,988.14692 432.48601,987.27192 435.04851,987.27192 C437.54851,987.27192 439.57976,988.11568 441.14226,989.8032 C442.73602,991.49068 443.5329,993.88128 443.5329,996.975 C443.5329,997.16252 443.5329,997.44378 443.5329,997.81878 L429.61101,997.81878 C429.73601,999.88126 430.31414,1001.4594 431.3454,1002.5532 C432.37664,1003.61568 433.67351,1004.14692 435.23601,1004.14692 C436.39227,1004.14692 437.37665,1003.85004 438.18915,1003.25628 C439.03289,1002.63128 439.68914,1001.66252 440.1579,1000.35 Z M429.79851,995.2407 L440.20476,995.2407 C440.07976,993.6469 439.68914,992.4594 439.0329,991.6782 C438.00164,990.4594 436.68914,989.85 435.0954,989.85 C433.62664,989.85 432.39226,990.3344 431.39226,991.3032 C430.42352,992.27192 429.89227,993.58442 429.79851,995.2407 Z M447.79851,1007.89692 L450.89226,1008.3657 C451.01726,1009.30318 451.37664,1009.99068 451.9704,1010.4282 C452.75164,1011.02192 453.81414,1011.31878 455.1579,1011.31878 C456.62664,1011.31878 457.75164,1011.02192 458.5329,1010.4282 C459.3454,1009.8344 459.89227,1009.0219 460.17351,1007.9907 C460.36101,1007.33442 460.43914,1005.97502 460.4079,1003.9125 C459.0329,1005.5375 457.31415,1006.35 455.25165,1006.35 C452.68915,1006.35 450.70477,1005.42814 449.29851,1003.58442 C447.89227,1001.70942 447.18915,999.49068 447.18915,996.9282 C447.18915,995.14692 447.50165,993.50628 448.12665,992.00628 C448.78289,990.47504 449.72039,989.30318 450.93915,988.4907 C452.15789,987.67818 453.59539,987.27192 455.25165,987.27192 C457.47039,987.27192 459.29851,988.16254 460.73601,989.94378 L460.73601,987.69378 L463.64226,987.69378 L463.64226,1003.81878 C463.64226,1006.72506 463.34539,1008.78756 462.75165,1010.00628 C462.15789,1011.22504 461.22039,1012.17818 459.93915,1012.8657 C458.65789,1013.58442 457.07976,1013.94378 455.20476,1013.94378 C452.98602,1013.94378 451.18915,1013.44378 449.81415,1012.44378 C448.43915,1011.44378 447.76727,1009.92816 447.79851,1007.89692 Z M450.42351,996.69378 C450.42351,999.13126 450.90789,1000.9125 451.87665,1002.0375 C452.84539,1003.1625 454.06414,1003.725 455.5329,1003.725 C457.00164,1003.725 458.22039,1003.1625 459.18915,1002.0375 C460.18915,1000.9125 460.68915,999.1625 460.68915,996.7875 C460.68915,994.5063 460.17352,992.78756 459.14226,991.63128 C458.14226,990.47504 456.92351,989.89692 455.48601,989.89692 C454.07977,989.89692 452.87665,990.47504 451.87665,991.63128 C450.90789,992.75628 450.42351,994.44378 450.42351,996.69378 Z M481.64226,1006.35 L481.64226,1003.58442 C480.17352,1005.70942 478.18915,1006.77192 475.68915,1006.77192 C474.59539,1006.77192 473.56414,1006.56878 472.5954,1006.1625 C471.6579,1005.72502 470.95477,1005.19378 470.48601,1004.56878 C470.01727,1003.91254 469.68915,1003.11568 469.50165,1002.1782 C469.37665,1001.5844 469.31415,1000.6 469.31415,999.225 L469.31415,987.69378 L472.50165,987.69378 L472.50165,998.0532 C472.50165,999.6782 472.56415,1000.78756 472.68915,1001.38128 C472.87665,1002.19376 473.2829,1002.85 473.9079,1003.35 C474.56414,1003.8188 475.37664,1004.0532 476.3454,1004.0532 C477.2829,1004.0532 478.1579,1003.8188 478.9704,1003.35 C479.81414,1002.85 480.40789,1002.17814 480.75165,1001.33442 C481.12665,1000.49066 481.31415,999.27192 481.31415,997.6782 L481.31415,987.69378 L484.45476,987.69378 L484.45476,1006.35 L481.64226,1006.35 Z M490.31415,1006.35 L490.31415,980.56878 L493.50165,980.56878 L493.50165,1006.35 L490.31415,1006.35 Z M511.5954,1004.0532 C510.4079,1005.0532 509.26727,1005.7563 508.17351,1006.1625 C507.11101,1006.56878 505.95476,1006.77192 504.70476,1006.77192 C502.64226,1006.77192 501.06414,1006.27192 499.9704,1005.27192 C498.87664,1004.27192 498.32976,1002.99068 498.32976,1001.4282 C498.32976,1000.52192 498.53289,999.69378 498.93915,998.94378 C499.34539,998.16254 499.89226,997.55318 500.57976,997.1157 C501.26726,996.6469 502.03289,996.30314 502.87665,996.08442 C503.47039,995.89694 504.40789,995.72506 505.68915,995.56878 C508.22039,995.28754 510.09539,994.92818 511.31415,994.4907 C511.31415,994.05318 511.31415,993.78754 511.31415,993.69378 C511.31415,992.38126 511.01727,991.4594 510.42351,990.9282 C509.61101,990.24068 508.40789,989.89692 506.81415,989.89692 C505.34539,989.89692 504.25164,990.16254 503.5329,990.69378 C502.81414,991.19378 502.28289,992.10002 501.93915,993.4125 L498.8454,992.9907 C499.12664,991.67818 499.59539,990.61568 500.25165,989.8032 C500.90789,988.99068 501.84539,988.36568 503.06415,987.9282 C504.28289,987.49068 505.68914,987.27192 507.2829,987.27192 C508.87664,987.27192 510.17351,987.45942 511.17351,987.83442 C512.17351,988.20942 512.90789,988.67818 513.37665,989.2407 C513.84539,989.80318 514.17351,990.52192 514.36101,991.39692 C514.45477,991.92816 514.50165,992.89692 514.50165,994.3032 L514.50165,998.52192 C514.50165,1001.45944 514.56415,1003.3188 514.68915,1004.1 C514.84539,1004.88128 515.12664,1005.63128 515.5329,1006.35 L512.20476,1006.35 C511.89226,1005.6938 511.68914,1004.9282 511.5954,1004.0532 Z M511.31415,996.975 C510.15789,997.4438 508.43914,997.85006 506.1579,998.19378 C504.8454,998.38126 503.92352,998.6 503.39226,998.85 C502.86102,999.0688 502.43915,999.39694 502.12665,999.83442 C501.84539,1000.27194 501.70476,1000.77194 501.70476,1001.33442 C501.70476,1002.17814 502.01726,1002.88126 502.64226,1003.44378 C503.29852,1004.00626 504.23602,1004.2875 505.45476,1004.2875 C506.67352,1004.2875 507.75165,1004.0219 508.68915,1003.4907 C509.65789,1002.95942 510.36101,1002.22502 510.79851,1001.2875 C511.14227,1000.56878 511.31415,999.52192 511.31415,998.14692 L511.31415,996.975 Z M520.36101,1006.35 L520.36101,987.69378 L523.2204,987.69378 L523.2204,990.50628 C523.93914,989.19376 524.59539,988.3344 525.18915,987.9282 C525.81415,987.49068 526.50165,987.27192 527.25165,987.27192 C528.31415,987.27192 529.39227,987.60004 530.48601,988.25628 L529.4079,991.20942 C528.62664,990.74066 527.86101,990.50628 527.11101,990.50628 C526.39227,990.50628 525.75165,990.72502 525.18915,991.1625 C524.65789,991.56878 524.28289,992.14692 524.06415,992.89692 C523.68915,994.02192 523.50165,995.24068 523.50165,996.5532 L523.50165,1006.35 L520.36101,1006.35 Z M532.31415,1006.35 L532.31415,980.56878 L535.50165,980.56878 L535.50165,1006.35 L532.31415,1006.35 Z M541.26726,1013.52192 L540.89226,1010.56878 C541.57976,1010.75626 542.18914,1010.85 542.7204,1010.85 C543.4079,1010.85 543.95477,1010.725 544.36101,1010.475 C544.79851,1010.25628 545.15789,1009.94378 545.43915,1009.5375 C545.62665,1009.19378 545.95477,1008.39692 546.42351,1007.14692 C546.45477,1006.99064 546.54852,1006.74064 546.70476,1006.39692 L539.57976,987.69378 L543.00165,987.69378 L546.89226,998.475 C547.39226,999.85 547.84539,1001.30314 548.25165,1002.83442 C548.62665,1001.36566 549.06415,999.94378 549.56415,998.56878 L553.54851,987.69378 L556.68915,987.69378 L549.61101,1006.6782 C548.82977,1008.7094 548.23602,1010.11564 547.82976,1010.89692 C547.26726,1011.95944 546.61101,1012.72506 545.86101,1013.19378 C545.14227,1013.69378 544.2829,1013.94378 543.2829,1013.94378 C542.68914,1013.94378 542.01726,1013.80316 541.26726,1013.52192 Z" id="Shape" fill="#000000" fill-rule="nonzero"></path>
            <path d="M287.90787,1048.35 L287.90787,1029.69378 L290.72037,1029.69378 L290.72037,1032.31878 C291.31413,1031.38126 292.09538,1030.6469 293.06412,1030.1157 C294.03288,1029.55318 295.14226,1029.27192 296.39226,1029.27192 C297.76726,1029.27192 298.89226,1029.55318 299.76726,1030.1157 C300.6735,1030.67818 301.2985,1031.47504 301.64226,1032.50628 C303.14226,1030.35004 305.06413,1029.27192 307.40787,1029.27192 C309.28287,1029.27192 310.70475,1029.78754 311.67351,1030.81878 C312.67351,1031.81878 313.17351,1033.39692 313.17351,1035.5532 L313.17351,1048.35 L310.03287,1048.35 L310.03287,1036.58442 C310.03287,1035.33442 309.9235,1034.42818 309.70476,1033.8657 C309.51726,1033.30318 309.15788,1032.85004 308.62662,1032.50628 C308.09538,1032.16256 307.45476,1031.9907 306.70476,1031.9907 C305.39226,1031.9907 304.29851,1032.4282 303.42351,1033.3032 C302.57975,1034.1782 302.15787,1035.58444 302.15787,1037.52192 L302.15787,1048.35 L298.97037,1048.35 L298.97037,1036.20942 C298.97037,1034.80314 298.70475,1033.75626 298.17351,1033.06878 C297.67351,1032.35006 296.84538,1031.9907 295.68912,1031.9907 C294.78288,1031.9907 293.95476,1032.22506 293.20476,1032.69378 C292.45476,1033.16254 291.90788,1033.85004 291.56412,1034.75628 C291.22038,1035.66256 291.04851,1036.95944 291.04851,1038.64692 L291.04851,1048.35 L287.90787,1048.35 Z M333.09537,1046.0532 C331.90787,1047.0532 330.76725,1047.7563 329.67351,1048.1625 C328.61101,1048.56878 327.45476,1048.77192 326.20476,1048.77192 C324.14226,1048.77192 322.56413,1048.27192 321.47037,1047.27192 C320.37663,1046.27192 319.82976,1044.99068 319.82976,1043.4282 C319.82976,1042.52192 320.03288,1041.69378 320.43912,1040.94378 C320.84538,1040.16254 321.39226,1039.55318 322.07976,1039.1157 C322.76726,1038.6469 323.53288,1038.30314 324.37662,1038.08442 C324.97038,1037.89694 325.90788,1037.72506 327.18912,1037.56878 C329.72038,1037.28754 331.59538,1036.92818 332.81412,1036.4907 C332.81412,1036.05318 332.81412,1035.78754 332.81412,1035.69378 C332.81412,1034.38126 332.51725,1033.4594 331.92351,1032.9282 C331.11101,1032.24068 329.90788,1031.89692 328.31412,1031.89692 C326.84538,1031.89692 325.75163,1032.16254 325.03287,1032.69378 C324.31413,1033.19378 323.78288,1034.10002 323.43912,1035.4125 L320.34537,1034.9907 C320.62663,1033.67818 321.09538,1032.61568 321.75162,1031.8032 C322.40788,1030.99068 323.34538,1030.36568 324.56412,1029.9282 C325.78288,1029.49068 327.18913,1029.27192 328.78287,1029.27192 C330.37663,1029.27192 331.67351,1029.45942 332.67351,1029.83442 C333.67351,1030.20942 334.40788,1030.67818 334.87662,1031.2407 C335.34538,1031.80318 335.67351,1032.52192 335.86101,1033.39692 C335.95475,1033.92816 336.00162,1034.89692 336.00162,1036.3032 L336.00162,1040.52192 C336.00162,1043.45944 336.06412,1045.3188 336.18912,1046.1 C336.34538,1046.88128 336.62663,1047.63128 337.03287,1048.35 L333.70476,1048.35 C333.39226,1047.6938 333.18913,1046.9282 333.09537,1046.0532 Z M332.81412,1038.975 C331.65788,1039.4438 329.93913,1039.85006 327.65787,1040.19378 C326.34537,1040.38126 325.4235,1040.6 324.89226,1040.85 C324.361,1041.0688 323.93912,1041.39694 323.62662,1041.83442 C323.34538,1042.27194 323.20476,1042.77194 323.20476,1043.33442 C323.20476,1044.17814 323.51726,1044.88126 324.14226,1045.44378 C324.7985,1046.00626 325.736,1046.2875 326.95476,1046.2875 C328.1735,1046.2875 329.25162,1046.0219 330.18912,1045.4907 C331.15788,1044.95942 331.86101,1044.22502 332.29851,1043.2875 C332.64225,1042.56878 332.81412,1041.52192 332.81412,1040.14692 L332.81412,1038.975 Z M341.90787,1026.225 L341.90787,1022.56878 L345.09537,1022.56878 L345.09537,1026.225 L341.90787,1026.225 Z M341.90787,1048.35 L341.90787,1029.69378 L345.09537,1029.69378 L345.09537,1048.35 L341.90787,1048.35 Z M350.90787,1048.35 L350.90787,1029.69378 L353.72037,1029.69378 L353.72037,1032.31878 C355.09537,1030.28754 357.07975,1029.27192 359.67351,1029.27192 C360.79851,1029.27192 361.82976,1029.47504 362.76726,1029.88128 C363.736,1030.28756 364.45475,1030.8188 364.92351,1031.475 C365.39225,1032.13128 365.72037,1032.89692 365.90787,1033.77192 C366.00163,1034.36564 366.04851,1035.3969 366.04851,1036.8657 L366.04851,1048.35 L362.90787,1048.35 L362.90787,1037.00628 C362.90787,1035.69376 362.78287,1034.725 362.53287,1034.1 C362.28287,1033.475 361.84537,1032.975 361.22037,1032.6 C360.59537,1032.1938 359.861,1031.9907 359.01726,1031.9907 C357.6735,1031.9907 356.50162,1032.4282 355.50162,1033.3032 C354.53288,1034.14692 354.04851,1035.75628 354.04851,1038.13128 L354.04851,1048.35 L350.90787,1048.35 Z M378.79851,1045.5375 L379.26726,1048.3032 C378.361,1048.49068 377.56412,1048.58442 376.87662,1048.58442 C375.72038,1048.58442 374.82976,1048.41254 374.20476,1048.06878 C373.57976,1047.69378 373.12663,1047.20942 372.84537,1046.6157 C372.59537,1046.0219 372.47037,1044.7719 372.47037,1042.8657 L372.47037,1032.13128 L370.17351,1032.13128 L370.17351,1029.69378 L372.47037,1029.69378 L372.47037,1025.0532 L375.61101,1023.1782 L375.61101,1029.69378 L378.79851,1029.69378 L378.79851,1032.13128 L375.61101,1032.13128 L375.61101,1043.0532 C375.61101,1043.9594 375.65788,1044.5375 375.75162,1044.7875 C375.87662,1045.0375 376.06412,1045.24064 376.31412,1045.39692 C376.56412,1045.55316 376.9235,1045.63128 377.39226,1045.63128 C377.76726,1045.63128 378.23601,1045.60002 378.79851,1045.5375 Z M393.0954,1046.0532 C391.9079,1047.0532 390.76727,1047.7563 389.67351,1048.1625 C388.61101,1048.56878 387.45476,1048.77192 386.20476,1048.77192 C384.14226,1048.77192 382.56413,1048.27192 381.47037,1047.27192 C380.37663,1046.27192 379.82976,1044.99068 379.82976,1043.4282 C379.82976,1042.52192 380.03288,1041.69378 380.43912,1040.94378 C380.84538,1040.16254 381.39226,1039.55318 382.07976,1039.1157 C382.76726,1038.6469 383.53289,1038.30314 384.37665,1038.08442 C384.97039,1037.89694 385.90789,1037.72506 387.18915,1037.56878 C389.72039,1037.28754 391.59539,1036.92818 392.81415,1036.4907 C392.81415,1036.05318 392.81415,1035.78754 392.81415,1035.69378 C392.81415,1034.38126 392.51727,1033.4594 391.92351,1032.9282 C391.11101,1032.24068 389.90789,1031.89692 388.31415,1031.89692 C386.84539,1031.89692 385.75164,1032.16254 385.0329,1032.69378 C384.31414,1033.19378 383.78288,1034.10002 383.43912,1035.4125 L380.34537,1034.9907 C380.62663,1033.67818 381.09538,1032.61568 381.75162,1031.8032 C382.40788,1030.99068 383.34539,1030.36568 384.56415,1029.9282 C385.78289,1029.49068 387.18914,1029.27192 388.7829,1029.27192 C390.37664,1029.27192 391.67351,1029.45942 392.67351,1029.83442 C393.67351,1030.20942 394.40789,1030.67818 394.87665,1031.2407 C395.34539,1031.80318 395.67351,1032.52192 395.86101,1033.39692 C395.95477,1033.92816 396.00165,1034.89692 396.00165,1036.3032 L396.00165,1040.52192 C396.00165,1043.45944 396.06415,1045.3188 396.18915,1046.1 C396.34539,1046.88128 396.62664,1047.63128 397.0329,1048.35 L393.70476,1048.35 C393.39226,1047.6938 393.18914,1046.9282 393.0954,1046.0532 Z M392.81415,1038.975 C391.65789,1039.4438 389.93914,1039.85006 387.6579,1040.19378 C386.3454,1040.38126 385.42352,1040.6 384.89226,1040.85 C384.36102,1041.0688 383.93914,1041.39694 383.62662,1041.83442 C383.34538,1042.27194 383.20476,1042.77194 383.20476,1043.33442 C383.20476,1044.17814 383.51726,1044.88126 384.14226,1045.44378 C384.79852,1046.00626 385.73602,1046.2875 386.95476,1046.2875 C388.17352,1046.2875 389.25165,1046.0219 390.18915,1045.4907 C391.15789,1044.95942 391.86101,1044.22502 392.29851,1043.2875 C392.64227,1042.56878 392.81415,1041.52192 392.81415,1040.14692 L392.81415,1038.975 Z M401.9079,1026.225 L401.9079,1022.56878 L405.0954,1022.56878 L405.0954,1026.225 L401.9079,1026.225 Z M401.9079,1048.35 L401.9079,1029.69378 L405.0954,1029.69378 L405.0954,1048.35 L401.9079,1048.35 Z M410.9079,1048.35 L410.9079,1029.69378 L413.7204,1029.69378 L413.7204,1032.31878 C415.0954,1030.28754 417.07977,1029.27192 419.67351,1029.27192 C420.79851,1029.27192 421.82976,1029.47504 422.76726,1029.88128 C423.73602,1030.28756 424.45477,1030.8188 424.92351,1031.475 C425.39227,1032.13128 425.7204,1032.89692 425.9079,1033.77192 C426.00164,1034.36564 426.04851,1035.3969 426.04851,1036.8657 L426.04851,1048.35 L422.9079,1048.35 L422.9079,1037.00628 C422.9079,1035.69376 422.7829,1034.725 422.5329,1034.1 C422.2829,1033.475 421.8454,1032.975 421.2204,1032.6 C420.5954,1032.1938 419.86102,1031.9907 419.01726,1031.9907 C417.67352,1031.9907 416.50165,1032.4282 415.50165,1033.3032 C414.53289,1034.14692 414.04851,1035.75628 414.04851,1038.13128 L414.04851,1048.35 L410.9079,1048.35 Z M444.6579,1042.35 L447.93915,1042.725 C447.43915,1044.63128 446.48602,1046.11568 445.07976,1047.1782 C443.67352,1048.24068 441.89227,1048.77192 439.73601,1048.77192 C437.01727,1048.77192 434.8454,1047.92818 433.2204,1046.2407 C431.62664,1044.55318 430.82976,1042.19378 430.82976,1039.1625 C430.82976,1036.0375 431.64226,1033.61564 433.26726,1031.89692 C434.89226,1030.14692 436.98601,1029.27192 439.54851,1029.27192 C442.04851,1029.27192 444.07976,1030.11568 445.64226,1031.8032 C447.23602,1033.49068 448.0329,1035.88128 448.0329,1038.975 C448.0329,1039.16252 448.0329,1039.44378 448.0329,1039.81878 L434.11101,1039.81878 C434.23601,1041.88126 434.81414,1043.4594 435.8454,1044.5532 C436.87664,1045.61568 438.17351,1046.14692 439.73601,1046.14692 C440.89227,1046.14692 441.87665,1045.85004 442.68915,1045.25628 C443.53289,1044.63128 444.18914,1043.66252 444.6579,1042.35 Z M434.29851,1037.2407 L444.70476,1037.2407 C444.57976,1035.6469 444.18914,1034.4594 443.5329,1033.6782 C442.50164,1032.4594 441.18914,1031.85 439.5954,1031.85 C438.12664,1031.85 436.89226,1032.3344 435.89226,1033.3032 C434.92352,1034.27192 434.39227,1035.58442 434.29851,1037.2407 Z M465.00165,1048.35 L465.00165,1046.00628 C463.81415,1047.85004 462.07977,1048.77192 459.79851,1048.77192 C458.29851,1048.77192 456.92351,1048.36568 455.67351,1047.5532 C454.42351,1046.7094 453.45476,1045.55314 452.76726,1044.08442 C452.07976,1042.61566 451.73601,1040.92816 451.73601,1039.02192 C451.73601,1037.17816 452.04851,1035.49066 452.67351,1033.95942 C453.29851,1032.42814 454.23601,1031.2719 455.48601,1030.4907 C456.73601,1029.67818 458.12664,1029.27192 459.6579,1029.27192 C460.7829,1029.27192 461.7829,1029.50628 462.6579,1029.975 C463.5329,1030.4438 464.25165,1031.0532 464.81415,1031.8032 L464.81415,1022.56878 L467.95476,1022.56878 L467.95476,1048.35 L465.00165,1048.35 Z M455.01726,1039.02192 C455.01726,1041.42816 455.51726,1043.22502 456.51726,1044.4125 C457.51726,1045.56878 458.70476,1046.14692 460.07976,1046.14692 C461.45476,1046.14692 462.62664,1045.58442 463.5954,1044.45942 C464.56414,1043.33442 465.04851,1041.61568 465.04851,1039.3032 C465.04851,1036.74068 464.54851,1034.86568 463.54851,1033.6782 C462.57977,1032.49068 461.37665,1031.89692 459.93915,1031.89692 C458.53289,1031.89692 457.36101,1032.47504 456.42351,1033.63128 C455.48601,1034.75628 455.01726,1036.55316 455.01726,1039.02192 Z" id="Shape" fill="#000000" fill-rule="nonzero"></path>
            <path d="M635.70363,1006.35 L635.70363,995.4282 L625.76613,980.56878 L629.93802,980.56878 L635.00052,988.35 C635.93802,989.78752 636.81302,991.24066 637.62552,992.70942 C638.40676,991.36566 639.34426,989.85002 640.43802,988.1625 L645.45363,980.56878 L649.39113,980.56878 L639.12552,995.4282 L639.12552,1006.35 L635.70363,1006.35 Z M661.81302,1000.35 L665.09427,1000.725 C664.59427,1002.63128 663.64114,1004.11568 662.23488,1005.1782 C660.82864,1006.24068 659.04739,1006.77192 656.89113,1006.77192 C654.17239,1006.77192 652.00052,1005.92818 650.37552,1004.2407 C648.78176,1002.55318 647.98488,1000.19378 647.98488,997.1625 C647.98488,994.0375 648.79738,991.61564 650.42238,989.89692 C652.04738,988.14692 654.14113,987.27192 656.70363,987.27192 C659.20363,987.27192 661.23488,988.11568 662.79738,989.8032 C664.39114,991.49068 665.18802,993.88128 665.18802,996.975 C665.18802,997.16252 665.18802,997.44378 665.18802,997.81878 L651.26613,997.81878 C651.39113,999.88126 651.96926,1001.4594 653.00052,1002.5532 C654.03176,1003.61568 655.32863,1004.14692 656.89113,1004.14692 C658.04739,1004.14692 659.03177,1003.85004 659.84427,1003.25628 C660.68801,1002.63128 661.34426,1001.66252 661.81302,1000.35 Z M651.45363,995.2407 L661.85988,995.2407 C661.73488,993.6469 661.34426,992.4594 660.68802,991.6782 C659.65676,990.4594 658.34426,989.85 656.75052,989.85 C655.28176,989.85 654.04738,990.3344 653.04738,991.3032 C652.07864,992.27192 651.54739,993.58442 651.45363,995.2407 Z M668.79738,1000.77192 L671.89113,1000.3032 C672.07863,1001.5532 672.56301,1002.5063 673.34427,1003.1625 C674.15677,1003.81878 675.29739,1004.14692 676.76613,1004.14692 C678.20363,1004.14692 679.26613,1003.86568 679.95363,1003.3032 C680.67239,1002.7094 681.03177,1002.00626 681.03177,1001.19378 C681.03177,1000.47506 680.71927,999.91256 680.09427,999.50628 C679.65677,999.22504 678.57864,998.86568 676.85988,998.4282 C674.54738,997.8344 672.93801,997.3344 672.03177,996.9282 C671.15677,996.49068 670.48489,995.89692 670.01613,995.14692 C669.54739,994.39692 669.31302,993.55318 669.31302,992.6157 C669.31302,991.80318 669.50052,991.03754 669.87552,990.31878 C670.25052,989.60006 670.76614,989.0063 671.42238,988.5375 C671.92238,988.19378 672.59426,987.89692 673.43802,987.64692 C674.28176,987.39692 675.20363,987.27192 676.20363,987.27192 C677.64113,987.27192 678.90676,987.49068 680.00052,987.9282 C681.12552,988.3344 681.95364,988.8969 682.48488,989.6157 C683.01614,990.33442 683.37552,991.28752 683.56302,992.475 L680.46927,992.89692 C680.34427,991.95944 679.93802,991.22506 679.25052,990.69378 C678.59426,990.13126 677.64113,989.85 676.39113,989.85 C674.95363,989.85 673.92238,990.1 673.29738,990.6 C672.67238,991.0688 672.35988,991.6313 672.35988,992.2875 C672.35988,992.69378 672.48488,993.05318 672.73488,993.3657 C673.01614,993.70942 673.42239,993.99066 673.95363,994.20942 C674.26613,994.33442 675.20363,994.60004 676.76613,995.00628 C679.01613,995.63128 680.57863,996.13128 681.45363,996.50628 C682.32863,996.88128 683.01613,997.42816 683.51613,998.14692 C684.01613,998.86564 684.26613,999.7719 684.26613,1000.8657 C684.26613,1001.92818 683.95363,1002.92818 683.32863,1003.8657 C682.73489,1004.7719 681.85989,1005.49064 680.70363,1006.02192 C679.54739,1006.52192 678.23489,1006.77192 676.76613,1006.77192 C674.32863,1006.77192 672.46926,1006.27192 671.18802,1005.27192 C669.93802,1004.24064 669.14114,1002.74064 668.79738,1000.77192 Z M702.96927,1006.35 L700.01613,1006.35 L700.01613,980.56878 L703.20363,980.56878 L703.20363,989.75628 C704.54739,988.10004 706.25052,987.27192 708.31302,987.27192 C709.46926,987.27192 710.54738,987.50628 711.54738,987.975 C712.57864,988.41252 713.42239,989.05316 714.07863,989.89692 C714.76613,990.74064 715.29738,991.75626 715.67238,992.94378 C716.04738,994.13126 716.23488,995.3969 716.23488,996.7407 C716.23488,999.92818 715.43801,1002.39692 713.84427,1004.14692 C712.25051,1005.89692 710.35988,1006.77192 708.17238,1006.77192 C705.95364,1006.77192 704.21927,1005.85004 702.96927,1004.00628 L702.96927,1006.35 Z M702.92238,996.88128 C702.92238,999.10004 703.23488,1000.70942 703.85988,1001.70942 C704.85988,1003.33442 706.20363,1004.14692 707.89113,1004.14692 C709.26613,1004.14692 710.45363,1003.55318 711.45363,1002.3657 C712.48489,1001.17818 713.00052,999.38128 713.00052,996.975 C713.00052,994.53752 712.51614,992.74066 711.54738,991.58442 C710.57864,990.42814 709.40677,989.85 708.03177,989.85 C706.65677,989.85 705.45364,990.4594 704.42238,991.6782 C703.42238,992.86568 702.92238,994.60004 702.92238,996.88128 Z M733.29738,1006.35 L733.29738,1003.58442 C731.82864,1005.70942 729.84427,1006.77192 727.34427,1006.77192 C726.25051,1006.77192 725.21926,1006.56878 724.25052,1006.1625 C723.31302,1005.72502 722.60989,1005.19378 722.14113,1004.56878 C721.67239,1003.91254 721.34427,1003.11568 721.15677,1002.1782 C721.03177,1001.5844 720.96927,1000.6 720.96927,999.225 L720.96927,987.69378 L724.15677,987.69378 L724.15677,998.0532 C724.15677,999.6782 724.21927,1000.78756 724.34427,1001.38128 C724.53177,1002.19376 724.93802,1002.85 725.56302,1003.35 C726.21926,1003.8188 727.03176,1004.0532 728.00052,1004.0532 C728.93802,1004.0532 729.81302,1003.8188 730.62552,1003.35 C731.46926,1002.85 732.06301,1002.17814 732.40677,1001.33442 C732.78177,1000.49066 732.96927,999.27192 732.96927,997.6782 L732.96927,987.69378 L736.10988,987.69378 L736.10988,1006.35 L733.29738,1006.35 Z M748.95363,1003.5375 L749.42238,1006.3032 C748.51614,1006.49068 747.71927,1006.58442 747.03177,1006.58442 C745.87551,1006.58442 744.98488,1006.41254 744.35988,1006.06878 C743.73488,1005.69378 743.28176,1005.20942 743.00052,1004.6157 C742.75052,1004.0219 742.62552,1002.7719 742.62552,1000.8657 L742.62552,990.13128 L740.32863,990.13128 L740.32863,987.69378 L742.62552,987.69378 L742.62552,983.0532 L745.76613,981.1782 L745.76613,987.69378 L748.95363,987.69378 L748.95363,990.13128 L745.76613,990.13128 L745.76613,1001.0532 C745.76613,1001.9594 745.81301,1002.5375 745.90677,1002.7875 C746.03177,1003.0375 746.21927,1003.24064 746.46927,1003.39692 C746.71927,1003.55316 747.07864,1003.63128 747.54738,1003.63128 C747.92238,1003.63128 748.39113,1003.60002 748.95363,1003.5375 Z M760.06302,984.225 L760.06302,980.56878 L763.25052,980.56878 L763.25052,984.225 L760.06302,984.225 Z M760.06302,1006.35 L760.06302,987.69378 L763.25052,987.69378 L763.25052,1006.35 L760.06302,1006.35 Z M775.9536,1003.5375 L776.42238,1006.3032 C775.51614,1006.49068 774.71928,1006.58442 774.0318,1006.58442 C772.87552,1006.58442 771.98488,1006.41254 771.35988,1006.06878 C770.73488,1005.69378 770.28176,1005.20942 770.00052,1004.6157 C769.75052,1004.0219 769.62552,1002.7719 769.62552,1000.8657 L769.62552,990.13128 L767.32863,990.13128 L767.32863,987.69378 L769.62552,987.69378 L769.62552,983.0532 L772.7661,981.1782 L772.7661,987.69378 L775.9536,987.69378 L775.9536,990.13128 L772.7661,990.13128 L772.7661,1001.0532 C772.7661,1001.9594 772.813,1002.5375 772.9068,1002.7875 C773.0318,1003.0375 773.2193,1003.24064 773.4693,1003.39692 C773.7193,1003.55316 774.07866,1003.63128 774.54738,1003.63128 C774.92238,1003.63128 775.39112,1003.60002 775.9536,1003.5375 Z M787.06302,984.225 L787.06302,980.56878 L790.25052,980.56878 L790.25052,984.225 L787.06302,984.225 Z M787.06302,1006.35 L787.06302,987.69378 L790.25052,987.69378 L790.25052,1006.35 L787.06302,1006.35 Z M794.79738,1000.77192 L797.8911,1000.3032 C798.07862,1001.5532 798.56302,1002.5063 799.3443,1003.1625 C800.15678,1003.81878 801.29738,1004.14692 802.7661,1004.14692 C804.20362,1004.14692 805.26612,1003.86568 805.9536,1003.3032 C806.6724,1002.7094 807.0318,1002.00626 807.0318,1001.19378 C807.0318,1000.47506 806.7193,999.91256 806.0943,999.50628 C805.65678,999.22504 804.57864,998.86568 802.85988,998.4282 C800.54736,997.8344 798.938,997.3344 798.0318,996.9282 C797.1568,996.49068 796.4849,995.89692 796.0161,995.14692 C795.54738,994.39692 795.31302,993.55318 795.31302,992.6157 C795.31302,991.80318 795.50052,991.03754 795.87552,990.31878 C796.25052,989.60006 796.76614,989.0063 797.42238,988.5375 C797.92238,988.19378 798.59426,987.89692 799.43802,987.64692 C800.28174,987.39692 801.2036,987.27192 802.2036,987.27192 C803.64112,987.27192 804.90676,987.49068 806.00052,987.9282 C807.12552,988.3344 807.95364,988.8969 808.48488,989.6157 C809.01616,990.33442 809.37554,991.28752 809.56302,992.475 L806.4693,992.89692 C806.3443,991.95944 805.93804,991.22506 805.25052,990.69378 C804.59424,990.13126 803.6411,989.85 802.3911,989.85 C800.95362,989.85 799.92238,990.1 799.29738,990.6 C798.67238,991.0688 798.35988,991.6313 798.35988,992.2875 C798.35988,992.69378 798.48488,993.05318 798.73488,993.3657 C799.01616,993.70942 799.4224,993.99066 799.9536,994.20942 C800.26612,994.33442 801.20362,994.60004 802.7661,995.00628 C805.0161,995.63128 806.5786,996.13128 807.4536,996.50628 C808.3286,996.88128 809.0161,997.42816 809.5161,998.14692 C810.0161,998.86564 810.2661,999.7719 810.2661,1000.8657 C810.2661,1001.92818 809.9536,1002.92818 809.3286,1003.8657 C808.73488,1004.7719 807.85988,1005.49064 806.7036,1006.02192 C805.5474,1006.52192 804.2349,1006.77192 802.7661,1006.77192 C800.32862,1006.77192 798.46926,1006.27192 797.18802,1005.27192 C795.93802,1004.24064 795.14114,1002.74064 794.79738,1000.77192 Z M826.06302,1006.35 L826.06302,987.69378 L828.87552,987.69378 L828.87552,990.31878 C830.25052,988.28754 832.23488,987.27192 834.8286,987.27192 C835.9536,987.27192 836.98486,987.47504 837.92238,987.88128 C838.89114,988.28756 839.60988,988.8188 840.0786,989.475 C840.5474,990.13128 840.87554,990.89692 841.06302,991.77192 C841.15674,992.36564 841.2036,993.3969 841.2036,994.8657 L841.2036,1006.35 L838.06302,1006.35 L838.06302,995.00628 C838.06302,993.69376 837.93802,992.725 837.68802,992.1 C837.43802,991.475 837.00052,990.975 836.37552,990.6 C835.75052,990.1938 835.01614,989.9907 834.17238,989.9907 C832.82866,989.9907 831.6568,990.4282 830.6568,991.3032 C829.688,992.14692 829.2036,993.75628 829.2036,996.13128 L829.2036,1006.35 L826.06302,1006.35 Z M845.8911,997.02192 C845.8911,993.55316 846.84424,990.99066 848.75052,989.33442 C850.34424,987.95942 852.29736,987.27192 854.60988,987.27192 C857.17236,987.27192 859.2661,988.11568 860.8911,989.8032 C862.54738,991.4594 863.37552,993.7719 863.37552,996.7407 C863.37552,999.1469 863.01614,1001.0375 862.29738,1002.4125 C861.57866,1003.7875 860.51616,1004.86564 859.10988,1005.64692 C857.73488,1006.39692 856.23488,1006.77192 854.60988,1006.77192 C852.01616,1006.77192 849.9068,1005.94378 848.2818,1004.2875 C846.688,1002.60002 845.8911,1000.17816 845.8911,997.02192 Z M849.12552,997.02192 C849.12552,999.39692 849.64114,1001.17818 850.67238,1002.3657 C851.73486,1003.55318 853.04736,1004.14692 854.60988,1004.14692 C856.20364,1004.14692 857.51614,1003.55318 858.54738,1002.3657 C859.57866,1001.17818 860.0943,999.36568 860.0943,996.9282 C860.0943,994.61568 859.56304,992.86568 858.50052,991.6782 C857.46924,990.49068 856.17236,989.89692 854.60988,989.89692 C853.04736,989.89692 851.73486,990.49068 850.67238,991.6782 C849.64114,992.8344 849.12552,994.61564 849.12552,997.02192 Z M874.9536,1003.5375 L875.42238,1006.3032 C874.51614,1006.49068 873.71928,1006.58442 873.0318,1006.58442 C871.87552,1006.58442 870.98488,1006.41254 870.35988,1006.06878 C869.73488,1005.69378 869.28176,1005.20942 869.00052,1004.6157 C868.75052,1004.0219 868.62552,1002.7719 868.62552,1000.8657 L868.62552,990.13128 L866.3286,990.13128 L866.3286,987.69378 L868.62552,987.69378 L868.62552,983.0532 L871.7661,981.1782 L871.7661,987.69378 L874.9536,987.69378 L874.9536,990.13128 L871.7661,990.13128 L871.7661,1001.0532 C871.7661,1001.9594 871.813,1002.5375 871.9068,1002.7875 C872.0318,1003.0375 872.2193,1003.24064 872.4693,1003.39692 C872.7193,1003.55316 873.07866,1003.63128 873.54738,1003.63128 C873.92238,1003.63128 874.39112,1003.60002 874.9536,1003.5375 Z" id="Shape" fill="#000000" fill-rule="nonzero"></path>
            <path d="M584.51613,1048.35 L584.51613,1029.69378 L587.37552,1029.69378 L587.37552,1032.50628 C588.09426,1031.19376 588.75051,1030.3344 589.34427,1029.9282 C589.96927,1029.49068 590.65677,1029.27192 591.40677,1029.27192 C592.46927,1029.27192 593.54739,1029.60004 594.64113,1030.25628 L593.56302,1033.20942 C592.78176,1032.74066 592.01613,1032.50628 591.26613,1032.50628 C590.54739,1032.50628 589.90677,1032.72502 589.34427,1033.1625 C588.81301,1033.56878 588.43801,1034.14692 588.21927,1034.89692 C587.84427,1036.02192 587.65677,1037.24068 587.65677,1038.5532 L587.65677,1048.35 L584.51613,1048.35 Z M609.31302,1042.35 L612.59427,1042.725 C612.09427,1044.63128 611.14114,1046.11568 609.73488,1047.1782 C608.32864,1048.24068 606.54739,1048.77192 604.39113,1048.77192 C601.67239,1048.77192 599.50052,1047.92818 597.87552,1046.2407 C596.28176,1044.55318 595.48488,1042.19378 595.48488,1039.1625 C595.48488,1036.0375 596.29738,1033.61564 597.92238,1031.89692 C599.54738,1030.14692 601.64113,1029.27192 604.20363,1029.27192 C606.70363,1029.27192 608.73488,1030.11568 610.29738,1031.8032 C611.89114,1033.49068 612.68802,1035.88128 612.68802,1038.975 C612.68802,1039.16252 612.68802,1039.44378 612.68802,1039.81878 L598.76613,1039.81878 C598.89113,1041.88126 599.46926,1043.4594 600.50052,1044.5532 C601.53176,1045.61568 602.82863,1046.14692 604.39113,1046.14692 C605.54739,1046.14692 606.53177,1045.85004 607.34427,1045.25628 C608.18801,1044.63128 608.84426,1043.66252 609.31302,1042.35 Z M598.95363,1037.2407 L609.35988,1037.2407 C609.23488,1035.6469 608.84426,1034.4594 608.18802,1033.6782 C607.15676,1032.4594 605.84426,1031.85 604.25052,1031.85 C602.78176,1031.85 601.54738,1032.3344 600.54738,1033.3032 C599.57864,1034.27192 599.04739,1035.58442 598.95363,1037.2407 Z M616.95363,1049.89692 L620.04738,1050.3657 C620.17238,1051.30318 620.53176,1051.99068 621.12552,1052.4282 C621.90676,1053.02192 622.96926,1053.31878 624.31302,1053.31878 C625.78176,1053.31878 626.90676,1053.02192 627.68802,1052.4282 C628.50052,1051.8344 629.04739,1051.0219 629.32863,1049.9907 C629.51613,1049.33442 629.59426,1047.97502 629.56302,1045.9125 C628.18802,1047.5375 626.46927,1048.35 624.40677,1048.35 C621.84427,1048.35 619.85989,1047.42814 618.45363,1045.58442 C617.04739,1043.70942 616.34427,1041.49068 616.34427,1038.9282 C616.34427,1037.14692 616.65677,1035.50628 617.28177,1034.00628 C617.93801,1032.47504 618.87551,1031.30318 620.09427,1030.4907 C621.31301,1029.67818 622.75051,1029.27192 624.40677,1029.27192 C626.62551,1029.27192 628.45363,1030.16254 629.89113,1031.94378 L629.89113,1029.69378 L632.79738,1029.69378 L632.79738,1045.81878 C632.79738,1048.72506 632.50051,1050.78756 631.90677,1052.00628 C631.31301,1053.22504 630.37551,1054.17818 629.09427,1054.8657 C627.81301,1055.58442 626.23488,1055.94378 624.35988,1055.94378 C622.14114,1055.94378 620.34427,1055.44378 618.96927,1054.44378 C617.59427,1053.44378 616.92239,1051.92816 616.95363,1049.89692 Z M619.57863,1038.69378 C619.57863,1041.13126 620.06301,1042.9125 621.03177,1044.0375 C622.00051,1045.1625 623.21926,1045.725 624.68802,1045.725 C626.15676,1045.725 627.37551,1045.1625 628.34427,1044.0375 C629.34427,1042.9125 629.84427,1041.1625 629.84427,1038.7875 C629.84427,1036.5063 629.32864,1034.78756 628.29738,1033.63128 C627.29738,1032.47504 626.07863,1031.89692 624.64113,1031.89692 C623.23489,1031.89692 622.03177,1032.47504 621.03177,1033.63128 C620.06301,1034.75628 619.57863,1036.44378 619.57863,1038.69378 Z M650.79738,1048.35 L650.79738,1045.58442 C649.32864,1047.70942 647.34427,1048.77192 644.84427,1048.77192 C643.75051,1048.77192 642.71926,1048.56878 641.75052,1048.1625 C640.81302,1047.72502 640.10989,1047.19378 639.64113,1046.56878 C639.17239,1045.91254 638.84427,1045.11568 638.65677,1044.1782 C638.53177,1043.5844 638.46927,1042.6 638.46927,1041.225 L638.46927,1029.69378 L641.65677,1029.69378 L641.65677,1040.0532 C641.65677,1041.6782 641.71927,1042.78756 641.84427,1043.38128 C642.03177,1044.19376 642.43802,1044.85 643.06302,1045.35 C643.71926,1045.8188 644.53176,1046.0532 645.50052,1046.0532 C646.43802,1046.0532 647.31302,1045.8188 648.12552,1045.35 C648.96926,1044.85 649.56301,1044.17814 649.90677,1043.33442 C650.28177,1042.49066 650.46927,1041.27192 650.46927,1039.6782 L650.46927,1029.69378 L653.60988,1029.69378 L653.60988,1048.35 L650.79738,1048.35 Z M659.46927,1048.35 L659.46927,1022.56878 L662.65677,1022.56878 L662.65677,1048.35 L659.46927,1048.35 Z M680.75052,1046.0532 C679.56302,1047.0532 678.42239,1047.7563 677.32863,1048.1625 C676.26613,1048.56878 675.10988,1048.77192 673.85988,1048.77192 C671.79738,1048.77192 670.21926,1048.27192 669.12552,1047.27192 C668.03176,1046.27192 667.48488,1044.99068 667.48488,1043.4282 C667.48488,1042.52192 667.68801,1041.69378 668.09427,1040.94378 C668.50051,1040.16254 669.04738,1039.55318 669.73488,1039.1157 C670.42238,1038.6469 671.18801,1038.30314 672.03177,1038.08442 C672.62551,1037.89694 673.56301,1037.72506 674.84427,1037.56878 C677.37551,1037.28754 679.25051,1036.92818 680.46927,1036.4907 C680.46927,1036.05318 680.46927,1035.78754 680.46927,1035.69378 C680.46927,1034.38126 680.17239,1033.4594 679.57863,1032.9282 C678.76613,1032.24068 677.56301,1031.89692 675.96927,1031.89692 C674.50051,1031.89692 673.40676,1032.16254 672.68802,1032.69378 C671.96926,1033.19378 671.43801,1034.10002 671.09427,1035.4125 L668.00052,1034.9907 C668.28176,1033.67818 668.75051,1032.61568 669.40677,1031.8032 C670.06301,1030.99068 671.00051,1030.36568 672.21927,1029.9282 C673.43801,1029.49068 674.84426,1029.27192 676.43802,1029.27192 C678.03176,1029.27192 679.32863,1029.45942 680.32863,1029.83442 C681.32863,1030.20942 682.06301,1030.67818 682.53177,1031.2407 C683.00051,1031.80318 683.32863,1032.52192 683.51613,1033.39692 C683.60989,1033.92816 683.65677,1034.89692 683.65677,1036.3032 L683.65677,1040.52192 C683.65677,1043.45944 683.71927,1045.3188 683.84427,1046.1 C684.00051,1046.88128 684.28176,1047.63128 684.68802,1048.35 L681.35988,1048.35 C681.04738,1047.6938 680.84426,1046.9282 680.75052,1046.0532 Z M680.46927,1038.975 C679.31301,1039.4438 677.59426,1039.85006 675.31302,1040.19378 C674.00052,1040.38126 673.07864,1040.6 672.54738,1040.85 C672.01614,1041.0688 671.59427,1041.39694 671.28177,1041.83442 C671.00051,1042.27194 670.85988,1042.77194 670.85988,1043.33442 C670.85988,1044.17814 671.17238,1044.88126 671.79738,1045.44378 C672.45364,1046.00626 673.39114,1046.2875 674.60988,1046.2875 C675.82864,1046.2875 676.90677,1046.0219 677.84427,1045.4907 C678.81301,1044.95942 679.51613,1044.22502 679.95363,1043.2875 C680.29739,1042.56878 680.46927,1041.52192 680.46927,1040.14692 L680.46927,1038.975 Z M689.51613,1048.35 L689.51613,1029.69378 L692.37552,1029.69378 L692.37552,1032.50628 C693.09426,1031.19376 693.75051,1030.3344 694.34427,1029.9282 C694.96927,1029.49068 695.65677,1029.27192 696.40677,1029.27192 C697.46927,1029.27192 698.54739,1029.60004 699.64113,1030.25628 L698.56302,1033.20942 C697.78176,1032.74066 697.01613,1032.50628 696.26613,1032.50628 C695.54739,1032.50628 694.90677,1032.72502 694.34427,1033.1625 C693.81301,1033.56878 693.43801,1034.14692 693.21927,1034.89692 C692.84427,1036.02192 692.65677,1037.24068 692.65677,1038.5532 L692.65677,1048.35 L689.51613,1048.35 Z M701.46927,1048.35 L701.46927,1022.56878 L704.65677,1022.56878 L704.65677,1048.35 L701.46927,1048.35 Z M710.42238,1055.52192 L710.04738,1052.56878 C710.73488,1052.75626 711.34426,1052.85 711.87552,1052.85 C712.56302,1052.85 713.10989,1052.725 713.51613,1052.475 C713.95363,1052.25628 714.31301,1051.94378 714.59427,1051.5375 C714.78177,1051.19378 715.10989,1050.39692 715.57863,1049.14692 C715.60989,1048.99064 715.70364,1048.74064 715.85988,1048.39692 L708.73488,1029.69378 L712.15677,1029.69378 L716.04738,1040.475 C716.54738,1041.85 717.00051,1043.30314 717.40677,1044.83442 C717.78177,1043.36566 718.21927,1041.94378 718.71927,1040.56878 L722.70363,1029.69378 L725.84427,1029.69378 L718.76613,1048.6782 C717.98489,1050.7094 717.39114,1052.11564 716.98488,1052.89692 C716.42238,1053.95944 715.76613,1054.72506 715.01613,1055.19378 C714.29739,1055.69378 713.43802,1055.94378 712.43802,1055.94378 C711.84426,1055.94378 711.17238,1055.80316 710.42238,1055.52192 Z M734.56302,1048.35 L734.56302,1029.69378 L737.37552,1029.69378 L737.37552,1032.31878 C737.96926,1031.38126 738.75051,1030.6469 739.71927,1030.1157 C740.68801,1029.55318 741.79738,1029.27192 743.04738,1029.27192 C744.42238,1029.27192 745.54738,1029.55318 746.42238,1030.1157 C747.32864,1030.67818 747.95364,1031.47504 748.29738,1032.50628 C749.79738,1030.35004 751.71926,1029.27192 754.06302,1029.27192 C755.93802,1029.27192 757.35989,1029.78754 758.32863,1030.81878 C759.32863,1031.81878 759.82863,1033.39692 759.82863,1035.5532 L759.82863,1048.35 L756.68802,1048.35 L756.68802,1036.58442 C756.68802,1035.33442 756.57864,1034.42818 756.35988,1033.8657 C756.17238,1033.30318 755.81301,1032.85004 755.28177,1032.50628 C754.75051,1032.16256 754.10988,1031.9907 753.35988,1031.9907 C752.04738,1031.9907 750.95363,1032.4282 750.07863,1033.3032 C749.23489,1034.1782 748.81302,1035.58444 748.81302,1037.52192 L748.81302,1048.35 L745.62552,1048.35 L745.62552,1036.20942 C745.62552,1034.80314 745.35989,1033.75626 744.82863,1033.06878 C744.32863,1032.35006 743.50051,1031.9907 742.34427,1031.9907 C741.43801,1031.9907 740.60988,1032.22506 739.85988,1032.69378 C739.10988,1033.16254 738.56301,1033.85004 738.21927,1034.75628 C737.87551,1035.66256 737.70363,1036.95944 737.70363,1038.64692 L737.70363,1048.35 L734.56302,1048.35 Z M779.75052,1046.0532 C778.56304,1047.0532 777.4224,1047.7563 776.3286,1048.1625 C775.26612,1048.56878 774.10988,1048.77192 772.85988,1048.77192 C770.79736,1048.77192 769.21924,1048.27192 768.12552,1047.27192 C767.03176,1046.27192 766.48488,1044.99068 766.48488,1043.4282 C766.48488,1042.52192 766.68801,1041.69378 767.09427,1040.94378 C767.50051,1040.16254 768.04738,1039.55318 768.73488,1039.1157 C769.42236,1038.6469 770.188,1038.30314 771.0318,1038.08442 C771.62552,1037.89694 772.56302,1037.72506 773.8443,1037.56878 C776.3755,1037.28754 778.2505,1036.92818 779.4693,1036.4907 C779.4693,1036.05318 779.4693,1035.78754 779.4693,1035.69378 C779.4693,1034.38126 779.1724,1033.4594 778.5786,1032.9282 C777.76612,1032.24068 776.56302,1031.89692 774.9693,1031.89692 C773.5005,1031.89692 772.40674,1032.16254 771.68802,1032.69378 C770.96926,1033.19378 770.43802,1034.10002 770.0943,1035.4125 L767.00052,1034.9907 C767.28176,1033.67818 767.75052,1032.61568 768.4068,1031.8032 C769.063,1030.99068 770.0005,1030.36568 771.2193,1029.9282 C772.43802,1029.49068 773.84426,1029.27192 775.43802,1029.27192 C777.03174,1029.27192 778.3286,1029.45942 779.3286,1029.83442 C780.3286,1030.20942 781.063,1030.67818 781.5318,1031.2407 C782.00052,1031.80318 782.32862,1032.52192 782.5161,1033.39692 C782.6099,1033.92816 782.6568,1034.89692 782.6568,1036.3032 L782.6568,1040.52192 C782.6568,1043.45944 782.7193,1045.3188 782.8443,1046.1 C783.0005,1046.88128 783.28174,1047.63128 783.68802,1048.35 L780.35988,1048.35 C780.04736,1047.6938 779.84424,1046.9282 779.75052,1046.0532 Z M779.4693,1038.975 C778.31302,1039.4438 776.59426,1039.85006 774.31302,1040.19378 C773.00054,1040.38126 772.07866,1040.6 771.54738,1040.85 C771.01614,1041.0688 770.59428,1041.39694 770.2818,1041.83442 C770.00052,1042.27194 769.85988,1042.77194 769.85988,1043.33442 C769.85988,1044.17814 770.17238,1044.88126 770.79738,1045.44378 C771.45366,1046.00626 772.39116,1046.2875 773.60988,1046.2875 C774.82864,1046.2875 775.90678,1046.0219 776.8443,1045.4907 C777.81302,1044.95942 778.51612,1044.22502 778.9536,1043.2875 C779.2974,1042.56878 779.4693,1041.52192 779.4693,1040.14692 L779.4693,1038.975 Z M788.56302,1026.225 L788.56302,1022.56878 L791.75052,1022.56878 L791.75052,1026.225 L788.56302,1026.225 Z M788.56302,1048.35 L788.56302,1029.69378 L791.75052,1029.69378 L791.75052,1048.35 L788.56302,1048.35 Z M797.56302,1048.35 L797.56302,1029.69378 L800.37552,1029.69378 L800.37552,1032.31878 C801.75052,1030.28754 803.73488,1029.27192 806.3286,1029.27192 C807.4536,1029.27192 808.48486,1029.47504 809.42238,1029.88128 C810.39114,1030.28756 811.10988,1030.8188 811.5786,1031.475 C812.0474,1032.13128 812.37554,1032.89692 812.56302,1033.77192 C812.65674,1034.36564 812.7036,1035.3969 812.7036,1036.8657 L812.7036,1048.35 L809.56302,1048.35 L809.56302,1037.00628 C809.56302,1035.69376 809.43802,1034.725 809.18802,1034.1 C808.93802,1033.475 808.50052,1032.975 807.87552,1032.6 C807.25052,1032.1938 806.51614,1031.9907 805.67238,1031.9907 C804.32866,1031.9907 803.1568,1032.4282 802.1568,1033.3032 C801.188,1034.14692 800.7036,1035.75628 800.7036,1038.13128 L800.7036,1048.35 L797.56302,1048.35 Z M825.4536,1045.5375 L825.92238,1048.3032 C825.01614,1048.49068 824.21928,1048.58442 823.5318,1048.58442 C822.37552,1048.58442 821.48488,1048.41254 820.85988,1048.06878 C820.23488,1047.69378 819.78176,1047.20942 819.50052,1046.6157 C819.25052,1046.0219 819.12552,1044.7719 819.12552,1042.8657 L819.12552,1032.13128 L816.8286,1032.13128 L816.8286,1029.69378 L819.12552,1029.69378 L819.12552,1025.0532 L822.2661,1023.1782 L822.2661,1029.69378 L825.4536,1029.69378 L825.4536,1032.13128 L822.2661,1032.13128 L822.2661,1043.0532 C822.2661,1043.9594 822.313,1044.5375 822.4068,1044.7875 C822.5318,1045.0375 822.7193,1045.24064 822.9693,1045.39692 C823.2193,1045.55316 823.57866,1045.63128 824.04738,1045.63128 C824.42238,1045.63128 824.89112,1045.60002 825.4536,1045.5375 Z M839.75052,1046.0532 C838.56304,1047.0532 837.4224,1047.7563 836.3286,1048.1625 C835.26612,1048.56878 834.10988,1048.77192 832.85988,1048.77192 C830.79736,1048.77192 829.21924,1048.27192 828.12552,1047.27192 C827.03176,1046.27192 826.48488,1044.99068 826.48488,1043.4282 C826.48488,1042.52192 826.68802,1041.69378 827.0943,1040.94378 C827.5005,1040.16254 828.04736,1039.55318 828.73488,1039.1157 C829.42236,1038.6469 830.188,1038.30314 831.0318,1038.08442 C831.62552,1037.89694 832.56302,1037.72506 833.8443,1037.56878 C836.3755,1037.28754 838.2505,1036.92818 839.4693,1036.4907 C839.4693,1036.05318 839.4693,1035.78754 839.4693,1035.69378 C839.4693,1034.38126 839.1724,1033.4594 838.5786,1032.9282 C837.76612,1032.24068 836.56302,1031.89692 834.9693,1031.89692 C833.5005,1031.89692 832.40674,1032.16254 831.68802,1032.69378 C830.96926,1033.19378 830.43802,1034.10002 830.0943,1035.4125 L827.00052,1034.9907 C827.28176,1033.67818 827.75052,1032.61568 828.4068,1031.8032 C829.063,1030.99068 830.0005,1030.36568 831.2193,1029.9282 C832.43802,1029.49068 833.84426,1029.27192 835.43802,1029.27192 C837.03174,1029.27192 838.3286,1029.45942 839.3286,1029.83442 C840.3286,1030.20942 841.063,1030.67818 841.5318,1031.2407 C842.00052,1031.80318 842.32862,1032.52192 842.5161,1033.39692 C842.6099,1033.92816 842.6568,1034.89692 842.6568,1036.3032 L842.6568,1040.52192 C842.6568,1043.45944 842.7193,1045.3188 842.8443,1046.1 C843.0005,1046.88128 843.28174,1047.63128 843.68802,1048.35 L840.35988,1048.35 C840.04736,1047.6938 839.84424,1046.9282 839.75052,1046.0532 Z M839.4693,1038.975 C838.31302,1039.4438 836.59426,1039.85006 834.31302,1040.19378 C833.00054,1040.38126 832.07866,1040.6 831.54738,1040.85 C831.01614,1041.0688 830.59428,1041.39694 830.2818,1041.83442 C830.00052,1042.27194 829.85988,1042.77194 829.85988,1043.33442 C829.85988,1044.17814 830.17238,1044.88126 830.79738,1045.44378 C831.45366,1046.00626 832.39116,1046.2875 833.60988,1046.2875 C834.82864,1046.2875 835.90678,1046.0219 836.8443,1045.4907 C837.81302,1044.95942 838.51612,1044.22502 838.9536,1043.2875 C839.2974,1042.56878 839.4693,1041.52192 839.4693,1040.14692 L839.4693,1038.975 Z M848.56302,1026.225 L848.56302,1022.56878 L851.75052,1022.56878 L851.75052,1026.225 L848.56302,1026.225 Z M848.56302,1048.35 L848.56302,1029.69378 L851.75052,1029.69378 L851.75052,1048.35 L848.56302,1048.35 Z M857.56302,1048.35 L857.56302,1029.69378 L860.37552,1029.69378 L860.37552,1032.31878 C861.75052,1030.28754 863.73488,1029.27192 866.3286,1029.27192 C867.4536,1029.27192 868.48486,1029.47504 869.42238,1029.88128 C870.39114,1030.28756 871.10988,1030.8188 871.5786,1031.475 C872.0474,1032.13128 872.37554,1032.89692 872.56302,1033.77192 C872.65674,1034.36564 872.7036,1035.3969 872.7036,1036.8657 L872.7036,1048.35 L869.56302,1048.35 L869.56302,1037.00628 C869.56302,1035.69376 869.43802,1034.725 869.18802,1034.1 C868.93802,1033.475 868.50052,1032.975 867.87552,1032.6 C867.25052,1032.1938 866.51614,1031.9907 865.67238,1031.9907 C864.32866,1031.9907 863.1568,1032.4282 862.1568,1033.3032 C861.188,1034.14692 860.7036,1035.75628 860.7036,1038.13128 L860.7036,1048.35 L857.56302,1048.35 Z M891.31302,1042.35 L894.5943,1042.725 C894.0943,1044.63128 893.14116,1046.11568 891.73488,1047.1782 C890.32864,1048.24068 888.54738,1048.77192 886.3911,1048.77192 C883.67238,1048.77192 881.50052,1047.92818 879.87552,1046.2407 C878.28176,1044.55318 877.48488,1042.19378 877.48488,1039.1625 C877.48488,1036.0375 878.29738,1033.61564 879.92238,1031.89692 C881.54738,1030.14692 883.64112,1029.27192 886.2036,1029.27192 C888.7036,1029.27192 890.73486,1030.11568 892.29738,1031.8032 C893.89114,1033.49068 894.68802,1035.88128 894.68802,1038.975 C894.68802,1039.16252 894.68802,1039.44378 894.68802,1039.81878 L880.7661,1039.81878 C880.8911,1041.88126 881.46924,1043.4594 882.50052,1044.5532 C883.53176,1045.61568 884.82862,1046.14692 886.3911,1046.14692 C887.54738,1046.14692 888.53178,1045.85004 889.3443,1045.25628 C890.18802,1044.63128 890.84426,1043.66252 891.31302,1042.35 Z M880.9536,1037.2407 L891.35988,1037.2407 C891.23488,1035.6469 890.84426,1034.4594 890.18802,1033.6782 C889.15674,1032.4594 887.84424,1031.85 886.25052,1031.85 C884.78176,1031.85 883.54738,1032.3344 882.54738,1033.3032 C881.57866,1034.27192 881.0474,1035.58442 880.9536,1037.2407 Z M911.6568,1048.35 L911.6568,1046.00628 C910.46928,1047.85004 908.73488,1048.77192 906.4536,1048.77192 C904.9536,1048.77192 903.5786,1048.36568 902.3286,1047.5532 C901.0786,1046.7094 900.10986,1045.55314 899.42238,1044.08442 C898.73486,1042.61566 898.3911,1040.92816 898.3911,1039.02192 C898.3911,1037.17816 898.7036,1035.49066 899.3286,1033.95942 C899.9536,1032.42814 900.8911,1031.2719 902.1411,1030.4907 C903.3911,1029.67818 904.78174,1029.27192 906.31302,1029.27192 C907.43802,1029.27192 908.43802,1029.50628 909.31302,1029.975 C910.18802,1030.4438 910.90678,1031.0532 911.4693,1031.8032 L911.4693,1022.56878 L914.60988,1022.56878 L914.60988,1048.35 L911.6568,1048.35 Z M901.67238,1039.02192 C901.67238,1041.42816 902.17238,1043.22502 903.17238,1044.4125 C904.17238,1045.56878 905.35988,1046.14692 906.73488,1046.14692 C908.10988,1046.14692 909.28176,1045.58442 910.25052,1044.45942 C911.21924,1043.33442 911.7036,1041.61568 911.7036,1039.3032 C911.7036,1036.74068 911.2036,1034.86568 910.2036,1033.6782 C909.23488,1032.49068 908.03178,1031.89692 906.5943,1031.89692 C905.18802,1031.89692 904.01612,1032.47504 903.0786,1033.63128 C902.14112,1034.75628 901.67238,1036.55316 901.67238,1039.02192 Z" id="Shape" fill="#000000" fill-rule="nonzero"></path>
            <path d="M1100.5932,1006.35 L1100.5932,980.56878 L1104.06198,980.56878 L1117.6089,1000.81878 L1117.6089,980.56878 L1120.89012,980.56878 L1120.89012,1006.35 L1117.37448,1006.35 L1103.82762,986.1 L1103.82762,1006.35 L1100.5932,1006.35 Z M1126.0464,997.02192 C1126.0464,993.55316 1126.9995,990.99066 1128.9057,989.33442 C1130.4995,987.95942 1132.45264,987.27192 1134.76512,987.27192 C1137.32764,987.27192 1139.4214,988.11568 1141.0464,989.8032 C1142.7026,991.4594 1143.5307,993.7719 1143.5307,996.7407 C1143.5307,999.1469 1143.17134,1001.0375 1142.45262,1002.4125 C1141.73386,1003.7875 1140.67136,1004.86564 1139.26512,1005.64692 C1137.89012,1006.39692 1136.39012,1006.77192 1134.76512,1006.77192 C1132.17136,1006.77192 1130.06198,1005.94378 1128.43698,1004.2875 C1126.84326,1002.60002 1126.0464,1000.17816 1126.0464,997.02192 Z M1129.2807,997.02192 C1129.2807,999.39692 1129.79634,1001.17818 1130.82762,1002.3657 C1131.89014,1003.55318 1133.20264,1004.14692 1134.76512,1004.14692 C1136.35884,1004.14692 1137.67134,1003.55318 1138.70262,1002.3657 C1139.73386,1001.17818 1140.24948,999.36568 1140.24948,996.9282 C1140.24948,994.61568 1139.71822,992.86568 1138.6557,991.6782 C1137.6245,990.49068 1136.32764,989.89692 1134.76512,989.89692 C1133.20264,989.89692 1131.89014,990.49068 1130.82762,991.6782 C1129.79634,992.8344 1129.2807,994.61564 1129.2807,997.02192 Z" id="Shape" fill="#000000" fill-rule="nonzero"></path>
            <path d="M1388.85774,1006.35 L1388.85774,980.56878 L1392.23274,980.56878 L1392.23274,1006.35 L1388.85774,1006.35 Z M1418.06085,1004.0532 C1416.87335,1005.0532 1415.73273,1005.7563 1414.63899,1006.1625 C1413.57649,1006.56878 1412.42024,1006.77192 1411.17024,1006.77192 C1409.10774,1006.77192 1407.52961,1006.27192 1406.43585,1005.27192 C1405.34211,1004.27192 1404.79524,1002.99068 1404.79524,1001.4282 C1404.79524,1000.52192 1404.99836,999.69378 1405.4046,998.94378 C1405.81086,998.16254 1406.35774,997.55318 1407.04524,997.1157 C1407.73274,996.6469 1408.49836,996.30314 1409.3421,996.08442 C1409.93586,995.89694 1410.87336,995.72506 1412.1546,995.56878 C1414.68586,995.28754 1416.56086,994.92818 1417.7796,994.4907 C1417.7796,994.05318 1417.7796,993.78754 1417.7796,993.69378 C1417.7796,992.38126 1417.48273,991.4594 1416.88899,990.9282 C1416.07649,990.24068 1414.87336,989.89692 1413.2796,989.89692 C1411.81086,989.89692 1410.71711,990.16254 1409.99835,990.69378 C1409.27961,991.19378 1408.74836,992.10002 1408.4046,993.4125 L1405.31085,992.9907 C1405.59211,991.67818 1406.06086,990.61568 1406.7171,989.8032 C1407.37336,988.99068 1408.31086,988.36568 1409.5296,987.9282 C1410.74836,987.49068 1412.15461,987.27192 1413.74835,987.27192 C1415.34211,987.27192 1416.63899,987.45942 1417.63899,987.83442 C1418.63899,988.20942 1419.37336,988.67818 1419.8421,989.2407 C1420.31086,989.80318 1420.63899,990.52192 1420.82649,991.39692 C1420.92023,991.92816 1420.9671,992.89692 1420.9671,994.3032 L1420.9671,998.52192 C1420.9671,1001.45944 1421.0296,1003.3188 1421.1546,1004.1 C1421.31086,1004.88128 1421.59211,1005.63128 1421.99835,1006.35 L1418.67024,1006.35 C1418.35774,1005.6938 1418.15461,1004.9282 1418.06085,1004.0532 Z M1417.7796,996.975 C1416.62336,997.4438 1414.90461,997.85006 1412.62335,998.19378 C1411.31085,998.38126 1410.38898,998.6 1409.85774,998.85 C1409.32648,999.0688 1408.9046,999.39694 1408.5921,999.83442 C1408.31086,1000.27194 1408.17024,1000.77194 1408.17024,1001.33442 C1408.17024,1002.17814 1408.48274,1002.88126 1409.10774,1003.44378 C1409.76398,1004.00626 1410.70148,1004.2875 1411.92024,1004.2875 C1413.13898,1004.2875 1414.2171,1004.0219 1415.1546,1003.4907 C1416.12336,1002.95942 1416.82649,1002.22502 1417.26399,1001.2875 C1417.60773,1000.56878 1417.7796,999.52192 1417.7796,998.14692 L1417.7796,996.975 Z M1426.87335,1006.35 L1426.87335,987.69378 L1429.68585,987.69378 L1429.68585,990.31878 C1430.27961,989.38126 1431.06086,988.6469 1432.0296,988.1157 C1432.99836,987.55318 1434.10774,987.27192 1435.35774,987.27192 C1436.73274,987.27192 1437.85774,987.55318 1438.73274,988.1157 C1439.63898,988.67818 1440.26398,989.47504 1440.60774,990.50628 C1442.10774,988.35004 1444.02961,987.27192 1446.37335,987.27192 C1448.24835,987.27192 1449.67023,987.78754 1450.63899,988.81878 C1451.63899,989.81878 1452.13899,991.39692 1452.13899,993.5532 L1452.13899,1006.35 L1448.99835,1006.35 L1448.99835,994.58442 C1448.99835,993.33442 1448.88898,992.42818 1448.67024,991.8657 C1448.48274,991.30318 1448.12336,990.85004 1447.5921,990.50628 C1447.06086,990.16256 1446.42024,989.9907 1445.67024,989.9907 C1444.35774,989.9907 1443.26399,990.4282 1442.38899,991.3032 C1441.54523,992.1782 1441.12335,993.58444 1441.12335,995.52192 L1441.12335,1006.35 L1437.93585,1006.35 L1437.93585,994.20942 C1437.93585,992.80314 1437.67023,991.75626 1437.13899,991.06878 C1436.63899,990.35006 1435.81086,989.9907 1434.6546,989.9907 C1433.74836,989.9907 1432.92024,990.22506 1432.17024,990.69378 C1431.42024,991.16254 1430.87335,991.85004 1430.5296,992.75628 C1430.18586,993.66256 1430.01399,994.95944 1430.01399,996.64692 L1430.01399,1006.35 L1426.87335,1006.35 Z M1468.87335,1006.35 L1468.87335,987.69378 L1471.68585,987.69378 L1471.68585,990.31878 C1473.06085,988.28754 1475.04523,987.27192 1477.63899,987.27192 C1478.76399,987.27192 1479.79524,987.47504 1480.73274,987.88128 C1481.70148,988.28756 1482.42023,988.8188 1482.88899,989.475 C1483.35773,990.13128 1483.68585,990.89692 1483.87335,991.77192 C1483.96711,992.36564 1484.01399,993.3969 1484.01399,994.8657 L1484.01399,1006.35 L1480.87335,1006.35 L1480.87335,995.00628 C1480.87335,993.69376 1480.74835,992.725 1480.49835,992.1 C1480.24835,991.475 1479.81085,990.975 1479.18585,990.6 C1478.56085,990.1938 1477.82648,989.9907 1476.98274,989.9907 C1475.63898,989.9907 1474.4671,990.4282 1473.4671,991.3032 C1472.49836,992.14692 1472.01399,993.75628 1472.01399,996.13128 L1472.01399,1006.35 L1468.87335,1006.35 Z M1488.70149,997.02192 C1488.70149,993.55316 1489.65461,990.99066 1491.56085,989.33442 C1493.15461,987.95942 1495.10774,987.27192 1497.42024,987.27192 C1499.98274,987.27192 1502.07649,988.11568 1503.70149,989.8032 C1505.35773,991.4594 1506.18585,993.7719 1506.18585,996.7407 C1506.18585,999.1469 1505.82648,1001.0375 1505.10774,1002.4125 C1504.38898,1003.7875 1503.32648,1004.86564 1501.92024,1005.64692 C1500.54524,1006.39692 1499.04524,1006.77192 1497.42024,1006.77192 C1494.82648,1006.77192 1492.7171,1005.94378 1491.0921,1004.2875 C1489.49836,1002.60002 1488.70149,1000.17816 1488.70149,997.02192 Z M1491.93585,997.02192 C1491.93585,999.39692 1492.45148,1001.17818 1493.48274,1002.3657 C1494.54524,1003.55318 1495.85774,1004.14692 1497.42024,1004.14692 C1499.01398,1004.14692 1500.32648,1003.55318 1501.35774,1002.3657 C1502.38898,1001.17818 1502.9046,999.36568 1502.9046,996.9282 C1502.9046,994.61568 1502.37335,992.86568 1501.31085,991.6782 C1500.27961,990.49068 1498.98274,989.89692 1497.42024,989.89692 C1495.85774,989.89692 1494.54524,990.49068 1493.48274,991.6782 C1492.45148,992.8344 1491.93585,994.61564 1491.93585,997.02192 Z M1517.76399,1003.5375 L1518.23274,1006.3032 C1517.32648,1006.49068 1516.5296,1006.58442 1515.8421,1006.58442 C1514.68586,1006.58442 1513.79524,1006.41254 1513.17024,1006.06878 C1512.54524,1005.69378 1512.09211,1005.20942 1511.81085,1004.6157 C1511.56085,1004.0219 1511.43585,1002.7719 1511.43585,1000.8657 L1511.43585,990.13128 L1509.13899,990.13128 L1509.13899,987.69378 L1511.43585,987.69378 L1511.43585,983.0532 L1514.57649,981.1782 L1514.57649,987.69378 L1517.76399,987.69378 L1517.76399,990.13128 L1514.57649,990.13128 L1514.57649,1001.0532 C1514.57649,1001.9594 1514.62336,1002.5375 1514.7171,1002.7875 C1514.8421,1003.0375 1515.0296,1003.24064 1515.2796,1003.39692 C1515.5296,1003.55316 1515.88898,1003.63128 1516.35774,1003.63128 C1516.73274,1003.63128 1517.20149,1003.60002 1517.76399,1003.5375 Z M1527.60774,1000.77192 L1530.70149,1000.3032 C1530.88899,1001.5532 1531.37336,1002.5063 1532.1546,1003.1625 C1532.9671,1003.81878 1534.10774,1004.14692 1535.57649,1004.14692 C1537.01403,1004.14692 1538.0765,1003.86568 1538.7639,1003.3032 C1539.4827,1002.7094 1539.8421,1002.00626 1539.8421,1001.19378 C1539.8421,1000.47506 1539.5296,999.91256 1538.9046,999.50628 C1538.4671,999.22504 1537.38898,998.86568 1535.67024,998.4282 C1533.35774,997.8344 1531.74836,997.3344 1530.8421,996.9282 C1529.9671,996.49068 1529.29523,995.89692 1528.82649,995.14692 C1528.35773,994.39692 1528.12335,993.55318 1528.12335,992.6157 C1528.12335,991.80318 1528.31085,991.03754 1528.68585,990.31878 C1529.06085,989.60006 1529.57648,989.0063 1530.23274,988.5375 C1530.73274,988.19378 1531.40461,987.89692 1532.24835,987.64692 C1533.09211,987.39692 1534.01399,987.27192 1535.01399,987.27192 C1536.45153,987.27192 1537.71715,987.49068 1538.81085,987.9282 C1539.93585,988.3344 1540.764,988.8969 1541.2953,989.6157 C1541.8265,990.33442 1542.18585,991.28752 1542.37335,992.475 L1539.2796,992.89692 C1539.1546,991.95944 1538.74835,991.22506 1538.06085,990.69378 C1537.40455,990.13126 1536.45143,989.85 1535.20149,989.85 C1533.76399,989.85 1532.73274,990.1 1532.10774,990.6 C1531.48274,991.0688 1531.17024,991.6313 1531.17024,992.2875 C1531.17024,992.69378 1531.29524,993.05318 1531.54524,993.3657 C1531.82648,993.70942 1532.23273,993.99066 1532.76399,994.20942 C1533.07649,994.33442 1534.01399,994.60004 1535.57649,995.00628 C1537.82643,995.63128 1539.3889,996.13128 1540.2639,996.50628 C1541.1389,996.88128 1541.8264,997.42816 1542.3264,998.14692 C1542.8264,998.86564 1543.0764,999.7719 1543.0764,1000.8657 C1543.0764,1001.92818 1542.7639,1002.92818 1542.1389,1003.8657 C1541.5452,1004.7719 1540.6702,1005.49064 1539.5139,1006.02192 C1538.3577,1006.52192 1537.04523,1006.77192 1535.57649,1006.77192 C1533.13899,1006.77192 1531.27961,1006.27192 1529.99835,1005.27192 C1528.74835,1004.24064 1527.95148,1002.74064 1527.60774,1000.77192 Z M1562.1078,1006.35 L1562.1078,1003.58442 C1560.639,1005.70942 1558.6546,1006.77192 1556.1546,1006.77192 C1555.0608,1006.77192 1554.02955,1006.56878 1553.06085,1006.1625 C1552.12335,1005.72502 1551.4202,1005.19378 1550.9514,1004.56878 C1550.4827,1003.91254 1550.1546,1003.11568 1549.9671,1002.1782 C1549.8421,1001.5844 1549.7796,1000.6 1549.7796,999.225 L1549.7796,987.69378 L1552.9671,987.69378 L1552.9671,998.0532 C1552.9671,999.6782 1553.0296,1000.78756 1553.1546,1001.38128 C1553.3421,1002.19376 1553.74835,1002.85 1554.37335,1003.35 C1555.02965,1003.8188 1555.84215,1004.0532 1556.81085,1004.0532 C1557.74835,1004.0532 1558.62335,1003.8188 1559.43585,1003.35 C1560.27955,1002.85 1560.8733,1002.17814 1561.2171,1001.33442 C1561.5921,1000.49066 1561.7796,999.27192 1561.7796,997.6782 L1561.7796,987.69378 L1564.9203,987.69378 L1564.9203,1006.35 L1562.1078,1006.35 Z M1570.8264,1006.35 L1570.8264,987.69378 L1573.68585,987.69378 L1573.68585,990.50628 C1574.40455,989.19376 1575.0608,988.3344 1575.6546,987.9282 C1576.2796,987.49068 1576.9671,987.27192 1577.7171,987.27192 C1578.7796,987.27192 1579.8577,987.60004 1580.9514,988.25628 L1579.87335,991.20942 C1579.09205,990.74066 1578.3264,990.50628 1577.5764,990.50628 C1576.8577,990.50628 1576.2171,990.72502 1575.6546,991.1625 C1575.1234,991.56878 1574.7484,992.14692 1574.5296,992.89692 C1574.1546,994.02192 1573.9671,995.24068 1573.9671,996.5532 L1573.9671,1006.35 L1570.8264,1006.35 Z M1595.62335,1000.35 L1598.9046,1000.725 C1598.4046,1002.63128 1597.4515,1004.11568 1596.0453,1005.1782 C1594.639,1006.24068 1592.8577,1006.77192 1590.7014,1006.77192 C1587.9827,1006.77192 1585.81085,1005.92818 1584.18585,1004.2407 C1582.59215,1002.55318 1581.7953,1000.19378 1581.7953,997.1625 C1581.7953,994.0375 1582.6078,991.61564 1584.2328,989.89692 C1585.8578,988.14692 1587.9515,987.27192 1590.5139,987.27192 C1593.0139,987.27192 1595.0452,988.11568 1596.6078,989.8032 C1598.2015,991.49068 1598.99835,993.88128 1598.99835,996.975 C1598.99835,997.16252 1598.99835,997.44378 1598.99835,997.81878 L1585.0764,997.81878 C1585.2014,999.88126 1585.77955,1001.4594 1586.81085,1002.5532 C1587.84215,1003.61568 1589.139,1004.14692 1590.7014,1004.14692 C1591.8577,1004.14692 1592.8421,1003.85004 1593.6546,1003.25628 C1594.4984,1002.63128 1595.15465,1001.66252 1595.62335,1000.35 Z M1585.2639,995.2407 L1595.6703,995.2407 C1595.5453,993.6469 1595.15465,992.4594 1594.49835,991.6782 C1593.46705,990.4594 1592.15455,989.85 1590.56085,989.85 C1589.09215,989.85 1587.8578,990.3344 1586.8578,991.3032 C1585.889,992.27192 1585.3577,993.58442 1585.2639,995.2407 Z" id="Shape" fill="#000000" fill-rule="nonzero"></path>
        </g>
    </g>
</svg>