<svg version="1.1" viewBox="0.0 0.0 600.0 371.0" fill="none" stroke="none" stroke-linecap="square" stroke-miterlimit="10" width="600" height="371" xmlns:xlink="http://www.w3.org/1999/xlink" xmlns="http://www.w3.org/2000/svg"><path fill="#ffffff" d="M0 0L600.0 0L600.0 371.0L0 371.0L0 0Z" fill-rule="nonzero"/><path stroke="#333333" stroke-width="1.0" stroke-linecap="butt" d="M132.5 18.5L132.5 334.5" fill-rule="nonzero"/><path stroke="#cccccc" stroke-width="1.0" stroke-linecap="butt" d="M244.5 18.5L244.5 334.5" fill-rule="nonzero"/><path stroke="#cccccc" stroke-width="1.0" stroke-linecap="butt" d="M357.5 18.5L357.5 334.5" fill-rule="nonzero"/><path stroke="#cccccc" stroke-width="1.0" stroke-linecap="butt" d="M469.5 18.5L469.5 334.5" fill-rule="nonzero"/><path stroke="#cccccc" stroke-width="1.0" stroke-linecap="butt" d="M581.5 18.5L581.5 334.5" fill-rule="nonzero"/><path stroke="#000000" stroke-width="1.0" stroke-linecap="butt" stroke-opacity="0.0" d="M169.5 18.5L169.5 334.5" fill-rule="nonzero"/><path stroke="#000000" stroke-width="1.0" stroke-linecap="butt" stroke-opacity="0.0" d="M207.5 18.5L207.5 334.5" fill-rule="nonzero"/><path stroke="#000000" stroke-width="1.0" stroke-linecap="butt" stroke-opacity="0.0" d="M282.5 18.5L282.5 334.5" fill-rule="nonzero"/><path stroke="#000000" stroke-width="1.0" stroke-linecap="butt" stroke-opacity="0.0" d="M319.5 18.5L319.5 334.5" fill-rule="nonzero"/><path stroke="#000000" stroke-width="1.0" stroke-linecap="butt" stroke-opacity="0.0" d="M394.5 18.5L394.5 334.5" fill-rule="nonzero"/><path stroke="#000000" stroke-width="1.0" stroke-linecap="butt" stroke-opacity="0.0" d="M431.5 18.5L431.5 334.5" fill-rule="nonzero"/><path stroke="#000000" stroke-width="1.0" stroke-linecap="butt" stroke-opacity="0.0" d="M506.5 18.5L506.5 334.5" fill-rule="nonzero"/><path stroke="#000000" stroke-width="1.0" stroke-linecap="butt" stroke-opacity="0.0" d="M544.5 18.5L544.5 334.5" fill-rule="nonzero"/><clipPath id="id_0"><path d="M132.55 18.55L581.45 18.55L581.45 334.45L132.55 334.45L132.55 18.55Z" clip-rule="nonzero"/></clipPath><path stroke="#000000" stroke-width="2.0" stroke-linecap="butt" stroke-opacity="0.0" clip-path="url(#id_0)" d="M133.0 52.0L133.0 30.0L523.0 30.0C524.10455 30.0 525.0 30.89543 525.0 32.0L525.0 50.0C525.0 51.10457 524.10455 52.0 523.0 52.0Z" fill-rule="nonzero"/><path fill="#1d70b8" clip-path="url(#id_0)" d="M133.0 52.0L133.0 30.0L523.0 30.0C524.10455 30.0 525.0 30.89543 525.0 32.0L525.0 50.0C525.0 51.10457 524.10455 52.0 523.0 52.0Z" fill-rule="nonzero"/><path stroke="#000000" stroke-width="2.0" stroke-linecap="butt" stroke-opacity="0.0" clip-path="url(#id_0)" d="M133.0 86.0L133.0 64.0L299.0 64.0C300.10458 64.0 301.0 64.89543 301.0 66.0L301.0 84.0C301.0 85.10457 300.10458 86.0 299.0 86.0Z" fill-rule="nonzero"/><path fill="#1d70b8" clip-path="url(#id_0)" d="M133.0 86.0L133.0 64.0L299.0 64.0C300.10458 64.0 301.0 64.89543 301.0 66.0L301.0 84.0C301.0 85.10457 300.10458 86.0 299.0 86.0Z" fill-rule="nonzero"/><path stroke="#000000" stroke-width="2.0" stroke-linecap="butt" stroke-opacity="0.0" clip-path="url(#id_0)" d="M133.0 120.0L133.0 98.0L299.0 98.0C300.10458 98.0 301.0 98.89543 301.0 100.0L301.0 118.0C301.0 119.10457 300.10458 120.0 299.0 120.0Z" fill-rule="nonzero"/><path fill="#1d70b8" clip-path="url(#id_0)" d="M133.0 120.0L133.0 98.0L299.0 98.0C300.10458 98.0 301.0 98.89543 301.0 100.0L301.0 118.0C301.0 119.10457 300.10458 120.0 299.0 120.0Z" fill-rule="nonzero"/><path stroke="#000000" stroke-width="2.0" stroke-linecap="butt" stroke-opacity="0.0" clip-path="url(#id_0)" d="M133.0 154.0L133.0 132.0L243.0 132.0C244.10457 132.0 245.0 132.89543 245.0 134.0L245.0 152.0C245.0 153.10457 244.10457 154.0 243.0 154.0Z" fill-rule="nonzero"/><path fill="#1d70b8" clip-path="url(#id_0)" d="M133.0 154.0L133.0 132.0L243.0 132.0C244.10457 132.0 245.0 132.89543 245.0 134.0L245.0 152.0C245.0 153.10457 244.10457 154.0 243.0 154.0Z" fill-rule="nonzero"/><path stroke="#000000" stroke-width="2.0" stroke-linecap="butt" stroke-opacity="0.0" clip-path="url(#id_0)" d="M133.0 188.0L133.0 166.0L187.0 166.0C188.10457 166.0 189.0 166.89543 189.0 168.0L189.0 186.0C189.0 187.10457 188.10457 188.0 187.0 188.0Z" fill-rule="nonzero"/><path fill="#1d70b8" clip-path="url(#id_0)" d="M133.0 188.0L133.0 166.0L187.0 166.0C188.10457 166.0 189.0 166.89543 189.0 168.0L189.0 186.0C189.0 187.10457 188.10457 188.0 187.0 188.0Z" fill-rule="nonzero"/><path stroke="#000000" stroke-width="2.0" stroke-linecap="butt" stroke-opacity="0.0" clip-path="url(#id_0)" d="M133.0 221.0L133.0 199.0L133.0 199.0L133.0 221.0Z" fill-rule="nonzero"/><path fill="#1d70b8" clip-path="url(#id_0)" d="M133.0 221.0L133.0 199.0L133.0 199.0L133.0 221.0Z" fill-rule="nonzero"/><path stroke="#000000" stroke-width="2.0" stroke-linecap="butt" stroke-opacity="0.0" clip-path="url(#id_0)" d="M133.0 255.0L133.0 233.0L243.0 233.0C244.10457 233.0 245.0 233.89543 245.0 235.0L245.0 253.0C245.0 254.10457 244.10457 255.0 243.0 255.0Z" fill-rule="nonzero"/><path fill="#1d70b8" clip-path="url(#id_0)" d="M133.0 255.0L133.0 233.0L243.0 233.0C244.10457 233.0 245.0 233.89543 245.0 235.0L245.0 253.0C245.0 254.10457 244.10457 255.0 243.0 255.0Z" fill-rule="nonzero"/><path stroke="#000000" stroke-width="2.0" stroke-linecap="butt" stroke-opacity="0.0" clip-path="url(#id_0)" d="M133.0 289.0L133.0 267.0L299.0 267.0C300.10458 267.0 301.0 267.89542 301.0 269.0L301.0 287.0C301.0 288.10458 300.10458 289.0 299.0 289.0Z" fill-rule="nonzero"/><path fill="#1d70b8" clip-path="url(#id_0)" d="M133.0 289.0L133.0 267.0L299.0 267.0C300.10458 267.0 301.0 267.89542 301.0 269.0L301.0 287.0C301.0 288.10458 300.10458 289.0 299.0 289.0Z" fill-rule="nonzero"/><path stroke="#000000" stroke-width="2.0" stroke-linecap="butt" stroke-opacity="0.0" clip-path="url(#id_0)" d="M133.0 323.0L133.0 301.0L243.0 301.0C244.10457 301.0 245.0 301.89542 245.0 303.0L245.0 321.0C245.0 322.10458 244.10457 323.0 243.0 323.0Z" fill-rule="nonzero"/><path fill="#1d70b8" clip-path="url(#id_0)" d="M133.0 323.0L133.0 301.0L243.0 301.0C244.10457 301.0 245.0 301.89542 245.0 303.0L245.0 321.0C245.0 322.10458 244.10457 323.0 243.0 323.0Z" fill-rule="nonzero"/><path fill="#000000" d="M52.128124 41.168114Q52.128124 39.02749 53.26875 37.824364Q54.425 36.605614 56.2375 36.605614Q57.440624 36.605614 58.39375 37.18374Q59.346874 37.74624 59.846874 38.761864Q60.346874 39.77749 60.346874 41.074364Q60.346874 42.37124 59.815624 43.40249Q59.284374 44.43374 58.315624 44.96499Q57.3625 45.49624 56.2375 45.49624Q55.01875 45.49624 54.065624 44.918114Q53.1125 44.324364 52.6125 43.324364Q52.128124 42.30874 52.128124 41.168114ZM53.3 41.18374Q53.3 42.74624 54.128124 43.636864Q54.971874 44.52749 56.2375 44.52749Q57.51875 44.52749 58.346874 43.636864Q59.175 42.730614 59.175 41.05874Q59.175 40.011864 58.815624 39.230614Q58.471874 38.449364 57.784374 38.02749Q57.096874 37.58999 56.253124 37.58999Q55.05 37.58999 54.175 38.418114Q53.3 39.24624 53.3 41.18374ZM63.065624 45.355614L60.70625 39.136864L61.815624 39.136864L63.159374 42.855614Q63.3625 43.46499 63.55 44.105614Q63.690624 43.62124 63.940624 42.93374L65.33125 39.136864L66.40938 39.136864L64.05 45.355614L63.065624 45.355614ZM70.59688 43.355614L71.69063 43.480614Q71.44063 44.43374 70.7375 44.96499Q70.03438 45.49624 68.95625 45.49624Q67.59688 45.49624 66.78438 44.65249Q65.9875 43.80874 65.9875 42.293114Q65.9875 40.730614 66.8 39.87124Q67.6125 38.99624 68.89375 38.99624Q70.14375 38.99624 70.925 39.83999Q71.72188 40.68374 71.72188 42.230614Q71.72188 42.324364 71.72188 42.511864L67.08125 42.511864Q67.14375 43.543114 67.65938 44.08999Q68.175 44.62124 68.95625 44.62124Q69.53438 44.62124 69.94063 44.324364Q70.3625 44.011864 70.59688 43.355614ZM67.14375 41.65249L70.6125 41.65249Q70.55 40.855614 70.22188 40.46499Q69.70625 39.855614 68.90938 39.855614Q68.175 39.855614 67.675 40.33999Q67.19063 40.824364 67.14375 41.65249ZM73.33125 45.355614L73.33125 39.136864L74.28438 39.136864L74.28438 40.074364Q74.64375 39.418114 74.94063 39.21499Q75.25313 38.99624 75.62813 38.99624Q76.15938 38.99624 76.70625 39.324364L76.34688 40.30874Q75.95625 40.074364 75.58125 40.074364Q75.22188 40.074364 74.94063 40.293114Q74.675 40.49624 74.56563 40.87124Q74.37813 41.43374 74.37813 42.08999L74.37813 45.355614L73.33125 45.355614ZM84.01875 45.355614L82.97188 45.355614L82.97188 38.636864Q82.58125 38.99624 81.95625 39.37124Q81.34688 39.730614 80.8625 39.90249L80.8625 38.886864Q81.7375 38.46499 82.39375 37.886864Q83.06563 37.293114 83.34688 36.730614L84.01875 36.730614L84.01875 45.355614ZM90.34688 45.355614L90.34688 39.136864L91.28438 39.136864L91.28438 40.011864Q91.58125 39.543114 92.06563 39.27749Q92.55 38.99624 93.175 38.99624Q93.8625 38.99624 94.3 39.27749Q94.75313 39.55874 94.925 40.074364Q95.675 38.99624 96.84688 38.99624Q97.78438 38.99624 98.26875 39.511864Q98.76875 40.011864 98.76875 41.08999L98.76875 45.355614L97.72188 45.355614L97.72188 41.43374Q97.72188 40.80874 97.6125 40.52749Q97.51875 40.24624 97.25313 40.074364Q96.9875 39.90249 96.6125 39.90249Q95.95625 39.90249 95.51875 40.33999Q95.09688 40.77749 95.09688 41.74624L95.09688 45.355614L94.03438 45.355614L94.03438 41.30874Q94.03438 40.605614 93.76875 40.261864Q93.51875 39.90249 92.94063 39.90249Q92.4875 39.90249 92.1125 40.136864Q91.7375 40.37124 91.56563 40.824364Q91.39375 41.27749 91.39375 42.12124L91.39375 45.355614L90.34688 45.355614ZM101.34688 37.980614L101.34688 36.761864L102.40938 36.761864L102.40938 37.980614L101.34688 37.980614ZM101.34688 45.355614L101.34688 39.136864L102.40938 39.136864L102.40938 45.355614L101.34688 45.355614ZM104.31563 45.355614L104.31563 36.761864L105.37813 36.761864L105.37813 45.355614L104.31563 45.355614ZM107.31563 45.355614L107.31563 36.761864L108.37813 36.761864L108.37813 45.355614L107.31563 45.355614ZM110.34688 37.980614L110.34688 36.761864L111.40938 36.761864L111.40938 37.980614L110.34688 37.980614ZM110.34688 45.355614L110.34688 39.136864L111.40938 39.136864L111.40938 45.355614L110.34688 45.355614ZM112.95625 42.24624Q112.95625 40.511864 113.90938 39.68374Q114.70625 38.99624 115.8625 38.99624Q117.14375 38.99624 117.95625 39.83999Q118.78438 40.668114 118.78438 42.15249Q118.78438 43.355614 118.425 44.043114Q118.06563 44.730614 117.3625 45.12124Q116.675 45.49624 115.8625 45.49624Q114.56563 45.49624 113.75313 44.668114Q112.95625 43.824364 112.95625 42.24624ZM114.03438 42.24624Q114.03438 43.43374 114.55 44.02749Q115.08125 44.62124 115.8625 44.62124Q116.65938 44.62124 117.175 44.02749Q117.69063 43.43374 117.69063 42.21499Q117.69063 41.05874 117.15938 40.46499Q116.64375 39.87124 115.8625 39.87124Q115.08125 39.87124 114.55 40.46499Q114.03438 41.043114 114.03438 42.24624ZM120.34688 45.355614L120.34688 39.136864L121.28438 39.136864L121.28438 40.011864Q121.97188 38.99624 123.26875 38.99624Q123.83125 38.99624 124.3 39.199364Q124.78438 39.40249 125.01875 39.730614Q125.25313 40.05874 125.34688 40.49624Q125.39375 40.793114 125.39375 41.52749L125.39375 45.355614L124.34688 45.355614L124.34688 41.574364Q124.34688 40.918114 124.22188 40.605614Q124.09688 40.293114 123.78438 40.105614Q123.47188 39.90249 123.05 39.90249Q122.37813 39.90249 121.87813 40.33999Q121.39375 40.761864 121.39375 41.949364L121.39375 45.355614L120.34688 45.355614Z" fill-rule="nonzero"/><path fill="#000000" d="M19.05 76.89171L20.159374 76.79796Q20.284374 77.61046 20.721874 78.01671Q21.175 78.42296 21.815624 78.42296Q22.565624 78.42296 23.096874 77.84483Q23.628124 77.26671 23.628124 76.32921Q23.628124 75.42296 23.1125 74.90733Q22.6125 74.37608 21.784374 74.37608Q21.284374 74.37608 20.8625 74.61046Q20.45625 74.84483 20.221874 75.20421L19.2375 75.07921L20.065624 70.67296L24.346874 70.67296L24.346874 71.67296L20.909374 71.67296L20.45625 73.98546Q21.221874 73.43858 22.065624 73.43858Q23.190624 73.43858 23.95625 74.21983Q24.7375 75.00108 24.7375 76.23546Q24.7375 77.39171 24.065624 78.25108Q23.2375 79.28233 21.815624 79.28233Q20.64375 79.28233 19.89375 78.62608Q19.159374 77.96983 19.05 76.89171ZM26.05 74.90733Q26.05 73.37608 26.3625 72.45421Q26.675 71.51671 27.284374 71.01671Q27.909374 70.51671 28.846874 70.51671Q29.534374 70.51671 30.05 70.79796Q30.58125 71.07921 30.925 71.61046Q31.26875 72.12608 31.45625 72.87608Q31.64375 73.62608 31.64375 74.90733Q31.64375 76.42296 31.33125 77.34483Q31.034374 78.26671 30.409374 78.78233Q29.8 79.28233 28.846874 79.28233Q27.6125 79.28233 26.89375 78.39171Q26.05 77.32921 26.05 74.90733ZM27.128124 74.90733Q27.128124 77.01671 27.628124 77.71983Q28.128124 78.42296 28.846874 78.42296Q29.58125 78.42296 30.065624 77.71983Q30.565624 77.01671 30.565624 74.90733Q30.565624 72.78233 30.065624 72.09483Q29.58125 71.39171 28.83125 71.39171Q28.1125 71.39171 27.675 72.00108Q27.128124 72.78233 27.128124 74.90733ZM33.05 74.90733Q33.05 73.37608 33.3625 72.45421Q33.675 71.51671 34.284374 71.01671Q34.909374 70.51671 35.846874 70.51671Q36.534374 70.51671 37.05 70.79796Q37.58125 71.07921 37.925 71.61046Q38.26875 72.12608 38.45625 72.87608Q38.64375 73.62608 38.64375 74.90733Q38.64375 76.42296 38.33125 77.34483Q38.034374 78.26671 37.409374 78.78233Q36.8 79.28233 35.846874 79.28233Q34.6125 79.28233 33.89375 78.39171Q33.05 77.32921 33.05 74.90733ZM34.128124 74.90733Q34.128124 77.01671 34.628124 77.71983Q35.128124 78.42296 35.846874 78.42296Q36.58125 78.42296 37.065624 77.71983Q37.565624 77.01671 37.565624 74.90733Q37.565624 72.78233 37.065624 72.09483Q36.58125 71.39171 35.83125 71.39171Q35.1125 71.39171 34.675 72.00108Q34.128124 72.78233 34.128124 74.90733ZM40.6125 79.14171L40.6125 77.93858L41.815624 77.93858L41.815624 79.14171Q41.815624 79.79796 41.58125 80.20421Q41.346874 80.62608 40.846874 80.84483L40.55 80.39171Q40.878124 80.25108 41.034374 79.95421Q41.190624 79.67296 41.221874 79.14171L40.6125 79.14171ZM43.05 74.90733Q43.05 73.37608 43.3625 72.45421Q43.675 71.51671 44.284374 71.01671Q44.909374 70.51671 45.846874 70.51671Q46.534374 70.51671 47.05 70.79796Q47.58125 71.07921 47.925 71.61046Q48.26875 72.12608 48.45625 72.87608Q48.64375 73.62608 48.64375 74.90733Q48.64375 76.42296 48.33125 77.34483Q48.034374 78.26671 47.409374 78.78233Q46.8 79.28233 45.846874 79.28233Q44.6125 79.28233 43.89375 78.39171Q43.05 77.32921 43.05 74.90733ZM44.128124 74.90733Q44.128124 77.01671 44.628124 77.71983Q45.128124 78.42296 45.846874 78.42296Q46.58125 78.42296 47.065624 77.71983Q47.565624 77.01671 47.565624 74.90733Q47.565624 72.78233 47.065624 72.09483Q46.58125 71.39171 45.83125 71.39171Q45.1125 71.39171 44.675 72.00108Q44.128124 72.78233 44.128124 74.90733ZM50.05 74.90733Q50.05 73.37608 50.3625 72.45421Q50.675 71.51671 51.284374 71.01671Q51.909374 70.51671 52.846874 70.51671Q53.534374 70.51671 54.05 70.79796Q54.58125 71.07921 54.925 71.61046Q55.26875 72.12608 55.45625 72.87608Q55.64375 73.62608 55.64375 74.90733Q55.64375 76.42296 55.33125 77.34483Q55.034374 78.26671 54.409374 78.78233Q53.8 79.28233 52.846874 79.28233Q51.6125 79.28233 50.89375 78.39171Q50.05 77.32921 50.05 74.90733ZM51.128124 74.90733Q51.128124 77.01671 51.628124 77.71983Q52.128124 78.42296 52.846874 78.42296Q53.58125 78.42296 54.065624 77.71983Q54.565624 77.01671 54.565624 74.90733Q54.565624 72.78233 54.065624 72.09483Q53.58125 71.39171 52.83125 71.39171Q52.1125 71.39171 51.675 72.00108Q51.128124 72.78233 51.128124 74.90733ZM57.05 74.90733Q57.05 73.37608 57.3625 72.45421Q57.675 71.51671 58.284374 71.01671Q58.909374 70.51671 59.846874 70.51671Q60.534374 70.51671 61.05 70.79796Q61.58125 71.07921 61.925 71.61046Q62.26875 72.12608 62.45625 72.87608Q62.64375 73.62608 62.64375 74.90733Q62.64375 76.42296 62.33125 77.34483Q62.034374 78.26671 61.409374 78.78233Q60.8 79.28233 59.846874 79.28233Q58.6125 79.28233 57.89375 78.39171Q57.05 77.32921 57.05 74.90733ZM58.128124 74.90733Q58.128124 77.01671 58.628124 77.71983Q59.128124 78.42296 59.846874 78.42296Q60.58125 78.42296 61.065624 77.71983Q61.565624 77.01671 61.565624 74.90733Q61.565624 72.78233 61.065624 72.09483Q60.58125 71.39171 59.83125 71.39171Q59.1125 71.39171 58.675 72.00108Q58.128124 72.78233 58.128124 74.90733ZM69.64375 78.20421L69.8 79.12608Q69.34688 79.21983 69.00313 79.21983Q68.425 79.21983 68.1125 79.04796Q67.8 78.86046 67.65938 78.56358Q67.53438 78.26671 67.53438 77.31358L67.53438 73.73546L66.76875 73.73546L66.76875 72.92296L67.53438 72.92296L67.53438 71.37608L68.58125 70.75108L68.58125 72.92296L69.64375 72.92296L69.64375 73.73546L68.58125 73.73546L68.58125 77.37608Q68.58125 77.82921 68.62813 77.95421Q68.69063 78.07921 68.81563 78.15733Q68.94063 78.23546 69.175 78.23546Q69.3625 78.23546 69.64375 78.20421ZM69.95625 76.03233Q69.95625 74.29796 70.90938 73.46983Q71.70625 72.78233 72.8625 72.78233Q74.14375 72.78233 74.95625 73.62608Q75.78438 74.45421 75.78438 75.93858Q75.78438 77.14171 75.425 77.82921Q75.06563 78.51671 74.3625 78.90733Q73.675 79.28233 72.8625 79.28233Q71.56563 79.28233 70.75313 78.45421Q69.95625 77.61046 69.95625 76.03233ZM71.03438 76.03233Q71.03438 77.21983 71.55 77.81358Q72.08125 78.40733 72.8625 78.40733Q73.65938 78.40733 74.175 77.81358Q74.69063 77.21983 74.69063 76.00108Q74.69063 74.84483 74.15938 74.25108Q73.64375 73.65733 72.8625 73.65733Q72.08125 73.65733 71.55 74.25108Q71.03438 74.82921 71.03438 76.03233ZM84.01875 79.14171L82.97188 79.14171L82.97188 72.42296Q82.58125 72.78233 81.95625 73.15733Q81.34688 73.51671 80.8625 73.68858L80.8625 72.67296Q81.7375 72.25108 82.39375 71.67296Q83.06563 71.07921 83.34688 70.51671L84.01875 70.51671L84.01875 79.14171ZM90.34688 79.14171L90.34688 72.92296L91.28438 72.92296L91.28438 73.79796Q91.58125 73.32921 92.06563 73.06358Q92.55 72.78233 93.175 72.78233Q93.8625 72.78233 94.3 73.06358Q94.75313 73.34483 94.925 73.86046Q95.675 72.78233 96.84688 72.78233Q97.78438 72.78233 98.26875 73.29796Q98.76875 73.79796 98.76875 74.87608L98.76875 79.14171L97.72188 79.14171L97.72188 75.21983Q97.72188 74.59483 97.6125 74.31358Q97.51875 74.03233 97.25313 73.86046Q96.9875 73.68858 96.6125 73.68858Q95.95625 73.68858 95.51875 74.12608Q95.09688 74.56358 95.09688 75.53233L95.09688 79.14171L94.03438 79.14171L94.03438 75.09483Q94.03438 74.39171 93.76875 74.04796Q93.51875 73.68858 92.94063 73.68858Q92.4875 73.68858 92.1125 73.92296Q91.7375 74.15733 91.56563 74.61046Q91.39375 75.06358 91.39375 75.90733L91.39375 79.14171L90.34688 79.14171ZM101.34688 71.76671L101.34688 70.54796L102.40938 70.54796L102.40938 71.76671L101.34688 71.76671ZM101.34688 79.14171L101.34688 72.92296L102.40938 72.92296L102.40938 79.14171L101.34688 79.14171ZM104.31563 79.14171L104.31563 70.54796L105.37813 70.54796L105.37813 79.14171L104.31563 79.14171ZM107.31563 79.14171L107.31563 70.54796L108.37813 70.54796L108.37813 79.14171L107.31563 79.14171ZM110.34688 71.76671L110.34688 70.54796L111.40938 70.54796L111.40938 71.76671L110.34688 71.76671ZM110.34688 79.14171L110.34688 72.92296L111.40938 72.92296L111.40938 79.14171L110.34688 79.14171ZM112.95625 76.03233Q112.95625 74.29796 113.90938 73.46983Q114.70625 72.78233 115.8625 72.78233Q117.14375 72.78233 117.95625 73.62608Q118.78438 74.45421 118.78438 75.93858Q118.78438 77.14171 118.425 77.82921Q118.06563 78.51671 117.3625 78.90733Q116.675 79.28233 115.8625 79.28233Q114.56563 79.28233 113.75313 78.45421Q112.95625 77.61046 112.95625 76.03233ZM114.03438 76.03233Q114.03438 77.21983 114.55 77.81358Q115.08125 78.40733 115.8625 78.40733Q116.65938 78.40733 117.175 77.81358Q117.69063 77.21983 117.69063 76.00108Q117.69063 74.84483 117.15938 74.25108Q116.64375 73.65733 115.8625 73.65733Q115.08125 73.65733 114.55 74.25108Q114.03438 74.82921 114.03438 76.03233ZM120.34688 79.14171L120.34688 72.92296L121.28438 72.92296L121.28438 73.79796Q121.97188 72.78233 123.26875 72.78233Q123.83125 72.78233 124.3 72.98546Q124.78438 73.18858 125.01875 73.51671Q125.25313 73.84483 125.34688 74.28233Q125.39375 74.57921 125.39375 75.31358L125.39375 79.14171L124.34688 79.14171L124.34688 75.36046Q124.34688 74.70421 124.22188 74.39171Q124.09688 74.07921 123.78438 73.89171Q123.47188 73.68858 123.05 73.68858Q122.37813 73.68858 121.87813 74.12608Q121.39375 74.54796 121.39375 75.73546L121.39375 79.14171L120.34688 79.14171Z" fill-rule="nonzero"/><path fill="#000000" d="M37.01875 112.92781L35.971874 112.92781L35.971874 106.20906Q35.58125 106.568436 34.95625 106.943436Q34.346874 107.30281 33.8625 107.474686L33.8625 106.45906Q34.7375 106.037186 35.39375 105.45906Q36.065624 104.86531 36.346874 104.30281L37.01875 104.30281L37.01875 112.92781ZM40.05 108.693436Q40.05 107.162186 40.3625 106.24031Q40.675 105.30281 41.284374 104.80281Q41.909374 104.30281 42.846874 104.30281Q43.534374 104.30281 44.05 104.58406Q44.58125 104.86531 44.925 105.39656Q45.26875 105.912186 45.45625 106.662186Q45.64375 107.412186 45.64375 108.693436Q45.64375 110.20906 45.33125 111.130936Q45.034374 112.05281 44.409374 112.568436Q43.8 113.068436 42.846874 113.068436Q41.6125 113.068436 40.89375 112.17781Q40.05 111.11531 40.05 108.693436ZM41.128124 108.693436Q41.128124 110.80281 41.628124 111.505936Q42.128124 112.20906 42.846874 112.20906Q43.58125 112.20906 44.065624 111.505936Q44.565624 110.80281 44.565624 108.693436Q44.565624 106.568436 44.065624 105.880936Q43.58125 105.17781 42.83125 105.17781Q42.1125 105.17781 41.675 105.787186Q41.128124 106.568436 41.128124 108.693436ZM47.05 108.693436Q47.05 107.162186 47.3625 106.24031Q47.675 105.30281 48.284374 104.80281Q48.909374 104.30281 49.846874 104.30281Q50.534374 104.30281 51.05 104.58406Q51.58125 104.86531 51.925 105.39656Q52.26875 105.912186 52.45625 106.662186Q52.64375 107.412186 52.64375 108.693436Q52.64375 110.20906 52.33125 111.130936Q52.034374 112.05281 51.409374 112.568436Q50.8 113.068436 49.846874 113.068436Q48.6125 113.068436 47.89375 112.17781Q47.05 111.11531 47.05 108.693436ZM48.128124 108.693436Q48.128124 110.80281 48.628124 111.505936Q49.128124 112.20906 49.846874 112.20906Q50.58125 112.20906 51.065624 111.505936Q51.565624 110.80281 51.565624 108.693436Q51.565624 106.568436 51.065624 105.880936Q50.58125 105.17781 49.83125 105.17781Q49.1125 105.17781 48.675 105.787186Q48.128124 106.568436 48.128124 108.693436ZM54.6125 112.92781L54.6125 111.724686L55.815624 111.724686L55.815624 112.92781Q55.815624 113.58406 55.58125 113.99031Q55.346874 114.412186 54.846874 114.630936L54.55 114.17781Q54.878124 114.037186 55.034374 113.74031Q55.190624 113.45906 55.221874 112.92781L54.6125 112.92781ZM57.05 108.693436Q57.05 107.162186 57.3625 106.24031Q57.675 105.30281 58.284374 104.80281Q58.909374 104.30281 59.846874 104.30281Q60.534374 104.30281 61.05 104.58406Q61.58125 104.86531 61.925 105.39656Q62.26875 105.912186 62.45625 106.662186Q62.64375 107.412186 62.64375 108.693436Q62.64375 110.20906 62.33125 111.130936Q62.034374 112.05281 61.409374 112.568436Q60.8 113.068436 59.846874 113.068436Q58.6125 113.068436 57.89375 112.17781Q57.05 111.11531 57.05 108.693436ZM58.128124 108.693436Q58.128124 110.80281 58.628124 111.505936Q59.128124 112.20906 59.846874 112.20906Q60.58125 112.20906 61.065624 111.505936Q61.565624 110.80281 61.565624 108.693436Q61.565624 106.568436 61.065624 105.880936Q60.58125 105.17781 59.83125 105.17781Q59.1125 105.17781 58.675 105.787186Q58.128124 106.568436 58.128124 108.693436ZM64.05 108.693436Q64.05 107.162186 64.3625 106.24031Q64.675 105.30281 65.28438 104.80281Q65.90938 104.30281 66.84688 104.30281Q67.53438 104.30281 68.05 104.58406Q68.58125 104.86531 68.925 105.39656Q69.26875 105.912186 69.45625 106.662186Q69.64375 107.412186 69.64375 108.693436Q69.64375 110.20906 69.33125 111.130936Q69.03438 112.05281 68.40938 112.568436Q67.8 113.068436 66.84688 113.068436Q65.6125 113.068436 64.89375 112.17781Q64.05 111.11531 64.05 108.693436ZM65.12813 108.693436Q65.12813 110.80281 65.62813 111.505936Q66.12813 112.20906 66.84688 112.20906Q67.58125 112.20906 68.06563 111.505936Q68.56563 110.80281 68.56563 108.693436Q68.56563 106.568436 68.06563 105.880936Q67.58125 105.17781 66.83125 105.17781Q66.1125 105.17781 65.675 105.787186Q65.12813 106.568436 65.12813 108.693436ZM71.05 108.693436Q71.05 107.162186 71.3625 106.24031Q71.675 105.30281 72.28438 104.80281Q72.90938 104.30281 73.84688 104.30281Q74.53438 104.30281 75.05 104.58406Q75.58125 104.86531 75.925 105.39656Q76.26875 105.912186 76.45625 106.662186Q76.64375 107.412186 76.64375 108.693436Q76.64375 110.20906 76.33125 111.130936Q76.03438 112.05281 75.40938 112.568436Q74.8 113.068436 73.84688 113.068436Q72.6125 113.068436 71.89375 112.17781Q71.05 111.11531 71.05 108.693436ZM72.12813 108.693436Q72.12813 110.80281 72.62813 111.505936Q73.12813 112.20906 73.84688 112.20906Q74.58125 112.20906 75.06563 111.505936Q75.56563 110.80281 75.56563 108.693436Q75.56563 106.568436 75.06563 105.880936Q74.58125 105.17781 73.83125 105.17781Q73.1125 105.17781 72.675 105.787186Q72.12813 106.568436 72.12813 108.693436ZM77.925 110.349686L77.925 109.287186L81.175 109.287186L81.175 110.349686L77.925 110.349686ZM82.05 110.67781L83.15938 110.58406Q83.28438 111.39656 83.72188 111.80281Q84.175 112.20906 84.81563 112.20906Q85.56563 112.20906 86.09688 111.630936Q86.62813 111.05281 86.62813 110.11531Q86.62813 109.20906 86.1125 108.693436Q85.6125 108.162186 84.78438 108.162186Q84.28438 108.162186 83.8625 108.39656Q83.45625 108.630936 83.22188 108.99031L82.2375 108.86531L83.06563 104.45906L87.34688 104.45906L87.34688 105.45906L83.90938 105.45906L83.45625 107.77156Q84.22188 107.224686 85.06563 107.224686Q86.19063 107.224686 86.95625 108.005936Q87.7375 108.787186 87.7375 110.02156Q87.7375 111.17781 87.06563 112.037186Q86.2375 113.068436 84.81563 113.068436Q83.64375 113.068436 82.89375 112.412186Q82.15938 111.755936 82.05 110.67781ZM89.05 108.693436Q89.05 107.162186 89.3625 106.24031Q89.675 105.30281 90.28438 104.80281Q90.90938 104.30281 91.84688 104.30281Q92.53438 104.30281 93.05 104.58406Q93.58125 104.86531 93.925 105.39656Q94.26875 105.912186 94.45625 106.662186Q94.64375 107.412186 94.64375 108.693436Q94.64375 110.20906 94.33125 111.130936Q94.03438 112.05281 93.40938 112.568436Q92.8 113.068436 91.84688 113.068436Q90.6125 113.068436 89.89375 112.17781Q89.05 111.11531 89.05 108.693436ZM90.12813 108.693436Q90.12813 110.80281 90.62813 111.505936Q91.12813 112.20906 91.84688 112.20906Q92.58125 112.20906 93.06563 111.505936Q93.56563 110.80281 93.56563 108.693436Q93.56563 106.568436 93.06563 105.880936Q92.58125 105.17781 91.83125 105.17781Q91.1125 105.17781 90.675 105.787186Q90.12813 106.568436 90.12813 108.693436ZM96.05 108.693436Q96.05 107.162186 96.3625 106.24031Q96.675 105.30281 97.28438 104.80281Q97.90938 104.30281 98.84688 104.30281Q99.53438 104.30281 100.05 104.58406Q100.58125 104.86531 100.925 105.39656Q101.26875 105.912186 101.45625 106.662186Q101.64375 107.412186 101.64375 108.693436Q101.64375 110.20906 101.33125 111.130936Q101.03438 112.05281 100.40938 112.568436Q99.8 113.068436 98.84688 113.068436Q97.6125 113.068436 96.89375 112.17781Q96.05 111.11531 96.05 108.693436ZM97.12813 108.693436Q97.12813 110.80281 97.62813 111.505936Q98.12813 112.20906 98.84688 112.20906Q99.58125 112.20906 100.06563 111.505936Q100.56563 110.80281 100.56563 108.693436Q100.56563 106.568436 100.06563 105.880936Q99.58125 105.17781 98.83125 105.17781Q98.1125 105.17781 97.675 105.787186Q97.12813 106.568436 97.12813 108.693436ZM103.6125 112.92781L103.6125 111.724686L104.81563 111.724686L104.81563 112.92781Q104.81563 113.58406 104.58125 113.99031Q104.34688 114.412186 103.84688 114.630936L103.55 114.17781Q103.87813 114.037186 104.03438 113.74031Q104.19063 113.45906 104.22188 112.92781L103.6125 112.92781ZM106.05 108.693436Q106.05 107.162186 106.3625 106.24031Q106.675 105.30281 107.28438 104.80281Q107.90938 104.30281 108.84688 104.30281Q109.53438 104.30281 110.05 104.58406Q110.58125 104.86531 110.925 105.39656Q111.26875 105.912186 111.45625 106.662186Q111.64375 107.412186 111.64375 108.693436Q111.64375 110.20906 111.33125 111.130936Q111.03438 112.05281 110.40938 112.568436Q109.8 113.068436 108.84688 113.068436Q107.6125 113.068436 106.89375 112.17781Q106.05 111.11531 106.05 108.693436ZM107.12813 108.693436Q107.12813 110.80281 107.62813 111.505936Q108.12813 112.20906 108.84688 112.20906Q109.58125 112.20906 110.06563 111.505936Q110.56563 110.80281 110.56563 108.693436Q110.56563 106.568436 110.06563 105.880936Q109.58125 105.17781 108.83125 105.17781Q108.1125 105.17781 107.675 105.787186Q107.12813 106.568436 107.12813 108.693436ZM113.05 108.693436Q113.05 107.162186 113.3625 106.24031Q113.675 105.30281 114.28438 104.80281Q114.90938 104.30281 115.84688 104.30281Q116.53438 104.30281 117.05 104.58406Q117.58125 104.86531 117.925 105.39656Q118.26875 105.912186 118.45625 106.662186Q118.64375 107.412186 118.64375 108.693436Q118.64375 110.20906 118.33125 111.130936Q118.03438 112.05281 117.40938 112.568436Q116.8 113.068436 115.84688 113.068436Q114.6125 113.068436 113.89375 112.17781Q113.05 111.11531 113.05 108.693436ZM114.12813 108.693436Q114.12813 110.80281 114.62813 111.505936Q115.12813 112.20906 115.84688 112.20906Q116.58125 112.20906 117.06563 111.505936Q117.56563 110.80281 117.56563 108.693436Q117.56563 106.568436 117.06563 105.880936Q116.58125 105.17781 115.83125 105.17781Q115.1125 105.17781 114.675 105.787186Q114.12813 106.568436 114.12813 108.693436ZM120.05 108.693436Q120.05 107.162186 120.3625 106.24031Q120.675 105.30281 121.28438 104.80281Q121.90938 104.30281 122.84688 104.30281Q123.53438 104.30281 124.05 104.58406Q124.58125 104.86531 124.925 105.39656Q125.26875 105.912186 125.45625 106.662186Q125.64375 107.412186 125.64375 108.693436Q125.64375 110.20906 125.33125 111.130936Q125.03438 112.05281 124.40938 112.568436Q123.8 113.068436 122.84688 113.068436Q121.6125 113.068436 120.89375 112.17781Q120.05 111.11531 120.05 108.693436ZM121.12813 108.693436Q121.12813 110.80281 121.62813 111.505936Q122.12813 112.20906 122.84688 112.20906Q123.58125 112.20906 124.06563 111.505936Q124.56563 110.80281 124.56563 108.693436Q124.56563 106.568436 124.06563 105.880936Q123.58125 105.17781 122.83125 105.17781Q122.1125 105.17781 121.675 105.787186Q121.12813 106.568436 121.12813 108.693436Z" fill-rule="nonzero"/><path fill="#000000" d="M40.05 144.4639L41.159374 144.37015Q41.284374 145.18265 41.721874 145.5889Q42.175 145.99515 42.815624 145.99515Q43.565624 145.99515 44.096874 145.41702Q44.628124 144.8389 44.628124 143.9014Q44.628124 142.99515 44.1125 142.47952Q43.6125 141.94827 42.784374 141.94827Q42.284374 141.94827 41.8625 142.18265Q41.45625 142.41702 41.221874 142.7764L40.2375 142.6514L41.065624 138.24515L45.346874 138.24515L45.346874 139.24515L41.909374 139.24515L41.45625 141.55765Q42.221874 141.01077 43.065624 141.01077Q44.190624 141.01077 44.95625 141.79202Q45.7375 142.57327 45.7375 143.80765Q45.7375 144.9639 45.065624 145.82327Q44.2375 146.85452 42.815624 146.85452Q41.64375 146.85452 40.89375 146.19827Q40.159374 145.54202 40.05 144.4639ZM47.05 142.47952Q47.05 140.94827 47.3625 140.0264Q47.675 139.0889 48.284374 138.5889Q48.909374 138.0889 49.846874 138.0889Q50.534374 138.0889 51.05 138.37015Q51.58125 138.6514 51.925 139.18265Q52.26875 139.69827 52.45625 140.44827Q52.64375 141.19827 52.64375 142.47952Q52.64375 143.99515 52.33125 144.91702Q52.034374 145.8389 51.409374 146.35452Q50.8 146.85452 49.846874 146.85452Q48.6125 146.85452 47.89375 145.9639Q47.05 144.9014 47.05 142.47952ZM48.128124 142.47952Q48.128124 144.5889 48.628124 145.29202Q49.128124 145.99515 49.846874 145.99515Q50.58125 145.99515 51.065624 145.29202Q51.565624 144.5889 51.565624 142.47952Q51.565624 140.35452 51.065624 139.66702Q50.58125 138.9639 49.83125 138.9639Q49.1125 138.9639 48.675 139.57327Q48.128124 140.35452 48.128124 142.47952ZM54.6125 146.7139L54.6125 145.51077L55.815624 145.51077L55.815624 146.7139Q55.815624 147.37015 55.58125 147.7764Q55.346874 148.19827 54.846874 148.41702L54.55 147.9639Q54.878124 147.82327 55.034374 147.5264Q55.190624 147.24515 55.221874 146.7139L54.6125 146.7139ZM57.05 142.47952Q57.05 140.94827 57.3625 140.0264Q57.675 139.0889 58.284374 138.5889Q58.909374 138.0889 59.846874 138.0889Q60.534374 138.0889 61.05 138.37015Q61.58125 138.6514 61.925 139.18265Q62.26875 139.69827 62.45625 140.44827Q62.64375 141.19827 62.64375 142.47952Q62.64375 143.99515 62.33125 144.91702Q62.034374 145.8389 61.409374 146.35452Q60.8 146.85452 59.846874 146.85452Q58.6125 146.85452 57.89375 145.9639Q57.05 144.9014 57.05 142.47952ZM58.128124 142.47952Q58.128124 144.5889 58.628124 145.29202Q59.128124 145.99515 59.846874 145.99515Q60.58125 145.99515 61.065624 145.29202Q61.565624 144.5889 61.565624 142.47952Q61.565624 140.35452 61.065624 139.66702Q60.58125 138.9639 59.83125 138.9639Q59.1125 138.9639 58.675 139.57327Q58.128124 140.35452 58.128124 142.47952ZM64.05 142.47952Q64.05 140.94827 64.3625 140.0264Q64.675 139.0889 65.28438 138.5889Q65.90938 138.0889 66.84688 138.0889Q67.53438 138.0889 68.05 138.37015Q68.58125 138.6514 68.925 139.18265Q69.26875 139.69827 69.45625 140.44827Q69.64375 141.19827 69.64375 142.47952Q69.64375 143.99515 69.33125 144.91702Q69.03438 145.8389 68.40938 146.35452Q67.8 146.85452 66.84688 146.85452Q65.6125 146.85452 64.89375 145.9639Q64.05 144.9014 64.05 142.47952ZM65.12813 142.47952Q65.12813 144.5889 65.62813 145.29202Q66.12813 145.99515 66.84688 145.99515Q67.58125 145.99515 68.06563 145.29202Q68.56563 144.5889 68.56563 142.47952Q68.56563 140.35452 68.06563 139.66702Q67.58125 138.9639 66.83125 138.9639Q66.1125 138.9639 65.675 139.57327Q65.12813 140.35452 65.12813 142.47952ZM71.05 142.47952Q71.05 140.94827 71.3625 140.0264Q71.675 139.0889 72.28438 138.5889Q72.90938 138.0889 73.84688 138.0889Q74.53438 138.0889 75.05 138.37015Q75.58125 138.6514 75.925 139.18265Q76.26875 139.69827 76.45625 140.44827Q76.64375 141.19827 76.64375 142.47952Q76.64375 143.99515 76.33125 144.91702Q76.03438 145.8389 75.40938 146.35452Q74.8 146.85452 73.84688 146.85452Q72.6125 146.85452 71.89375 145.9639Q71.05 144.9014 71.05 142.47952ZM72.12813 142.47952Q72.12813 144.5889 72.62813 145.29202Q73.12813 145.99515 73.84688 145.99515Q74.58125 145.99515 75.06563 145.29202Q75.56563 144.5889 75.56563 142.47952Q75.56563 140.35452 75.06563 139.66702Q74.58125 138.9639 73.83125 138.9639Q73.1125 138.9639 72.675 139.57327Q72.12813 140.35452 72.12813 142.47952ZM77.925 144.13577L77.925 143.07327L81.175 143.07327L81.175 144.13577L77.925 144.13577ZM86.01875 146.7139L84.97188 146.7139L84.97188 139.99515Q84.58125 140.35452 83.95625 140.72952Q83.34688 141.0889 82.8625 141.26077L82.8625 140.24515Q83.7375 139.82327 84.39375 139.24515Q85.06563 138.6514 85.34688 138.0889L86.01875 138.0889L86.01875 146.7139ZM89.05 142.47952Q89.05 140.94827 89.3625 140.0264Q89.675 139.0889 90.28438 138.5889Q90.90938 138.0889 91.84688 138.0889Q92.53438 138.0889 93.05 138.37015Q93.58125 138.6514 93.925 139.18265Q94.26875 139.69827 94.45625 140.44827Q94.64375 141.19827 94.64375 142.47952Q94.64375 143.99515 94.33125 144.91702Q94.03438 145.8389 93.40938 146.35452Q92.8 146.85452 91.84688 146.85452Q90.6125 146.85452 89.89375 145.9639Q89.05 144.9014 89.05 142.47952ZM90.12813 142.47952Q90.12813 144.5889 90.62813 145.29202Q91.12813 145.99515 91.84688 145.99515Q92.58125 145.99515 93.06563 145.29202Q93.56563 144.5889 93.56563 142.47952Q93.56563 140.35452 93.06563 139.66702Q92.58125 138.9639 91.83125 138.9639Q91.1125 138.9639 90.675 139.57327Q90.12813 140.35452 90.12813 142.47952ZM96.05 142.47952Q96.05 140.94827 96.3625 140.0264Q96.675 139.0889 97.28438 138.5889Q97.90938 138.0889 98.84688 138.0889Q99.53438 138.0889 100.05 138.37015Q100.58125 138.6514 100.925 139.18265Q101.26875 139.69827 101.45625 140.44827Q101.64375 141.19827 101.64375 142.47952Q101.64375 143.99515 101.33125 144.91702Q101.03438 145.8389 100.40938 146.35452Q99.8 146.85452 98.84688 146.85452Q97.6125 146.85452 96.89375 145.9639Q96.05 144.9014 96.05 142.47952ZM97.12813 142.47952Q97.12813 144.5889 97.62813 145.29202Q98.12813 145.99515 98.84688 145.99515Q99.58125 145.99515 100.06563 145.29202Q100.56563 144.5889 100.56563 142.47952Q100.56563 140.35452 100.06563 139.66702Q99.58125 138.9639 98.83125 138.9639Q98.1125 138.9639 97.675 139.57327Q97.12813 140.35452 97.12813 142.47952ZM103.6125 146.7139L103.6125 145.51077L104.81563 145.51077L104.81563 146.7139Q104.81563 147.37015 104.58125 147.7764Q104.34688 148.19827 103.84688 148.41702L103.55 147.9639Q103.87813 147.82327 104.03438 147.5264Q104.19063 147.24515 104.22188 146.7139L103.6125 146.7139ZM106.05 142.47952Q106.05 140.94827 106.3625 140.0264Q106.675 139.0889 107.28438 138.5889Q107.90938 138.0889 108.84688 138.0889Q109.53438 138.0889 110.05 138.37015Q110.58125 138.6514 110.925 139.18265Q111.26875 139.69827 111.45625 140.44827Q111.64375 141.19827 111.64375 142.47952Q111.64375 143.99515 111.33125 144.91702Q111.03438 145.8389 110.40938 146.35452Q109.8 146.85452 108.84688 146.85452Q107.6125 146.85452 106.89375 145.9639Q106.05 144.9014 106.05 142.47952ZM107.12813 142.47952Q107.12813 144.5889 107.62813 145.29202Q108.12813 145.99515 108.84688 145.99515Q109.58125 145.99515 110.06563 145.29202Q110.56563 144.5889 110.56563 142.47952Q110.56563 140.35452 110.06563 139.66702Q109.58125 138.9639 108.83125 138.9639Q108.1125 138.9639 107.675 139.57327Q107.12813 140.35452 107.12813 142.47952ZM113.05 142.47952Q113.05 140.94827 113.3625 140.0264Q113.675 139.0889 114.28438 138.5889Q114.90938 138.0889 115.84688 138.0889Q116.53438 138.0889 117.05 138.37015Q117.58125 138.6514 117.925 139.18265Q118.26875 139.69827 118.45625 140.44827Q118.64375 141.19827 118.64375 142.47952Q118.64375 143.99515 118.33125 144.91702Q118.03438 145.8389 117.40938 146.35452Q116.8 146.85452 115.84688 146.85452Q114.6125 146.85452 113.89375 145.9639Q113.05 144.9014 113.05 142.47952ZM114.12813 142.47952Q114.12813 144.5889 114.62813 145.29202Q115.12813 145.99515 115.84688 145.99515Q116.58125 145.99515 117.06563 145.29202Q117.56563 144.5889 117.56563 142.47952Q117.56563 140.35452 117.06563 139.66702Q116.58125 138.9639 115.83125 138.9639Q115.1125 138.9639 114.675 139.57327Q114.12813 140.35452 114.12813 142.47952ZM120.05 142.47952Q120.05 140.94827 120.3625 140.0264Q120.675 139.0889 121.28438 138.5889Q121.90938 138.0889 122.84688 138.0889Q123.53438 138.0889 124.05 138.37015Q124.58125 138.6514 124.925 139.18265Q125.26875 139.69827 125.45625 140.44827Q125.64375 141.19827 125.64375 142.47952Q125.64375 143.99515 125.33125 144.91702Q125.03438 145.8389 124.40938 146.35452Q123.8 146.85452 122.84688 146.85452Q121.6125 146.85452 120.89375 145.9639Q120.05 144.9014 120.05 142.47952ZM121.12813 142.47952Q121.12813 144.5889 121.62813 145.29202Q122.12813 145.99515 122.84688 145.99515Q123.58125 145.99515 124.06563 145.29202Q124.56563 144.5889 124.56563 142.47952Q124.56563 140.35452 124.06563 139.66702Q123.58125 138.9639 122.83125 138.9639Q122.1125 138.9639 121.675 139.57327Q121.12813 140.35452 121.12813 142.47952Z" fill-rule="nonzero"/><path fill="#000000" d="M40.596874 179.48438L40.596874 180.5L34.909374 180.5Q34.909374 180.125 35.034374 179.76562Q35.253124 179.1875 35.721874 178.625Q36.20625 178.0625 37.1125 177.32812Q38.51875 176.17188 39.003124 175.5Q39.503124 174.82812 39.503124 174.23438Q39.503124 173.60938 39.05 173.1875Q38.596874 172.75 37.878124 172.75Q37.1125 172.75 36.659374 173.20312Q36.20625 173.65625 36.190624 174.46875L35.1125 174.35938Q35.221874 173.14062 35.940624 172.51562Q36.675 171.875 37.909374 171.875Q39.14375 171.875 39.8625 172.5625Q40.58125 173.25 40.58125 174.26562Q40.58125 174.78125 40.3625 175.28125Q40.159374 175.76562 39.659374 176.32812Q39.175 176.875 38.05 177.82812Q37.096874 178.625 36.815624 178.92188Q36.55 179.20312 36.378124 179.48438L40.596874 179.48438ZM42.05 176.26562Q42.05 174.73438 42.3625 173.8125Q42.675 172.875 43.284374 172.375Q43.909374 171.875 44.846874 171.875Q45.534374 171.875 46.05 172.15625Q46.58125 172.4375 46.925 172.96875Q47.26875 173.48438 47.45625 174.23438Q47.64375 174.98438 47.64375 176.26562Q47.64375 177.78125 47.33125 178.70312Q47.034374 179.625 46.409374 180.14062Q45.8 180.64062 44.846874 180.64062Q43.6125 180.64062 42.89375 179.75Q42.05 178.6875 42.05 176.26562ZM43.128124 176.26562Q43.128124 178.375 43.628124 179.07812Q44.128124 179.78125 44.846874 179.78125Q45.58125 179.78125 46.065624 179.07812Q46.565624 178.375 46.565624 176.26562Q46.565624 174.14062 46.065624 173.45312Q45.58125 172.75 44.83125 172.75Q44.1125 172.75 43.675 173.35938Q43.128124 174.14062 43.128124 176.26562ZM49.6125 180.5L49.6125 179.29688L50.815624 179.29688L50.815624 180.5Q50.815624 181.15625 50.58125 181.5625Q50.346874 181.98438 49.846874 182.20312L49.55 181.75Q49.878124 181.60938 50.034374 181.3125Q50.190624 181.03125 50.221874 180.5L49.6125 180.5ZM52.05 176.26562Q52.05 174.73438 52.3625 173.8125Q52.675 172.875 53.284374 172.375Q53.909374 171.875 54.846874 171.875Q55.534374 171.875 56.05 172.15625Q56.58125 172.4375 56.925 172.96875Q57.26875 173.48438 57.45625 174.23438Q57.64375 174.98438 57.64375 176.26562Q57.64375 177.78125 57.33125 178.70312Q57.034374 179.625 56.409374 180.14062Q55.8 180.64062 54.846874 180.64062Q53.6125 180.64062 52.89375 179.75Q52.05 178.6875 52.05 176.26562ZM53.128124 176.26562Q53.128124 178.375 53.628124 179.07812Q54.128124 179.78125 54.846874 179.78125Q55.58125 179.78125 56.065624 179.07812Q56.565624 178.375 56.565624 176.26562Q56.565624 174.14062 56.065624 173.45312Q55.58125 172.75 54.83125 172.75Q54.1125 172.75 53.675 173.35938Q53.128124 174.14062 53.128124 176.26562ZM59.05 176.26562Q59.05 174.73438 59.3625 173.8125Q59.675 172.875 60.284374 172.375Q60.909374 171.875 61.846874 171.875Q62.534374 171.875 63.05 172.15625Q63.58125 172.4375 63.925 172.96875Q64.26875 173.48438 64.45625 174.23438Q64.64375 174.98438 64.64375 176.26562Q64.64375 177.78125 64.33125 178.70312Q64.03438 179.625 63.409374 180.14062Q62.8 180.64062 61.846874 180.64062Q60.6125 180.64062 59.89375 179.75Q59.05 178.6875 59.05 176.26562ZM60.128124 176.26562Q60.128124 178.375 60.628124 179.07812Q61.128124 179.78125 61.846874 179.78125Q62.58125 179.78125 63.065624 179.07812Q63.565624 178.375 63.565624 176.26562Q63.565624 174.14062 63.065624 173.45312Q62.58125 172.75 61.83125 172.75Q61.1125 172.75 60.675 173.35938Q60.128124 174.14062 60.128124 176.26562ZM66.05 176.26562Q66.05 174.73438 66.3625 173.8125Q66.675 172.875 67.28438 172.375Q67.90938 171.875 68.84688 171.875Q69.53438 171.875 70.05 172.15625Q70.58125 172.4375 70.925 172.96875Q71.26875 173.48438 71.45625 174.23438Q71.64375 174.98438 71.64375 176.26562Q71.64375 177.78125 71.33125 178.70312Q71.03438 179.625 70.40938 180.14062Q69.8 180.64062 68.84688 180.64062Q67.6125 180.64062 66.89375 179.75Q66.05 178.6875 66.05 176.26562ZM67.12813 176.26562Q67.12813 178.375 67.62813 179.07812Q68.12813 179.78125 68.84688 179.78125Q69.58125 179.78125 70.06563 179.07812Q70.56563 178.375 70.56563 176.26562Q70.56563 174.14062 70.06563 173.45312Q69.58125 172.75 68.83125 172.75Q68.1125 172.75 67.675 173.35938Q67.12813 174.14062 67.12813 176.26562ZM78.64375 179.5625L78.8 180.48438Q78.34688 180.57812 78.00313 180.57812Q77.425 180.57812 77.1125 180.40625Q76.8 180.21875 76.65938 179.92188Q76.53438 179.625 76.53438 178.67188L76.53438 175.09375L75.76875 175.09375L75.76875 174.28125L76.53438 174.28125L76.53438 172.73438L77.58125 172.10938L77.58125 174.28125L78.64375 174.28125L78.64375 175.09375L77.58125 175.09375L77.58125 178.73438Q77.58125 179.1875 77.62813 179.3125Q77.69063 179.4375 77.81563 179.51562Q77.94063 179.59375 78.175 179.59375Q78.3625 179.59375 78.64375 179.5625ZM78.95625 177.39062Q78.95625 175.65625 79.90938 174.82812Q80.70625 174.14062 81.8625 174.14062Q83.14375 174.14062 83.95625 174.98438Q84.78438 175.8125 84.78438 177.29688Q84.78438 178.5 84.425 179.1875Q84.06563 179.875 83.3625 180.26562Q82.675 180.64062 81.8625 180.64062Q80.56563 180.64062 79.75313 179.8125Q78.95625 178.96875 78.95625 177.39062ZM80.03438 177.39062Q80.03438 178.57812 80.55 179.17188Q81.08125 179.76562 81.8625 179.76562Q82.65938 179.76562 83.175 179.17188Q83.69063 178.57812 83.69063 177.35938Q83.69063 176.20312 83.15938 175.60938Q82.64375 175.01562 81.8625 175.01562Q81.08125 175.01562 80.55 175.60938Q80.03438 176.1875 80.03438 177.39062ZM89.05 178.25L90.15938 178.15625Q90.28438 178.96875 90.72188 179.375Q91.175 179.78125 91.81563 179.78125Q92.56563 179.78125 93.09688 179.20312Q93.62813 178.625 93.62813 177.6875Q93.62813 176.78125 93.1125 176.26562Q92.6125 175.73438 91.78438 175.73438Q91.28438 175.73438 90.8625 175.96875Q90.45625 176.20312 90.22188 176.5625L89.2375 176.4375L90.06563 172.03125L94.34688 172.03125L94.34688 173.03125L90.90938 173.03125L90.45625 175.34375Q91.22188 174.79688 92.06563 174.79688Q93.19063 174.79688 93.95625 175.57812Q94.7375 176.35938 94.7375 177.59375Q94.7375 178.75 94.06563 179.60938Q93.2375 180.64062 91.81563 180.64062Q90.64375 180.64062 89.89375 179.98438Q89.15938 179.32812 89.05 178.25ZM96.05 176.26562Q96.05 174.73438 96.3625 173.8125Q96.675 172.875 97.28438 172.375Q97.90938 171.875 98.84688 171.875Q99.53438 171.875 100.05 172.15625Q100.58125 172.4375 100.925 172.96875Q101.26875 173.48438 101.45625 174.23438Q101.64375 174.98438 101.64375 176.26562Q101.64375 177.78125 101.33125 178.70312Q101.03438 179.625 100.40938 180.14062Q99.8 180.64062 98.84688 180.64062Q97.6125 180.64062 96.89375 179.75Q96.05 178.6875 96.05 176.26562ZM97.12813 176.26562Q97.12813 178.375 97.62813 179.07812Q98.12813 179.78125 98.84688 179.78125Q99.58125 179.78125 100.06563 179.07812Q100.56563 178.375 100.56563 176.26562Q100.56563 174.14062 100.06563 173.45312Q99.58125 172.75 98.83125 172.75Q98.1125 172.75 97.675 173.35938Q97.12813 174.14062 97.12813 176.26562ZM103.6125 180.5L103.6125 179.29688L104.81563 179.29688L104.81563 180.5Q104.81563 181.15625 104.58125 181.5625Q104.34688 181.98438 103.84688 182.20312L103.55 181.75Q103.87813 181.60938 104.03438 181.3125Q104.19063 181.03125 104.22188 180.5L103.6125 180.5ZM106.05 176.26562Q106.05 174.73438 106.3625 173.8125Q106.675 172.875 107.28438 172.375Q107.90938 171.875 108.84688 171.875Q109.53438 171.875 110.05 172.15625Q110.58125 172.4375 110.925 172.96875Q111.26875 173.48438 111.45625 174.23438Q111.64375 174.98438 111.64375 176.26562Q111.64375 177.78125 111.33125 178.70312Q111.03438 179.625 110.40938 180.14062Q109.8 180.64062 108.84688 180.64062Q107.6125 180.64062 106.89375 179.75Q106.05 178.6875 106.05 176.26562ZM107.12813 176.26562Q107.12813 178.375 107.62813 179.07812Q108.12813 179.78125 108.84688 179.78125Q109.58125 179.78125 110.06563 179.07812Q110.56563 178.375 110.56563 176.26562Q110.56563 174.14062 110.06563 173.45312Q109.58125 172.75 108.83125 172.75Q108.1125 172.75 107.675 173.35938Q107.12813 174.14062 107.12813 176.26562ZM113.05 176.26562Q113.05 174.73438 113.3625 173.8125Q113.675 172.875 114.28438 172.375Q114.90938 171.875 115.84688 171.875Q116.53438 171.875 117.05 172.15625Q117.58125 172.4375 117.925 172.96875Q118.26875 173.48438 118.45625 174.23438Q118.64375 174.98438 118.64375 176.26562Q118.64375 177.78125 118.33125 178.70312Q118.03438 179.625 117.40938 180.14062Q116.8 180.64062 115.84688 180.64062Q114.6125 180.64062 113.89375 179.75Q113.05 178.6875 113.05 176.26562ZM114.12813 176.26562Q114.12813 178.375 114.62813 179.07812Q115.12813 179.78125 115.84688 179.78125Q116.58125 179.78125 117.06563 179.07812Q117.56563 178.375 117.56563 176.26562Q117.56563 174.14062 117.06563 173.45312Q116.58125 172.75 115.83125 172.75Q115.1125 172.75 114.675 173.35938Q114.12813 174.14062 114.12813 176.26562ZM120.05 176.26562Q120.05 174.73438 120.3625 173.8125Q120.675 172.875 121.28438 172.375Q121.90938 171.875 122.84688 171.875Q123.53438 171.875 124.05 172.15625Q124.58125 172.4375 124.925 172.96875Q125.26875 173.48438 125.45625 174.23438Q125.64375 174.98438 125.64375 176.26562Q125.64375 177.78125 125.33125 178.70312Q125.03438 179.625 124.40938 180.14062Q123.8 180.64062 122.84688 180.64062Q121.6125 180.64062 120.89375 179.75Q120.05 178.6875 120.05 176.26562ZM121.12813 176.26562Q121.12813 178.375 121.62813 179.07812Q122.12813 179.78125 122.84688 179.78125Q123.58125 179.78125 124.06563 179.07812Q124.56563 178.375 124.56563 176.26562Q124.56563 174.14062 124.06563 173.45312Q123.58125 172.75 122.83125 172.75Q122.1125 172.75 121.675 173.35938Q121.12813 174.14062 121.12813 176.26562Z" fill-rule="nonzero"/><path fill="#000000" d="M42.05 212.0361L43.159374 211.94235Q43.284374 212.75485 43.721874 213.1611Q44.175 213.56735 44.815624 213.56735Q45.565624 213.56735 46.096874 212.98923Q46.628124 212.4111 46.628124 211.4736Q46.628124 210.56735 46.1125 210.05173Q45.6125 209.52048 44.784374 209.52048Q44.284374 209.52048 43.8625 209.75485Q43.45625 209.98923 43.221874 210.3486L42.2375 210.2236L43.065624 205.81735L47.346874 205.81735L47.346874 206.81735L43.909374 206.81735L43.45625 209.12985Q44.221874 208.58298 45.065624 208.58298Q46.190624 208.58298 46.95625 209.36423Q47.7375 210.14548 47.7375 211.37985Q47.7375 212.5361 47.065624 213.39548Q46.2375 214.42673 44.815624 214.42673Q43.64375 214.42673 42.89375 213.77048Q42.159374 213.11423 42.05 212.0361ZM49.6125 214.2861L49.6125 213.08298L50.815624 213.08298L50.815624 214.2861Q50.815624 214.94235 50.58125 215.3486Q50.346874 215.77048 49.846874 215.98923L49.55 215.5361Q49.878124 215.39548 50.034374 215.0986Q50.190624 214.81735 50.221874 214.2861L49.6125 214.2861ZM52.05 210.05173Q52.05 208.52048 52.3625 207.5986Q52.675 206.6611 53.284374 206.1611Q53.909374 205.6611 54.846874 205.6611Q55.534374 205.6611 56.05 205.94235Q56.58125 206.2236 56.925 206.75485Q57.26875 207.27048 57.45625 208.02048Q57.64375 208.77048 57.64375 210.05173Q57.64375 211.56735 57.33125 212.48923Q57.034374 213.4111 56.409374 213.92673Q55.8 214.42673 54.846874 214.42673Q53.6125 214.42673 52.89375 213.5361Q52.05 212.4736 52.05 210.05173ZM53.128124 210.05173Q53.128124 212.1611 53.628124 212.86423Q54.128124 213.56735 54.846874 213.56735Q55.58125 213.56735 56.065624 212.86423Q56.565624 212.1611 56.565624 210.05173Q56.565624 207.92673 56.065624 207.23923Q55.58125 206.5361 54.83125 206.5361Q54.1125 206.5361 53.675 207.14548Q53.128124 207.92673 53.128124 210.05173ZM59.05 210.05173Q59.05 208.52048 59.3625 207.5986Q59.675 206.6611 60.284374 206.1611Q60.909374 205.6611 61.846874 205.6611Q62.534374 205.6611 63.05 205.94235Q63.58125 206.2236 63.925 206.75485Q64.26875 207.27048 64.45625 208.02048Q64.64375 208.77048 64.64375 210.05173Q64.64375 211.56735 64.33125 212.48923Q64.03438 213.4111 63.409374 213.92673Q62.8 214.42673 61.846874 214.42673Q60.6125 214.42673 59.89375 213.5361Q59.05 212.4736 59.05 210.05173ZM60.128124 210.05173Q60.128124 212.1611 60.628124 212.86423Q61.128124 213.56735 61.846874 213.56735Q62.58125 213.56735 63.065624 212.86423Q63.565624 212.1611 63.565624 210.05173Q63.565624 207.92673 63.065624 207.23923Q62.58125 206.5361 61.83125 206.5361Q61.1125 206.5361 60.675 207.14548Q60.128124 207.92673 60.128124 210.05173ZM66.05 210.05173Q66.05 208.52048 66.3625 207.5986Q66.675 206.6611 67.28438 206.1611Q67.90938 205.6611 68.84688 205.6611Q69.53438 205.6611 70.05 205.94235Q70.58125 206.2236 70.925 206.75485Q71.26875 207.27048 71.45625 208.02048Q71.64375 208.77048 71.64375 210.05173Q71.64375 211.56735 71.33125 212.48923Q71.03438 213.4111 70.40938 213.92673Q69.8 214.42673 68.84688 214.42673Q67.6125 214.42673 66.89375 213.5361Q66.05 212.4736 66.05 210.05173ZM67.12813 210.05173Q67.12813 212.1611 67.62813 212.86423Q68.12813 213.56735 68.84688 213.56735Q69.58125 213.56735 70.06563 212.86423Q70.56563 212.1611 70.56563 210.05173Q70.56563 207.92673 70.06563 207.23923Q69.58125 206.5361 68.83125 206.5361Q68.1125 206.5361 67.675 207.14548Q67.12813 207.92673 67.12813 210.05173ZM78.64375 213.3486L78.8 214.27048Q78.34688 214.36423 78.00313 214.36423Q77.425 214.36423 77.1125 214.19235Q76.8 214.00485 76.65938 213.70798Q76.53438 213.4111 76.53438 212.45798L76.53438 208.87985L75.76875 208.87985L75.76875 208.06735L76.53438 208.06735L76.53438 206.52048L77.58125 205.89548L77.58125 208.06735L78.64375 208.06735L78.64375 208.87985L77.58125 208.87985L77.58125 212.52048Q77.58125 212.9736 77.62813 213.0986Q77.69063 213.2236 77.81563 213.30173Q77.94063 213.37985 78.175 213.37985Q78.3625 213.37985 78.64375 213.3486ZM78.95625 211.17673Q78.95625 209.44235 79.90938 208.61423Q80.70625 207.92673 81.8625 207.92673Q83.14375 207.92673 83.95625 208.77048Q84.78438 209.5986 84.78438 211.08298Q84.78438 212.2861 84.425 212.9736Q84.06563 213.6611 83.3625 214.05173Q82.675 214.42673 81.8625 214.42673Q80.56563 214.42673 79.75313 213.5986Q78.95625 212.75485 78.95625 211.17673ZM80.03438 211.17673Q80.03438 212.36423 80.55 212.95798Q81.08125 213.55173 81.8625 213.55173Q82.65938 213.55173 83.175 212.95798Q83.69063 212.36423 83.69063 211.14548Q83.69063 209.98923 83.15938 209.39548Q82.64375 208.80173 81.8625 208.80173Q81.08125 208.80173 80.55 209.39548Q80.03438 209.9736 80.03438 211.17673ZM94.59688 213.27048L94.59688 214.2861L88.90938 214.2861Q88.90938 213.9111 89.03438 213.55173Q89.25313 212.9736 89.72188 212.4111Q90.20625 211.8486 91.1125 211.11423Q92.51875 209.95798 93.00313 209.2861Q93.50313 208.61423 93.50313 208.02048Q93.50313 207.39548 93.05 206.9736Q92.59688 206.5361 91.87813 206.5361Q91.1125 206.5361 90.65938 206.98923Q90.20625 207.44235 90.19063 208.25485L89.1125 208.14548Q89.22188 206.92673 89.94063 206.30173Q90.675 205.6611 91.90938 205.6611Q93.14375 205.6611 93.8625 206.3486Q94.58125 207.0361 94.58125 208.05173Q94.58125 208.56735 94.3625 209.06735Q94.15938 209.55173 93.65938 210.11423Q93.175 210.6611 92.05 211.61423Q91.09688 212.4111 90.81563 212.70798Q90.55 212.98923 90.37813 213.27048L94.59688 213.27048ZM96.05 210.05173Q96.05 208.52048 96.3625 207.5986Q96.675 206.6611 97.28438 206.1611Q97.90938 205.6611 98.84688 205.6611Q99.53438 205.6611 100.05 205.94235Q100.58125 206.2236 100.925 206.75485Q101.26875 207.27048 101.45625 208.02048Q101.64375 208.77048 101.64375 210.05173Q101.64375 211.56735 101.33125 212.48923Q101.03438 213.4111 100.40938 213.92673Q99.8 214.42673 98.84688 214.42673Q97.6125 214.42673 96.89375 213.5361Q96.05 212.4736 96.05 210.05173ZM97.12813 210.05173Q97.12813 212.1611 97.62813 212.86423Q98.12813 213.56735 98.84688 213.56735Q99.58125 213.56735 100.06563 212.86423Q100.56563 212.1611 100.56563 210.05173Q100.56563 207.92673 100.06563 207.23923Q99.58125 206.5361 98.83125 206.5361Q98.1125 206.5361 97.675 207.14548Q97.12813 207.92673 97.12813 210.05173ZM103.6125 214.2861L103.6125 213.08298L104.81563 213.08298L104.81563 214.2861Q104.81563 214.94235 104.58125 215.3486Q104.34688 215.77048 103.84688 215.98923L103.55 215.5361Q103.87813 215.39548 104.03438 215.0986Q104.19063 214.81735 104.22188 214.2861L103.6125 214.2861ZM106.05 210.05173Q106.05 208.52048 106.3625 207.5986Q106.675 206.6611 107.28438 206.1611Q107.90938 205.6611 108.84688 205.6611Q109.53438 205.6611 110.05 205.94235Q110.58125 206.2236 110.925 206.75485Q111.26875 207.27048 111.45625 208.02048Q111.64375 208.77048 111.64375 210.05173Q111.64375 211.56735 111.33125 212.48923Q111.03438 213.4111 110.40938 213.92673Q109.8 214.42673 108.84688 214.42673Q107.6125 214.42673 106.89375 213.5361Q106.05 212.4736 106.05 210.05173ZM107.12813 210.05173Q107.12813 212.1611 107.62813 212.86423Q108.12813 213.56735 108.84688 213.56735Q109.58125 213.56735 110.06563 212.86423Q110.56563 212.1611 110.56563 210.05173Q110.56563 207.92673 110.06563 207.23923Q109.58125 206.5361 108.83125 206.5361Q108.1125 206.5361 107.675 207.14548Q107.12813 207.92673 107.12813 210.05173ZM113.05 210.05173Q113.05 208.52048 113.3625 207.5986Q113.675 206.6611 114.28438 206.1611Q114.90938 205.6611 115.84688 205.6611Q116.53438 205.6611 117.05 205.94235Q117.58125 206.2236 117.925 206.75485Q118.26875 207.27048 118.45625 208.02048Q118.64375 208.77048 118.64375 210.05173Q118.64375 211.56735 118.33125 212.48923Q118.03438 213.4111 117.40938 213.92673Q116.8 214.42673 115.84688 214.42673Q114.6125 214.42673 113.89375 213.5361Q113.05 212.4736 113.05 210.05173ZM114.12813 210.05173Q114.12813 212.1611 114.62813 212.86423Q115.12813 213.56735 115.84688 213.56735Q116.58125 213.56735 117.06563 212.86423Q117.56563 212.1611 117.56563 210.05173Q117.56563 207.92673 117.06563 207.23923Q116.58125 206.5361 115.83125 206.5361Q115.1125 206.5361 114.675 207.14548Q114.12813 207.92673 114.12813 210.05173ZM120.05 210.05173Q120.05 208.52048 120.3625 207.5986Q120.675 206.6611 121.28438 206.1611Q121.90938 205.6611 122.84688 205.6611Q123.53438 205.6611 124.05 205.94235Q124.58125 206.2236 124.925 206.75485Q125.26875 207.27048 125.45625 208.02048Q125.64375 208.77048 125.64375 210.05173Q125.64375 211.56735 125.33125 212.48923Q125.03438 213.4111 124.40938 213.92673Q123.8 214.42673 122.84688 214.42673Q121.6125 214.42673 120.89375 213.5361Q120.05 212.4736 120.05 210.05173ZM121.12813 210.05173Q121.12813 212.1611 121.62813 212.86423Q122.12813 213.56735 122.84688 213.56735Q123.58125 213.56735 124.06563 212.86423Q124.56563 212.1611 124.56563 210.05173Q124.56563 207.92673 124.06563 207.23923Q123.58125 206.5361 122.83125 206.5361Q122.1125 206.5361 121.675 207.14548Q121.12813 207.92673 121.12813 210.05173Z" fill-rule="nonzero"/><path fill="#000000" d="M53.01875 248.07219L51.971874 248.07219L51.971874 241.35344Q51.58125 241.71281 50.95625 242.08781Q50.346874 242.44719 49.8625 242.61906L49.8625 241.60344Q50.7375 241.18156 51.39375 240.60344Q52.065624 240.00969 52.346874 239.44719L53.01875 239.44719L53.01875 248.07219ZM56.6125 248.07219L56.6125 246.86906L57.815624 246.86906L57.815624 248.07219Q57.815624 248.72844 57.58125 249.13469Q57.346874 249.55656 56.846874 249.77531L56.55 249.32219Q56.878124 249.18156 57.034374 248.88469Q57.190624 248.60344 57.221874 248.07219L56.6125 248.07219ZM59.05 243.83781Q59.05 242.30656 59.3625 241.38469Q59.675 240.44719 60.284374 239.94719Q60.909374 239.44719 61.846874 239.44719Q62.534374 239.44719 63.05 239.72844Q63.58125 240.00969 63.925 240.54094Q64.26875 241.05656 64.45625 241.80656Q64.64375 242.55656 64.64375 243.83781Q64.64375 245.35344 64.33125 246.27531Q64.03438 247.19719 63.409374 247.71281Q62.8 248.21281 61.846874 248.21281Q60.6125 248.21281 59.89375 247.32219Q59.05 246.25969 59.05 243.83781ZM60.128124 243.83781Q60.128124 245.94719 60.628124 246.65031Q61.128124 247.35344 61.846874 247.35344Q62.58125 247.35344 63.065624 246.65031Q63.565624 245.94719 63.565624 243.83781Q63.565624 241.71281 63.065624 241.02531Q62.58125 240.32219 61.83125 240.32219Q61.1125 240.32219 60.675 240.93156Q60.128124 241.71281 60.128124 243.83781ZM66.05 243.83781Q66.05 242.30656 66.3625 241.38469Q66.675 240.44719 67.28438 239.94719Q67.90938 239.44719 68.84688 239.44719Q69.53438 239.44719 70.05 239.72844Q70.58125 240.00969 70.925 240.54094Q71.26875 241.05656 71.45625 241.80656Q71.64375 242.55656 71.64375 243.83781Q71.64375 245.35344 71.33125 246.27531Q71.03438 247.19719 70.40938 247.71281Q69.8 248.21281 68.84688 248.21281Q67.6125 248.21281 66.89375 247.32219Q66.05 246.25969 66.05 243.83781ZM67.12813 243.83781Q67.12813 245.94719 67.62813 246.65031Q68.12813 247.35344 68.84688 247.35344Q69.58125 247.35344 70.06563 246.65031Q70.56563 245.94719 70.56563 243.83781Q70.56563 241.71281 70.06563 241.02531Q69.58125 240.32219 68.83125 240.32219Q68.1125 240.32219 67.675 240.93156Q67.12813 241.71281 67.12813 243.83781ZM73.05 243.83781Q73.05 242.30656 73.3625 241.38469Q73.675 240.44719 74.28438 239.94719Q74.90938 239.44719 75.84688 239.44719Q76.53438 239.44719 77.05 239.72844Q77.58125 240.00969 77.925 240.54094Q78.26875 241.05656 78.45625 241.80656Q78.64375 242.55656 78.64375 243.83781Q78.64375 245.35344 78.33125 246.27531Q78.03438 247.19719 77.40938 247.71281Q76.8 248.21281 75.84688 248.21281Q74.6125 248.21281 73.89375 247.32219Q73.05 246.25969 73.05 243.83781ZM74.12813 243.83781Q74.12813 245.94719 74.62813 246.65031Q75.12813 247.35344 75.84688 247.35344Q76.58125 247.35344 77.06563 246.65031Q77.56563 245.94719 77.56563 243.83781Q77.56563 241.71281 77.06563 241.02531Q76.58125 240.32219 75.83125 240.32219Q75.1125 240.32219 74.675 240.93156Q74.12813 241.71281 74.12813 243.83781ZM85.64375 247.13469L85.8 248.05656Q85.34688 248.15031 85.00313 248.15031Q84.425 248.15031 84.1125 247.97844Q83.8 247.79094 83.65938 247.49406Q83.53438 247.19719 83.53438 246.24406L83.53438 242.66594L82.76875 242.66594L82.76875 241.85344L83.53438 241.85344L83.53438 240.30656L84.58125 239.68156L84.58125 241.85344L85.64375 241.85344L85.64375 242.66594L84.58125 242.66594L84.58125 246.30656Q84.58125 246.75969 84.62813 246.88469Q84.69063 247.00969 84.81563 247.08781Q84.94063 247.16594 85.175 247.16594Q85.3625 247.16594 85.64375 247.13469ZM85.95625 244.96281Q85.95625 243.22844 86.90938 242.40031Q87.70625 241.71281 88.8625 241.71281Q90.14375 241.71281 90.95625 242.55656Q91.78438 243.38469 91.78438 244.86906Q91.78438 246.07219 91.425 246.75969Q91.06563 247.44719 90.3625 247.83781Q89.675 248.21281 88.8625 248.21281Q87.56563 248.21281 86.75313 247.38469Q85.95625 246.54094 85.95625 244.96281ZM87.03438 244.96281Q87.03438 246.15031 87.55 246.74406Q88.08125 247.33781 88.8625 247.33781Q89.65938 247.33781 90.175 246.74406Q90.69063 246.15031 90.69063 244.93156Q90.69063 243.77531 90.15938 243.18156Q89.64375 242.58781 88.8625 242.58781Q88.08125 242.58781 87.55 243.18156Q87.03438 243.75969 87.03438 244.96281ZM96.05 245.82219L97.15938 245.72844Q97.28438 246.54094 97.72188 246.94719Q98.175 247.35344 98.81563 247.35344Q99.56563 247.35344 100.09688 246.77531Q100.62813 246.19719 100.62813 245.25969Q100.62813 244.35344 100.1125 243.83781Q99.6125 243.30656 98.78438 243.30656Q98.28438 243.30656 97.8625 243.54094Q97.45625 243.77531 97.22188 244.13469L96.2375 244.00969L97.06563 239.60344L101.34688 239.60344L101.34688 240.60344L97.90938 240.60344L97.45625 242.91594Q98.22188 242.36906 99.06563 242.36906Q100.19063 242.36906 100.95625 243.15031Q101.7375 243.93156 101.7375 245.16594Q101.7375 246.32219 101.06563 247.18156Q100.2375 248.21281 98.81563 248.21281Q97.64375 248.21281 96.89375 247.55656Q96.15938 246.90031 96.05 245.82219ZM103.6125 248.07219L103.6125 246.86906L104.81563 246.86906L104.81563 248.07219Q104.81563 248.72844 104.58125 249.13469Q104.34688 249.55656 103.84688 249.77531L103.55 249.32219Q103.87813 249.18156 104.03438 248.88469Q104.19063 248.60344 104.22188 248.07219L103.6125 248.07219ZM106.05 243.83781Q106.05 242.30656 106.3625 241.38469Q106.675 240.44719 107.28438 239.94719Q107.90938 239.44719 108.84688 239.44719Q109.53438 239.44719 110.05 239.72844Q110.58125 240.00969 110.925 240.54094Q111.26875 241.05656 111.45625 241.80656Q111.64375 242.55656 111.64375 243.83781Q111.64375 245.35344 111.33125 246.27531Q111.03438 247.19719 110.40938 247.71281Q109.8 248.21281 108.84688 248.21281Q107.6125 248.21281 106.89375 247.32219Q106.05 246.25969 106.05 243.83781ZM107.12813 243.83781Q107.12813 245.94719 107.62813 246.65031Q108.12813 247.35344 108.84688 247.35344Q109.58125 247.35344 110.06563 246.65031Q110.56563 245.94719 110.56563 243.83781Q110.56563 241.71281 110.06563 241.02531Q109.58125 240.32219 108.83125 240.32219Q108.1125 240.32219 107.675 240.93156Q107.12813 241.71281 107.12813 243.83781ZM113.05 243.83781Q113.05 242.30656 113.3625 241.38469Q113.675 240.44719 114.28438 239.94719Q114.90938 239.44719 115.84688 239.44719Q116.53438 239.44719 117.05 239.72844Q117.58125 240.00969 117.925 240.54094Q118.26875 241.05656 118.45625 241.80656Q118.64375 242.55656 118.64375 243.83781Q118.64375 245.35344 118.33125 246.27531Q118.03438 247.19719 117.40938 247.71281Q116.8 248.21281 115.84688 248.21281Q114.6125 248.21281 113.89375 247.32219Q113.05 246.25969 113.05 243.83781ZM114.12813 243.83781Q114.12813 245.94719 114.62813 246.65031Q115.12813 247.35344 115.84688 247.35344Q116.58125 247.35344 117.06563 246.65031Q117.56563 245.94719 117.56563 243.83781Q117.56563 241.71281 117.06563 241.02531Q116.58125 240.32219 115.83125 240.32219Q115.1125 240.32219 114.675 240.93156Q114.12813 241.71281 114.12813 243.83781ZM120.05 243.83781Q120.05 242.30656 120.3625 241.38469Q120.675 240.44719 121.28438 239.94719Q121.90938 239.44719 122.84688 239.44719Q123.53438 239.44719 124.05 239.72844Q124.58125 240.00969 124.925 240.54094Q125.26875 241.05656 125.45625 241.80656Q125.64375 242.55656 125.64375 243.83781Q125.64375 245.35344 125.33125 246.27531Q125.03438 247.19719 124.40938 247.71281Q123.8 248.21281 122.84688 248.21281Q121.6125 248.21281 120.89375 247.32219Q120.05 246.25969 120.05 243.83781ZM121.12813 243.83781Q121.12813 245.94719 121.62813 246.65031Q122.12813 247.35344 122.84688 247.35344Q123.58125 247.35344 124.06563 246.65031Q124.56563 245.94719 124.56563 243.83781Q124.56563 241.71281 124.06563 241.02531Q123.58125 240.32219 122.83125 240.32219Q122.1125 240.32219 121.675 240.93156Q121.12813 241.71281 121.12813 243.83781Z" fill-rule="nonzero"/><path fill="#000000" d="M70.1125 273.26453L71.25313 273.26453L71.25313 278.23328Q71.25313 279.53015 70.95625 280.29578Q70.65938 281.04578 69.89375 281.53015Q69.12813 281.9989 67.89375 281.9989Q66.69063 281.9989 65.90938 281.59265Q65.14375 281.17078 64.81563 280.38953Q64.4875 279.59265 64.4875 278.23328L64.4875 273.26453L65.62813 273.26453L65.62813 278.21765Q65.62813 279.34265 65.83125 279.8739Q66.05 280.40515 66.55 280.70203Q67.06563 280.98328 67.8 280.98328Q69.05 280.98328 69.58125 280.42078Q70.1125 279.84265 70.1125 278.21765L70.1125 273.26453ZM73.34688 284.2489L73.34688 275.63953L74.3 275.63953L74.3 276.4364Q74.64375 275.96765 75.06563 275.73328Q75.50313 275.4989 76.1125 275.4989Q76.90938 275.4989 77.51875 275.90515Q78.12813 276.3114 78.425 277.0614Q78.7375 277.8114 78.7375 278.70203Q78.7375 279.65515 78.39375 280.42078Q78.06563 281.1864 77.40938 281.59265Q76.75313 281.9989 76.03438 281.9989Q75.50313 281.9989 75.08125 281.78015Q74.65938 281.54578 74.39375 281.21765L74.39375 284.2489L73.34688 284.2489ZM74.3 278.78015Q74.3 279.98328 74.78438 280.5614Q75.26875 281.1239 75.95625 281.1239Q76.65938 281.1239 77.15938 280.53015Q77.65938 279.9364 77.65938 278.6864Q77.65938 277.4989 77.175 276.92078Q76.69063 276.32703 76.00313 276.32703Q75.33125 276.32703 74.81563 276.95203Q74.3 277.57703 74.3 278.78015ZM85.64375 280.92078L85.8 281.84265Q85.34688 281.9364 85.00313 281.9364Q84.425 281.9364 84.1125 281.76453Q83.8 281.57703 83.65938 281.28015Q83.53438 280.98328 83.53438 280.03015L83.53438 276.45203L82.76875 276.45203L82.76875 275.63953L83.53438 275.63953L83.53438 274.09265L84.58125 273.46765L84.58125 275.63953L85.64375 275.63953L85.64375 276.45203L84.58125 276.45203L84.58125 280.09265Q84.58125 280.54578 84.62813 280.67078Q84.69063 280.79578 84.81563 280.8739Q84.94063 280.95203 85.175 280.95203Q85.3625 280.95203 85.64375 280.92078ZM85.95625 278.7489Q85.95625 277.01453 86.90938 276.1864Q87.70625 275.4989 88.8625 275.4989Q90.14375 275.4989 90.95625 276.34265Q91.78438 277.17078 91.78438 278.65515Q91.78438 279.85828 91.425 280.54578Q91.06563 281.23328 90.3625 281.6239Q89.675 281.9989 88.8625 281.9989Q87.56563 281.9989 86.75313 281.17078Q85.95625 280.32703 85.95625 278.7489ZM87.03438 278.7489Q87.03438 279.9364 87.55 280.53015Q88.08125 281.1239 88.8625 281.1239Q89.65938 281.1239 90.175 280.53015Q90.69063 279.9364 90.69063 278.71765Q90.69063 277.5614 90.15938 276.96765Q89.64375 276.3739 88.8625 276.3739Q88.08125 276.3739 87.55 276.96765Q87.03438 277.54578 87.03438 278.7489ZM100.01875 281.85828L98.97188 281.85828L98.97188 275.13953Q98.58125 275.4989 97.95625 275.8739Q97.34688 276.23328 96.8625 276.40515L96.8625 275.38953Q97.7375 274.96765 98.39375 274.38953Q99.06563 273.79578 99.34688 273.23328L100.01875 273.23328L100.01875 281.85828ZM103.6125 281.85828L103.6125 280.65515L104.81563 280.65515L104.81563 281.85828Q104.81563 282.51453 104.58125 282.92078Q104.34688 283.34265 103.84688 283.5614L103.55 283.10828Q103.87813 282.96765 104.03438 282.67078Q104.19063 282.38953 104.22188 281.85828L103.6125 281.85828ZM106.05 277.6239Q106.05 276.09265 106.3625 275.17078Q106.675 274.23328 107.28438 273.73328Q107.90938 273.23328 108.84688 273.23328Q109.53438 273.23328 110.05 273.51453Q110.58125 273.79578 110.925 274.32703Q111.26875 274.84265 111.45625 275.59265Q111.64375 276.34265 111.64375 277.6239Q111.64375 279.13953 111.33125 280.0614Q111.03438 280.98328 110.40938 281.4989Q109.8 281.9989 108.84688 281.9989Q107.6125 281.9989 106.89375 281.10828Q106.05 280.04578 106.05 277.6239ZM107.12813 277.6239Q107.12813 279.73328 107.62813 280.4364Q108.12813 281.13953 108.84688 281.13953Q109.58125 281.13953 110.06563 280.4364Q110.56563 279.73328 110.56563 277.6239Q110.56563 275.4989 110.06563 274.8114Q109.58125 274.10828 108.83125 274.10828Q108.1125 274.10828 107.675 274.71765Q107.12813 275.4989 107.12813 277.6239ZM113.05 277.6239Q113.05 276.09265 113.3625 275.17078Q113.675 274.23328 114.28438 273.73328Q114.90938 273.23328 115.84688 273.23328Q116.53438 273.23328 117.05 273.51453Q117.58125 273.79578 117.925 274.32703Q118.26875 274.84265 118.45625 275.59265Q118.64375 276.34265 118.64375 277.6239Q118.64375 279.13953 118.33125 280.0614Q118.03438 280.98328 117.40938 281.4989Q116.8 281.9989 115.84688 281.9989Q114.6125 281.9989 113.89375 281.10828Q113.05 280.04578 113.05 277.6239ZM114.12813 277.6239Q114.12813 279.73328 114.62813 280.4364Q115.12813 281.13953 115.84688 281.13953Q116.58125 281.13953 117.06563 280.4364Q117.56563 279.73328 117.56563 277.6239Q117.56563 275.4989 117.06563 274.8114Q116.58125 274.10828 115.83125 274.10828Q115.1125 274.10828 114.675 274.71765Q114.12813 275.4989 114.12813 277.6239ZM120.05 277.6239Q120.05 276.09265 120.3625 275.17078Q120.675 274.23328 121.28438 273.73328Q121.90938 273.23328 122.84688 273.23328Q123.53438 273.23328 124.05 273.51453Q124.58125 273.79578 124.925 274.32703Q125.26875 274.84265 125.45625 275.59265Q125.64375 276.34265 125.64375 277.6239Q125.64375 279.13953 125.33125 280.0614Q125.03438 280.98328 124.40938 281.4989Q123.8 281.9989 122.84688 281.9989Q121.6125 281.9989 120.89375 281.10828Q120.05 280.04578 120.05 277.6239ZM121.12813 277.6239Q121.12813 279.73328 121.62813 280.4364Q122.12813 281.13953 122.84688 281.13953Q123.58125 281.13953 124.06563 280.4364Q124.56563 279.73328 124.56563 277.6239Q124.56563 275.4989 124.06563 274.8114Q123.58125 274.10828 122.83125 274.10828Q122.1125 274.10828 121.675 274.71765Q121.12813 275.4989 121.12813 277.6239Z" fill-rule="nonzero"/><path fill="#000000" d="M55.675 315.64438L55.675 307.05063L56.8 307.05063L56.8 315.64438L55.675 315.64438ZM65.40938 314.87875Q64.81563 315.37875 64.26875 315.58188Q63.7375 315.785 63.1125 315.785Q62.08125 315.785 61.534374 315.285Q60.9875 314.785 60.9875 314.00375Q60.9875 313.55063 61.190624 313.17563Q61.39375 312.785 61.7375 312.56625Q62.08125 312.33188 62.503124 312.2225Q62.8 312.12875 63.440624 312.05063Q64.70625 311.91 65.31563 311.69125Q65.31563 311.4725 65.31563 311.42563Q65.31563 310.76938 65.01875 310.50375Q64.6125 310.16 63.815624 310.16Q63.08125 310.16 62.721874 310.42563Q62.3625 310.67563 62.190624 311.33188L61.159374 311.19125Q61.3 310.535 61.628124 310.12875Q61.95625 309.7225 62.565624 309.50375Q63.175 309.285 63.971874 309.285Q64.76875 309.285 65.26875 309.4725Q65.76875 309.66 66.00313 309.94125Q66.2375 310.2225 66.33125 310.66Q66.37813 310.92563 66.37813 311.62875L66.37813 313.035Q66.37813 314.50375 66.44063 314.89438Q66.51875 315.285 66.72188 315.64438L65.6125 315.64438Q65.45625 315.31625 65.40938 314.87875ZM65.31563 312.51938Q64.7375 312.75375 63.596874 312.92563Q62.940624 313.01938 62.675 313.14438Q62.409374 313.25375 62.253124 313.4725Q62.1125 313.69125 62.1125 313.9725Q62.1125 314.39438 62.425 314.67563Q62.753124 314.95688 63.3625 314.95688Q63.971874 314.95688 64.44063 314.69125Q64.925 314.42563 65.14375 313.95688Q65.31563 313.5975 65.31563 312.91L65.31563 312.51938ZM68.34688 315.64438L68.34688 309.42563L69.28438 309.42563L69.28438 310.30063Q69.58125 309.83188 70.06563 309.56625Q70.55 309.285 71.175 309.285Q71.8625 309.285 72.3 309.56625Q72.75313 309.8475 72.925 310.36313Q73.675 309.285 74.84688 309.285Q75.78438 309.285 76.26875 309.80063Q76.76875 310.30063 76.76875 311.37875L76.76875 315.64438L75.72188 315.64438L75.72188 311.7225Q75.72188 311.0975 75.6125 310.81625Q75.51875 310.535 75.25313 310.36313Q74.9875 310.19125 74.6125 310.19125Q73.95625 310.19125 73.51875 310.62875Q73.09688 311.06625 73.09688 312.035L73.09688 315.64438L72.03438 315.64438L72.03438 311.5975Q72.03438 310.89438 71.76875 310.55063Q71.51875 310.19125 70.94063 310.19125Q70.4875 310.19125 70.1125 310.42563Q69.7375 310.66 69.56563 311.11313Q69.39375 311.56625 69.39375 312.41L69.39375 315.64438L68.34688 315.64438ZM82.34688 315.64438L82.34688 309.42563L83.28438 309.42563L83.28438 310.30063Q83.97188 309.285 85.26875 309.285Q85.83125 309.285 86.3 309.48813Q86.78438 309.69125 87.01875 310.01938Q87.25313 310.3475 87.34688 310.785Q87.39375 311.08188 87.39375 311.81625L87.39375 315.64438L86.34688 315.64438L86.34688 311.86313Q86.34688 311.20688 86.22188 310.89438Q86.09688 310.58188 85.78438 310.39438Q85.47188 310.19125 85.05 310.19125Q84.37813 310.19125 83.87813 310.62875Q83.39375 311.05063 83.39375 312.23813L83.39375 315.64438L82.34688 315.64438ZM88.95625 312.535Q88.95625 310.80063 89.90938 309.9725Q90.70625 309.285 91.8625 309.285Q93.14375 309.285 93.95625 310.12875Q94.78438 310.95688 94.78438 312.44125Q94.78438 313.64438 94.425 314.33188Q94.06563 315.01938 93.3625 315.41Q92.675 315.785 91.8625 315.785Q90.56563 315.785 89.75313 314.95688Q88.95625 314.11313 88.95625 312.535ZM90.03438 312.535Q90.03438 313.7225 90.55 314.31625Q91.08125 314.91 91.8625 314.91Q92.65938 314.91 93.175 314.31625Q93.69063 313.7225 93.69063 312.50375Q93.69063 311.3475 93.15938 310.75375Q92.64375 310.16 91.8625 310.16Q91.08125 310.16 90.55 310.75375Q90.03438 311.33188 90.03438 312.535ZM98.64375 314.70688L98.8 315.62875Q98.34688 315.7225 98.00313 315.7225Q97.425 315.7225 97.1125 315.55063Q96.8 315.36313 96.65938 315.06625Q96.53438 314.76938 96.53438 313.81625L96.53438 310.23813L95.76875 310.23813L95.76875 309.42563L96.53438 309.42563L96.53438 307.87875L97.58125 307.25375L97.58125 309.42563L98.64375 309.42563L98.64375 310.23813L97.58125 310.23813L97.58125 313.87875Q97.58125 314.33188 97.62813 314.45688Q97.69063 314.58188 97.81563 314.66Q97.94063 314.73813 98.175 314.73813Q98.3625 314.73813 98.64375 314.70688ZM101.925 313.785L102.95625 313.62875Q103.05 314.25375 103.44063 314.58188Q103.84688 314.91 104.58125 314.91Q105.3 314.91 105.64375 314.62875Q106.00313 314.33188 106.00313 313.92563Q106.00313 313.56625 105.69063 313.36313Q105.47188 313.2225 104.6125 313.00375Q103.45625 312.70688 103.00313 312.50375Q102.56563 312.285 102.33125 311.91Q102.09688 311.535 102.09688 311.06625Q102.09688 310.66 102.28438 310.30063Q102.47188 309.94125 102.8 309.70688Q103.05 309.535 103.47188 309.41Q103.89375 309.285 104.39375 309.285Q105.1125 309.285 105.65938 309.50375Q106.22188 309.70688 106.4875 310.06625Q106.75313 310.42563 106.84688 311.01938L105.81563 311.16Q105.75313 310.69125 105.40938 310.42563Q105.08125 310.14438 104.45625 310.14438Q103.7375 310.14438 103.425 310.39438Q103.1125 310.62875 103.1125 310.95688Q103.1125 311.16 103.2375 311.31625Q103.37813 311.48813 103.64375 311.5975Q103.8 311.66 104.58125 311.86313Q105.70625 312.17563 106.14375 312.36313Q106.58125 312.55063 106.83125 312.91Q107.08125 313.26938 107.08125 313.81625Q107.08125 314.3475 106.76875 314.81625Q106.47188 315.26938 105.89375 315.535Q105.31563 315.785 104.58125 315.785Q103.3625 315.785 102.72188 315.285Q102.09688 314.76938 101.925 313.785ZM113.425 315.64438L113.425 314.7225Q112.69063 315.785 111.44063 315.785Q110.89375 315.785 110.40938 315.58188Q109.94063 315.36313 109.70625 315.05063Q109.47188 314.7225 109.37813 314.25375Q109.31563 313.95688 109.31563 313.26938L109.31563 309.42563L110.37813 309.42563L110.37813 312.87875Q110.37813 313.69125 110.44063 313.98813Q110.53438 314.39438 110.84688 314.64438Q111.175 314.87875 111.65938 314.87875Q112.12813 314.87875 112.53438 314.64438Q112.95625 314.39438 113.12813 313.9725Q113.31563 313.55063 113.31563 312.75375L113.31563 309.42563L114.3625 309.42563L114.3625 315.64438L113.425 315.64438ZM116.33125 315.64438L116.33125 309.42563L117.28438 309.42563L117.28438 310.36313Q117.64375 309.70688 117.94063 309.50375Q118.25313 309.285 118.62813 309.285Q119.15938 309.285 119.70625 309.61313L119.34688 310.5975Q118.95625 310.36313 118.58125 310.36313Q118.22188 310.36313 117.94063 310.58188Q117.675 310.785 117.56563 311.16Q117.37813 311.7225 117.37813 312.37875L117.37813 315.64438L116.33125 315.64438ZM124.59688 313.64438L125.69063 313.76938Q125.44063 314.7225 124.7375 315.25375Q124.03438 315.785 122.95625 315.785Q121.59688 315.785 120.78438 314.94125Q119.9875 314.0975 119.9875 312.58188Q119.9875 311.01938 120.8 310.16Q121.6125 309.285 122.89375 309.285Q124.14375 309.285 124.925 310.12875Q125.72188 310.9725 125.72188 312.51938Q125.72188 312.61313 125.72188 312.80063L121.08125 312.80063Q121.14375 313.83188 121.65938 314.37875Q122.175 314.91 122.95625 314.91Q123.53438 314.91 123.94063 314.61313Q124.3625 314.30063 124.59688 313.64438ZM121.14375 311.94125L124.6125 311.94125Q124.55 311.14438 124.22188 310.75375Q123.70625 310.14438 122.90938 310.14438Q122.175 310.14438 121.675 310.62875Q121.19063 311.11313 121.14375 311.94125Z" fill-rule="nonzero"/><path fill="#000000" d="M135.22188 345.6375Q135.22188 346.5125 135.08125 347.23126Q134.94063 347.95 134.6125 348.48126Q134.3 348.9969 133.78438 349.27814Q133.26875 349.5594 132.51875 349.5594Q131.8 349.5594 131.3 349.3094Q130.81563 349.04376 130.51875 348.5594Q130.22188 348.0594 130.09688 347.34064Q129.97188 346.60626 129.97188 345.66876Q129.97188 344.8094 130.1125 344.09064Q130.25313 343.35626 130.56563 342.84064Q130.89375 342.325 131.40938 342.04376Q131.925 341.7625 132.675 341.7625Q133.39375 341.7625 133.87813 342.0125Q134.3625 342.2625 134.65938 342.7625Q134.97188 343.2625 135.09688 343.98126Q135.22188 344.7 135.22188 345.6375ZM134.19063 345.71564Q134.19063 345.1375 134.14375 344.7Q134.09688 344.2469 134.01875 343.90314Q133.94063 343.54376 133.81563 343.29376Q133.69063 343.04376 133.51875 342.8875Q133.34688 342.73126 133.1125 342.65314Q132.89375 342.575 132.6125 342.575Q132.1125 342.575 131.8 342.8094Q131.4875 343.04376 131.3 343.46564Q131.12813 343.8719 131.06563 344.41876Q131.00313 344.96564 131.00313 345.60626Q131.00313 346.45 131.08125 347.04376Q131.175 347.6375 131.3625 348.0125Q131.56563 348.3875 131.8625 348.5594Q132.15938 348.73126 132.58125 348.73126Q132.90938 348.73126 133.14375 348.6375Q133.39375 348.52814 133.56563 348.34064Q133.75313 348.1375 133.8625 347.85626Q133.9875 347.575 134.05 347.2469Q134.12813 346.91876 134.15938 346.52814Q134.19063 346.1375 134.19063 345.71564Z" fill-rule="nonzero"/><path fill="#000000" d="M247.19687 349.0125Q247.19687 349.1219 247.18124 349.2Q247.16562 349.27814 247.13437 349.34064Q247.10312 349.40314 247.05624 349.4344Q247.025 349.45 246.9625 349.45L242.775 349.45Q242.69687 349.45 242.63437 349.4344Q242.57187 349.40314 242.525 349.35626Q242.47812 349.3094 242.4625 349.23126Q242.44687 349.1375 242.44687 349.0125Q242.44687 348.8875 242.44687 348.8094Q242.4625 348.71564 242.49374 348.65314Q242.525 348.575 242.55624 348.5125Q242.60312 348.45 242.68124 348.3719L244.15 346.8094Q244.66562 346.27814 244.9625 345.85626Q245.275 345.41876 245.43124 345.075Q245.60312 344.71564 245.65 344.4344Q245.7125 344.1375 245.7125 343.8875Q245.7125 343.6375 245.63437 343.41876Q245.55624 343.1844 245.4 343.0125Q245.24374 342.84064 245.00937 342.7469Q244.775 342.65314 244.4625 342.65314Q244.10312 342.65314 243.82187 342.7469Q243.54062 342.84064 243.32187 342.96564Q243.11874 343.075 242.9625 343.1844Q242.82187 343.27814 242.75937 343.27814Q242.7125 343.27814 242.68124 343.2625Q242.65 343.23126 242.61874 343.1844Q242.60312 343.1219 242.5875 343.04376Q242.5875 342.95 242.5875 342.825Q242.5875 342.7469 242.5875 342.6844Q242.60312 342.60626 242.60312 342.5594Q242.61874 342.5125 242.63437 342.48126Q242.66562 342.4344 242.72812 342.3719Q242.80624 342.3094 242.97812 342.21564Q243.16562 342.10626 243.41562 342.0125Q243.68124 341.90314 243.99374 341.84064Q244.30624 341.7625 244.65 341.7625Q245.19687 341.7625 245.60312 341.91876Q246.025 342.0594 246.29062 342.34064Q246.57187 342.60626 246.69687 342.96564Q246.8375 343.325 246.8375 343.73126Q246.8375 344.09064 246.775 344.45Q246.7125 344.8094 246.50937 345.23126Q246.30624 345.65314 245.9 346.16876Q245.50937 346.66876 244.86874 347.34064L243.66562 348.59064L246.9625 348.59064Q247.00937 348.59064 247.05624 348.6219Q247.10312 348.65314 247.13437 348.7Q247.16562 348.7469 247.18124 348.825Q247.19687 348.90314 247.19687 349.0125Z" fill-rule="nonzero"/><path fill="#000000" d="M359.73438 347.29376Q359.73438 347.48126 359.67188 347.60626Q359.625 347.71564 359.51562 347.71564L358.65625 347.71564L358.65625 349.3094Q358.65625 349.35626 358.625 349.3875Q358.60938 349.41876 358.54688 349.45Q358.5 349.46564 358.40625 349.46564Q358.3125 349.48126 358.15625 349.48126Q358.01562 349.48126 357.92188 349.46564Q357.82812 349.46564 357.76562 349.45Q357.71875 349.41876 357.70312 349.3875Q357.6875 349.35626 357.6875 349.3094L357.6875 347.71564L354.54688 347.71564Q354.48438 347.71564 354.4375 347.7Q354.39062 347.66876 354.34375 347.6219Q354.3125 347.575 354.29688 347.4969Q354.28125 347.40314 354.28125 347.2625Q354.28125 347.15314 354.28125 347.075Q354.29688 346.98126 354.3125 346.90314Q354.32812 346.825 354.35938 346.7625Q354.39062 346.7 354.42188 346.6219L357.15625 342.0125Q357.1875 341.96564 357.23438 341.9344Q357.29688 341.90314 357.375 341.8875Q357.46875 341.85626 357.59375 341.84064Q357.73438 341.825 357.90625 341.825Q358.10938 341.825 358.25 341.84064Q358.39062 341.85626 358.46875 341.8875Q358.5625 341.90314 358.60938 341.95Q358.65625 341.98126 358.65625 342.04376L358.65625 346.8719L359.51562 346.8719Q359.60938 346.8719 359.67188 346.98126Q359.73438 347.075 359.73438 347.29376ZM357.6875 342.71564L357.67188 342.71564L355.20312 346.8719L357.6875 346.8719L357.6875 342.71564Z" fill-rule="nonzero"/><path fill="#000000" d="M471.83438 346.9969Q471.83438 347.4969 471.67813 347.96564Q471.52188 348.41876 471.20938 348.77814Q470.89688 349.1375 470.4125 349.35626Q469.92813 349.5594 469.25626 349.5594Q468.7875 349.5594 468.4125 349.45Q468.05313 349.325 467.7875 349.10626Q467.52188 348.8875 467.33438 348.575Q467.1625 348.2625 467.05313 347.85626Q466.94376 347.45 466.89688 346.98126Q466.85 346.4969 466.85 345.9344Q466.85 345.45 466.89688 344.95Q466.95938 344.45 467.08438 343.9969Q467.225 343.52814 467.45938 343.1219Q467.69376 342.71564 468.0375 342.41876Q468.38126 342.10626 468.86563 341.9344Q469.36563 341.7625 470.00626 341.7625Q470.225 341.7625 470.44376 341.79376Q470.6625 341.8094 470.85 341.85626Q471.0375 341.90314 471.1625 341.96564Q471.30313 342.0125 471.33438 342.04376Q471.38126 342.075 471.39688 342.1219Q471.42813 342.15314 471.42813 342.2Q471.44376 342.23126 471.44376 342.29376Q471.45938 342.34064 471.45938 342.4344Q471.45938 342.52814 471.45938 342.60626Q471.45938 342.6844 471.42813 342.73126Q471.4125 342.77814 471.38126 342.8094Q471.35 342.825 471.2875 342.825Q471.225 342.825 471.11563 342.79376Q471.00626 342.7469 470.85 342.7Q470.69376 342.65314 470.45938 342.60626Q470.24063 342.5594 469.94376 342.5594Q469.39688 342.5594 469.00626 342.79376Q468.61563 343.0125 468.36563 343.3875Q468.11563 343.7625 467.99063 344.2625Q467.86563 344.7469 467.85 345.29376Q468.00626 345.2 468.19376 345.1219Q468.38126 345.02814 468.6 344.96564Q468.83438 344.8875 469.08438 344.84064Q469.35 344.79376 469.63126 344.79376Q470.24063 344.79376 470.6625 344.96564Q471.08438 345.1375 471.35 345.4344Q471.61563 345.71564 471.725 346.1219Q471.83438 346.52814 471.83438 346.9969ZM470.81876 347.09064Q470.81876 346.7469 470.74063 346.46564Q470.67813 346.1844 470.52188 345.9969Q470.36563 345.8094 470.1 345.7Q469.83438 345.59064 469.44376 345.59064Q469.225 345.59064 469.00626 345.6375Q468.80313 345.66876 468.6 345.7469Q468.39688 345.8094 468.20938 345.90314Q468.02188 345.98126 467.86563 346.09064Q467.86563 346.84064 467.95938 347.35626Q468.06876 347.8719 468.24063 348.1844Q468.42813 348.48126 468.70938 348.6219Q468.99063 348.7469 469.35 348.7469Q469.725 348.7469 470.00626 348.60626Q470.2875 348.46564 470.45938 348.23126Q470.64688 347.9969 470.725 347.7Q470.81876 347.40314 470.81876 347.09064Z" fill-rule="nonzero"/><path fill="#000000" d="M584.04376 347.4969Q584.04376 347.9969 583.85626 348.3875Q583.6844 348.7625 583.35626 349.02814Q583.02814 349.29376 582.54376 349.4344Q582.0594 349.5594 581.4344 349.5594Q580.84064 349.5594 580.3719 349.4344Q579.91876 349.3094 579.59064 349.075Q579.27814 348.84064 579.10626 348.4969Q578.9344 348.1375 578.9344 347.6844Q578.9344 347.325 579.04376 347.02814Q579.16876 346.73126 579.3875 346.48126Q579.60626 346.21564 579.91876 345.9969Q580.2469 345.77814 580.65314 345.575Q580.3094 345.40314 580.02814 345.2Q579.7625 344.9969 579.575 344.7625Q579.3875 344.52814 579.29376 344.2625Q579.2 343.98126 579.2 343.66876Q579.2 343.2625 579.34064 342.91876Q579.48126 342.575 579.7625 342.325Q580.0594 342.0594 580.5125 341.91876Q580.96564 341.7625 581.5594 341.7625Q582.1375 341.7625 582.54376 341.90314Q582.96564 342.02814 583.23126 342.27814Q583.5125 342.5125 583.6375 342.84064Q583.77814 343.15314 583.77814 343.5125Q583.77814 343.825 583.66876 344.10626Q583.575 344.3719 583.3875 344.6219Q583.2 344.85626 582.91876 345.075Q582.65314 345.29376 582.3094 345.48126Q582.71564 345.6844 583.04376 345.90314Q583.3719 346.1219 583.59064 346.3719Q583.8094 346.60626 583.91876 346.8875Q584.04376 347.16876 584.04376 347.4969ZM582.77814 343.60626Q582.77814 343.3719 582.6844 343.16876Q582.60626 342.96564 582.4344 342.825Q582.27814 342.6844 582.02814 342.6219Q581.79376 342.54376 581.48126 342.54376Q580.84064 342.54376 580.5125 342.84064Q580.2 343.1219 580.2 343.60626Q580.2 343.84064 580.27814 344.04376Q580.35626 344.23126 580.5125 344.41876Q580.6844 344.59064 580.9344 344.7625Q581.2 344.91876 581.54376 345.10626Q582.1375 344.79376 582.45 344.4344Q582.77814 344.0594 582.77814 343.60626ZM583.02814 347.60626Q583.02814 347.34064 582.91876 347.1219Q582.825 346.90314 582.6219 346.71564Q582.41876 346.5125 582.10626 346.34064Q581.8094 346.16876 581.41876 345.96564Q581.04376 346.15314 580.7625 346.34064Q580.4969 346.5125 580.3094 346.71564Q580.1375 346.90314 580.04376 347.1219Q579.95 347.325 579.95 347.59064Q579.95 348.15314 580.34064 348.46564Q580.73126 348.77814 581.4969 348.77814Q582.2469 348.77814 582.6375 348.46564Q583.02814 348.15314 583.02814 347.60626Z" fill-rule="nonzero"/></svg>