<svg version="1.1" viewBox="0.0 0.0 676.0 371.0" fill="none" stroke="none" stroke-linecap="square" stroke-miterlimit="10" width="676" height="371" xmlns:xlink="http://www.w3.org/1999/xlink" xmlns="http://www.w3.org/2000/svg"><path fill="#ffffff" d="M0 0L676.0 0L676.0 371.0L0 371.0L0 0Z" fill-rule="nonzero"/><path stroke="#333333" stroke-width="1.0" stroke-linecap="butt" d="M149.5 18.5L149.5 334.5" fill-rule="nonzero"/><path stroke="#cccccc" stroke-width="1.0" stroke-linecap="butt" d="M276.5 18.5L276.5 334.5" fill-rule="nonzero"/><path stroke="#cccccc" stroke-width="1.0" stroke-linecap="butt" d="M403.5 18.5L403.5 334.5" fill-rule="nonzero"/><path stroke="#cccccc" stroke-width="1.0" stroke-linecap="butt" d="M530.5 18.5L530.5 334.5" fill-rule="nonzero"/><path stroke="#cccccc" stroke-width="1.0" stroke-linecap="butt" d="M657.5 18.5L657.5 334.5" fill-rule="nonzero"/><clipPath id="id_0"><path d="M149.55 18.55L657.45 18.55L657.45 334.45L149.55 334.45L149.55 18.55Z" clip-rule="nonzero"/></clipPath><path stroke="#000000" stroke-width="2.0" stroke-linecap="butt" stroke-opacity="0.0" clip-path="url(#id_0)" d="M150.0 52.0L150.0 30.0L655.0 30.0C656.10455 30.0 657.0 30.89543 657.0 32.0L657.0 50.0C657.0 51.10457 656.10455 52.0 655.0 52.0Z" fill-rule="nonzero"/><path fill="#1d70b8" clip-path="url(#id_0)" d="M150.0 52.0L150.0 30.0L655.0 30.0C656.10455 30.0 657.0 30.89543 657.0 32.0L657.0 50.0C657.0 51.10457 656.10455 52.0 655.0 52.0Z" fill-rule="nonzero"/><path stroke="#000000" stroke-width="2.0" stroke-linecap="butt" stroke-opacity="0.0" clip-path="url(#id_0)" d="M150.0 86.0L150.0 64.0L338.0 64.0C339.10458 64.0 340.0 64.89543 340.0 66.0L340.0 84.0C340.0 85.10457 339.10458 86.0 338.0 86.0Z" fill-rule="nonzero"/><path fill="#1d70b8" clip-path="url(#id_0)" d="M150.0 86.0L150.0 64.0L338.0 64.0C339.10458 64.0 340.0 64.89543 340.0 66.0L340.0 84.0C340.0 85.10457 339.10458 86.0 338.0 86.0Z" fill-rule="nonzero"/><path stroke="#000000" stroke-width="2.0" stroke-linecap="butt" stroke-opacity="0.0" clip-path="url(#id_0)" d="M150.0 120.0L150.0 98.0L275.0 98.0C276.10458 98.0 277.0 98.89543 277.0 100.0L277.0 118.0C277.0 119.10457 276.10458 120.0 275.0 120.0Z" fill-rule="nonzero"/><path fill="#1d70b8" clip-path="url(#id_0)" d="M150.0 120.0L150.0 98.0L275.0 98.0C276.10458 98.0 277.0 98.89543 277.0 100.0L277.0 118.0C277.0 119.10457 276.10458 120.0 275.0 120.0Z" fill-rule="nonzero"/><path stroke="#000000" stroke-width="2.0" stroke-linecap="butt" stroke-opacity="0.0" clip-path="url(#id_0)" d="M150.0 154.0L150.0 132.0L275.0 132.0C276.10458 132.0 277.0 132.89543 277.0 134.0L277.0 152.0C277.0 153.10457 276.10458 154.0 275.0 154.0Z" fill-rule="nonzero"/><path fill="#1d70b8" clip-path="url(#id_0)" d="M150.0 154.0L150.0 132.0L275.0 132.0C276.10458 132.0 277.0 132.89543 277.0 134.0L277.0 152.0C277.0 153.10457 276.10458 154.0 275.0 154.0Z" fill-rule="nonzero"/><path stroke="#000000" stroke-width="2.0" stroke-linecap="butt" stroke-opacity="0.0" clip-path="url(#id_0)" d="M150.0 188.0L150.0 166.0L338.0 166.0C339.10458 166.0 340.0 166.89543 340.0 168.0L340.0 186.0C340.0 187.10457 339.10458 188.0 338.0 188.0Z" fill-rule="nonzero"/><path fill="#1d70b8" clip-path="url(#id_0)" d="M150.0 188.0L150.0 166.0L338.0 166.0C339.10458 166.0 340.0 166.89543 340.0 168.0L340.0 186.0C340.0 187.10457 339.10458 188.0 338.0 188.0Z" fill-rule="nonzero"/><path stroke="#000000" stroke-width="2.0" stroke-linecap="butt" stroke-opacity="0.0" clip-path="url(#id_0)" d="M150.0 221.0L150.0 199.0L150.0 199.0L150.0 221.0Z" fill-rule="nonzero"/><path fill="#1d70b8" clip-path="url(#id_0)" d="M150.0 221.0L150.0 199.0L150.0 199.0L150.0 221.0Z" fill-rule="nonzero"/><path stroke="#000000" stroke-width="2.0" stroke-linecap="butt" stroke-opacity="0.0" clip-path="url(#id_0)" d="M150.0 255.0L150.0 233.0L275.0 233.0C276.10458 233.0 277.0 233.89543 277.0 235.0L277.0 253.0C277.0 254.10457 276.10458 255.0 275.0 255.0Z" fill-rule="nonzero"/><path fill="#1d70b8" clip-path="url(#id_0)" d="M150.0 255.0L150.0 233.0L275.0 233.0C276.10458 233.0 277.0 233.89543 277.0 235.0L277.0 253.0C277.0 254.10457 276.10458 255.0 275.0 255.0Z" fill-rule="nonzero"/><path stroke="#000000" stroke-width="2.0" stroke-linecap="butt" stroke-opacity="0.0" clip-path="url(#id_0)" d="M150.0 289.0L150.0 267.0L150.0 267.0L150.0 289.0Z" fill-rule="nonzero"/><path fill="#1d70b8" clip-path="url(#id_0)" d="M150.0 289.0L150.0 267.0L150.0 267.0L150.0 289.0Z" fill-rule="nonzero"/><path stroke="#000000" stroke-width="2.0" stroke-linecap="butt" stroke-opacity="0.0" clip-path="url(#id_0)" d="M150.0 323.0L150.0 301.0L338.0 301.0C339.10458 301.0 340.0 301.89542 340.0 303.0L340.0 321.0C340.0 322.10458 339.10458 323.0 338.0 323.0Z" fill-rule="nonzero"/><path fill="#1d70b8" clip-path="url(#id_0)" d="M150.0 323.0L150.0 301.0L338.0 301.0C339.10458 301.0 340.0 301.89542 340.0 303.0L340.0 321.0C340.0 322.10458 339.10458 323.0 338.0 323.0Z" fill-rule="nonzero"/><path fill="#000000" d="M117.47188 45.355614L117.47188 36.761864L120.44063 36.761864Q121.44063 36.761864 121.97188 36.886864Q122.70625 37.05874 123.22188 37.49624Q123.90938 38.074364 124.2375 38.980614Q124.58125 39.87124 124.58125 41.011864Q124.58125 41.99624 124.34688 42.74624Q124.12813 43.49624 123.76875 43.99624Q123.40938 44.49624 122.97188 44.77749Q122.55 45.05874 121.95625 45.21499Q121.3625 45.355614 120.58125 45.355614L117.47188 45.355614ZM118.6125 44.33999L120.44063 44.33999Q121.3 44.33999 121.78438 44.18374Q122.26875 44.02749 122.55 43.730614Q122.95625 43.33999 123.175 42.65249Q123.40938 41.96499 123.40938 40.99624Q123.40938 39.65249 122.95625 38.93374Q122.51875 38.199364 121.89375 37.949364Q121.425 37.77749 120.425 37.77749L118.6125 37.77749L118.6125 44.33999ZM130.40938 44.58999Q129.81563 45.08999 129.26875 45.293114Q128.7375 45.49624 128.1125 45.49624Q127.08125 45.49624 126.53438 44.99624Q125.9875 44.49624 125.9875 43.71499Q125.9875 43.261864 126.19063 42.886864Q126.39375 42.49624 126.7375 42.27749Q127.08125 42.043114 127.50313 41.93374Q127.8 41.83999 128.44063 41.761864Q129.70625 41.62124 130.31563 41.40249Q130.31563 41.18374 130.31563 41.136864Q130.31563 40.480614 130.01875 40.21499Q129.6125 39.87124 128.81563 39.87124Q128.08125 39.87124 127.72188 40.136864Q127.3625 40.386864 127.19063 41.043114L126.15938 40.90249Q126.3 40.24624 126.62813 39.83999Q126.95625 39.43374 127.56563 39.21499Q128.175 38.99624 128.97188 38.99624Q129.76875 38.99624 130.26875 39.18374Q130.76875 39.37124 131.00313 39.65249Q131.2375 39.93374 131.33125 40.37124Q131.37813 40.636864 131.37813 41.33999L131.37813 42.74624Q131.37813 44.21499 131.44063 44.605614Q131.51875 44.99624 131.72188 45.355614L130.6125 45.355614Q130.45625 45.02749 130.40938 44.58999ZM130.31563 42.230614Q129.7375 42.46499 128.59688 42.636864Q127.94063 42.730614 127.675 42.855614Q127.40938 42.96499 127.25313 43.18374Q127.1125 43.40249 127.1125 43.68374Q127.1125 44.105614 127.425 44.386864Q127.75313 44.668114 128.3625 44.668114Q128.97188 44.668114 129.44063 44.40249Q129.925 44.136864 130.14375 43.668114Q130.31563 43.30874 130.31563 42.62124L130.31563 42.230614ZM133.34688 37.980614L133.34688 36.761864L134.40938 36.761864L134.40938 37.980614L133.34688 37.980614ZM133.34688 45.355614L133.34688 39.136864L134.40938 39.136864L134.40938 45.355614L133.34688 45.355614ZM136.31563 45.355614L136.31563 36.761864L137.37813 36.761864L137.37813 45.355614L136.31563 45.355614ZM139.3 47.74624L139.175 46.761864Q139.51875 46.855614 139.78438 46.855614Q140.12813 46.855614 140.33125 46.730614Q140.55 46.62124 140.69063 46.418114Q140.78438 46.24624 141.01875 45.62124Q141.03438 45.543114 141.1125 45.37124L138.7375 39.136864L139.87813 39.136864L141.175 42.730614Q141.425 43.418114 141.62813 44.18374Q141.81563 43.449364 142.06563 42.761864L143.39375 39.136864L144.44063 39.136864L142.08125 45.46499Q141.69063 46.480614 141.4875 46.87124Q141.20625 47.40249 140.83125 47.636864Q140.47188 47.886864 139.97188 47.886864Q139.675 47.886864 139.3 47.74624Z" fill-rule="nonzero"/><path fill="#000000" d="M106.97188 79.14171L104.69063 70.54796L105.8625 70.54796L107.175 76.18858Q107.37813 77.06358 107.53438 77.93858Q107.8625 76.56358 107.925 76.34483L109.55 70.54796L110.925 70.54796L112.15938 74.89171Q112.6125 76.51671 112.83125 77.93858Q112.9875 77.12608 113.25313 76.06358L114.59688 70.54796L115.7375 70.54796L113.39375 79.14171L112.28438 79.14171L110.4875 72.59483Q110.25313 71.78233 110.20625 71.59483Q110.08125 72.17296 109.95625 72.59483L108.14375 79.14171L106.97188 79.14171ZM120.59688 77.14171L121.69063 77.26671Q121.44063 78.21983 120.7375 78.75108Q120.03438 79.28233 118.95625 79.28233Q117.59688 79.28233 116.78438 78.43858Q115.9875 77.59483 115.9875 76.07921Q115.9875 74.51671 116.8 73.65733Q117.6125 72.78233 118.89375 72.78233Q120.14375 72.78233 120.925 73.62608Q121.72188 74.46983 121.72188 76.01671Q121.72188 76.11046 121.72188 76.29796L117.08125 76.29796Q117.14375 77.32921 117.65938 77.87608Q118.175 78.40733 118.95625 78.40733Q119.53438 78.40733 119.94063 78.11046Q120.3625 77.79796 120.59688 77.14171ZM117.14375 75.43858L120.6125 75.43858Q120.55 74.64171 120.22188 74.25108Q119.70625 73.64171 118.90938 73.64171Q118.175 73.64171 117.675 74.12608Q117.19063 74.61046 117.14375 75.43858ZM127.59688 77.14171L128.69063 77.26671Q128.44063 78.21983 127.7375 78.75108Q127.03438 79.28233 125.95625 79.28233Q124.59688 79.28233 123.78438 78.43858Q122.9875 77.59483 122.9875 76.07921Q122.9875 74.51671 123.8 73.65733Q124.6125 72.78233 125.89375 72.78233Q127.14375 72.78233 127.925 73.62608Q128.72188 74.46983 128.72188 76.01671Q128.72188 76.11046 128.72188 76.29796L124.08125 76.29796Q124.14375 77.32921 124.65938 77.87608Q125.175 78.40733 125.95625 78.40733Q126.53438 78.40733 126.94063 78.11046Q127.3625 77.79796 127.59688 77.14171ZM124.14375 75.43858L127.6125 75.43858Q127.55 74.64171 127.22188 74.25108Q126.70625 73.64171 125.90938 73.64171Q125.175 73.64171 124.675 74.12608Q124.19063 74.61046 124.14375 75.43858ZM130.34688 79.14171L130.34688 70.54796L131.40938 70.54796L131.40938 75.45421L133.89375 72.92296L135.26875 72.92296L132.87813 75.21983L135.50313 79.14171L134.20625 79.14171L132.14375 75.95421L131.40938 76.67296L131.40938 79.14171L130.34688 79.14171ZM136.31563 79.14171L136.31563 70.54796L137.37813 70.54796L137.37813 79.14171L136.31563 79.14171ZM139.3 81.53233L139.175 80.54796Q139.51875 80.64171 139.78438 80.64171Q140.12813 80.64171 140.33125 80.51671Q140.55 80.40733 140.69063 80.20421Q140.78438 80.03233 141.01875 79.40733Q141.03438 79.32921 141.1125 79.15733L138.7375 72.92296L139.87813 72.92296L141.175 76.51671Q141.425 77.20421 141.62813 77.96983Q141.81563 77.23546 142.06563 76.54796L143.39375 72.92296L144.44063 72.92296L142.08125 79.25108Q141.69063 80.26671 141.4875 80.65733Q141.20625 81.18858 140.83125 81.42296Q140.47188 81.67296 139.97188 81.67296Q139.675 81.67296 139.3 81.53233Z" fill-rule="nonzero"/><path fill="#000000" d="M103.44063 112.92781L103.44063 104.33406L105.15938 104.33406L107.19063 110.412186Q107.47188 111.27156 107.59688 111.693436Q107.7375 111.224686 108.05 110.318436L110.1125 104.33406L111.64375 104.33406L111.64375 112.92781L110.55 112.92781L110.55 105.74031L108.05 112.92781L107.01875 112.92781L104.53438 105.61531L104.53438 112.92781L103.44063 112.92781ZM111.95625 109.818436Q111.95625 108.08406 112.90938 107.255936Q113.70625 106.568436 114.8625 106.568436Q116.14375 106.568436 116.95625 107.412186Q117.78438 108.24031 117.78438 109.724686Q117.78438 110.92781 117.425 111.61531Q117.06563 112.30281 116.3625 112.693436Q115.675 113.068436 114.8625 113.068436Q113.56563 113.068436 112.75313 112.24031Q111.95625 111.39656 111.95625 109.818436ZM113.03438 109.818436Q113.03438 111.005936 113.55 111.599686Q114.08125 112.193436 114.8625 112.193436Q115.65938 112.193436 116.175 111.599686Q116.69063 111.005936 116.69063 109.787186Q116.69063 108.630936 116.15938 108.037186Q115.64375 107.443436 114.8625 107.443436Q114.08125 107.443436 113.55 108.037186Q113.03438 108.61531 113.03438 109.818436ZM119.34688 112.92781L119.34688 106.70906L120.28438 106.70906L120.28438 107.58406Q120.97188 106.568436 122.26875 106.568436Q122.83125 106.568436 123.3 106.77156Q123.78438 106.974686 124.01875 107.30281Q124.25313 107.630936 124.34688 108.068436Q124.39375 108.36531 124.39375 109.099686L124.39375 112.92781L123.34688 112.92781L123.34688 109.14656Q123.34688 108.49031 123.22188 108.17781Q123.09688 107.86531 122.78438 107.67781Q122.47188 107.474686 122.05 107.474686Q121.37813 107.474686 120.87813 107.912186Q120.39375 108.33406 120.39375 109.52156L120.39375 112.92781L119.34688 112.92781ZM128.64375 111.99031L128.8 112.912186Q128.34688 113.005936 128.00313 113.005936Q127.425 113.005936 127.1125 112.83406Q126.8 112.64656 126.65938 112.349686Q126.53438 112.05281 126.53438 111.099686L126.53438 107.52156L125.76875 107.52156L125.76875 106.70906L126.53438 106.70906L126.53438 105.162186L127.58125 104.537186L127.58125 106.70906L128.64375 106.70906L128.64375 107.52156L127.58125 107.52156L127.58125 111.162186Q127.58125 111.61531 127.62813 111.74031Q127.69063 111.86531 127.81563 111.943436Q127.94063 112.02156 128.175 112.02156Q128.3625 112.02156 128.64375 111.99031ZM129.34688 112.92781L129.34688 104.33406L130.39375 104.33406L130.39375 107.412186Q131.12813 106.568436 132.25313 106.568436Q132.95625 106.568436 133.45625 106.849686Q133.97188 107.11531 134.19063 107.599686Q134.40938 108.068436 134.40938 108.99031L134.40938 112.92781L133.3625 112.92781L133.3625 108.99031Q133.3625 108.193436 133.01875 107.83406Q132.675 107.474686 132.05 107.474686Q131.58125 107.474686 131.15938 107.724686Q130.75313 107.95906 130.56563 108.380936Q130.39375 108.787186 130.39375 109.52156L130.39375 112.92781L129.34688 112.92781ZM136.31563 112.92781L136.31563 104.33406L137.37813 104.33406L137.37813 112.92781L136.31563 112.92781ZM139.3 115.318436L139.175 114.33406Q139.51875 114.42781 139.78438 114.42781Q140.12813 114.42781 140.33125 114.30281Q140.55 114.193436 140.69063 113.99031Q140.78438 113.818436 141.01875 113.193436Q141.03438 113.11531 141.1125 112.943436L138.7375 106.70906L139.87813 106.70906L141.175 110.30281Q141.425 110.99031 141.62813 111.755936Q141.81563 111.02156 142.06563 110.33406L143.39375 106.70906L144.44063 106.70906L142.08125 113.037186Q141.69063 114.05281 141.4875 114.443436Q141.20625 114.974686 140.83125 115.20906Q140.47188 115.45906 139.97188 115.45906Q139.675 115.45906 139.3 115.318436Z" fill-rule="nonzero"/><path fill="#000000" d="M101.9875 145.79202Q102.78438 146.3389 103.44063 146.5889L103.1125 147.38577Q102.19063 147.04202 101.26875 146.32327Q100.31563 146.85452 99.15938 146.85452Q97.9875 146.85452 97.03438 146.29202Q96.09688 145.72952 95.58125 144.7139Q95.06563 143.69827 95.06563 142.41702Q95.06563 141.1514 95.58125 140.10452Q96.09688 139.05765 97.05 138.51077Q98.00313 137.9639 99.175 137.9639Q100.3625 137.9639 101.31563 138.54202Q102.28438 139.10452 102.78438 140.12015Q103.28438 141.13577 103.28438 142.41702Q103.28438 143.47952 102.95625 144.32327Q102.64375 145.16702 101.9875 145.79202ZM99.4875 144.3389Q100.47188 144.62015 101.1125 145.16702Q102.1125 144.24515 102.1125 142.41702Q102.1125 141.37015 101.75313 140.5889Q101.39375 139.80765 100.70625 139.38577Q100.03438 138.94827 99.19063 138.94827Q97.90938 138.94827 97.06563 139.82327Q96.2375 140.68265 96.2375 142.41702Q96.2375 144.0889 97.06563 144.99515Q97.89375 145.88577 99.19063 145.88577Q99.8 145.88577 100.33125 145.6514Q99.8 145.30765 99.20625 145.16702L99.4875 144.3389ZM108.425 146.7139L108.425 145.79202Q107.69063 146.85452 106.44063 146.85452Q105.89375 146.85452 105.40938 146.6514Q104.94063 146.43265 104.70625 146.12015Q104.47188 145.79202 104.37813 145.32327Q104.31563 145.0264 104.31563 144.3389L104.31563 140.49515L105.37813 140.49515L105.37813 143.94827Q105.37813 144.76077 105.44063 145.05765Q105.53438 145.4639 105.84688 145.7139Q106.175 145.94827 106.65938 145.94827Q107.12813 145.94827 107.53438 145.7139Q107.95625 145.4639 108.12813 145.04202Q108.31563 144.62015 108.31563 143.82327L108.31563 140.49515L109.3625 140.49515L109.3625 146.7139L108.425 146.7139ZM115.40938 145.94827Q114.81563 146.44827 114.26875 146.6514Q113.7375 146.85452 113.1125 146.85452Q112.08125 146.85452 111.53438 146.35452Q110.9875 145.85452 110.9875 145.07327Q110.9875 144.62015 111.19063 144.24515Q111.39375 143.85452 111.7375 143.63577Q112.08125 143.4014 112.50313 143.29202Q112.8 143.19827 113.44063 143.12015Q114.70625 142.97952 115.31563 142.76077Q115.31563 142.54202 115.31563 142.49515Q115.31563 141.8389 115.01875 141.57327Q114.6125 141.22952 113.81563 141.22952Q113.08125 141.22952 112.72188 141.49515Q112.3625 141.74515 112.19063 142.4014L111.15938 142.26077Q111.3 141.60452 111.62813 141.19827Q111.95625 140.79202 112.56563 140.57327Q113.175 140.35452 113.97188 140.35452Q114.76875 140.35452 115.26875 140.54202Q115.76875 140.72952 116.00313 141.01077Q116.2375 141.29202 116.33125 141.72952Q116.37813 141.99515 116.37813 142.69827L116.37813 144.10452Q116.37813 145.57327 116.44063 145.9639Q116.51875 146.35452 116.72188 146.7139L115.6125 146.7139Q115.45625 146.38577 115.40938 145.94827ZM115.31563 143.5889Q114.7375 143.82327 113.59688 143.99515Q112.94063 144.0889 112.675 144.2139Q112.40938 144.32327 112.25313 144.54202Q112.1125 144.76077 112.1125 145.04202Q112.1125 145.4639 112.425 145.74515Q112.75313 146.0264 113.3625 146.0264Q113.97188 146.0264 114.44063 145.76077Q114.925 145.49515 115.14375 145.0264Q115.31563 144.66702 115.31563 143.97952L115.31563 143.5889ZM118.33125 146.7139L118.33125 140.49515L119.28438 140.49515L119.28438 141.43265Q119.64375 140.7764 119.94063 140.57327Q120.25313 140.35452 120.62813 140.35452Q121.15938 140.35452 121.70625 140.68265L121.34688 141.66702Q120.95625 141.43265 120.58125 141.43265Q120.22188 141.43265 119.94063 141.6514Q119.675 141.85452 119.56563 142.22952Q119.37813 142.79202 119.37813 143.44827L119.37813 146.7139L118.33125 146.7139ZM124.64375 145.7764L124.8 146.69827Q124.34688 146.79202 124.00313 146.79202Q123.425 146.79202 123.1125 146.62015Q122.8 146.43265 122.65938 146.13577Q122.53438 145.8389 122.53438 144.88577L122.53438 141.30765L121.76875 141.30765L121.76875 140.49515L122.53438 140.49515L122.53438 138.94827L123.58125 138.32327L123.58125 140.49515L124.64375 140.49515L124.64375 141.30765L123.58125 141.30765L123.58125 144.94827Q123.58125 145.4014 123.62813 145.5264Q123.69063 145.6514 123.81563 145.72952Q123.94063 145.80765 124.175 145.80765Q124.3625 145.80765 124.64375 145.7764ZM129.59688 144.7139L130.69063 144.8389Q130.44063 145.79202 129.7375 146.32327Q129.03438 146.85452 127.95625 146.85452Q126.59688 146.85452 125.78438 146.01077Q124.9875 145.16702 124.9875 143.6514Q124.9875 142.0889 125.8 141.22952Q126.6125 140.35452 127.89375 140.35452Q129.14375 140.35452 129.925 141.19827Q130.72188 142.04202 130.72188 143.5889Q130.72188 143.68265 130.72188 143.87015L126.08125 143.87015Q126.14375 144.9014 126.65938 145.44827Q127.175 145.97952 127.95625 145.97952Q128.53438 145.97952 128.94063 145.68265Q129.3625 145.37015 129.59688 144.7139ZM126.14375 143.01077L129.6125 143.01077Q129.55 142.2139 129.22188 141.82327Q128.70625 141.2139 127.90938 141.2139Q127.175 141.2139 126.675 141.69827Q126.19063 142.18265 126.14375 143.01077ZM132.33125 146.7139L132.33125 140.49515L133.28438 140.49515L133.28438 141.43265Q133.64375 140.7764 133.94063 140.57327Q134.25313 140.35452 134.62813 140.35452Q135.15938 140.35452 135.70625 140.68265L135.34688 141.66702Q134.95625 141.43265 134.58125 141.43265Q134.22188 141.43265 133.94063 141.6514Q133.675 141.85452 133.56563 142.22952Q133.37813 142.79202 133.37813 143.44827L133.37813 146.7139L132.33125 146.7139ZM136.31563 146.7139L136.31563 138.12015L137.37813 138.12015L137.37813 146.7139L136.31563 146.7139ZM139.3 149.10452L139.175 148.12015Q139.51875 148.2139 139.78438 148.2139Q140.12813 148.2139 140.33125 148.0889Q140.55 147.97952 140.69063 147.7764Q140.78438 147.60452 141.01875 146.97952Q141.03438 146.9014 141.1125 146.72952L138.7375 140.49515L139.87813 140.49515L141.175 144.0889Q141.425 144.7764 141.62813 145.54202Q141.81563 144.80765 142.06563 144.12015L143.39375 140.49515L144.44063 140.49515L142.08125 146.82327Q141.69063 147.8389 141.4875 148.22952Q141.20625 148.76077 140.83125 148.99515Q140.47188 149.24515 139.97188 149.24515Q139.675 149.24515 139.3 149.10452Z" fill-rule="nonzero"/><path fill="#000000" d="M30.503124 180.5L30.503124 171.90625L36.70625 171.90625L36.70625 172.92188L31.64375 172.92188L31.64375 175.54688L36.39375 175.54688L36.39375 176.5625L31.64375 176.5625L31.64375 179.48438L36.909374 179.48438L36.909374 180.5L30.503124 180.5ZM40.065624 180.5L37.70625 174.28125L38.815624 174.28125L40.159374 178.0Q40.3625 178.60938 40.55 179.25Q40.690624 178.76562 40.940624 178.07812L42.33125 174.28125L43.409374 174.28125L41.05 180.5L40.065624 180.5ZM47.596874 178.5L48.690624 178.625Q48.440624 179.57812 47.7375 180.10938Q47.034374 180.64062 45.95625 180.64062Q44.596874 180.64062 43.784374 179.79688Q42.9875 178.95312 42.9875 177.4375Q42.9875 175.875 43.8 175.01562Q44.6125 174.14062 45.89375 174.14062Q47.14375 174.14062 47.925 174.98438Q48.721874 175.82812 48.721874 177.375Q48.721874 177.46875 48.721874 177.65625L44.08125 177.65625Q44.14375 178.6875 44.659374 179.23438Q45.175 179.76562 45.95625 179.76562Q46.534374 179.76562 46.940624 179.46875Q47.3625 179.15625 47.596874 178.5ZM44.14375 176.79688L47.6125 176.79688Q47.55 176.0 47.221874 175.60938Q46.70625 175.0 45.909374 175.0Q45.175 175.0 44.675 175.48438Q44.190624 175.96875 44.14375 176.79688ZM50.33125 180.5L50.33125 174.28125L51.284374 174.28125L51.284374 175.21875Q51.64375 174.5625 51.940624 174.35938Q52.253124 174.14062 52.628124 174.14062Q53.159374 174.14062 53.70625 174.46875L53.346874 175.45312Q52.95625 175.21875 52.58125 175.21875Q52.221874 175.21875 51.940624 175.4375Q51.675 175.64062 51.565624 176.01562Q51.378124 176.57812 51.378124 177.23438L51.378124 180.5L50.33125 180.5ZM54.3 182.89062L54.175 181.90625Q54.51875 182.0 54.784374 182.0Q55.128124 182.0 55.33125 181.875Q55.55 181.76562 55.690624 181.5625Q55.784374 181.39062 56.01875 180.76562Q56.034374 180.6875 56.1125 180.51562L53.7375 174.28125L54.878124 174.28125L56.175 177.875Q56.425 178.5625 56.628124 179.32812Q56.815624 178.59375 57.065624 177.90625L58.39375 174.28125L59.440624 174.28125L57.08125 180.60938Q56.690624 181.625 56.4875 182.01562Q56.20625 182.54688 55.83125 182.78125Q55.471874 183.03125 54.971874 183.03125Q54.675 183.03125 54.3 182.89062ZM67.51875 174.01562L66.47188 174.09375Q66.33125 173.46875 66.08125 173.1875Q65.64375 172.73438 65.01875 172.73438Q64.51875 172.73438 64.12813 173.01562Q63.64375 173.39062 63.346874 174.09375Q63.065624 174.78125 63.05 176.0625Q63.425 175.48438 63.971874 175.20312Q64.53438 174.92188 65.14375 174.92188Q66.19063 174.92188 66.925 175.70312Q67.675 176.48438 67.675 177.70312Q67.675 178.51562 67.31563 179.21875Q66.97188 179.90625 66.3625 180.28125Q65.75313 180.64062 64.9875 180.64062Q63.659374 180.64062 62.83125 179.67188Q62.003124 178.70312 62.003124 176.48438Q62.003124 173.98438 62.925 172.85938Q63.721874 171.875 65.08125 171.875Q66.09688 171.875 66.7375 172.45312Q67.39375 173.01562 67.51875 174.01562ZM63.221874 177.71875Q63.221874 178.26562 63.440624 178.76562Q63.675 179.25 64.08125 179.51562Q64.50313 179.78125 64.97188 179.78125Q65.62813 179.78125 66.1125 179.25Q66.59688 178.70312 66.59688 177.78125Q66.59688 176.89062 66.1125 176.375Q65.64375 175.85938 64.925 175.85938Q64.20625 175.85938 63.70625 176.375Q63.221874 176.89062 63.221874 177.71875ZM74.64375 179.5625L74.8 180.48438Q74.34688 180.57812 74.00313 180.57812Q73.425 180.57812 73.1125 180.40625Q72.8 180.21875 72.65938 179.92188Q72.53438 179.625 72.53438 178.67188L72.53438 175.09375L71.76875 175.09375L71.76875 174.28125L72.53438 174.28125L72.53438 172.73438L73.58125 172.10938L73.58125 174.28125L74.64375 174.28125L74.64375 175.09375L73.58125 175.09375L73.58125 178.73438Q73.58125 179.1875 73.62813 179.3125Q73.69063 179.4375 73.81563 179.51562Q73.94063 179.59375 74.175 179.59375Q74.3625 179.59375 74.64375 179.5625ZM74.95625 177.39062Q74.95625 175.65625 75.90938 174.82812Q76.70625 174.14062 77.8625 174.14062Q79.14375 174.14062 79.95625 174.98438Q80.78438 175.8125 80.78438 177.29688Q80.78438 178.5 80.425 179.1875Q80.06563 179.875 79.3625 180.26562Q78.675 180.64062 77.8625 180.64062Q76.56563 180.64062 75.75313 179.8125Q74.95625 178.96875 74.95625 177.39062ZM76.03438 177.39062Q76.03438 178.57812 76.55 179.17188Q77.08125 179.76562 77.8625 179.76562Q78.65938 179.76562 79.175 179.17188Q79.69063 178.57812 79.69063 177.35938Q79.69063 176.20312 79.15938 175.60938Q78.64375 175.01562 77.8625 175.01562Q77.08125 175.01562 76.55 175.60938Q76.03438 176.1875 76.03438 177.39062ZM89.01875 180.5L87.97188 180.5L87.97188 173.78125Q87.58125 174.14062 86.95625 174.51562Q86.34688 174.875 85.8625 175.04688L85.8625 174.03125Q86.7375 173.60938 87.39375 173.03125Q88.06563 172.4375 88.34688 171.875L89.01875 171.875L89.01875 180.5ZM97.59688 179.48438L97.59688 180.5L91.90938 180.5Q91.90938 180.125 92.03438 179.76562Q92.25313 179.1875 92.72188 178.625Q93.20625 178.0625 94.1125 177.32812Q95.51875 176.17188 96.00313 175.5Q96.50313 174.82812 96.50313 174.23438Q96.50313 173.60938 96.05 173.1875Q95.59688 172.75 94.87813 172.75Q94.1125 172.75 93.65938 173.20312Q93.20625 173.65625 93.19063 174.46875L92.1125 174.35938Q92.22188 173.14062 92.94063 172.51562Q93.675 171.875 94.90938 171.875Q96.14375 171.875 96.8625 172.5625Q97.58125 173.25 97.58125 174.26562Q97.58125 174.78125 97.3625 175.28125Q97.15938 175.76562 96.65938 176.32812Q96.175 176.875 95.05 177.82812Q94.09688 178.625 93.81563 178.92188Q93.55 179.20312 93.37813 179.48438L97.59688 179.48438ZM102.34688 180.5L102.34688 174.28125L103.28438 174.28125L103.28438 175.15625Q103.58125 174.6875 104.06563 174.42188Q104.55 174.14062 105.175 174.14062Q105.8625 174.14062 106.3 174.42188Q106.75313 174.70312 106.925 175.21875Q107.675 174.14062 108.84688 174.14062Q109.78438 174.14062 110.26875 174.65625Q110.76875 175.15625 110.76875 176.23438L110.76875 180.5L109.72188 180.5L109.72188 176.57812Q109.72188 175.95312 109.6125 175.67188Q109.51875 175.39062 109.25313 175.21875Q108.9875 175.04688 108.6125 175.04688Q107.95625 175.04688 107.51875 175.48438Q107.09688 175.92188 107.09688 176.89062L107.09688 180.5L106.03438 180.5L106.03438 176.45312Q106.03438 175.75 105.76875 175.40625Q105.51875 175.04688 104.94063 175.04688Q104.4875 175.04688 104.1125 175.28125Q103.7375 175.51562 103.56563 175.96875Q103.39375 176.42188 103.39375 177.26562L103.39375 180.5L102.34688 180.5ZM112.95625 177.39062Q112.95625 175.65625 113.90938 174.82812Q114.70625 174.14062 115.8625 174.14062Q117.14375 174.14062 117.95625 174.98438Q118.78438 175.8125 118.78438 177.29688Q118.78438 178.5 118.425 179.1875Q118.06563 179.875 117.3625 180.26562Q116.675 180.64062 115.8625 180.64062Q114.56563 180.64062 113.75313 179.8125Q112.95625 178.96875 112.95625 177.39062ZM114.03438 177.39062Q114.03438 178.57812 114.55 179.17188Q115.08125 179.76562 115.8625 179.76562Q116.65938 179.76562 117.175 179.17188Q117.69063 178.57812 117.69063 177.35938Q117.69063 176.20312 117.15938 175.60938Q116.64375 175.01562 115.8625 175.01562Q115.08125 175.01562 114.55 175.60938Q114.03438 176.1875 114.03438 177.39062ZM120.34688 180.5L120.34688 174.28125L121.28438 174.28125L121.28438 175.15625Q121.97188 174.14062 123.26875 174.14062Q123.83125 174.14062 124.3 174.34375Q124.78438 174.54688 125.01875 174.875Q125.25313 175.20312 125.34688 175.64062Q125.39375 175.9375 125.39375 176.67188L125.39375 180.5L124.34688 180.5L124.34688 176.71875Q124.34688 176.0625 124.22188 175.75Q124.09688 175.4375 123.78438 175.25Q123.47188 175.04688 123.05 175.04688Q122.37813 175.04688 121.87813 175.48438Q121.39375 175.90625 121.39375 177.09375L121.39375 180.5L120.34688 180.5ZM129.64375 179.5625L129.8 180.48438Q129.34688 180.57812 129.00313 180.57812Q128.425 180.57812 128.1125 180.40625Q127.8 180.21875 127.65938 179.92188Q127.53438 179.625 127.53438 178.67188L127.53438 175.09375L126.76875 175.09375L126.76875 174.28125L127.53438 174.28125L127.53438 172.73438L128.58125 172.10938L128.58125 174.28125L129.64375 174.28125L129.64375 175.09375L128.58125 175.09375L128.58125 178.73438Q128.58125 179.1875 128.62813 179.3125Q128.69063 179.4375 128.81563 179.51562Q128.94063 179.59375 129.175 179.59375Q129.3625 179.59375 129.64375 179.5625ZM130.34688 180.5L130.34688 171.90625L131.39375 171.90625L131.39375 174.98438Q132.12813 174.14062 133.25313 174.14062Q133.95625 174.14062 134.45625 174.42188Q134.97188 174.6875 135.19063 175.17188Q135.40938 175.64062 135.40938 176.5625L135.40938 180.5L134.3625 180.5L134.3625 176.5625Q134.3625 175.76562 134.01875 175.40625Q133.675 175.04688 133.05 175.04688Q132.58125 175.04688 132.15938 175.29688Q131.75313 175.53125 131.56563 175.95312Q131.39375 176.35938 131.39375 177.09375L131.39375 180.5L130.34688 180.5ZM136.925 178.64062L137.95625 178.48438Q138.05 179.10938 138.44063 179.4375Q138.84688 179.76562 139.58125 179.76562Q140.3 179.76562 140.64375 179.48438Q141.00313 179.1875 141.00313 178.78125Q141.00313 178.42188 140.69063 178.21875Q140.47188 178.07812 139.6125 177.85938Q138.45625 177.5625 138.00313 177.35938Q137.56563 177.14062 137.33125 176.76562Q137.09688 176.39062 137.09688 175.92188Q137.09688 175.51562 137.28438 175.15625Q137.47188 174.79688 137.8 174.5625Q138.05 174.39062 138.47188 174.26562Q138.89375 174.14062 139.39375 174.14062Q140.1125 174.14062 140.65938 174.35938Q141.22188 174.5625 141.4875 174.92188Q141.75313 175.28125 141.84688 175.875L140.81563 176.01562Q140.75313 175.54688 140.40938 175.28125Q140.08125 175.0 139.45625 175.0Q138.7375 175.0 138.425 175.25Q138.1125 175.48438 138.1125 175.8125Q138.1125 176.01562 138.2375 176.17188Q138.37813 176.34375 138.64375 176.45312Q138.8 176.51562 139.58125 176.71875Q140.70625 177.03125 141.14375 177.21875Q141.58125 177.40625 141.83125 177.76562Q142.08125 178.125 142.08125 178.67188Q142.08125 179.20312 141.76875 179.67188Q141.47188 180.125 140.89375 180.39062Q140.31563 180.64062 139.58125 180.64062Q138.3625 180.64062 137.72188 180.14062Q137.09688 179.625 136.925 178.64062Z" fill-rule="nonzero"/><path fill="#000000" d="M49.503124 214.2861L49.503124 205.69235L55.70625 205.69235L55.70625 206.70798L50.64375 206.70798L50.64375 209.33298L55.39375 209.33298L55.39375 210.3486L50.64375 210.3486L50.64375 213.27048L55.909374 213.27048L55.909374 214.2861L49.503124 214.2861ZM59.065624 214.2861L56.70625 208.06735L57.815624 208.06735L59.159374 211.7861Q59.3625 212.39548 59.55 213.0361Q59.690624 212.55173 59.940624 211.86423L61.33125 208.06735L62.409374 208.06735L60.05 214.2861L59.065624 214.2861ZM66.59688 212.2861L67.69063 212.4111Q67.44063 213.36423 66.7375 213.89548Q66.03438 214.42673 64.95625 214.42673Q63.596874 214.42673 62.784374 213.58298Q61.9875 212.73923 61.9875 211.2236Q61.9875 209.6611 62.8 208.80173Q63.6125 207.92673 64.89375 207.92673Q66.14375 207.92673 66.925 208.77048Q67.72188 209.61423 67.72188 211.1611Q67.72188 211.25485 67.72188 211.44235L63.08125 211.44235Q63.14375 212.4736 63.659374 213.02048Q64.175 213.55173 64.95625 213.55173Q65.53438 213.55173 65.94063 213.25485Q66.3625 212.94235 66.59688 212.2861ZM63.14375 210.58298L66.6125 210.58298Q66.55 209.7861 66.22188 209.39548Q65.70625 208.7861 64.90938 208.7861Q64.175 208.7861 63.675 209.27048Q63.190624 209.75485 63.14375 210.58298ZM69.33125 214.2861L69.33125 208.06735L70.28438 208.06735L70.28438 209.00485Q70.64375 208.3486 70.94063 208.14548Q71.25313 207.92673 71.62813 207.92673Q72.15938 207.92673 72.70625 208.25485L72.34688 209.23923Q71.95625 209.00485 71.58125 209.00485Q71.22188 209.00485 70.94063 209.2236Q70.675 209.42673 70.56563 209.80173Q70.37813 210.36423 70.37813 211.02048L70.37813 214.2861L69.33125 214.2861ZM73.3 216.67673L73.175 215.69235Q73.51875 215.7861 73.78438 215.7861Q74.12813 215.7861 74.33125 215.6611Q74.55 215.55173 74.69063 215.3486Q74.78438 215.17673 75.01875 214.55173Q75.03438 214.4736 75.1125 214.30173L72.7375 208.06735L73.87813 208.06735L75.175 211.6611Q75.425 212.3486 75.62813 213.11423Q75.81563 212.37985 76.06563 211.69235L77.39375 208.06735L78.44063 208.06735L76.08125 214.39548Q75.69063 215.4111 75.4875 215.80173Q75.20625 216.33298 74.83125 216.56735Q74.47188 216.81735 73.97188 216.81735Q73.675 216.81735 73.3 216.67673ZM85.01875 214.2861L83.97188 214.2861L83.97188 207.56735Q83.58125 207.92673 82.95625 208.30173Q82.34688 208.6611 81.8625 208.83298L81.8625 207.81735Q82.7375 207.39548 83.39375 206.81735Q84.06563 206.2236 84.34688 205.6611L85.01875 205.6611L85.01875 214.2861ZM93.64375 213.3486L93.8 214.27048Q93.34688 214.36423 93.00313 214.36423Q92.425 214.36423 92.1125 214.19235Q91.8 214.00485 91.65938 213.70798Q91.53438 213.4111 91.53438 212.45798L91.53438 208.87985L90.76875 208.87985L90.76875 208.06735L91.53438 208.06735L91.53438 206.52048L92.58125 205.89548L92.58125 208.06735L93.64375 208.06735L93.64375 208.87985L92.58125 208.87985L92.58125 212.52048Q92.58125 212.9736 92.62813 213.0986Q92.69063 213.2236 92.81563 213.30173Q92.94063 213.37985 93.175 213.37985Q93.3625 213.37985 93.64375 213.3486ZM93.95625 211.17673Q93.95625 209.44235 94.90938 208.61423Q95.70625 207.92673 96.8625 207.92673Q98.14375 207.92673 98.95625 208.77048Q99.78438 209.5986 99.78438 211.08298Q99.78438 212.2861 99.425 212.9736Q99.06563 213.6611 98.3625 214.05173Q97.675 214.42673 96.8625 214.42673Q95.56563 214.42673 94.75313 213.5986Q93.95625 212.75485 93.95625 211.17673ZM95.03438 211.17673Q95.03438 212.36423 95.55 212.95798Q96.08125 213.55173 96.8625 213.55173Q97.65938 213.55173 98.175 212.95798Q98.69063 212.36423 98.69063 211.14548Q98.69063 209.98923 98.15938 209.39548Q97.64375 208.80173 96.8625 208.80173Q96.08125 208.80173 95.55 209.39548Q95.03438 209.9736 95.03438 211.17673ZM109.59688 213.27048L109.59688 214.2861L103.90938 214.2861Q103.90938 213.9111 104.03438 213.55173Q104.25313 212.9736 104.72188 212.4111Q105.20625 211.8486 106.1125 211.11423Q107.51875 209.95798 108.00313 209.2861Q108.50313 208.61423 108.50313 208.02048Q108.50313 207.39548 108.05 206.9736Q107.59688 206.5361 106.87813 206.5361Q106.1125 206.5361 105.65938 206.98923Q105.20625 207.44235 105.19063 208.25485L104.1125 208.14548Q104.22188 206.92673 104.94063 206.30173Q105.675 205.6611 106.90938 205.6611Q108.14375 205.6611 108.8625 206.3486Q109.58125 207.0361 109.58125 208.05173Q109.58125 208.56735 109.3625 209.06735Q109.15938 209.55173 108.65938 210.11423Q108.175 210.6611 107.05 211.61423Q106.09688 212.4111 105.81563 212.70798Q105.55 212.98923 105.37813 213.27048L109.59688 213.27048ZM114.3 216.67673L114.175 215.69235Q114.51875 215.7861 114.78438 215.7861Q115.12813 215.7861 115.33125 215.6611Q115.55 215.55173 115.69063 215.3486Q115.78438 215.17673 116.01875 214.55173Q116.03438 214.4736 116.1125 214.30173L113.7375 208.06735L114.87813 208.06735L116.175 211.6611Q116.425 212.3486 116.62813 213.11423Q116.81563 212.37985 117.06563 211.69235L118.39375 208.06735L119.44063 208.06735L117.08125 214.39548Q116.69063 215.4111 116.4875 215.80173Q116.20625 216.33298 115.83125 216.56735Q115.47188 216.81735 114.97188 216.81735Q114.675 216.81735 114.3 216.67673ZM123.59688 212.2861L124.69063 212.4111Q124.44063 213.36423 123.7375 213.89548Q123.03438 214.42673 121.95625 214.42673Q120.59688 214.42673 119.78438 213.58298Q118.9875 212.73923 118.9875 211.2236Q118.9875 209.6611 119.8 208.80173Q120.6125 207.92673 121.89375 207.92673Q123.14375 207.92673 123.925 208.77048Q124.72188 209.61423 124.72188 211.1611Q124.72188 211.25485 124.72188 211.44235L120.08125 211.44235Q120.14375 212.4736 120.65938 213.02048Q121.175 213.55173 121.95625 213.55173Q122.53438 213.55173 122.94063 213.25485Q123.3625 212.94235 123.59688 212.2861ZM120.14375 210.58298L123.6125 210.58298Q123.55 209.7861 123.22188 209.39548Q122.70625 208.7861 121.90938 208.7861Q121.175 208.7861 120.675 209.27048Q120.19063 209.75485 120.14375 210.58298ZM130.40938 213.52048Q129.81563 214.02048 129.26875 214.2236Q128.7375 214.42673 128.1125 214.42673Q127.08125 214.42673 126.53438 213.92673Q125.9875 213.42673 125.9875 212.64548Q125.9875 212.19235 126.19063 211.81735Q126.39375 211.42673 126.7375 211.20798Q127.08125 210.9736 127.50313 210.86423Q127.8 210.77048 128.44063 210.69235Q129.70625 210.55173 130.31563 210.33298Q130.31563 210.11423 130.31563 210.06735Q130.31563 209.4111 130.01875 209.14548Q129.6125 208.80173 128.81563 208.80173Q128.08125 208.80173 127.72188 209.06735Q127.3625 209.31735 127.19063 209.9736L126.15938 209.83298Q126.3 209.17673 126.62813 208.77048Q126.95625 208.36423 127.56563 208.14548Q128.175 207.92673 128.97188 207.92673Q129.76875 207.92673 130.26875 208.11423Q130.76875 208.30173 131.00313 208.58298Q131.2375 208.86423 131.33125 209.30173Q131.37813 209.56735 131.37813 210.27048L131.37813 211.67673Q131.37813 213.14548 131.44063 213.5361Q131.51875 213.92673 131.72188 214.2861L130.6125 214.2861Q130.45625 213.95798 130.40938 213.52048ZM130.31563 211.1611Q129.7375 211.39548 128.59688 211.56735Q127.94063 211.6611 127.675 211.7861Q127.40938 211.89548 127.25313 212.11423Q127.1125 212.33298 127.1125 212.61423Q127.1125 213.0361 127.425 213.31735Q127.75313 213.5986 128.3625 213.5986Q128.97188 213.5986 129.44063 213.33298Q129.925 213.06735 130.14375 212.5986Q130.31563 212.23923 130.31563 211.55173L130.31563 211.1611ZM133.33125 214.2861L133.33125 208.06735L134.28438 208.06735L134.28438 209.00485Q134.64375 208.3486 134.94063 208.14548Q135.25313 207.92673 135.62813 207.92673Q136.15938 207.92673 136.70625 208.25485L136.34688 209.23923Q135.95625 209.00485 135.58125 209.00485Q135.22188 209.00485 134.94063 209.2236Q134.675 209.42673 134.56563 209.80173Q134.37813 210.36423 134.37813 211.02048L134.37813 214.2861L133.33125 214.2861ZM136.925 212.42673L137.95625 212.27048Q138.05 212.89548 138.44063 213.2236Q138.84688 213.55173 139.58125 213.55173Q140.3 213.55173 140.64375 213.27048Q141.00313 212.9736 141.00313 212.56735Q141.00313 212.20798 140.69063 212.00485Q140.47188 211.86423 139.6125 211.64548Q138.45625 211.3486 138.00313 211.14548Q137.56563 210.92673 137.33125 210.55173Q137.09688 210.17673 137.09688 209.70798Q137.09688 209.30173 137.28438 208.94235Q137.47188 208.58298 137.8 208.3486Q138.05 208.17673 138.47188 208.05173Q138.89375 207.92673 139.39375 207.92673Q140.1125 207.92673 140.65938 208.14548Q141.22188 208.3486 141.4875 208.70798Q141.75313 209.06735 141.84688 209.6611L140.81563 209.80173Q140.75313 209.33298 140.40938 209.06735Q140.08125 208.7861 139.45625 208.7861Q138.7375 208.7861 138.425 209.0361Q138.1125 209.27048 138.1125 209.5986Q138.1125 209.80173 138.2375 209.95798Q138.37813 210.12985 138.64375 210.23923Q138.8 210.30173 139.58125 210.50485Q140.70625 210.81735 141.14375 211.00485Q141.58125 211.19235 141.83125 211.55173Q142.08125 211.9111 142.08125 212.45798Q142.08125 212.98923 141.76875 213.45798Q141.47188 213.9111 140.89375 214.17673Q140.31563 214.42673 139.58125 214.42673Q138.3625 214.42673 137.72188 213.92673Q137.09688 213.4111 136.925 212.42673Z" fill-rule="nonzero"/><path fill="#000000" d="M58.503124 248.07219L58.503124 239.47844L64.70625 239.47844L64.70625 240.49406L59.64375 240.49406L59.64375 243.11906L64.39375 243.11906L64.39375 244.13469L59.64375 244.13469L59.64375 247.05656L64.90938 247.05656L64.90938 248.07219L58.503124 248.07219ZM68.06563 248.07219L65.70625 241.85344L66.81563 241.85344L68.15938 245.57219Q68.3625 246.18156 68.55 246.82219Q68.69063 246.33781 68.94063 245.65031L70.33125 241.85344L71.40938 241.85344L69.05 248.07219L68.06563 248.07219ZM75.59688 246.07219L76.69063 246.19719Q76.44063 247.15031 75.7375 247.68156Q75.03438 248.21281 73.95625 248.21281Q72.59688 248.21281 71.78438 247.36906Q70.9875 246.52531 70.9875 245.00969Q70.9875 243.44719 71.8 242.58781Q72.6125 241.71281 73.89375 241.71281Q75.14375 241.71281 75.925 242.55656Q76.72188 243.40031 76.72188 244.94719Q76.72188 245.04094 76.72188 245.22844L72.08125 245.22844Q72.14375 246.25969 72.65938 246.80656Q73.175 247.33781 73.95625 247.33781Q74.53438 247.33781 74.94063 247.04094Q75.3625 246.72844 75.59688 246.07219ZM72.14375 244.36906L75.6125 244.36906Q75.55 243.57219 75.22188 243.18156Q74.70625 242.57219 73.90938 242.57219Q73.175 242.57219 72.675 243.05656Q72.19063 243.54094 72.14375 244.36906ZM78.33125 248.07219L78.33125 241.85344L79.28438 241.85344L79.28438 242.79094Q79.64375 242.13469 79.94063 241.93156Q80.25313 241.71281 80.62813 241.71281Q81.15938 241.71281 81.70625 242.04094L81.34688 243.02531Q80.95625 242.79094 80.58125 242.79094Q80.22188 242.79094 79.94063 243.00969Q79.675 243.21281 79.56563 243.58781Q79.37813 244.15031 79.37813 244.80656L79.37813 248.07219L78.33125 248.07219ZM82.3 250.46281L82.175 249.47844Q82.51875 249.57219 82.78438 249.57219Q83.12813 249.57219 83.33125 249.44719Q83.55 249.33781 83.69063 249.13469Q83.78438 248.96281 84.01875 248.33781Q84.03438 248.25969 84.1125 248.08781L81.7375 241.85344L82.87813 241.85344L84.175 245.44719Q84.425 246.13469 84.62813 246.90031Q84.81563 246.16594 85.06563 245.47844L86.39375 241.85344L87.44063 241.85344L85.08125 248.18156Q84.69063 249.19719 84.4875 249.58781Q84.20625 250.11906 83.83125 250.35344Q83.47188 250.60344 82.97188 250.60344Q82.675 250.60344 82.3 250.46281ZM95.59688 247.05656L95.59688 248.07219L89.90938 248.07219Q89.90938 247.69719 90.03438 247.33781Q90.25313 246.75969 90.72188 246.19719Q91.20625 245.63469 92.1125 244.90031Q93.51875 243.74406 94.00313 243.07219Q94.50313 242.40031 94.50313 241.80656Q94.50313 241.18156 94.05 240.75969Q93.59688 240.32219 92.87813 240.32219Q92.1125 240.32219 91.65938 240.77531Q91.20625 241.22844 91.19063 242.04094L90.1125 241.93156Q90.22188 240.71281 90.94063 240.08781Q91.675 239.44719 92.90938 239.44719Q94.14375 239.44719 94.8625 240.13469Q95.58125 240.82219 95.58125 241.83781Q95.58125 242.35344 95.3625 242.85344Q95.15938 243.33781 94.65938 243.90031Q94.175 244.44719 93.05 245.40031Q92.09688 246.19719 91.81563 246.49406Q91.55 246.77531 91.37813 247.05656L95.59688 247.05656ZM99.925 245.49406L99.925 244.43156L103.175 244.43156L103.175 245.49406L99.925 245.49406ZM104.05 245.82219L105.15938 245.72844Q105.28438 246.54094 105.72188 246.94719Q106.175 247.35344 106.81563 247.35344Q107.56563 247.35344 108.09688 246.77531Q108.62813 246.19719 108.62813 245.25969Q108.62813 244.35344 108.1125 243.83781Q107.6125 243.30656 106.78438 243.30656Q106.28438 243.30656 105.8625 243.54094Q105.45625 243.77531 105.22188 244.13469L104.2375 244.00969L105.06563 239.60344L109.34688 239.60344L109.34688 240.60344L105.90938 240.60344L105.45625 242.91594Q106.22188 242.36906 107.06563 242.36906Q108.19063 242.36906 108.95625 243.15031Q109.7375 243.93156 109.7375 245.16594Q109.7375 246.32219 109.06563 247.18156Q108.2375 248.21281 106.81563 248.21281Q105.64375 248.21281 104.89375 247.55656Q104.15938 246.90031 104.05 245.82219ZM114.3 250.46281L114.175 249.47844Q114.51875 249.57219 114.78438 249.57219Q115.12813 249.57219 115.33125 249.44719Q115.55 249.33781 115.69063 249.13469Q115.78438 248.96281 116.01875 248.33781Q116.03438 248.25969 116.1125 248.08781L113.7375 241.85344L114.87813 241.85344L116.175 245.44719Q116.425 246.13469 116.62813 246.90031Q116.81563 246.16594 117.06563 245.47844L118.39375 241.85344L119.44063 241.85344L117.08125 248.18156Q116.69063 249.19719 116.4875 249.58781Q116.20625 250.11906 115.83125 250.35344Q115.47188 250.60344 114.97188 250.60344Q114.675 250.60344 114.3 250.46281ZM123.59688 246.07219L124.69063 246.19719Q124.44063 247.15031 123.7375 247.68156Q123.03438 248.21281 121.95625 248.21281Q120.59688 248.21281 119.78438 247.36906Q118.9875 246.52531 118.9875 245.00969Q118.9875 243.44719 119.8 242.58781Q120.6125 241.71281 121.89375 241.71281Q123.14375 241.71281 123.925 242.55656Q124.72188 243.40031 124.72188 244.94719Q124.72188 245.04094 124.72188 245.22844L120.08125 245.22844Q120.14375 246.25969 120.65938 246.80656Q121.175 247.33781 121.95625 247.33781Q122.53438 247.33781 122.94063 247.04094Q123.3625 246.72844 123.59688 246.07219ZM120.14375 244.36906L123.6125 244.36906Q123.55 243.57219 123.22188 243.18156Q122.70625 242.57219 121.90938 242.57219Q121.175 242.57219 120.675 243.05656Q120.19063 243.54094 120.14375 244.36906ZM130.40938 247.30656Q129.81563 247.80656 129.26875 248.00969Q128.7375 248.21281 128.1125 248.21281Q127.08125 248.21281 126.53438 247.71281Q125.9875 247.21281 125.9875 246.43156Q125.9875 245.97844 126.19063 245.60344Q126.39375 245.21281 126.7375 244.99406Q127.08125 244.75969 127.50313 244.65031Q127.8 244.55656 128.44063 244.47844Q129.70625 244.33781 130.31563 244.11906Q130.31563 243.90031 130.31563 243.85344Q130.31563 243.19719 130.01875 242.93156Q129.6125 242.58781 128.81563 242.58781Q128.08125 242.58781 127.72188 242.85344Q127.3625 243.10344 127.19063 243.75969L126.15938 243.61906Q126.3 242.96281 126.62813 242.55656Q126.95625 242.15031 127.56563 241.93156Q128.175 241.71281 128.97188 241.71281Q129.76875 241.71281 130.26875 241.90031Q130.76875 242.08781 131.00313 242.36906Q131.2375 242.65031 131.33125 243.08781Q131.37813 243.35344 131.37813 244.05656L131.37813 245.46281Q131.37813 246.93156 131.44063 247.32219Q131.51875 247.71281 131.72188 248.07219L130.6125 248.07219Q130.45625 247.74406 130.40938 247.30656ZM130.31563 244.94719Q129.7375 245.18156 128.59688 245.35344Q127.94063 245.44719 127.675 245.57219Q127.40938 245.68156 127.25313 245.90031Q127.1125 246.11906 127.1125 246.40031Q127.1125 246.82219 127.425 247.10344Q127.75313 247.38469 128.3625 247.38469Q128.97188 247.38469 129.44063 247.11906Q129.925 246.85344 130.14375 246.38469Q130.31563 246.02531 130.31563 245.33781L130.31563 244.94719ZM133.33125 248.07219L133.33125 241.85344L134.28438 241.85344L134.28438 242.79094Q134.64375 242.13469 134.94063 241.93156Q135.25313 241.71281 135.62813 241.71281Q136.15938 241.71281 136.70625 242.04094L136.34688 243.02531Q135.95625 242.79094 135.58125 242.79094Q135.22188 242.79094 134.94063 243.00969Q134.675 243.21281 134.56563 243.58781Q134.37813 244.15031 134.37813 244.80656L134.37813 248.07219L133.33125 248.07219ZM136.925 246.21281L137.95625 246.05656Q138.05 246.68156 138.44063 247.00969Q138.84688 247.33781 139.58125 247.33781Q140.3 247.33781 140.64375 247.05656Q141.00313 246.75969 141.00313 246.35344Q141.00313 245.99406 140.69063 245.79094Q140.47188 245.65031 139.6125 245.43156Q138.45625 245.13469 138.00313 244.93156Q137.56563 244.71281 137.33125 244.33781Q137.09688 243.96281 137.09688 243.49406Q137.09688 243.08781 137.28438 242.72844Q137.47188 242.36906 137.8 242.13469Q138.05 241.96281 138.47188 241.83781Q138.89375 241.71281 139.39375 241.71281Q140.1125 241.71281 140.65938 241.93156Q141.22188 242.13469 141.4875 242.49406Q141.75313 242.85344 141.84688 243.44719L140.81563 243.58781Q140.75313 243.11906 140.40938 242.85344Q140.08125 242.57219 139.45625 242.57219Q138.7375 242.57219 138.425 242.82219Q138.1125 243.05656 138.1125 243.38469Q138.1125 243.58781 138.2375 243.74406Q138.37813 243.91594 138.64375 244.02531Q138.8 244.08781 139.58125 244.29094Q140.70625 244.60344 141.14375 244.79094Q141.58125 244.97844 141.83125 245.33781Q142.08125 245.69719 142.08125 246.24406Q142.08125 246.77531 141.76875 247.24406Q141.47188 247.69719 140.89375 247.96281Q140.31563 248.21281 139.58125 248.21281Q138.3625 248.21281 137.72188 247.71281Q137.09688 247.19719 136.925 246.21281Z" fill-rule="nonzero"/><path fill="#000000" d="M48.503124 281.85828L48.503124 273.26453L54.70625 273.26453L54.70625 274.28015L49.64375 274.28015L49.64375 276.90515L54.39375 276.90515L54.39375 277.92078L49.64375 277.92078L49.64375 280.84265L54.909374 280.84265L54.909374 281.85828L48.503124 281.85828ZM58.065624 281.85828L55.70625 275.63953L56.815624 275.63953L58.159374 279.35828Q58.3625 279.96765 58.55 280.60828Q58.690624 280.1239 58.940624 279.4364L60.33125 275.63953L61.409374 275.63953L59.05 281.85828L58.065624 281.85828ZM65.59688 279.85828L66.69063 279.98328Q66.44063 280.9364 65.7375 281.46765Q65.03438 281.9989 63.95625 281.9989Q62.596874 281.9989 61.784374 281.15515Q60.9875 280.3114 60.9875 278.79578Q60.9875 277.23328 61.8 276.3739Q62.6125 275.4989 63.89375 275.4989Q65.14375 275.4989 65.925 276.34265Q66.72188 277.1864 66.72188 278.73328Q66.72188 278.82703 66.72188 279.01453L62.08125 279.01453Q62.14375 280.04578 62.659374 280.59265Q63.175 281.1239 63.95625 281.1239Q64.53438 281.1239 64.94063 280.82703Q65.3625 280.51453 65.59688 279.85828ZM62.14375 278.15515L65.6125 278.15515Q65.55 277.35828 65.22188 276.96765Q64.70625 276.35828 63.909374 276.35828Q63.175 276.35828 62.675 276.84265Q62.190624 277.32703 62.14375 278.15515ZM68.33125 281.85828L68.33125 275.63953L69.28438 275.63953L69.28438 276.57703Q69.64375 275.92078 69.94063 275.71765Q70.25313 275.4989 70.62813 275.4989Q71.15938 275.4989 71.70625 275.82703L71.34688 276.8114Q70.95625 276.57703 70.58125 276.57703Q70.22188 276.57703 69.94063 276.79578Q69.675 276.9989 69.56563 277.3739Q69.37813 277.9364 69.37813 278.59265L69.37813 281.85828L68.33125 281.85828ZM72.3 284.2489L72.175 283.26453Q72.51875 283.35828 72.78438 283.35828Q73.12813 283.35828 73.33125 283.23328Q73.55 283.1239 73.69063 282.92078Q73.78438 282.7489 74.01875 282.1239Q74.03438 282.04578 74.1125 281.8739L71.7375 275.63953L72.87813 275.63953L74.175 279.23328Q74.425 279.92078 74.62813 280.6864Q74.81563 279.95203 75.06563 279.26453L76.39375 275.63953L77.44063 275.63953L75.08125 281.96765Q74.69063 282.98328 74.4875 283.3739Q74.20625 283.90515 73.83125 284.13953Q73.47188 284.38953 72.97188 284.38953Q72.675 284.38953 72.3 284.2489ZM80.05 279.60828L81.15938 279.51453Q81.28438 280.32703 81.72188 280.73328Q82.175 281.13953 82.81563 281.13953Q83.56563 281.13953 84.09688 280.5614Q84.62813 279.98328 84.62813 279.04578Q84.62813 278.13953 84.1125 277.6239Q83.6125 277.09265 82.78438 277.09265Q82.28438 277.09265 81.8625 277.32703Q81.45625 277.5614 81.22188 277.92078L80.2375 277.79578L81.06563 273.38953L85.34688 273.38953L85.34688 274.38953L81.90938 274.38953L81.45625 276.70203Q82.22188 276.15515 83.06563 276.15515Q84.19063 276.15515 84.95625 276.9364Q85.7375 277.71765 85.7375 278.95203Q85.7375 280.10828 85.06563 280.96765Q84.2375 281.9989 82.81563 281.9989Q81.64375 281.9989 80.89375 281.34265Q80.15938 280.6864 80.05 279.60828ZM89.925 279.28015L89.925 278.21765L93.175 278.21765L93.175 279.28015L89.925 279.28015ZM101.01875 281.85828L99.97188 281.85828L99.97188 275.13953Q99.58125 275.4989 98.95625 275.8739Q98.34688 276.23328 97.8625 276.40515L97.8625 275.38953Q98.7375 274.96765 99.39375 274.38953Q100.06563 273.79578 100.34688 273.23328L101.01875 273.23328L101.01875 281.85828ZM104.05 277.6239Q104.05 276.09265 104.3625 275.17078Q104.675 274.23328 105.28438 273.73328Q105.90938 273.23328 106.84688 273.23328Q107.53438 273.23328 108.05 273.51453Q108.58125 273.79578 108.925 274.32703Q109.26875 274.84265 109.45625 275.59265Q109.64375 276.34265 109.64375 277.6239Q109.64375 279.13953 109.33125 280.0614Q109.03438 280.98328 108.40938 281.4989Q107.8 281.9989 106.84688 281.9989Q105.6125 281.9989 104.89375 281.10828Q104.05 280.04578 104.05 277.6239ZM105.12813 277.6239Q105.12813 279.73328 105.62813 280.4364Q106.12813 281.13953 106.84688 281.13953Q107.58125 281.13953 108.06563 280.4364Q108.56563 279.73328 108.56563 277.6239Q108.56563 275.4989 108.06563 274.8114Q107.58125 274.10828 106.83125 274.10828Q106.1125 274.10828 105.675 274.71765Q105.12813 275.4989 105.12813 277.6239ZM114.3 284.2489L114.175 283.26453Q114.51875 283.35828 114.78438 283.35828Q115.12813 283.35828 115.33125 283.23328Q115.55 283.1239 115.69063 282.92078Q115.78438 282.7489 116.01875 282.1239Q116.03438 282.04578 116.1125 281.8739L113.7375 275.63953L114.87813 275.63953L116.175 279.23328Q116.425 279.92078 116.62813 280.6864Q116.81563 279.95203 117.06563 279.26453L118.39375 275.63953L119.44063 275.63953L117.08125 281.96765Q116.69063 282.98328 116.4875 283.3739Q116.20625 283.90515 115.83125 284.13953Q115.47188 284.38953 114.97188 284.38953Q114.675 284.38953 114.3 284.2489ZM123.59688 279.85828L124.69063 279.98328Q124.44063 280.9364 123.7375 281.46765Q123.03438 281.9989 121.95625 281.9989Q120.59688 281.9989 119.78438 281.15515Q118.9875 280.3114 118.9875 278.79578Q118.9875 277.23328 119.8 276.3739Q120.6125 275.4989 121.89375 275.4989Q123.14375 275.4989 123.925 276.34265Q124.72188 277.1864 124.72188 278.73328Q124.72188 278.82703 124.72188 279.01453L120.08125 279.01453Q120.14375 280.04578 120.65938 280.59265Q121.175 281.1239 121.95625 281.1239Q122.53438 281.1239 122.94063 280.82703Q123.3625 280.51453 123.59688 279.85828ZM120.14375 278.15515L123.6125 278.15515Q123.55 277.35828 123.22188 276.96765Q122.70625 276.35828 121.90938 276.35828Q121.175 276.35828 120.675 276.84265Q120.19063 277.32703 120.14375 278.15515ZM130.40938 281.09265Q129.81563 281.59265 129.26875 281.79578Q128.7375 281.9989 128.1125 281.9989Q127.08125 281.9989 126.53438 281.4989Q125.9875 280.9989 125.9875 280.21765Q125.9875 279.76453 126.19063 279.38953Q126.39375 278.9989 126.7375 278.78015Q127.08125 278.54578 127.50313 278.4364Q127.8 278.34265 128.44063 278.26453Q129.70625 278.1239 130.31563 277.90515Q130.31563 277.6864 130.31563 277.63953Q130.31563 276.98328 130.01875 276.71765Q129.6125 276.3739 128.81563 276.3739Q128.08125 276.3739 127.72188 276.63953Q127.3625 276.88953 127.19063 277.54578L126.15938 277.40515Q126.3 276.7489 126.62813 276.34265Q126.95625 275.9364 127.56563 275.71765Q128.175 275.4989 128.97188 275.4989Q129.76875 275.4989 130.26875 275.6864Q130.76875 275.8739 131.00313 276.15515Q131.2375 276.4364 131.33125 276.8739Q131.37813 277.13953 131.37813 277.84265L131.37813 279.2489Q131.37813 280.71765 131.44063 281.10828Q131.51875 281.4989 131.72188 281.85828L130.6125 281.85828Q130.45625 281.53015 130.40938 281.09265ZM130.31563 278.73328Q129.7375 278.96765 128.59688 279.13953Q127.94063 279.23328 127.675 279.35828Q127.40938 279.46765 127.25313 279.6864Q127.1125 279.90515 127.1125 280.1864Q127.1125 280.60828 127.425 280.88953Q127.75313 281.17078 128.3625 281.17078Q128.97188 281.17078 129.44063 280.90515Q129.925 280.63953 130.14375 280.17078Q130.31563 279.8114 130.31563 279.1239L130.31563 278.73328ZM133.33125 281.85828L133.33125 275.63953L134.28438 275.63953L134.28438 276.57703Q134.64375 275.92078 134.94063 275.71765Q135.25313 275.4989 135.62813 275.4989Q136.15938 275.4989 136.70625 275.82703L136.34688 276.8114Q135.95625 276.57703 135.58125 276.57703Q135.22188 276.57703 134.94063 276.79578Q134.675 276.9989 134.56563 277.3739Q134.37813 277.9364 134.37813 278.59265L134.37813 281.85828L133.33125 281.85828ZM136.925 279.9989L137.95625 279.84265Q138.05 280.46765 138.44063 280.79578Q138.84688 281.1239 139.58125 281.1239Q140.3 281.1239 140.64375 280.84265Q141.00313 280.54578 141.00313 280.13953Q141.00313 279.78015 140.69063 279.57703Q140.47188 279.4364 139.6125 279.21765Q138.45625 278.92078 138.00313 278.71765Q137.56563 278.4989 137.33125 278.1239Q137.09688 277.7489 137.09688 277.28015Q137.09688 276.8739 137.28438 276.51453Q137.47188 276.15515 137.8 275.92078Q138.05 275.7489 138.47188 275.6239Q138.89375 275.4989 139.39375 275.4989Q140.1125 275.4989 140.65938 275.71765Q141.22188 275.92078 141.4875 276.28015Q141.75313 276.63953 141.84688 277.23328L140.81563 277.3739Q140.75313 276.90515 140.40938 276.63953Q140.08125 276.35828 139.45625 276.35828Q138.7375 276.35828 138.425 276.60828Q138.1125 276.84265 138.1125 277.17078Q138.1125 277.3739 138.2375 277.53015Q138.37813 277.70203 138.64375 277.8114Q138.8 277.8739 139.58125 278.07703Q140.70625 278.38953 141.14375 278.57703Q141.58125 278.76453 141.83125 279.1239Q142.08125 279.48328 142.08125 280.03015Q142.08125 280.5614 141.76875 281.03015Q141.47188 281.48328 140.89375 281.7489Q140.31563 281.9989 139.58125 281.9989Q138.3625 281.9989 137.72188 281.4989Q137.09688 280.98328 136.925 279.9989Z" fill-rule="nonzero"/><path fill="#000000" d="M19.503124 315.64438L19.503124 307.05063L25.70625 307.05063L25.70625 308.06625L20.64375 308.06625L20.64375 310.69125L25.39375 310.69125L25.39375 311.70688L20.64375 311.70688L20.64375 314.62875L25.909374 314.62875L25.909374 315.64438L19.503124 315.64438ZM29.065624 315.64438L26.70625 309.42563L27.815624 309.42563L29.159374 313.14438Q29.3625 313.75375 29.55 314.39438Q29.690624 313.91 29.940624 313.2225L31.33125 309.42563L32.409374 309.42563L30.05 315.64438L29.065624 315.64438ZM36.596874 313.64438L37.690624 313.76938Q37.440624 314.7225 36.7375 315.25375Q36.034374 315.785 34.95625 315.785Q33.596874 315.785 32.784374 314.94125Q31.9875 314.0975 31.9875 312.58188Q31.9875 311.01938 32.8 310.16Q33.6125 309.285 34.89375 309.285Q36.14375 309.285 36.925 310.12875Q37.721874 310.9725 37.721874 312.51938Q37.721874 312.61313 37.721874 312.80063L33.08125 312.80063Q33.14375 313.83188 33.659374 314.37875Q34.175 314.91 34.95625 314.91Q35.534374 314.91 35.940624 314.61313Q36.3625 314.30063 36.596874 313.64438ZM33.14375 311.94125L36.6125 311.94125Q36.55 311.14438 36.221874 310.75375Q35.70625 310.14438 34.909374 310.14438Q34.175 310.14438 33.675 310.62875Q33.190624 311.11313 33.14375 311.94125ZM39.33125 315.64438L39.33125 309.42563L40.284374 309.42563L40.284374 310.36313Q40.64375 309.70688 40.940624 309.50375Q41.253124 309.285 41.628124 309.285Q42.159374 309.285 42.70625 309.61313L42.346874 310.5975Q41.95625 310.36313 41.58125 310.36313Q41.221874 310.36313 40.940624 310.58188Q40.675 310.785 40.565624 311.16Q40.378124 311.7225 40.378124 312.37875L40.378124 315.64438L39.33125 315.64438ZM43.3 318.035L43.175 317.05063Q43.51875 317.14438 43.784374 317.14438Q44.128124 317.14438 44.33125 317.01938Q44.55 316.91 44.690624 316.70688Q44.784374 316.535 45.01875 315.91Q45.034374 315.83188 45.1125 315.66L42.7375 309.42563L43.878124 309.42563L45.175 313.01938Q45.425 313.70688 45.628124 314.4725Q45.815624 313.73813 46.065624 313.05063L47.39375 309.42563L48.440624 309.42563L46.08125 315.75375Q45.690624 316.76938 45.4875 317.16Q45.20625 317.69125 44.83125 317.92563Q44.471874 318.17563 43.971874 318.17563Q43.675 318.17563 43.3 318.035ZM55.01875 315.64438L53.971874 315.64438L53.971874 308.92563Q53.58125 309.285 52.95625 309.66Q52.346874 310.01938 51.8625 310.19125L51.8625 309.17563Q52.7375 308.75375 53.39375 308.17563Q54.065624 307.58188 54.346874 307.01938L55.01875 307.01938L55.01875 315.64438ZM58.05 311.41Q58.05 309.87875 58.3625 308.95688Q58.675 308.01938 59.284374 307.51938Q59.909374 307.01938 60.846874 307.01938Q61.534374 307.01938 62.05 307.30063Q62.58125 307.58188 62.925 308.11313Q63.26875 308.62875 63.45625 309.37875Q63.64375 310.12875 63.64375 311.41Q63.64375 312.92563 63.33125 313.8475Q63.034374 314.76938 62.409374 315.285Q61.8 315.785 60.846874 315.785Q59.6125 315.785 58.89375 314.89438Q58.05 313.83188 58.05 311.41ZM59.128124 311.41Q59.128124 313.51938 59.628124 314.2225Q60.128124 314.92563 60.846874 314.92563Q61.58125 314.92563 62.065624 314.2225Q62.565624 313.51938 62.565624 311.41Q62.565624 309.285 62.065624 308.5975Q61.58125 307.89438 60.83125 307.89438Q60.1125 307.89438 59.675 308.50375Q59.128124 309.285 59.128124 311.41ZM68.3 318.035L68.175 317.05063Q68.51875 317.14438 68.78438 317.14438Q69.12813 317.14438 69.33125 317.01938Q69.55 316.91 69.69063 316.70688Q69.78438 316.535 70.01875 315.91Q70.03438 315.83188 70.1125 315.66L67.7375 309.42563L68.87813 309.42563L70.175 313.01938Q70.425 313.70688 70.62813 314.4725Q70.81563 313.73813 71.06563 313.05063L72.39375 309.42563L73.44063 309.42563L71.08125 315.75375Q70.69063 316.76938 70.4875 317.16Q70.20625 317.69125 69.83125 317.92563Q69.47188 318.17563 68.97188 318.17563Q68.675 318.17563 68.3 318.035ZM77.59688 313.64438L78.69063 313.76938Q78.44063 314.7225 77.7375 315.25375Q77.03438 315.785 75.95625 315.785Q74.59688 315.785 73.78438 314.94125Q72.9875 314.0975 72.9875 312.58188Q72.9875 311.01938 73.8 310.16Q74.6125 309.285 75.89375 309.285Q77.14375 309.285 77.925 310.12875Q78.72188 310.9725 78.72188 312.51938Q78.72188 312.61313 78.72188 312.80063L74.08125 312.80063Q74.14375 313.83188 74.65938 314.37875Q75.175 314.91 75.95625 314.91Q76.53438 314.91 76.94063 314.61313Q77.3625 314.30063 77.59688 313.64438ZM74.14375 311.94125L77.6125 311.94125Q77.55 311.14438 77.22188 310.75375Q76.70625 310.14438 75.90938 310.14438Q75.175 310.14438 74.675 310.62875Q74.19063 311.11313 74.14375 311.94125ZM84.40938 314.87875Q83.81563 315.37875 83.26875 315.58188Q82.7375 315.785 82.1125 315.785Q81.08125 315.785 80.53438 315.285Q79.9875 314.785 79.9875 314.00375Q79.9875 313.55063 80.19063 313.17563Q80.39375 312.785 80.7375 312.56625Q81.08125 312.33188 81.50313 312.2225Q81.8 312.12875 82.44063 312.05063Q83.70625 311.91 84.31563 311.69125Q84.31563 311.4725 84.31563 311.42563Q84.31563 310.76938 84.01875 310.50375Q83.6125 310.16 82.81563 310.16Q82.08125 310.16 81.72188 310.42563Q81.3625 310.67563 81.19063 311.33188L80.15938 311.19125Q80.3 310.535 80.62813 310.12875Q80.95625 309.7225 81.56563 309.50375Q82.175 309.285 82.97188 309.285Q83.76875 309.285 84.26875 309.4725Q84.76875 309.66 85.00313 309.94125Q85.2375 310.2225 85.33125 310.66Q85.37813 310.92563 85.37813 311.62875L85.37813 313.035Q85.37813 314.50375 85.44063 314.89438Q85.51875 315.285 85.72188 315.64438L84.6125 315.64438Q84.45625 315.31625 84.40938 314.87875ZM84.31563 312.51938Q83.7375 312.75375 82.59688 312.92563Q81.94063 313.01938 81.675 313.14438Q81.40938 313.25375 81.25313 313.4725Q81.1125 313.69125 81.1125 313.9725Q81.1125 314.39438 81.425 314.67563Q81.75313 314.95688 82.3625 314.95688Q82.97188 314.95688 83.44063 314.69125Q83.925 314.42563 84.14375 313.95688Q84.31563 313.5975 84.31563 312.91L84.31563 312.51938ZM87.33125 315.64438L87.33125 309.42563L88.28438 309.42563L88.28438 310.36313Q88.64375 309.70688 88.94063 309.50375Q89.25313 309.285 89.62813 309.285Q90.15938 309.285 90.70625 309.61313L90.34688 310.5975Q89.95625 310.36313 89.58125 310.36313Q89.22188 310.36313 88.94063 310.58188Q88.675 310.785 88.56563 311.16Q88.37813 311.7225 88.37813 312.37875L88.37813 315.64438L87.33125 315.64438ZM90.925 313.785L91.95625 313.62875Q92.05 314.25375 92.44063 314.58188Q92.84688 314.91 93.58125 314.91Q94.3 314.91 94.64375 314.62875Q95.00313 314.33188 95.00313 313.92563Q95.00313 313.56625 94.69063 313.36313Q94.47188 313.2225 93.6125 313.00375Q92.45625 312.70688 92.00313 312.50375Q91.56563 312.285 91.33125 311.91Q91.09688 311.535 91.09688 311.06625Q91.09688 310.66 91.28438 310.30063Q91.47188 309.94125 91.8 309.70688Q92.05 309.535 92.47188 309.41Q92.89375 309.285 93.39375 309.285Q94.1125 309.285 94.65938 309.50375Q95.22188 309.70688 95.4875 310.06625Q95.75313 310.42563 95.84688 311.01938L94.81563 311.16Q94.75313 310.69125 94.40938 310.42563Q94.08125 310.14438 93.45625 310.14438Q92.7375 310.14438 92.425 310.39438Q92.1125 310.62875 92.1125 310.95688Q92.1125 311.16 92.2375 311.31625Q92.37813 311.48813 92.64375 311.5975Q92.8 311.66 93.58125 311.86313Q94.70625 312.17563 95.14375 312.36313Q95.58125 312.55063 95.83125 312.91Q96.08125 313.26938 96.08125 313.81625Q96.08125 314.3475 95.76875 314.81625Q95.47188 315.26938 94.89375 315.535Q94.31563 315.785 93.58125 315.785Q92.3625 315.785 91.72188 315.285Q91.09688 314.76938 90.925 313.785ZM100.95625 312.535Q100.95625 310.80063 101.90938 309.9725Q102.70625 309.285 103.8625 309.285Q105.14375 309.285 105.95625 310.12875Q106.78438 310.95688 106.78438 312.44125Q106.78438 313.64438 106.425 314.33188Q106.06563 315.01938 105.3625 315.41Q104.675 315.785 103.8625 315.785Q102.56563 315.785 101.75313 314.95688Q100.95625 314.11313 100.95625 312.535ZM102.03438 312.535Q102.03438 313.7225 102.55 314.31625Q103.08125 314.91 103.8625 314.91Q104.65938 314.91 105.175 314.31625Q105.69063 313.7225 105.69063 312.50375Q105.69063 311.3475 105.15938 310.75375Q104.64375 310.16 103.8625 310.16Q103.08125 310.16 102.55 310.75375Q102.03438 311.33188 102.03438 312.535ZM108.33125 315.64438L108.33125 309.42563L109.28438 309.42563L109.28438 310.36313Q109.64375 309.70688 109.94063 309.50375Q110.25313 309.285 110.62813 309.285Q111.15938 309.285 111.70625 309.61313L111.34688 310.5975Q110.95625 310.36313 110.58125 310.36313Q110.22188 310.36313 109.94063 310.58188Q109.675 310.785 109.56563 311.16Q109.37813 311.7225 109.37813 312.37875L109.37813 315.64438L108.33125 315.64438ZM115.34688 315.64438L115.34688 309.42563L116.28438 309.42563L116.28438 310.30063Q116.58125 309.83188 117.06563 309.56625Q117.55 309.285 118.175 309.285Q118.8625 309.285 119.3 309.56625Q119.75313 309.8475 119.925 310.36313Q120.675 309.285 121.84688 309.285Q122.78438 309.285 123.26875 309.80063Q123.76875 310.30063 123.76875 311.37875L123.76875 315.64438L122.72188 315.64438L122.72188 311.7225Q122.72188 311.0975 122.6125 310.81625Q122.51875 310.535 122.25313 310.36313Q121.9875 310.19125 121.6125 310.19125Q120.95625 310.19125 120.51875 310.62875Q120.09688 311.06625 120.09688 312.035L120.09688 315.64438L119.03438 315.64438L119.03438 311.5975Q119.03438 310.89438 118.76875 310.55063Q118.51875 310.19125 117.94063 310.19125Q117.4875 310.19125 117.1125 310.42563Q116.7375 310.66 116.56563 311.11313Q116.39375 311.56625 116.39375 312.41L116.39375 315.64438L115.34688 315.64438ZM125.95625 312.535Q125.95625 310.80063 126.90938 309.9725Q127.70625 309.285 128.8625 309.285Q130.14375 309.285 130.95625 310.12875Q131.78438 310.95688 131.78438 312.44125Q131.78438 313.64438 131.425 314.33188Q131.06563 315.01938 130.3625 315.41Q129.675 315.785 128.8625 315.785Q127.56563 315.785 126.75313 314.95688Q125.95625 314.11313 125.95625 312.535ZM127.03438 312.535Q127.03438 313.7225 127.55 314.31625Q128.08125 314.91 128.8625 314.91Q129.65938 314.91 130.175 314.31625Q130.69063 313.7225 130.69063 312.50375Q130.69063 311.3475 130.15938 310.75375Q129.64375 310.16 128.8625 310.16Q128.08125 310.16 127.55 310.75375Q127.03438 311.33188 127.03438 312.535ZM133.33125 315.64438L133.33125 309.42563L134.28438 309.42563L134.28438 310.36313Q134.64375 309.70688 134.94063 309.50375Q135.25313 309.285 135.62813 309.285Q136.15938 309.285 136.70625 309.61313L136.34688 310.5975Q135.95625 310.36313 135.58125 310.36313Q135.22188 310.36313 134.94063 310.58188Q134.675 310.785 134.56563 311.16Q134.37813 311.7225 134.37813 312.37875L134.37813 315.64438L133.33125 315.64438ZM141.59688 313.64438L142.69063 313.76938Q142.44063 314.7225 141.7375 315.25375Q141.03438 315.785 139.95625 315.785Q138.59688 315.785 137.78438 314.94125Q136.9875 314.0975 136.9875 312.58188Q136.9875 311.01938 137.8 310.16Q138.6125 309.285 139.89375 309.285Q141.14375 309.285 141.925 310.12875Q142.72188 310.9725 142.72188 312.51938Q142.72188 312.61313 142.72188 312.80063L138.08125 312.80063Q138.14375 313.83188 138.65938 314.37875Q139.175 314.91 139.95625 314.91Q140.53438 314.91 140.94063 314.61313Q141.3625 314.30063 141.59688 313.64438ZM138.14375 311.94125L141.6125 311.94125Q141.55 311.14438 141.22188 310.75375Q140.70625 310.14438 139.90938 310.14438Q139.175 310.14438 138.675 310.62875Q138.19063 311.11313 138.14375 311.94125Z" fill-rule="nonzero"/><path fill="#000000" d="M152.22188 345.6375Q152.22188 346.5125 152.08125 347.23126Q151.94063 347.95 151.6125 348.48126Q151.3 348.9969 150.78438 349.27814Q150.26875 349.5594 149.51875 349.5594Q148.8 349.5594 148.3 349.3094Q147.81563 349.04376 147.51875 348.5594Q147.22188 348.0594 147.09688 347.34064Q146.97188 346.60626 146.97188 345.66876Q146.97188 344.8094 147.1125 344.09064Q147.25313 343.35626 147.56563 342.84064Q147.89375 342.325 148.40938 342.04376Q148.925 341.7625 149.675 341.7625Q150.39375 341.7625 150.87813 342.0125Q151.3625 342.2625 151.65938 342.7625Q151.97188 343.2625 152.09688 343.98126Q152.22188 344.7 152.22188 345.6375ZM151.19063 345.71564Q151.19063 345.1375 151.14375 344.7Q151.09688 344.2469 151.01875 343.90314Q150.94063 343.54376 150.81563 343.29376Q150.69063 343.04376 150.51875 342.8875Q150.34688 342.73126 150.1125 342.65314Q149.89375 342.575 149.6125 342.575Q149.1125 342.575 148.8 342.8094Q148.4875 343.04376 148.3 343.46564Q148.12813 343.8719 148.06563 344.41876Q148.00313 344.96564 148.00313 345.60626Q148.00313 346.45 148.08125 347.04376Q148.175 347.6375 148.3625 348.0125Q148.56563 348.3875 148.8625 348.5594Q149.15938 348.73126 149.58125 348.73126Q149.90938 348.73126 150.14375 348.6375Q150.39375 348.52814 150.56563 348.34064Q150.75313 348.1375 150.8625 347.85626Q150.9875 347.575 151.05 347.2469Q151.12813 346.91876 151.15938 346.52814Q151.19063 346.1375 151.19063 345.71564Z" fill-rule="nonzero"/><path fill="#000000" d="M278.94687 349.0125Q278.94687 349.1219 278.93124 349.2Q278.91562 349.27814 278.88437 349.34064Q278.85312 349.40314 278.80624 349.4344Q278.775 349.45 278.7125 349.45L274.525 349.45Q274.44687 349.45 274.38437 349.4344Q274.32187 349.40314 274.275 349.35626Q274.22812 349.3094 274.2125 349.23126Q274.19687 349.1375 274.19687 349.0125Q274.19687 348.8875 274.19687 348.8094Q274.2125 348.71564 274.24374 348.65314Q274.275 348.575 274.30624 348.5125Q274.35312 348.45 274.43124 348.3719L275.9 346.8094Q276.41562 346.27814 276.7125 345.85626Q277.025 345.41876 277.18124 345.075Q277.35312 344.71564 277.4 344.4344Q277.4625 344.1375 277.4625 343.8875Q277.4625 343.6375 277.38437 343.41876Q277.30624 343.1844 277.15 343.0125Q276.99374 342.84064 276.75937 342.7469Q276.525 342.65314 276.2125 342.65314Q275.85312 342.65314 275.57187 342.7469Q275.29062 342.84064 275.07187 342.96564Q274.86874 343.075 274.7125 343.1844Q274.57187 343.27814 274.50937 343.27814Q274.4625 343.27814 274.43124 343.2625Q274.4 343.23126 274.36874 343.1844Q274.35312 343.1219 274.3375 343.04376Q274.3375 342.95 274.3375 342.825Q274.3375 342.7469 274.3375 342.6844Q274.35312 342.60626 274.35312 342.5594Q274.36874 342.5125 274.38437 342.48126Q274.41562 342.4344 274.47812 342.3719Q274.55624 342.3094 274.72812 342.21564Q274.91562 342.10626 275.16562 342.0125Q275.43124 341.90314 275.74374 341.84064Q276.05624 341.7625 276.4 341.7625Q276.94687 341.7625 277.35312 341.91876Q277.775 342.0594 278.04062 342.34064Q278.32187 342.60626 278.44687 342.96564Q278.5875 343.325 278.5875 343.73126Q278.5875 344.09064 278.525 344.45Q278.4625 344.8094 278.25937 345.23126Q278.05624 345.65314 277.65 346.16876Q277.25937 346.66876 276.61874 347.34064L275.41562 348.59064L278.7125 348.59064Q278.75937 348.59064 278.80624 348.6219Q278.85312 348.65314 278.88437 348.7Q278.91562 348.7469 278.93124 348.825Q278.94687 348.90314 278.94687 349.0125Z" fill-rule="nonzero"/><path fill="#000000" d="M406.23438 347.29376Q406.23438 347.48126 406.17188 347.60626Q406.125 347.71564 406.01562 347.71564L405.15625 347.71564L405.15625 349.3094Q405.15625 349.35626 405.125 349.3875Q405.10938 349.41876 405.04688 349.45Q405.0 349.46564 404.90625 349.46564Q404.8125 349.48126 404.65625 349.48126Q404.51562 349.48126 404.42188 349.46564Q404.32812 349.46564 404.26562 349.45Q404.21875 349.41876 404.20312 349.3875Q404.1875 349.35626 404.1875 349.3094L404.1875 347.71564L401.04688 347.71564Q400.98438 347.71564 400.9375 347.7Q400.89062 347.66876 400.84375 347.6219Q400.8125 347.575 400.79688 347.4969Q400.78125 347.40314 400.78125 347.2625Q400.78125 347.15314 400.78125 347.075Q400.79688 346.98126 400.8125 346.90314Q400.82812 346.825 400.85938 346.7625Q400.89062 346.7 400.92188 346.6219L403.65625 342.0125Q403.6875 341.96564 403.73438 341.9344Q403.79688 341.90314 403.875 341.8875Q403.96875 341.85626 404.09375 341.84064Q404.23438 341.825 404.40625 341.825Q404.60938 341.825 404.75 341.84064Q404.89062 341.85626 404.96875 341.8875Q405.0625 341.90314 405.10938 341.95Q405.15625 341.98126 405.15625 342.04376L405.15625 346.8719L406.01562 346.8719Q406.10938 346.8719 406.17188 346.98126Q406.23438 347.075 406.23438 347.29376ZM404.1875 342.71564L404.17188 342.71564L401.70312 346.8719L404.1875 346.8719L404.1875 342.71564Z" fill-rule="nonzero"/><path fill="#000000" d="M533.08435 346.9969Q533.08435 347.4969 532.9281 347.96564Q532.77185 348.41876 532.45935 348.77814Q532.14685 349.1375 531.6625 349.35626Q531.1781 349.5594 530.5062 349.5594Q530.0375 349.5594 529.6625 349.45Q529.3031 349.325 529.0375 349.10626Q528.77185 348.8875 528.58435 348.575Q528.4125 348.2625 528.3031 347.85626Q528.1937 347.45 528.14685 346.98126Q528.1 346.4969 528.1 345.9344Q528.1 345.45 528.14685 344.95Q528.20935 344.45 528.33435 343.9969Q528.475 343.52814 528.70935 343.1219Q528.9437 342.71564 529.2875 342.41876Q529.6312 342.10626 530.1156 341.9344Q530.6156 341.7625 531.2562 341.7625Q531.475 341.7625 531.6937 341.79376Q531.9125 341.8094 532.1 341.85626Q532.2875 341.90314 532.4125 341.96564Q532.5531 342.0125 532.58435 342.04376Q532.6312 342.075 532.64685 342.1219Q532.6781 342.15314 532.6781 342.2Q532.6937 342.23126 532.6937 342.29376Q532.70935 342.34064 532.70935 342.4344Q532.70935 342.52814 532.70935 342.60626Q532.70935 342.6844 532.6781 342.73126Q532.6625 342.77814 532.6312 342.8094Q532.6 342.825 532.5375 342.825Q532.475 342.825 532.3656 342.79376Q532.2562 342.7469 532.1 342.7Q531.9437 342.65314 531.70935 342.60626Q531.4906 342.5594 531.1937 342.5594Q530.64685 342.5594 530.2562 342.79376Q529.8656 343.0125 529.6156 343.3875Q529.3656 343.7625 529.2406 344.2625Q529.1156 344.7469 529.1 345.29376Q529.2562 345.2 529.4437 345.1219Q529.6312 345.02814 529.85 344.96564Q530.08435 344.8875 530.33435 344.84064Q530.6 344.79376 530.8812 344.79376Q531.4906 344.79376 531.9125 344.96564Q532.33435 345.1375 532.6 345.4344Q532.8656 345.71564 532.975 346.1219Q533.08435 346.52814 533.08435 346.9969ZM532.0687 347.09064Q532.0687 346.7469 531.9906 346.46564Q531.9281 346.1844 531.77185 345.9969Q531.6156 345.8094 531.35 345.7Q531.08435 345.59064 530.6937 345.59064Q530.475 345.59064 530.2562 345.6375Q530.0531 345.66876 529.85 345.7469Q529.64685 345.8094 529.45935 345.90314Q529.27185 345.98126 529.1156 346.09064Q529.1156 346.84064 529.20935 347.35626Q529.3187 347.8719 529.4906 348.1844Q529.6781 348.48126 529.95935 348.6219Q530.2406 348.7469 530.6 348.7469Q530.975 348.7469 531.2562 348.60626Q531.5375 348.46564 531.70935 348.23126Q531.89685 347.9969 531.975 347.7Q532.0687 347.40314 532.0687 347.09064Z" fill-rule="nonzero"/><path fill="#000000" d="M660.04376 347.4969Q660.04376 347.9969 659.85626 348.3875Q659.6844 348.7625 659.35626 349.02814Q659.02814 349.29376 658.54376 349.4344Q658.0594 349.5594 657.4344 349.5594Q656.84064 349.5594 656.3719 349.4344Q655.91876 349.3094 655.59064 349.075Q655.27814 348.84064 655.10626 348.4969Q654.9344 348.1375 654.9344 347.6844Q654.9344 347.325 655.04376 347.02814Q655.16876 346.73126 655.3875 346.48126Q655.60626 346.21564 655.91876 345.9969Q656.2469 345.77814 656.65314 345.575Q656.3094 345.40314 656.02814 345.2Q655.7625 344.9969 655.575 344.7625Q655.3875 344.52814 655.29376 344.2625Q655.2 343.98126 655.2 343.66876Q655.2 343.2625 655.34064 342.91876Q655.48126 342.575 655.7625 342.325Q656.0594 342.0594 656.5125 341.91876Q656.96564 341.7625 657.5594 341.7625Q658.1375 341.7625 658.54376 341.90314Q658.96564 342.02814 659.23126 342.27814Q659.5125 342.5125 659.6375 342.84064Q659.77814 343.15314 659.77814 343.5125Q659.77814 343.825 659.66876 344.10626Q659.575 344.3719 659.3875 344.6219Q659.2 344.85626 658.91876 345.075Q658.65314 345.29376 658.3094 345.48126Q658.71564 345.6844 659.04376 345.90314Q659.3719 346.1219 659.59064 346.3719Q659.8094 346.60626 659.91876 346.8875Q660.04376 347.16876 660.04376 347.4969ZM658.77814 343.60626Q658.77814 343.3719 658.6844 343.16876Q658.60626 342.96564 658.4344 342.825Q658.27814 342.6844 658.02814 342.6219Q657.79376 342.54376 657.48126 342.54376Q656.84064 342.54376 656.5125 342.84064Q656.2 343.1219 656.2 343.60626Q656.2 343.84064 656.27814 344.04376Q656.35626 344.23126 656.5125 344.41876Q656.6844 344.59064 656.9344 344.7625Q657.2 344.91876 657.54376 345.10626Q658.1375 344.79376 658.45 344.4344Q658.77814 344.0594 658.77814 343.60626ZM659.02814 347.60626Q659.02814 347.34064 658.91876 347.1219Q658.825 346.90314 658.6219 346.71564Q658.41876 346.5125 658.10626 346.34064Q657.8094 346.16876 657.41876 345.96564Q657.04376 346.15314 656.7625 346.34064Q656.4969 346.5125 656.3094 346.71564Q656.1375 346.90314 656.04376 347.1219Q655.95 347.325 655.95 347.59064Q655.95 348.15314 656.34064 348.46564Q656.73126 348.77814 657.4969 348.77814Q658.2469 348.77814 658.6375 348.46564Q659.02814 348.15314 659.02814 347.60626Z" fill-rule="nonzero"/></svg>