<?xml version="1.0" encoding="UTF-8"?>
<svg width="1800px" height="1006px" viewBox="0 0 1800 1006" version="1.1" xmlns="http://www.w3.org/2000/svg" xmlns:xlink="http://www.w3.org/1999/xlink">
    <title>Q9 graph</title>
    <defs>
        <polygon id="path-1" points="-2.8892551e-14 -2.8892551e-14 1699.42771 -2.8892551e-14 1699.42771 856.355422 -2.8892551e-14 856.355422"></polygon>
        <polygon id="path-3" points="-2.8892551e-14 -2.8892551e-14 1699.42771 -2.8892551e-14 1699.42771 856.355422 -2.8892551e-14 856.355422"></polygon>
        <polygon id="path-5" points="-2.8892551e-14 -2.8892551e-14 1699.42771 -2.8892551e-14 1699.42771 856.355422 -2.8892551e-14 856.355422"></polygon>
        <polygon id="path-7" points="-2.8892551e-14 -2.8892551e-14 1699.42771 -2.8892551e-14 1699.42771 856.355422 -2.8892551e-14 856.355422"></polygon>
        <polygon id="path-9" points="-2.8892551e-14 -2.8892551e-14 1699.42771 -2.8892551e-14 1699.42771 856.355422 -2.8892551e-14 856.355422"></polygon>
        <polygon id="path-11" points="-2.8892551e-14 -2.8892551e-14 1699.42771 -2.8892551e-14 1699.42771 856.355422 -2.8892551e-14 856.355422"></polygon>
        <polygon id="path-13" points="-2.8892551e-14 -2.8892551e-14 1699.42771 -2.8892551e-14 1699.42771 856.355422 -2.8892551e-14 856.355422"></polygon>
        <polygon id="path-15" points="-2.8892551e-14 -2.8892551e-14 1699.42771 -2.8892551e-14 1699.42771 856.355422 -2.8892551e-14 856.355422"></polygon>
    </defs>
    <g id="Page-1" stroke="none" stroke-width="1" fill="none" fill-rule="evenodd">
        <g id="Q9-graph">
            <polygon id="Path" fill="#FFFFFF" fill-rule="nonzero" points="0 0 1800 0 1800 1005.72289 0 1005.72289"></polygon>
            <line x1="50.1506024" y1="50.1506024" x2="50.1506024" y2="906.777108" id="Path" stroke="#333333"></line>
            <line x1="616.716867" y1="50.1506024" x2="616.716867" y2="906.777108" id="Path" stroke="#CCCCCC"></line>
            <line x1="1183.28313" y1="50.1506024" x2="1183.28313" y2="906.777108" id="Path" stroke="#CCCCCC"></line>
            <line x1="1749.8494" y1="50.1506024" x2="1749.8494" y2="906.777108" id="Path" stroke="#CCCCCC"></line>
            <g id="Clipped" transform="translate(50.286145, 50.286145)">
                <mask id="mask-2" fill="white">
                    <use xlink:href="#path-1"></use>
                </mask>
                <g id="Path"></g>
                <path d="M1.21987952,199.111446 L1.21987952,71.7018072 L1692.78614,71.7018072 C1695.78041,71.7018072 1698.20783,74.1291777 1698.20783,77.123494 L1698.20783,193.689759 C1698.20783,196.684075 1695.78041,199.111446 1692.78614,199.111446 L1.21987952,199.111446 Z" id="Path" stroke-opacity="0" stroke="#000000" stroke-width="2" mask="url(#mask-2)"></path>
            </g>
            <g id="Clipped" transform="translate(50.286145, 50.286145)">
                <mask id="mask-4" fill="white">
                    <use xlink:href="#path-3"></use>
                </mask>
                <g id="Path"></g>
                <path d="M1.21987952,199.111446 L1.21987952,71.7018072 L1692.78614,71.7018072 C1695.78041,71.7018072 1698.20783,74.1291777 1698.20783,77.123494 L1698.20783,193.689759 C1698.20783,196.684075 1695.78041,199.111446 1692.78614,199.111446 L1.21987952,199.111446 Z" id="Path" fill="#1D70B8" fill-rule="nonzero" mask="url(#mask-4)"></path>
            </g>
            <g id="Clipped" transform="translate(50.286145, 50.286145)">
                <mask id="mask-6" fill="white">
                    <use xlink:href="#path-5"></use>
                </mask>
                <g id="Path"></g>
                <path d="M1.21987952,394.292169 L1.21987952,266.88253 L334.653614,266.88253 C337.647931,266.88253 340.075301,269.309901 340.075301,272.304217 L340.075301,388.870482 C340.075301,391.864798 337.647931,394.292169 334.653614,394.292169 L1.21987952,394.292169 Z" id="Path" stroke-opacity="0" stroke="#000000" stroke-width="2" mask="url(#mask-6)"></path>
            </g>
            <g id="Clipped" transform="translate(50.286145, 50.286145)">
                <mask id="mask-8" fill="white">
                    <use xlink:href="#path-7"></use>
                </mask>
                <g id="Path"></g>
                <path d="M1.21987952,394.292169 L1.21987952,266.88253 L334.653614,266.88253 C337.647931,266.88253 340.075301,269.309901 340.075301,272.304217 L340.075301,388.870482 C340.075301,391.864798 337.647931,394.292169 334.653614,394.292169 L1.21987952,394.292169 Z" id="Path" fill="#003078" fill-rule="nonzero" mask="url(#mask-8)"></path>
            </g>
            <g id="Clipped" transform="translate(50.286145, 50.286145)">
                <mask id="mask-10" fill="white">
                    <use xlink:href="#path-9"></use>
                </mask>
                <g id="Path"></g>
                <path d="M1.21987952,592.183735 L1.21987952,464.774096 L448.509036,464.774096 C451.503352,464.774096 453.930723,467.201467 453.930723,470.195783 L453.930723,586.762048 C453.930723,589.756364 451.503352,592.183735 448.509036,592.183735 L1.21987952,592.183735 Z" id="Path" stroke-opacity="0" stroke="#000000" stroke-width="2" mask="url(#mask-10)"></path>
            </g>
            <g id="Clipped" transform="translate(50.286145, 50.286145)">
                <mask id="mask-12" fill="white">
                    <use xlink:href="#path-11"></use>
                </mask>
                <g id="Path"></g>
                <path d="M1.21987952,592.183735 L1.21987952,464.774096 L448.509036,464.774096 C451.503352,464.774096 453.930723,467.201467 453.930723,470.195783 L453.930723,586.762048 C453.930723,589.756364 451.503352,592.183735 448.509036,592.183735 L1.21987952,592.183735 Z" id="Path" fill="#4C2C92" fill-rule="nonzero" mask="url(#mask-12)"></path>
            </g>
            <g id="Clipped" transform="translate(50.286145, 50.286145)">
                <mask id="mask-14" fill="white">
                    <use xlink:href="#path-13"></use>
                </mask>
                <g id="Path"></g>
                <path d="M1.21987952,787.364458 L1.21987952,659.954819 L106.942771,659.954819 C109.937087,659.954819 112.364458,662.382163 112.364458,665.376506 L112.364458,781.942771 C112.364458,784.937114 109.937087,787.364458 106.942771,787.364458 L1.21987952,787.364458 Z" id="Path" stroke-opacity="0" stroke="#000000" stroke-width="2" mask="url(#mask-14)"></path>
            </g>
            <g id="Clipped" transform="translate(50.286145, 50.286145)">
                <mask id="mask-16" fill="white">
                    <use xlink:href="#path-15"></use>
                </mask>
                <g id="Path"></g>
                <path d="M1.21987952,787.364458 L1.21987952,659.954819 L106.942771,659.954819 C109.937087,659.954819 112.364458,662.382163 112.364458,665.376506 L112.364458,781.942771 C112.364458,784.937114 109.937087,787.364458 106.942771,787.364458 L1.21987952,787.364458 Z" id="Path" fill="#0B0C0C" fill-rule="nonzero" mask="url(#mask-16)"></path>
            </g>
            <path d="M57.5291765,936.969127 C57.5291765,938.550452 57.4021066,939.990596 57.1479669,941.28956 C56.8938235,942.588488 56.4702542,943.718006 55.877259,944.678114 C55.3125,945.609994 54.5641934,946.330066 53.6323392,946.838331 C52.7004886,947.346633 51.5568524,947.600783 50.2014307,947.600783 C48.9024849,947.600783 47.8012048,947.37488 46.8975904,946.923072 C46.022212,946.443 45.3162633,945.765289 44.779744,944.88994 C44.2432211,943.986325 43.8620078,942.885036 43.6361042,941.586072 C43.4102024,940.25888 43.2972515,938.748145 43.2972515,937.053867 C43.2972515,935.500807 43.4243223,934.074795 43.6784639,932.775831 C43.9326036,931.448639 44.342053,930.31912 44.906812,929.387277 C45.4998108,928.455398 46.2622355,927.735325 47.1940861,927.22706 C48.1259404,926.718759 49.2695783,926.464608 50.625,926.464608 C51.9239458,926.464608 53.011106,926.690512 53.8864807,927.142319 C54.761859,927.594127 55.4678078,928.271837 56.0043271,929.175452 C56.5690861,930.079066 56.9644175,931.180355 57.1903211,932.479319 C57.4162247,933.778247 57.5291765,935.274849 57.5291765,936.969127 Z M54.7336193,937.180952 C54.7336193,936.13612 54.6912633,935.218373 54.6065512,934.427711 C54.5218355,933.608855 54.4088837,932.888801 54.2676958,932.267548 C54.1265042,931.618066 53.9429566,931.067422 53.717053,930.615614 C53.4911494,930.163807 53.2228898,929.796705 52.9122741,929.514307 C52.6016548,929.231946 52.2345614,929.020175 51.810994,928.878994 C51.4156627,928.737777 50.9638554,928.667169 50.4555723,928.667169 C49.5519578,928.667169 48.8177711,928.878976 48.253012,929.30259 C47.688253,929.726133 47.2364458,930.31912 46.8975904,931.081554 C46.5869711,931.815759 46.3751855,932.677012 46.2622337,933.665313 C46.1492819,934.653651 46.092806,935.726693 46.092806,936.88444 C46.092806,938.409271 46.1634018,939.708217 46.3045934,940.781277 C46.4740211,941.854301 46.7281627,942.729669 47.0670181,943.40738 C47.4341096,944.08509 47.8859169,944.579277 48.4224398,944.88994 C48.958959,945.20053 49.6084319,945.355825 50.3708584,945.355825 C50.9638536,945.355825 51.4721367,945.271102 51.8957078,945.101657 C52.3475151,944.904018 52.7287265,944.635771 53.0393422,944.296916 C53.3781976,943.929795 53.646459,943.492102 53.8441265,942.983837 C54.0700301,942.475536 54.2394578,941.92491 54.3524096,941.331958 C54.4935976,940.738934 54.5924295,940.089452 54.6489054,939.383512 C54.7053813,938.677536 54.7336193,937.943349 54.7336193,937.180952 Z" id="Shape" fill="#000000" fill-rule="nonzero"></path>
            <path d="M623.200283,940.696536 C623.200283,941.797861 623.016741,942.786199 622.649657,943.661548 C622.282554,944.508669 621.760148,945.228741 621.082437,945.821765 C620.404726,946.386524 619.599949,946.824199 618.668105,947.134789 C617.736244,947.445452 616.69144,947.600783 615.533693,947.600783 C614.912458,947.600783 614.305337,947.558404 613.712331,947.473645 C613.147572,947.388958 612.639289,947.276006 612.187482,947.134789 C611.763922,946.993645 611.396828,946.866596 611.086202,946.753645 C610.803822,946.612428 610.62028,946.513572 610.535575,946.457078 C610.479099,946.372392 610.436738,946.301819 610.408491,946.245361 C610.380262,946.188867 610.352024,946.118259 610.323777,946.033536 C610.295548,945.920584 610.26731,945.793518 610.239063,945.652337 C610.239063,945.51112 610.239063,945.355807 610.239063,945.186398 C610.239063,944.988759 610.239063,944.819331 610.239063,944.678114 C610.26731,944.536934 610.295548,944.423982 610.323777,944.339259 C610.380253,944.254572 610.436729,944.198096 610.493205,944.169831 C610.549681,944.113337 610.62028,944.08509 610.705003,944.08509 C610.817955,944.08509 610.973259,944.155699 611.170916,944.296916 C611.396819,944.409867 611.693322,944.551066 612.060425,944.720512 C612.455756,944.861657 612.921678,945.002837 613.45819,945.144054 C614.022949,945.285235 614.686545,945.355825 615.448979,945.355825 C616.154919,945.355825 616.804392,945.271102 617.397398,945.101657 C617.990386,944.932247 618.498669,944.664 618.922247,944.296916 C619.374054,943.929795 619.71291,943.477988 619.938813,942.941494 C620.192946,942.404964 620.320012,941.741367 620.320012,940.950705 C620.320012,940.301259 620.20706,939.722386 619.981157,939.214084 C619.7835,938.705819 619.472883,938.282259 619.049304,937.943404 C618.625744,937.604548 618.089223,937.364512 617.439741,937.223295 C616.790277,937.053849 615.999614,936.969127 615.067753,936.969127 C614.418289,936.969127 613.85353,936.997373 613.373476,937.053867 C612.921669,937.110325 612.498099,937.138554 612.102768,937.138554 C611.820389,937.138554 611.608608,937.082078 611.467428,936.969127 C611.354476,936.827982 611.298,936.559735 611.298,936.164386 L611.298,927.777741 C611.298,927.438886 611.36859,927.184735 611.509771,927.015289 C611.679199,926.84588 611.919226,926.761175 612.229852,926.761175 L621.336578,926.761175 C621.421301,926.761175 621.506015,926.789404 621.59072,926.845861 C621.675443,926.87409 621.731919,926.944681 621.760148,927.057633 C621.816623,927.142355 621.858985,927.255307 621.887232,927.396488 C621.915461,927.537705 621.929575,927.707133 621.929575,927.904771 C621.929575,928.300084 621.873099,928.610693 621.760148,928.836596 C621.675443,929.034307 621.534253,929.133163 621.336578,929.133163 L613.669988,929.133163 L613.669988,934.893705 C614.037072,934.837211 614.404166,934.808964 614.771268,934.808964 C615.166599,934.780699 615.618407,934.766566 616.12669,934.766566 C617.312684,934.766566 618.343364,934.907765 619.218732,935.190163 C620.094117,935.472524 620.828304,935.881988 621.421292,936.418554 C622.014298,936.926819 622.451991,937.548054 622.73437,938.282259 C623.044979,938.988163 623.200283,939.792922 623.200283,940.696536 Z" id="Path" fill="#000000" fill-rule="nonzero"></path>
            <path d="M1181.71312,946.202964 C1181.71312,946.428867 1181.68489,946.612428 1181.62843,946.753645 C1181.60017,946.866596 1181.55779,946.965416 1181.5013,947.050102 C1181.4731,947.134825 1181.41663,947.205434 1181.33187,947.261928 C1181.27541,947.29012 1181.20484,947.304217 1181.12015,947.304217 L1170.40381,947.304217 C1170.31912,947.304217 1170.24853,947.29012 1170.19204,947.261928 C1170.13558,947.205434 1170.06497,947.134825 1169.98021,947.050102 C1169.92375,946.965416 1169.88141,946.866596 1169.85318,946.753645 C1169.82492,946.612428 1169.81078,946.428867 1169.81078,946.202964 C1169.81078,946.033518 1169.82492,945.878223 1169.85318,945.737078 C1169.88141,945.595861 1169.92375,945.48291 1169.98021,945.398223 C1170.0367,945.313464 1170.09318,945.242855 1170.14964,945.186398 C1170.2344,945.129904 1170.31912,945.101657 1170.40381,945.101657 L1174.6819,945.101657 L1174.6819,929.472018 L1170.70032,931.844006 C1170.50264,931.956958 1170.33322,932.02753 1170.19204,932.055723 C1170.07908,932.055723 1169.98025,932.027494 1169.89552,931.971036 C1169.83903,931.886349 1169.79669,931.773398 1169.76849,931.632181 C1169.74023,931.462735 1169.7261,931.26506 1169.7261,931.039157 C1169.7261,930.841518 1169.7261,930.686223 1169.7261,930.573271 C1169.75436,930.432054 1169.78259,930.319102 1169.81078,930.234416 C1169.86728,930.149693 1169.92375,930.079084 1169.98021,930.02259 C1170.0367,929.966133 1170.10731,929.89556 1170.19204,929.810873 L1174.93601,926.803464 C1174.96424,926.775271 1175.00658,926.747042 1175.06304,926.718777 C1175.1478,926.690548 1175.23252,926.676434 1175.31721,926.676434 C1175.43016,926.648169 1175.54311,926.634036 1175.65607,926.634036 C1175.79728,926.605843 1175.9526,926.591747 1176.12201,926.591747 C1176.37614,926.591747 1176.58791,926.605843 1176.75732,926.634036 C1176.92677,926.662301 1177.05385,926.690548 1177.13857,926.718777 C1177.25152,926.747042 1177.32211,926.803518 1177.35034,926.888205 C1177.37861,926.944663 1177.39274,927.001139 1177.39274,927.057633 L1177.39274,945.101657 L1181.12015,945.101657 C1181.20484,945.101657 1181.27541,945.129904 1181.33187,945.186398 C1181.41663,945.242855 1181.48723,945.313464 1181.54369,945.398223 C1181.60019,945.48291 1181.64253,945.595861 1181.67072,945.737078 C1181.69899,945.878223 1181.71312,946.033518 1181.71312,946.202964 Z M1198.61349,936.969127 C1198.61349,938.550452 1198.48645,939.990596 1198.23235,941.28956 C1197.97818,942.588488 1197.5546,943.718006 1196.96161,944.678114 C1196.39686,945.609994 1195.64854,946.330066 1194.71666,946.838331 C1193.78485,947.346633 1192.64123,947.600783 1191.28581,947.600783 C1189.98685,947.600783 1188.88556,947.37488 1187.98195,946.923072 C1187.10656,946.443 1186.40062,945.765289 1185.86413,944.88994 C1185.32756,943.986325 1184.94633,942.885036 1184.72042,941.586072 C1184.49452,940.25888 1184.38157,938.748145 1184.38157,937.053867 C1184.38157,935.500807 1184.50865,934.074795 1184.76282,932.775831 C1185.01695,931.448639 1185.4264,930.31912 1185.99116,929.387277 C1186.58418,928.455398 1187.3466,927.735325 1188.2784,927.22706 C1189.21028,926.718759 1190.35393,926.464608 1191.70936,926.464608 C1193.00832,926.464608 1194.09548,926.690512 1194.97083,927.142319 C1195.84621,927.594127 1196.55215,928.271837 1197.08864,929.175452 C1197.6534,930.079066 1198.04873,931.180355 1198.27464,932.479319 C1198.50054,933.778247 1198.61349,935.274849 1198.61349,936.969127 Z M1195.81796,937.180952 C1195.81796,936.13612 1195.77562,935.218373 1195.69093,934.427711 C1195.60617,933.608855 1195.49322,932.888801 1195.35208,932.267548 C1195.21086,931.618066 1195.0273,931.067422 1194.8014,930.615614 C1194.57549,930.163807 1194.30725,929.796705 1193.99666,929.514307 C1193.68599,929.231946 1193.31889,929.020175 1192.89535,928.878994 C1192.50004,928.737777 1192.04823,928.667169 1191.53993,928.667169 C1190.63631,928.667169 1189.90213,928.878976 1189.33737,929.30259 C1188.77261,929.726133 1188.3208,930.31912 1187.98195,931.081554 C1187.67132,931.815759 1187.45953,932.677012 1187.34658,933.665313 C1187.23363,934.653651 1187.17715,935.726693 1187.17715,936.88444 C1187.17715,938.409271 1187.24776,939.708217 1187.38898,940.781277 C1187.55839,941.854301 1187.81252,942.729669 1188.15137,943.40738 C1188.51846,944.08509 1188.97027,944.579277 1189.5068,944.88994 C1190.04329,945.20053 1190.69277,945.355825 1191.45524,945.355825 C1192.04819,945.355825 1192.55648,945.271102 1192.98009,945.101657 C1193.4319,944.904018 1193.8131,944.635771 1194.12369,944.296916 C1194.46254,943.929795 1194.73081,943.492102 1194.92848,942.983837 C1195.15439,942.475536 1195.32381,941.92491 1195.43677,941.331958 C1195.57795,940.738934 1195.67677,940.089452 1195.73322,939.383512 C1195.78972,938.677536 1195.81796,937.943349 1195.81796,937.180952 Z" id="Shape" fill="#000000" fill-rule="nonzero"></path>
            <path d="M1748.18901,946.202964 C1748.18901,946.428867 1748.16078,946.612428 1748.10432,946.753645 C1748.07609,946.866596 1748.03375,946.965416 1747.97729,947.050102 C1747.94902,947.134825 1747.89255,947.205434 1747.80786,947.261928 C1747.75137,947.29012 1747.68076,947.304217 1747.59604,947.304217 L1736.87975,947.304217 C1736.79502,947.304217 1736.72442,947.29012 1736.66792,947.261928 C1736.61146,947.205434 1736.54089,947.134825 1736.4562,947.050102 C1736.39971,946.965416 1736.35733,946.866596 1736.32907,946.753645 C1736.30087,946.612428 1736.28678,946.428867 1736.28678,946.202964 C1736.28678,946.033518 1736.30087,945.878223 1736.32907,945.737078 C1736.35733,945.595861 1736.39971,945.48291 1736.4562,945.398223 C1736.51266,945.313464 1736.56914,945.242855 1736.62563,945.186398 C1736.71032,945.129904 1736.79502,945.101657 1736.87975,945.101657 L1741.15778,945.101657 L1741.15778,929.472018 L1737.1762,931.844006 C1736.97857,931.956958 1736.80914,932.02753 1736.66792,932.055723 C1736.55497,932.055723 1736.45615,932.027494 1736.37146,931.971036 C1736.31501,931.886349 1736.27264,931.773398 1736.24438,931.632181 C1736.21615,931.462735 1736.20204,931.26506 1736.20204,931.039157 C1736.20204,930.841518 1736.20204,930.686223 1736.20204,930.573271 C1736.23027,930.432054 1736.25851,930.319102 1736.28678,930.234416 C1736.34323,930.149693 1736.39971,930.079084 1736.4562,930.02259 C1736.51266,929.966133 1736.58323,929.89556 1736.66792,929.810873 L1741.4119,926.803464 C1741.44016,926.775271 1741.48254,926.747042 1741.53904,926.718777 C1741.62372,926.690548 1741.70843,926.676434 1741.79315,926.676434 C1741.9061,926.648169 1742.01905,926.634036 1742.13201,926.634036 C1742.27319,926.605843 1742.42848,926.591747 1742.59789,926.591747 C1742.85206,926.591747 1743.06387,926.605843 1743.23331,926.634036 C1743.40272,926.662301 1743.52977,926.690548 1743.61446,926.718777 C1743.72741,926.747042 1743.79802,926.803518 1743.82628,926.888205 C1743.85451,926.944663 1743.86863,927.001139 1743.86863,927.057633 L1743.86863,945.101657 L1747.59604,945.101657 C1747.68076,945.101657 1747.75137,945.129904 1747.80786,945.186398 C1747.89255,945.242855 1747.96312,945.313464 1748.01958,945.398223 C1748.07607,945.48291 1748.11845,945.595861 1748.14672,945.737078 C1748.17491,945.878223 1748.18901,946.033518 1748.18901,946.202964 Z M1764.28464,940.696536 C1764.28464,941.797861 1764.10111,942.786199 1763.73407,943.661548 C1763.36695,944.508669 1762.84453,945.228741 1762.16682,945.821765 C1761.48911,946.386524 1760.68433,946.824199 1759.75249,947.134789 C1758.82061,947.445452 1757.77581,947.600783 1756.6181,947.600783 C1755.99685,947.600783 1755.38971,947.558404 1754.79669,947.473645 C1754.23193,947.388958 1753.72364,947.276006 1753.27184,947.134789 C1752.8483,946.993645 1752.48121,946.866596 1752.17058,946.753645 C1751.88819,946.612428 1751.70464,946.513572 1751.61996,946.457078 C1751.5635,946.372392 1751.52114,946.301819 1751.49287,946.245361 C1751.46464,946.188867 1751.4364,946.118259 1751.40813,946.033536 C1751.37994,945.920584 1751.35171,945.793518 1751.32345,945.652337 C1751.32345,945.51112 1751.32345,945.355807 1751.32345,945.186398 C1751.32345,944.988759 1751.32345,944.819331 1751.32345,944.678114 C1751.35171,944.536934 1751.37994,944.423982 1751.40813,944.339259 C1751.46463,944.254572 1751.5211,944.198096 1751.57756,944.169831 C1751.63405,944.113337 1751.70466,944.08509 1751.78939,944.08509 C1751.90234,944.08509 1752.05763,944.155699 1752.25527,944.296916 C1752.48117,944.409867 1752.77769,944.551066 1753.14481,944.720512 C1753.54016,944.861657 1754.00608,945.002837 1754.54257,945.144054 C1755.10733,945.285235 1755.77093,945.355825 1756.53336,945.355825 C1757.2393,945.355825 1757.88878,945.271102 1758.48181,945.101657 C1759.07476,944.932247 1759.58304,944.664 1760.00666,944.296916 C1760.45846,943.929795 1760.79732,943.477988 1761.02322,942.941494 C1761.27732,942.404964 1761.40437,941.741367 1761.40437,940.950705 C1761.40437,940.301259 1761.29142,939.722386 1761.06551,939.214084 C1760.86787,938.705819 1760.55727,938.282259 1760.13369,937.943404 C1759.71014,937.604548 1759.17361,937.364512 1758.5241,937.223295 C1757.87465,937.053849 1757.08399,936.969127 1756.15211,936.969127 C1755.50266,936.969127 1754.9379,936.997373 1754.45783,937.053867 C1754.00602,937.110325 1753.58246,937.138554 1753.18715,937.138554 C1752.90475,937.138554 1752.69298,937.082078 1752.55184,936.969127 C1752.43889,936.827982 1752.38241,936.559735 1752.38241,936.164386 L1752.38241,927.777741 C1752.38241,927.438886 1752.45298,927.184735 1752.59413,927.015289 C1752.76357,926.84588 1753.00361,926.761175 1753.31423,926.761175 L1762.42093,926.761175 C1762.50569,926.761175 1762.59042,926.789404 1762.6751,926.845861 C1762.75983,926.87409 1762.8163,926.944681 1762.84453,927.057633 C1762.90099,927.142355 1762.94335,927.255307 1762.97161,927.396488 C1762.99984,927.537705 1763.01396,927.707133 1763.01396,927.904771 C1763.01396,928.300084 1762.95748,928.610693 1762.84453,928.836596 C1762.75984,929.034307 1762.61864,929.133163 1762.42093,929.133163 L1754.7544,929.133163 L1754.7544,934.893705 C1755.12145,934.837211 1755.48853,934.808964 1755.85565,934.808964 C1756.251,934.780699 1756.70281,934.766566 1757.21107,934.766566 C1758.39708,934.766566 1759.42777,934.907765 1760.30311,935.190163 C1761.1785,935.472524 1761.91269,935.881988 1762.50567,936.418554 C1763.0987,936.926819 1763.53639,937.548054 1763.81875,938.282259 C1764.12934,938.988163 1764.28464,939.792922 1764.28464,940.696536 Z" id="Shape" fill="#000000" fill-rule="nonzero"></path>
        </g>
    </g>
</svg>