<?xml version="1.0" encoding="UTF-8"?>
<svg width="700px" height="700px" viewBox="0 0 700 700" version="1.1" xmlns="http://www.w3.org/2000/svg" xmlns:xlink="http://www.w3.org/1999/xlink">
    <title>Artboard</title>
    <g id="Artboard" stroke="none" stroke-width="1" fill="none" fill-rule="evenodd">
        <g id="guvuk-acc-Asset-1" transform="translate(0.000000, 36.000000)">
            <path d="M0,610.435422 C13.3106743,608.781922 26.492743,606.760977 40.0514422,609.737277 C46.0683447,611.069263 52.7099026,609.47088 59.0758773,609.333088 C61.1060077,609.333088 63.4484659,609.121808 65.1295242,610.003674 C76.3733235,615.855227 86.2575785,611.12438 96.6378835,607.009002 C104.79515,603.784678 113.595444,602.213853 121.973177,599.494764 C127.567518,597.657542 133.474187,595.967297 138.296895,592.770531 C152.443505,583.400698 168.61106,580.360096 184.585706,576.483557 C189.573764,575.280176 194.16682,572.561088 199.044644,570.824913 C206.901095,567.897219 214.956306,565.533457 223.148999,563.751608 C219.924674,568.39978 217.086166,572.524343 210.187397,570.76061 C207.15598,569.988977 202.939555,572.285504 199.770347,574.06761 C196.601139,575.849715 194.3781,579.000551 191.365056,580.993937 C188.701084,582.75767 185.52269,583.74977 181.774757,585.449201 L172.184457,595.884622 C178.155429,595.884622 184.006981,595.884622 189.86772,595.884622 C205.925041,595.783575 222.019107,595.765203 238.039684,595.480434 C245.572295,595.351828 253.104905,594.672056 261.409149,594.194378 C260.29763,590.970053 259.663788,589.151203 258.5982,586.083042 C271.614918,594.093331 284.273379,596.242881 297.179864,589.435973 C304.409333,591.741687 311.28973,595.067059 318.822341,592.504134 C322.836671,591.135403 326.59379,589.031784 330.525446,587.405842 C333.717263,585.966885 337.13794,585.102387 340.630167,584.852104 L343.652398,579.698696 L337.304795,571.376079 C338.177476,568.960132 338.939923,566.874885 339.794231,564.532427 L323.672607,559.167738 L325.509829,553.959214 C323.865515,550.284769 320.916774,551.102333 313.466838,556.218997 L317.655705,547.216608 L307.091677,546.297997 L307.707147,545.452875 C302.967114,541.456917 298.080103,537.617123 293.523792,533.409884 C290.22014,530.239676 287.184489,526.801525 284.447915,523.130626 C274.701451,510.62833 263.218813,499.595811 255.226897,485.825831 C261.83171,491.805989 268.418152,497.813706 275.096454,503.702003 C275.564946,504.115378 276.805071,503.702003 278.100312,503.582583 C278.522873,501.625942 278.927062,499.779533 279.441484,497.409517 L286.138159,497.80452 C290.19842,503.591769 293.863678,508.827852 297.767775,514.394635 L305.300386,508.285872 L305.300386,516.966746 L310.453794,516.176741 C310.609958,518.353849 310.756936,520.338049 310.885541,522.092596 L321.568988,527.604262 C327.163329,526.851001 328.917876,522.092596 330.856146,516.176741 L342.715414,523.479699 L350.248025,521.79864 C356.301672,527.20926 356.301672,527.20926 366.048135,519.042807 C369.189785,519.217343 366.599302,527.25519 372.864229,523.635863 L370.659563,515.928716 L371.872129,515.166269 L375.684365,517.481168 L390.575051,515.340805 L384.74187,524.39831 L401.800478,524.39831 C403.307,519.006063 406.696675,517.049421 412.897299,518.592688 C417.150468,519.667463 421.899688,518.794782 427.062282,518.794782 C424.168657,512.998347 419.373507,516.149182 415.377549,515.028477 C415.717435,513.246371 416.038949,511.583685 416.29616,510.288444 L434.052912,508.249127 L436.542348,502.020944 L441.842734,505.070733 L451.570825,503.665258 C451.736175,501.763733 451.901525,499.816278 451.938269,499.402903 C457.376447,492.908323 462.042991,487.323167 467.021863,481.370568 L474.012493,486.18409 L487.185376,467.995591 L488.682712,468.77641 C487.617123,470.999449 486.84549,473.442954 485.440015,475.399596 C478.614735,484.769429 471.660849,494.019842 464.651846,503.288628 C461.372405,507.65203 458.295058,512.199155 454.648172,516.241044 C448.484292,523.093882 441.962153,529.616021 435.52269,536.220834 C434.791822,537.092779 433.782961,537.686418 432.665809,537.901892 C425.528201,538.058056 422.561088,543.303325 419.731766,548.502664 C415.478596,556.439464 415.63476,556.522139 407.541797,552.994672 L407.541797,558.607386 L400.119419,558.607386 C399.026272,562.511483 397.951497,566.378835 396.711372,570.824913 L376.106926,576.59379 L376.106926,575.987507 C373.259232,575.794599 370.402352,575.665993 367.563843,575.39041 C362.888113,574.931104 358.065405,575.39041 354.308286,571.265846 C352.471064,569.208157 351.947455,569.658277 348.126033,573.176557 L354.069447,581.444057 C358.194011,581.673709 362.832997,581.535918 367.325005,582.270807 C372.009921,583.04244 376.557046,584.650009 381.60022,586.009554 C384.356054,592.439831 390.152489,592.862392 396.490906,593.955539 C404.152122,595.287525 411.436708,598.787433 418.886643,601.304428 C425.124012,603.426419 431.251148,606.136322 437.663053,607.376447 C442.099945,608.230755 446.931839,606.926327 451.598383,606.770164 C464.534705,606.46144 477.302935,603.767655 489.261437,598.824178 C494.038214,596.821606 499.797906,597.170678 505.695389,597.629983 L484.144773,612.32776 C484.319309,612.897299 484.493845,613.457652 484.677568,614.018005 C487.139445,613.65056 489.757487,613.687305 492.026456,612.842183 C500.688958,609.63623 509.774022,607.48668 516.985119,600.82675 C519.538857,598.456733 524.150285,598.337314 527.787985,597.088003 C545.737645,590.933309 564.339519,588.342826 583.180231,587.258865 C586.193276,587.084328 589.252251,587.855962 592.366342,588.177476 C592.761345,579.762998 590.685284,577.475657 582.528018,576.979607 C579.514973,574.223774 576.26309,571.320963 573.002021,568.390593 L573.865515,566.801396 C576.134146,567.3063 578.365481,567.966186 580.543818,568.77641 C587.359912,571.826199 593.891236,575.638435 600.900239,578.08194 C607.495866,580.378468 614.59673,581.214404 621.42201,582.87709 C624.912732,583.731398 628.274848,585.118501 631.747198,586.055484 C636.72607,587.396656 641.85192,589.840162 646.729745,589.390042 C650.726557,588.84933 654.787285,589.709516 658.221569,591.824362 C665.763366,596.3623 673.176557,601.129892 680.911262,605.309572 C686.817931,608.497152 693.303325,609.608672 700,607.679588 L700,663.714863 L0,663.714863 L0,610.435422 Z M384.273379,565.184641 C384.521404,565.91953 384.760243,566.645232 384.999081,567.370935 L393.000184,564.495683 L392.384714,562.65846 L384.273379,565.184641 Z" id="Shape" fill="#000000" fill-rule="nonzero"></path>
            <path d="M508.203197,193.7167 C507.422377,191.484475 506.650744,189.252251 505.364689,185.52269 C501.561639,192.081573 503.986772,197.464633 504.79515,202.3149 C507.009002,215.717435 510.104722,228.954621 512.704391,242.320412 C513.10858,244.368914 512.759508,246.555209 512.759508,248.6772 L511.280544,248.980342 C508.056219,239.794231 504.289914,230.846959 501.726989,221.513871 C497.133933,204.638986 493.376814,187.525262 488.866434,170.586074 C487.304795,164.697777 484.273379,159.204483 482.555576,153.35293 C481.425684,149.549881 481.407312,145.416131 480.865332,141.410987 C480.718354,140.290281 480.865332,138.747015 480.240676,138.140731 C474.223774,132.555576 474.683079,124.866801 474.168657,117.876171 C473.479699,108.625758 466.681977,103.178394 462.502297,96.1326474 C458.76355,89.8585339 453.6377,84.2641925 450.725703,77.6685651 C444.029263,62.2481682 433.697334,48.6792375 420.613632,38.122359 C418.510013,36.4045563 416.470696,34.6132647 414.578358,33.0056954 C410.481352,33.0056954 406.577255,32.4361565 402.939555,33.1710454 C399.301856,33.9059342 395.801947,35.9268786 391.796803,37.5803785 L384.796987,35.3297814 C378.431012,38.7745728 371.568988,42.5776226 364.587544,46.2061363 C363.264744,46.8950946 361.207055,47.7034723 360.187397,47.1247474 C354.17968,43.9096087 348.879295,46.6930002 343.266581,48.3281279 C331.177659,51.8372221 319.382693,50.9461694 308.781922,43.7350726 C306.026089,41.8978505 304.482822,38.1499173 302.094433,34.8704758 L296.582767,38.6551534 L293.661584,35.3665258 L281.094984,33.6211648 C279.018923,27.9992651 272.156899,24.8116847 275.206687,16.7830241 C281.049054,13.5495131 287.460959,9.71890502 294.148448,6.47620797 C296.582767,5.29119971 299.660114,5.48410803 303.729561,4.85945251 L306.65993,2.58129708 C314.321146,1.76373324 321.072938,0.624655521 327.861473,0.404188866 C345.0395,-0.137791659 362.006247,0.587911078 378.118685,8.056219 C384.962337,11.2254272 392.7246,12.3461326 399.788719,15.120338 C404.115378,16.8197685 407.9368,19.8328128 411.923572,22.3498071 C417.352563,25.7854125 422.946904,28.9913651 428.072754,32.8679037 C442.641925,43.9555392 457.468308,54.7859636 471.247474,66.773838 C481.241962,75.4547125 488.103987,86.9832813 492.531692,99.5498806 C496.240904,109.995386 499.350867,120.644097 501.846408,131.444057 C504.740033,144.029028 507.146794,156.788536 508.781922,169.593974 C509.792394,177.484843 508.97483,185.614551 508.97483,193.643211 L508.203197,193.7167 Z M494.00147,179.652765 C496.968584,173.865515 494.368914,162.245085 488.802131,159.443322 C490.474003,165.910344 492.145875,172.41411 494.00147,179.652765 Z M478.495315,106.963072 L477.135771,108.074591 L479.469043,110.279258 L480.341723,109.489252 L478.495315,106.963072 Z" id="Shape" fill="#000000" fill-rule="nonzero"></path>
            <path d="M365.340805,189.601323 C364.881499,191.438545 364.425256,193.242085 363.972074,195.011942 L365.129524,196.141834 C368.684549,186.772001 377.200073,184.714312 384.852104,181.738012 C392.660298,178.69741 400.863494,175.76704 408.735991,183.180231 C412.171597,176.749954 417.57303,177.135771 423.544001,177.604262 C431.361382,178.219732 439.261437,177.760426 449.17325,177.760426 C451.341172,179.744626 455.438177,183.272093 459.195297,187.130259 C460.012861,187.966195 460.251699,190.804703 459.608672,191.35587 C456.907955,193.578909 453.858166,196.693 450.771633,196.867536 C443.422745,197.326842 435.936065,196.31637 426.749954,195.811134 L415.496969,215.643946 L427.438912,215.643946 L427.438912,208.175638 C432.399412,215.276502 438.462245,215.790924 444.763917,217.049421 C454.46445,218.978505 464.504869,221.908874 468.932574,232.564762 C469.93386,234.989895 470.126768,237.754915 470.935146,241.502848 C461.050891,239.105273 454.914569,243.00937 448.51185,247.859636 C443.404373,251.736175 436.900606,253.793864 430.093698,257.11005 C428.394268,267.747566 416.709535,264.063935 409.287158,268.675363 C409.682161,272.175271 410.067977,275.629249 410.573213,280.06614 C407.495866,279.919162 404.822708,280.194746 402.36083,279.606834 C393.489719,277.649326 385.358779,273.207895 378.917876,266.801396 C374.141099,262.088922 369.410252,257.799008 367.233143,251.561639 C363.448466,240.685284 358.901341,229.579276 368.56513,219.10711 C369.483741,218.087452 369.621532,216.351277 370.512585,213.760794 L357.091677,216.847327 C356.411905,215.074407 355.879111,213.696491 355.373875,212.401249 L346.004042,208.386919 L351.883153,196.986956 L359.617858,201.405475 L363.292302,188.884806 L365.340805,189.601323 Z M424.297263,222.965277 L458.386919,231.489987 C451.892339,221.954804 435.201176,218.28036 424.297263,222.965277 Z M434.971523,237.194562 C435.890134,240.317839 436.606651,242.84402 437.681426,246.573581 L446.867536,238.030498 C441.043542,231.811501 440.014698,231.793129 434.971523,237.194562 Z M404.859453,248.116847 L406.292486,246.279625 C404.942128,243.983098 403.536653,241.68657 402.223039,239.399228 L400.385817,239.70237 C400.082675,241.668198 398.96197,244.056586 399.706044,245.471247 C400.450119,246.885909 403.068161,247.280911 404.859453,248.116847 Z M450.321514,191.512034 L450.505236,190.079001 L446.022414,190.079001 L446.022414,190.997612 L450.321514,191.512034 Z" id="Shape" fill="#000000" fill-rule="nonzero"></path>
            <path d="M236.625023,238.21422 C241.502848,237.617123 248.0158,240.510748 249.926511,230.865332 L235.090942,229.588462 C232.959765,221.320963 227.42054,216.58093 218.004777,215.671505 C218.730097,214.709752 219.509092,213.789679 220.338049,212.915672 C220.981077,212.346133 221.75271,211.923572 223.479699,210.747749 L216.544185,204.106191 C219.061179,199.347786 222.845857,197.675914 229.009737,198.51185 C234.227448,199.237553 239.757487,197.675914 245.149734,197.124747 C245.149734,196.518464 245.195664,195.902995 245.214036,195.287525 L249.623369,197.905567 C256.898769,196.986956 263.60463,194.717986 269.832813,195.664156 C278.100312,196.913467 286.174904,200.257211 293.983098,203.51828 C297.3544,204.932941 300.064303,208.230755 302.69153,211.041705 C307.385633,216.075694 308.010288,222.24876 307.284586,228.853573 C306.963072,231.609407 306.678302,235.329781 308.14808,237.258865 C315.028477,246.297997 313.476024,255.980158 308.800294,264.31196 C302.420058,275.53596 294.879858,286.059604 286.303509,295.710086 C282.904648,299.568253 275.849715,300.303142 270.328863,302.140364 C268.050707,302.866067 265.441852,302.52618 262.401249,302.709903 C262.61253,295.98567 271.293404,296.049972 272.505971,289.022598 L254.547125,289.022598 L253.940841,287.01084 L259.728091,281.88499 L243.119603,279.423112 C242.816462,276.749954 242.550064,274.315635 242.274481,271.862943 C232.362668,270.310491 222.983649,261.243799 211.464266,271.780268 C211.528569,262.594158 210.545655,254.896197 217.517913,249.871394 C223.360279,245.618225 229.836487,242.283667 236.625023,238.21422 Z M244.892523,255.428991 C238.949109,251.837222 235.394084,253.325372 231.168473,260.756936 C234.74187,265.928716 246.261253,272.616204 251.083961,272.331435 C243.624839,265.827669 241.4018,261.914385 244.929267,255.428991 L244.892523,255.428991 Z M274.517729,262.98916 L287.203748,258.846225 L274.517729,252.700717 L274.517729,262.98916 Z M220.163513,257.477494 L234.659195,247.372772 C227.08984,245.902995 222.019107,249.393717 220.200257,257.505052 L220.163513,257.477494 Z M254.694103,230.663237 C254.556311,231.581848 254.427705,232.500459 254.2991,233.345581 C256.972258,236.211648 259.737277,236.523976 262.768694,231.398126 L254.694103,230.663237 Z M234.69594,218.151755 L234.401984,220.420724 L241.089473,221.541429 L241.438545,219.704207 L234.69594,218.151755 Z" id="Shape" fill="#000000" fill-rule="nonzero"></path>
            <path d="M402.186294,433.832445 L398.061731,428.660665 C396.083328,428.733932 394.114117,428.967411 392.173434,429.358809 C383.58442,431.76557 375.179129,435.412456 366.452324,436.588279 C355.732133,438.030498 344.745545,437.580378 333.878376,437.708984 C327.861473,437.782473 321.817013,436.964909 315.836855,437.350726 C312.98916,437.534448 310.270072,439.582951 306.127136,441.383428 L297.372772,437.332353 L292.366342,442.660298 L274.664707,445.875436 L268.363035,438.33364 C270.742238,434.300937 272.524343,431.655337 273.920632,428.826015 C275.950762,424.719824 280.773471,422.753996 285.559434,425.776226 C292.908323,430.424398 299.614183,430.451957 307.422377,426.887746 C313.972074,423.90226 321.201543,422.41411 328.20136,420.457468 C337.828403,417.701635 347.492192,417.352563 357.302958,421.128054 C367.113724,411.45508 379.101598,412.704391 391.23645,414.559985 C393.461052,414.928226 395.71587,415.082034 397.96987,415.019291 C405.226897,414.716149 412.49311,414.339519 419.740952,413.779166 C422.199397,413.4239 424.630329,412.89904 427.016351,412.208341 C430.295793,405.83318 433.446629,399.706044 436.836304,393.165534 L443.790189,398.769061 L443.790189,386.147345 C452.875253,390.134117 448.805806,399.779533 452.489436,405.520852 L454.400147,405.153408 L454.951314,397.694286 C460.214955,400.790006 461.436708,403.316186 459.424949,408.276686 C457.413191,413.237185 454.988058,418.124196 452.342458,423.893074 C444.635311,421.09131 434.962337,427.126585 427.889032,417.821055 C418.886643,422.276318 412.998347,432.004409 402.186294,433.832445 Z" id="Path" fill="#000000" fill-rule="nonzero"></path>
            <path d="M369.088738,369.76851 C371.219915,379.018923 371.651663,379.441484 379.248576,380.791843 L382.92302,375.665993 L388.058056,379.992651 L384.300937,386.18409 L390.538306,387.359912 C393.229836,383.685468 395.673342,379.322065 401.129892,384.769429 L396.353114,386.505604 C396.950211,388.342826 397.547308,390.134117 398.318942,392.522506 L390.115745,395.425317 L388.434687,400.688958 L379.73544,405.530039 C373.746096,406.292486 368.712107,397.666728 361.445894,402.076061 C361.060077,404.831894 360.692633,407.449936 360.352747,409.911813 C352.654786,410.499724 355.00643,403.610141 351.846408,400.725703 L345.498806,401.433033 C339.987139,392.586809 340.262723,386.68014 346.536836,382.693368 C347.937846,383.666819 349.391457,384.562293 350.891053,385.375712 C352.595075,386.083881 354.336974,386.697226 356.108764,387.212934 L361.62043,382.849532 L365.873599,385.109315 C366.112438,384.135587 366.525813,383.446629 366.369649,382.932207 C365.166269,378.972993 361.932758,378.155429 358.350175,377.934962 C354.767591,377.714496 352.278155,376.59379 352.921183,371.679221 L359.397391,373.139813 L369.088738,369.76851 Z M375.022965,392.862392 L365.836855,390.970053 L364.982546,392.054014 C366.62686,394.056586 368.28036,396.068345 370.567702,398.833364 L375.022965,392.862392 Z" id="Shape" fill="#000000" fill-rule="nonzero"></path>
            <path d="M221.036193,63.2279993 C202.039317,88.9307367 198.51185,120.338049 190.464817,147.896381 C189.803417,154.473636 190.336212,159.63623 188.627595,163.926144 C183.501745,176.933676 183.777329,189.968767 186.34944,203.307 C188.315267,213.117766 189.932023,223.057138 191.0711,233.060812 C182.638251,221.247474 179.772184,166.516627 184.319309,144.754731 C190.584237,114.826383 201.478964,87.2680507 221.036193,63.2279993 Z" id="Path" fill="#000000" fill-rule="nonzero"></path>
            <path d="M345.599853,377.337865 C337.607937,384.19989 332.619879,383.345581 326.584604,372.74481 L331.38894,370.521771 C331.113357,369.915488 330.828587,369.300018 330.543818,368.684549 L316.002205,370.200257 L318.932574,374.857615 L318.307918,376.538674 L305.897483,374.076796 C305.217711,372.689693 304.79515,371.642477 304.216425,370.696307 C302.379203,367.692449 298.704758,364.210913 302.131178,361.17031 C305.438177,358.249127 310.775308,355.043175 314.504869,355.750505 C321.531306,357.261504 328.182193,360.1699 334.062098,364.302774 C338.682712,367.444424 341.796803,372.900974 345.599853,377.337865 Z" id="Path" fill="#000000" fill-rule="nonzero"></path>
            <path d="M398.741503,354.492008 C396.343928,356.016902 394.148448,357.872497 391.640639,358.892155 C385.311409,361.445894 377.521587,361.647988 375.904832,371.238288 L374.389124,370.319677 C373.397024,368.261988 372.395738,366.204299 370.714679,362.695205 L359.415763,364.458938 C358.864597,360.306816 368.803968,349.761161 376.235532,346.85835 C383.272093,344.102517 393.211464,347.133933 398.741503,354.492008 Z" id="Path" fill="#000000" fill-rule="nonzero"></path>
            <path d="M521.844571,253.389675 C522.423296,256.44865 523.580746,259.525997 523.470513,262.575785 C523.222488,269.511299 523.470513,275.252618 531.738012,278.238104 C536.496417,279.983465 537.562006,285.678854 536.992467,290.620981 C536.285137,296.656256 531.287893,297.574867 526.364137,297.80452 C525.22506,300.110233 524.27889,302.048503 523.332721,303.977586 L521.79864,303.876539 L520.402352,292.853206 L525.849715,286.01874 C522.542715,275.261804 510.729377,266.406394 518.89583,253.922469 L521.844571,253.389675 Z" id="Path" fill="#000000" fill-rule="nonzero"></path>
            <path d="M378.467757,456.16388 L373.663421,468.289546 C372.983649,468.702921 370.59526,469.566416 369.070366,471.219915 C364.119052,476.501929 362.640088,476.38251 359.195297,469.538857 C352.250597,472.009921 348.171964,466.571744 342.660298,463.825096 C352.3149,459.232041 360.361933,455.383061 378.467757,456.16388 Z M365.864413,463.512769 L367.049421,466.038949 L370.723866,463.962888 L369.805254,462.015433 L365.864413,463.512769 Z" id="Shape" fill="#000000" fill-rule="nonzero"></path>
            <path d="M289.435973,364.155796 C281.122543,360.058791 279.138343,356.255741 280.791843,350.3307 C282.344295,344.819034 289.821789,337.929451 294.681242,338.453059 C294.3781,345.057872 294.405659,351.782105 293.578909,358.396105 C293.312511,360.508911 290.795517,362.346133 289.435973,364.155796 Z" id="Path" fill="#000000" fill-rule="nonzero"></path>
            <path d="M533.014881,216.544185 C535.550248,230.571376 537.846776,243.67077 540.143303,256.760977 C534.264193,252.471064 530.332537,246.022414 531.26952,240.290281 C532.564762,232.629065 525.114826,224.600404 533.014881,216.544185 Z" id="Path" fill="#000000" fill-rule="nonzero"></path>
            <path d="M326.786699,401.3228 C326.492743,403.215139 326.207974,405.107477 325.868087,407.32133 L318.629432,407.32133 C318.243616,404.703289 317.821055,401.809664 317.389307,398.79662 C324.499357,398.273011 330.626493,397.721845 336.762815,397.528936 C337.50689,397.528936 338.306081,399.366158 340.189234,401.86478 L328.449385,401.86478 L326.786699,401.3228 Z" id="Path" fill="#000000" fill-rule="nonzero"></path>
            <path d="M351.230939,357.633658 L351.230939,368.592688 L336.716884,362.594158 C343.183906,355.842366 346.132647,354.9605 351.230939,357.633658 Z" id="Path" fill="#000000" fill-rule="nonzero"></path>
            <path d="M389.996326,366.525813 L403.509094,356.549697 C402.535367,364.339519 397.152306,368.803968 389.996326,366.525813 Z" id="Path" fill="#000000" fill-rule="nonzero"></path>
            <path d="M550.468492,559.296344 L564.587544,562.970788 C557.780636,567.701635 555.180966,567.113724 550.468492,559.296344 Z" id="Path" fill="#000000" fill-rule="nonzero"></path>
            <path d="M264.844755,35.5778064 C270.025721,32.0778982 274.435054,33.556862 278.522873,36.8179313 C278.467757,37.3599118 278.403454,37.8927062 278.339151,38.4255006 C276.152857,38.0672423 273.939004,37.791659 271.771082,37.3323535 C269.446996,36.8454896 267.159655,36.1749035 264.844755,35.5778064 Z" id="Path" fill="#000000" fill-rule="nonzero"></path>
            <polygon id="Path" fill="#000000" fill-rule="nonzero" points="311.133566 406.715047 315.166269 409.957744 304.978872 416.562557 303.729561 415.432666"></polygon>
            <path d="M189.316553,316.424766 C190.382142,321.709841 191.450793,326.994917 192.522506,332.279993 L190.437259,332.702554 C189.292057,327.350113 188.149917,321.994611 187.01084,316.636046 L189.316553,316.424766 Z" id="Path" fill="#000000" fill-rule="nonzero"></path>
            <path d="M326.492743,387.810031 C321.063752,389.959581 318.932574,388.636781 321.192357,382.665809 L326.492743,387.810031 Z" id="Path" fill="#000000" fill-rule="nonzero"></path>
            <path d="M236.744442,48.3097556 C234.585706,42.7980893 235.035826,42.1642477 242.136689,40.3545839 C240.342336,43.0124319 238.54492,45.6641558 236.744442,48.3097556 Z" id="Path" fill="#000000" fill-rule="nonzero"></path>
            <path d="M263.246371,22.6070182 L270.466654,16.7370935 C271.908874,23.2408598 270.861657,24.2421459 263.246371,22.6070182 Z" id="Path" fill="#000000" fill-rule="nonzero"></path>
            <path d="M184.319309,280.516259 L181.88499,270.604446 L183.777329,270.080838 C186.285137,272.919346 188.269337,275.904832 186.009554,280.185559 L184.319309,280.516259 Z" id="Path" fill="#000000" fill-rule="nonzero"></path>
            <polygon id="Path" fill="#000000" fill-rule="nonzero" points="192.090759 182.408598 192.090759 192.265295 190.997612 192.265295 190.997612 182.243248"></polygon>
            <path d="M401.102333,396.555209 C407.064119,395.112989 407.697961,397.3544 404.932941,401.81885 L401.102333,396.555209 Z" id="Path" fill="#000000" fill-rule="nonzero"></path>
            <path d="M332.38104,466.323719 C339.325739,465.478596 339.325739,465.478596 339.086901,471.96399 L332.38104,466.323719 Z" id="Path" fill="#000000" fill-rule="nonzero"></path>
            <path d="M248.254639,31.6828955 L254.804336,28.1462429 L255.83318,29.8732317 C255.135036,33.4925593 252.066875,33.4190704 249.145692,33.5476759 L248.254639,31.6828955 Z" id="Path" fill="#000000" fill-rule="nonzero"></path>
            <polygon id="Path" fill="#000000" fill-rule="nonzero" points="524.177843 208.019475 518.096638 213.374977 516.865699 212.199155 522.515157 206.411905"></polygon>
            <path d="M503.325372,442.329598 L500.900239,448.759875 L499.393717,448.263825 C500.045931,446.049972 500.707331,443.845306 501.359544,441.631453 L503.325372,442.329598 Z" id="Path" fill="#000000" fill-rule="nonzero"></path>
            <polygon id="Path" fill="#000000" fill-rule="nonzero" points="496.968584 456.274114 491.557964 457.468308 491.034356 455.677016 496.307184 454.152122"></polygon>
            <path d="M310.738563,400.459306 L312.878927,397.372772 L314.091494,398.043358 C313.558699,399.209994 313.035091,400.385817 312.511483,401.561639 L310.738563,400.459306 Z" id="Path" fill="#000000" fill-rule="nonzero"></path>
            <path d="M271.908874,490.951681 C272.138527,491.870292 272.377365,492.880764 272.607018,493.845306 L271.431196,494.286239 L270.135954,491.530406 L271.908874,490.951681 Z" id="Path" fill="#000000" fill-rule="nonzero"></path>
            <polygon id="Path" fill="#000000" fill-rule="nonzero" points="324.618776 521.550615 321.596546 522.212015 321.238288 520.604446 324.269704 519.93386"></polygon>
            <path d="M423.130626,396.049972 C422.726438,395.177292 422.322249,394.295425 421.908874,393.413559 L423.07551,392.880764 L424.27889,395.517178 L423.130626,396.049972 Z" id="Path" fill="#000000" fill-rule="nonzero"></path>
            <path d="M380.304979,491.677384 C380.011023,490.841448 379.717068,490.005512 379.432298,489.160389 L380.534632,488.609223 L381.995223,491.0711 L380.304979,491.677384 Z" id="Path" fill="#000000" fill-rule="nonzero"></path>
            <path d="M222.166085,62.8881132 C221.027007,64.0271909 219.593974,64.9917325 218.794782,66.3329046 C213.907771,74.4809848 209.176924,82.6749954 204.390961,90.9424949" id="Path" stroke="#000000" stroke-width="2" stroke-linecap="round" stroke-linejoin="round"></path>
            <line x1="183.878376" y1="170.861657" x2="183.878376" y2="174.27889" id="Path" stroke="#000000" stroke-width="2" stroke-linecap="round" stroke-linejoin="round"></line>
            <path d="M183.878376,179.129157 C184.337681,188.701084 184.503031,198.30057 185.375712,207.835752 C185.798273,212.428808 187.525262,216.95756 188.66434,221.513871" id="Path" stroke="#000000" stroke-width="2" stroke-linecap="round" stroke-linejoin="round"></path>
            <line x1="507.900055" y1="235.164431" x2="509.259599" y2="237.22212" id="Path" stroke="#000000" stroke-width="2" stroke-linecap="round" stroke-linejoin="round"></line>
            <path d="M510.62833,243.349256 C511.087635,245.627411 511.543879,247.908629 511.99706,250.192908" id="Path" stroke="#000000" stroke-width="2" stroke-linecap="round" stroke-linejoin="round"></path>
            <path d="M532.509645,229.652765 C532.959765,230.341723 533.428256,231.021495 533.86919,231.701268" id="Path" stroke="#000000" stroke-width="2" stroke-linecap="round" stroke-linejoin="round"></path>
            <line x1="521.568988" y1="273.433768" x2="522.937718" y2="276.851001" id="Path" stroke="#000000" stroke-width="2" stroke-linecap="round" stroke-linejoin="round"></line>
            <line x1="222.845857" y1="563.953702" x2="220.090024" y2="566.002205" id="Path" stroke="#000000" stroke-width="2" stroke-linecap="round" stroke-linejoin="round"></line>
            <line x1="205.768877" y1="568.73048" x2="195.507992" y2="575.574132" id="Path" stroke="#000000" stroke-width="2" stroke-linecap="round" stroke-linejoin="round"></line>
            <line x1="230.369282" y1="218.739666" x2="235.146059" y2="222.845857" id="Path" stroke="#000000" stroke-width="2" stroke-linecap="round" stroke-linejoin="round"></line>
            <line x1="233.097556" y1="243.349256" x2="222.845857" y2="247.455447" id="Path" stroke="#000000" stroke-width="2" stroke-linecap="round" stroke-linejoin="round"></line>
            <line x1="487.38747" y1="162.695205" x2="493.542164" y2="181.829873" id="Path" stroke="#000000" stroke-width="2" stroke-linecap="round" stroke-linejoin="round"></line>
            <path d="M455.263641,396.472534 C455.943414,398.070917 456.632372,399.660114 457.312144,401.258497" id="Path" stroke="#000000" stroke-width="2" stroke-linecap="round" stroke-linejoin="round"></path>
            <path d="M488.076428,468.252802 C483.520118,474.854553 478.960745,481.462429 474.39831,488.076428" id="Path" stroke="#000000" stroke-width="2" stroke-linecap="round" stroke-linejoin="round"></path>
            <line x1="468.252802" y1="241.989712" x2="468.252802" y2="239.932023" id="Path" stroke="#000000" stroke-width="2" stroke-linecap="round" stroke-linejoin="round"></line>
            <line x1="251.552453" y1="230.369282" x2="252.241411" y2="234.466287" id="Path" stroke="#000000" stroke-width="2" stroke-linecap="round" stroke-linejoin="round"></line>
            <path d="M256.338416,483.970237 C256.16388,490.997612 261.758222,494.185192 265.910344,498.328128 L270.016535,502.425133" id="Path" stroke="#000000" stroke-width="2" stroke-linecap="round" stroke-linejoin="round"></path>
            <line x1="473.718538" y1="108.001102" x2="475.087268" y2="110.058791" id="Path" stroke="#000000" stroke-width="2" stroke-linecap="round" stroke-linejoin="round"></line>
            <line x1="347.234981" y1="464.14661" x2="343.137975" y2="462.77788" id="Path" stroke="#000000" stroke-width="2" stroke-linecap="round" stroke-linejoin="round"></line>
            <line x1="187.984567" y1="314.440566" x2="191.4018" y2="333.58442" id="Path" stroke="#000000" stroke-width="2" stroke-linecap="round" stroke-linejoin="round"></line>
            <line x1="259.755649" y1="587.194562" x2="263.172883" y2="591.291567" id="Path" stroke="#000000" stroke-width="2" stroke-linecap="round" stroke-linejoin="round"></line>
            <line x1="506.531325" y1="596.077531" x2="501.745361" y2="598.833364" id="Path" stroke="#000000" stroke-width="2" stroke-linecap="round" stroke-linejoin="round"></line>
            <line x1="445.011942" y1="385.541062" x2="447.767775" y2="391.68657" id="Path" stroke="#000000" stroke-width="2" stroke-linecap="round" stroke-linejoin="round"></line>
            <path d="M507.900055,185.936065 C508.350175,189.123645 508.818666,192.311225 509.259599,195.498806" id="Path" stroke="#000000" stroke-width="2" stroke-linecap="round" stroke-linejoin="round"></path>
            <path d="M367.07698,397.841264 C368.675363,398.753751 370.270684,399.672362 371.862943,400.597097" id="Path" stroke="#000000" stroke-width="2" stroke-linecap="round" stroke-linejoin="round"></path>
            <path d="M393.735073,387.589565 C393.588095,379.367996 398.759875,385.752342 401.258497,384.833731" id="Path" stroke="#000000" stroke-width="2" stroke-linecap="round" stroke-linejoin="round"></path>
            <line x1="403.995958" y1="355.50248" x2="396.472534" y2="365.074407" id="Path" stroke="#000000" stroke-width="2" stroke-linecap="round" stroke-linejoin="round"></line>
            <line x1="346.573581" y1="0" x2="346.573581" y2="2.04850266" id="Path" stroke="#000000" stroke-width="2" stroke-linecap="round" stroke-linejoin="round"></line>
            <line x1="191.4018" y1="180.461143" x2="191.4018" y2="194.139261" id="Path" stroke="#000000" stroke-width="2" stroke-linecap="round" stroke-linejoin="round"></line>
            <line x1="362.979974" y1="2.75583318" x2="362.979974" y2="4.78596362" id="Path" stroke="#000000" stroke-width="2" stroke-linecap="round" stroke-linejoin="round"></line>
            <line x1="622.735624" y1="582.399412" x2="622.735624" y2="584.447915" id="Path" stroke="#000000" stroke-width="2" stroke-linecap="round" stroke-linejoin="round"></line>
            <line x1="436.119787" y1="502.425133" x2="438.16829" y2="505.180966" id="Path" stroke="#000000" stroke-width="2" stroke-linecap="round" stroke-linejoin="round"></line>
            <line x1="182.518832" y1="269.327577" x2="185.274665" y2="281.636965" id="Path" stroke="#000000" stroke-width="2" stroke-linecap="round" stroke-linejoin="round"></line>
            <line x1="189.353298" y1="222.845857" x2="189.353298" y2="235.164431" id="Path" stroke="#000000" stroke-width="2" stroke-linecap="round" stroke-linejoin="round"></line>
            <line x1="339.739114" y1="400.578725" x2="337.690612" y2="400.578725" id="Path" stroke="#000000" stroke-width="2" stroke-linecap="round" stroke-linejoin="round"></line>
            <line x1="330.167187" y1="399.209994" x2="321.284218" y2="402.627228" id="Path" stroke="#000000" stroke-width="2" stroke-linecap="round" stroke-linejoin="round"></line>
            <path d="M234.466287,266.590116 L238.241778,270.365607 C240.896564,269.538857 244.460775,267.545471 245.406945,272.74481" id="Path" stroke="#000000" stroke-width="2" stroke-linecap="round" stroke-linejoin="round"></path>
            <path d="M321.284218,547.547308 C320.071749,548.852168 318.939767,550.229566 317.894543,551.671872 C316.617674,553.628514 315.579644,555.750505 314.440566,557.799008" id="Path" stroke="#000000" stroke-width="2" stroke-linecap="round" stroke-linejoin="round"></path>
            <line x1="520.200257" y1="252.921183" x2="520.200257" y2="254.969686" id="Path" stroke="#000000" stroke-width="2" stroke-linecap="round" stroke-linejoin="round"></line>
            <line x1="390.317839" y1="516.103252" x2="384.172331" y2="520.852471" id="Path" stroke="#000000" stroke-width="2" stroke-linecap="round" stroke-linejoin="round"></line>
            <path d="M365.028477,189.353298 C362.015433,192.430645 361.078449,195.783575 363.659746,199.604997" id="Path" stroke="#000000" stroke-width="2" stroke-linecap="round" stroke-linejoin="round"></path>
            <line x1="548.906853" y1="560.536469" x2="553.692816" y2="561.896013" id="Path" stroke="#000000" stroke-width="2" stroke-linecap="round" stroke-linejoin="round"></line>
            <line x1="503.793864" y1="441.585523" x2="499.724417" y2="449.788719" id="Path" stroke="#000000" stroke-width="2" stroke-linecap="round" stroke-linejoin="round"></line>
            <path d="M372.551902,514.045563 C370.806541,518.252802 373.957376,519.786882 376.648907,521.568988" id="Path" stroke="#000000" stroke-width="2" stroke-linecap="round" stroke-linejoin="round"></path>
            <line x1="256.338416" y1="29.3955539" x2="248.13522" y2="34.1815175" id="Path" stroke="#000000" stroke-width="2" stroke-linecap="round" stroke-linejoin="round"></line>
            <line x1="304.188866" y1="508.579827" x2="304.188866" y2="510.62833" id="Path" stroke="#000000" stroke-width="2" stroke-linecap="round" stroke-linejoin="round"></line>
            <line x1="279.579276" y1="37.5987507" x2="271.376079" y2="35.550248" id="Path" stroke="#000000" stroke-width="2" stroke-linecap="round" stroke-linejoin="round"></line>
            <line x1="352.039317" y1="366.397207" x2="349.990814" y2="366.397207" id="Path" stroke="#000000" stroke-width="2" stroke-linecap="round" stroke-linejoin="round"></line>
            <line x1="523.608304" y1="207.119236" x2="516.094066" y2="213.27393" id="Path" stroke="#000000" stroke-width="2" stroke-linecap="round" stroke-linejoin="round"></line>
            <line x1="222.845857" y1="202.342458" x2="215.322432" y2="204.390961" id="Path" stroke="#000000" stroke-width="2" stroke-linecap="round" stroke-linejoin="round"></line>
            <path d="M309.663788,410.830424 C308.065405,412.875865 306.470084,414.92743 304.877825,416.985119" id="Path" stroke="#000000" stroke-width="2" stroke-linecap="round" stroke-linejoin="round"></path>
            <path d="M382.142201,374.600404 C382.601507,376.198787 383.060812,377.787985 383.510931,379.386368" id="Path" stroke="#000000" stroke-width="2" stroke-linecap="round" stroke-linejoin="round"></path>
            <line x1="401.938269" y1="395.792761" x2="406.044461" y2="401.938269" id="Path" stroke="#000000" stroke-width="2" stroke-linecap="round" stroke-linejoin="round"></line>
            <line x1="375.280176" y1="583.777329" x2="375.280176" y2="585.825831" id="Path" stroke="#000000" stroke-width="2" stroke-linecap="round" stroke-linejoin="round"></line>
            <path d="M313.760794,396.472534 C313.081021,398.309756 312.392063,400.146978 311.712291,401.938269" id="Path" stroke="#000000" stroke-width="2" stroke-linecap="round" stroke-linejoin="round"></path>
            <line x1="470.981077" y1="604.280728" x2="470.981077" y2="606.32923" id="Path" stroke="#000000" stroke-width="2" stroke-linecap="round" stroke-linejoin="round"></line>
            <line x1="451.846408" y1="496.279625" x2="455.263641" y2="499.724417" id="Path" stroke="#000000" stroke-width="2" stroke-linecap="round" stroke-linejoin="round"></line>
            <line x1="333.58442" y1="464.817196" x2="339.050156" y2="470.962704" id="Path" stroke="#000000" stroke-width="2" stroke-linecap="round" stroke-linejoin="round"></line>
            <line x1="372.551902" y1="460.729377" x2="374.600404" y2="468.932574" id="Path" stroke="#000000" stroke-width="2" stroke-linecap="round" stroke-linejoin="round"></line>
            <line x1="214.64266" y1="265.910344" x2="211.886827" y2="270.696307" id="Path" stroke="#000000" stroke-width="2" stroke-linecap="round" stroke-linejoin="round"></line>
            <path d="M282.996509,30.0753261 C282.776043,31.4440566 282.54639,32.8311593 282.316737,34.1815175" id="Path" stroke="#000000" stroke-width="2" stroke-linecap="round" stroke-linejoin="round"></path>
            <path d="M270.016535,34.9072203 C267.57303,33.6211648 265.166269,32.4177843 265.230571,36.9557229" id="Path" stroke="#000000" stroke-width="2" stroke-linecap="round" stroke-linejoin="round"></path>
            <path d="M496.279625,454.574683 C495.103803,458.97483 492.099945,455.162594 490.124931,455.943414" id="Path" stroke="#000000" stroke-width="2" stroke-linecap="round" stroke-linejoin="round"></path>
            <line x1="310.343561" y1="516.103252" x2="307.587727" y2="519.520485" id="Path" stroke="#000000" stroke-width="2" stroke-linecap="round" stroke-linejoin="round"></line>
            <line x1="291.199706" y1="357.514238" x2="294.616939" y2="358.194011" id="Path" stroke="#000000" stroke-width="2" stroke-linecap="round" stroke-linejoin="round"></line>
            <path d="M282.996509,518.151755 C282.776043,519.070366 282.54639,519.988977 282.316737,520.907588" id="Path" stroke="#000000" stroke-width="2" stroke-linecap="round" stroke-linejoin="round"></path>
            <line x1="306.926327" y1="372.551902" x2="306.926327" y2="374.600404" id="Path" stroke="#000000" stroke-width="2" stroke-linecap="round" stroke-linejoin="round"></line>
        </g>
    </g>
</svg>