<?xml version="1.0" encoding="UTF-8"?>
<svg width="700px" height="700px" viewBox="0 0 700 700" version="1.1" xmlns="http://www.w3.org/2000/svg" xmlns:xlink="http://www.w3.org/1999/xlink">
    <title>Artboard</title>
    <g id="Artboard" stroke="none" stroke-width="1" fill="none" fill-rule="evenodd">
        <g id="guvuk-acc-Asset-1" transform="translate(31.000000, 37.000000)">
            <path d="M427.54,64.82 C438.98,65.37 449.17,69.03 457.98,77.22 L455.98,79.71 C456.331975,79.949959 456.725235,80.122858 457.14,80.22 C463.48,80.35 469.88,81.33 475.63,77.22 C476.89,76.31 479.31,76.63 481.11,76.91 C484.365486,77.3563335 487.577077,78.0789415 490.71,79.07 C496.974224,81.2445139 503.58184,82.2610701 510.21,82.07 C515.32,81.92 520.21,82.99 521.61,89.27 C521.77,89.97 522.88,90.46 524.18,91.6 C524.46,89.66 524.64,88.45 524.95,86.33 L534.22,90 C534.65,92.21 535.05,94.21 535.49,96.47 C539.86,95.86 538.76,90.98 541.77,89.09 C544.95,90.91 546.07,94.09 547.48,97.38 C551.01,105.6 554.9,113.66 558.84,121.68 C559.38,122.79 561.07,123.34 562.23,124.14 L563.23,123.14 C561.47,119.94 559.9,116.62 557.93,113.56 C554.69,108.56 553.26,103.34 555.74,97.56 L555.6,97.68 C557.96,96.21 560.28,94.68 562.67,93.3 C565.06,91.92 567.67,90.55 571.22,88.61 L572.87,84.75 L572.74,84.87 C578.37,83 582,86.05 584.39,90.39 C587.67,96.39 592.98,100.25 597.47,105.02 C604.39,112.38 614.73,115.15 620.96,123.3 C610.74,123.63 610.74,123.63 608.23,127 C611.11038,132.404607 615.220948,137.0564 620.23,140.58 C622.62,142.19 625.06,143.85 623.11,147.44 C634.59,154.17 645.33,161.44 643.45,177.31 C644.02,174.85 644.58,172.39 645.09,170.13 C651.38,168.77 652.42,168.87 654.81,173.45 C658.09,179.72 662.87,184.45 668.29,188.8 L668.29,663.3 L511.56,663.3 C508.56,658.3 508.74,653.5 512.15,648.72 C512.93,647.62 513.1,646.09 513.5,644.72 C514.91,639.99 515.76,635 517.81,630.56 C520.09,625.64 521.38,620.85 520.21,614.91 L509.76,606.8 C510.11,604.8 510.5,602.56 510.86,600.48 C504.39,594.2 501.86,593.9 495.39,598.48 C493.513454,599.934609 491.56428,601.293024 489.55,602.55 C486.82,604.1 483.91,605.02 480.73,603.55 C476.45,601.55 472.13,599.68 467.73,597.72 C466.79,595.02 465.82,592.24 464.86,589.46 L463.1,588.63 L460.45,593.81 C453.84,593.98 452.59,589.7 450.61,586.21 L445.07,586.21 C443.51,579.78 444.67,576.21 449.64,574.47 C459.35,571.08 466.19,563.8 473.81,557.53 C476.33,555.46 479.2,553.82 481.92,552 C483.937732,550.80167 485.881268,549.482603 487.74,548.05 C492.22,544.16 496.74,540.73 502.51,538.52 C507.45,536.64 511.58,532.6 516.05,529.52 C516.82,528.98 517.44,527.92 518.26,527.76 C525.43,526.37 531.32,522.25 537.55,518.87 C543.1,515.87 548.86,513.18 552.94,508.01 C557.62,502.07 562.49,496.28 567.28,490.42 C568.03,489.51 569.35,488.58 569.37,487.63 C569.53,480.08 575.77,476.41 580.11,471.1 L575.71,468.24 C576.85,465.89 577.85,463.8 578.86,461.71 L578.05,461.53 C578.503911,458.417541 579.145074,455.335282 579.97,452.3 C581.52,447.63 581.43,445.19 577.28,442.41 C573.624465,440.159634 571.026514,436.534753 570.07,432.35 C569.837513,431.177167 569.275562,430.094891 568.45,429.23 C561.88,423.33 561.87,414.99 559.77,407.32 C557.422454,398.137457 554.394073,389.142564 550.71,380.41 C547.31,372.7 544.97,364.98 544.71,356.62 C544.696598,355.483636 544.814038,354.349506 545.06,353.24 C545.79,349.62 546.59,346.01 547.37,342.36 C543.20847,339.664189 540.440773,335.276822 539.8,330.36 C539.13,326.48 536.08,323.01 534.37,319.19 C527.91,311.95 521.01,305.11 509.76,304.57 C512.11,299.78 517.01,302.57 519.83,300.06 C519.58,299.55 519.44,298.6 519.01,298.46 C513.71,296.61 508.45,294.56 503.01,293.2 C495.67,291.35 488.24,289.74 480.76,288.63 C475.67,287.87 470.43,288.1 465.26,287.94 C463.04,287.87 460.82,287.94 456.71,287.94 C459.43,283.73 461.09,281.13 463.18,277.89 C460.78,278.56 459.03,279.09 457.26,279.53 C449.11,281.53 447.99,283.34 449.73,291.39 C450.02,292.7 450.18,294.05 450.48,295.89 C445.54,296.07 443.87,292.83 442.62,289.68 C439.19,281.04 441.22,272.96 445.76,265.26 C447.19,262.83 449.03,260.51 449.91,257.87 C454.3,244.66 464.91,238.43 476.69,233.38 C479.69,232.09 482.55,230.38 485.51,229 C488.9,227.37 492.43,226 495.71,224.21 C500.43,221.61 505.48,219.21 509.41,215.7 C511.41,213.9 512.59,209.37 511.85,206.7 C510.09,200.41 509.28,193.86 505.56,187.96 C501.97,182.26 500.88,175.02 497.51,169.14 C492.69,160.75 487.04,152.78 478.06,148.01 C474.16,145.94 472.29,142.6 470.61,138.29 C468.384565,132.859989 464.934889,128.017438 460.53,124.14 C454.89,119.14 448.04,115.6 441.71,111.43 C441.32,111.17 440.71,111.08 440.47,110.75 C433.26,102.14 422.73,97.15 414.58,87.75 C405.8,84.88 406.25,83.28 413.98,72.37 L409.56,73.22 C406.67,69.76 403.73,66.47 401.06,62.99 C398.65,59.84 399.57,55.88 403.32,53.18 C407.73,50 412.32,47.08 416.76,43.92 C418.87,42.4 420.62,40.34 422.81,38.97 C424.923934,37.8555645 427.128484,36.9222269 429.4,36.18 L430.21,37.55 L425.97,42.67 L442.09,39.13 C435.51,46.48 430.26,52.84 420.71,54 C420.49,51.82 420.33,50.31 420.14,48.44 C414.99,49.92 411.33,52.74 407.92,57.88 L429.01,61.53 L427.69,64.92 L427.54,64.82 Z M635.54,218.82 L633.97,217.27 L634.08,217.18 L635.64,218.72 L635.54,218.82 Z M535.75,157.33 L537.31,158.87 L539.77,161.56 L540.45,160.75 L537.22,159 L535.71,157.44 L535.75,157.33 Z M521.52,144.51 L523.05,146.04 L525,147.78 L525.42,147.06 L522.95,146.13 L521.42,144.61 C521.16,144.05 520.91,143.5 521.33,144.41 L521.52,144.51 Z M626.94,201.71 L627.05,201.61 L629.29,203.52 C629.46,203.18 629.64,202.84 629.82,202.52 L626.94,201.71 Z M569.94,141.9 L568.94,139.17 L568.05,139.68 L570.05,141.79 C570.54,143.79 570.51,146.22 571.62,147.79 C578.47,157.63 585.56,167.29 592.62,177.01 C591.565693,172.992814 589.782805,169.203331 587.36,165.83 C581.63,157.81 575.71,149.89 569.91,141.92 L569.94,141.9 Z M466.82,254 C471.64,258.49 476.17,260.56 481.99,257.64 C489.53,253.87 497.73,252.58 505.99,251.88 C511.16,251.45 516.4,251.88 521.58,251.54 C524.12446,251.212759 526.638994,250.684439 529.1,249.96 C529.43,245.6 527.97,242.67 524.98,242.42 C517.88,241.84 510.38,239.49 503.98,245.26 C502.48944,246.429693 500.663827,247.091959 498.77,247.15 C492.67,247.42 486.55,247.45 480.44,247.34 C474.97,247.2 470.14,248.11 466.82,254 Z M503.39,288.73 C503.67,288.26 503.95,287.79 504.24,287.32 C502.54,284.54 500.55,281.9 499.24,278.96 C498.074247,275.929576 497.095738,272.830407 496.31,269.68 C492.02,268.87 489.65,271.46 487.31,273.68 C483.01,277.68 483.75,282.89 489.18,284.94 C493.71,286.6 498.63,287.45 503.39,288.68 L503.39,288.73 Z M558.39,101.06 C557.79,106.18 558.39,109.78 562.6,112.06 C561.15,108.71 562.48,104.39 558.36,101 L558.39,101.06 Z M564.08,381.06 L565.79,380.8 L564.05,376.46 L563.05,376.77 L564.08,381.06 Z M552.94,127.43 L553.71,126 L550.57,124.41 L550.07,125.33 L552.94,127.43 Z M588.24,106.62 L587.66,107.62 L591.66,109.93 L592.23,108.93 L588.24,106.62 Z M512.36,85.57 L511.66,86.79 L514.19,87.67 L514.52,86.85 L512.36,85.57 Z M582.18,99.74 L581.53,100.74 L583.87,102.33 L584.5,101.4 L582.18,99.74 Z M605.32,123.74 L605.52,123.14 C605.157432,123.047483 604.790261,122.974049 604.42,122.92 C604.37,122.92 604.29,123.29 604.23,123.49 L605.32,123.74 Z M602.45,140.59 L601.52,140.11 C601.426448,140.26634 601.346167,140.430247 601.28,140.6 C601.57447,140.782313 601.878213,140.949204 602.19,141.1 L602.45,140.59 Z M591.99,165.13 C592.17,165.05 592.46,165 592.51,164.87 C592.56,164.74 592.4,164.49 592.33,164.29 L591.52,164.72 L591.99,165.13 Z M528.83,117.13 L528.75,117.56 L529.15,117.44 L528.83,117.13 Z" id="Shape" fill="#000000" fill-rule="nonzero"></path>
            <path d="M169.57,663.31 C172.328434,660.552368 173.244241,656.44877 171.92,652.78 C174.22,648.2 177.92,650.46 181.2,649.41 C179.72,648.46 178.28,647.41 176.76,646.57 C172.32,644 171.43,640.86 174.34,636.76 C176.64,633.51 179.17,630.35 183.92,631.54 C185.49,626.25 182.79,624.66 178.87,624.26 C178.75,621.85 178.65,619.75 178.55,617.66 L184.82,616.29 C182.82,610.53 178.23,604.44 186.4,600.23 C185.47,596.94 184.64,594.01 183.96,591.63 C185.88,584.38 187.69,577.55 189.49,570.72 L191.19,568.23 L190.13,567.79 C189.96,568.79 189.79,569.79 189.61,570.79 L180.97,586.1 L177.18,584.67 C173.28,588.78 179,593 176.92,598.4 C174.7,591.19 170.57,585.84 171.28,578.57 L175.05,578.57 L174.28,570.23 C165.66,578.17 158.28,586.75 146.34,588.23 C162.07,581.9 170.85,568.23 180.1,555.74 C180.92,552.51 181.17,548.97 182.7,546.12 C186.24,539.53 186.63,532.62 186.25,525.45 C186.04,521.45 186.02,517.45 185.95,513.45 C185.95,512.75 186.42,511.87 186.14,511.36 C183.38,506.26 186.29,501.75 187.48,497.06 C187.597266,496.289049 187.65078,495.509744 187.64,494.73 L184.64,492.83 C190.19,484.57 191.86,475.63 189.24,465.9 L184.93,466.7 C184.34,462.7 183.79,459.05 183.11,454.44 L177.98,458.2 L178.09,458.1 L174.92,460.4 C173.87,451.18 175.48,443.28 177.6,435.86 L168.2,423.86 L168.11,423.96 L178.04,429.84 C176.76,419.64 175.54,409.95 174.32,400.26 L173.25,400.05 C172.69,401.95 172.133333,403.846667 171.58,405.74 L170.87,405.74 C170.54,397.93 170.22,390.12 169.87,381.02 C165.27,384.73 165.75,388.67 165.32,392.17 C164.89,395.67 164.8,399.49 164.48,404.51 C159.61,397.32 164.95,390.62 161.74,384.51 C160.84,386.8 159.94,389.09 158.97,391.51 L156.89,388.43 C155.98,391.37 155.23,393.76 154.47,396.19 C147.78,389.06 147.78,389.06 147.47,383.77 C148.47,384.87 149.47,385.97 150.71,387.32 C153.28,378.48 154.71,369.8 158.33,362.11 C161.95,354.42 167.6,348 173,340 C173.58,343.44 174,346.13 174.49,348.82 L175.6,348.91 C176.66,343.23 177.71,337.55 178.88,331.32 L182.47,333.32 L189.83,304.67 C195.91,302.28 196.71,297.8 196.83,292.4 C196.95,287 198.23,281.4 199.15,274.92 C205.2,279.71 202.22,287.47 207.15,293.31 C207.27,290.21 207.47,288.26 207.38,286.31 C207.26,283.71 206.76,281.13 206.72,278.53 C206.63,272.44 206.09,266.45 207.57,260.27 C208.68,255.63 207.68,250.38 207.11,245.46 C206.202635,238.649417 207.373788,231.723581 210.47,225.59 C216.32,213.7 221.01,201.25 226.21,189.04 C227.241713,186.424966 228.584723,183.943754 230.21,181.65 C232.98,187.88 225.3,192.35 227.66,199.17 C233.2,188.17 238.44,177.8 243.66,167.41 L243.53,167.51 L245.1,165.93 L245.1,166.04 L253.29,160.31 C254.46,157.39 255.99,153.58 257.51,149.77 L256.41,149.13 L250.41,156.13 C250.41,150.92 252.8,148.99 255.3,146.97 C257.23,145.41 258.92,143.55 260.72,141.82 L263.51,137.5 L263.61,137.6 L260.83,141.93 L253.68,141.74 L253.8,141.86 C252.48,138.39 253.63,135.81 255.87,132.86 C260.64,126.57 264.76,119.79 269.14,113.21 L273.49,110.43 L273.59,110.54 L269.25,113.32 L265.01,114.62 L265.11,114.73 C264.88,109.36 269.92,107.22 272.11,103.31 L272.21,103.42 L263.91,107.31 L263.12,106.68 C267.12,101.78 270.8,96.68 275.07,92.07 C278.91,87.91 284,85.41 288.88,82.5 C294.55,79.13 300.61,76.8 306.33,73.71 C309.54,71.97 313.02,70.71 316.99,69.02 C309.63,61.28 302.35,69.74 294.07,67.65 L300.16,64.89 C301.38,62.83 302.16,60.53 303.75,58.99 C313.61,49.24 325.75,43.39 339.07,40.45 C343.44,39.45 348.27,40.54 352.89,40.75 C356.11,40.9 359.34,41.47 362.54,41.28 C364.405446,41.0664511 366.155565,40.2683966 367.54,39 C369.130733,37.5790245 370.349522,35.7903234 371.09,33.79 C374.61,23.46 382.36,18.43 393.78,15.79 C390.56,21.31 388.41,26.55 384.86,30.58 C381.95,33.88 381.73,37.38 381.66,40.97 C381.55,46.35 382.21,51.75 382.55,57.1 C380.02,57.45 377.35,57.1 375.83,58.26 C374.58,59.26 374.69,61.94 374.09,64.26 C368.72,64.26 364.98,67.39 361.17,71.26 C357.63,74.89 352.77,77.2 348.58,80.26 C343.008012,84.0874954 336.955906,87.1639824 330.58,89.41 C324.644128,91.766756 319.142197,95.0956271 314.3,99.26 C303.75,108.14 294.25,118.26 286.9,129.93 C282.576945,136.707036 277.837853,143.209511 272.71,149.4 C267.828976,155.21265 263.872573,161.742571 260.98,168.76 C257.98,176.17 253.98,183.19 249.98,190.16 C246.09,196.96 245.52,204.62 243.98,211.96 C240.98,226.11 238.98,240.44 236.33,254.67 C235.98,256.57 234.56,258.28 233.63,260.08 L233.63,257.19 L233.73,257.3 L225.03,264.05 L224.24,260.91 L223.13,260.98 L223.54,269.42 L233.77,259.92 C231.42,265.07 228.89,270.14 226.77,275.39 C225.88,277.62 224.67,279.87 226.48,282.76 C227.4,284.23 226.06,287.12 225.69,289.81 L229.76,289.11 C226.76,306.68 228,324.11 229.03,341.63 C230.3,363.22 232.44,384.63 236.65,405.87 C240.02,422.87 243.8,439.76 252.06,455.27 C256.33,463.27 261.06,470.86 267.7,477.16 C269.635203,479.222005 271.397794,481.439458 272.97,483.79 C279.51,492.5 288.97,497.79 297.38,504.26 C306.88,511.52 315.6,519.15 321.51,529.69 C327.019442,539.390942 333.862822,548.270843 341.84,556.07 C351.28,565.4 363.25,570.26 375.31,574.23 C384.64,577.3 394.85,577.68 404.67,579.23 C411.21,580.3 417.77,581.36 424.29,582.56 C425.35,582.75 426.29,583.68 427.48,584.39 C427.21,586.62 426.96,588.67 426.7,590.87 C427.91,592.56 429.13,594.24 430.7,596.44 C426.47,597.86 423.18,599.94 422.22,604.29 C422.1154,604.763823 421.82787,605.177147 421.42,605.44 C414.79,608.44 412.42,615.2 408.72,620.62 C407.155445,623.194269 406.303027,626.138044 406.25,629.15 C405.74,639.72 405.9,639.73 401.09,647.22 L408.92,656.47 L414.86,655.13 C415.8,658.01 416.65,660.64 417.51,663.26 L169.57,663.31 Z M191.52,618.89 L192.75,618.19 C190.23,609.11 189.75,608.11 185.43,604.6 L191.52,618.89 Z M203.07,623.89 C207.15,626.01 207.15,626.01 210.47,623.89 L203.07,623.89 Z M227.34,225.28 L229.17,226.48 L231.81,221.14 L230.45,220.41 L227.34,225.28 Z M219.91,219.88 C216.52,220.36 216.52,220.36 215.27,223.68 L219.91,219.88 Z M168.35,376.4 L169.56,376.59 L169.98,373.91 L168.76,373.71 C168.63,374.61 168.49,375.5 168.35,376.4 Z M211.8,230.87 L210.52,230.68 L210.52,232.82 L211.31,232.93 L211.8,230.87 Z M195.11,315.81 L194.41,314.89 L192.41,316.42 L193.12,317.35 L195.11,315.81 Z M218.11,622.1 C218,621.95 217.82,621.67 217.79,621.69 C217.493692,621.861424 217.206627,622.04835 216.93,622.25 C217.04,622.4 217.23,622.68 217.26,622.66 C217.559866,622.489125 217.850288,622.302186 218.13,622.1 L218.11,622.1 Z M236.6,202.93 C236.41,202.93 236.05,203.02 236.05,203.07 C236.048743,203.424529 236.072133,203.778716 236.12,204.13 C236.31,204.13 236.67,204.04 236.67,203.98 C236.677879,203.629262 236.661171,203.278403 236.62,202.93 L236.6,202.93 Z M193.54,539.42 L193.99,539.5 L193.85,539.08 L193.54,539.42 Z M189.54,549.59 L189.62,549.11 L189.18,549.26 L189.54,549.59 Z M182.98,449.07 L183.21,448.72 L182.86,448.66 L182.98,449.07 Z" id="Shape" fill="#000000" fill-rule="nonzero"></path>
            <path d="M153.89,663.31 C154.009684,657.802791 155.631376,652.43288 158.58,647.78 C161.32,653.56 159.24,658.54 159.58,663.31 L153.89,663.31 Z" id="Path" fill="#000000" fill-rule="nonzero"></path>
            <path d="M61.27,663.31 L60.15,657.84 L60.95,657.14 C62.4833333,659.2 64.0166667,661.256667 65.55,663.31 L61.27,663.31 Z" id="Path" fill="#000000" fill-rule="nonzero"></path>
            <path d="M-2.04281037e-14,663.31 C3.57719323,661.469711 7.82280677,661.469711 11.4,663.31 L-2.04281037e-14,663.31 Z" id="Path" fill="#000000" fill-rule="nonzero"></path>
            <path d="M51.3,663.31 C52.25,660.75 52.37,660.75 55.57,663.31 L51.3,663.31 Z" id="Path" fill="#000000" fill-rule="nonzero"></path>
            <path d="M668.3,170.28 C668.178177,169.954482 668.081232,169.620189 668.01,169.28 C668.01,169.15 668.2,168.99 668.3,168.84 L668.3,170.28 Z" id="Path" fill="#000000" fill-rule="nonzero"></path>
            <path d="M376.71,273.61 L368.88,272 L360.79,277.78 C361,279.72 361.22,281.78 361.55,284.78 C358.02,285.15 354.86,285.59 351.68,285.78 C347.27,286.06 343.59,286.9 340.84,291.21 C339.26,293.67 335.64,294.83 332.08,297.12 L332.08,291.45 C324.88,289.08 317.99,289.8 310.91,290.75 C304.779834,291.456768 298.592142,291.513751 292.45,290.92 C289.61,290.7 286.72,288.92 284.18,287.38 C279.79,284.65 275.89,280.93 270.13,281.87 L264.71,276 C266.47,267.57 271.77,262.12 279.09,259.32 C286.143123,256.573154 293.503636,254.692731 301.01,253.72 C311.53,252.44 322.34,249.72 332.78,253.04 C342.49,256.14 351.78,258.75 362.35,257.77 C370.16,257.08 375.47,264 376.71,273.61 Z M284.93,261.5 C276.11,262.67 270.26,267.62 269.52,275.73 L284.83,261.39 L284.93,261.5 Z M298.71,264.93 C291.64,265.6 287.27,268.93 283.64,272.84 C279.41,277.42 280.74,283.33 286.64,285.44 C291.44,287.16 296.73,287.59 301.84,288.33 C302.92,288.48 304.17,287.45 306.45,286.5 C298.71,280.88 298.65,273.19 298.71,264.93 Z M330.57,282.34 L331.71,283.64 L340.89,277.93 L336.96,271.13 L330.57,282.34 Z" id="Shape" fill="#000000" fill-rule="nonzero"></path>
            <path d="M351.26,455.54 L353.71,462 L352.82,463.18 C350.17,462.05 347.25,461.29 344.92,459.68 C341.48,457.3 338.39,457.17 334.29,458.12 C327.72,459.66 320.82,460.94 315.03,455.12 C310.91,450.97 311.45,446.8 317.09,444.96 C319.592085,444.259469 322.181966,443.922683 324.78,443.96 C330.22,443.81 335.68,443.91 341.07,443.91 C342.07,445.77 342.71,448.75 344.44,449.67 C346.44,450.72 349.62,450.67 351.85,449.83 C357.188518,447.893354 362.970576,447.528939 368.51,448.78 C373.82,449.83 379.86,450.23 383.98,444.48 C388.84,450.2 394.45,452.86 402.29,451.89 C401.98,447.89 401.71,444.45 401.45,441.13 C407.75,437.13 409.75,437.48 412.57,443.53 L406.66,445.99 C407.01,446.86 407.4,448.36 407.66,448.34 C415.05,447.69 422.66,452.58 430.28,446.94 C430.66,445.74 431.2,443.94 431.95,441.59 C434.5,441.59 437.14,441.12 439.53,441.67 C453.88,444.98 468.3,447.33 483.1,447.05 C486.661121,447.121005 490.201768,447.607634 493.65,448.5 C495.52,448.92 497.21,450.18 499.42,451.27 C496.62,455.01 493.36,455.8 490.1,455.98 C477.34,456.66 466.46,462.16 455.94,468.76 C449.54,472.76 443.066667,476.65 436.52,480.43 C434.76,481.43 432.68,481.89 429.12,483.19 C432.25,473.6 442.44,470.88 444.52,461.56 C436.89,460.45 429.67,460.93 422.44,461.41 C413.71,461.98 404.93,463.16 396.24,462.75 C388.04,462.37 379.92,460.25 371.76,458.92 C365.24,457.78 358.71,456.74 351.26,455.54 Z" id="Path" fill="#000000" fill-rule="nonzero"></path>
            <path d="M288.01,224.08 C294.41,220.95 300.48,218.34 307.39,220.19 C310.09,220.91 312.77,221.75 315.49,222.41 C319.1,223.29 322.75,223.96 326.35,224.86 C334.12,226.8 341.94,228.58 349.57,230.97 C351.78,231.66 353.43,234.17 355.14,235.67 C352.2,243.89 349.4,246 342.14,245.67 C337.26,245.48 332.14,246.01 327.54,244.67 C318.764169,241.965441 310.158679,238.736295 301.77,235 C297.58,233.19 293.63,231.45 288.94,231.42 C286.25,231.42 283.56,230.42 280.86,229.85 L280.91,228.37 L288.55,228.04 C288.37,226.73 288.21,225.53 288.01,224.08 Z" id="Path" fill="#000000" fill-rule="nonzero"></path>
            <path d="M490.21,56.38 L486.21,53.73 C490.64,48.35 498.07,53.43 501.58,47.79 L507.44,51.86 L510.52,42.86 L517.96,39.12 L531.29,50.32 C529.71,50.94 528.5,51.74 527.21,51.87 C523.14,52.31 519.8,53.31 516.58,56.53 C513.296683,59.806037 508.429611,60.9169569 504.05,59.39 C501.21,58.48 498.05,58.67 495.05,58.09 C493.333677,57.6126837 491.660998,56.9904471 490.05,56.23 C490.54,55.89 491.05,55.55 490.36,56.02 C490.84,55.33 490.52,55.85 490.21,56.38 Z M507.26,55.16 C507.32,55.52 507.39,55.88 507.45,56.24 L511.71,56 L511.71,55.13 L507.26,55.16 Z" id="Shape" fill="#000000" fill-rule="nonzero"></path>
            <path d="M555.78,97.57 C548.3,95.57 547.78,88.57 544.89,83.62 C550.89,72.92 550.89,72.92 560.42,74.52 C561.05,79.75 561.72,85.21 562.42,90.66 L560.92,90.51 L555.68,97.69 L555.78,97.57 Z" id="Path" fill="#000000" fill-rule="nonzero"></path>
            <path d="M462.06,56.32 C469.06,54.45 474.87,55.21 480.15,59.18 C475.29,62.61 457.8,63.73 450.78,61.18 C450.78,57.07 455.44,58.84 457.05,56.11 C454.95,52.57 452.05,53.98 449.27,55.11 C446.11,56.37 443.17,58.95 439,56.46 C442.301519,51.3216824 448.459006,48.7900048 454.42,50.12 C458.59,50.95 462.63,50.45 468.17,51.12 L462.06,56.32 Z" id="Path" fill="#000000" fill-rule="nonzero"></path>
            <path d="M539.28,84.33 L531.28,80.03 C525.28,86.79 521.59,77.7 516.28,77.69 C519.52,75.02 522.99,74.86 527.28,75.59 C526.35,74.59 525.57,73.04 524.45,72.72 C522.23,72.07 519.79,72.2 517.45,71.83 C515.237118,71.5693344 513.118415,70.7842484 511.27,69.54 C518.83,68.49 525.44,63.72 534.27,64.91 C534.553329,68.848271 535.033932,72.7698604 535.71,76.66 C536.22,79 537.71,81 539.28,84.33 Z M529.45,71.11 L529.98,70.74 C529.74718,70.4638652 529.493068,70.2064096 529.22,69.97 C529.22,69.97 528.88,70.19 528.71,70.31 C528.95,70.58 529.2,70.84 529.45,71.11 Z" id="Shape" fill="#000000" fill-rule="nonzero"></path>
            <path d="M153.26,427.66 C155.07,430.66 156.26,432.52 157.98,435.41 C158.83,432.98 159.31,431.61 159.8,430.24 C160.13,430.5 160.66,430.7 160.75,431.02 C162.75,438.29 165.27,445.4 165.13,453.17 C165.13,455.66 167.13,458.17 168.51,461.53 C166.76,461.18 164.97,461.37 164.12,460.53 C162.12,458.6 159.62,456.46 158.89,453.95 C156.67,446.29 152.43,439.15 152.67,430.85 C152.813143,429.777461 153.010058,428.712787 153.26,427.66 Z" id="Path" fill="#000000" fill-rule="nonzero"></path>
            <path d="M360.82,377.24 C366.82,372.51 376.82,373.76 386.64,380.58 C386.39,384.17 384.1,385.8 380.78,386.27 C372.71,387.38 366.71,384.64 360.82,377.24 Z" id="Path" fill="#000000" fill-rule="nonzero"></path>
            <path d="M425.5,385.29 C431.95,378.89 446.32,376.71 452.83,380.84 C439.05,389 432.78,390.1 425.5,385.29 Z" id="Path" fill="#000000" fill-rule="nonzero"></path>
            <path d="M141.19,453.67 C136.061377,445.433812 133.422171,435.891 133.59,426.19 C133.59,421.19 133.81,416.25 133.87,411.29 C133.92,406.57 133.87,401.86 135.01,397.02 C135.43,401.16 136.21,405.31 136.22,409.45 C136.22,422.51 136.88,435.45 140.52,448.13 C140.879053,449.988875 141.066508,451.876814 141.08,453.77 L141.19,453.67 Z" id="Path" fill="#000000" fill-rule="nonzero"></path>
            <path d="M510.71,76.19 C504.51,75.46 498.21,75.19 492.14,73.87 C485.78,72.48 479.71,70 473.57,67.6 C478.12,66.34 482.69,64.35 486.73,68.83 C489.23,71.59 492.45,70.72 495.36,70.27 C501.36,69.35 506.36,71.35 511.06,74.37 L510.71,76.19 Z" id="Path" fill="#000000" fill-rule="nonzero"></path>
            <path d="M634.34,134.73 C623.53,137.67 614.98,134.73 611.72,127 C614.78,125.53 617.14,126.65 619.23,128.84 C622.08,131.84 625.23,133.21 629.43,131.6 C631.71,130.74 633.64,131.46 634.34,134.73 Z" id="Path" fill="#000000" fill-rule="nonzero"></path>
            <path d="M499.07,43.47 C492.58,47.82 484.83,46.72 477.79,48.79 C480.62,43.07 489.48,40.81 499.07,43.47 Z" id="Path" fill="#000000" fill-rule="nonzero"></path>
            <path d="M156.64,519.1 C163.09,511.59 164.16,500.54 173.59,492.97 C169.85,504.13 165.54,513 156.64,519.1 Z" id="Path" fill="#000000" fill-rule="nonzero"></path>
            <path d="M171.39,613.54 L174.05,611.44 C175.7,613.66 174.05,615.05 172.44,615.44 C168.3,616.57 166.23,613.44 163.2,610.44 L169.71,608.2 C168.63,605.11 167.62,602.2 166.61,599.27 L167.37,598.6 L173.58,605.52 L170.58,612.91 L171.39,613.54 Z" id="Path" fill="#000000" fill-rule="nonzero"></path>
            <path d="M444.5,396 C445.89,393.81 446.24,392.54 446.84,392.41 C452.220935,391.156953 457.696247,390.350875 463.21,390 C458.43,395.08 452.71,396.88 444.5,396 Z" id="Path" fill="#000000" fill-rule="nonzero"></path>
            <path d="M646.04,154.61 C651.23,155.97 657.58,160.55 660.89,164.96 C655.89,167.25 649.82,163.22 646.04,154.61 Z" id="Path" fill="#000000" fill-rule="nonzero"></path>
            <path d="M179.24,508.8 C181.34,511.39 179.95,513.8 178.88,515.99 C176.63,520.5 172.58,524.33 174.57,530.33 C171.01,522.94 172.71,516 179.24,508.8 Z" id="Path" fill="#000000" fill-rule="nonzero"></path>
            <path d="M181.71,529.25 C183.78,536.6 178.15,541.03 176.02,546.79 C172.65,538.94 179.12,534.83 181.71,529.25 Z" id="Path" fill="#000000" fill-rule="nonzero"></path>
            <path d="M177.34,475.65 C174.89,481.42 174.85,487.7 169.74,492.55 C168.43,489.83 169.74,487.75 170.16,485.69 C170.633313,483.364927 171.22407,481.065315 171.93,478.8 C172.62,476.65 172.98,473.78 177.34,475.65 Z" id="Path" fill="#000000" fill-rule="nonzero"></path>
            <polygon id="Path" fill="#000000" fill-rule="nonzero" points="153.16 416.34 149.08 413.34 149.08 398.86 150.43 398.65 154.75 415.65"></polygon>
            <path d="M542.58,76.78 L542.58,67.88 C544.3,67.88 546.68,67.16 547.77,68.04 C549.68,69.59 549.11,71.86 547.06,73.44 C545.81,74.4 544.54,75.32 542.58,76.78 Z" id="Path" fill="#000000" fill-rule="nonzero"></path>
            <path d="M446,34.72 C448.86,30.47 452.21,28.58 457.53,30.09 C453.32,34.14 451.78,34.75 446,34.72 Z" id="Path" fill="#000000" fill-rule="nonzero"></path>
            <path d="M168.71,477.22 C165.84,473.22 164.11,470.22 165.12,466.22 C169.91,468.18 170.13,468.76 168.71,477.22 Z" id="Path" fill="#000000" fill-rule="nonzero"></path>
            <path d="M216.03,199.46 C216.1992,204.025709 213.944451,208.341291 210.1,210.81 L214.45,198.93 L216.03,199.46 Z" id="Path" fill="#000000" fill-rule="nonzero"></path>
            <path d="M165.29,421 L160.62,419.8 L157.14,408.21 C161.87,412.1 163.52,416.61 165.2,421.1 L165.29,421 Z" id="Path" fill="#000000" fill-rule="nonzero"></path>
            <path d="M438.88,48.44 C443.09,42.91 443.38,42.84 449.78,45.82 L438.88,48.44 Z" id="Path" fill="#000000" fill-rule="nonzero"></path>
            <path d="M182.12,478.18 C180.82,482.18 179.523333,486.18 178.23,490.18 C176.79677,485.759664 178.366012,480.918813 182.12,478.18 Z" id="Path" fill="#000000" fill-rule="nonzero"></path>
            <path d="M524.55,57.23 L532.71,54.49 C530.71,59.48 529.53,59.89 524.55,57.23 Z" id="Path" fill="#000000" fill-rule="nonzero"></path>
            <path d="M511.56,62.76 L522.15,62.76 C517.14,65.14 517.14,65.14 511.56,62.76 Z" id="Path" fill="#000000" fill-rule="nonzero"></path>
            <path d="M437.78,31 C440.43,26.88 442.99,28 446.55,28.71 C443.85,31.36 441.63,32 437.78,31 Z" id="Path" fill="#000000" fill-rule="nonzero"></path>
            <path d="M156.28,353.06 C156.8,357.12 156.21,360.63 151.67,362.24 L156.28,353.06 Z" id="Path" fill="#000000" fill-rule="nonzero"></path>
            <path d="M652.32,150.14 C648.64,149.99 645.5,149.19 645.72,144.27 L652.32,150.14 Z" id="Path" fill="#000000" fill-rule="nonzero"></path>
            <path d="M366.16,440.94 L358.4,440.94 C361.12,437.72 363.57,438.31 366.04,439.01 L366.16,440.94 Z" id="Path" fill="#000000" fill-rule="nonzero"></path>
            <path d="M358.86,26.42 L353.28,28.57 C353.08,27.29 352.7,26.51 352.95,26.08 C354.25,23.75 355.84,22.65 358.86,26.42 Z" id="Path" fill="#000000" fill-rule="nonzero"></path>
            <path d="M149.34,487.77 C148.06,490.95 146.783333,494.123333 145.51,497.29 L144.09,496.74 L147.74,487.29 L149.34,487.77 Z" id="Path" fill="#000000" fill-rule="nonzero"></path>
            <path d="M420.82,37.59 L415.15,40.85 C416.71,36.52 416.71,36.52 420.82,37.59 Z" id="Path" fill="#000000" fill-rule="nonzero"></path>
            <path d="M484.36,32 C481.97,34.93 478.89,36 473.58,35.78 C476.672615,33.3354272 480.518673,32.0416247 484.46,32.12 L484.36,32 Z" id="Path" fill="#000000" fill-rule="nonzero"></path>
            <path d="M431.71,580.48 C433.49,582.62 434.25,583.48 435.22,584.68 C431.71,585.15 431.71,585.15 431.71,580.48 Z" id="Path" fill="#000000" fill-rule="nonzero"></path>
            <path d="M165.4,539.78 L169.3,534.25 C170.06,538.59 168.98,540.06 166.95,540.99 L165.4,539.78 Z" id="Path" fill="#000000" fill-rule="nonzero"></path>
            <path d="M632.3,142.48 L636.17,147 C635.25,147.51 634.83,147.95 634.47,147.91 C632.01,147.63 630.45,146.67 632.3,142.48 Z" id="Path" fill="#000000" fill-rule="nonzero"></path>
            <path d="M412.71,8.22 C410.59,10.83 409.32,12.37 408.06,13.92 C407.33,10.7 408.16,8.79 412.71,8.22 Z" id="Path" fill="#000000" fill-rule="nonzero"></path>
            <polygon id="Path" fill="#000000" fill-rule="nonzero" points="589.52 89.82 594.84 93.89 593.58 95.46 588.49 91.1"></polygon>
            <path d="M287.61,68.08 C287.3,63.44 288.15,62.25 291.89,63.49 L287.61,68.08 Z" id="Path" fill="#000000" fill-rule="nonzero"></path>
            <path d="M194.29,294.19 C194.06,295.73 193.82,297.27 193.59,298.8 L191.76,298.58 C191.97,296.94 192.17,295.29 192.38,293.65 L194.29,294.19 Z" id="Path" fill="#000000" fill-rule="nonzero"></path>
            <path d="M572.91,84.76 C570.99,84.08 569.01,83.44 569.61,80.31 C572.7,80.76 572.44,83.02 572.78,84.88 L572.91,84.76 Z" id="Path" fill="#000000" fill-rule="nonzero"></path>
            <path d="M183.04,498.77 L181.23,503.31 L179.82,502.74 C180.45,501.23 181.07,499.74 181.7,498.23 L183.04,498.77 Z" id="Path" fill="#000000" fill-rule="nonzero"></path>
            <polygon id="Path" fill="#000000" fill-rule="nonzero" points="214.92 180.27 213.15 184.5 212.07 184.12 213.6 179.63"></polygon>
            <path d="M566.71,83.39 L566.71,86.57 L565.52,86.69 C565.32,85.69 565.13,84.61 564.93,83.57 L566.71,83.39 Z" id="Path" fill="#000000" fill-rule="nonzero"></path>
            <path d="M219.95,186.44 L218.23,191.06 L217.23,190.76 C217.66,189.23 218.09,187.69 218.51,186.16 L219.95,186.44 Z" id="Path" fill="#000000" fill-rule="nonzero"></path>
            <path d="M496.71,32.39 L500.94,33.39 C500.83,33.83 500.73,34.27 500.62,34.72 L496.38,33.72 L496.71,32.39 Z" id="Path" fill="#000000" fill-rule="nonzero"></path>
            <polygon id="Path" fill="#000000" fill-rule="nonzero" points="452.81 242.21 455.18 239.45 456.73 241.07 454.04 243.5"></polygon>
            <path d="M245.71,130.1 L243.71,133.1 L242.71,132.5 C243.34,131.4 243.96,130.29 244.58,129.19 L245.71,130.1 Z" id="Path" fill="#000000" fill-rule="nonzero"></path>
            <path d="M162.95,624.22 C162.45,623.56 161.76,623.02 161.84,622.64 C162.025491,622.051842 162.502211,621.601607 163.1,621.45 C163.5,621.45 164.32,622.21 164.29,622.59 C164.26,622.97 163.56,623.53 162.95,624.22 Z" id="Path" fill="#000000" fill-rule="nonzero"></path>
            <polygon id="Path" fill="#000000" fill-rule="nonzero" points="554.51 68.42 556.96 68.55 556.89 69.76 554.44 69.63"></polygon>
            <path d="M159.71,476.66 L160.6,472.45 C162.54,474.7 161.73,475.9 159.6,476.55 L159.71,476.66 Z" id="Path" fill="#000000" fill-rule="nonzero"></path>
            <polygon id="Path" fill="#000000" fill-rule="nonzero" points="471.78 26.17 473.94 24.26 474.87 25.1 472.97 27.53"></polygon>
            <path d="M199.89,271.35 C199.79,270.35 199.69,269.35 199.58,268.29 L200.58,268.08 L201.48,271.08 L199.89,271.35 Z" id="Path" fill="#000000" fill-rule="nonzero"></path>
            <path d="M163.9,593.38 C162.68,591.89 161.46,590.38 160.25,588.92 L161.45,588.13 L163.79,593.48 L163.9,593.38 Z" id="Path" fill="#000000" fill-rule="nonzero"></path>
            <polygon id="Path" fill="#000000" fill-rule="nonzero" points="429.71 24.86 432.17 24.03 432.56 24.84 430.1 26.2"></polygon>
            <path d="M181.21,521.23 L180.7,522.44 L179.28,521.62 C179.57,521.29 179.81,520.8 180.18,520.68 C180.55,520.56 180.86,521 181.21,521.23 Z" id="Path" fill="#000000" fill-rule="nonzero"></path>
            <path d="M140.71,486.68 L140.71,489.41 L140.15,489.52 C140.02,488.63 139.88,487.74 139.75,486.85 L140.71,486.68 Z" id="Path" fill="#000000" fill-rule="nonzero"></path>
            <path d="M392.47,28.31 L391.92,29.25 C391.662,28.9958921 391.424587,28.7216969 391.21,28.43 C391.16,28.35 391.43,27.94 391.5,27.95 C391.832588,28.0434149 392.156997,28.1638144 392.47,28.31 L392.47,28.31 Z" id="Path" fill="#000000" fill-rule="nonzero"></path>
            <polygon id="Path" fill="#000000" fill-rule="nonzero" points="484.46 32.09 487.83 29.91 488.45 31.34 484.36 31.97"></polygon>
            <path d="M387.71,439 L389.49,438.71 L389.73,439.38 L387.94,440.12 C387.89,439.73 387.81,439.35 387.71,439 Z" id="Path" fill="#000000" fill-rule="nonzero"></path>
            <polygon id="Path" fill="#000000" fill-rule="nonzero" points="259.15 117.45 255.04 123.16 255.15 123.27 259.26 117.56"></polygon>
            <path d="M154.28,560.92 C154.06,561.24 153.83,561.55 153.61,561.86 C153.45,561.72 153.14,561.5 153.16,561.47 C153.354812,561.142104 153.571993,560.828027 153.81,560.53 L154.28,560.92 Z" id="Path" fill="#000000" fill-rule="nonzero"></path>
            <path d="M166.82,553.47 C167.028537,553.754378 167.218916,554.051636 167.39,554.36 C167.260513,554.485737 167.119943,554.599532 166.97,554.7 C166.7682,554.413129 166.581286,554.11607 166.41,553.81 C166.41,553.81 166.71,553.59 166.82,553.47 Z" id="Path" fill="#000000" fill-rule="nonzero"></path>
            <path d="M396.57,44 L395.62,44.53 C395.53,44.35 395.33,44.02 395.37,44 C395.663362,43.7923051 395.970765,43.6051902 396.29,43.44 C396.38,43.62 396.47,43.81 396.57,44 Z" id="Path" fill="#000000" fill-rule="nonzero"></path>
            <path d="M297.94,56.4 C297.639036,56.6217869 297.325148,56.8254798 297,57.01 C297,57.01 296.77,56.72 296.64,56.56 C296.944248,56.3349019 297.261461,56.1278784 297.59,55.94 C297.716469,56.0856218 297.83338,56.2392763 297.94,56.4 Z" id="Path" fill="#000000" fill-rule="nonzero"></path>
            <polygon id="Path" fill="#000000" fill-rule="nonzero" points="253.71 141.74 249.3 145.93 249.41 146.02 253.83 141.86"></polygon>
            <path d="M539.24,59.82 L540.13,60.47 C540.025238,60.6315806 539.904643,60.7823247 539.77,60.92 C539.459161,60.7259254 539.158746,60.5156349 538.87,60.29 L539.24,59.82 Z" id="Path" fill="#000000" fill-rule="nonzero"></path>
            <path d="M473.21,17.73 C473.08,17.88 472.87,18.18 472.84,18.16 C472.520968,17.9650157 472.213763,17.7513082 471.92,17.52 C472.05,17.37 472.27,17.08 472.3,17.1 C472.615662,17.2916078 472.919542,17.5019859 473.21,17.73 L473.21,17.73 Z" id="Path" fill="#000000" fill-rule="nonzero"></path>
            <polygon id="Path" fill="#000000" fill-rule="nonzero" points="418.04 14.32 416.53 15.23 417.13 13.64"></polygon>
            <path d="M249.83,119.74 L249.44,120.21 L249.02,119.47 C249.21,119.39 249.41,119.23 249.58,119.26 C249.75,119.29 249.71,119.57 249.83,119.74 Z" id="Path" fill="#000000" fill-rule="nonzero"></path>
            <polygon id="Path" fill="#000000" fill-rule="nonzero" points="304.8 50.52 304.64 50.83 304.91 50.63"></polygon>
            <path d="M237.97,154.66 C237.72,155.66 237.48,156.66 237.23,157.58 L236.3,157.06 L238.07,154.75 L237.97,154.66 Z" id="Path" fill="#000000" fill-rule="nonzero"></path>
            <path d="M46.31,658.08 L46.83,658.39 C46.64,658.67 46.47,658.97 46.26,659.23 C46.0865056,659.141847 45.9194266,659.0416 45.76,658.93 L46.31,658.08 Z" id="Path" fill="#000000" fill-rule="nonzero"></path>
            <path d="M457.37,25.19 L458.05,25.87 C457.87,25.95 457.62,26.16 457.52,26.1 C457.266048,25.9064883 457.034602,25.6851046 456.83,25.44 L457.37,25.19 Z" id="Path" fill="#000000" fill-rule="nonzero"></path>
            <path d="M450.11,24.65 L449.6,24.39 C449.816086,24.1600157 450.05764,23.955366 450.32,23.78 C450.42,23.73 450.65,23.93 450.83,24.02 L450.11,24.65 Z" id="Path" fill="#000000" fill-rule="nonzero"></path>
            <path d="M535,46.75 L534.52,46.32 L535.36,45.89 C535.43,46.09 535.59,46.33 535.54,46.48 C535.49,46.63 535.19,46.66 535,46.75 Z" id="Path" fill="#000000" fill-rule="nonzero"></path>
            <polygon id="Path" fill="#000000" fill-rule="nonzero" points="304.91 50.63 306.23 48.06 307.33 49.39 304.8 50.52"></polygon>
            <path d="M145.86,366.27 L145.44,366.78 L144.96,365.9 C145.17,365.83 145.41,365.65 145.57,365.71 C145.73,365.77 145.77,366.07 145.86,366.27 Z" id="Path" fill="#000000" fill-rule="nonzero"></path>
            <polygon id="Path" fill="#000000" fill-rule="nonzero" points="243.71 167.41 242.65 166 245.12 166.07 245.12 165.96 243.55 167.54"></polygon>
            <path d="M141.08,453.77 C141.38,454.37 141.68,454.97 141.24,454.11 C141.36,455.03 141.24,454.35 141.19,453.67 L141.08,453.77 Z" id="Path" fill="#000000" fill-rule="nonzero"></path>
            <path d="M238.07,154.75 C238.07,154.11 238.18,153.46 238.07,154.36 C238.45,153.53 238.19,154.09 237.94,154.66 L238.07,154.75 Z" id="Path" fill="#000000" fill-rule="nonzero"></path>
            <polygon id="Path" fill="#000000" fill-rule="nonzero" points="168.03 560.75 168.07 561.17 167.71 560.98"></polygon>
            <polygon id="Path" fill="#000000" fill-rule="nonzero" points="153.22 447.19 153.38 447.71 152.93 447.64"></polygon>
            <polygon id="Path" fill="#000000" fill-rule="nonzero" points="466.3 74.83 466.3 75.25 465.95 75.06"></polygon>
            <polygon id="Path" fill="#000000" fill-rule="nonzero" points="162.44 500.57 162.05 500.98 161.92 500.48"></polygon>
            <polygon id="Path" fill="#000000" fill-rule="nonzero" points="506.95 40.59 506.95 40.17 507.3 40.35"></polygon>
            <polygon id="Path" fill="#000000" fill-rule="nonzero" points="183.35 513.19 182.81 513.03 183.18 512.61"></polygon>
            <polygon id="Path" fill="#000000" fill-rule="nonzero" points="387.69 42.06 387.65 41.56 388.08 41.79"></polygon>
            <path d="M259.26,117.56 L259.15,117.45 L259.26,117.56 Z" id="Path" fill="#000000" fill-rule="nonzero"></path>
            <polygon id="Path" fill="#000000" fill-rule="nonzero" points="166.8 529.38 167.06 528.69 166.7 529.27"></polygon>
            <polygon id="Path" fill="#000000" fill-rule="nonzero" points="249.28 145.93 249 146.62 249.39 146.02"></polygon>
            <path d="M443.07,0.7 L443.16,0.81 L443.07,0.7 Z" id="Path" fill="#000000" fill-rule="nonzero"></path>
            <path d="M159.58,476.55 L159.68,476.66 L159.58,476.55 Z" id="Path" fill="#000000" fill-rule="nonzero"></path>
            <path d="M168.24,423.93 C167.77,423.45 167.29,422.93 166.81,422.5 L166.72,422.59 L168.15,424.03 L168.24,423.93 Z" id="Path" fill="#000000" fill-rule="nonzero"></path>
            <polygon id="Path" fill="#000000" fill-rule="nonzero" points="165.2 421.08 166.72 422.59 166.81 422.5 165.29 421"></polygon>
            <path d="M166.71,529.27 L166.81,529.38 L166.71,529.27 Z" id="Path" fill="#000000" fill-rule="nonzero"></path>
            <path d="M265.02,114.62 L265.12,114.73 L265.02,114.62 Z" id="Path" fill="#000000" fill-rule="nonzero"></path>
            <path d="M163.79,593.48 L163.9,593.38 L163.79,593.48 Z" id="Path" fill="#000000" fill-rule="nonzero"></path>
            <path d="M443.16,0.81 L443.07,0.7 L443.16,0.81 Z" id="Path" fill="#000000" fill-rule="nonzero"></path>
            <path d="M255.04,123.16 L255.15,123.27 L255.04,123.16 Z" id="Path" fill="#000000" fill-rule="nonzero"></path>
            <path d="M134.71,394.71 C134.94,403.71 135.88,412.81 135.24,421.77 C134.43,433.12 138.24,443.34 141.11,453.85 C141.43,455.01 141.59,456.22 141.83,457.41" id="Path" stroke="#000000" stroke-width="2" stroke-linecap="round" stroke-linejoin="round"></path>
            <line x1="241.88" y1="203.06" x2="239.39" y2="213.74" id="Path" stroke="#000000" stroke-width="2" stroke-linecap="round" stroke-linejoin="round"></line>
            <path d="M276.44,277.15 C282.97,287.51 293.87,292.27 305.65,289.99 C308.96,289.35 310.65,286.99 312.06,284.28" id="Path" stroke="#000000" stroke-width="2" stroke-linecap="round" stroke-linejoin="round"></path>
            <path d="M181.71,566.42 C176.45,565.71 172.59,568.11 169.62,572.13 C165.8,577.31 160.72,580.84 155.45,584.38 C152.165959,586.462909 148.49653,587.864025 144.66,588.5" id="Path" stroke="#000000" stroke-width="2" stroke-linecap="round" stroke-linejoin="round"></path>
            <path d="M477.36,280.72 C484.25,288.29 493.63,289.72 503.02,290.56 C506.55,290.89 510.68,292.03 513.69,288.56" id="Path" stroke="#000000" stroke-width="2" stroke-linecap="round" stroke-linejoin="round"></path>
            <line x1="431.05" y1="596.34" x2="423.21" y2="594.2" id="Path" stroke="#000000" stroke-width="2" stroke-linecap="round" stroke-linejoin="round"></line>
            <path d="M589.93,156 C587.28,164.61 587.61,165.51 594.93,169.54" id="Path" stroke="#000000" stroke-width="2" stroke-linecap="round" stroke-linejoin="round"></path>
            <line x1="499.44" y1="451.71" x2="486.62" y2="451" id="Path" stroke="#000000" stroke-width="2" stroke-linecap="round" stroke-linejoin="round"></line>
            <path d="M446.71,468.81 C442.05,473.58 436.42,477.09 431.04,480.92" id="Path" stroke="#000000" stroke-width="2" stroke-linecap="round" stroke-linejoin="round"></path>
            <path d="M480.92,59.14 C475.46,59.14 469.98,58.86 464.54,59.22 C459.54,59.55 454.54,60.56 449.54,61.27" id="Path" stroke="#000000" stroke-width="2" stroke-linecap="round" stroke-linejoin="round"></path>
            <path d="M156.03,384 C155.32,385.67 154.6,387.33 153.89,389 C147.69,389.6 147.69,389.6 147.48,381.88" id="Path" stroke="#000000" stroke-width="2" stroke-linecap="round" stroke-linejoin="round"></path>
            <path d="M481.63,80.51 C480.73,77.57 478.17,77.13 475.97,77.79 C473.53,78.53 473.69,81.15 473.79,83.36" id="Path" stroke="#000000" stroke-width="2" stroke-linecap="round" stroke-linejoin="round"></path>
            <path d="M290.71,259.34 C285.71,255.86 281.8,259.9 277.96,261.65 C272.231776,264.25184 267.854549,269.133156 265.89,275.11 C270.96,279.11 273.76,279.8 276.25,275.61 C280.35,268.74 287.62,266.02 292.85,260.77" id="Path" stroke="#000000" stroke-width="2" stroke-linecap="round" stroke-linejoin="round"></path>
            <path d="M453.84,381.17 C449.746801,380.290317 445.481661,380.699016 441.63,382.34 C436.63,384.39 430.81,384.5 425.35,385.45" id="Path" stroke="#000000" stroke-width="2" stroke-linecap="round" stroke-linejoin="round"></path>
            <path d="M280,228.7 C284.89,229.63 289.93,232.02 294.25,227.28" id="Path" stroke="#000000" stroke-width="2" stroke-linecap="round" stroke-linejoin="round"></path>
            <line x1="162.44" y1="377.61" x2="173.13" y2="379.75" id="Path" stroke="#000000" stroke-width="2" stroke-linecap="round" stroke-linejoin="round"></line>
            <path d="M621.99,123.26 C620.09,122.55 618.17,121.88 616.29,121.11 C614.13,120.21 612.01,119.22 609.88,118.27" id="Path" stroke="#000000" stroke-width="2" stroke-linecap="round" stroke-linejoin="round"></path>
            <path d="M562.14,98.32 L557.33,99 C556.6,100.76 555.9,102.43 555.33,103.87 C557.84,108.52 558.13,114.81 564.33,116.87" id="Path" stroke="#000000" stroke-width="2" stroke-linecap="round" stroke-linejoin="round"></path>
            <path d="M173.13,493 C170.28,498.47 167.67,504.08 164.49,509.34 C162.33,512.93 159.35,516.04 156.74,519.34" id="Path" stroke="#000000" stroke-width="2" stroke-linecap="round" stroke-linejoin="round"></path>
            <path d="M199.49,275 C201.6,280.07 200.73,285.42 200.92,290.67" id="Path" stroke="#000000" stroke-width="2" stroke-linecap="round" stroke-linejoin="round"></path>
            <path d="M190.23,490.18 C187.34,490.29 185.64,491.98 184.53,494.46" id="Path" stroke="#000000" stroke-width="2" stroke-linecap="round" stroke-linejoin="round"></path>
            <path d="M230.84,181 C229.18,185.27 227.46,189.53 225.84,193.83 C224.31,197.94 223.14,202.08 226.53,205.94" id="Path" stroke="#000000" stroke-width="2" stroke-linecap="round" stroke-linejoin="round"></path>
            <path d="M160.3,431.05 C161.51,435.05 159.14,438.62 158.57,442.76 C161.11,445.96 163.06,449.53 160.66,454.6 L168.85,460.97" id="Path" stroke="#000000" stroke-width="2" stroke-linecap="round" stroke-linejoin="round"></path>
            <path d="M275.71,105.45 C271.71,107.34 268.16,109.66 266.44,114" id="Path" stroke="#000000" stroke-width="2" stroke-linecap="round" stroke-linejoin="round"></path>
            <line x1="181.71" y1="442.45" x2="185.27" y2="443.16" id="Path" stroke="#000000" stroke-width="2" stroke-linecap="round" stroke-linejoin="round"></line>
            <path d="M522.95,304.23 C519.87,303.75 516.79,303.11 513.69,302.89 C512.54,302.81 511.32,303.75 510.13,304.23" id="Path" stroke="#000000" stroke-width="2" stroke-linecap="round" stroke-linejoin="round"></path>
            <line x1="173.13" y1="339.14" x2="170.28" y2="351.25" id="Path" stroke="#000000" stroke-width="2" stroke-linecap="round" stroke-linejoin="round"></line>
            <path d="M610.59,126.82 C612.800512,127.862555 614.929805,129.069266 616.96,130.43 C620.82,133.43 624.78,135.26 629.85,134.04 C631.37,133.67 633.15,134.42 634.85,134.66" id="Path" stroke="#000000" stroke-width="2" stroke-linecap="round" stroke-linejoin="round"></path>
            <path d="M178.83,510.13 C178.711977,511.103459 178.459575,512.055857 178.08,512.96 C174.67,518.69 172.38,524.68 173.08,531.51" id="Path" stroke="#000000" stroke-width="2" stroke-linecap="round" stroke-linejoin="round"></path>
            <path d="M157.45,407.54 C159.82,413.78 162.99,419.68 168.23,423.81 C172.77,427.37 175.8,433.2 182.39,433.9" id="Path" stroke="#000000" stroke-width="2" stroke-linecap="round" stroke-linejoin="round"></path>
            <path d="M497.31,44.17 C490.02,43.07 483.48,46.23 476.64,47.74" id="Path" stroke="#000000" stroke-width="2" stroke-linecap="round" stroke-linejoin="round"></path>
            <path d="M431.05,37.05 C427.350423,38.1578441 424.057559,40.3275873 421.58,43.29 C418.68,46.67 414.35,48.99 410.33,51.21 C406.73,53.21 404.13,55.51 403.78,60.47 L409.71,63.41" id="Path" stroke="#000000" stroke-width="2" stroke-linecap="round" stroke-linejoin="round"></path>
            <path d="M188.09,602 L182.96,605.39 C184.24,610.17 188.44,613.8 187.38,619.1" id="Path" stroke="#000000" stroke-width="2" stroke-linecap="round" stroke-linejoin="round"></path>
            <path d="M225.85,212.32 C218.85,213.64 213.75,218.04 213.22,224.45 C213.01,227.05 210.82,226.94 210.02,228.63 C208.7,231.37 206.83,233.63 209.47,236.54" id="Path" stroke="#000000" stroke-width="2" stroke-linecap="round" stroke-linejoin="round"></path>
            <path d="M227.28,256.49 C227.87,259.86 226.28,262.49 224.43,265.04" id="Path" stroke="#000000" stroke-width="2" stroke-linecap="round" stroke-linejoin="round"></path>
            <line x1="456.71" y1="49.87" x2="438.17" y2="57" id="Path" stroke="#000000" stroke-width="2" stroke-linecap="round" stroke-linejoin="round"></line>
            <path d="M163.87,379 C164.38,382.8 165.18,386.33 164.16,390.47 C163.08,394.9 164.34,399.9 164.58,404.65" id="Path" stroke="#000000" stroke-width="2" stroke-linecap="round" stroke-linejoin="round"></path>
            <path d="M582.09,94.76 C587.74,98.54 590.53,105.44 597,108.42 C597.64,108.71 597.53,110.67 597.76,111.86" id="Path" stroke="#000000" stroke-width="2" stroke-linecap="round" stroke-linejoin="round"></path>
            <path d="M525.8,71.25 L531.71,75.19 C535.64,72.19 531.87,69.59 532.23,66.87 C525.03,67.1 518.36,72.36 510.84,69.11" id="Path" stroke="#000000" stroke-width="2" stroke-linecap="round" stroke-linejoin="round"></path>
            <path d="M442.44,39.9 C435.75,42.9 428.77,45.27 423.82,51.21 C423.12,52.06 421.07,51.77 419.65,52.01" id="Path" stroke="#000000" stroke-width="2" stroke-linecap="round" stroke-linejoin="round"></path>
            <path d="M463.11,389.72 C458.44,393.99 452.03,392.55 446.72,394.72" id="Path" stroke="#000000" stroke-width="2" stroke-linecap="round" stroke-linejoin="round"></path>
            <path d="M175.27,476.65 C173.84,480.45 172.44,484.25 170.98,488.04 C170.33,489.73 169.57,491.37 168.85,493.04" id="Path" stroke="#000000" stroke-width="2" stroke-linecap="round" stroke-linejoin="round"></path>
            <path d="M193.79,309.93 C187.19,316.74 187.09,317.79 192.37,325.6" id="Path" stroke="#000000" stroke-width="2" stroke-linecap="round" stroke-linejoin="round"></path>
            <line x1="576.71" y1="97.61" x2="576.35" y2="100.46" id="Path" stroke="#000000" stroke-width="2" stroke-linecap="round" stroke-linejoin="round"></line>
            <line x1="171.71" y1="577.11" x2="177.41" y2="598.48" id="Path" stroke="#000000" stroke-width="2" stroke-linecap="round" stroke-linejoin="round"></line>
            <path d="M183.1,477.36 C177.93,480.8 178.69,486.61 177.4,491.61" id="Path" stroke="#000000" stroke-width="2" stroke-linecap="round" stroke-linejoin="round"></path>
            <path d="M376.9,33.49 L385.71,30 C383.27,28 381.77,25.8 380.44,25.9 C376.44,26.18 376.07,29.54 376.15,32.82" id="Path" stroke="#000000" stroke-width="2" stroke-linecap="round" stroke-linejoin="round"></path>
            <path d="M149.62,397.56 C148.37,402.61 151.62,406.97 151.75,411.81" id="Path" stroke="#000000" stroke-width="2" stroke-linecap="round" stroke-linejoin="round"></path>
            <path d="M215.17,198.07 C215.47,203.51 212.24,207.71 210.17,212.32" id="Path" stroke="#000000" stroke-width="2" stroke-linecap="round" stroke-linejoin="round"></path>
            <path d="M646.21,153.89 C650.12,159.51 654.77,164.09 661.89,165.29" id="Path" stroke="#000000" stroke-width="2" stroke-linecap="round" stroke-linejoin="round"></path>
            <line x1="487.33" y1="30.64" x2="473.79" y2="35.64" id="Path" stroke="#000000" stroke-width="2" stroke-linecap="round" stroke-linejoin="round"></line>
            <line x1="394" y1="15.67" x2="382.6" y2="25.67" id="Path" stroke="#000000" stroke-width="2" stroke-linecap="round" stroke-linejoin="round"></line>
            <line x1="233.71" y1="260.05" x2="223.71" y2="272.88" id="Path" stroke="#000000" stroke-width="2" stroke-linecap="round" stroke-linejoin="round"></line>
            <path d="M458.12,77.66 C453.901632,76.3101306 449.333665,76.5629175 445.29,78.37" id="Path" stroke="#000000" stroke-width="2" stroke-linecap="round" stroke-linejoin="round"></path>
            <line x1="148.9" y1="485.91" x2="144.63" y2="498.73" id="Path" stroke="#000000" stroke-width="2" stroke-linecap="round" stroke-linejoin="round"></line>
            <path d="M450.99,45.6 C446.39,45.07 441.81,44.6 438.17,48.45" id="Path" stroke="#000000" stroke-width="2" stroke-linecap="round" stroke-linejoin="round"></path>
            <line x1="523.71" y1="64.12" x2="510.84" y2="64.12" id="Path" stroke="#000000" stroke-width="2" stroke-linecap="round" stroke-linejoin="round"></line>
            <path d="M484.48,69.82 C488.24,73.63 493.01,71.36 497.31,71.94 C498.47,72.09 499.75,71.7 500.85,72.01 C504.69,73.07 508.47,74.33 512.27,75.52" id="Path" stroke="#000000" stroke-width="2" stroke-linecap="round" stroke-linejoin="round"></path>
            <path d="M514.4,51.3 L516.4,56.14 C512.11,57.07 507.79,61 503.02,56.29" id="Path" stroke="#000000" stroke-width="2" stroke-linecap="round" stroke-linejoin="round"></path>
            <path d="M517.97,41.32 C518.3,42.97 518.62,44.61 519.04,46.67 C522.56,49.9 527.34,50.07 532.22,49.87" id="Path" stroke="#000000" stroke-width="2" stroke-linecap="round" stroke-linejoin="round"></path>
            <polyline id="Path" stroke="#000000" stroke-width="2" stroke-linecap="round" stroke-linejoin="round" points="526.52 79.8 522.24 77 515.12 77"></polyline>
            <path d="M624.84,145.35 C620.84,142.43 617.17,144.64 613.44,146.06" id="Path" stroke="#000000" stroke-width="2" stroke-linecap="round" stroke-linejoin="round"></path>
            <path d="M174.55,609.88 C174.55,612.26 174.67,614.76 171.7,615.55 C169.36,616.17 168.3,614.55 167.43,612.73" id="Path" stroke="#000000" stroke-width="2" stroke-linecap="round" stroke-linejoin="round"></path>
            <line x1="239.39" y1="207.33" x2="231.55" y2="207.33" id="Path" stroke="#000000" stroke-width="2" stroke-linecap="round" stroke-linejoin="round"></line>
            <line x1="273.59" y1="99" x2="262.9" y2="108.27" id="Path" stroke="#000000" stroke-width="2" stroke-linecap="round" stroke-linejoin="round"></line>
            <line x1="553.59" y1="357" x2="543.59" y2="354.86" id="Path" stroke="#000000" stroke-width="2" stroke-linecap="round" stroke-linejoin="round"></line>
            <line x1="483.77" y1="68.4" x2="472.37" y2="67.69" id="Path" stroke="#000000" stroke-width="2" stroke-linecap="round" stroke-linejoin="round"></line>
            <path d="M182.39,529.37 C180.58,533.3 178.76,537.23 177.18,540.65 L175.27,546.47" id="Path" stroke="#000000" stroke-width="2" stroke-linecap="round" stroke-linejoin="round"></path>
            <path d="M458.12,30.64 C454.12,31.03 450.12,31.33 447.43,34.91" id="Path" stroke="#000000" stroke-width="2" stroke-linecap="round" stroke-linejoin="round"></path>
            <path d="M259.34,147.48 C254.8,146.05 253.68,149.48 252.2,152.48 C251.771015,153.222741 251.300259,153.94056 250.79,154.63" id="Path" stroke="#000000" stroke-width="2" stroke-linecap="round" stroke-linejoin="round"></path>
            <path d="M517.25,96.9 C517.58,93.34 517.9,89.79 518.25,86.32 C514.88,84.26 511.87,81.63 508.02,84.78" id="Path" stroke="#000000" stroke-width="2" stroke-linecap="round" stroke-linejoin="round"></path>
            <path d="M230.13,287.84 C227.75,290.45 227.59,295.07 223,295.68" id="Path" stroke="#000000" stroke-width="2" stroke-linecap="round" stroke-linejoin="round"></path>
            <line x1="157.45" y1="352" x2="152.45" y2="362.69" id="Path" stroke="#000000" stroke-width="2" stroke-linecap="round" stroke-linejoin="round"></line>
            <line x1="321.32" y1="280.72" x2="322.04" y2="289.27" id="Path" stroke="#000000" stroke-width="2" stroke-linecap="round" stroke-linejoin="round"></line>
            <path d="M180.25,330.59 C177.91,334.59 181.92,337.19 182.39,340.59" id="Path" stroke="#000000" stroke-width="2" stroke-linecap="round" stroke-linejoin="round"></path>
            <path d="M411.1,443.16 L405.8,440.47 C402.46,445.02 404.08,448.73 406.11,452.42" id="Path" stroke="#000000" stroke-width="2" stroke-linecap="round" stroke-linejoin="round"></path>
            <line x1="212.32" y1="618.43" x2="215.17" y2="628.43" id="Path" stroke="#000000" stroke-width="2" stroke-linecap="round" stroke-linejoin="round"></line>
            <path d="M645.5,143.92 C646,148.62 649.84,149.64 653.34,151.04" id="Path" stroke="#000000" stroke-width="2" stroke-linecap="round" stroke-linejoin="round"></path>
            <path d="M153.18,427.49 C153.732981,430.371854 154.484778,433.211975 155.43,435.99 C156,437.42 157.69,438.41 158.88,439.6" id="Path" stroke="#000000" stroke-width="2" stroke-linecap="round" stroke-linejoin="round"></path>
            <line x1="227.28" y1="282.85" x2="217.28" y2="285.7" id="Path" stroke="#000000" stroke-width="2" stroke-linecap="round" stroke-linejoin="round"></line>
            <path d="M255.06,138.93 C252.933333,142.016667 250.796667,145.103333 248.65,148.19" id="Path" stroke="#000000" stroke-width="2" stroke-linecap="round" stroke-linejoin="round"></path>
            <line x1="10.71" y1="662.6" x2="0.71" y2="662.6" id="Path" stroke="#000000" stroke-width="2" stroke-linecap="round" stroke-linejoin="round"></line>
            <line x1="429.62" y1="61.27" x2="420.36" y2="64.84" id="Path" stroke="#000000" stroke-width="2" stroke-linecap="round" stroke-linejoin="round"></line>
            <path d="M532.93,54.86 C530.72,58.68 527.02,57.62 523.67,57.71" id="Path" stroke="#000000" stroke-width="2" stroke-linecap="round" stroke-linejoin="round"></path>
            <path d="M580.71,93.69 C576.12,91.06 571.71,95.3 567.11,93.85 C566.37,95.68 565.7,97.36 565.03,99.03" id="Path" stroke="#000000" stroke-width="2" stroke-linecap="round" stroke-linejoin="round"></path>
            <path d="M521.53,525.81 C522,528.66 522.48,531.51 522.95,534.36" id="Path" stroke="#000000" stroke-width="2" stroke-linecap="round" stroke-linejoin="round"></path>
            <line x1="468.09" y1="52" x2="458.83" y2="54.14" id="Path" stroke="#000000" stroke-width="2" stroke-linecap="round" stroke-linejoin="round"></line>
            <line x1="479.49" y1="138.93" x2="470.94" y2="140.36" id="Path" stroke="#000000" stroke-width="2" stroke-linecap="round" stroke-linejoin="round"></line>
            <path d="M179.54,631.25 C180.02,634.1 180.49,636.95 180.97,639.8" id="Path" stroke="#000000" stroke-width="2" stroke-linecap="round" stroke-linejoin="round"></path>
            <line x1="261.48" y1="116.85" x2="254.35" y2="124" id="Path" stroke="#000000" stroke-width="2" stroke-linecap="round" stroke-linejoin="round"></line>
            <path d="M158.17,384.74 C160.17,387.44 158.3,390.46 158.88,393.29" id="Path" stroke="#000000" stroke-width="2" stroke-linecap="round" stroke-linejoin="round"></path>
            <path d="M186.71,431.05 C183.49022,432.769368 181.308048,435.947506 180.86,439.57 C179.86,445.04 177.73,450.25 179.43,456.03 C179.76,457.15 178.16,458.84 176.71,459.64 C175.12,456.16 174.77,453.64 178.16,452.42" id="Path" stroke="#000000" stroke-width="2" stroke-linecap="round" stroke-linejoin="round"></path>
            <path d="M528.65,81.93 C527.82,79.17 528.06,78.53 530.79,76.24 L538.63,83.36" id="Path" stroke="#000000" stroke-width="2" stroke-linecap="round" stroke-linejoin="round"></path>
            <path d="M414.71,447.43 C414.23,450.05 413.76,452.66 413.28,455.27" id="Path" stroke="#000000" stroke-width="2" stroke-linecap="round" stroke-linejoin="round"></path>
            <path d="M337,290.69 C336.53,286.9 336.53,286.85 332.72,287.14 C329.65,287.37 326.72,287.33 324.89,284.28" id="Path" stroke="#000000" stroke-width="2" stroke-linecap="round" stroke-linejoin="round"></path>
            <line x1="238.71" y1="151" x2="235.86" y2="158.13" id="Path" stroke="#000000" stroke-width="2" stroke-linecap="round" stroke-linejoin="round"></line>
            <line x1="523.71" y1="86.92" x2="530.12" y2="93.33" id="Path" stroke="#000000" stroke-width="2" stroke-linecap="round" stroke-linejoin="round"></line>
            <polyline id="Path" stroke="#000000" stroke-width="2" stroke-linecap="round" stroke-linejoin="round" points="171.71 605.6 169.64 611.86 163.16 611.3"></polyline>
            <path d="M59.13,656.9 C60.0293605,658.128066 60.9906023,659.309592 62.01,660.44 C62.8931912,661.231283 63.8359755,661.953416 64.83,662.6" id="Path" stroke="#000000" stroke-width="2" stroke-linecap="round" stroke-linejoin="round"></path>
            <line x1="140.36" y1="484.48" x2="140.36" y2="491.61" id="Path" stroke="#000000" stroke-width="2" stroke-linecap="round" stroke-linejoin="round"></line>
            <line x1="160.3" y1="587.08" x2="164.58" y2="594.2" id="Path" stroke="#000000" stroke-width="2" stroke-linecap="round" stroke-linejoin="round"></line>
            <line x1="183.1" y1="497.31" x2="180.25" y2="504.43" id="Path" stroke="#000000" stroke-width="2" stroke-linecap="round" stroke-linejoin="round"></line>
            <line x1="495.17" y1="32.77" x2="502.29" y2="34.2" id="Path" stroke="#000000" stroke-width="2" stroke-linecap="round" stroke-linejoin="round"></line>
            <path d="M164.58,466.67 C165.53,467.62 166.97,468.42 167.33,469.55 C168.004497,472.117845 168.512223,474.726622 168.85,477.36" id="Path" stroke="#000000" stroke-width="2" stroke-linecap="round" stroke-linejoin="round"></path>
            <line x1="412.52" y1="8.55" x2="407.52" y2="13.55" id="Path" stroke="#000000" stroke-width="2" stroke-linecap="round" stroke-linejoin="round"></line>
            <line x1="172.42" y1="396.85" x2="171.71" y2="407.54" id="Path" stroke="#000000" stroke-width="2" stroke-linecap="round" stroke-linejoin="round"></line>
            <path d="M609.16,119.7 C609.64,122.47 608.28,124.42 606.31,126.11" id="Path" stroke="#000000" stroke-width="2" stroke-linecap="round" stroke-linejoin="round"></path>
            <line x1="587.79" y1="89.77" x2="594.2" y2="94.77" id="Path" stroke="#000000" stroke-width="2" stroke-linecap="round" stroke-linejoin="round"></line>
            <path d="M158.88,651.2 C156.76,654.74 156.96,658.71 156.74,662.6" id="Path" stroke="#000000" stroke-width="2" stroke-linecap="round" stroke-linejoin="round"></path>
            <line x1="214.45" y1="178.12" x2="212.32" y2="184.53" id="Path" stroke="#000000" stroke-width="2" stroke-linecap="round" stroke-linejoin="round"></line>
            <line x1="219.44" y1="186" x2="217.3" y2="192.41" id="Path" stroke="#000000" stroke-width="2" stroke-linecap="round" stroke-linejoin="round"></line>
            <path d="M294.25,68.4 C296.49,67.27 298.67,66.04 301.4,66.88 C301.92,67.04 302.8,66.02 303.51,65.55" id="Path" stroke="#000000" stroke-width="2" stroke-linecap="round" stroke-linejoin="round"></path>
            <line x1="456.71" y1="239.39" x2="452.44" y2="243.67" id="Path" stroke="#000000" stroke-width="2" stroke-linecap="round" stroke-linejoin="round"></line>
            <path d="M507.99,49.16 C512.37,52.5 515.54,49.84 518.68,47.02" id="Path" stroke="#000000" stroke-width="2" stroke-linecap="round" stroke-linejoin="round"></path>
            <line x1="376.9" y1="37.05" x2="382.6" y2="38.47" id="Path" stroke="#000000" stroke-width="2" stroke-linecap="round" stroke-linejoin="round"></line>
            <line x1="245.8" y1="128.25" x2="242.95" y2="133.95" id="Path" stroke="#000000" stroke-width="2" stroke-linecap="round" stroke-linejoin="round"></line>
            <line x1="433.9" y1="24.22" x2="428.2" y2="25.65" id="Path" stroke="#000000" stroke-width="2" stroke-linecap="round" stroke-linejoin="round"></line>
            <line x1="193.08" y1="292.12" x2="193.08" y2="297.12" id="Path" stroke="#000000" stroke-width="2" stroke-linecap="round" stroke-linejoin="round"></line>
            <line x1="166.71" y1="599.19" x2="170.98" y2="604.19" id="Path" stroke="#000000" stroke-width="2" stroke-linecap="round" stroke-linejoin="round"></line>
            <line x1="200.2" y1="266.47" x2="200.92" y2="271.47" id="Path" stroke="#000000" stroke-width="2" stroke-linecap="round" stroke-linejoin="round"></line>
            <line x1="245.09" y1="166" x2="241.53" y2="166.71" id="Path" stroke="#000000" stroke-width="2" stroke-linecap="round" stroke-linejoin="round"></line>
            <path d="M308.5,48.45 C307.31,49.16 306.12,49.87 304.94,50.59" id="Path" stroke="#000000" stroke-width="2" stroke-linecap="round" stroke-linejoin="round"></path>
            <line x1="443.87" y1="0" x2="441.02" y2="1.42" id="Path" stroke="#000000" stroke-width="2" stroke-linecap="round" stroke-linejoin="round"></line>
            <line x1="455.27" y1="52" x2="460.27" y2="57.7" id="Path" stroke="#000000" stroke-width="2" stroke-linecap="round" stroke-linejoin="round"></line>
            <line x1="167.43" y1="527.23" x2="166" y2="530.08" id="Path" stroke="#000000" stroke-width="2" stroke-linecap="round" stroke-linejoin="round"></line>
            <line x1="466.71" y1="74.1" x2="465.28" y2="75.52" id="Path" stroke="#000000" stroke-width="2" stroke-linecap="round" stroke-linejoin="round"></line>
            <line x1="386.87" y1="41.32" x2="388.3" y2="42.75" id="Path" stroke="#000000" stroke-width="2" stroke-linecap="round" stroke-linejoin="round"></line>
            <line x1="507.99" y1="39.9" x2="506.57" y2="41.32" id="Path" stroke="#000000" stroke-width="2" stroke-linecap="round" stroke-linejoin="round"></line>
            <line x1="475.22" y1="24.22" x2="470.94" y2="27.07" id="Path" stroke="#000000" stroke-width="2" stroke-linecap="round" stroke-linejoin="round"></line>
            <line x1="163.15" y1="500.16" x2="161.71" y2="501.58" id="Path" stroke="#000000" stroke-width="2" stroke-linecap="round" stroke-linejoin="round"></line>
            <line x1="167.43" y1="560" x2="168.85" y2="561.42" id="Path" stroke="#000000" stroke-width="2" stroke-linecap="round" stroke-linejoin="round"></line>
        </g>
    </g>
</svg>