<svg xmlns="http://www.w3.org/2000/svg" viewBox="0 0 726.26 756.48"><defs><style>.cls-1{fill:none;stroke:#000;stroke-linecap:round;stroke-linejoin:round;stroke-width:2px;}</style></defs><g id="Layer_2" data-name="Layer 2"><g id="Layer_1-2" data-name="Layer 1"><path d="M462.32,755.77a3.89,3.89,0,0,1,1-.41c5.48-.45,11-.82,16.45-1.3,5.28-.47,10.55-1.08,15.83-1.58,2.88-.27,5.78-.41,8.66-.69,3.15-.3,6.28-.77,9.44-1,3.52-.31,7.07-.44,10.6-.7q7.35-.56,14.71-1.24c.41,0,.79-.49,1-.61,2.53,0,4.93.13,7.31,0,3.64-.23,7.27-.66,10.91-1l10.35-1c2.31-.22,4.61-.46,6.92-.64,3.37-.25,6.75-.39,10.11-.68s6.9-.75,10.35-1.09c2.1-.21,4.22-.31,6.33-.48l8.94-.75,19.32-1.66c.3-.79.49-1.43.78-2,.73-1.46,1.5-2.85,3.22-3.47.59-.21,1-1,1.42-1.5,1.41,1.92,4.45.67,6.5,2.39a42.93,42.93,0,0,1,1.29,4.92,6,6,0,0,1-6.31,6.66c-.88,0-2-.55-2.54.33l-2.67-2.41L630.85,743,597,745.82l-1.12,2.23-.09-1.89c-4.63.32-9,.58-13.29.94-5.87.49-11.73,1.07-17.59,1.59-4.91.43-9.83.8-14.73,1.27-.48,0-.9.65-1,.7-2.48,0-4.59-.21-6.68-.06-3,.2-5.94.71-8.92,1-5.87.47-11.75.85-17.62,1.29-.56,0-1.12.18-1.89.31v2.61h-.58v-2.3c-1.57,0-2.91-.09-4.23,0-3.64.3-7.27.72-10.9,1-3.16.27-6.33.46-9.5.73-.33,0-.63.33-1,.51Z"/><path d="M165.82,0c-.92,2.21-1.78,4.45-2.77,6.63-2.8,6.15-5.61,12.3-8.48,18.42s-5.91,12.37-8.81,18.58c-3.31,7.08-6.54,14.2-9.84,21.29s-6.65,14.15-10,21.23Q120.35,98.07,114.8,110c-.17.35-.27.73-.44,1.2l3.45,4.18c-.52,1-1.62,2.24-.26,3.37a14.72,14.72,0,0,0-1.48,1.58,6.64,6.64,0,0,1-12-2,6.47,6.47,0,0,1,5.57-7.92c.86-.08,1.73-.09,2.69-.14.8-1.66,1.62-3.29,2.39-4.94q6.55-14,13.08-28c3.26-7,6.47-14,9.74-21,3.34-7.18,6.73-14.33,10.08-21.5q7.48-16,14.91-32.07c.4-.86.68-1.78,1-2.68Z"/><path d="M726.26,568.57a36.31,36.31,0,0,0-3.76,0c-5.38.5-10.74,1.09-16.12,1.61-2.59.25-5.19.44-7.79.62-3.27.24-6.56.39-9.83.67-2.88.25-5.75.65-8.62,1-2.5.26-5,.51-7.5.71-8.18.64-16.37,1.2-24.55,1.88-8.65.72-17.29,1.55-25.94,2.32-2.41.22-4.82.34-7.22.6a30.18,30.18,0,0,0-3.26.72c.28.82.48,1.39.62,1.79l-5.19,4.25-.24,1.33-1-2c-.41,1-.65,1.57-.85,2.07l-.22-1-5.25-3.21c-1-5.87-.07-9.09,3.3-10.17,3.21-1,6.34-.89,9.3,4.32,2.25-.14,4.55-.25,6.84-.43,7.12-.58,14.24-1.13,21.36-1.79s14.2-1.45,21.31-2.11c3.47-.33,7-.44,10.41-.74,5.48-.48,11-1,16.42-1.55,2.79-.25,5.58-.47,8.37-.71,6.15-.55,12.3-1.13,18.45-1.64,3.66-.31,7.32-.52,11-.77Z"/><path d="M435.58,755.77c-.77-1.26,1.07-1.38,1-2.67L407,710.85a7,7,0,0,1-7.69-1.41c-2.15-2-2.1-4.6-1.57-7.51,1.62-2.27,3.85-4.07,7.36-3.7l.5-1.4.3,1.43,3.57,2.49c1.34,3.18,1.64,6-.72,8.79l29.68,42.39c5.64-.66,7.54.2,8.73,3.84Z"/><path d="M294.89,755.77c-.91-1.36-1.78-2.75-2.72-4.09q-4.31-6.18-8.67-12.33c-4.35-6.15-8.73-12.28-13.06-18.44q-6.84-9.72-13.58-19.51a20.22,20.22,0,0,1-1.53-3.49A2.12,2.12,0,0,1,258,699q3.26,4.62,6.49,9.25,7.57,10.8,15.16,21.6,8,11.4,15.91,22.85a34.54,34.54,0,0,1,1.7,3Z"/><path d="M287.8,108.67c.25,1.86-.85,3.31-1.53,4.88-.58,1.32-1.27,2.59-1.92,3.91l.9,1.55-1.44-.35c-2.38,5.12-4.82,10.26-7.17,15.44-1.79,4-3.38,8-5.21,11.91-1.42,3.05-3.12,6-4.6,9-1.07,2.17-2,4.39-2.95,6.62a3.55,3.55,0,0,0,0,1.41,7,7,0,0,0-1.52,1.55c-1.31,2.58-2.51,5.22-3.73,7.85q-4.81,10.4-9.6,20.78c-2.56,5.52-5.19,11-7.67,16.57-.92,2.06-2,4-2.93,6.08s-2,4.19-2.94,6.3q-6.5,14-13,28.07c-3.46,7.44-7,14.86-10.44,22.29q-7.72,16.51-15.42,33c-.32.69-.53,1.42-.88,2.35,6,3.32,9.7,8.26,10.71,15.14l2.57.48-2.44.36c-.2,3.21-.37,6.45-1.72,9.51a23.71,23.71,0,0,1-6.16,7.76c2.7,3.9,5.33,7.71,8,11.51l21.57,30.88c1.11,1.59,2.3,3.11,3.34,4.74a4.8,4.8,0,0,0,3.74,2.58l-1.41.63c1.95,2.82,3.83,5.59,5.75,8.33,3.11,4.43,6.26,8.84,9.37,13.27,4,5.78,8,11.59,12.13,17.34a19.61,19.61,0,0,0,2.6,2.52c0,1.87,1.33,3.44,2.51,4.86,2.29,2.77,3.6,6.34,6.7,8.45.25,1.91,1.6,3.19,2.63,4.67,4.2,6,8.34,12.09,12.53,18.11,3.95,5.69,7.87,11.41,11.93,17,6.16,8.52,12,17.24,18.09,25.83,5.17,7.33,10.27,14.71,15.41,22.06,3.92,5.63,7.83,11.27,11.78,16.88,4.66,6.62,9.36,13.22,14,19.83,1.78,2.53,3.51,5.1,5.25,7.66a5.07,5.07,0,0,1,.4,1.05l-.91.8c-.46-.28-1.06-.44-1.34-.84-2.44-3.37-4.81-6.79-7.22-10.18q-4.61-6.5-9.24-13-2.08-3-4.14-5.92c-7.09-10.25-14.1-20.55-21.33-30.71-1.89-2.65-3.39-5.6-5.93-7.83-1.15-1-1.55-2.84-2.47-4.17q-5.08-7.41-10.31-14.72c-1.09-1.52-2-3.26-3.87-4.43.34-.84-.32-1.61-.95-2.42-3.33-4.23-5.71-9.17-9.61-13-4.24-7.68-9.83-14.46-14.7-21.72-4.25-6.32-8.72-12.5-13.13-18.72-.78-1.1-1.78-2-2.57-3.13s-1.18-2.12-1.87-3.12q-6.34-9.18-12.74-18.33Q233.68,395,224.6,382.14c-5.47-7.84-10.9-15.71-16.37-23.55-3.76-5.37-7.57-10.71-11.41-16.13-6.31,2.91-12.69,3.42-18.79.13a19.61,19.61,0,0,1-10.4-15.28h-4.18V327l4.09-.34c.06-6.76,2.31-12.51,7.77-16.66s11.56-5,18.16-3.07c1-2,1.92-3.77,2.77-5.6q5.57-12,11.09-23.94c.4-.86,1.48-1.74.46-2.54a10.36,10.36,0,0,0,1.5-1.83c2.16-4.43,4.26-8.89,6.36-13.36,2.25-4.81,4.46-9.64,6.71-14.46,2.9-6.21,5.85-12.4,8.7-18.64,2-4.45,3.86-9,5.94-13.42,3.43-7.34,7-14.61,10.49-21.93,3.72-7.87,7.35-15.77,11-23.65,3.12-6.64,6.3-13.25,9.39-19.91,4.55-9.79,9-19.61,13.57-29.41q2.07-4.49,4.21-8.91a8.72,8.72,0,0,1,1.17-1.49ZM177.3,325.27c-.31,5.5,4.52,10.1,9.56,10.21,5.38.12,10.42-4.63,10.33-10a9.88,9.88,0,0,0-9.88-10C182.18,315.37,177,319.73,177.3,325.27Z"/><path d="M474.5,717.57v4.21c-.51,1.52-1.66,2.81-1.68,4.48-.82.66-1.72,1.33-2.56,2.07a10.51,10.51,0,0,1-9.94,2.36,3.56,3.56,0,0,1-1.8-.81,3,3,0,0,0-3.15-.78c-1.1-1.65-2.11-3.26-3.21-4.81s-.17-3.79-2.12-4.87c2.15-.75,1-3,1.92-4.32s1.68-2.81,2.59-4.36c-.22-.88-1.77-1.93.15-3.12l1.89,1.68,8.6-2c2.91,2.5,6.78,3.73,8.08,7.8,2.1-.16,4.21-.32,6.31-.5,2.25-.18,4.49-.4,6.74-.58,5.1-.41,10.21-.75,15.31-1.23,4.79-.46,9.57-1.12,14.36-1.57,3.55-.33,7.12-.44,10.68-.73,6.35-.52,12.7-1.1,19-1.65,4.72-.42,9.43-.86,14.14-1.22,1.14-.09,2.12-.22,2.69-1.44l.57,1.09,11.55-.92a15.44,15.44,0,0,1,1.42-2.43,4.79,4.79,0,0,1,6.74-.91,4.7,4.7,0,0,1,1.34,6.42c-1.34,2.39-5.13,3-7.39,1.19a15,15,0,0,1-1.68-1.92c-.68,0-1.54-.07-2.39,0-7.88.7-15.75,1.46-23.63,2.14-5.49.48-11,.82-16.47,1.31s-10.76,1.11-16.14,1.64c-2.39.23-4.79.39-7.2.58-5.49.42-11,.82-16.47,1.27a118.72,118.72,0,0,0-12.09,1.24C478.72,717.25,476.7,716.88,474.5,717.57Zm-10-1H461.7c-1.13,1.08-2.68,1.93-2.22,3.56,1.71,2.54,3.92,2.22,5.92,2.07l.77-2.94Z"/><path d="M76.61,442.85c-1.73-.4-2.2-2.06-3-3.26-5.76-8.11-11.44-16.28-17.14-24.43Q49.69,405.54,43,395.93q-9.15-13.06-18.32-26.11Q17,358.92,9.38,348c-.17-.23-.38-.43-.69-.77A7,7,0,0,1,2.23,346,5.75,5.75,0,0,1,0,341.7C-.34,337,1.89,334.74,8,334l14.39-30.68,1.1,2.6c-4.44,9.57-8.92,19.2-13.35,28.73l3.51,5.53c-.76,1.51-.76,1.51.64,2.53l-1.82.48.75,2.63-2.35-.38a18.36,18.36,0,0,0,1.11,2.2q5.19,7.51,10.43,15,6.06,8.69,12.13,17.34c5.79,8.21,11.61,16.39,17.39,24.61,3.06,4.34,6,8.74,9.07,13.1,4.86,7,9.77,13.91,14.6,20.91a23.64,23.64,0,0,1,1.73,3.58Z"/><path d="M191.9,221.35a8.82,8.82,0,0,1-.39,2.21c-4.09,8.85-8.24,17.67-12.35,26.51q-2.68,5.77-5.28,11.59c-.35.76-1,1.54-.42,2.25a11.73,11.73,0,0,0-1.73,2.18c-3.83,8.12-7.59,16.28-11.38,24.42q-7.46,16-14.92,32a6.53,6.53,0,0,0-.27,1c1.41,1.37,2.9,2.93,3,5a6.63,6.63,0,0,1-2.21,5.51l8.87,12.74c2.15,3.09,4.31,6.18,6.4,9.3a4.31,4.31,0,0,1,.28,1.57l-.75.74c-1.57-2-3.21-4-4.69-6.06-4-5.59-7.86-11.22-11.74-16.75h-6.48l-4-5.34-2.32-.22,1.58-1,1.47.87c.82-4.8,3.14-7.68,8.32-7.26.42-.76.86-1.49,1.22-2.26q6.21-13.25,12.39-26.51,6.63-14.18,13.26-28.35,6.84-14.72,13.63-29.43,3.54-7.63,7.13-15.23c.06-.13.29-.18.45-.27Z"/><path d="M287.8,108.67l-.94-.84c1.08-2.67,2.06-5.38,3.24-8q5.23-11.61,10.59-23.17c1.45-3.13,3.07-6.19,4.57-9.3.75-1.55,1.41-3.14,2.2-4.9-3.2-2.17-4.17-5.4-4.15-8.84a10,10,0,0,1,2.79-6.52,10.6,10.6,0,0,1,13.23-1.52c4.35,3,6,8,3.78,12.83-1.84,4-6.11,7.53-13.44,5.43a52.91,52.91,0,0,0-4.81,10.23c-.05.11.34.4.35.41a11.57,11.57,0,0,0-1.8,2.2c-2.79,5.85-5.5,11.73-8.2,17.62-.42.92-.66,1.92-1.09,3.18a17.86,17.86,0,0,0-1.48,2.23c-1.28,2.6-2.43,5.25-3.7,7.84C288.72,108,288.19,108.3,287.8,108.67Z"/><path d="M191.9,221.35l-1-.79a28,28,0,0,1,1.08-3.24c2.62-5.6,5.23-11.2,8-16.73.86-1.73,1.21-3.63,2.36-5.27a32.05,32.05,0,0,0,2.5-5.21l2.53-5.53c.8-1.76,1.55-3.54,2.38-5.28,3-6.28,6-12.53,9-18.82,3.35-7.17,6.6-14.39,9.94-21.57q8.64-18.5,17.32-37c.66-1.39,1.21-2.83,1.86-4.36-.46-.67-.92-1.39-1.44-2.07-1.77-2.32-1.39-6.65,1.32-8.92,2.48-2.09,7.27-1.53,9.38,1.21.41.53.72,1.15,1.36,2.18l-.93,6.13L254,98.31h-3.85c-1,2-2.05,4-3,6.12q-3.65,7.72-7.24,15.48c-2.89,6.22-5.75,12.46-8.63,18.69-1.5,3.24-3,6.49-4.54,9.72a50.36,50.36,0,0,1-2.42,5.23,47.76,47.76,0,0,0-2.63,5.49c-.84,1.84-1.65,3.71-2.5,5.54s-1.79,3.65-2.65,5.49q-5.82,12.48-11.61,25-4.26,9.16-8.53,18.32c-1,2.24-2.07,4.49-3.18,6.7C192.94,220.57,192.34,220.92,191.9,221.35Z"/><path d="M323.74,591.94,260,500.86l1.93-1q32,45.71,63.89,91.24l5.86-.38c.56.66,1.14,1.39,1.78,2.06,2.32,2.37,2.78,4.89,1.35,7.64a6.53,6.53,0,0,1-7.25,3.55c-2.55-.49-5.24-3.15-5.26-5.84C322.3,596.28,323.13,594.43,323.74,591.94Z"/><path d="M388.68,194.38a7.08,7.08,0,0,1,2.21,5.61,6.48,6.48,0,0,1-4.94,6.08c-2.92.58-6.12-1-7.15-3.15a18.18,18.18,0,0,0-.82-1.85c-.23-.35-.71-.53-1.1-.8l1.55-1-1-1.93c1.09-1.08,2.24-2.33,3.51-3.46,1.43-1.27,3.29-.77,5.2-1,.92-1.81,1.94-3.65,2.83-5.56Q397.54,169,406,150.56q7.54-16.31,15.12-32.59,4-8.53,8-17a5.94,5.94,0,0,1,1.05-1.69,6.28,6.28,0,0,0,2.33-4.74l1.19,1.83c-3.75,8-7.4,15.93-11.09,23.8-4.34,9.26-8.76,18.49-13.08,27.77-4.41,9.45-8.74,18.93-13.11,28.4-1.62,3.51-3.35,7-4.91,10.5C390.55,189.16,389.73,191.61,388.68,194.38Z"/><path d="M526.4,590.51c-2.86,1.09-2.86,1.09-6.51,1-1.81-1.24-2.71-3.18-4.61-4.05,1.13-2.11-.32-5.23,2.65-7l-58.64-83.76c.46-.57.93-1.13,1.44-1.75,19.65,28.08,39.19,56,58.81,84,3.58-1,6.79-.51,8.75,3C530.14,585.21,529,588,526.4,590.51Z"/><path d="M76.61,442.85l.67-.66c1.13-.15,1.43.82,1.89,1.48,5.52,7.92,11,15.88,16.54,23.8S107,483.4,112.56,491.38c4.6,6.56,9.15,13.17,13.74,19.74,3.38,4.83,6.8,9.63,10.19,14.45q10.56,15.07,21.11,30.14c1.77,2.53,3.57,5,5.31,7.6a3.88,3.88,0,0,1,.32,1.32l-.61.89a6.65,6.65,0,0,1-1.76-1.28c-4.42-6.33-8.76-12.72-13.17-19.06-2.65-3.81-5.4-7.54-8.07-11.33-4.84-6.87-9.65-13.76-14.49-20.63-4.45-6.32-9-12.59-13.38-18.93-4.86-7-9.63-14-14.49-21-2.64-3.8-5.39-7.54-8.06-11.33Q83,453.2,76.9,444.4A4.16,4.16,0,0,1,76.61,442.85Z"/><path d="M364.16,580.16l.91-.8c1.19,1.45,2.45,2.84,3.54,4.36,2.15,3,4.25,6,6.27,9a2.63,2.63,0,0,0,3.22,1.35l-1.65.86,6.68,9.55q6,8.54,12,17.08c6.13,8.78,12.22,17.59,18.37,26.36,6.76,9.63,13.58,19.2,20.33,28.84,2.1,3,4,6.14,6.08,9.16,1.54,2.22,3.29,4.29,4.8,6.53a56,56,0,0,1,3.16,5.48c.17.31-.18.88-.39,1.73A16.6,16.6,0,0,1,445.8,698c-2.09-3.23-4.77-6.08-6.31-9.67a1.37,1.37,0,0,0-.35-.45c-3.13-2.87-5-6.69-7.45-10.06s-4.77-6.8-7.19-10.18c-3.13-4.4-6.35-8.73-9.45-13.16-2.26-3.23-4.3-6.63-6.58-9.85-4.12-5.83-8.38-11.56-12.52-17.37-2.07-2.9-4-5.91-6-8.85q-4.43-6.47-8.9-12.88c-5.42-7.74-10.87-15.46-16.26-23.22A6.94,6.94,0,0,1,364.16,580.16Z"/><path d="M465.3,12.92a2.49,2.49,0,0,0-.07-3.3l3.15-4.1c5.41-2.09,7.56-1.36,10.7,3.88l34.95-3,.62,1.36L512,10.07V8.91c-.16-.06-.36-.21-.52-.18a35,35,0,0,1-7.92.69c-2.87,0-5.75.64-8.63.89-3.46.3-6.94.44-10.41.72-1.72.14-3.43.42-5.3.65-1.28,4.05-3.78,6.47-8.43,5.75-.83,1.36-2,2.48-1.53,4.22a20.14,20.14,0,0,0-2.09,3c-3.49,7.42-6.9,14.89-10.36,22.34-.74,1.57-1.27,3.47-2.49,4.52A7.1,7.1,0,0,0,452,54.68a1.33,1.33,0,0,1-.4-1.88c1.06-2.28,2.1-4.56,3.17-6.84,3.16-6.73,6.34-13.46,9.49-20.2,1.42-3.05,2.79-6.12,4.25-9.31C467.49,15.31,466.42,14.14,465.3,12.92Z"/><path d="M366.31,360.67c1,1.23,2.13,2.39,3.05,3.69,4.33,6.16,8.59,12.37,12.91,18.54q8.55,12.23,17.15,24.42c.27.39.56.76,1,1.38l2.29-1.08c2.24,1,5.17,1.1,6.23,3.89a10.8,10.8,0,0,1,.81,3.9,4.86,4.86,0,0,1-1.8,3.83,11.11,11.11,0,0,1-3.48,2,16.19,16.19,0,0,1-4,.14l-3.23-3.42c-1-3-.81-5.66,1.29-8l-11-15.81q-6.39-9.14-12.78-18.27c-2.92-4.19-5.84-8.39-8.72-12.62a6.32,6.32,0,0,1-.53-1.79Z"/><path d="M366.31,360.67l-.81.82c-.47-.24-1.1-.37-1.37-.75-4.91-6.93-9.77-13.9-14.64-20.86q-6.63-9.48-13.26-19c-.54-.78-1.17-1.5-1.76-2.24-2.35.6-4.46.66-6.51-.67-1.85-1.21-2.5-3.17-3.33-4.91.56-1.71,1.14-3.49,1.74-5.29a15.88,15.88,0,0,0,1.92-.93c2.51-1.64,5-1.15,7.28.32a6.22,6.22,0,0,1,2.42,6.89c-.3,1.11-.78,2.16-1.33,3.63l5.42,7.76c4.64,6.65,9.26,13.31,13.92,19.95,3.1,4.42,6.25,8.8,9.34,13.23A13.8,13.8,0,0,1,366.31,360.67Z"/><path d="M162.62,565.52l.61-.89c1.21,1.45,2.53,2.83,3.62,4.37,4.48,6.3,8.88,12.65,13.32,19q4.91,7,9.82,14c.72,1,1.47,2,2.28,3.15l2-.66.32-2.91c.15,1.34.23,2,.33,2.87l3.68.76,4,5.5c-1.39,1-1.3,2.41-.85,3.86-.8.56-1.59,1.08-2.33,1.66-3.52,2.73-6,1.85-8.5.12-2.37-1.62-2.92-5.53-1.44-8.42.26-.51.58-1,.88-1.48-1.85-2.73-3.6-5.39-5.43-8q-10.65-15.18-21.34-30.35C163,567.34,162.2,566.63,162.62,565.52Z"/><path d="M160.7,358.41l.75-.74c1.36,0,1.67,1.16,2.25,2,3.67,5.19,7.31,10.41,11,15.62.33.47.71.89.81,1,2.22.24,4.19.14,5.92.74,1.36.47,2.42,1.8,3.41,2.58l.7,4.08-1,2.94-5.31,3.48c-4.21-1.26-7.62-3.14-7-8.36l-1.37-.66.42-1,1.05.69,1.65-2.67c-1.76-2.53-3.47-5-5.17-7.41q-4-5.7-7.88-11.41A2.41,2.41,0,0,1,160.7,358.41Z"/><path d="M54.42,234.55c-2.51-2.62-3.62-5.23-2.16-8.42A6,6,0,0,1,58,222.41c3.69,0,5.8,2.17,6.89,5.53l3.35.17-3.47.47.14,2.7c-.86.88-1.86,2.44-3.28,3.24s-3.3.86-5.44,1.34l-7.43,15.82-1.59-1.78Z"/><path d="M449,476.31l.25-1.64c.42,2.31,2.28,1.26,3.42,1.78,4.67,2.15,6,5.12,4.09,9.71a12.43,12.43,0,0,1-.87,1.48c.73,1.21,1.39,2.38,2.14,3.5a33.43,33.43,0,0,1,2,3.05,1.56,1.56,0,0,0-2.19.21l-4-5.49-4,.79C442.56,486.31,442.62,479.72,449,476.31Z"/><path d="M248.66,688.94l-3.7-4.33a7.22,7.22,0,0,1-5.85-1.36,8.41,8.41,0,0,1-2.26-3.26,6.26,6.26,0,0,1,2.58-7.36c4.55-2.59,7.88-.51,10.47,3.41-.43,2.45-.14,5.54-2.8,7.49l3.25,4.66Z"/><path d="M256.62,483.72l3.64,3.43c-.27,5.34-.27,5.34-2.17,8.42-2.11,1.12-4.43.93-6.73.85-3.29-2.26-4.77-5.08-3.82-8C249,484.08,252.57,483.38,256.62,483.72Z"/><path d="M23.62,304.36l-.56-2.57q3-6.48,6-12.9c.69-1.49,1.32-3,2-4.48s.85-3,2.86-3.26c.38,0,.66-.91,1.29-1.85C34.46,283,25.73,301.64,23.62,304.36Z"/><path d="M38.09,272c-.25-2.32,2.85-9.7,8.28-20l1.35,1.87c-.95,2.11-1.87,4.22-2.84,6.3a70.47,70.47,0,0,0-3,6.55C41.12,268.86,39.54,270.22,38.09,272Z"/><path d="M443.59,75.31l-6.76,14.22-2.7.94,7.81-16.79c.35-.05.48-.1.5-.06C442.81,74.15,443.17,74.69,443.59,75.31Z"/><path d="M443.92,72.9l-.71-2.21,5.41-11,1.44,1.81q-2.74,5.77-5.5,11.57Z"/><path class="cls-1" d="M432.38,94.47c.72,2.38.72,2.41-.58,4.36"/><path class="cls-1" d="M469.59,755.48h-7"/><path class="cls-1" d="M513.77,6.1V7"/><path class="cls-1" d="M453.31,50.87c-.62,1.11-1.61,2.06-1.46,3.49"/><path class="cls-1" d="M39.38,268.88c-1,.47-.71,1.59-1.17,2.33"/><path class="cls-1" d="M376.57,200.28h2"/><path class="cls-1" d="M194.6,602v3.2"/><path class="cls-1" d="M167.86,327h-4.65"/><path class="cls-1" d="M605,584v2.32"/><path class="cls-1" d="M134.72,330.5c-1-1-2.31-.47-3.49-.58"/><path class="cls-1" d="M209.14,323.53h-3.2"/><path class="cls-1" d="M67.86,228.19H64.09"/><path class="cls-1" d="M58,222.37v.87"/><path class="cls-1" d="M472.49,4.36v.87"/><path class="cls-1" d="M458.54,492.71c.72.35,1.36.77,1.16,1.74"/><path class="cls-1" d="M117.86,115.4H117"/><path class="cls-1" d="M606.79,584v2.32"/><path class="cls-1" d="M513.48,752.87c.1.87.19,1.74.29,2.61"/><path class="cls-1" d="M512.61,7.85c-.2.77-.39,1.55-.58,2.32"/><path class="cls-1" d="M11.18,344.17l2,1.45"/><path class="cls-1" d="M473.07,714.2h-.87"/><path class="cls-1" d="M562.6,706.07c-.09.77-.19,1.55-.29,2.32"/><path class="cls-1" d="M35.31,279.93c-.2.29-.41.57-.58.87s-.39.77-.59,1.16"/><path class="cls-1" d="M235.3,391l-2.33.29"/><path class="cls-1" d="M329.48,306.09V307"/><path class="cls-1" d="M449.24,474.68c.1.68.19,1.36.29,2"/><path class="cls-1" d="M138.5,333.7c-.1.68-.19,1.36-.29,2"/><path class="cls-1" d="M596,745.31c.1.68.2,1.35.29,2"/><path class="cls-1" d="M12.34,342.42l2,.29"/><path class="cls-1" d="M405.64,696.76c-.1.68-.2,1.36-.29,2"/><path class="cls-1" d="M377.73,594.44l-2,.29"/><path class="cls-1" d="M171.35,379.92c-.24,1.21.77,1.16,1.45,1.45"/></g></g></svg>