<svg xmlns="http://www.w3.org/2000/svg" viewBox="0 0 463.48 391.15"><g id="Layer_2" data-name="Layer 2"><g id="Layer_1-2" data-name="Layer 1"><path d="M18.89,380.32a11.67,11.67,0,0,1-.83-3c0-11.85-.13-23.7.06-35.54a35.16,35.16,0,0,1,1.61-8.87C22.17,324.21,28,319.05,37,318.58c7.75-.4,15.54.14,23.74.27-.17-1.09-.33-2.8-.72-4.46-5.28-22.46-14.73-43.29-24.56-64C24.7,227.66,14.69,204.61,4,181.9c-5.09-10.77-5.2-21.27-.75-32.05Q16,118.92,28.78,88c6.3-15.22,12.58-30.46,19-45.65a50.09,50.09,0,0,0,4.16-21.1,64,64,0,0,1,1-13.18C54,2,57-.23,63,0A41.46,41.46,0,0,1,86.93,8.91c5,3.87,6.3,8.46,4.13,14.5a34.9,34.9,0,0,1-15.78,19.1,8.08,8.08,0,0,0-3.52,3.57C64.86,64.93,58,83.79,51.42,102.77,46,118.52,40.92,134.4,36,150.32a23.38,23.38,0,0,0,4.1,22.28c9.14,11.45,18.56,22.68,27.95,33.93a29.33,29.33,0,0,0,5,4.37c5.08,3.87,8,4.22,13.11.58A85.89,85.89,0,0,0,99,200.63c4-4.3,3.83-7.21.86-12.43C94,178,92,166.78,90.65,155.36a51.47,51.47,0,0,0-2.48-11.85c-1.29,3-2.37,6.14-3.94,9-3.6,6.61-8.25,7.13-13.33,1.46-4.51-5-7.76-10.82-8.28-17.71-.7-9.24,8.94-17.59,17.91-15.15,3,.83,5.51,3.52,8.45,5.5.9-2.93,1.91-6.29,3-9.64,7.73-25,37.09-33.3,54.82-25.55,8.23,3.6,16,8.35,23.78,12.91,5.2,3,7.27,7.75,5.92,13.9a12.2,12.2,0,0,0,.24,5.88c3.06,10.16,2.6,20.23-.14,30.35-3.19,11.82-6.24,23.68-9.42,35.51a68.25,68.25,0,0,1-2.73,8.6c-3.87,9.28-10.23,12.42-19.87,9.25-17.56-5.77-31.41-15.48-34.73-35.18-9.56-4.89-9.56-4.89-16.52-22.62a81.27,81.27,0,0,0,5.49,23c2.07,5.44,3.83,11,6.17,16.33a15.21,15.21,0,0,0,5,6.55,128,128,0,0,0,16.76,9.29c6.36,2.91,13.23,4.59,18.75,9.4,1.41,1.23,4.56,1.27,6.63.74,2.64-.67,5-2.42,7.48-3.77,16.2-8.89,32.19-18.19,48.65-26.56,13.93-7.08,26.76-15.51,38.05-26.27a7,7,0,0,0,1.94-4.49c.48-24.52.81-49,1.18-73.54a39.63,39.63,0,0,1,.23-4.22c1.25-10.08-2.06-17.94-10.56-23.91a44.7,44.7,0,0,1-9.68-9.83c-5.81-7.7-4.21-16.68,3.82-22,7.45-4.92,15.72-5.94,24.28-3.59A11.93,11.93,0,0,1,266,25.82a117.17,117.17,0,0,1,4.6,33.3,23.37,23.37,0,0,0,.33,5.3c6.48,28.86,10.6,58.09,13.67,87.48,1.25,12-2.89,22.24-11.54,30.47-9.75,9.27-19.51,18.59-29.82,27.23q-26.33,22.08-53.43,43.25c-5.38,4.22-7.28,8.45-4.88,14.93,2,5.46,3.19,11.21,5.08,16.72,3.1,9,2.47,17.72-1.34,26.41-2.5,5.69-4.79,11.5-6.77,17.39a11.79,11.79,0,0,0,2.33,12.06c0-3.39-.14-6.18,0-9,.23-3.89,2.36-6.42,6.2-7.12,9.84-1.78,19.34-.15,21.44,12.25,1.1,6.54,2.26,13.07,3.57,19.56,1.55,7.74,2.62,8.68,10.4,8.64,8.65,0,17.29-.32,25.93-.61q68.73-2.25,137.46-4.57c6.43-.21,12.86-.45,19.28-.85,5.14-.32,6.2-1.4,5.26-6.34-1.92-10-4.22-20-6.43-30.25-12.39,5.81-25.52,6.5-38.31,8.42-25.83,3.87-51.76,7.13-77.66,10.58a48.28,48.28,0,0,1-8.41.41c-7-.3-10.24-3-10-10.07a193.07,193.07,0,0,1,2.82-25.71c8.1-46.11,16.44-92.18,24.73-138.25.64-3.56,1.37-7.11,2.35-10.59,1.89-6.73,5-9.54,12.06-9.63,10.85-.14,21.71.15,32.56.56,25.72,1,51.43,2.15,77.14,3.23,9,.39,18.08.71,27.12,1.17,8.72.45,10.27,1.85,9.36,10.74-1.18,11.39-2.81,22.75-4.77,34-5.88,33.85-12,67.65-18.07,101.47a66,66,0,0,1-1.77,7.63c-1.6,5.23-2.56,5.57-7.69,2.86,3.59,16.87,7.07,33.56,10.73,50.22,1.09,4.94,2.1,5.44,7.18,5,4.2-.38,8.39-1,12.6-1,1.44,0,3.84,1.24,4.08,2.31.29,1.24-1,3.44-2.19,4.29a32.47,32.47,0,0,1-8.08,4c-16.39,5.44-32.69,11.31-49.35,15.8-7.36,2-15.54,1.73-23.29,1.32-21.68-1.14-43.33-2.86-65-4.44a43.9,43.9,0,0,1-6.48-1.5c4.11-4.32,47.55-18.43,54-17.37-7.05,3.89-15,5.47-22.54,8s-15.24,4.81-22.79,8.29l23.48,1.61c14.24,1,28.48,1.94,42.72,3,7.89.57,15.62.12,23.21-2.44,15-5.07,30.15-9.91,45.2-15a78.64,78.64,0,0,0,8-3.68l-.27-1.52c-3.19.23-6.4.29-9.56.72-11,1.49-12,.89-14.41-9.8q-12.35-55.89-24.6-111.82c-.52-2.39-2.36-5.54,1.08-6.84s6.16,1.33,7,4.18a163.38,163.38,0,0,1,5.3,21.53c2,12.08,3.28,24.29,5,36.42a49.34,49.34,0,0,0,2,6.82l1.31.09c.83-3.07,1.87-6.1,2.45-9.22,4.5-24.5,9.07-49,13.3-73.55,3.28-19,6.19-38.08,9.09-57.15,1.76-11.5,1.23-11.94-10.2-12.4q-59.67-2.4-119.34-4.84c-4-.16-8.05-.24-12.06-.06-7.1.31-9.46,1.91-11,8.82-2.24,10.2-3.92,20.52-5.78,30.8q-10,55.45-20,110.93-2,11.26-3.73,22.6a41.36,41.36,0,0,0-.39,7.21c.17,6.42,2,8.4,8.32,8.44a80.59,80.59,0,0,0,12-.84c32.62-4.67,65.25-9.28,97.82-14.27,12.34-1.89,12.94-3.45,10.63-15.41-2.73-14.21-5.36-28.43-7.76-42.7a57.91,57.91,0,0,1-.27-12c.05-1.13,1.42-3.09,2.2-3.09,1.29,0,3.32,1,3.75,2a46.83,46.83,0,0,1,3.37,11.47c1.18,10,2.4,20,2.55,30a203.89,203.89,0,0,0,6.62,49.42,58,58,0,0,1,1.83,11.27c.29,4.75-1,6.31-5.72,6.66-8.41.63-16.85.87-25.29,1.15q-76.56,2.58-153.14,5.07c-3.81.13-7.63,0-11.44-.18a7.1,7.1,0,0,1-7.2-6.11c-1.31-6.09-2.4-12.22-3.58-18.34-.39-2-.71-4-1.21-5.9-2.25-8.82-9.23-12.63-17.87-9.93-2.67.83-4.13,2.35-4.1,5.17,0,6.65.12,13,6.19,17.94,2.84,2.33,4.46,6.53,5.76,10.19.49,1.38-1.09,4.66-2.47,5.2s-4.58-.7-5.4-2.1a43.22,43.22,0,0,1-4.11-10.56c-1-3.7-2.1-7.14-4.83-10.1-4.2-4.55-4.67-10.2-2.87-15.86a113.59,113.59,0,0,1,5.91-15.14,34.83,34.83,0,0,0,1.64-28.05c-1.63-4.54-3-9.18-4.27-13.82-3.24-11.58-2.82-12.5,6.46-20,16.62-13.34,33.27-26.63,49.66-40.24,9.43-7.83,18.19-16.45,27.56-24.35,13.09-11,17.63-24.78,14.84-41.48-4.16-25-8-50-12.07-75-.53-3.28-1.11-6.5-4.63-8.64-2.72-1.65-1.54-3.61,4-5.28-1.58-9.07-2.92-18.35-4.88-27.49-1.06-5-4.8-7.64-10-8.28-6.83-.85-13.3.08-19,4.06-6.5,4.55-7.82,11.51-3,17.8a54.74,54.74,0,0,0,10.62,10.61C249.86,57.34,253,64.51,252.45,74c-.91,16.86-1.37,33.75-1.76,50.64-.2,9,.11,18.08.23,27.12,0,2.43.17,4.79,3.16,5.77a3,3,0,0,1,1.71,2.29,32.61,32.61,0,0,1-1.14,5.43,43.39,43.39,0,0,1-4.35-2.07c-.59-.36-.82-1.29-1.46-2.39a40.19,40.19,0,0,0-3.83,2.87c-10.75,10.24-23.42,17.5-36.5,24.3-16,8.34-31.73,17.32-47.58,26-2.46,1.36-4.86,2.87-7.43,4-3.51,1.54-7.18,1.76-10.14-1.11-4.36-4.23-9.88-6-15.34-8.08a94,94,0,0,1-12.14-5.26c-3.67-2-7-4.71-10.91-7.44-3.1,8.3-10.22,13.17-17.41,17.92-5.86,3.86-10,3.9-15.47-.41a72.71,72.71,0,0,1-11-10.26c-7.77-9.21-15.16-18.74-22.67-28.16a27.54,27.54,0,0,1-5-26.21c4.79-16,10-31.81,15.48-47.54,5.7-16.32,12-32.42,17.93-48.65,1-2.78,1.58-5.73,2.29-8.38-2.86-2-5.48-3.53-7.59-5.56a4.6,4.6,0,0,1-.87-4.24c.55-1,2.65-1.69,4-1.67,4.39.08,6.63,3.15,8,7.69,9-5,14.48-11.86,16.22-21.15.44-2.35-1.43-6-3.39-7.77C79.27,6,71.4,3.41,63,2.79c-4.34-.33-6.45,1.29-7.25,5.55a50.29,50.29,0,0,0-1.1,12c.56,9.12-1.83,17.51-5.28,25.73-8.1,19.27-16.25,38.52-24.3,57.81-6.12,14.65-11.93,29.43-18.25,44C1.42,160.31,2,172,8,184.32c13.13,27.13,25.35,54.7,38,82.06a256.07,256.07,0,0,1,17.21,49.44,14.42,14.42,0,0,0,4.55,8.06,19.67,19.67,0,0,1,5.84,9.53c3.1,13.49,5.62,27.12,8.11,40.74.46,2.55,1.2,6.47-2.29,7.17s-4.24-3.28-4.88-5.79c-3.19-12.45-6.09-25-9.07-37.47a87.72,87.72,0,0,1-2.19-10c-.46-3.94-2.6-5.74-6.27-5.93-6.8-.35-13.65-1.15-20.4-.68-8,.56-13.11,5.39-14.54,13.82-1.29,7.68-1.58,15.57-1.89,23.38-.21,5.41.31,10.85.47,16.28.06,1.74,0,3.48,0,5.22ZM174.17,126.57c-4.59,4.47-8.42,9.28-13.24,12.7-13.93,9.91-29.57,16.13-46.32,19.48a17.41,17.41,0,0,1-6.55.15c-2.39-.45-3.38-2.27-1.81-4.49a39.07,39.07,0,0,1,3.7-3.93c1.7-1.81,3.36-3.65,5.63-6.12-5.91-2.46-10.88-3.23-16.15-2.09-3,.65-4.22,2.55-3.3,5.29a151.94,151.94,0,0,0,6.25,16.21c1,2,3.49,3.33,5.8,5.42.71-2.25.87-3.5,1.49-4.45a10.83,10.83,0,0,1,2.5-2.06,13.35,13.35,0,0,1,2.15,3.19,3.68,3.68,0,0,1-.56,2.86c-1.83,2.51-.93,4.94-.22,7.47,4.18,14.7,20.7,28.44,36.08,29.93,4.13.4,7.75-.89,9.82-4.54A46.81,46.81,0,0,0,164,191.15c3.69-13.35,7.14-26.77,10.54-40.21C176.54,142.86,176.94,134.74,174.17,126.57Zm-64.86,29c.39.32.7.79,1,.77a35.41,35.41,0,0,0,5.37-.55c15.81-3.59,30.72-9.43,43.89-19,4.12-3,7.22-7.41,10.65-11.3,2.5-2.84,2-5.75-.06-8.76a30.25,30.25,0,0,0-17-12.7c-17.4-5.07-33.26-.31-48.5,7.93a20.64,20.64,0,0,0-11,15.67c-.75,4.89-.84,9.88-1.3,15.76,6.55-6,13.35-4.76,20-3.3,5.91,1.29,6.8,5,2.61,9.53C113.11,151.62,111.2,153.56,109.31,155.52Zm-30.78-32C69.72,123.23,63.27,130.73,66,139a46.35,46.35,0,0,0,7.18,13c3.07,4.09,6.32,3.81,8.35-.69a74.17,74.17,0,0,0,5.38-16.49C87.93,129.39,83.17,123.7,78.53,123.54Zm18.78-10.47a73.89,73.89,0,0,1,36.42-13.6c15.64-1.57,29.57,2,39.06,16,.12.18.61.11,1,.18,1-4.11-1.42-6.66-4.32-8.47-6.63-4.13-13.26-8.36-20.29-11.71-14.56-6.94-28.56-4.5-41.6,4.22A24.19,24.19,0,0,0,97.31,113.07ZM76.89,375.74l1.57,0c.92-14.21-6.52-44.1-12.67-48.9C69.58,343.51,73.24,359.63,76.89,375.74Zm347.27-87.92.72-.08c-.4-3.75-.7-7.52-1.22-11.25-1.22-8.7-2.32-17.43-3.91-26.06-.67-3.63-1.72-7.52-6.53-10.24C417,256.79,420.6,272.31,424.16,287.82ZM405,297.89c1.35-14.19-2-38.47-6.26-44.38C398.64,268.73,402.23,282.54,405,297.89ZM189.94,351.42c1.13,4.18.66,9.13,6.29,12.32C196.85,357.6,193.91,354.27,189.94,351.42Z"/></g></g></svg>