<svg xmlns="http://www.w3.org/2000/svg" width="219" height="57" viewBox="0 0 219 57">
  <g fill="none" fill-rule="evenodd" transform="translate(3 9.013)">
    <g transform="translate(64 8.987)">
      <path fill="#1D1D1B" d="M3.1773148.186171256L3.1773148 8.83522938C3.73842148 8.08854982 4.42424504 7.45612151 5.23454699 6.93723039 6.04484895 6.41929136 6.96913688 6.15960777 8.0086031 6.15960777 9.04735393 6.15960777 9.94111842 6.3050401 10.6891812 6.59519069 11.4372439 6.88581732 12.0918286 7.32163826 12.6526969 7.90193943 13.9408814 9.16703407 14.5852122 10.8370066 14.5852122 12.9109049L14.5852122 21.9646029 12.2475459 21.9646029 12.2475459 12.9732671C12.2475459 11.5420321 11.8423949 10.4014237 11.0318545 9.55072787 10.2215525 8.70050811 9.1720708 8.2751602 7.88388623 8.2751602 6.5747168 8.2751602 5.4627574 8.71074312 4.54872344 9.58190894 3.63421255 10.4740208 3.1773148 11.6148672 3.1773148 13.0042101L3.1773148 21.9646029.839648505 21.9646029.839648505.186171256 3.1773148.186171256zM17.7331089 21.9645077L20.0707752 21.9645077 20.0707752 6.40848509 17.7331089 6.40848509 17.7331089 21.9645077zM17.6398693 3.7949876L20.1644917 3.7949876 20.1644917.745907203 17.6398693.745907203 17.6398693 3.7949876zM30.9798528 8.27525541C29.2965327 8.27525541 27.9666169 8.85603263 26.9901053 10.017349 26.0550865 11.1170174 25.5874578 12.5063603 25.5874578 14.1865678 25.5874578 15.8665373 26.0550865 17.2563562 26.9901053 18.3555485 27.9666169 19.517341 29.2965327 20.0976422 30.9798528 20.0976422 32.6419495 20.0976422 33.9926117 19.517341 35.0318395 18.3555485 36.0083511 17.2563562 36.4967262 15.8665373 36.4967262 14.1865678 36.4967262 12.5063603 36.0083511 11.1170174 35.0318395 10.017349 33.9926117 8.85603263 32.6419495 8.27525541 30.9798528 8.27525541L30.9798528 8.27525541zM25.7121747 8.89744871C26.9591049 7.07252291 28.8184117 6.15946496 31.2915257 6.15946496 33.535714 6.15946496 35.3537664 6.93732559 36.7461599 8.49304687 38.1380765 10.0280601 38.8343925 11.9260591 38.8343925 14.1865678 38.8343925 16.4473145 38.1380765 18.3453135 36.7461599 19.8798507 35.3537664 21.43581 33.4837288 22.2134326 31.13557 22.2134326 28.7871728 22.2134326 26.9793744 21.2906157 25.7121747 19.4442678L25.7121747 28.124745 23.3745084 28.124745 23.3745084 6.40843749 25.7121747 6.40843749 25.7121747 8.89744871zM48.7461405 8.27525541C47.0628205 8.27525541 45.7329046 8.85603263 44.756393 10.017349 43.8213742 11.1170174 43.3537455 12.5063603 43.3537455 14.1865678 43.3537455 15.8665373 43.8213742 17.2563562 44.756393 18.3555485 45.7329046 19.517341 47.0628205 20.0976422 48.7461405 20.0976422 50.4082372 20.0976422 51.7588994 19.517341 52.7981272 18.3555485 53.7746388 17.2563562 54.2630139 15.8665373 54.2630139 14.1865678 54.2630139 12.5063603 53.7746388 11.1170174 52.7981272 10.017349 51.7588994 8.85603263 50.4082372 8.27525541 48.7461405 8.27525541L48.7461405 8.27525541zM43.4784624 8.89744871C44.7253926 7.07252291 46.5846994 6.15946496 49.0578134 6.15946496 51.3020017 6.15946496 53.1200541 6.93732559 54.5124476 8.49304687 55.9043642 10.0280601 56.6006802 11.9260591 56.6006802 14.1865678 56.6006802 16.4473145 55.9043642 18.3453135 54.5124476 19.8798507 53.1200541 21.43581 51.2500165 22.2134326 48.9018577 22.2134326 46.5534605 22.2134326 44.7456621 21.2906157 43.4784624 19.4442678L43.4784624 28.124745 41.1407961 28.124745 41.1407961 6.40843749 43.4784624 6.40843749 43.4784624 8.89744871zM65.6709351 20.0977374C67.3540167 20.0977374 68.6836941 19.5174362 69.6606826 18.3556438 70.5957014 17.2562134 71.0633301 15.8666325 71.0633301 14.186663 71.0633301 12.5064555 70.5957014 11.1171126 69.6606826 10.0174443 68.6836941 8.85612784 67.3540167 8.27535062 65.6709351 8.27535062 63.9878535 8.27535062 62.6576992 8.85612784 61.6814261 10.0174443 60.7461688 11.1171126 60.2785401 12.5064555 60.2785401 14.186663 60.2785401 15.8666325 60.7461688 17.2562134 61.6814261 18.3556438 62.6576992 19.5174362 63.9878535 20.0977374 65.6709351 20.0977374M65.6709351 6.15956017C67.9978705 6.15956017 69.888893 6.93718278 71.3437642 8.49314208 72.7154113 9.98626318 73.4009964 11.8842622 73.4009964 14.186663 73.4009964 16.4888258 72.7154113 18.3868248 71.3437642 19.8799459 69.888893 21.4356672 67.9978705 22.2135278 65.6709351 22.2135278 63.3435228 22.2135278 61.4525003 21.4356672 59.998106 19.8799459 58.6266974 18.3868248 57.9411123 16.4888258 57.9411123 14.186663 57.9411123 11.8842622 58.6266974 9.98626318 59.998106 8.49314208 61.4525003 6.93718278 63.3435228 6.15956017 65.6709351 6.15956017"/>
      <path fill="#636363" d="M82.6269447 20.0977374C84.3100263 20.0977374 85.6397037 19.5174362 86.6164537 18.3556438 87.551711 17.2562134 88.0193397 15.8666325 88.0193397 14.186663 88.0193397 12.5064555 87.551711 11.1171126 86.6164537 10.0174443 85.6397037 8.85612784 84.3100263 8.27535062 82.6269447 8.27535062 80.9641326 8.27535062 79.6137088 8.85612784 78.574958 10.0174443 77.5979694 11.1171126 77.1098329 12.5064555 77.1098329 14.186663 77.1098329 15.8666325 77.5979694 17.2562134 78.574958 18.3556438 79.6137088 19.5174362 80.9641326 20.0977374 82.6269447 20.0977374L82.6269447 20.0977374zM87.8946228 19.4755441C86.6476926 21.3009459 84.7879089 22.2135278 82.3152718 22.2135278 80.0710835 22.2135278 78.2423002 21.4356672 76.8293987 19.8799459 75.4579901 18.3454087 74.772405 16.4474097 74.772405 14.186663 74.772405 11.9259163 75.4579901 10.0281553 76.8293987 8.49314208 78.2423002 6.93718278 80.1228303 6.15956017 82.470989 6.15956017 84.8189093 6.15956017 86.6267077 7.08285313 87.8946228 8.92872499L87.8946228.186123652 90.2322891.186123652 90.2322891 21.9645553 87.8946228 21.9645553 87.8946228 19.4755441zM93.5356884 21.9645077L95.8733547 21.9645077 95.8733547 6.40848509 93.5356884 6.40848509 93.5356884 21.9645077zM93.4424489 3.7949876L95.9670712 3.7949876 95.9670712.745907203 93.4424489.745907203 93.4424489 3.7949876zM106.065489 19.8487887C106.917284 19.8487887 107.675601 19.6985959 108.340916 19.3977342 109.005755 19.0973486 109.576877 18.6874722 110.054998 18.1688191 110.990256 17.0905729 111.457884 15.7217001 111.457884 14.0619625 111.457884 12.4027011 110.990256 11.0338282 110.054998 9.95510591 109.036755 8.83520558 107.706839 8.2751364 106.065489 8.2751364 104.382408 8.2751364 103.031268 8.83520558 102.013502 9.95510591 101.036514 11.0547743 100.548377 12.4236471 100.548377 14.0619625 100.548377 15.700754 101.036514 17.0696269 102.013502 18.1688191 103.031268 19.2887195 104.382408 19.8487887 106.065489 19.8487887M111.333167 8.89756772L111.333167 6.4085565 113.670834 6.4085565 113.670834 21.4978151C113.670834 23.7378538 113.031749 25.4437679 111.753818 26.6157954 110.475888 27.7873468 108.756321 28.3733605 106.595357 28.3733605 104.433916 28.3733605 102.746065 27.9582476 101.530374 27.1289739 100.314682 26.2994622 99.4886416 25.2000319 99.0522518 23.831159L101.639352 23.831159C102.304191 25.4490044 103.821301 26.2580461 106.190206 26.2580461 107.998005 26.2580461 109.307174 25.8429332 110.117476 25.0134215 110.928016 24.1836717 111.333167 22.9599932 111.333167 21.3421478L111.333167 19.1956523C110.065252 21.0420002 108.205469 21.9645791 105.753816 21.9645791 103.509628 21.9645791 101.680845 21.1974295 100.267943 19.6621783 98.8965346 18.1688191 98.2109495 16.3022392 98.2109495 14.0619625 98.2109495 11.8219238 98.8965346 9.95510591 100.267943 8.46198481 101.680845 6.92697157 103.566621 6.15958397 105.925272 6.15958397 108.283446 6.15958397 110.086237 7.07264193 111.333167 8.89756772M116.974352 21.9645077L119.312018 21.9645077 119.312018 6.40848509 116.974352 6.40848509 116.974352 21.9645077zM116.880874 3.7949876L119.405496 3.7949876 119.405496.745907203 116.880874.745907203 116.880874 3.7949876z"/>
      <polygon fill="#636363" points="124.299 21.965 124.299 8.462 121.119 8.462 121.119 6.408 124.299 6.408 124.299 .84 126.636 .84 126.636 6.408 130.221 6.408 130.221 8.462 126.636 8.462 126.636 21.965"/>
      <path fill="#636363" d="M138.605408,20.0977374 C140.28849,20.0977374 141.618167,19.5174362 142.594917,18.3556438 C143.530175,17.2562134 143.997803,15.8666325 143.997803,14.186663 C143.997803,12.5064555 143.530175,11.1171126 142.594917,10.0174443 C141.618167,8.85612784 140.28849,8.27535062 138.605408,8.27535062 C136.942596,8.27535062 135.592172,8.85612784 134.553421,10.0174443 C133.576433,11.1171126 133.088296,12.5064555 133.088296,14.186663 C133.088296,15.8666325 133.576433,17.2562134 134.553421,18.3556438 C135.592172,19.5174362 136.942596,20.0977374 138.605408,20.0977374 L138.605408,20.0977374 Z M143.873086,19.4755441 C142.626156,21.3009459 140.766372,22.2135278 138.293735,22.2135278 C136.049547,22.2135278 134.220764,21.4356672 132.807862,19.8799459 C131.436454,18.3454087 130.750869,16.4474097 130.750869,14.186663 C130.750869,11.9259163 131.436454,10.0281553 132.807862,8.49314208 C134.220764,6.93718278 136.101294,6.15956017 138.449452,6.15956017 C140.797373,6.15956017 142.605171,7.08285313 143.873086,8.92872499 L143.873086,6.4085327 L146.210753,6.4085327 L146.210753,21.9645553 L143.873086,21.9645553 L143.873086,19.4755441 Z"/>
      <polygon fill="#636363" points="149.514 21.965 151.852 21.965 151.852 .186 149.514 .186"/>
    </g>
    <path fill="#000000" fill-rule="nonzero" d="M19.38,39.3673211 C19.08,39.3673211 18.79,39.3673211 18.49,39.3673211 C18.03,39.3673211 17.58,39.3673211 17.14,39.3673211 C17.1502451,43.1500992 14.4546684,46.3993119 10.7350512,47.087762 C7.01543406,47.776212 3.33549364,45.7070199 1.99116005,42.1711632 C0.646826459,38.6353066 2.02254535,34.6439515 5.26,32.6873211 C3.18671235,29.8777123 2.06551468,26.4790819 2.06,22.9873211 C1.90481783,23.0363694 1.74272682,23.0600076 1.58,23.0573211 C0.707390095,23.0573211 -3.55271368e-15,22.349931 -3.55271368e-15,21.4773211 C-3.55271368e-15,20.6047112 0.707390095,19.8973211 1.58,19.8973211 C1.84172737,19.8987507 2.09916017,19.963967 2.33,20.0873211 C3.27385959,14.7977963 6.74446421,10.3039983 11.6236403,8.05375738 C16.5028165,5.80351643 22.1739903,6.08119188 26.81,8.79732112 C27.174786,7.03222954 28.1009136,5.43255461 29.45,4.23732112 C28.3909631,3.89919817 27.7587462,2.81540343 27.9857043,1.72711287 C28.2126624,0.638822315 29.2253801,-0.101928754 30.3312889,0.0114379579 C31.4371977,0.12480467 32.2785633,1.05561781 32.28,2.16732112 C32.290277,2.30379458 32.290277,2.44084766 32.28,2.57732112 C34.5102669,1.78326503 36.9714969,1.96240883 39.0632735,3.07105041 C41.15505,4.17969198 42.6850391,6.11589431 43.28,8.40732112 C47.1652939,6.05811292 52.1346114,6.55380477 55.4792966,9.62420691 C58.8239817,12.694609 59.7420247,17.603481 57.7330223,21.6751143 C55.7240199,25.7467475 51.2697033,28.00482 46.798014,27.2185106 C42.3263247,26.4322011 38.9095125,22.7900559 38.41,18.2773211 C37.3698437,18.7205774 36.2506635,18.9484955 35.12,18.9473211 L34.47,18.9473211 C35.7224587,23.7996278 34.6833548,28.9582997 31.65,32.9473211 C34.7297757,35.0365301 35.9105506,39.0067285 34.4730412,42.4394213 C33.0355317,45.872114 29.3780355,47.8161886 25.7285612,47.0873881 C22.0790869,46.3585877 19.4488117,43.1588443 19.44,39.4373211 L19.38,39.3673211 Z"/>
  </g>
</svg>
