<?xml version="1.0" encoding="UTF-8"?>
<svg width="499px" height="661px" viewBox="0 0 499 661" version="1.1" xmlns="http://www.w3.org/2000/svg" xmlns:xlink="http://www.w3.org/1999/xlink">
    <title>penny</title>
    <g id="Page-1" stroke="none" stroke-width="1" fill="none" fill-rule="evenodd" stroke-linecap="round" stroke-linejoin="round">
        <g id="penny" transform="translate(2.000000, 2.001607)" stroke="#000000" stroke-width="3">
            <path d="M394,656.998393 C386.958436,641.242895 381.647348,624.769807 378.16,607.868393 C376.05739,598.135176 374.842408,588.231227 374.53,578.278393 C374.29,566.508393 376.6,554.958393 379.9,543.748393 C385.97,523.168393 393.08,502.888393 398.79,482.228393 C401.606746,471.552964 403.401498,460.633773 404.15,449.618393 C404.958756,439.645999 401.860739,429.749554 395.51,422.018393 C389.92,415.068393 383.39,409.628393 374.51,406.878393 C361.51,402.878393 349.27,410.238393 348.32,423.138393 C347.61,432.758393 346.37,442.348393 345.32,451.938393 C344.32,460.648393 343.15,469.338393 342.32,478.058393 C341.547033,487.066584 339.710936,495.95168 336.85,504.528393 C335.754765,507.790827 334.202663,510.881564 332.24,513.708393 C328.3,519.198393 321.64,518.288393 319.38,511.808393 C317.66366,507.130639 316.652599,502.223622 316.38,497.248393 C315.79,477.558393 319.5,458.448393 326.38,440.098393 C329.238167,432.185903 333.889648,425.04268 339.97,419.228393 C349.05,410.678393 357.76,401.718393 366.47,392.768393 C370.47,388.618393 373.97,383.888393 378.07,379.768393 C383.07,374.768393 386.78,374.008393 395.63,377.488393 C400.4,379.358393 404.86,382.028393 409.47,384.318393 C417.14,388.128393 425.25,388.408393 433.21,386.098393 C438.796917,384.512067 443.063172,379.988531 444.32,374.318393 C446.51,365.528393 450.51,357.858393 455.74,350.418393 C463.59,339.238393 468.16,326.338393 471.95,313.268393 C474.52,304.378393 476.95,295.428393 478.74,286.368393 C479.47,282.728393 478.13,278.718393 478.19,274.878393 C478.32,266.878393 475.83,258.428393 481.19,251.088393 C482.604998,249.200047 484.138061,247.403124 485.78,245.708393 C490.06,241.238393 491.62,236.388393 490.57,229.918393 C488.949774,220.531526 488.858596,210.944378 490.3,201.528393 C492.61,187.168393 495.45,172.798393 494.16,158.148393 C492.38,137.958393 487.16,119.278393 472.07,104.268393 C460.661522,92.918384 447.362639,83.6430059 432.77,76.8583935 C420.732671,71.2348211 407.974984,67.3042016 394.86,65.1783935 C385.44,63.6383935 376,62.5183935 366.47,62.9683935 C359.29,63.3083935 352.14,64.1383935 344.99,64.9083935 C344.29,64.9783935 343.43,65.9983935 343.12,66.7683935 C342.32,68.7683935 341.78,70.8483935 341.12,72.8983935" id="Path"></path>
            <path d="M310.35,328.298393 C316.8,329.188393 322.74,326.868393 328.75,325.198393 C342.75,321.338393 354.52,313.728393 365.24,304.148393 C369.513327,300.310485 374.621492,297.520167 380.16,295.998393 C384.16,294.888393 389.16,295.728393 390.37,298.778393 C391.498281,301.408003 391.767749,304.326656 391.14,307.118393 C388.25,316.718393 382.95,325.018393 374.75,330.918393 C359.17,342.118393 343.47,353.188393 327.57,363.918393 C314.839566,372.415998 303.14971,382.377379 292.74,393.598393 C284.9,402.128393 279.22,412.138393 277.18,423.548393 C275.93,430.548393 276.1,437.898393 276.71,444.998393 C278.04,460.308393 283.82,474.568393 288.02,489.198393 C288.93,492.368393 288.95,495.818393 289.21,499.198393 C289.38,501.308393 288.15,501.698393 286.21,501.558393 C282.64,501.298393 280.03,499.188393 277.42,497.238393 C265.59,488.368393 253.98,479.238393 242.07,470.438393 C228.66,460.568393 214.89,451.258393 198.76,446.178393 C193.49,444.518393 188.24,443.118393 182.64,443.078393 C177.04,443.038393 171.64,442.418393 166.15,442.448393 C163.421564,442.545386 160.72388,443.057946 158.15,443.968393 C154.54,445.148393 154.15,447.288393 156.58,450.058393 C160.74,454.898393 166.43,457.408393 171.97,459.958393 C186.84,466.808393 202.05,472.958393 216.76,480.128393 C226.76,485.008393 236.41,490.818393 244.44,498.808393 C246.14,500.508393 248.34,502.408393 246.64,504.888393 C244.94,507.368393 241.96,506.448393 239.88,505.268393 C231.88,500.708393 223.8,496.148393 216.1,491.058393 C206.44,484.678393 196.3,479.188393 184.94,477.178393 C179.48,476.178393 173.29,475.518393 168.01,479.878393 C165.306219,482.024368 163.461297,485.068489 162.81,488.458393 C161.74,493.778393 161.38,499.228393 160.39,504.558393 C159.03,511.888393 157.68,519.248393 155.77,526.438393 C150.569666,546.484764 143.918802,566.126537 135.87,585.208393 C129.62,599.818393 122.87,614.208393 112.8,626.628393 C109.13,631.148393 104.26,634.528393 98.28,635.018393 C93.5423307,635.594981 89.0575107,632.743289 87.57,628.208393 C85.7305707,623.171655 85.1203182,617.768521 85.79,612.448393 C87.0185333,602.727656 89.8183461,593.271111 94.08,584.448393 C98.73,574.358393 105.08,565.368393 112.08,556.778393 C124.08,542.108393 136.17,527.588393 146.26,511.498393 C151,503.958393 155.26,495.998393 156.39,487.268393 C157.99,474.898393 155.62,462.988393 147.77,452.728393 C142.030439,444.926245 133.765055,439.353561 124.38,436.958393 C116.77,435.008393 109.2,433.708393 101.38,435.428393 C95.01,436.818393 88.38,437.268393 82.26,439.428393 C70.5201804,443.500091 60.3112807,451.073873 53.01,461.128393 C44.32,473.128393 39.48,486.668393 35.29,500.678393 C31.91,511.598393 27.66,522.228393 23.77,532.998393 C19.22,545.568393 14.44,557.998393 10.02,570.658393 C6.36879281,581.115892 3.77581189,591.913279 2.28,602.888393 C1.62,607.648393 0.77,612.368393 0,617.098393" id="Path"></path>
            <path d="M326.84,298.728393 C325.18,302.438393 323.78,306.298393 321.84,309.838393 C316.216113,320.169909 309.237775,329.704168 301.09,338.188393 C295.96,343.408393 289.71,347.518393 284.35,352.538393 C274.84,361.448393 265.46,370.488393 256.35,379.788393 C243.66,392.738393 232.55,407.318393 216.81,417.018393 C207.249411,423.122085 196.234629,426.567009 184.9,426.998393 C176.98,427.258393 169.05,427.318393 161.12,427.398393 C146.03,427.558393 130.93,427.298393 115.86,427.938393 C107.26,428.298393 98.72,430.108393 90.15,431.218393 C89.6224026,431.192071 89.1039802,431.070089 88.62,430.858393" id="Path"></path>
            <path d="M297.3,98.6583935 C303.68,99.4283935 309.66,97.5483935 315.3,95.1083935 C325.93,90.5083935 334.68,83.4683935 340.52,73.2983935 C347.95,73.6983935 355.24,74.1783935 362.52,74.4483935 C373.761745,74.9881884 384.936246,76.493735 395.92,78.9483935 C415.6,83.1083935 433.51,90.7383935 449.63,102.848393 C469.63,117.848393 482.76,137.448393 488.55,161.678393 C490.2,168.578393 490.31,175.988393 490.13,183.138393 C489.862525,192.767699 486.236645,202.000429 479.88,209.238393 C479.190437,209.851754 478.424005,210.372793 477.6,210.788393" id="Path"></path>
            <path d="M423.51,264.938393 C424.92,268.938393 425.99,273.028393 427.81,276.798393 C430.41,282.198393 435.25,282.798393 438.75,277.918393 C441.719215,273.556562 444.305524,268.94604 446.48,264.138393 C449.294003,257.875403 453.795215,252.518962 459.48,248.668393 C466.48,243.958393 470.26,236.468393 472.56,228.438393 C473.78,224.178393 473.97,219.598393 475.39,215.438393 C478.22,207.158393 477.95,198.568393 478.8,190.068393 C479.88,179.268393 477.8,168.928393 474.06,158.998393 C468.432188,144.334284 459.863075,130.976948 448.88,119.748393 C436.68505,106.881453 422.241056,96.351775 406.26,88.6783935 C398.868798,84.9904421 390.730052,83.0472694 382.47,82.9983935 C377.317238,83.023987 372.261698,84.4033977 367.81,86.9983935 C362.07,90.2983935 361.16,97.4183935 365.27,102.828393 C366.66,104.668393 368.85,105.828393 370.56,107.498393 C381.46,117.838393 390.4,129.778393 398.93,142.068393 C399.217805,142.793316 399.357224,143.568619 399.34,144.348393" id="Path"></path>
            <path d="M423.9,260.328393 C422.81,256.328393 423.72,252.518393 425.09,248.828393 C425.965215,246.324632 428.171618,244.52396 430.8,244.168393 C432.111523,243.917207 433.394592,243.535301 434.63,243.028393 C436.13,242.438393 438.69,242.488393 437.96,240.028393 C437.367683,238.473165 436.14811,237.239074 434.6,236.628393 C427.74,234.318393 421.69,236.838393 416.26,240.808393 C410.83,244.778393 408.93,251.058393 407.44,257.278393 C405.268986,266.450774 404.221298,275.853102 404.32,285.278393 C404.37,290.008393 403.93,294.788393 404.44,299.478393 C404.99,304.478393 406.36,309.478393 407.44,314.478393 C407.574842,315.156049 407.832407,315.803351 408.2,316.388393 C411.59,321.388393 415.62,320.818393 418.93,314.868393 C421.67,309.968393 422.36,304.488393 423.6,299.138393 C425.06,292.858393 423.6,287.028393 422.05,281.058393 C420.52,275.328393 420.2,269.568393 423.49,264.158393 C423.900598,263.20176 424.173319,262.191684 424.3,261.158393" id="Path"></path>
            <path d="M307.66,329.828393 C303.82,329.698393 299.97,329.748393 296.15,329.418393 C281.21,328.128393 267.26,324.178393 255.42,313.418393 C252.42,317.418393 249.23,321.418393 246.3,325.628393 C237.58,338.088393 226.82,348.508393 215.3,358.328393 C200.315976,371.13639 183.609993,381.780016 165.67,389.948393 C150.67,396.758393 135.47,403.198393 120.9,410.948393 C110.78,416.308393 100.77,421.948393 91.03,427.948393 C87.71,430.008393 84.73,432.618393 80.97,433.948393" id="Path"></path>
            <path d="M474.92,215.398393 C468.78,220.878393 462.19,225.648393 453.81,226.848393 C449.9,227.398393 445.73,227.948393 441.96,227.158393 C430.88,224.818393 419.72,224.768393 408.55,225.058393 C397.674448,225.322878 387.029915,228.251841 377.55,233.588393 C365.69,240.248393 356.4,250.018393 349.14,261.518393 C344.24,269.268393 339.85,277.338393 335.3,285.308393 C334.904941,286.286978 334.636111,287.311889 334.5,288.358393" id="Path"></path>
            <path d="M344.1,64.8683935 C348.01,48.6683935 342.26,34.8683935 332.92,22.2883935 C326.09,13.0783935 317.72,5.63839349 306.52,1.86839349 C287.31,-4.60160651 265.25,6.52839349 260.06,22.9983935 C258.12,29.1683935 257.41,35.1083935 260.76,41.1083935 C261.55,42.5283935 261.18,44.6383935 261.23,46.4283935 C261.39,52.1883935 261.23,57.9683935 261.69,63.7083935 C262.30328,72.1368923 265.506038,80.169984 270.86,86.7083935 C273.15,89.5083935 275.69,92.1083935 278.12,94.7883935" id="Path"></path>
            <path d="M424.28,260.708393 C427.22,258.408393 430.16,256.098393 433.11,253.808393 C433.98,253.128393 434.91,252.548393 435.78,251.878393 C439.47,249.028393 442.12,240.818393 440.28,236.568393 C439.463026,234.808409 437.970272,233.452672 436.14,232.808393 C429.454863,231.107185 422.672302,229.814791 415.83,228.938393 C405.39,227.768393 396.7,232.858393 388.68,238.548393 C381.158115,243.973879 373.980928,249.861911 367.19,256.178393 C359.19,263.528393 351.68,271.368393 344.14,279.178393 C338.73,284.768393 334.14,291.278393 328.26,296.288393 C318.78,304.348393 309.9,313.528393 296.94,316.468393 C289.24,318.218393 282,316.888393 275.1,313.978393 C267.989663,311.038017 261.664831,306.476741 256.63,300.658393 C255.57,299.428393 254.34,298.338393 253.19,297.188393" id="Path"></path>
            <path d="M402.8,147.048393 C406.8,148.578393 410.93,149.738393 414.64,151.738393 C420.64,154.968393 424.57,160.208393 427.82,166.198393 C431.4,172.808393 435.62,179.068393 439.64,185.438393 C442.05,189.258393 441.72,192.978393 438.02,194.908393 C436.41,195.748393 433.44,195.908393 432.02,194.908393 C424.12,189.508393 418.93,181.838393 415.02,173.178393 C412.02,166.448393 408.69,159.838393 405.44,153.178393 C404.586304,151.299998 403.547857,149.51119 402.34,147.838393 C401.34,146.488393 400,144.788393 398.53,144.448393 C384.64,141.188393 370.67,138.248393 356.75,135.108393 C345.4,132.548393 333.9,130.418393 323.38,125.108393 C320.11,123.458393 317.01,121.488393 313.77,119.768393 C305.84,115.548393 297.88,111.398393 289.77,107.138393 C280.68,120.048393 273.49,133.138393 270.87,148.138393 C269.51,156.018393 269.18,164.078393 267.64,171.918393 C265.8541,181.373687 263.540483,190.721634 260.71,199.918393 C257.71,209.318393 253.71,218.388393 250.1,227.608393" id="Path"></path>
            <path d="M288.86,107.878393 C282.62,105.178393 275.81,103.618393 269.32,104.278393 C254.32,105.798393 242.68,113.278393 234.65,126.618393 C229.904434,134.585123 226.610042,143.330667 224.92,152.448393 C223.721359,158.244774 223.211162,164.162389 223.4,170.078393 C223.85,180.488393 227.75,189.918393 233.62,198.498393" id="Path"></path>
            <path d="M266.61,105.578393 C262.78,111.208393 258.79,116.748393 255.14,122.488393 C248.84,132.398393 245.14,143.398393 242.5,154.738393 C239.86,166.078393 237.82,177.248393 235.55,188.518393 C234.83,192.088393 234.1,195.668393 233.71,199.278393 C233.659546,200.753868 234.045674,202.211417 234.82,203.468393 C239.59,211.838393 244.51,220.128393 249.31,228.468393 C249.607322,229.195853 249.607322,230.010934 249.31,230.738393 C245.14,240.868393 240.78,250.928393 236.8,261.128393 C236.12,262.858393 236.94,265.178393 237.06,267.228393" id="Path"></path>
            <path d="M250.12,231.138393 C256.21,241.138393 261.62,251.458393 263.86,263.028393 C266.32,275.738393 261.4,286.298393 253.19,295.658393" id="Path"></path>
            <path d="M234,204.258393 C233.74,204.648393 233.27,205.028393 233.26,205.418393 C232.96,215.778393 232.26,226.168393 232.61,236.518393 C232.87,244.218393 234.49,251.878393 235.61,259.518393 C235.67,259.948393 236.34,260.298393 236.72,260.678393" id="Path"></path>
            <path d="M306.89,10.7283935 C290.75,7.09839349 276.89,8.31839349 267.08,26.5183935 C264.71,30.9383935 263.42,35.9383935 261.63,40.6783935" id="Path"></path>
            <path d="M306.51,12.2583935 C302.03,14.5683935 297.23,16.3983935 293.16,19.2583935 C286.89,23.7283935 285,30.9983935 283.15,37.9983935 C281.2,45.3783935 280.74,52.8383935 283.08,60.2683935 C283.18,60.5883935 282.85,61.0283935 282.73,61.4183935" id="Path"></path>
            <path d="M236.31,267.998393 C236.05,273.368393 235.51,278.758393 235.66,284.118393 C235.74,286.828393 236.89,289.568393 237.88,292.178393 C240.88,299.928393 244.56,301.228393 251.65,297.178393" id="Path"></path>
            <path d="M324.54,71.3983935 C319.64,73.1183935 315.03,71.0783935 310.35,70.2383935 C301.78,68.6883935 293.35,66.6383935 285.35,62.9783935 C285.19,62.8983935 284.85,63.2083935 284.59,63.3383935" id="Path"></path>
            <path d="M237.84,268.388393 C241.37,278.388393 245.79,287.998393 252.42,296.388393" id="Path"></path>
            <path d="M262,45.6683935 C267.68,52.3383935 274,58.1683935 282.31,61.4783935 C283.21194,61.954795 283.890672,62.7664008 284.2,63.7383935 C287.2,73.1783935 293.51,80.0783935 301.12,85.9983935 C302.48,87.0583935 303.78,88.1983935 305.52,89.6483935 C302.42,92.7683935 299.77,96.1483935 296.4,98.4783935 C294.69,99.6583935 291.54,99.4783935 289.27,98.9183935 C285.67,98.0683935 282.27,96.3983935 277.61,94.6283935 L269.67,103.628393" id="Path"></path>
            <path d="M317.63,72.9383935 C311.63,75.7517268 305.63,78.5717268 299.63,81.3983935 C299.080375,81.7267477 298.564536,82.1086024 298.09,82.5383935" id="Path"></path>
            <line x1="342.57" y1="65.9983935" x2="325.31" y2="70.6083935" id="Path"></line>
            <line x1="296.15" y1="82.9183935" x2="279.66" y2="94.8183935" id="Path"></line>
            <path d="M325.31,72.1683935 C326.181928,72.4868923 327.078181,72.7343653 327.99,72.9083935 C331.82,73.3483935 335.66,73.6983935 339.5,74.0883935" id="Path"></path>
            <line x1="315.72" y1="11.1083935" x2="307.85" y2="11.4983935" id="Path"></line>
            <line x1="295" y1="99.8183935" x2="289.63" y2="107.498393" id="Path"></line>
        </g>
    </g>
</svg>