<svg xmlns="http://www.w3.org/2000/svg" viewBox="0 0 665.43 216.93"><defs><style>.cls-1{fill:none;stroke:#000;stroke-linecap:round;stroke-linejoin:round;stroke-width:2px;}</style></defs><g id="Layer_2" data-name="Layer 2"><g id="Layer_1-2" data-name="Layer 1"><path class="cls-1" d="M239.11,178.39c3.18,1.63,6.43,3.12,9.49,4.93,2.28,1.35,2.87,3.59,1.53,6.11-3.56,6.67-7.35,13.21-11,19.83-.66,1.21-1.23,2.49-2.84,2.27s-2-1.73-2.59-3.05a46.32,46.32,0,0,1-3-15.18c-.63-11.56-.87-23.14-1.36-34.71-.34-7.8-.81-15.6-1.29-23.4-.22-3.73-2.65-6.47-6.41-6.62-6-.24-12-.12-18,0-3.17,0-6.34.4-9.52.48-11.31.29-22.62.51-33.94.79-9,.23-18,.41-27,.79-8.83.38-17.66,1-26.48,1.53a13.86,13.86,0,0,0-3.34.53c-3.54,1.13-5.08,3.86-4.64,7.94,1,9.43,1.89,18.88,3.14,28.28,1.13,8.52,2.63,17,4.09,25.46.69,4,1.69,7.89,2.55,11.83"/><path class="cls-1" d="M108.49,206.42a47,47,0,0,0,2.84,3.84c2.59,2.88,6.15,3.77,9.76,4.08,6.16.53,12.33.86,18.51,1,8.91.29,17.84.71,26.74.47,14.49-.4,29-1.23,43.46-2a58,58,0,0,0,9.76-1.56c1.51-.35,2.87-1.42,4.26-2.15-1.15-3-3.74-3-5.81-3.35a60.91,60.91,0,0,0-10-.83q-15.17-.15-30.34,0c-8.23.07-16.46.33-24.69.49-5.06.1-10.11.13-15.17.27q-12.74.33-25.46.78a10,10,0,0,0-2,.49"/><path class="cls-1" d="M511.94,87.62c-2.15-5.36-8.34-6.46-13.89-5.7-6.32.88-10.29,4.71-12.79,10.1a210.14,210.14,0,0,0-8.71,20.83c-4.6,13.61-8.71,27.39-12.91,41.13-.95,3.09-1.17,6.41-2.15,9.48-1.7,5.29-5.69,8.35-11,9.21-6.12,1-12.31,1.69-18.5,2.06-7.44.44-14.92.68-22.37.51-12.52-.28-25-.91-37.54-1.53a15.39,15.39,0,0,1-5.13-1.53c-1.95-.85-2.15-1.73-.76-3s3.23-2.6,4.86-3.88l2.31-1.8"/><path class="cls-1" d="M664.43,174.79c-4.37,0-8.74,0-13.12,0-6.94.06-13.88.16-20.82.25q-9.9.12-19.8.26c-11.49.16-23,.31-34.46.53-5.23.1-10.46.35-15.83.54-.14,1.49-.33,2.78-.36,4.07,0,2.49,0,5,0,7.46-.09,5-2,6.87-6.93,6.94-10.46.16-20.92.37-31.38.5-4.71.07-9.43,0-14.14,0-7.11.11-14.23.38-21.34.47a55.67,55.67,0,0,1-6.43-.5,3,3,0,0,1-2.78-2.56,45.56,45.56,0,0,1,.79-15.92c.36-1.56,1.5-2.94,2.25-4.31a3.36,3.36,0,0,1,3.06,3.26c.26,2.74.41,5.49.52,8.23.1,2.31.88,3.37,3.1,3.58,2.65.25,5.32.49,8,.51,13.29.14,26.58.28,39.86.24,5.23,0,10.47-.38,15.68-.77,2.66-.2,3.11-.75,2.81-3.3-1.18-9.95.21-19.89,0-29.83,0-1.46.22-2.92.23-4.37,0-2-1-3.11-3.07-3.09-4,0-7.89-.05-11.83,0-8.83.14-17.66.19-26.49.55-7.8.31-15.61.87-23.39,1.57-2.1.19-4.12,1.31-6.18,2a11.25,11.25,0,0,1-1.54.26"/><path class="cls-1" d="M375.14,164c7.88,6,22.9,4.41,27.56-3.57,2.53-4.34,2.74-9,2.18-13.64a105.38,105.38,0,0,0-12.53-38.32C386.9,98.59,380,89.84,370.74,83.29c-5.19-3.66-10-2.85-13.82,2.3C353,91,349.43,96.6,345.53,102a26.74,26.74,0,0,1-5.67,6.13c-5.09,3.66-9,3.34-15.31-.79-6.7-4.4-11.84-10.54-15.95-17.43a5.42,5.42,0,0,1-.72-3.79c.48-1.74,2.33-1.29,3.75-1.32a9.1,9.1,0,0,1,1.28,0c7.12,1,14.21,2.29,21.36,3A40.17,40.17,0,0,0,344.79,87c3.09-.55,4-2.84,2.57-5.57s-2.73-5.15-4.1-7.72"/><path class="cls-1" d="M108.49,206.68A8.55,8.55,0,0,1,97.38,200c-1-5-.55-9.93-.26-14.92a52.93,52.93,0,0,0-.26-9.25c-.57-4.86-4.36-6.5-8.43-7.73-2.67-.81-5.37-1.58-8-2.59-3.66-1.43-4.38-4.71-4.16-7.95.48-7,3.3-13.28,6.18-19.55A35.29,35.29,0,0,1,91,125.89c4.22-3.74,9.27-4.51,14.44-4.25,9.78.5,19.54,1.54,29.32,2.2,3.67.24,7.37,0,11.05,0,10,.22,20.06.58,30.09.71a60.29,60.29,0,0,0,9.76-.76c5.28-.8,6.5-4,3.35-8.44a26.31,26.31,0,0,0-10.55-9c-3.47-1.56-6.91-3.4-10.56-4.28-6.53-1.58-8.3.39-10.28,5.54-1.27,3.3-2.55,6.61-4.14,9.76-1.69,3.34-4.71,5.29-8.42,4.56-6.17-1.22-7.31-3.69-7.87-8.15a37.21,37.21,0,0,1,.48-10.52c.55-3.3,3.41-5,7.11-5.16a54,54,0,0,0,8-.32c3.76-.67,4.93-2.31,4.87-6.1,0-3.18-.28-6.35-.49-9.52-.19-2.78.68-5,3.35-6.17a4.89,4.89,0,0,0,1-.52c3.11-2.55,2.65-2.7.26-4.88a11.4,11.4,0,0,1-3.65-8.23c-.43-7.28-1.84-14.34-6.9-20-3.72-4.19-8.48-6.52-13.86-8.05a47,47,0,0,0-28.81.59,19.59,19.59,0,0,0-9.71,6.72c-2.18,3-2.21,6.67-2.1,10.24.06,2.06.37,4.11.48,6.17a23.68,23.68,0,0,1-7.65,19.08c-2.78,2.7-5,6-7.52,8.94A5.93,5.93,0,0,0,81.18,93c-11.46,9.14-19.73,20.58-26.42,33.24A113.35,113.35,0,0,0,43,159.9c-.8,4.64-1,9.56,1,14.11a17,17,0,0,0,8.74,9c8.77,3.9,18.07,4.39,27.49,3.61a58.19,58.19,0,0,0,8-1.31,11.8,11.8,0,0,0,2.91-1.62c-1.36-2.73-3.66-3.29-5.74-3.66-5.88-1-11.79-2.05-17.74-2.56s-12-.44-18-.56a14.7,14.7,0,0,0-2.83.48"/><path class="cls-1" d="M555.66,82.48a189.47,189.47,0,0,1,14.94,26.21c4.75,10.23,7.86,20.78,7.7,32.16-.09,6.25-2.81,10.22-8.21,12-2.39.77-5.07,1.27-7,3.43-2.33,2.57-1.95,5.39-1.46,8.27.55,3.27,2.8,5,5.89,5.65a70.59,70.59,0,0,0,20.31,1c3.52-.31,7.06-.51,10.54-1.06,7.23-1.15,10.29-4.19,9.94-11.79A227.44,227.44,0,0,0,606,135.2c-1.39-9.3-3.73-18.47-5-27.79-1.53-11.5-8.3-18.08-18.61-21.84-5-1.84-10.08-3.7-15.18-5.38-4.7-1.54-8.94-.47-12.87,2.52-3.24,2.45-6.62,4.73-10,7-5,3.24-10.35,3.39-15.93,2.08-1.7-.39-3.42-.79-5.15-1-2.79-.36-4.22.67-4.59,3.58-.48,3.84-.81,7.71-1,11.57a50.94,50.94,0,0,1-10.52,27.8c-4.38,5.9-10.28,8.62-17.26,9.78-3,.51-6.17,1.15-8.21,3.84a10.6,10.6,0,0,0-1.3,2.81c-.41,1.18-.7,2.4-1,3.6"/><path class="cls-1" d="M479,154a6,6,0,0,1-.79,1.53c-2.14,2.17-2.71,4.74-2.65,7.73,0,1.72-.75,3.42,1.37,4.38,2.75-2,3.65-7.86,1.81-11.84"/><path class="cls-1" d="M81.23,92.51c2-1.2,4-2.29,5.9-3.62,4.76-3.37,9.61-6.63,14.1-10.34,3.32-2.74,4.27-6.66,3.68-11-.63-4.7-1.09-9.42-1.56-14.14-.62-6.25,3.2-11.66,9.77-13.88a38.68,38.68,0,0,1,21.09-1.1c3.63.79,7.11,1.47,10.32,3.61,4.86,3.24,4.51,6.36,2.46,10.31a45.92,45.92,0,0,1-5.1,7.21c-1.67,2.08-3.63,3.92-5.36,5.95-3.34,3.91-3.53,8.22-1.59,12.86a58.09,58.09,0,0,1,2.32,6.93c.75,2.67.29,3.45-2.29,4.62a35.9,35.9,0,0,0-4.09,1.84c-3,1.87-3.3,5-3.65,8.19-.6,5.43-1.73,10.62-5.57,15-3.45,3.91-11.72,4.66-16.3.25a21.43,21.43,0,0,1-4.77-7.79c-1.17-2.85-3.13-4-6-4.67-5.11-1.3-9.81-3.53-13.12-7.91A5.32,5.32,0,0,1,81,93.54"/><path class="cls-1" d="M343.51,73.22c-1.1-3.66-.13-7.22.51-10.8a84.3,84.3,0,0,0,1.32-21.86,5,5,0,0,0-3.57-4.77c-1.83-.74-3.27-2.66-4.65-4.25-1.6-1.85-2.9-4-4.42-5.88-2.14-2.7-5-2.67-8-1.81-6.28,1.82-9.87,6.43-12.31,12.1-1.55,3.61-2.75,7.37-4.17,11a5.9,5.9,0,0,1-1.27,1.8c-2.21,2.36-3.61,2.07-5.42-.74s-2.1-6.3-2.2-9.54c-.26-8.17,0-16.38,3.83-23.88a35.69,35.69,0,0,1,4.88-6.93,7.13,7.13,0,0,1,6.63-2.58c3.55.57,6.48-1.21,9.49-2.41a20.79,20.79,0,0,1,18.27.87c1.39.73,3,1.58,3.79,2.84,3.11,5.26,8,8.11,13.18,10.78A56.38,56.38,0,0,1,365.62,21c5.13,3.61,5.91,8.78,4.58,14.37-1,4.1-2.66,8-3.75,12.11-.77,2.85-.84,5.89-1.65,8.72-1.5,5.25-5.07,9-9.43,12.14a27.93,27.93,0,0,1-10.8,4.71c-5.08,1.11-9.93,3.28-15,4.71-4,1.13-7.9,1.14-10.92-2.35-6.38,2-12.7,3.83-18.87,6A56.67,56.67,0,0,0,280,93.31c-5.23,4.86-8.4,11-10.87,17.7a168.73,168.73,0,0,0-7.57,29.6c-1.25,7.09-1.88,14.34-.63,21.59A20,20,0,0,0,266.1,173a16.88,16.88,0,0,1,1.56,2.3"/><path class="cls-1" d="M507.31,43.39c-3.79.72-6.35-2.39-4.83-6.15a43.27,43.27,0,0,1,3.84-7.2A44.24,44.24,0,0,1,521,16.17c3.73-2.26,7.94-1.9,11.77-.69a44.23,44.23,0,0,0,11.87,2c4,.14,7.45,2,10.52,4.36a73.71,73.71,0,0,1,17.5,19c3.84,6.1,3.36,12.37-1.85,18.72a39.1,39.1,0,0,1-11.26,9.8,4.45,4.45,0,0,1-5.65-1c-2.56-2.58-3.05-5.85-3.08-9.26,0-2.83.07-5.66,0-8.49A16.17,16.17,0,0,0,550,47c-.71-2.49-2.84-3.33-4.56-1.49a96.6,96.6,0,0,0-6.1,7.91"/><path class="cls-1" d="M531.23,75.79a29.26,29.26,0,0,1,1-3.33c1.22-2.77,2.78-5.41,3.78-8.26,1.55-4.42-.18-8.35-2.52-12.06-2.47-3.94-5.6-7.51-6.92-12.09-.54-1.86-.85-3.78-1.31-5.66-.66-2.66-2-4.93-4.89-5.32-2.69-.37-4.89,1.12-6.38,3.29A60.3,60.3,0,0,0,510.92,38c-.37.68-.51,1.63-1.06,2-2.88,2-1.95,4.56-1.31,7.25.75,3.15.6,6.24-2,8.76A10.56,10.56,0,0,0,505,58.57c-1.29,2.33-1.18,2.67,1.54,3.58a6.4,6.4,0,0,1,4.38,4.9c.8,3.1,1.54,6.23,2.6,9.24,1.14,3.23,3.06,4.84,6.9,4.42a18,18,0,0,1,3.34.23"/><path class="cls-1" d="M286.43,162.19a65,65,0,0,0,1.5-17c-.12-3.9-.08-7.87-1.75-11.57-1-2.28-1.76-2.4-3.36-.52-2.22,2.62-2.17,5.92-2.51,9a32.8,32.8,0,0,0,2.82,18,13.77,13.77,0,0,0,2.53,2.85"/><path class="cls-1" d="M539.46,52.65c-2.83-3.94-5.79-7.8-8.42-11.87a12.65,12.65,0,0,1-1.55-5.11c-.26-1.85.25-3.83-.12-5.64-1.12-5.48-6.37-9.52-13-4.82a24.4,24.4,0,0,0-8.31,9.69,7.79,7.79,0,0,0-.23,6.44"/><path class="cls-1" d="M319.09,75.54c2.6-3.63,2.4-8,3.07-12.09a22.21,22.21,0,0,0,.26-2.83c.06-1.76-.44-3.19-2.3-3.87-2.24-.8-2.38-2.22-1.61-4.38,1.49-4.21,2.76-8.52,3.86-12.85a20,20,0,0,0,.26-5.64,7.41,7.41,0,0,0-1-2.32,6.73,6.73,0,0,0-2,1.06,30.51,30.51,0,0,0-5.44,10c-1.85,5.16-3.43,10.36-3.35,15.94s1.59,10.67,5.4,14.93a14.83,14.83,0,0,1,1.3,2.05"/><path class="cls-1" d="M44.46,176.46a21.3,21.3,0,0,1-2.83.37c-5.66,0-11.32,0-17,0-7.89,0-15.77.16-23.66.25"/><path class="cls-1" d="M373.6,162.71c-4-4-5.6-9.15-6.61-14.42a38.61,38.61,0,0,1-.07-16.44,9.3,9.3,0,0,1,.52-1.54c1.58-3.58,3.56-4,5.31-.73,4.16,7.81,7.07,16,6,25.16a13.79,13.79,0,0,1-4.12,8"/><path class="cls-1" d="M286.94,162.19c-1.43,1.6-1.46,2.1,0,3.08,4.27,2.85,8.59,5.63,12.84,8.51,2.64,1.78,2.53,3.48-.53,4.54a30.86,30.86,0,0,1-8.46,1.79c-5.75.28-11.56.29-17-2.25a12.31,12.31,0,0,1-1.81-1.27"/><path class="cls-1" d="M285.91,165.28c-2,3.34-3.88,6.84-7.72,8.46-1.74.74-3.59,1.22-5.39,1.82"/><path class="cls-1" d="M272.54,175.82c-.17.17-.41.53-.5.49-4.16-1.59-8.22.49-12.36.37s-8.05.45-12.08.67c-1.45.08-2.91,0-4.37,0-1.13,0-2.19.08-2.57,1.42"/><path class="cls-1" d="M511.69,88.91c-3.5,3.31-4.82,10.7-2.54,14.89.41.75,1.34,1.22,2,1.82.6-.77,1.53-1.46,1.75-2.33a22.08,22.08,0,0,0-1.08-15.07c4-1.78,8.54-2.58,11.67-6"/><path class="cls-1" d="M532.77,75.79A25.58,25.58,0,0,0,541,68.36a11.81,11.81,0,0,1,2.53-2.08"/><path class="cls-1" d="M543.83,64.74c-3.16-2-3.45-8.2-.28-10.32,2-1.31,3.84-.76,4.1,1.58a8.76,8.76,0,0,1-2,7.19c-2.18,2.44-2.21,2.47-.25,5.14,3.23,4.39,6.51,8.75,9.76,13.12"/></g></g></svg>