<svg xmlns="http://www.w3.org/2000/svg" viewBox="0 0 420.2 420.35"><g id="Layer_2" data-name="Layer 2"><g id="Layer_1-2" data-name="Layer 1"><path d="M326.57,326.26a123,123,0,0,1-10.76,30.11c-12.13,23.17-30.09,40.41-53.34,52.25a104.15,104.15,0,0,1-47.55,11.73,112.09,112.09,0,0,1-44.25-8.89c-31-13.09-54.27-34.54-69.07-64.84-3.34-6.84-5.66-14.17-8.67-21.82-.64-.22-1.86-.7-3.11-1.07-21.18-6.2-39.92-16.66-55.47-32.38-17.48-17.67-28.18-39-32.41-63.45A129.62,129.62,0,0,1,0,209.06c-.65-26.79,8.34-50.31,25.17-70.89,17.71-21.65,40.29-36,67.17-43.64.64-.18,1.27-.4,1.89-.64a5,5,0,0,0,.7-.37c2.69-7.13,5-14.27,8-21.06,15.87-35.27,42.57-58.11,79.84-68.41a109.48,109.48,0,0,1,32.6-4,107.22,107.22,0,0,1,62.51,22.13c22.25,16.75,37.32,38.62,46.15,64.92.58,1.74,1.12,3.48,1.7,5.22a10.11,10.11,0,0,0,.58,1.16c1,.34,2.27.8,3.54,1.13C370,105.08,397.31,130,413,168.06a98.82,98.82,0,0,1,6.78,47c-2,22-9.77,42.05-22.49,60.1-15.58,22.09-35.8,38.33-61.22,47.88-1.56.58-3.14,1.1-4.72,1.63S328.21,325.71,326.57,326.26ZM211,240.65c3.71-3.05,6.43-6.89,9-10.57-2-2.16-3.73-4.05-5.59-6.05l-6.55,5.27c1.21,4.29,2.22,7.88,3.22,11.48-1.32-.9-2.72-1.7-3.95-2.71-1.6-1.3-3.08-2.76-4.85-4.38l-7.06,8c4.5.25,8.85.49,13.2.71A2.14,2.14,0,0,0,211,240.65Zm116.41,82.27c2-.57,3.48-.88,4.87-1.37,2.5-.89,5-1.76,7.45-2.84q56.31-25.08,73.77-84.2a100.19,100.19,0,0,0,1.92-48.92c-8.26-40.2-41.05-77.38-84.87-88-1-.25-2.1-.34-3.35-.54,8.51,42.73-.68,80.26-30.46,112.34C323.79,242.42,333.64,280.17,327.37,322.92ZM96.78,325.74a92.81,92.81,0,0,0,7.64,20.71c16.69,32.55,42.41,54.69,77.18,66A101.33,101.33,0,0,0,232.36,416c22.23-4.19,41.29-14.6,57.69-29.95a113.28,113.28,0,0,0,32.48-54.62,31.2,31.2,0,0,0,.53-4.21Q258.26,341,211.65,295.88c-4.55,4.25-8.54,8.55-13.1,12.11-16.84,13.14-36.56,18.66-57.43,20.68a133.27,133.27,0,0,1-32.84-.94C104.7,327.19,101.14,326.5,96.78,325.74Zm226.07-233c-.22-1.07-.29-1.57-.43-2-8-26-22.41-47.84-43.83-64.7-19.43-15.3-41.54-23.63-66.49-23.2A124.86,124.86,0,0,0,191.78,4.9a114.62,114.62,0,0,0-59.31,29.91C116.38,50,105.74,68.65,99.31,89.75a9.37,9.37,0,0,0,0,2.7c42-7.56,78.79,2,109.84,31.05C242.48,96.4,280.18,86.42,322.85,92.78ZM124.59,211.63l-4.49-4.19A69.46,69.46,0,0,1,108,192.92c-14.42-23.68-18.72-49.54-16.34-76.77.55-6.39,1.71-12.72,2.62-19.35-.82.19-1.44.29-2,.47a131.3,131.3,0,0,0-52.3,29.21,114.4,114.4,0,0,0-31,45.29C1.75,190.91,1.05,210.48,5,230.28A114.92,114.92,0,0,0,36,289.13a121.36,121.36,0,0,0,40.42,27c5.13,2.15,10.32,4.29,16.21,5.34C84.24,279.28,94.41,242.71,124.59,211.63ZM96,322.42a121.76,121.76,0,0,0,29.17,4.17,127.38,127.38,0,0,0,32.23-3.07c14.1-3.13,27.4-8.27,39-17.14a54.09,54.09,0,0,0,13-13.25c-13.58-15.1-24.16-31.87-30-51.58-9.71-2.85-19.15-6.15-27.7-11.38S135,219.38,126.61,214C97.25,241.26,85.91,284.33,96,322.42ZM97.78,96.27a9.74,9.74,0,0,0-.54,1.28,139.21,139.21,0,0,0-2.38,49.08,111.51,111.51,0,0,0,13.36,41.51,69.93,69.93,0,0,0,18.69,21.51c15.16-13.77,32.16-24.26,51.81-30.23,5-20.33,11.92-39.42,28.22-53.43C179.56,96.17,131.59,86.32,97.78,96.27ZM324.19,323.72c4.23-20.51,3.09-40.73-2.33-60.74a127,127,0,0,0-27.47-51.74,117.57,117.57,0,0,1-24.57,17.84c-8.92,4.94-18.5,8.22-28.37,11.31-2.66,9.7-6.07,19.1-11.22,27.69s-10.91,17-16.43,25.54C241.53,323.49,285.45,334.55,324.19,323.72ZM294.81,207.1A112,112,0,0,0,325,150.94c4-18.45,3.87-36.83-1.24-54.86-41.26-8.6-87.24,5.82-112.46,30,14.34,14.94,23.27,33,28.65,51.81,10.55,3.81,20.35,7,29.87,10.88C279.45,192.67,287,199.86,294.81,207.1Zm-45.34,27.58c13.77-3.49,35.8-16.69,42.77-25.81-13.56-15.43-31.47-22.44-51.27-27,.89,4.06,1.63,7.45,2.42,11,3.67,3,7.46,6,11.14,9.08s7.09,6.33,11.08,9a78.54,78.54,0,0,0-4.56-7.24c-1.59-2.34-3.29-4.62-4.72-7.05-1.34-2.26-3.83-3.93-4.24-7.55A158.4,158.4,0,0,1,281,207.84c-.81-3.39-4-4.82-3.79-8.12a22.81,22.81,0,0,1,8,14c-9.08-7.59-17.75-14.54-28.75-20,3.58,5.21,6.59,9.4,9.38,13.72s6.06,8.07,8,12.86c-10.21-7.59-19.17-16.56-29.51-24.05-.87,2.48.7,3.69,1.67,5.19q5.82,9,11.47,18.11a14.64,14.64,0,0,1,1,3l-.86.74c-4.26-3.09-7.87-7.07-12.48-10.17-.28,3.59-.52,6.73-.76,9.82Zm-14.69-64.1c-5.74-16.27-13.87-30.67-25.72-42.89-15.69,13.67-22.57,31.32-27.17,50.73l11.22-2.2,17.5-21c-7.49,3.78-13.88,9-21.2,12.86C194,158,200,148.82,206.26,139.71l-5.92,3.69-.64-1.09a26.65,26.65,0,0,1,13-7.18c-3.15,4.72-6.79,9-10,13.49s-6.16,9.59-9.22,14.4a135.7,135.7,0,0,0,13.28-8.31l12.8-8.8.86,1c-2.18,3.41-5.37,6-8,9.13-2.78,3.31-5.66,6.54-8.44,9.85-2.58,3.07-5.08,6.2-7.74,9.46,2.7.93,4-.53,5.49-1.54,4.84-3.24,9.67-6.48,14.61-9.55a11.53,11.53,0,0,1,7.27-2.27L213,174.61C221.12,176.42,222.07,176.25,234.78,170.58ZM211,290.8c9.39-8.27,26.93-39.44,26.41-49-2.45-.54-4,.73-5.56,2.42-7.08,7.74-14.23,15.4-21.34,23.11-.81.88-1.54,1.85-2.3,2.78a75.25,75.25,0,0,0,10.67-6.42c3.46-2.3,6.44-5.49,11.87-6.61-2.47,3.95-4.33,7-6.31,10.07s-4,6.11-6.23,9-3.67,6.05-7.08,7.71a117.34,117.34,0,0,1,7.23-11,83.76,83.76,0,0,0,7.23-11.49c-4.2,2.6-8.07,5.49-12.09,8.14-3.86,2.54-7.42,5.74-12.41,6.36a47.82,47.82,0,0,1,5.76-7.42c6.65-7.22,13.36-14.39,20-21.62a23.81,23.81,0,0,0,2-2.84,205,205,0,0,0-35.86,22.1A131,131,0,0,0,211,290.8Zm-60.37-82c3.52,7.37,8.76,13.37,12.83,21-1.46-.17-2.2,0-2.64-.34q-12-8.16-23.81-16.44c-.46-.32-.55-1.18-1.26-2.85,8.07,5.76,14.89,11.21,22.7,15.24a40.84,40.84,0,0,0-3.09-5c-3.26-4.82-6.55-9.62-9.71-14.51-.91-1.4-2.3-2.86-1.11-5.38,5.37,4.93,10.36,9.8,15.65,14.32s9.64,9.8,15.69,13.39a199.52,199.52,0,0,0-21.54-34.75c-6.43,2.55-18.62,11.34-25.2,18.12,14.65,11.71,30.26,21.4,48.78,26.6a7.69,7.69,0,0,0-2.68-7c-7.39-6.73-14.65-13.59-22-20.38C152.42,210.14,151.48,209.51,150.6,208.83Zm81.29,10.68-6.61,7.75c1.67,4.1,4.33,7.31,4.58,11.86-2.65-2.56-5.31-5.11-8.09-7.78-3.13,3.71-6.19,6.78-8.83,11,4.66-.55,8.58-1.35,12.52-1.39,4.4-.06,7.63-2.8,11.31-4.34l1.6,2.3c2-3.69,2.13-7.1,2.4-9.6Zm-57.2-11.75c.52-5.69,1-10.79,1.41-15.56l-2.5-4.36,3.15.49c.34-1.71.69-3.42,1.13-5.64a99.92,99.92,0,0,0-22.23,9.45Zm8.29,34.9c1.53,7.73,6.33,18.14,9.61,21,4.88-6,10-11.71,15-18.49l-16-1-3.81,2.65v-3.62Zm7.79-1.92,8.13-10.17L189.15,222l-9.66,7.21c1.41,2.72,2.68,5.15,3.91,7.5l-2.59,1.33C184.47,240.19,185.33,240.42,190.77,240.74Zm-4.67-38.29-7.41-8a88.37,88.37,0,0,0-.8,15.87l9.55,7.91c2.32-2.1,4.39-4,6.72-6.12-2.09-2.57-4-5-6-7.39l-3.82,2-.46-.58Zm3.71-21.94-.41-.86-8.4,2.14c-.66,3.16-1.23,5.89-1.87,8.89L189.46,199l8.59-10-4.4-5.45c-4.24,1.77-6,6.37-10.7,7Zm39.08,3.88.94-1,10.31,7c-.87-3.53-1.61-6.49-2.34-9.45l-9.75-1.51-8.33,8.92,7.65,6.69,7.13-3.91Zm-22.95,15.72-5.11-6.92c-3.41,2.63-6.39,4.84-8.81,8l6.45,5.28C201.17,204.18,203.43,202.26,205.94,200.11Zm-6.77,58.47.46.26,21.63-13.72-.26-.59-10.72.49ZM161.7,199.4l-.47.36c2.26,3.46,4.55,6.9,6.77,10.39s4.28,6.88,6.87,11.06v-11Zm69.54-1.1,10.46,9.11c.77-6-.33-10.81-5.59-14.23Zm-28,27-6-9.07L190.67,221l9.45,8.09Zm25.08-23L223,207l4.91,6.58,6.7-3.24ZM223.68,197l-5.88-6.76L211,197.28l5,4.51Zm-11.36-12.91L204,190.36l5.75,5.39c2.31-2.65,5-4.4,6.34-7.29Zm-26.06,35.68-8.41-7.13c.3,5.31-.49,9.71,1.27,13.45Zm16.42-31,15.57-10.83h-8.1C207.37,181.26,204,184.11,202.68,188.74Zm-2.38-2.35,7.29-8.3h-8.33l-4.15,3.52Zm8.76,32.55-6.68-6.34-3.46,2.79,5.55,8.46Zm1.47-11.65-6.47,4.36,6.35,5.83,3.84-4.68C213,210.9,211.87,209.28,210.53,207.29ZM237.12,214l-4,4.41,8.12,7.78C242.62,220.88,239.27,218.15,237.12,214ZM225.9,179.09c-5.46-1.44-8.3,2.08-12.07,4.11l4,3.49Zm-9.26,34.32,3.32,4.73,5.7-3.47-4.93-5.92Zm4,6.39c1.32,2.12,2.4,3.84,3.6,5.75l6.28-7.09-3-2.62Zm-3-53.45-.76-.69-13.52,9,.32.64,6.87-.59ZM245,210.19c1.53,1.33,2.89,2.54,4.29,3.71s2.85,2.31,4.28,3.47c-1.78-5.22-4.78-9.37-8.57-14.3Zm-37.9-8-6.77,6.08,2.44,2.1,6.76-4.66ZM220.53,206l5.94-5.29L225,198.54l-7.75,4.61Zm9.66-6.18-.89.71,7.21,9.37,3.3-1.7Zm-18,6.64,3.5,5.21c1.31-1.51,2.34-2.72,3.55-4.12l-3.83-3.38Zm-5.94,21.68,6.95-5.5-3-2.25C208.59,222.69,205.54,223.85,206.28,228.11Zm16,.95c.15-4.07-1.74-5.9-3.38-8.09l-2.55,2Zm-6.93-14.47-3.55,4.25,2.85,2.67,3.42-2.32Zm-19.76-3.66,1.74-2.93c-2.75-1.61-4.16-4.73-8.5-5.48Zm14-12.77c-1.84,3.57.58,4.7,1.77,6.45l2.48-1.68Zm33.83,33.1c-.45,2.45-.74,4-1.11,6l5.69-2ZM237.06,178c-.73-2.19-1.22-3.62-1.72-5.13l-4.45,3.79Zm1.38,34.86L241.8,218v-8.78Z"/></g></g></svg>