<svg xmlns="http://www.w3.org/2000/svg" viewBox="0 0 845.69 442.24"><g id="Layer_2" data-name="Layer 2"><g id="Layer_1-2" data-name="Layer 1"><path d="M411.93,190.43v3.91A36.56,36.56,0,0,1,408.09,210c-1.17,2.46-1.69,2.51-3.84.81-4.72-3.73-10.1-4-15.66-2.72-6,1.4-11.29,4.41-16.72,7.13a65.68,65.68,0,0,1-7.28,3.25c-6.93,2.48-13.25.62-18.26-4.16-5.7-5.43-11.76-6-18.61-3.41-2,.75-3.92,1.8-5.87,2.74-1.75.84-2.42.62-2.79-1.32-2.46-12.81-3.38-25.64.89-38.27,2.38-7.05,1.65-13.9-.14-20.88a80.5,80.5,0,0,1-1.86-26.8,174.24,174.24,0,0,1,4.71-28,5.23,5.23,0,0,0-.08-1.22A21,21,0,0,0,321,98.75a60.91,60.91,0,0,0-9.75,19.84,109.54,109.54,0,0,0-4.63,31.77c0,2.69,0,2.79-2.64,3.3-6.95,1.37-13.91,2.65-20.86,4-1.88.35-3.79.59-5.65,1.06s-2.83-.26-3.81-1.58a30.66,30.66,0,0,1-5-11.09,79.76,79.76,0,0,1-2.2-28.25C268,104,275.11,96.44,287.6,93.6a25.39,25.39,0,0,0,4.48-1.51c4.5-2,6.66-6,8.16-10.25A77.67,77.67,0,0,0,303.1,71a5,5,0,0,1,3.12-4.12c1.15-.48,2.28-1.05,3.46-1.45a1.91,1.91,0,0,0,1.43-2.65c-1-4.37-2.1-8.75-2.93-13.16-.87-4.58-1.61-9.19-2.18-13.81a26.44,26.44,0,0,1,1.21-11.6,20.39,20.39,0,0,1,13.26-13.3,35.64,35.64,0,0,1,24.5.16c8.81,3.2,14.39,9.8,17.69,18.26,1.68,4.31,2.41,9,3.55,13.49a4.38,4.38,0,0,1,.08,1.49c-.14,1.49-.91,1.94-2.19,1.16-1.62-1-3.1-2.26-4.74-3.24q-6-3.59-12.08-7c-2.39-1.34-4.6-.83-6.68.91a47.7,47.7,0,0,0-8.76,10.51c-2.13,3.21-2.19,3.2-4.63.26a4.93,4.93,0,0,0-2.7-1.92c-1.45-.12-1.89,1.48-2.29,2.61a13.21,13.21,0,0,0,0,8.36,17.67,17.67,0,0,0,1.27,3c1.83,3.65,1.84,3.64-2,4.93-1.81.61-3.61,1.27-5.44,1.83-1.07.32-1.57.92-1.27,2,.9,3.26,1.34,6.67,4,9.23a64.35,64.35,0,0,1,5,5.86,10.51,10.51,0,0,1,1,1.75l.84-.44a13.23,13.23,0,0,0,.65-1.68,50.41,50.41,0,0,1,9.15-19.79c7.43-9.58,17.13-13,29-10.53a42.9,42.9,0,0,1,17.94,7.76c6.54,5.06,10.72,11.75,13.46,19.44a77,77,0,0,1,3.59,16.57c1.43,11.65,2.86,23.31,4.19,35,.78,6.78,1.36,13.59,2,20.39.26,2.64.23,2.62,2.72,2.9q22.59,2.6,45.18,5.19,18.5,2.1,37,4.13a3,3,0,0,0,1.64-.3,7.78,7.78,0,0,0-1.51-.79Q468.32,156,446,149.59c-10.88-3.12-21.75-6.3-32.62-9.45a3.55,3.55,0,0,1-1.18-.36c-.42-.32-1-.82-1-1.23a1.69,1.69,0,0,1,1-1.19c2.07-.64,4.17-1.16,6.27-1.69,2.75-.69,5.48-1.44,8.25-2a3.56,3.56,0,0,0,2.92-2.69c1.54-4.58,3.13-9.13,4.67-13.7a6,6,0,0,1,2.48-3.3c3.69-2.42,7.3-5,10.95-7.43a7.73,7.73,0,0,1,1.49-.91c.42-.15,1.14-.23,1.35,0a2.28,2.28,0,0,1,.42,1.53,4,4,0,0,1-.58,1.36c-2,4.39-4,8.77-6,13.17-1.83,4-1.19,8,.6,11.81a4.71,4.71,0,0,0,4.91,2.8,16.39,16.39,0,0,0,5.56-1.24c7.12-3.5,13.86-2.25,20.18,1.7,3.7,2.32,7,5.38,10.35,8.18a13.31,13.31,0,0,1,1.83,2.53c.9-1.33,1.41-2,1.79-2.66,3.76-7,6-14.23,5.06-22.28-.57-5,.91-9.6,3.23-13.91,1.66-3.07,3.67-5.94,5.53-8.9.38-.59.77-1.18,1.45-2.2-1.4.14-2.27.21-3.14.32-6.21.82-11.93-.12-16.87-4.33-1.77-1.51-2.85-3.08-2.65-5.54a56.15,56.15,0,0,0-.05-6.74,2.24,2.24,0,0,1,1.55-2.51c6.25-2.37,9.25-7.24,10.4-13.56A98.88,98.88,0,0,0,495,39.53a5.48,5.48,0,0,0-2-3.89c-3.39-2.79-6.84-5.53-10.42-8.09-2.2-1.57-4.67-2.76-7.18-4.22a6.9,6.9,0,0,0-.6,1.43c-.62,6.24-4,10.94-8.76,14.56-2.76,2.11-3.77,4.72-4.19,7.82a33.23,33.23,0,0,0,1.54,15.74,64.79,64.79,0,0,1,3.72,20.06,12.43,12.43,0,0,1-5,10.39A44.74,44.74,0,0,1,448,100.58c-3.71,1.23-7.5,2.22-11.28,3.2a3.23,3.23,0,0,1-2.51-.2c-1-.85,0-1.84.46-2.65a90.05,90.05,0,0,0,8-18.8,61.43,61.43,0,0,0,2.61-22.95c-.57-6.55-1.12-13.11-1.5-19.68-.29-5,0-10,2-14.72,3.59-8.16,9.51-13.3,18.62-14.3,10-1.11,19.23.93,27.15,7.45,7.19,5.91,10.46,13.84,11.12,22.92a92.65,92.65,0,0,1,0,10,23.57,23.57,0,0,0,3.49,13.57,17.58,17.58,0,0,1,1.43,16.94,2.34,2.34,0,0,0,.33,2,27.79,27.79,0,0,0,3.85,4.25,9,9,0,0,0,3.35,1.46C520.45,90.6,525.24,93,529,97.11c2.91,3.21,4.26,7.09,5.06,11.24a69.32,69.32,0,0,1,.9,19.17c-.53,6,.58,11.74,2.14,17.46A96.82,96.82,0,0,0,540,154.7a3,3,0,0,0,.13-.65c-.47-7.71,2-14.8,4.89-21.73,5.86-13.9,14-26.45,22.92-38.55a5.36,5.36,0,0,1,3.57-2c6.76-1.44,13.51-3,19.68-6.27a22.82,22.82,0,0,0,11.23-12.85c.36-1,.53-1.85-.44-2.69-3.1-2.7-4.24-6.48-5.39-10.24a18.14,18.14,0,0,1-.7-2.91A4.45,4.45,0,0,0,593.64,53a5.79,5.79,0,0,1-2.14-3.51,67.19,67.19,0,0,1-1.26-8.12,6.49,6.49,0,0,1,1.4-4.66,5.42,5.42,0,0,0,.77-3c.05-3.66-.16-7.33-.08-11a24.42,24.42,0,0,1,3.71-13A22.07,22.07,0,0,1,618.23.33c9.58,1.66,14.62,7.92,17.39,16.59a61,61,0,0,1,2.6,15.23,4.2,4.2,0,0,0,.83,2.46,6.65,6.65,0,0,1,1.78,4.8,81.28,81.28,0,0,1-.85,8.67,4.65,4.65,0,0,1-1.31,2.63,6.55,6.55,0,0,0-1.91,4.47c-.55,4.17-1.38,8.21-4.18,11.57-.82,1-.42,2,0,3.07,2.73,7,7.65,12,14.08,15.63,7.51,4.23,15.57,7.16,23.72,9.85,5.69,1.87,5.79,1.78,7.78,7.38,3.27,9.18,6.34,18.43,8,28.08a121.19,121.19,0,0,1,1.3,22.92c0,.92,0,1.84-.07,2.75a2,2,0,0,0,1.5,2.26c7.61,2.94,15.19,5.94,22.79,8.87,1.5.57,3.09.91,5,1.46-.07-1.13-.1-1.77-.15-2.4-.1-1.41-.32-2.82-.31-4.23a6.72,6.72,0,0,1,4.34-6.65,52.22,52.22,0,0,0,5.7-3.08,2.85,2.85,0,0,0,1.51-3.16c-.47-2.52,1-4,3-4.91a55,55,0,0,1,7.48-2.77c3.93-1.15,5.73-1.64,2.8-6.84-1.56-2.75-3.34-5.38-4.83-8.17a18.47,18.47,0,0,1-1.74-4.9c-.85-4.24,1.31-7.2,5.57-7.84,2.14-.32,4.3-.52,6.44-.84,4.33-.66,6-3.53,4.29-7.6a28,28,0,0,0-2.1-3.67c-.82-1.35-1.72-2.65-2.53-4a15.42,15.42,0,0,1-.9-14.38,53.3,53.3,0,0,0,3-9c1.68-8-.42-15.53-3.92-22.7a59.57,59.57,0,0,0-8-12,4.17,4.17,0,0,0-3.92-1.61,15.8,15.8,0,0,0-9.21,4,27.67,27.67,0,0,0-8,13.58,35.62,35.62,0,0,0,1.09,23.75,19.64,19.64,0,0,1,1.62,8.27,3.16,3.16,0,0,0,1.06,2.3,15.86,15.86,0,0,0,4.83,3c4.3,1.28,5.57,5.27,4.52,9.23a11.87,11.87,0,0,1-8.79,9,24.9,24.9,0,0,0-4.67,1.72c-2.12,1-2.6,2.55-1.67,4.76a21.14,21.14,0,0,0,1.66,3.07c3.37,5.4-1.53,15.75-8.54,15.45-3.06-.13-4,1-3.49,4a46.81,46.81,0,0,0,2.11,6.63,9.4,9.4,0,0,1,.61,1.62A1.62,1.62,0,0,1,705,150a1.4,1.4,0,0,1-1.32,0c-4.45-3.36-8.54-7-9.59-12.89a7.71,7.71,0,0,1,2.23-6.64c1.28-1.42,2.66-2.76,3.9-4.22,2.39-2.81,2.3-4-.73-6a21,21,0,0,1-7.89-10.06c-2.1-5.41-.36-10.06,4.92-12.43,3-1.36,6.29-2.17,9.43-3.27a49.62,49.62,0,0,0,5.11-2,32.68,32.68,0,0,0,3.53-2.33c-.77-.95-1.3-1.65-1.88-2.3-5.32-6-9.15-12.78-10.55-20.66-2.69-15.09,2.71-33.7,21.87-40.41a62.46,62.46,0,0,1,9.91-2.48c4.38-.77,8.4.55,12.1,2.92,4.85,3.12,8.55,7.39,11.86,12C764.1,47.93,768.77,57.5,773,67.3c1.84,4.28,3.74,8.52,4.65,13.15a27.94,27.94,0,0,1-4.17,21,68.71,68.71,0,0,1-6.36,7.66,7,7,0,0,1-1.68,1.07l.07.81c.42.23.86.45,1.26.71,9.69,6.44,15.41,15.68,18.69,26.62a69,69,0,0,1,2.88,19.2A202.88,202.88,0,0,1,787.1,185a59.73,59.73,0,0,1-1.55,7.06,5.1,5.1,0,0,1-.91,1.76c-1.25,1.61-2.58,1.49-3.71-.38-1.52-2.48-2.87-5.08-4.44-7.52a39.57,39.57,0,0,0-9.73-11c-1.41-1-2.81-2.3-5.2-2.06.59.66.94,1.08,1.33,1.46a45.15,45.15,0,0,1,8.82,12.93,3.34,3.34,0,0,1,.48,1.4,2.24,2.24,0,0,1-.56,1.48c-.2.19-1,0-1.31-.24-1-.73-1.92-1.58-2.87-2.39a35.4,35.4,0,0,0-21-8.45q-16.82-1.22-33.64-2.57a4.78,4.78,0,0,1-2.53-.78c-4.21-3.4-8.94-3.72-14-2.6-1,.23-2.1.51-3.16.72a14.21,14.21,0,0,0-7.6,3.95c-3.12,3.11-6.49,6-10,9.11a6.79,6.79,0,0,0,1.27,1.11c4.66,2.31,9.14,1.13,13.4-1a6.1,6.1,0,0,1,5-.54,20.89,20.89,0,0,0,11.83.11,8.46,8.46,0,0,1,6,.5,235.3,235.3,0,0,0,32.74,12.18c6.67,1.84,13.4,3.48,20.39,3.2a32.12,32.12,0,0,0,6.38-1,5.9,5.9,0,0,0,4.19-3.28,2.41,2.41,0,0,1,2.81-1.47q21.29,1.88,42.58,3.65c6.81.58,13.62,1.11,20.42,1.72,1.09.1,2.7-.31,3,1.14.33,1.63-1.45,1.83-2.47,2.34q-39.27,19.74-78.58,39.4L662.12,296.25a22.16,22.16,0,0,0-3.1,1.61c-2.79,2-5.78,2.08-9,1.52-8.46-1.47-16.93-2.79-25.4-4.13-10.37-1.63-20.74-3.19-31.11-4.81-8.47-1.33-16.94-2.72-25.41-4.05-6.67-1.05-13.34-2-20-3.08-8.15-1.27-16.28-2.58-24.42-3.87-1.4-.22-2.81-.39-4.2-.63a5.48,5.48,0,0,1-1.89-.58,1,1,0,0,1,.53-2,13.91,13.91,0,0,1,2.73.22c14.23,2.26,28.45,4.56,42.69,6.79,12.25,1.93,24.52,3.78,36.78,5.71s24.34,3.88,36.52,5.81c5.43.86,10.85,1.74,16.3,2.46a5.71,5.71,0,0,0,3-.76c8.36-4.13,16.68-8.34,25-12.52l109.85-55q23-11.52,46-23.07c.66-.33,1.26-.75,2.19-1.31a6.45,6.45,0,0,0-1.33-.51l-43.58-3.67c-4.32-.36-8.64-.7-12.95-1.12-1.05-.1-2-.15-2.67.82-2.61,3.59-6.51,4.45-10.56,4.77-6.31.49-12.46-.65-18.55-2.13-12.82-3.13-25-8-37.09-13.28a6.66,6.66,0,0,0-4.56-.51,25.52,25.52,0,0,1-13.1,0,5.17,5.17,0,0,0-3.6.43,38.26,38.26,0,0,1-5.88,2c-4.4,1.09-8.4-.25-12.16-2.47-1.34-.79-1.42-1.68-.21-2.81,4.59-4.24,9.13-8.53,13.92-12.54,1.3-1.09,3.33-1.43,5.1-1.81a78,78,0,0,1,9.33-1.57A12.66,12.66,0,0,1,710,172.6a9.51,9.51,0,0,0,5.1,1.75c9.31.7,18.6,1.52,27.92,2,8,.43,15.7,1.89,22.46,6.56a8.56,8.56,0,0,0,1,.43,13.8,13.8,0,0,0-.94-1.92,30.75,30.75,0,0,0-8.36-8.5,7.71,7.71,0,0,1-1.46-1.8,7.76,7.76,0,0,1,1.93-1.33c2.37-.7,4.63,0,6.79,1,4.73,2.06,8.21,5.66,11.17,9.73,2.2,3,4.1,6.26,6.14,9.4.29.46.64.88,1.11,1.52a11,11,0,0,0,1.6-5.35,167.46,167.46,0,0,0,1.07-34.16c-.84-9.76-3.53-19-9.11-27.16a37.13,37.13,0,0,0-12.86-12c-2.46-1.35-2.49-1.84-.23-3.65a34.36,34.36,0,0,0,9.92-12.35,24.64,24.64,0,0,0,1.11-19.22c-4.68-13-10.49-25.38-18.42-36.72a46.66,46.66,0,0,0-9.44-10.25,16.88,16.88,0,0,0-15.24-3.41,51.79,51.79,0,0,0-11,4c-7.87,4-12.62,10.44-14.95,18.75-3.83,13.62-.07,25.44,8.88,35.94.1.12.27.16.89.49a21.37,21.37,0,0,0-.43-3.22c-.82-2.8-2-5.5-2.58-8.34-2.26-11-.66-21.41,6-30.67,3.74-5.21,8.81-8.28,15.45-8.28a4.8,4.8,0,0,1,3.9,1.81c6.21,7.16,10.95,15.11,12.87,24.49a32.57,32.57,0,0,1-1.88,20.07c-.3.68-.61,1.36-.91,2a13.18,13.18,0,0,0,1,13.1c1.17,1.83,2.39,3.61,3.52,5.46a9.89,9.89,0,0,1,1.5,7.4,6,6,0,0,1-4,4.71,29.89,29.89,0,0,1-4.62,1c-1.63.29-3.31.4-4.93.74-2.63.56-3.86,2.37-3.2,5a22.39,22.39,0,0,0,2,5.07c1.3,2.41,2.87,4.68,4.23,7.06a15.48,15.48,0,0,1,1.57,3.65c.78,3-.35,5-3.31,6-2.59.9-5.21,1.73-7.81,2.62-.62.21-1.2.57-1.8.84a2.23,2.23,0,0,0-1.48,2.59c.4,2.5-.87,4.19-2.8,5.41a40.87,40.87,0,0,1-5.51,2.92c-2.38,1-3.51,2.69-3.3,5.26a39,39,0,0,0,.42,4.48c.57,2.85-1.07,4.87-4.12,3.69C706.5,168,698,165,689.67,161.69c-6.07-2.45-4.82-1.33-4.75-7.32.1-7.51.1-15-1.09-22.45a136.5,136.5,0,0,0-5.6-21.48c-1-3-2.25-5.92-3.1-9-.57-2-1.92-2.65-3.64-3.29-7.24-2.7-14.52-5.35-21.65-8.34-6.22-2.61-11.74-6.41-15.6-12.07a63.55,63.55,0,0,1-4.45-8.6,3.19,3.19,0,0,1,.62-3.7,15.81,15.81,0,0,0,3.66-8.86c.2-1.65.53-3.29.87-4.92a2.54,2.54,0,0,1,.7-1.54c2.44-1.75,2.43-4.42,2.7-7a17.69,17.69,0,0,0,0-4.24,3.28,3.28,0,0,0-1.16-2.29c-1.48-.71-1.48-1.81-1.47-3.1a49.72,49.72,0,0,0-3.55-19C626.22-.34,608.61-.13,600.72,7.84A20.25,20.25,0,0,0,594.81,22c-.13,4.49,0,9,.08,13.5,0,1.25.16,2.46-1.31,3.19a2.34,2.34,0,0,0-.81,1.7,20.62,20.62,0,0,0,1.31,9.07c.26.71.95,1.63,1.58,1.76,2.09.44,2.08,2,2.49,3.55a86.3,86.3,0,0,0,3,9.75,9.76,9.76,0,0,0,3.28,3.92,2.35,2.35,0,0,1,1,3,25.89,25.89,0,0,1-6.79,11.75,32.49,32.49,0,0,1-13.85,7.65c-4.22,1.27-8.53,2.26-12.76,3.48a4.86,4.86,0,0,0-2.4,1.53c-9.3,12.64-17.79,25.76-23.51,40.47a52.66,52.66,0,0,0-3.55,14c-.58,6.06,1.9,10.91,7.14,13.7a8.42,8.42,0,0,0,8.8-.15c3.13-1.89,5.26-4.7,7.31-8.28-1.11.12-1.72.17-2.32.26-4.94.75-7.78-.81-9.72-5.37-3.64-8.54-2.28-16.52,3.12-23.78a36.62,36.62,0,0,1,7.47-7.65c12.32-9.08,24.53-18.33,37.4-26.68,3.69-2.39,6.86-2.25,10.54-1.12,5.1,1.56,7.56,5.46,9.08,10.17.56,1.74,1,3.52,1.43,5.3.59,2.37.5,2.51-1.86,3.51-.37.15-.73.33-1.31.59a22.07,22.07,0,0,0,.49,2.91,2.66,2.66,0,0,1-.93,3.1c-2.19,1.88-4.08,4.13-7.39,4.2-3.87.08-7.45-.56-10.61-2.91-.54-.39-1.05-.81-1.81-1.39-8.87,8.62-16.29,18.43-24.16,27.84,1.52,1.43,61.1,26.21,63.87,26.56a11.53,11.53,0,0,0-.46-1.34c-5.8-12-11.73-23.91-17.34-36-1.56-3.35-2.2-7.13-3.15-10.74-.12-.46.46-1.09.72-1.65.56.27,1.32.4,1.64.84,2.07,2.82,4.06,5.69,6,8.57q17.69,25.59,35.32,51.19c.62.9,1.5,2.29,1.2,3-.6,1.45-2.21.6-3.36.45-13.05-1.71-26.09-3.47-39.14-5.2-9.82-1.31-19.65-2.57-29.48-3.88-10.15-1.35-20.3-2.76-30.45-4.12q-8.42-1.12-16.85-2.16c-2.78-.34-2.95-.44-3.64-3.15-2.55-10.09-5.12-20.18-7.61-30.28a15.82,15.82,0,0,1-.2-3.72c0-6.57.1-13.15-.07-19.72a32.29,32.29,0,0,0-1.23-7.12c-1.79-6.91-6.71-10.9-13-13.45-1.77-.71-3.65-1.14-5.48-1.72a3.8,3.8,0,0,1-1.58-.62c-2.18-2.3-4.32-4.62-6.34-7.05a2.26,2.26,0,0,1,.13-2c2.8-4.67,2.53-9.35.14-14-1.62-3.19-3.61-6.23-4.05-9.87a72.34,72.34,0,0,1-.51-8.2c0-4.5.15-9-.87-13.43-2.52-11-9.29-18-19.83-21.47a32,32,0,0,0-16.27-1.17c-8.45,1.64-15.47,8.57-16.61,17.14a72.23,72.23,0,0,0-.44,11.95c.17,4.82.68,9.64,1.19,14.45,1.5,13.94-1.68,27-7.58,39.46-.67,1.41-1.36,2.81-2.17,4.49a9,9,0,0,0,2,0,71.38,71.38,0,0,0,16.3-6.18,40,40,0,0,0,4.74-3.23,9.45,9.45,0,0,0,3.82-8,57.07,57.07,0,0,0-3.32-18.61,36,36,0,0,1-1.23-20.87,9,9,0,0,1,3.51-5.48c3.91-2.94,7.24-6.48,8.33-11.48a20.26,20.26,0,0,0,.17-4.93c-.07-1.95.61-2.57,2.34-1.67,6.67,3.44,13.17,7.16,18.81,12.19,2.8,2.5,4.51,5.41,4.37,9.37-.22,6.07,0,12.16-.29,18.23a31.81,31.81,0,0,1-2.43,11.42,17.11,17.11,0,0,1-8.13,8.81,3.28,3.28,0,0,0-2.12,3.72,12,12,0,0,1,0,3c-.39,2.71,1,4.3,3,5.78,5,3.68,10.59,3.49,16.28,2.39,1.47-.29,2.89-.82,4.36-1.1a1.73,1.73,0,0,1,1.48.42,1.87,1.87,0,0,1,0,1.58,7.88,7.88,0,0,1-1.27,1.53c-4.5,5.3-8.47,10.93-10.57,17.66a18.55,18.55,0,0,0-.84,8.12c1,6.84-.85,13.23-3.6,19.39a59.69,59.69,0,0,1-3.56,6.58c-1.05,1.71-1.61,1.64-3.09.28-3.3-3-6.53-6.16-10-9A24.5,24.5,0,0,0,467.7,136a14.51,14.51,0,0,0-9.53.65,41.58,41.58,0,0,1-5.17,1.79c-5.81,1.49-10.42-1.34-11.48-7.22-.75-4.13-.85-8.22,1.39-12.13,1.43-2.5,2.42-5.25,3.85-8.4-1,.43-1.47.6-1.91.85s-.83.57-1.24.85c-6.85,4.66-6.83,4.66-9.37,12.64-.9,2.85-1.93,5.66-2.88,8.5a2.83,2.83,0,0,1-2.27,2c-3.53.84-7,1.8-10.56,2.72l-.1.56c.86.33,1.71.72,2.59,1q27.47,7.94,54.94,15.84,16.32,4.69,32.64,9.34a20.07,20.07,0,0,1,3,1.08,1.41,1.41,0,0,1,.65,1.18c-.07.37-.59.77-1,1a2.52,2.52,0,0,1-1.22,0l-33.76-3.91-18.87-2.13-26.32-2.95q-11.55-1.31-23.09-2.64c-4.56-.52-4.43-.52-4.89-5-1.38-13.5-2.79-27-4.32-40.5q-1.24-10.9-2.95-21.78a47.67,47.67,0,0,0-6.56-17.94c-6.28-10.11-15.7-15.23-27.19-17.14A24.12,24.12,0,0,0,345.26,57a29.12,29.12,0,0,0-9.09,8.79,49.17,49.17,0,0,0-8.21,21,9,9,0,0,1-1,2.17,8.25,8.25,0,0,1-2.19-1.28c-3.15-3.56-6.13-7.26-9.3-10.79-1.57-1.74-1.76-3.9-2.42-5.93-.35-1.09-.66-2.2-1-3.36a10.85,10.85,0,0,0-5.46,2,3.48,3.48,0,0,0-1,1.89c-1.13,3.91-2.07,7.88-3.33,11.75-2.26,7-7,11.35-14.25,12.89a32.92,32.92,0,0,0-4.79,1.41c-7.75,3-12.35,8.76-13.8,16.75a65.18,65.18,0,0,0,3.43,36.34c2.86,7.15,2.8,5.89,8.77,4.77,6.8-1.28,13.58-2.6,20.39-3.79,1.54-.27,2.09-.9,2.1-2.44a115.55,115.55,0,0,1,3.52-26.95c2.55-10,6.45-19.42,13.3-27.37a27.21,27.21,0,0,1,3.14-3.21c.53-.44,1.43-.42,2.17-.62a7.06,7.06,0,0,1,.2,2.07c-1.37,6.26-3,12.47-4.17,18.76-2.12,11.52-3.23,23.11-1.35,34.8a77.51,77.51,0,0,0,1.67,7.81,36.75,36.75,0,0,1-.9,22.1,51.9,51.9,0,0,0-2.24,19.5c.21,4.32.89,8.61,1.38,12.91a12.74,12.74,0,0,0,.43,1.7l2.11-.68a82.41,82.41,0,0,1,8.29-2.67,16.19,16.19,0,0,1,15.37,4.43c5.21,5,12,7.09,19.25,3.48,4.84-2.4,9.68-4.83,14.6-7.08a31.1,31.1,0,0,1,12.74-3.19,19.66,19.66,0,0,1,10.7,2.86,9.48,9.48,0,0,0,1.1.56c.06,0,.16,0,.58-.06.37-.77.88-1.68,1.26-2.65a33.94,33.94,0,0,0,1.94-16.21,6.63,6.63,0,0,0-1.43-2.77c-1.69-2.35-3.77-4.48-5.14-7a15.8,15.8,0,0,1-.52-14,2.45,2.45,0,0,1,.42-.89c.56-.54,1.19-1,1.79-1.51a6.83,6.83,0,0,1,1.3,1.69c1,2.83,1.89,5.68,2.65,8.58,1,3.86,1.78,7.79,2.85,11.63a5.49,5.49,0,0,0,2,2.66,64,64,0,0,0,16.19,8.24,15.33,15.33,0,0,1,5.32,3.14,168.39,168.39,0,0,1,32.48,40.29,29.24,29.24,0,0,0,3.39,4.59c2.76,3.12,5.62,6.15,8.45,9.2a14.67,14.67,0,0,0,1.2,1l.45-.33c-.54-.87-1-1.79-1.62-2.61-6.11-8.32-12.13-16.71-18.39-24.91s-12.64-16.12-19-24.11a3.49,3.49,0,0,1-.57-4.28c1.9-3.88,3.55-7.89,5.33-11.83,1.12-2.47,1.19-2.55,3.75-1.84,9.24,2.52,18.46,5.1,27.68,7.66L512,201.54c2.57.71,5.13,1.43,7.68,2.2s2.67,1.24,1.45,3.54q-6,11.37-12.07,22.71L491,263.7c-.23.44-.47.88-.72,1.31-1.13,2-1.82,2.09-3.38.49-1.22-1.25-2.37-2.57-3.59-3.83a2.48,2.48,0,0,0-1.75-.7,35,35,0,0,0,1.27,3.38c1.95,3.85,5,6.87,8.05,9.8s6.21,5.55,9.27,8.37c2.26,2.08,4.55,4.16,6.64,6.42,1.89,2,1.82,3.28.36,5.59-4.48,7-11,9.24-19,8.11-7.72-1.08-14.75-4.14-21.39-8a283.85,283.85,0,0,1-44.22-32.05c-.5-.43-1-.85-1.54-1.24-.1-.07-.31,0-.57.05a15.21,15.21,0,0,0,0,1.91c1.9,14.47-2.45,27-12,37.8a6.64,6.64,0,0,0-1.73,4c-.62,7.56-1.4,15.1-1.82,22.67-.15,2.7.5,5.46.86,8.18q1.27,9.78,2.62,19.56a14.33,14.33,0,0,0,.48,1.58c.58-1.11,1-1.74,1.25-2.41a110.91,110.91,0,0,1,11.54-22.92,36.13,36.13,0,0,1,8.44-9.13c5.65-4.08,11.14-4.18,16.92-.3,6.27,4.22,11.56,9.52,16.58,15.1,11.29,12.54,20.9,26.34,30.08,40.44q16.56,25.46,30.82,52.25a5.83,5.83,0,0,1,.57,1.11c.15.6.47,1.5.21,1.79a2.54,2.54,0,0,1-1.94.61c-3-.49-6.08-1-9.08-1.72a141.51,141.51,0,0,1-22-7.25,38.33,38.33,0,0,0-8.41-2.15,4.54,4.54,0,0,0-5.23,3.32,45.47,45.47,0,0,0-1.52,5.78,21.7,21.7,0,0,0-.34,3.23c-.43,6.79-3.63,8.31-9.73,6.92a94.92,94.92,0,0,1-10.62-3.62c-6.65-2.38-13.18-5.22-20-7.1-10.09-2.81-20.16-1.83-29.84,2.19-2,.84-3.8,2.34-5.72,3.49-.54.32-1.45.85-1.7.65a2.75,2.75,0,0,1-.88-1.84c-.23-4.41-.32-8.83-.54-13.24-1-20.14-1.84-40.29-3.11-60.41-.8-12.71-2-25.41-3.48-38.07-1.51-13.49-3.28-27-6.94-40.08a91.92,91.92,0,0,0-3.67-10.07,8.9,8.9,0,0,0-6.37-5.49c-5.81-1.45-11.58-3.12-17.45-4.27-9.72-1.91-19.49-3.59-29.27-5.18-8.87-1.44-17.79-2.66-26.69-3.93q-14.59-2.1-29.19-4.1c-7.35-1-14.7-1.93-22.06-2.85-13.8-1.74-27.6-3.49-41.41-5.17-11-1.34-22-2.6-33-3.89-11.75-1.38-23.49-2.78-35.24-4.13-9.11-1-18.22-2-27.32-3-9.52-1.06-19-2.15-28.56-3.19q-18.25-2-36.52-3.93c-9.86-1.06-19.71-2.14-29.57-3.18-4.55-.49-9.11-1-13.68-1.34-4.78-.4-5-.58-3.42-5A74.32,74.32,0,0,1,15,190.46a45.08,45.08,0,0,1,26.2-14.87c6.13-1.17,12.22-2.54,18.33-3.84.89-.19,1.77-.47,3-.79-.12-.9-.16-1.77-.36-2.61-.4-1.7-.85-3.39-1.33-5.07a2.65,2.65,0,0,1,1.54-3.46c4.54-2.45,9-5,13.53-7.52,2.23-1.26,4.42-2.61,7-4.15a29.83,29.83,0,0,0-3.89-2.64,11.34,11.34,0,0,1-5.5-6.14c-1.82-4.11-4-8.08-5.69-12.22a34.75,34.75,0,0,1-2.28-7.59,131.29,131.29,0,0,1-2.24-30.84,63.8,63.8,0,0,1,8-26.57,4.83,4.83,0,0,1,2-2.08c9.83-4.58,20-8,31-7.53,9,.34,17.25,3.4,25,7.84a62.93,62.93,0,0,1,14.19,10.95c1.6,1.65,1.61,2,.15,3.77-1.67,2-3.36,3.93-5.11,5.83a3,3,0,0,0-.74,3.35c1.16,3.47,1.94,7.07,3.13,10.52,1,2.73.12,5.3-.26,7.89-1,6.5-2.13,13-3.23,19.46-.39,2.25-.67,2.5-3,2.28-6.19-.6-4.93-.15-5.26-5.42-.11-1.91-.21-3.82-.36-5.73a5.49,5.49,0,0,0-4.16-4.7c-2-.48-3.44.17-4.78,2.32-4,6.46-3.88,13.89,1.61,20.07.45.5.93.95,1.42,1.41a1.73,1.73,0,0,1,.4,2.42q-4.62,7.86-9.15,15.77c-.76,1.34-1.84,1.16-3,.9-3.5-.76-7-1.71-10.51-2.19a92.91,92.91,0,0,0-9.46-.42,4.66,4.66,0,0,0-1.17.36,18.72,18.72,0,0,0,1.66,1.38c4.29,2.73,8.5,5.58,12.92,8.08a31.11,31.11,0,0,0,7,2.5c7.14,2,14.32,3.83,21.48,5.72l.48.15c3.12.92,3.22,1.15,1.73,4.09-1.25,2.45-2.51,4.89-3.74,7.34a14,14,0,0,0-.59,1.69c2.47.58,4.79,1.09,7.09,1.66,14.73,3.67,28.75,9,41.26,17.81a65,65,0,0,1,12.88,11.74,4.88,4.88,0,0,1,.57,1.36l1-.7c-3.17-10-6.57-20-9.93-30.15l-15.15,3.86c-.73.18-1.46.34-2.19.54-5,1.36-3.87,1.5-7.52-2.08-7.14-7-14.16-14.09-21.32-21.06a4.11,4.11,0,0,1-1.28-4.8c1.51-4.84,2.84-9.76,3.92-14.71a45.77,45.77,0,0,0,.23-16.42c-1-7,0-13.77,1-20.61A2.81,2.81,0,0,1,144,104c5.08-1.26,10.12-2.72,15.18-4.09,2.68-.72,2.73-.7,2.36-3.58a159.46,159.46,0,0,1-.84-35.41c.81-8.4,2.32-16.68,6-24.37,5-10.52,13.5-16.48,25-17.94a42.55,42.55,0,0,1,24.58,3.78,29.92,29.92,0,0,1,9.34,7c4.44,5,8.53,10.25,11,16.56,2,5.2,1.2,9-3,12.53A37.07,37.07,0,0,1,227,62.61c-2,1-2.65.54-2.7-1.78-.07-4-.49-8-2.29-11.67a19.78,19.78,0,0,0-7.16-7.92c.18.54.34,1.09.54,1.62,1.42,3.72,2.89,7.42,4.26,11.16a8.22,8.22,0,0,1,.36,2.71c0,3.62-1.92,5.76-5.52,5.58-10.5-.53-20.23,2.46-29.87,6.1a2.35,2.35,0,0,0-1.75,3,58.84,58.84,0,0,0,4.73,16.24,28,28,0,0,0,8,10.41q5.55,4.23,11.34,8.15a24.28,24.28,0,0,0,4.33,1.87c2.19.93,3.84.14,5.28-1.57a41.76,41.76,0,0,0,7.22-13.32A87.23,87.23,0,0,0,228.4,69a8.62,8.62,0,0,1,.2-2.23,5.52,5.52,0,0,1,1.15-1.45c.44.43,1.11.78,1.27,1.29.65,2,1.13,4,1.67,6,2.27,8.28,4.53,16.55,8.86,24.06,1.29,2.24,2.63,4.45,4,6.61,1.67,2.59,1.64,2.82-1.25,4.14s-5.77,2.58-8.65,3.89c-.74.33-1.44.74-2.74,1.41,2.48.83,4.39,1.49,6.31,2.1,1.35.43,2.76.69,4.07,1.21a8.41,8.41,0,0,1,3,1.73c11,11.89,19.58,25.23,24,41,.69,2.47.37,2.87-2.06,3.41q-17.43,3.83-34.86,7.7c-11.14,2.45-22.28,4.91-33.43,7.31-.88.18-2.33.21-2.71-.29-.86-1.15.46-1.88,1.2-2.6,4.23-4.15,8.37-8.37,11.48-13.47a23.21,23.21,0,0,0,1.74-3.58c1.1-2.88.56-4.38-2.3-5.58a75.77,75.77,0,0,0-9.61-3.52c-13.18-3.53-26.41-6.89-39.62-10.3a2.94,2.94,0,0,0-2,.22q24,30.6,48.09,61.2c.21.27.63.38,1.37.81-1.06-3.95-2-7.46-2.92-11-.13-.48-.32-.95-.42-1.44-.48-2.21-.36-2.52,1.78-3.35,11-4.31,22-8.57,33-12.9a3.17,3.17,0,0,1,3.83.76c7,6.94,14,13.83,20.91,20.77,1.67,1.66,1.35,2.59-1,3.17q-18.06,4.48-36.12,8.92c-1.53.38-3.05.8-4.91,1.29.44.56.67,1.09,1.07,1.32,13,7.43,26.72,10,41.37,6.29a3.38,3.38,0,0,0,2.14-1.75c3.36-9.65,10.26-16.42,18.1-22.41,9.27-7.08,19.67-12.12,30.51-16.28.81-.31,1.72-.75,2.18.22a2.39,2.39,0,0,1-.33,2c-10.15,14.14-21.73,26.79-37.39,35a89.65,89.65,0,0,1-9.38,4.06c-1.51.59-2.53,1.28-2.85,3-1,5.9-2.23,11.77-3.34,17.65a20,20,0,0,1-.47,3c-.2.56-.92.94-1.41,1.39a5.46,5.46,0,0,1-.83-1.58,7.41,7.41,0,0,1,.15-2.24c1-5.73,2.09-11.46,3.12-17.2.12-.62.19-1.25.32-2.13a20.46,20.46,0,0,0-2.14.19c-15.66,3-30.11,0-43.42-8.68a12.13,12.13,0,0,1-2.15-2.49,16.12,16.12,0,0,1,3-1.49c8.95-2.27,17.93-4.45,26.9-6.66,4.13-1,8.24-2.06,12.36-3.1.46-.12.89-.34,1.62-.62-.61-.72-1-1.3-1.54-1.81-5.67-5.63-11.39-11.22-17-16.89a3.1,3.1,0,0,0-3.93-.8c-9.51,3.79-19.08,7.43-28.63,11.12a11.79,11.79,0,0,1-1.38.57c-1.64.41-1.74,1.38-1.33,2.84,1.53,5.45,3,10.92,4.44,16.39.09.32.3.66.24.95a11.81,11.81,0,0,1-.54,1.72,8.74,8.74,0,0,1-1.72-.6,4.66,4.66,0,0,1-1-1.13L155.44,138.6a15.65,15.65,0,0,1-1.62-2.21c-.27-.51-.47-1.41-.21-1.77a2.15,2.15,0,0,1,1.75-.42c2.21.4,4.41.89,6.59,1.43,14.23,3.49,28.51,6.77,42.43,11.41a55.48,55.48,0,0,1,6.7,2.7c3.15,1.52,4.3,3.93,3.18,7.2a27.64,27.64,0,0,1-3.42,6.88c-2.33,3.32-5.06,6.37-7.82,9.78a9.55,9.55,0,0,0,1.86,0q19-4.2,38-8.43,11.1-2.44,22.21-4.81c2.66-.57,3-1,2.16-3.51-4.64-13.9-12.34-25.94-22.11-36.76-1.29-1.43-3-1.78-4.6-2.32-3.32-1.09-6.68-2-10-3.05a3.67,3.67,0,0,1-1.16-.44c-.49-.37-1.22-.85-1.24-1.3a2.09,2.09,0,0,1,1.09-1.44c2.09-1,4.24-1.93,6.37-2.88s4-1.75,5.92-2.67c.65-.3,1.25-.72,2.07-1.21-6.19-9-10-18.75-12.56-29.07l-.69.12c-.4,2.31-.76,4.62-1.22,6.91-1.73,8.82-4.4,17.27-9.94,24.54-1.45,1.89-3.06,3.67-5.67,3.58a13.92,13.92,0,0,1-4.38-.87,21.67,21.67,0,0,1-5.1-2.59c-3.92-2.81-7.86-5.63-11.49-8.79-4.91-4.28-7.74-10-9.55-16.13-1.2-4.06-1.82-8.28-2.67-12.44A2.48,2.48,0,0,1,182,66.84c8.29-3.34,16.75-6.06,25.71-6.88,2-.18,4-.08,6-.07,3.25,0,4.36-1,3.83-4.21a29.73,29.73,0,0,0-2.16-7.14c-1.59-3.56-3.53-7-5.34-10.43a11.13,11.13,0,0,1-1-1.72c-.2-.65-.42-1.6-.11-2,.63-.91,1.47-.23,2.16.22a43,43,0,0,1,11.06,10,22.68,22.68,0,0,1,4.35,11.27c.14,1.21.26,2.42.44,4.17,3.87-2.09,7-4.13,8.21-8.09a5.16,5.16,0,0,0-.24-3.17c-4.27-11-10.63-20.27-21.85-25a37.63,37.63,0,0,0-26.65-1.43C176.07,25.5,170,32.88,166.75,42.94,163,54.69,162,66.78,162.54,79c.28,6.65,1.17,13.27,1.81,19.9.17,1.82,0,2.18-1.73,2.66-5.46,1.49-10.92,3-16.41,4.38-1.73.43-2.55,1.21-2.66,3a45.79,45.79,0,0,1-.79,5.69c-.77,4-.38,8,.11,11.94a65.1,65.1,0,0,1-3.3,29.52c-1.39,4.11-1.33,4.15,1.77,7.24,6.62,6.57,13.28,13.09,19.85,19.71a3.75,3.75,0,0,0,4.21,1.05c5.93-1.65,11.92-3.12,17.89-4.64,1.77-.45,2.25-.15,2.88,1.77,2.72,8.21,5.41,16.44,8.13,24.66q3.48,10.55,7,21.09c.21.63.38,1.28.62,1.9.36.93.57,1.92-.59,2.3s-1.39-.57-1.68-1.38c-.41-1.18-.82-2.36-1.28-3.52-4.24-10.47-11.65-18.32-20.71-24.74-10-7.05-21-11.82-32.68-15.23-5-1.47-10.17-2.5-15.28-3.68-2.13-.49-2.45-1-1.44-3.1,1.31-2.69,2.68-5.36,4-8,.25-.51.44-1,.79-1.89-1.39-.42-2.62-.82-3.87-1.16-7.56-2-15.12-4-22.66-6.11a12.42,12.42,0,0,1-3.16-1.41c-5.16-3.2-10.36-6.36-15.4-9.76a4.37,4.37,0,0,0-5.25-.06c-3.73,2.19-7.5,4.33-11.25,6.47-2.17,1.24-4.32,2.53-6.55,3.65a2.34,2.34,0,0,0-1.38,3.22c.6,2,1.11,4,1.54,6s.12,2.61-2.07,3.06c-6.28,1.3-12.56,2.6-18.84,3.86-8.61,1.72-16.69,4.51-23.32,10.62-8.61,7.93-14.13,17.74-18,28.85a8,8,0,0,0,1.65.6c8.28.91,16.57,1.77,24.85,2.66l39,4.21c9.1,1,18.22,1.95,27.32,3q22.48,2.5,44.95,5.07c9.18,1,18.38,2,27.56,3.09,8.6,1,17.2,2.07,25.8,3.1,11,1.33,22,2.62,33,4q11.77,1.46,23.55,3c7.92,1,15.85,2.05,23.77,3.14q18.31,2.53,36.62,5.16c8.4,1.22,16.81,2.43,25.18,3.86,12.8,2.17,25.63,4.23,38.14,7.85a13.52,13.52,0,0,1,9.18,8.08,88.86,88.86,0,0,1,5.3,17.66A393.93,393.93,0,0,1,395.2,339c1.3,15.94,2.5,31.89,3.44,47.86.82,14.05,1.23,28.13,1.83,42.2.06,1.29.17,2.59.27,4a5.94,5.94,0,0,0,1.25-.27c13.15-7,26.78-7.38,40.63-2.61,7,2.42,13.82,5.34,20.76,7.92a27.21,27.21,0,0,0,6,1.48c3.41.42,4.46-.65,4.9-4.05a59.14,59.14,0,0,1,1.61-9.32c1.57-5.29,5.28-7.38,10.59-5.92,4.24,1.16,8.29,3,12.49,4.3,6.51,2,13.07,3.88,19.63,5.75a18.49,18.49,0,0,0,3.24.28c-.47-1-.69-1.63-1-2.18-14.27-26.1-29.47-51.62-47.47-75.36-6.76-8.9-13.91-17.47-22.46-24.75a68.27,68.27,0,0,0-5.8-4.33c-4.27-2.93-8.56-2.72-12.81.13a33.34,33.34,0,0,0-8.85,9.41c-4.94,7.29-8.49,15.29-11.56,23.52-.73,1.94-1.35,3.93-2.07,5.88-.28.76-.56,1.83-1.62,1.5a2.37,2.37,0,0,1-1.12-1.67c-.48-2.62-.82-5.27-1.17-7.91q-1.72-12.75-3.4-25.51a6.2,6.2,0,0,1-.06-1.49c.69-8,1.44-16.1,2.08-24.15a6,6,0,0,1,1.65-3.75,46.85,46.85,0,0,0,11.51-21.83c1.11-5.22.62-10.45.26-15.68,0-.5-.16-1-.16-1.49a9.55,9.55,0,0,0-2.52-6.3c-3.29-4-5.59-8.56-5-14a61.87,61.87,0,0,1,1.66-7.8c.26-1,.76-2.11,2.1-2.16s1.94,1,2.19,2c.71,2.82,1.37,5.67,1.81,8.54q1,6.42,1.57,12.9a5.86,5.86,0,0,0,1.9,3.88,195.34,195.34,0,0,0,22.61,18.48c8.9,6.44,17.79,12.91,27.66,17.87A57.24,57.24,0,0,0,487,300a20.53,20.53,0,0,0,9.88-.26,15,15,0,0,0,8.21-6.55,2,2,0,0,0-.4-2.89q-2.85-2.79-5.75-5.54c-4.82-4.59-9.77-9.06-14.45-13.79a16.94,16.94,0,0,1-5-8.76,6.37,6.37,0,0,1-.13-2.7,3.14,3.14,0,0,0-1-3.33c-2.08-2.17-4-4.44-6.12-6.59a62.77,62.77,0,0,1-9-11.87,159.75,159.75,0,0,0-29.44-36.05,15.64,15.64,0,0,0-5.45-3.39,69.74,69.74,0,0,1-14.79-7.19A11.53,11.53,0,0,0,411.93,190.43ZM141.87,73.33a19.31,19.31,0,0,0-2.06-2.13c-3.92-2.94-7.68-6.14-11.86-8.66-7.42-4.48-15.48-7.34-24.28-7.56C93.43,54.73,84,57.82,74.85,62.06A4.45,4.45,0,0,0,73,64c-5.44,10.3-8.24,21.27-7.52,32.92.46,7.47,1.47,14.91,2.39,22.34a24.25,24.25,0,0,0,1.71,6.22c1.24,3,3.1,5.75,4.14,8.79,1.88,5.56,5.56,9.24,10.65,11.85a6.39,6.39,0,0,0,4,.74,29.62,29.62,0,0,1,6.95-.44c4.7.49,9.39,1.25,14,2.13,2.69.5,2.66.7,4.11-1.77q3-5.17,6-10.35c1.32-2.31,1.31-2.32-.33-4.28a18.11,18.11,0,0,1-4.46-10.63,18.78,18.78,0,0,1,3.78-12.89,6.11,6.11,0,0,1,7.07-2.4c3,1,5.46,3.82,5.61,6.57.13,2.41.31,4.81.45,7.22.07,1.14.46,1.88,1.77,1.94s1.72-.74,1.9-1.82c.05-.24.09-.49.13-.73,1.12-6.91,2.26-13.8,3.33-20.71a6.61,6.61,0,0,0-.17-2.69c-1.1-4-2.2-8-3.48-12a3.59,3.59,0,0,1,.92-4C138,77.91,139.78,75.73,141.87,73.33Zm478.62,33.91c-.54-1.85-1.06-3.59-1.55-5.34a11.73,11.73,0,0,0-9.9-9,6.1,6.1,0,0,0-4.71.81c-13.35,8.36-25.8,18-38.53,27.24a30.72,30.72,0,0,0-8.2,9c-4,6.5-4.61,13.26-1.27,20.23,1.3,2.73,3,3.79,6,3.25a39.65,39.65,0,0,0,5.13-1.81,11.1,11.1,0,0,1,2.08-.3,5.78,5.78,0,0,1,0,2.3,30.68,30.68,0,0,1-7.75,10.9c-2.87,2.47-6.19,3.69-9.94,2.9a15.23,15.23,0,0,1-9.69-6.95c-.4-.61-.78-1.23-1.18-1.85a34.07,34.07,0,0,0,1.48,7.8c.18.56,1.22,1.1,1.92,1.2,6.43.94,12.86,1.8,19.3,2.66,7.59,1,15.19,2,22.78,3q15.35,2.06,30.69,4.15l24.26,3.25c5,.67,10.07,1.36,15.11,2a24.14,24.14,0,0,0,2.76,0c-12.28-17.75-24.19-35.11-36.49-52.22a1.62,1.62,0,0,0,.06,1.24q2.58,5.4,5.2,10.79,7.32,15,14.61,30.08a3,3,0,0,1,.25,2.25c-.58,1.08-1.57.42-2.41.07-3.84-1.6-7.69-3.18-11.53-4.77q-27.67-11.44-55.34-22.91c-2.48-1-2.62-1.52-1-3.54,8-9.7,15.76-19.6,24.59-28.58.62-.63,1.34-1.18,2.11-1.86a18,18,0,0,1,1.62,1.4c2.86,3.17,6.5,4.11,10.62,3.91,2.65-.13,4.1-2,5.69-3.66.3-.31.23-1.1.13-1.64C616.84,109.34,616.82,109.34,620.49,107.24ZM518.93,206.15c-2.52-.76-4.57-1.41-6.64-2l-40.65-11.29c-6.74-1.87-13.47-3.77-20.21-5.62-2.45-.67-2.59-.58-3.6,1.66-1.27,2.8-2.38,5.69-3.81,8.41-1,1.92-.69,3.21.62,4.88q15,19.14,29.87,38.46c2.93,3.82,5.54,7.9,8.18,11.94.84,1.27,1.78,2.67.71,4.38a1.49,1.49,0,0,0,.3,1.34c1.4,1.6,2.89,3.12,4.7,5.05C498.66,244.14,508.7,225.31,518.93,206.15ZM363.24,41.72a9.28,9.28,0,0,0,0-1.82A84.09,84.09,0,0,0,361,31.73c-2.56-7-6.51-13-13.22-16.61-8.79-4.75-18-5-27.27-1.57a17.76,17.76,0,0,0-11.46,13.18,31.81,31.81,0,0,0-.16,12.89c1,5.65,2.07,11.28,3.2,16.9.47,2.33,1.15,4.61,1.82,7.23l7.58-2.61c-.42-1.1-.74-1.92-1.06-2.75-1.69-4.45-2.12-8.9.21-13.26,1.72-3.23,4.42-3.67,7.17-1.31.55.47,1.09,1,1.76,1.56.73-1,1.38-1.85,2-2.72a38.76,38.76,0,0,1,8.19-9c2.41-1.79,5.05-2.39,7.73-1,4.33,2.27,8.54,4.77,12.79,7.19C361.2,40.38,362.07,41,363.24,41.72ZM716.15,91.94c-2.94,2.75-6.73,4-10.54,5.2-2.37.75-4.78,1.42-7.08,2.36-5.32,2.16-6.64,5.76-4.18,11,.21.45.45.89.69,1.33a21.84,21.84,0,0,0,6.82,7.14c3,2.18,3.34,4.52,1.2,7.51a51.75,51.75,0,0,1-4.43,5.06c-3.36,3.63-2.6,8.91,1.91,11.76-.1-.68-.16-1.21-.26-1.74-.91-5,.83-7.27,5.81-7.55a6.61,6.61,0,0,0,4.94-2.53c2-2.39,3.61-7.27.82-10.35a5.75,5.75,0,0,1-.71-1.32c-2.08-4.21-.91-7.52,3.39-9.31,1.68-.71,3.47-1.13,5.2-1.74A9.63,9.63,0,0,0,726,99.2,3.68,3.68,0,0,0,723.89,96C721.39,94.74,718.92,93.4,716.15,91.94Zm-447,119.9c9.31.24,39.81-24.49,42.63-34.21-.15,0-.34-.09-.47,0-9,3.83-17.66,8.17-25.39,14.2-5.45,4.25-10.7,8.76-14.18,14.9C270.79,208.32,270,210,269.11,211.84ZM414.23,235.5c-2.48,5.09-1.93,12.33,2.54,16.22A71.9,71.9,0,0,0,414.23,235.5Zm-9.78-66.86c-2.43,3.76-.21,11.57,3.75,13.86Z"/></g></g></svg>